<svg width="135" height="130" viewBox="0 0 135 130" fill="none" xmlns="http://www.w3.org/2000/svg">
<path d="M17.6164 30.5805C17.9607 30.513 18.3761 30.4947 18.8144 30.4858C19.3785 30.4741 19.984 30.478 20.5218 30.4135C21.5306 30.293 22.3875 30.2044 23.1624 30.1357C24.5999 30.0039 25.6849 30.032 26.7716 30.0414C27.6996 30.0502 28.6319 30.0678 29.6603 29.9821C29.7712 29.9726 29.8861 29.9612 30.0042 29.9474L30.0387 29.9426C31.4256 29.8745 31.0494 29.9691 31.3563 29.9741L31.3685 29.9754C31.5564 29.9988 31.7128 30.0164 31.7834 30.0223C31.8132 30.0259 31.8297 30.0231 31.725 30.0295C31.5204 30.1871 31.7079 29.5371 29.8188 30.9572L29.8282 30.9477C28.8142 32.2684 29.3187 31.8074 29.2258 31.851C29.2471 31.7841 29.2839 31.6409 29.3188 31.4827C29.3906 31.1603 29.4632 30.7631 29.5417 30.3219C29.6208 29.9396 29.5737 29.9418 29.8319 28.9661L29.8469 28.9195C30.2374 27.76 30.6695 26.5689 31.105 25.3977C32.057 22.8559 32.9814 20.4099 33.6338 18.523L33.6385 18.5042C33.8059 18.1042 33.9537 17.535 34.1101 16.985C34.3491 16.1178 34.657 15.289 34.9869 14.8479L34.9735 14.9046C35.0646 15.1125 35.2759 14.7066 35.4316 14.7927C35.4316 14.7927 35.4316 14.7927 35.4317 14.7927C35.4492 14.7948 35.4668 14.7984 35.4844 14.8036C35.6006 14.7944 35.6698 15.1369 35.8042 15.0889L35.8126 15.0535C35.9204 15.6112 36.0721 16.3303 36.3119 16.502C36.5622 16.6849 37.8703 16.8303 38.5955 17.5487C38.9002 17.8593 39.1098 18.2801 39.0376 18.956C39.0077 19.2101 38.9605 19.5021 38.882 19.8337L38.8857 19.8185C38.4199 21.9581 37.1217 25.0409 36.1961 27.1932C35.7279 28.2907 35.3639 29.1692 35.2266 29.6021C35.1286 29.9096 35.0451 30.2464 34.9668 30.6016L34.9758 30.5735C35.0307 30.4754 34.9682 30.9717 34.9576 31.2495C34.9227 31.7619 34.882 32.3128 34.7528 32.9472C34.5512 33.4614 34.968 33.3661 33.8564 34.9222C32.4823 35.9798 32.3916 35.5674 32.0818 35.6878C31.8311 35.7049 31.6636 35.7 31.5084 35.6952C31.2054 35.6836 30.9709 35.6603 30.7698 35.6427C30.6891 35.6211 30.1368 35.6373 30.7958 35.6089L30.819 35.6057C29.3672 35.8295 28.1595 35.8757 26.9958 35.9898C25.9711 36.0884 24.9697 36.2232 23.961 36.5329C23.793 36.5797 23.6265 36.6282 23.4566 36.6791C22.186 36.5648 20.9033 36.4637 19.6146 36.3638C19.3635 36.3445 19.1136 36.3251 18.8635 36.3055C17.8586 36.5209 16.5555 36.6161 15.3655 36.6731C14.7097 36.7012 14.6039 36.6458 14.3027 36.6282L14.2921 36.628C13.5802 36.549 12.8808 36.5244 12.8312 36.555C12.8748 36.5011 12.798 36.73 13.456 36.1738L13.4072 36.2249C13.0348 36.6891 12.9726 37.1624 12.6389 37.838C12.2288 38.6664 11.4409 40.1043 11.083 42.0842C10.7952 43.669 10.8302 44.6802 10.8766 45.5221C10.9248 46.3579 11.0148 47.0276 10.8674 48.0682C10.8645 48.0981 10.8612 48.13 10.8582 48.1606C10.8298 48.3799 10.8517 48.591 10.8294 48.4781C10.8637 48.3738 10.3663 47.7967 10.2419 47.8358C10.0948 47.8923 11.2589 47.991 12.2761 47.8796C12.8624 47.8341 13.4935 47.7678 14.1904 47.732L14.1564 47.7323C14.3184 47.7202 14.4788 47.707 14.6373 47.6922C14.9876 47.6153 15.3389 47.5406 15.6912 47.4682C15.4399 47.2996 15.1869 47.1321 14.9325 46.9657C16.3559 46.8853 16.9624 47.2403 18.2621 47.2896C19.7914 47.3553 20.5927 47.0843 21.626 47.1628C22.4075 47.2238 23.4221 47.539 24.4298 47.6736L24.4668 47.678C24.4633 47.6794 24.479 47.6816 24.5053 47.6817C25.1326 47.6715 25.4216 47.3986 25.6971 47.2469C25.8079 47.1982 25.936 47.156 26.1415 47.1259C26.4548 47.2631 27.0187 46.411 30.6446 47.618C33.3441 49.3465 32.9442 50.8636 33.1839 51.5893C33.2812 52.4038 33.2619 52.9855 33.2438 53.4887C33.1966 54.4782 33.1066 55.0905 33.094 55.2045C33.0419 55.5679 32.9834 55.8788 32.9282 56.1331C32.8745 56.3691 32.811 56.6695 32.8 56.5742L32.7987 56.5875C32.5168 57.9247 32.1539 58.4327 31.8702 60.0506C31.161 64.0016 30.3581 67.9164 29.6006 71.6148C29.4301 72.5219 28.6291 73.9881 27.3572 74.6507C26.1225 75.3146 25.1592 75.2982 24.4708 75.2881C23.098 75.2135 22.28 74.9323 21.5778 74.7586C21.2842 74.6805 21.0027 74.6104 20.9247 74.6044C20.8061 74.5822 20.6875 74.5604 20.5703 74.5392C18.3951 74.1421 16.2627 73.8578 14.2183 73.8573C17.5699 72.4016 9.92933 71.8072 12.9471 73.6589C11.3016 73.6133 10.01 74.0934 8.62084 74.5543C8.30076 74.6858 8.12695 74.8111 7.9831 74.887C7.72584 75.0346 7.09325 75.2253 6.77255 77.1543C6.65866 77.8736 6.61591 78.7022 6.57749 79.57C6.54072 80.3533 6.50831 81.1687 6.4216 81.9915L6.42363 81.9771C6.27883 82.8476 6.24097 82.8534 6.17422 83.1546C6.01862 83.765 5.89566 84.2398 5.80961 84.5284C5.54555 84.7081 6.29952 85.2245 4.83979 83.2188C4.63053 83.212 4.59244 83.4453 4.55361 83.7216C4.99717 83.8828 5.95448 84.0446 6.92902 84.1827C7.47864 84.2663 8.05339 84.3453 8.74272 84.5135L8.73257 84.511C11.1388 85.0806 13.2827 85.2342 14.4688 84.5329C15.0218 84.5627 15.956 84.8082 16.9602 85.0902C17.4137 85.2197 17.8877 85.356 18.3492 85.4875L18.3103 85.4835C18.601 85.5752 18.885 85.6518 19.1458 85.7088L19.1784 85.7102C19.4969 85.774 19.8117 85.8272 20.077 85.8639C20.3469 85.9059 20.9303 85.9516 21.8702 86.1694C22.7126 86.434 24.492 86.6759 25.6898 88.9037C26.4391 90.8935 25.9387 91.6257 25.7988 92.5006C25.5812 93.3237 25.3111 94.0346 25.0379 94.7074C24.4885 96.0436 23.9156 97.1991 23.4976 98.0661C23.178 98.7236 22.9507 99.209 22.8748 99.3998C22.8551 99.4482 22.8373 99.4945 22.8296 99.5151C22.2704 101.161 21.2997 103.739 20.925 105.033C20.8159 105.411 20.7711 105.784 20.7399 106.162C20.6337 107.493 20.6833 108.864 18.7268 110.704C18.0936 112.73 17.723 113.966 17.3024 115.288L17.307 115.272C17.177 115.681 17.1447 115.728 17.0703 115.93C16.778 116.693 16.4471 117.505 16.1122 118.467C15.9381 118.98 15.7015 118.986 15.6521 119.238C15.6403 119.303 15.6342 119.376 15.639 119.395C15.5203 119.295 16.0814 119.776 15.1813 118.325C15.4383 118.521 16.0051 118.754 16.7391 118.976C18.4455 119.467 19.6757 120.039 19.5298 119.28C20.0921 119.31 20.6701 119.329 21.2666 119.35C22.1086 119.384 22.9646 119.403 23.977 119.53C24.0469 119.562 24.1184 119.595 24.19 119.629C24.7757 119.894 25.1698 120.159 25.574 120.42C25.7733 120.443 25.9682 120.465 26.16 120.486C26.7449 120.552 27.3041 120.608 27.8339 120.637C27.2785 121.036 28.2793 121.473 29.0939 121.512C29.9745 121.554 30.1141 121.156 29.8356 120.864C29.9815 120.901 30.0563 120.896 29.9125 120.968C30.4113 121.208 31.9795 119.237 32.7988 117.207C33.2031 117.498 33.5977 116.765 33.8678 115.702C33.9445 115.406 34.013 115.084 34.0826 114.742C34.3797 113.216 34.4854 111.609 34.0699 111.758C34.1798 111.453 34.2906 111.15 34.4024 110.847C35.6818 108.308 36.3787 105.809 37.8752 102.741C39.0283 100.385 39.2916 100.051 39.7689 99.6843C39.8821 99.6464 40.0214 99.5813 40.2009 99.4383C40.3119 98.9792 40.3995 98.4212 40.4932 97.8428C40.5263 97.6368 40.5606 97.4251 40.5975 97.2094C40.3923 95.4742 40.6424 94.238 41.9876 93.044C43.5109 91.9367 44.8231 92.1727 46.6852 91.8206C47.112 91.7444 47.5878 91.6435 47.9796 91.4843C48.5636 91.2658 49.2157 91.0138 49.9585 90.7276C52.4949 91.0823 58.1323 90.1682 61.9307 89.9658C62.3699 89.9349 62.3794 89.7447 62.9641 89.6932C63.4893 89.6478 64.3108 89.6615 65.1298 89.6665C66.5415 89.677 67.942 89.6484 67.868 89.259C68.2991 89.3253 68.7292 89.3899 69.1585 89.452C69.9579 89.5673 70.759 89.675 71.5624 89.775C72.5678 89.6443 73.5703 89.5016 74.5699 89.347C74.5566 89.156 74.5434 88.965 74.5301 88.774C76.1501 89.2261 78.482 89.0261 80.1602 88.9162C80.1242 88.9246 80.3959 88.8899 80.5444 88.8733C80.7759 88.8469 81.0016 88.8255 81.2052 88.8154C81.5574 88.8052 81.6194 89.0304 82.7799 89.0175C83.3353 89.1783 83.1579 88.4877 85.2528 89.7174L85.2604 89.725C86.5345 91.3294 85.8571 92.3513 85.7403 92.9968C85.5144 93.6752 85.2289 94.2194 84.9938 94.6416C84.9215 94.7697 84.8549 94.885 84.7902 94.9939C84.811 95.5937 84.8383 96.1909 84.8723 96.7855C83.974 98.9958 82.9432 99.4509 82.3271 100.727C82.2708 100.845 81.7822 102.026 81.3441 103.197L81.3574 103.162C80.9573 104.287 80.6018 105.4 80.5714 105.517C80.1037 107.503 80.7077 107.125 79.2517 112.705C79.0155 113.701 78.6445 114.475 78.4961 115.388C78.3007 116.487 78.269 119.136 78.5969 120.752C78.6183 122.015 78.645 122.114 78.7093 122.49C78.7401 122.626 78.7767 122.723 78.8197 122.772C78.6559 123.135 78.5053 123.614 78.3901 124.12C78.333 124.369 78.285 124.633 78.2565 124.84C78.242 124.939 78.2345 125.031 78.2268 125.034C78.0761 124.916 78.6976 125.333 77.4753 123.625C76.5627 123.067 77.4309 123.585 78.2718 123.558L78.2451 123.556C78.585 123.58 78.9146 123.613 79.229 123.652L79.2519 123.655C80.1699 123.781 80.9274 123.88 81.3709 123.974C81.8359 124.07 81.9119 124.476 83.3489 124.65C84.4702 124.804 87.2074 124.523 88.4727 124.236C88.4908 124.233 88.5088 124.23 88.5268 124.228C88.9611 124.165 89.6026 123.969 89.9463 123.58C90.2944 123.175 90.3688 122.595 90.7456 121.873C91.3364 120.733 91.8853 119.53 92.3964 118.325C92.907 117.128 93.3482 115.968 93.6406 114.849C94.4805 111.618 94.2468 108.54 94.4159 105.674C94.4759 105.435 94.5492 105.199 94.6249 104.962C94.7676 104.516 94.9183 104.068 95.0055 103.586C95.12 102.955 95.238 102.315 95.362 101.668C95.3844 101.549 95.408 101.423 95.4315 101.297C96.0501 98.8439 95.8318 96.5196 98.5469 93.0646C100.529 91.5021 101.182 91.7557 102.213 91.4156C103.16 91.1999 104.063 91.0516 104.922 90.9135C105.197 90.8687 105.485 90.8224 105.708 90.7822C109.705 90.0446 113.846 89.562 118.03 90.1255C118.552 90.2001 119.082 90.2659 119.601 90.32C121.287 90.5089 124.591 90.8447 126.051 90.216L126.061 90.2111C124.573 91.4143 125.296 91.2328 125.139 91.2819C125.146 91.2707 125.162 91.1804 125.173 91.0833C125.197 90.8819 125.21 90.6303 125.22 90.3655C125.232 90.1406 125.22 90.0147 125.268 89.5689L125.265 89.594C125.515 87.4161 125.531 86.1322 124.596 87.2569C124.573 86.5819 125.023 84.1842 125.82 81.5569L125.838 81.4903C126.022 80.9255 126.215 80.3616 126.406 79.8096C127.313 77.2515 128.03 74.8921 128.199 73.7759L128.226 73.6216C128.283 73.3639 128.344 73.1474 128.396 72.9743C128.4 72.9617 128.404 72.9491 128.408 72.9366L128.391 72.994C128.462 72.7431 128.514 72.5341 128.535 72.3944C128.545 72.3294 128.547 72.2749 128.535 72.3211C128.692 72.5042 127.922 72.0673 129.224 74.1171L129.243 74.1361C130.415 74.8595 128.67 74.4364 127.724 74.6145C127.664 74.6167 127.604 74.6184 127.544 74.6198C126.878 74.6151 126.334 74.708 125.065 74.4651C121.499 73.6645 118.334 73.3086 113.23 73.4816C111.718 73.5376 110.081 73.9131 109.169 73.9118C109.145 73.9118 109.121 73.9115 109.097 73.9112C108.45 73.9013 107.767 73.7763 107.016 73.6714C107.219 73.586 106.43 73.6219 105.962 73.6964C105.859 73.7116 105.753 73.7277 105.642 73.7445C104.936 73.8527 104.09 73.9959 103.103 74.118C102.607 74.1776 102.081 74.2351 101.447 74.2556C101.127 74.2637 100.782 74.2675 100.321 74.22C99.8297 74.0797 99.3545 74.3801 97.82 73.1131C96.2385 71.0693 96.8565 70.4883 96.7552 69.8955C96.7954 69.3387 96.8775 68.9345 96.9633 68.5475C97.1402 67.7831 97.3407 67.1593 97.58 66.5066C98.0385 65.269 98.3762 64.0626 98.6294 63.122C98.7717 62.5891 99.1217 62.4717 99.3862 61.702C99.9679 60.0014 100.354 58.0641 100.398 56.8011L100.396 56.816C100.325 56.9085 100.242 56.2108 100.096 56.0726C99.9687 55.8728 99.8052 55.8208 99.6006 55.9574C99.6662 55.4679 99.718 54.9541 99.7838 54.3862C99.8178 54.0981 99.8525 53.8024 99.915 53.4298C100.136 52.9217 99.5361 53.0509 101.019 51.0178C102.794 49.588 103.362 49.8658 104.116 49.6322C104.814 49.5069 105.423 49.4417 106.017 49.3855C107.193 49.2777 108.309 49.2259 109.356 49.19C109.489 49.1846 109.629 49.1794 109.769 49.1744L109.748 49.1743C110.651 49.1379 111.538 49.1287 112.409 49.1493C112.899 49.1611 113.406 49.1769 113.929 49.1946C117.244 49.2974 121.165 49.51 124.542 48.5821L124.56 48.5774C125.248 48.4033 125.621 48.3526 126.054 48.2712C126.9 48.1213 127.657 47.9758 128.254 47.7992C128.813 47.7655 129.346 46.9356 128.387 48.1926C128.559 47.9745 128.671 45.7238 128.583 44.0885C128.561 43.2378 128.516 42.4151 128.571 41.3723C128.621 40.53 128.698 39.8257 128.752 39.2063C128.784 38.8493 128.811 38.5224 128.829 38.2225C128.943 36.3458 128.697 35.6813 128.491 35.2238C129.34 37.4916 130.065 36.9637 129.573 36.9836C129.191 36.8911 128.402 36.761 127.063 36.6364C126.82 36.611 126.636 36.5984 126.145 36.5413C125.952 36.5127 125.762 36.4826 125.567 36.4501C123.963 36.1816 122.429 35.8103 120.641 35.3831C120.324 35.3072 120.011 35.2281 119.703 35.1476C116.391 34.2592 113.497 33.281 111.026 33.8245C111.278 33.8767 110.769 34.0089 110.529 34.1545C110.366 34.1694 110.196 34.1867 110.023 34.2049C109.232 34.2881 108.416 34.388 107.538 34.4492C107.092 34.4785 106.639 34.5028 106.073 34.485C105.395 34.2869 105.188 35.0151 102.779 33.2436C100.936 30.5529 101.921 30.3701 101.789 29.7912C101.865 29.322 101.96 28.9992 102.054 28.695C102.244 28.0983 102.445 27.6193 102.652 27.1607C103.065 26.254 103.512 25.4576 103.977 24.7375C104.09 24.5689 104.23 24.3411 104.289 24.301L104.3 24.2755C104.48 24.0004 104.664 23.729 104.854 23.461C104.806 23.019 104.754 22.5793 104.696 22.1422C104.878 21.6255 105.054 21.1063 105.222 20.5848C105.46 20.484 105.699 20.3814 105.937 20.2769C106.799 17.7462 107.218 14.5914 107.443 11.8225C107.546 11.187 107.58 11.0754 107.633 10.7957L107.63 10.8057C107.737 10.2524 107.819 9.78481 107.861 9.4243C107.951 9.16991 107.726 8.49946 108.013 9.69784C108.1 9.9219 108.25 10.2757 108.654 10.6892L108.667 10.7023C109.783 11.3322 107.889 10.5535 106.087 10.6037C105.562 10.5732 105.042 10.5635 104.222 10.4606C101.38 10.0663 98.2025 9.55177 95.1828 8.98504L95.1322 8.97634C95.0278 8.95494 94.9235 8.93356 94.8194 8.9122L94.8053 8.90963C94.3834 8.81976 94.0402 8.7514 93.775 8.71503C93.5959 8.62521 93.0874 8.86479 94.1453 8.47658C95.371 7.50249 94.4106 8.26818 94.3475 8.68451C94.1192 9.18687 93.9016 9.77239 93.6829 10.3638C93.4725 10.9067 93.375 11.2909 92.9374 12.1832L92.9442 12.1698C92.5247 12.9452 92.1198 13.5897 91.7703 14.1176C90.5707 15.8935 90.282 16.5456 89.7246 17.1191C89.4567 17.3886 89.1229 17.6265 88.5947 17.9205C88.288 18.492 87.9941 19.0567 87.7235 19.6158C87.6824 20.0438 87.6531 20.4652 87.6395 20.8768C87.3539 21.3953 87.0803 21.921 86.8388 22.4501L86.8296 22.4714C86.6064 22.9438 86.3715 23.5804 86.1192 24.276C85.5151 25.804 85.0248 27.7224 83.1982 29.6067L83.1908 29.6142C81.0284 31.0745 81.1656 30.349 80.6598 30.5132C80.2921 30.5079 80.0106 30.4805 79.7423 30.4521C79.2128 30.3938 78.7534 30.3205 78.3367 30.2588C78.2932 30.2524 78.2451 30.2454 78.1983 30.2387C78.0559 30.2125 77.6197 30.1761 77.9444 30.1941C77.08 30.1988 76.1598 30.218 75.1964 30.2443C72.4267 30.3141 69.2782 30.4457 66.0572 30.2586C65.5552 30.2379 64.7587 30.2523 64.0346 30.2582C62.5956 30.2706 61.1259 30.2715 59.6375 30.1515C58.0447 29.8499 56.9698 30.4012 54.1997 28.2858C53.4252 27.4627 53.3104 26.7502 53.2243 26.2949C53.0764 23.5165 53.9866 22.6177 54.449 21.2699L54.4643 21.2236C54.5669 21.008 54.6538 20.7893 54.7215 20.5728L54.6948 20.6909C54.7446 20.4831 54.7925 20.2812 54.8366 20.0857C55.4533 17.5753 55.1125 16.7519 56.1745 13.9028C56.1768 13.8965 56.1792 13.8902 56.1816 13.8839C56.9089 11.9441 57.9912 9.57599 58.4219 7.21317L58.4201 7.2276C58.5006 6.71037 58.5907 6.4104 58.665 6.11786C59.0088 5.23958 58.7888 4.20285 59.177 5.13578C60.1359 5.98256 59.8033 5.35605 58.8844 5.49775C58.6783 5.50074 58.4498 5.51028 58.1281 5.50386C57.5577 5.48075 57.0669 5.4523 56.5804 5.43016C55.4403 5.37422 54.4101 5.34179 53.5394 5.34561C52.1087 5.35244 51.4467 5.59656 50.4701 5.63608C48.5878 5.7176 46.873 5.81364 45.2618 6.02004C43.8185 6.14965 41.586 6.81973 41.8472 6.92345C42.1459 6.68899 42.0862 6.72655 42.0691 6.84104C40.4383 9.35136 39.8065 9.62828 38.7586 10.5878C37.9655 11.4384 36.1538 14.3699 35.5874 14.7603C35.1804 15.0296 34.8461 13.8025 34.3867 14.1923C34.5337 11.7743 34.8233 9.97896 35.2772 8.32312C35.9395 6.57277 35.6754 5.45932 38.3704 2.69673C39.0616 2.20941 39.6169 2.04621 40.1529 1.89809C46.2952 0.201306 51.3095 0.715422 56.6685 0.690431C57.1648 0.697362 57.6773 0.706959 58.1378 0.70824C58.2136 0.708132 58.3944 0.697786 58.6006 0.684886C59.4285 0.759642 61.377 0.0146382 63.3031 2.39566C64.515 4.67629 63.835 5.77324 63.7496 6.75638C63.6766 6.89736 63.6037 7.03059 63.5325 7.15587C63.3803 7.41994 63.2327 7.67158 63.125 7.79101L63.1238 7.8013C62.9998 8.09511 62.8689 8.38209 62.7322 8.66256C62.7317 8.66248 62.7312 8.66239 62.7307 8.66231C61.8535 11.7858 61.8199 13.1286 61.3899 14.7346C61.2919 15.0734 61.1896 15.4156 61.0849 15.761C60.5152 17.6533 59.8538 19.6413 59.5347 21.6556L59.5057 21.7842C59.426 22.1408 59.3305 22.4976 59.2187 22.8529L59.2352 22.8032C59.0418 23.4778 58.8645 24.1157 58.753 24.6872C58.6979 24.9665 58.6626 25.2372 58.6621 25.3783C58.5623 25.4849 59.0454 25.6112 58.129 24.362C57.3187 23.8716 59.1208 24.522 60.1638 24.4815C61.3726 24.5555 62.6858 24.5592 64.0622 24.5625C64.8146 24.5685 65.509 24.5516 66.4916 24.616C69.2473 24.8329 72.1593 24.8331 75.1497 24.8382C76.0739 24.8391 77.0071 24.8423 77.9444 24.8535C78.807 24.8999 78.7846 24.9463 79.109 24.9863C79.5406 25.0559 79.9336 25.1175 80.2684 25.1544C80.4316 25.1728 80.5859 25.1835 80.6551 25.1855C80.5875 25.3358 81.1561 24.6751 79.4242 25.8358L79.4168 25.8433C79.8864 25.4538 80.4722 24.0701 80.9697 22.582C81.2135 21.8816 81.4663 21.125 81.8416 20.2902L81.8335 20.3089C82.9038 17.9267 84.2785 16.0187 85.4857 14.2706C86.587 12.6939 87.5798 11.2451 88.3016 9.85124L88.3072 9.84007C88.3569 9.76753 88.5755 9.16059 88.7295 8.71258C89.2241 7.44319 89.3759 6.31723 90.7107 4.5753C90.9229 4.34549 91.1894 4.04076 91.7794 3.73356C94.0555 2.96564 94.633 3.52184 95.7861 3.61841L95.7756 3.61648C95.8792 3.63412 95.9841 3.65195 96.0903 3.66997L96.0525 3.66346C98.6723 4.0662 102.049 4.50663 104.919 4.86206C105.262 4.90552 105.807 4.92734 106.3 4.95106C108.142 5.0203 109.933 5.25173 110.97 5.78425C111.6 6.1051 111.908 6.48438 112.322 7.03687L112.329 7.04408C112.876 7.70949 112.889 8.25513 112.939 8.67363C113.023 10.3099 112.693 11.1244 112.493 12.1124C112.441 12.3314 112.37 12.644 112.378 12.6544C111.753 17.2539 110.623 21.7995 109.006 26.1837L109.015 26.1624C108.892 26.4846 108.824 26.644 108.736 26.8611C108.642 27.0935 108.548 27.327 108.456 27.5585C108.137 28.2117 107.834 28.8647 107.586 29.4855C107.463 29.7931 107.353 30.1 107.285 30.3383C107.25 30.454 107.228 30.5613 107.224 30.5659C107.123 30.5301 107.567 30.5844 106.68 29.3663C105.461 28.5567 106.052 29.0791 106.192 28.9789C106.432 28.9888 106.749 28.9753 107.073 28.9498C107.729 28.8977 108.436 28.8003 109.17 28.695C109.729 28.6261 110.033 28.532 111.026 28.489C114.392 28.5102 117.63 29.0901 120.713 29.6278C122.772 29.985 124.778 30.3216 126.746 30.4898C126.854 30.4972 127.129 30.5066 127.371 30.5156C128.3 30.5498 129.307 30.5898 130.404 30.7738C131.407 31.1703 133.063 30.5616 134.497 33.7322C135.086 36.1415 134.723 38.2046 134.514 39.9904C134.484 40.227 134.454 40.4592 134.426 40.6861C134.376 41.0901 134.333 41.4783 134.306 41.8433C134.264 42.437 134.281 43.2333 134.294 44.0246C134.245 45.9812 134.655 47.803 133.475 50.7313C131.992 52.9985 130.81 52.8454 129.831 53.2713C128.836 53.564 127.917 53.7322 127.065 53.8919C126.672 53.9654 126.229 54.0495 126.039 54.1036L126.052 54.1C121.794 55.2836 117.58 55.1109 113.713 55.0019C112.361 54.9598 111.039 54.9216 109.748 54.9301L109.731 54.9301C109.59 54.93 109.45 54.9299 109.31 54.9299C108.276 54.9258 107.29 54.9369 106.363 55.0062C105.618 54.95 103.983 55.6305 105.02 55.0102C106.02 53.5744 105.439 54.203 105.553 54.1967C105.539 54.3231 105.526 54.5181 105.518 54.7201C105.503 55.1314 105.504 55.593 105.505 56.0793C105.496 56.5081 105.546 56.6294 105.455 57.5654L105.453 57.5811C104.922 61.1355 104.324 64.8581 102.97 68.5304C102.81 68.9642 102.656 69.463 102.569 69.8591C102.524 70.0542 102.498 70.2396 102.496 70.3002C102.386 70.3164 102.897 70.4119 101.888 69.0439C100.27 67.9863 101.078 68.659 101.217 68.5074C101.5 68.5026 101.872 68.4707 102.251 68.4259C103.019 68.3352 103.845 68.196 104.701 68.0499C105.399 67.949 105.724 67.8205 107.016 67.7505C107.698 67.7479 108.384 67.7425 109.073 67.7372C114.65 67.7157 120.404 67.5993 126.323 68.8875C126.236 68.8895 126.997 68.9154 127.605 68.8927C128.208 68.8811 128.874 68.8579 129.678 68.9164C130.482 69.0552 131.47 68.8565 133.11 70.2684L133.13 70.2881C134.661 72.683 133.797 72.4457 133.955 72.89C133.922 73.1861 133.882 73.3797 133.843 73.5619C133.765 73.9172 133.684 74.2011 133.616 74.4477L133.598 74.5079C133.579 74.5732 133.562 74.6392 133.548 74.7058L133.576 74.5445C133.216 77.0344 132.529 79.2961 131.897 81.4331C131.731 81.9925 131.567 82.5411 131.413 83.0799L131.429 83.0191C131.064 84.4139 130.752 85.8225 130.495 87.2408C130.324 88.183 130.177 89.1696 130.059 90.1865L130.055 90.2203C130.071 90.0612 130.052 90.3583 130.05 90.5278C130.043 90.8082 130.037 91.133 130.005 91.535C129.986 91.7409 129.967 91.9594 129.902 92.2826C129.619 92.663 130.468 92.8589 128.228 94.5894L128.242 94.5828C123.844 96.3683 120.691 95.6916 117.366 95.4367C115.415 95.2034 113.369 95.2738 111.483 95.4155C109.623 95.5676 108.502 95.4329 106.707 95.7948C106.383 95.8597 106.105 95.9151 105.805 95.9845C105.376 96.0824 104.931 96.2004 104.456 96.3561C104.394 96.2164 104.331 96.0769 104.268 95.9374C103.19 96.1628 101.623 96.954 102.21 96.7118C102.101 96.9518 101.616 98.369 101.276 100.051C101.155 100.602 101.009 101.357 100.845 102.285C100.824 102.408 100.8 102.54 100.776 102.674C100.593 103.679 100.397 104.805 100.195 105.952C99.7172 108.707 99.1643 111.576 98.8255 112.958C98.5013 114.293 98.344 113.732 98.0485 114.98C97.7788 116.101 97.4169 117.92 96.8893 119.82C96.4325 121.506 95.8066 123.377 94.9741 124.835C94.1587 126.153 92.7894 128.563 89.4812 129.271C87.5124 129.585 85.7895 129.521 84.7107 129.533C82.6346 129.544 80.5782 129.39 78.5572 129.207L78.5788 129.209C78.3527 129.192 78.126 129.182 77.8991 129.178L77.8738 129.176C76.9137 129.013 75.6793 129.55 73.3827 127.718C72.0715 125.979 72.581 125.923 72.4198 125.515C72.3889 125.193 72.3866 124.961 72.3862 124.741C72.3879 124.31 72.4097 123.949 72.4349 123.597C72.4865 122.898 72.5597 122.25 72.6291 121.631C72.6733 121.271 72.7458 120.519 72.7218 120.752C72.6521 117.594 73.0342 114.478 73.712 111.508C74.2109 109.264 75.376 106.578 75.579 105.91C75.9665 104.593 75.7672 104.097 76.0229 103.208C76.1883 102.639 76.3825 102.038 76.601 101.413L76.6225 101.356C77.6542 98.5645 79.2359 95.3216 80.8219 92.4843L80.815 92.4977C81.0626 92.0569 81.2287 91.7196 81.3022 91.5254C81.5103 91.3221 80.8243 91.4321 81.9708 93.0078L81.9834 93.0203C83.9084 94.2671 83.1683 93.5181 83.2204 93.6801C83.1076 93.6762 82.9138 93.6852 82.7194 93.7029C82.3033 93.7402 81.8331 93.8072 81.3177 93.8857C81.1148 93.9141 81.05 93.9346 80.5986 93.9832L80.5862 93.9842C76.836 94.292 73.0068 94.4725 69.1585 94.4791C67.7719 94.482 66.4014 94.4609 65.0459 94.441C59.4459 94.3535 53.9864 94.3147 49.1895 95.7004C48.4881 95.8978 47.963 95.9821 47.4777 96.0754C46.2826 96.2395 45.1722 96.7197 45.5018 96.551C45.7223 96.1213 45.1335 97.5557 44.9504 98.7496C44.9027 98.979 44.8536 99.2156 44.7993 99.4639C44.6678 100.03 44.558 100.63 44.1963 101.528C42.4232 105.757 40.2313 111.027 38.4808 116.21C38.3898 116.478 38.2959 116.771 38.1985 117.073C37.0488 119.999 36.6409 124.086 31.6907 126.272C27.8585 126.988 26.7267 125.829 25.1375 125.446C24.9293 125.372 24.7574 125.304 24.6135 125.242C23.69 124.844 23.7563 124.596 23.1349 124.382C23.0471 124.355 22.9418 124.329 22.8137 124.305C21.985 124.156 21.2507 124.165 20.667 124.168C20.2428 124.172 19.8781 124.177 19.5372 124.14C17.8129 123.786 15.3842 124.236 11.9931 121.51C10.7484 119.847 11.2738 119.706 11.1513 119.36C11.1527 119.072 11.1731 118.902 11.1932 118.733C11.2343 118.413 11.2835 118.17 11.3338 117.935C11.4354 117.469 11.5451 117.062 11.6601 116.655C11.8891 115.851 12.1411 115.073 12.3894 114.324C12.4373 114.179 12.5475 113.841 12.5143 113.943L12.5199 113.923C13.5465 110.176 14.903 106.689 15.8807 104.325C16.03 103.967 16.1711 103.636 16.3035 103.334C16.6953 102.44 17.2223 101.887 17.4209 101.343C17.5216 101.067 17.557 100.376 17.8392 99.5099C18.0046 99.0016 18.1636 98.5034 18.3162 98.0137C18.6328 97.1014 18.8519 96.6652 19.0955 96.0869C19.6195 94.88 20.1009 93.7628 20.474 92.7119C20.9084 91.878 20.8843 89.9785 21.1126 91.1814C21.8828 91.8304 20.4939 90.9928 18.92 91.0602L18.9504 91.0614C18.5606 91.0439 18.1692 91.0145 17.7767 90.9729L17.7426 90.9694C17.2932 90.9149 16.828 90.8621 16.3478 90.8055C15.0673 90.6552 13.7232 90.4994 12.2972 90.2951C10.7518 90.0721 9.15787 89.8058 7.51577 89.394L7.50579 89.3915C7.17626 89.3058 6.68147 89.2259 6.15251 89.1429C4.79771 88.828 3.1614 89.0419 0.922881 87.1344C-0.283327 85.6521 0.0822251 85.052 0.00503206 84.5571C0.0189948 84.0723 0.0771081 83.713 0.137684 83.372C0.261715 82.702 0.421018 82.126 0.56336 81.6024C0.621956 81.4011 0.720937 80.9748 0.679285 81.1825L0.680828 81.1715C0.773476 80.4993 0.840097 79.7773 0.911228 79.0158C1.0765 77.3987 1.15422 75.61 1.90354 73.538C2.53349 71.4465 4.90866 69.2001 7.17369 68.7767C11.9369 67.4337 17.5395 67.3834 22.2731 68.5606C22.7472 68.67 23.0601 68.7731 23.365 68.8646C24.0322 69.0756 24.626 69.2246 24.8331 69.2305C24.9303 69.2468 24.835 69.1795 24.4512 69.3818C24.0466 69.5913 23.8088 70.0978 23.8158 70.1646C24.1386 68.9106 24.4597 67.6664 24.7675 66.4365C25.6191 63.0603 26.6114 60.8575 26.6894 60.3737C26.8534 59.3237 26.5904 58.5866 26.7346 56.481C26.745 56.3171 26.7551 56.1518 26.7648 55.9859C26.8051 55.5446 26.8355 55.3758 26.8676 55.1226C26.97 54.3594 27.0631 53.6316 27.0893 52.9809C27.1029 52.6643 27.0928 52.3571 27.0682 52.2108C27.1239 52.0262 26.7254 52.2653 27.8938 53.07C28.3162 53.1625 27.0992 53.0245 26.1327 53.1376C25.4981 53.1695 24.8914 53.2652 23.7854 53.1493L23.8171 53.1531C20.5338 52.7532 17.2126 52.5627 14.2254 52.6275L14.1904 52.6278C13.7468 52.6315 13.2211 52.6787 12.6642 52.7331C12.1829 52.7792 11.6778 52.832 11.1196 52.8593C10.2625 52.8172 9.16558 53.1967 7.23273 51.9156C5.19653 50.2011 5.57821 48.0608 5.6837 47.0312C5.76632 46.3162 5.82848 45.522 5.89645 44.7233C6.0323 43.1283 6.19968 41.4975 6.49757 40.0505C6.88701 38.4623 7.42894 35.4731 9.96588 32.7884L9.86646 32.8925C11.562 31.4686 11.562 31.9753 11.9156 31.79C12.1849 31.7397 12.3561 31.7236 12.5154 31.7088C12.826 31.6822 13.0583 31.676 13.2771 31.671C13.7088 31.6627 14.0669 31.6676 14.3797 31.6684L14.3592 31.6681C14.6003 31.6731 15.1586 31.6458 14.7479 31.6661C15.2185 31.5903 15.5835 31.5168 15.787 31.4506C16.4868 31.2238 16.7613 30.7502 17.6164 30.5805ZM6.17189 79.3873C6.06912 79.3005 5.985 79.3563 5.91831 79.5062C5.73381 79.9162 5.68325 81.0558 5.69386 81.8875L5.69543 81.8764C5.54086 83.1972 5.65882 83.2628 6.022 82.5298C6.05573 82.4286 6.08933 82.3923 6.16407 81.9412L6.1622 81.9544C6.28041 81.2652 6.30934 79.9672 6.22595 79.5422C6.2118 79.4578 6.19366 79.4057 6.17189 79.3873ZM102.646 92.4718C102.553 92.2901 102.458 92.109 102.363 91.9283C101.657 92.1894 100.972 92.4327 100.107 92.9414C100.672 92.7945 101.127 92.7743 101.57 92.7633C101.938 92.6501 102.293 92.5569 102.646 92.4718ZM54.4523 53.4701C54.4339 53.3495 54.7245 53.2626 54.7706 53.1401C54.8695 52.8812 54.9755 52.7175 55.0847 52.5613C55.1902 52.4129 55.3004 52.2666 55.4089 52.0501C55.7427 51.3915 55.869 49.4454 57.5458 49.7456L59.3976 52.0354C59.3966 52.0095 59.3962 51.9831 59.3962 51.9562C59.3962 51.9562 59.3962 51.9561 59.3962 51.9561C59.3962 51.9384 59.3964 51.9205 59.3968 51.9024C59.3969 51.8945 59.3972 51.8866 59.3976 51.8786L57.6992 49.7784C58.0257 49.8623 58.3483 50.1044 58.713 50.2116C59.0864 50.3213 61.5412 50.8377 61.6185 51.136C61.7137 51.5671 60.8674 52.3171 60.8449 52.5174C60.8298 52.6571 61.0084 52.8794 61.0034 53.0611C60.9914 53.4976 60.8568 53.743 60.985 54.1069C61.0275 54.235 61.1015 54.3731 61.2214 54.5366C60.8548 54.6482 60.4886 54.759 60.1226 54.8704C60.2037 55.1601 59.6904 55.4334 59.6756 55.5918C59.6634 55.7214 59.896 55.856 59.8763 55.9877C59.8633 56.0807 59.7306 56.177 59.6288 56.3039C59.5652 56.3908 59.514 56.4804 59.5041 56.5869C59.4596 57.0541 60.0926 57.2968 60.1072 57.5912C60.122 57.8967 59.6554 58.2458 59.7895 58.6673C59.8492 58.7314 59.9089 58.7956 59.9685 58.8601C60.139 58.8702 60.3096 58.8802 60.4802 58.89C60.5072 59.0936 60.1543 59.0851 60.1033 59.2514C60.0429 59.4476 60.3294 59.634 60.2913 59.7677C60.2597 59.8774 59.9673 59.9563 59.9434 60.1025C59.9071 60.3157 60.2824 60.3723 60.3185 60.5036C60.3337 60.5551 60.2929 61.4419 60.2802 61.4905C60.1877 61.8518 59.6846 61.7331 59.5547 62.0017C59.1961 62.7464 59.3256 63.6796 59.2104 64.4669C59.1594 64.8179 59.0044 65.1499 58.8018 65.4466C57.7626 64.4727 56.3786 65.2038 58.4627 65.5419C58.0486 65.7936 58.4627 66.2561 58.2305 66.5655C58.0799 66.7639 57.7522 66.8027 57.6196 67.1195C57.4256 67.5883 57.6979 68.3535 56.9565 68.2903C56.8366 68.2375 56.6669 68.1835 56.4488 68.0971C56.4857 68.6298 55.8035 68.9474 56.9803 69.5227C57.016 69.6586 56.1913 69.7098 56.0625 69.7992C56.019 69.8246 55.9201 69.9509 55.8404 70.0042C55.6548 70.0287 56.0764 70.1026 55.0928 68.8444C53.9545 68.0828 54.6251 68.6283 54.5136 68.5301C54.6106 68.5831 54.9444 68.6878 55.1383 68.6138C55.3761 68.5225 55.7915 67.2351 55.866 68.8561C56.3486 68.8215 56.5091 68.8969 56.911 69.1563C56.9845 69.2033 56.9524 69.4351 56.9996 69.4438C57.0978 69.4615 57.2852 69.3194 57.4641 69.3295C57.7492 69.3445 57.8302 69.8574 57.9257 69.1114C58.1338 69.0194 58.3391 68.9266 58.5484 68.8341C58.5888 68.988 58.6299 69.1419 58.6716 69.2959C58.797 69.1567 58.9264 69.018 59.0503 68.8784C58.7536 69.9315 59.5662 69.415 59.4369 68.7615C59.7619 69.0427 60.0898 69.3235 60.421 69.6042C60.1737 70.8164 61.2012 69.8725 61.2326 69.1971C61.2742 69.2046 61.3159 69.2122 61.3576 69.2197C61.6731 69.6018 62.0504 69.3887 62.4638 69.6758C62.8771 69.9627 62.8169 70.0751 62.8668 70.6579C62.9775 70.6419 63.0875 70.6259 63.1979 70.6099C63.9866 69.1541 63.4816 71.8064 64.6098 70.7686C64.7671 71.783 65.5909 71.3872 66.1311 71.1683C66.1936 71.1428 66.2229 70.955 66.309 70.9087C66.4264 70.8466 66.6167 70.9175 66.7735 70.8852C66.8977 70.8599 67.0019 70.7707 67.0349 70.5024C67.1746 70.7028 67.3137 70.9031 67.4542 71.1037C67.606 71.0138 67.7596 70.9241 67.9112 70.8342C67.939 70.6449 67.9669 70.4555 67.9947 70.2661C68.1715 70.9525 68.6391 70.7695 68.8283 70.956C68.8659 70.9937 68.8353 71.2561 68.9555 71.3472C69.0973 71.4552 69.3931 71.4212 69.5651 71.531C69.6802 71.2527 69.7958 70.9745 69.9119 70.6965C70.2642 70.5901 70.2626 71.3711 70.4452 71.4602C70.4788 71.4758 71.1204 71.5203 71.1586 71.51C71.4602 71.4263 71.4803 70.761 72.2838 71.0374C72.4288 71.0876 72.5094 71.3324 72.6438 71.3653C72.8076 71.4056 73.2065 71.2427 73.6019 71.0272L73.66 71.0407C73.7836 70.9216 73.8839 70.7789 73.9314 70.6287C74.0059 71.2623 74.6369 71.1239 74.7815 71.3114C74.8267 71.3704 74.7912 71.7501 74.951 71.8487C74.9866 71.8708 75.0417 71.8663 75.1056 71.8491L73.2688 72.5123C72.8843 72.8496 72.8297 72.7973 72.8573 72.7809C72.9269 72.7505 73.2525 72.7706 73.2893 72.7174C73.3246 72.6626 73.0868 72.5469 73.1067 72.4578C73.1736 72.1759 73.6301 71.9099 73.6742 71.6184C73.7286 71.2619 73.2253 70.8715 72.8875 70.5072C72.8251 70.433 72.7678 70.3651 72.7211 70.298C72.7805 70.2061 72.9536 70.1265 72.9667 70.0204C73.0192 69.6529 73.0427 69.3582 73.218 68.6725L73.2207 68.6615C73.516 67.7216 73.8835 66.7621 74.2488 65.8972C74.4772 65.3475 75.8762 64.2417 74.1081 64.1325C73.8732 63.8496 74.9621 62.6265 75.0538 62.3635C75.1447 62.0981 74.9125 61.7955 74.9723 61.5834C75.1533 60.9434 75.5042 60.5631 75.4853 59.7141C75.4796 59.4946 75.1952 59.1727 75.2359 59.0564C75.2858 58.9167 75.6724 58.8704 75.7511 58.6943C75.8819 58.3968 75.9916 57.8869 76.1114 57.4734C76.1594 57.3064 76.2106 57.1513 76.2659 57.0345C76.3011 56.9619 76.6072 57.028 76.7342 56.9482C77.23 56.6376 77.3467 56.1525 76.3698 55.9402C76.6223 55.8066 76.7424 55.6374 76.798 55.4517L76.8254 55.3684C76.8299 55.3546 76.8341 55.3407 76.838 55.3268L76.8143 55.3986C76.8942 55.0795 76.7918 54.7231 76.8644 54.4178C77.1142 53.407 77.8726 51.4903 77.5191 50.8751C77.438 50.746 77.3108 50.7071 77.2118 50.7756C77.1633 50.8143 77.1172 50.8786 77.1066 51.0648C77.2441 51.3556 76.6334 51.3572 78.1765 53.2947C79.5863 54.4129 79.4832 53.9689 79.5759 53.9746C79.5909 53.8897 79.4935 53.7517 79.3418 53.6271C78.9756 53.3315 78.5365 52.4638 78.0583 53.4231C77.6202 53.1886 77.2162 53.2265 76.8626 52.8495C76.7545 52.7381 76.655 52.5913 76.5593 52.3911C76.489 52.5907 76.4181 52.7902 76.3455 52.9896C76.2633 52.9888 76.18 52.9879 76.092 52.9862C76.0798 52.7902 76.0674 52.5941 76.0555 52.398C75.8876 52.3694 75.8102 52.4093 75.3942 52.4052L75.4109 52.4081C74.9201 52.5241 74.3536 52.903 74.0026 52.8397C73.2272 52.6996 71.2921 52.0661 70.6067 51.6944C70.2398 51.4956 70.1566 51.9045 70.0666 51.0241C69.9701 51.0695 69.8742 51.1151 69.7787 51.1608C69.6964 51.3379 69.6143 51.5151 69.5327 51.6923C69.036 51.6246 68.4974 51.2516 68.0258 51.1893C67.1678 51.0745 65.8394 51.4301 65.0455 51.0164C64.8428 50.9111 64.6164 50.5029 64.4094 50.4909C64.1106 50.4736 63.9929 51.1078 63.624 51.0971C62.9989 51.0733 61.8507 50.3078 61.2848 50.4027C61.1186 50.4281 61.059 50.6719 60.9514 50.7058C60.8214 50.7483 60.6952 50.7817 60.5819 50.8178L58.2801 50.8797L57.7628 49.1243C57.9721 49.2669 57.5708 50.0832 59.8691 50.7398C62.1403 50.6743 61.9935 49.8717 62.2209 49.8235C62.4778 49.5098 62.4545 49.53 62.4986 49.5197C62.5525 49.5345 62.5846 49.6743 62.67 49.8329C61.9571 50.0424 61.1987 49.8302 60.3833 49.7691C59.7602 49.7709 58.328 49.6417 57.7448 49.9388C57.3423 50.0965 56.9836 49.3592 56.5472 49.475C56.4566 48.4476 56.872 48.32 57.6771 47.7729C57.7465 47.587 57.8053 47.4128 57.9734 47.095C58.0987 46.921 58.0528 46.7751 58.7327 46.1959C58.9107 45.8712 60.8302 45.3774 61.6476 46.2121C62.3197 46.7915 62.3297 47.0655 62.4443 47.2851L60.007 45.8209C60.9142 45.7003 61.788 45.6639 62.6307 45.6614C62.7301 45.8867 62.8299 46.1126 62.9222 46.3389C62.9221 46.3394 62.9221 46.3399 62.9221 46.3404C63.3378 46.6111 63.5374 46.0462 63.7768 45.928C66.1008 44.7757 70.1545 46.3578 72.3678 46.8677C72.8503 46.975 74.4859 46.9408 74.7555 47.3545C74.8263 47.4622 74.7939 47.8061 74.8832 47.8363C75.3196 47.8025 75.7577 47.7694 76.1978 47.7366L76.2106 47.7388C76.2716 47.6472 76.8468 47.59 77.2157 47.514C77.216 47.5141 77.2162 47.5142 77.2165 47.5143C77.853 47.7618 78.529 47.8676 79.239 47.9306C79.5954 47.9629 79.9601 47.9829 80.3662 48.0195C80.9139 48.1931 80.7507 47.6505 82.5391 48.822C83.5343 50.0382 83.218 50.2661 83.3281 50.5667C83.354 50.845 83.3519 51.0168 83.3496 51.182C83.3422 51.5079 83.3167 51.7653 83.2848 52.0105C83.0054 53.9142 82.595 55.4694 82.1675 57.0915L82.1472 57.1528C82.1431 57.1667 82.139 57.1806 82.1349 57.1945L82.1583 57.1233C81.9763 57.8145 81.7925 58.5041 81.6053 59.1917C81.0068 61.3767 80.3827 63.5188 79.7278 65.625C79.4687 66.4545 79.4209 67.5787 79.0428 68.3488C78.8854 68.6701 78.3121 68.6724 78.5951 69.224C78.4495 69.1914 78.3039 69.1587 78.1584 69.1261C78.2093 69.431 78.3541 69.6852 78.4116 69.9621L78.4142 69.9514C78.4714 69.94 78.496 70.0058 78.4934 70.0962C78.4871 70.2429 78.4549 70.6656 78.4097 71.0767C78.3805 71.3436 78.3428 71.605 78.3036 71.7495C78.2538 71.9374 77.9853 71.8341 77.9656 72.0133C77.9345 72.317 78.2272 73.0527 78.1096 73.5902C77.9718 74.0738 77.6073 74.8377 76.7498 75.88C76.7303 75.9021 76.7101 75.9242 76.6893 75.9465L76.0718 76.6801L74.6682 76.6763C73.9194 76.7156 73.0944 76.8138 72.27 76.7359L72.3307 76.75C72.0833 76.7667 71.686 76.7311 71.34 76.6257C71.0731 76.5441 70.7677 76.1289 70.678 76.1248C70.5008 76.1176 70.3964 76.4563 70.2718 76.4823C69.6488 76.6141 68.7822 76.0594 68.1982 75.9542C67.5015 75.8284 66.7831 75.7286 66.0592 75.6349C64.8077 75.4726 63.5372 75.3281 62.3289 75.1013C61.1243 74.8764 59.0953 74.62 58.011 74.1702C57.7761 74.0732 57.9046 73.705 57.703 73.6711C57.4741 73.6325 57.3091 73.8677 57.2011 73.8705C56.4408 73.8911 54.7644 73.855 54.0572 73.4175C53.9168 73.3334 53.8868 73.0166 53.7964 72.9956C53.7468 72.9834 53.6017 73.1598 53.4374 73.1375C52.9869 72.9558 53.3671 73.514 51.6504 72.314C50.437 70.8686 50.7968 70.2717 50.7262 69.8308C50.7449 69.392 50.808 69.1007 50.8758 68.8221C51.0151 68.2773 51.1926 67.8392 51.3901 67.3669C51.6021 66.8702 51.7668 66.4551 52.0537 65.8426C52.7244 64.4361 53.1576 62.7465 53.8201 61.2508C54.0035 60.8371 54.6646 60.7161 54.6785 60.6521C54.7091 60.513 54.3534 60.3082 54.3413 60.007C54.305 59.01 55.0566 57.8865 55.089 56.947C55.106 56.4843 54.7621 55.7593 54.757 55.301C54.7565 55.2541 54.7624 55.2007 54.7727 55.1428L54.7689 55.1588C54.8458 54.7236 55.1404 54.075 54.9879 53.8869C54.8824 53.7551 54.4744 53.6015 54.4523 53.4701ZM57.1644 67.3141C56.5663 66.9603 56.7726 67.874 57.2272 67.7822C57.3309 67.7601 57.3209 67.4052 57.1644 67.3141ZM74.5194 68.3077C74.3262 68.2645 74.1329 68.2214 73.9397 68.1783C73.9967 68.2873 74.0538 68.3961 74.1111 68.5048C74.2391 68.4845 74.367 68.4643 74.495 68.4443C74.5031 68.3988 74.5112 68.3532 74.5194 68.3077Z" fill="#121212"/>
</svg>
