<svg width="62" height="61" viewBox="0 0 62 61" fill="none" xmlns="http://www.w3.org/2000/svg">
<path d="M0.00147781 12.624C-0.0105162 12.3415 0.0543361 11.9427 0.0577524 11.6094C0.0727493 10.2131 0.117705 9.69575 0.143202 8.43246C0.181074 6.55933 0.0958364 1.00014 0.546387 1C0.546398 1 0.54641 1 0.546421 1C0.550838 1.00001 0.555307 1.00053 0.559829 1.00162C0.645663 1.0211 0.739367 1.49394 0.836441 1.56411C0.933551 1.63416 1.56048 1.58163 1.59572 2.25321C1.64217 3.22693 1.48142 5.56278 1.48854 6.08212C1.49345 6.43716 1.55044 6.87428 1.56056 7.32828C1.59318 8.79209 1.5515 9.55804 1.70632 10.8769C1.62473 11.4044 1.54315 11.9319 1.46156 12.4594C1.49939 13.1477 1.3918 14.1909 1.39772 14.609C1.4026 14.9521 1.46711 15.1531 1.47011 15.5106C1.47384 15.9116 1.4042 16.5275 1.41469 17.2569C1.43156 18.4527 1.59986 18.6655 1.62123 19.3829C1.64335 20.127 1.55188 21.284 1.6111 22.2334C1.62961 22.3524 1.64813 22.4715 1.66664 22.5906C1.70851 22.5053 1.75038 22.42 1.79225 22.3347C1.81174 22.8128 1.72594 23.0185 1.72438 23.4578C1.72251 23.9748 1.80386 24.2386 1.80348 24.5864C1.80311 24.8714 1.73787 25.2578 1.74196 25.6273C1.74758 26.166 1.84177 26.0482 1.85939 26.3381C1.86624 26.4538 1.91821 28.5922 1.91896 28.7129C1.92268 29.6304 1.79376 29.7103 1.78249 30.4419C1.75174 32.4712 1.85591 34.5543 1.89528 36.4313C1.91289 37.2694 1.9054 38.144 1.88478 38.9797C1.55485 37.6634 1.29807 40.5765 1.81435 39.487C1.7409 40.4168 1.88027 41.0761 1.85671 41.9576C1.84133 42.5278 1.76975 42.9223 1.77162 43.7364C1.77541 45.181 1.97889 46.761 1.6111 47.1765C1.67594 48.8722 1.54253 50.3409 1.8672 50.9521C1.88704 51.3893 1.69365 52.5099 1.66738 53.0004C1.64263 53.4642 1.55531 57.023 1.55043 57.6052C1.54605 58.1281 1.54133 59.0034 1.56105 59.5316L1 58.9705C1.0599 58.9683 1.11536 58.9657 1.16531 58.9628C1.78133 58.9276 2.21181 58.5909 3.30857 58.9846C4.58376 58.9527 5.0381 58.964 6.22411 59.0097C6.43884 59.018 6.46313 59.0764 6.58855 59.0765C6.84697 59.0765 7.28661 59.0333 7.7479 59.028C8.50645 59.0194 8.93934 59.1424 8.8548 58.9545C9.35489 58.923 9.85498 58.8915 10.3551 58.86C10.5305 58.8963 10.7059 58.9326 10.8814 58.9688C11.1488 58.9293 11.4161 58.8898 11.6835 58.8503C11.3695 59.1221 13.2513 58.9617 12.6403 58.8057C13.6097 58.862 14.5792 58.9182 15.5486 58.9744C15.4133 59.2834 17.6772 59.0101 17.4866 58.8421C17.5975 58.8423 17.7084 58.8426 17.8194 58.8428C18.7905 58.9249 19.6823 58.8578 20.8661 58.9129C22.0497 58.968 21.9386 58.9981 22.2985 59.1402C22.577 59.1321 22.8556 59.1239 23.1341 59.1158C24.5956 58.7262 24.3373 59.4007 26.84 59.1019C27.6396 59.3467 29.6107 59.2181 30.9176 59.1439C31.0697 59.1352 31.0723 59.0877 31.2748 59.0731C31.77 59.0378 33.0336 59.0989 32.9903 58.9456C33.4277 58.99 33.8651 59.0343 34.3025 59.0787C34.66 59.0508 35.0175 59.0229 35.3751 58.9951C35.3732 58.9472 35.3714 58.8994 35.3696 58.8515C36.0895 59.0146 37.2207 58.9519 37.7788 58.9909C37.8898 58.9988 37.9138 59.0648 38.259 59.0828C38.6624 59.1042 39.4141 59.0847 39.8949 59.1053C40.0818 59.0322 40.2687 58.959 40.4556 58.8859C41.3152 58.8463 41.6174 59.0393 42.1222 59.0543C42.2131 59.0569 43.8714 59.043 43.9607 59.0389C44.6922 59.0062 44.485 58.8418 46.6005 58.877C46.9772 58.8834 47.2819 58.9403 47.6223 58.9426C48.2239 58.9467 50.0363 58.8177 50.1789 58.6984C50.9084 58.8477 52.8604 58.7867 53.4353 58.8298C53.6089 58.843 53.648 58.9381 54.1814 58.9583C54.6138 58.9748 55.7274 58.8987 56.2758 58.9114C56.858 58.9253 57.0658 59.0052 57.3267 59.0108C57.5731 59.0161 57.8002 58.9516 58.136 58.952C59.1843 58.9542 60.1335 59.058 60.9621 59.0599C60.9747 59.0599 60.9874 59.0599 61 59.0599L60.5283 59.5316C60.5273 58.3489 60.3396 57.3023 60.2557 56.3103C60.2681 56.0615 60.3091 55.817 60.3094 55.5561C60.3154 52.3288 60.3506 48.6882 60.3915 45.4512C60.4102 43.9485 60.6693 40.2116 60.237 41.209C60.1613 40.6868 60.3356 36.8897 60.3382 36.1674C60.3408 35.4453 60.2633 34.8729 60.2622 34.3054C60.2588 32.5926 60.3147 31.3865 60.2472 29.3017C60.2295 28.7633 60.1377 28.1864 60.1388 27.8675C60.1403 27.4834 60.2291 27.0701 60.2347 26.5725C60.2475 25.3864 60.2183 23.1761 60.2336 22.0382C60.2366 21.8304 60.3146 21.7575 60.339 21.4603C60.4342 20.3032 60.4259 19.0062 60.177 19.2357C60.3183 17.7526 60.1894 16.3806 60.1815 15.0062C60.1654 12.1 60.2235 6.80624 60.1189 4.27453C60.0594 2.83613 59.9629 2.72698 60.0148 1L61 1.98515C60.8104 1.97945 60.6013 1.97195 60.3687 1.96242C59.847 1.94105 59.3276 1.91223 58.6948 1.88674C57.2116 1.82675 55.8509 1.62047 54.7203 1.86904C53.073 1.80457 51.761 1.85029 50.5387 1.63771C50.3946 1.6887 50.2505 1.73968 50.1065 1.79067C49.9045 1.79193 49.7025 1.79319 49.5006 1.79445C49.4376 1.74583 49.3745 1.6972 49.3116 1.64858C47.8647 1.63548 46.0291 1.83534 44.8044 1.83388C42.751 1.83163 37.4622 1.75399 35.5152 1.68837C34.4815 1.65353 34.4258 1.75767 33.834 1.5436C33.6028 1.55849 33.3716 1.57338 33.1404 1.58827C32.9957 1.63515 32.851 1.68202 32.7063 1.7289C31.3801 1.73077 29.8071 1.65796 28.5437 1.65871C26.2415 1.66021 22.7845 1.78922 20.4726 1.70448C19.8929 1.68312 19.1683 1.58645 18.6006 1.58754C17.7745 1.58904 17.5737 1.74946 16.5252 1.75246C14.7182 1.75733 11.353 1.57097 9.6451 1.58522C9.13783 1.58935 8.90114 1.64904 8.55087 1.65541C7.08209 1.68278 5.87622 1.67792 4.46784 1.77016C2.9556 1.61643 3.08624 1.41801 2.61759 1.21779C2.26242 1.06667 1.17334 0.716469 1.01874 0.584121C0.910143 0.491139 1.31561 0.371528 1.16343 0.269179C2.97522 0.187443 3.73639 0.277423 5.20758 0.421401C7.92447 0.415663 10.6414 0.409926 13.3583 0.404189C13.6054 0.460056 13.8526 0.515924 14.0998 0.571792C14.0998 0.571914 14.0998 0.572036 14.0998 0.572158C15.1432 0.636633 15.5854 0.492756 16.1481 0.460097C21.5352 0.147394 32.1383 0.392137 38.069 0.427382C39.347 0.434878 43.5043 0.359597 44.3812 0.450331C44.6082 0.473962 44.6714 0.560108 44.9129 0.563857C47.0709 0.512628 49.229 0.461399 51.387 0.41017C54.5473 0.505493 57.7837 0.476869 61 0.445044C61.3139 0.442395 61.5523 0.68608 61.555 1C61.5678 2.30008 61.5812 3.59688 61.5871 4.88404C61.643 16.982 61.7109 28.9592 61.6903 40.859C61.6862 43.1588 61.7507 46.0773 61.7091 48.3288C61.6918 49.2684 61.5535 49.6599 61.6566 50.8943C61.6193 50.9073 61.5821 50.9203 61.5448 50.9332C61.5898 52.0105 61.6746 52.6989 61.6832 53.9066C61.6903 54.9237 61.6959 57.6145 61.6816 58.5133C61.6745 58.9794 61.6049 58.8058 61.6052 59.2404C61.6053 59.3268 61.6068 59.4246 61.6092 59.5316C61.6121 59.8762 61.3446 60.1378 61 60.1407C60.1856 60.159 58.8382 60.2342 57.9308 60.2342C57.0007 60.2342 55.4327 60.154 54.7177 60.1656C52.1425 60.2068 49.3375 60.3258 46.5932 60.2939C45.8351 60.2849 44.8601 60.1946 44.6227 60.1971C44.159 60.2023 44.0208 60.2901 43.7093 60.3013C42.1271 60.3583 39.6607 60.2541 38.1097 60.2499C33.056 60.2364 27.7022 60.2747 22.6702 60.2586C19.4911 60.2485 14.2081 60.2639 11.273 60.1979C10.64 60.1837 10.8088 60.0876 10.2773 60.0876C9.68803 60.0876 9.36889 60.1525 9.09354 60.1578C7.18735 60.1945 2.97942 60.2602 1.17978 60.1938C1.11678 60.1914 1.05696 60.187 1 60.1813C0.632481 60.1844 0.35339 59.8991 0.350289 59.5316C0.37565 59.2786 0.425774 59.0822 0.425551 58.9146C0.425551 58.8108 0.374163 58.5761 0.36891 58.25C0.322417 55.3704 0.352387 53.2708 0.370009 50.4492C0.403375 45.0453 0.307774 38.7839 0.359511 33.107C0.370759 31.8701 0.519702 31.0219 0.518203 30.848C0.515198 30.4663 0.415018 30.222 0.390273 29.449C0.308935 26.8788 0.415836 23.4174 0.365614 20.9727C0.340871 19.765 0.2137 18.1054 0.18556 16.9168C0.163066 15.9676 0.212951 13.7257 0.157118 13.305C0.123385 13.049 0.0150412 12.9306 0.00147781 12.624ZM1.68801 44.6037C1.51478 44.4346 1.65874 46.2118 1.75173 45.5451C1.77266 45.3949 1.73297 44.6474 1.68801 44.6037ZM60.6128 51.2371C60.5633 51.2534 60.5138 51.2696 60.4643 51.2859C60.4849 51.5192 60.5055 51.7525 60.5261 51.9859C60.5559 51.8547 60.5856 51.7236 60.6153 51.5925C60.6145 51.474 60.6136 51.3555 60.6128 51.2371Z" fill="#121212"/>
<path d="M24.1806 29.788C24.1843 29.8216 24.1103 29.8486 24.0976 29.8839C24.0439 30.0315 23.9859 30.0763 23.9258 30.2068C23.8366 30.4004 23.7631 31.0244 23.3269 30.9115C23.3269 30.9115 23.3269 30.9115 23.3269 30.9115C23.3226 30.9104 23.3183 30.9092 23.314 30.9079C23.2314 30.8843 23.154 30.8096 23.062 30.7777C22.9699 30.7457 22.3615 30.5943 22.3462 30.5127C22.3286 30.3955 22.5497 30.1826 22.5574 30.1245C22.5626 30.0848 22.5197 30.0231 22.5226 29.9714C22.5321 29.8045 22.594 29.732 22.4811 29.5502C22.5749 29.5135 22.6687 29.4767 22.7624 29.44C22.7451 29.3559 22.8786 29.2698 22.8846 29.223C22.8895 29.1846 22.8327 29.1466 22.8398 29.1071C22.8474 29.0627 22.9321 29.0134 22.9424 28.9317C22.9596 28.7978 22.8027 28.7326 22.8021 28.6495C22.8016 28.5633 22.9226 28.4608 22.8919 28.343C22.8773 28.3255 22.8627 28.3079 22.8481 28.2904C22.8052 28.2892 22.7623 28.2879 22.7194 28.2867C22.7139 28.23 22.8028 28.2292 22.8166 28.1819C22.8329 28.1264 22.7615 28.0774 22.7717 28.0398C22.78 28.009 22.854 27.9834 22.8604 27.9423C22.8701 27.8825 22.7756 27.8717 22.7667 27.8359C22.7633 27.8216 22.773 27.5768 22.7756 27.5635C22.7978 27.4631 22.9248 27.4868 22.9563 27.4103C23.043 27.198 23.0006 26.9461 23.0151 26.7328C23.0216 26.6375 23.0534 26.5446 23.0968 26.4592C23.3793 26.6845 23.7096 26.4331 23.1792 26.4218C23.2764 26.3395 23.16 26.2331 23.2075 26.1434C23.2384 26.0855 23.3188 26.0606 23.3398 25.9719C23.3766 25.8144 23.224 25.5921 23.5917 25.6392C23.5765 25.4392 23.7469 25.3134 23.4497 25.1658C23.4428 25.1134 23.6614 25.0404 23.7006 24.9938C23.7376 24.9498 23.922 24.5859 23.943 24.524C23.9641 24.4621 23.9978 24.353 23.984 24.2927C23.9671 24.2171 23.6532 24.086 24.0651 24.0658C24.0701 23.9196 24.0937 23.8731 24.1713 23.756C24.1853 23.7348 24.2426 23.7468 24.2461 23.7333C24.2534 23.7053 24.2239 23.6468 24.2318 23.5954C24.2447 23.5111 24.3759 23.495 24.1917 23.4571C24.1752 23.3949 24.1587 23.3328 24.1423 23.2707C24.1823 23.2608 24.2223 23.2509 24.2623 23.2409C24.2316 23.2021 24.2009 23.1632 24.1701 23.1243C24.4244 23.2265 24.322 22.9823 24.1538 23.0094C24.2355 22.9184 24.3171 22.8274 24.3987 22.7364C24.694 22.8285 24.493 22.5146 24.325 22.4932C24.3283 22.4812 24.3317 22.4693 24.335 22.4573C24.4418 22.3726 24.4018 22.2591 24.4884 22.1446C24.5749 22.0301 24.6009 22.0497 24.7486 22.0463C24.7485 22.0141 24.7485 21.9818 24.7484 21.9496C24.4123 21.6936 25.058 21.8906 24.8389 21.5444C25.0984 21.5191 25.0291 21.2732 24.9939 21.1129C24.9899 21.0943 24.9439 21.0821 24.9354 21.0564C24.9152 20.9939 25.0098 20.8723 24.8602 20.8386C24.9154 20.8023 24.9706 20.766 25.0258 20.7297C25.0089 20.6839 24.9919 20.6382 24.9749 20.5924C24.9286 20.5807 24.8822 20.5689 24.8358 20.5571C24.9681 20.5294 24.9862 20.446 25.0086 20.3841C25.1786 19.7889 25.9453 19.7812 26.0854 20.3841C26.089 20.4066 26.0909 20.4271 26.0852 20.4452C26.0807 20.4592 26.0174 20.4783 26.0097 20.5202C26.0003 20.5693 26.0403 20.6459 26.0338 20.7032C26.1099 20.7051 26.1859 20.7071 26.2619 20.709C26.3244 20.7923 26.1461 20.8734 26.1457 20.9319C26.1457 20.9424 26.2057 21.1186 26.2122 21.1273C26.2643 21.1984 26.4177 21.1347 26.4429 21.3729C26.4473 21.4153 26.4008 21.4626 26.4082 21.5001C26.421 21.5663 26.5968 21.7305 26.7162 21.716C26.5922 21.8325 26.706 22.0288 26.6804 22.1019C26.6725 22.1241 26.5815 22.1521 26.5769 22.215C26.5731 22.266 26.678 22.3677 26.6811 22.4303C26.684 22.4969 26.6125 22.5394 26.6143 22.5691C26.6162 22.5971 26.685 22.6056 26.694 22.6421C26.7212 22.7563 26.6474 22.8852 26.6688 22.9755C26.6995 23.1061 26.914 23.173 27.0241 23.2605C27.0192 23.2905 26.9864 23.3273 26.9933 23.3557C27.078 23.707 27.1461 24.1105 27.1974 24.4716C27.2214 24.6392 27.0754 25.1092 27.4659 24.8928C27.5538 24.9304 27.4916 25.3857 27.5094 25.4646C27.5271 25.5435 27.6182 25.5862 27.6352 25.6474C27.6865 25.8322 27.6663 25.977 27.7901 26.186C27.8223 26.24 27.9274 26.2795 27.9353 26.3143C27.9446 26.3564 27.8703 26.4234 27.8788 26.4788C27.8997 26.6105 27.99 26.8428 28.007 26.97C28.0099 26.9933 27.9365 27.0207 27.9212 27.059C27.8615 27.2083 27.9059 27.3469 28.1405 27.2596C28.0453 27.4558 28.2086 27.5722 28.2548 27.7192C28.3519 28.0302 28.4442 28.6186 28.6165 28.8668C28.7251 29.0233 28.8321 28.9909 28.8047 29.2698C28.7987 29.3317 28.7854 29.3953 28.7784 29.4702C28.762 29.6461 28.6004 29.8452 28.8728 29.9055C28.8566 30.1002 28.9377 30.231 28.7662 30.4167C28.8196 30.4196 28.873 30.4224 28.9264 30.4253C28.9333 30.4469 28.9401 30.4684 28.947 30.49C28.9017 30.509 28.8564 30.528 28.8111 30.547C28.8161 30.5759 28.8282 30.6044 28.8448 30.6325C28.9286 31.0947 28.6745 31.4924 28.2061 31.4576C28.0634 31.4988 27.905 31.6329 27.7926 31.6317C27.5627 31.6295 26.9705 31.5518 26.7525 31.4862C26.6367 31.4514 26.6305 31.5555 26.5642 31.3414C26.5383 31.3563 26.5124 31.3712 26.4866 31.3861C26.4704 31.433 26.4542 31.4798 26.438 31.5267C26.2895 31.5286 26.1133 31.4558 25.9719 31.4565C25.7141 31.458 25.327 31.587 25.0681 31.5023C25.0032 31.4809 24.9221 31.3843 24.8585 31.3854C24.766 31.3869 24.7435 31.5473 24.6262 31.5503C24.4238 31.5552 24.047 31.3688 23.8558 31.383C23.799 31.3872 23.7725 31.4469 23.7333 31.4532C23.5688 31.4806 23.4338 31.4757 23.2761 31.568C23.1068 31.4143 23.1214 31.2158 23.0689 31.0156C23.0291 30.8645 22.9072 30.5143 22.8899 30.3819C22.8777 30.289 22.9231 30.1694 22.9061 30.067C23.109 29.9853 23.1942 30.0752 23.3589 30.2192C23.6631 30.2135 23.9673 30.2077 24.2715 30.202C24.2992 30.2579 24.3269 30.3137 24.3546 30.3696C24.3546 30.3697 24.3546 30.3699 24.3546 30.37C24.4714 30.4345 24.5209 30.2906 24.5839 30.2579C25.1871 29.9452 26.3744 30.19 27.0384 30.2252C27.1815 30.2327 27.647 30.1574 27.7452 30.2482C27.7706 30.2718 27.7777 30.3579 27.8047 30.3617C27.9385 30.3333 28.0723 30.305 28.2061 30.2766L27.7015 30.9284C27.6523 30.8297 27.6031 30.731 27.554 30.6324C27.5591 30.1178 27.3233 29.6482 27.1779 29.1686C26.7844 27.8712 26.3827 26.5899 26.0688 25.2948C26.0083 25.0445 25.8639 24.7443 25.8411 24.4898C25.8314 24.3836 25.9543 24.3065 25.8199 24.1986C25.8556 24.1878 25.8913 24.1771 25.9271 24.1663C25.8533 24.0608 25.7519 24.0075 25.7096 23.8787C25.6742 23.7702 25.5933 23.4799 25.5819 23.3789C25.5757 23.3266 25.648 23.328 25.6355 23.281C25.6135 23.2006 25.4757 23.0524 25.4469 22.9411C25.4208 22.8403 25.4545 22.6502 25.4232 22.5756C25.311 22.3068 25.1172 22.0326 25.0711 21.7271C25.0585 21.6427 25.1186 21.5143 25.1095 21.4892C25.0914 21.4403 25.0026 21.4473 24.983 21.4164C24.8834 21.2591 24.9151 20.9656 24.8756 20.7965C24.8683 20.7654 24.8609 20.7342 24.8533 20.703L26.2407 20.703C26.0988 21.2213 25.9897 21.7754 25.8417 22.2862C25.7428 22.6283 25.6095 23.2048 25.4633 23.5065C25.4317 23.5715 25.3434 23.5291 25.3285 23.5868C25.312 23.6506 25.3659 23.7015 25.3632 23.7327C25.3453 23.9485 25.2908 24.4211 25.1761 24.5995C25.1541 24.6335 25.0742 24.6416 25.0687 24.6639C25.0658 24.6752 25.109 24.7135 25.1049 24.7501C25.0692 25.0739 24.9812 25.294 24.885 25.5954C24.7011 26.1729 24.618 26.8756 24.4086 27.478C24.363 27.6092 24.195 27.6638 24.1916 27.6831C24.1838 27.7252 24.274 27.7768 24.2762 27.8668C24.2829 28.1658 24.0822 28.5142 24.0623 28.7918C24.0524 28.9289 24.1289 29.1406 24.1228 29.2765C24.1179 29.3851 24.0068 29.6156 24.049 29.6752C24.0745 29.7114 24.176 29.7514 24.1806 29.788ZM23.4451 25.8989C23.608 25.9606 23.5185 25.7319 23.4098 25.7808C23.3853 25.7919 23.4028 25.8829 23.4451 25.8989ZM26.8208 23.8999C26.8683 23.8857 26.9157 23.8715 26.9631 23.8574C26.9367 23.8373 26.9102 23.8171 26.8837 23.797C26.8586 23.8187 26.8335 23.8403 26.8084 23.862C26.8125 23.8746 26.8167 23.8872 26.8208 23.8999ZM15.3844 6.58202C15.1451 6.59401 14.8074 6.52916 14.5251 6.52574C13.3425 6.51075 12.9043 6.46579 11.8344 6.44029C10.2479 6.40242 5.53949 6.48766 5.53937 6.03711C5.53937 6.0371 5.53937 6.03709 5.53937 6.03708C5.53937 6.03266 5.53982 6.02819 5.54074 6.02367C5.55724 5.93783 5.95771 5.84413 6.01714 5.74706C6.07648 5.64995 6.03198 5.02302 6.60078 4.98778C7.42549 4.94133 9.40386 5.10208 9.84372 5.09495C10.1444 5.09004 10.5146 5.03305 10.8992 5.02293C12.139 4.99032 12.7877 5.03199 13.9047 4.87718C14.3515 4.95876 14.7983 5.04035 15.245 5.12193C15.828 5.0841 16.7115 5.1917 17.0656 5.18577C17.3562 5.1809 17.5265 5.11639 17.8293 5.11339C18.1689 5.10966 18.6905 5.1793 19.3083 5.16881C20.3211 5.15193 20.5013 4.98364 21.109 4.96226C21.7391 4.94015 22.7191 5.03162 23.5232 4.9724C23.624 4.95388 23.7249 4.93537 23.8257 4.91685C23.7535 4.87498 23.6812 4.83311 23.609 4.79124C24.0139 4.77175 24.1881 4.85756 24.5602 4.85911C24.9981 4.86099 25.2215 4.77964 25.5161 4.78001C25.7575 4.78039 26.0848 4.84562 26.3977 4.84154C26.854 4.83591 26.7542 4.74173 26.9997 4.7241C27.0977 4.71726 28.9089 4.66528 29.0111 4.66453C29.7882 4.66082 29.8558 4.78974 30.4755 4.80101C32.1942 4.83175 33.9585 4.72758 35.5482 4.68822C36.2581 4.6706 36.9988 4.67809 37.7066 4.69871C36.5918 5.02865 39.059 5.28543 38.1363 4.76915C38.9238 4.84259 39.4822 4.70322 40.2288 4.72679C40.7117 4.74216 41.0459 4.81375 41.7354 4.81187C42.9589 4.80809 44.2971 4.60461 44.649 4.9724C46.0852 4.90756 47.3291 5.04097 47.8467 4.71629C48.2171 4.69646 49.1662 4.88985 49.5816 4.91612C49.9744 4.94087 52.9886 5.02819 53.4817 5.03306C53.9748 5.03794 54.838 5.04324 55.2533 5.01475C55.6619 4.98715 55.9742 4.77459 56.5367 4.87293C56.9387 4.87693 57.2513 5.18156 57.2473 5.5835C57.2201 5.73915 57.1691 5.91397 57.0837 6.11529C57.1156 7.19533 57.1043 7.58014 57.0586 8.58465C57.0503 8.76651 56.9919 8.78708 56.9918 8.89331C56.9918 9.11218 57.035 9.48455 57.0403 9.87523C57.0489 10.5177 56.9259 10.8843 57.1138 10.8127C57.1453 11.2363 57.1767 11.6598 57.2082 12.0834C57.172 12.232 57.1357 12.3806 57.0995 12.5292C57.139 12.7556 57.1785 12.9821 57.218 13.2085C56.9462 12.9426 57.1066 14.5364 57.2626 14.0189C57.2063 14.84 57.1501 15.6611 57.0939 16.4821C56.7849 16.3675 57.0582 18.2849 57.2262 18.1235C57.2259 18.2175 57.2257 18.3114 57.2255 18.4054C57.1433 19.2279 57.2105 19.9832 57.1554 20.9858C57.1003 21.9883 57.0702 21.8942 56.9281 22.199C56.9362 22.4349 56.9444 22.6708 56.9525 22.9067C57.3421 24.1446 56.6676 23.9258 56.9664 26.0455C56.7216 26.7227 56.8502 28.3921 56.9244 29.4991C56.9331 29.6279 56.9806 29.6301 56.9952 29.8016C57.0305 30.221 56.9694 31.2912 57.1227 31.2546C57.0783 31.625 57.034 31.9955 56.9896 32.3659C57.0175 32.6687 57.0454 32.9715 57.0732 33.2743C57.1211 33.2728 57.1689 33.2713 57.2168 33.2697C57.0537 33.8794 57.1164 34.8375 57.0774 35.3102C57.0695 35.4042 57.0035 35.4245 56.9855 35.7169C56.9641 36.0586 56.9836 36.6953 56.963 37.1024C57.0361 37.2607 57.1092 37.419 57.1824 37.5773C57.222 38.3054 57.029 38.5613 57.014 38.9889C57.0114 39.0659 57.0253 40.4704 57.0294 40.546C57.0621 41.1655 57.2265 40.99 57.1913 42.7818C57.1849 43.1008 57.128 43.3589 57.1257 43.6473C57.1216 44.1567 57.2506 45.6918 57.3699 45.8126C57.2206 46.4305 57.2816 48.0837 57.2385 48.5707C57.2253 48.7176 57.1302 48.7508 57.11 49.2025C57.0935 49.5688 57.1696 50.512 57.1568 50.9764C57.143 51.4695 57.0631 51.6455 57.0575 51.8664C57.0522 52.0751 57.1167 52.2676 57.1163 52.5519C57.1141 53.4398 57.0103 54.2438 57.0084 54.9455C57.0084 54.9562 57.0084 54.9669 57.0084 54.9776C57.0057 55.2444 56.8035 55.4519 56.5367 55.4493C55.5351 55.4503 54.6486 55.6381 53.8085 55.7219C53.5977 55.7095 53.3907 55.6686 53.1697 55.6682C50.4363 55.6622 47.3528 55.627 44.6112 55.5862C43.3385 55.5674 40.1735 55.3083 41.0182 55.7406C40.5759 55.8163 37.3599 55.642 36.7482 55.6394C36.1366 55.6368 35.6518 55.7143 35.1711 55.7154C33.7205 55.7188 32.699 55.663 30.9333 55.7304C30.4772 55.7481 29.9886 55.8399 29.7185 55.8388C29.3932 55.8373 29.0431 55.7485 28.6217 55.7429C27.6172 55.7301 25.7451 55.7594 24.7813 55.744C24.6054 55.741 24.5436 55.663 24.2919 55.6386C23.3119 55.5434 22.2134 55.5517 22.4077 55.8006C21.1516 55.6593 19.9896 55.7882 18.8255 55.7961C16.3641 55.8122 11.8805 55.7541 9.73622 55.8587C8.3842 55.9247 8.41879 56.0364 6.42818 55.94C6.14013 55.9261 5.85291 55.909 5.53937 55.8917C5.02229 55.8866 4.6201 55.4947 4.62525 54.9776C4.63448 54.8102 4.64376 54.6353 4.65263 54.4487C4.71262 53.1924 4.9189 52.04 4.67033 51.0824C4.7348 49.6872 4.68908 48.576 4.90166 47.5408C4.85067 47.4188 4.79969 47.2967 4.7487 47.1747C4.74744 47.0036 4.74618 46.8326 4.74492 46.6615C4.79354 46.6081 4.84217 46.5548 4.89079 46.5014C4.90389 45.276 4.70403 43.7213 4.70549 42.684C4.70774 40.9449 4.78538 36.4655 4.851 34.8164C4.88584 33.9409 4.7817 33.8938 4.99577 33.3926C4.98088 33.1968 4.96599 33.0009 4.95109 32.8051C4.90422 32.6826 4.85734 32.56 4.81047 32.4375C4.80859 31.3142 4.8814 29.982 4.88066 28.9119C4.87916 26.962 4.75015 24.0341 4.83488 22.076C4.85625 21.585 4.95292 20.9713 4.95183 20.4905C4.95033 19.7908 4.78991 19.6207 4.78691 18.7327C4.78203 17.2023 4.96839 14.3521 4.95415 12.9056C4.95002 12.4759 4.89033 12.2754 4.88396 11.9788C4.85658 10.7348 4.86145 9.71346 4.76921 8.52062C4.92294 7.23981 5.12136 7.35046 5.32158 6.95353C5.47269 6.65271 5.8229 5.73031 5.95525 5.59937C6.04823 5.50739 6.16784 5.8508 6.27019 5.72192C6.35192 7.25643 6.26194 7.90111 6.11797 9.14714C6.1237 11.4482 6.12944 13.7493 6.13518 16.0504C6.07931 16.2598 6.02344 16.4692 5.96758 16.6785C5.96745 16.6785 5.96733 16.6785 5.96721 16.6785C5.90273 17.5622 6.04661 17.9367 6.07927 18.4133C6.39197 22.976 6.14723 31.9564 6.11199 36.9794C6.10449 38.0618 6.17977 41.5829 6.08904 42.3256C6.06541 42.5179 5.97926 42.5714 5.97551 42.776C6.02674 44.6037 6.07797 46.4315 6.1292 48.2592C6.05047 50.47 6.05629 52.7248 6.07863 54.9776L5.53937 54.4383C7.11659 54.4227 8.69288 54.399 10.2525 54.3905C20.4989 54.3346 30.6431 54.2667 40.7218 54.2873C42.6697 54.2914 45.1415 54.2269 47.0484 54.2685C47.8442 54.2858 48.1758 54.4241 49.2213 54.321C49.2323 54.3583 49.2433 54.3956 49.2543 54.4328C50.1666 54.3878 50.7497 54.303 51.7726 54.2944C52.634 54.2873 54.9131 54.2817 55.6743 54.296C56.0691 54.3031 55.922 54.3728 56.2901 54.3724C56.3632 54.3723 56.4461 54.3709 56.5367 54.3685L55.9276 54.9776C55.9093 54.2878 55.8341 53.1467 55.8341 52.3781C55.8341 51.5904 55.9143 50.2624 55.9027 49.6567C55.8615 47.4757 55.7425 45.0999 55.7744 42.7756C55.7834 42.1336 55.8737 41.3078 55.8712 41.1067C55.866 40.7139 55.7782 40.5969 55.767 40.3331C55.71 38.993 55.8142 36.9041 55.8183 35.5905C55.8318 31.3102 55.7936 26.7757 55.8097 22.5138C55.8198 19.8212 55.8044 15.3467 55.8703 12.8608C55.8846 12.3248 55.9807 12.4676 55.9807 12.0175C55.9807 11.5184 55.9158 11.2482 55.9105 11.0149C55.8819 9.75843 55.8358 7.32109 55.8481 5.5835L56.5367 6.27214C56.0417 6.26865 55.6035 6.26043 55.2655 6.24571C54.9752 6.23297 54.7646 6.15767 54.5907 6.15795C54.5028 6.15795 54.304 6.20933 54.0278 6.21459C51.5889 6.26108 49.8107 6.23111 47.4209 6.21349C42.844 6.18012 37.5408 6.27572 32.7327 6.22399C31.6851 6.21274 30.9667 6.06379 30.8194 6.06529C30.4962 6.0683 30.2892 6.16848 29.6345 6.19322C27.4577 6.27456 24.526 6.16766 22.4555 6.21788C21.4326 6.24263 20.0269 6.3698 19.0203 6.39794C18.2163 6.42043 16.3175 6.37054 15.9612 6.42638C15.7444 6.46011 15.6441 6.56845 15.3844 6.58202ZM42.4699 4.89549C42.3267 5.06871 43.832 4.92476 43.2673 4.83177C43.1401 4.81083 42.5069 4.85053 42.4699 4.89549ZM49.5116 55.3648C49.5254 55.4143 49.5392 55.4638 49.553 55.5133C49.7506 55.4927 49.9482 55.4721 50.1458 55.4515C50.0347 55.4218 49.9237 55.392 49.8126 55.3623C49.7123 55.3631 49.6119 55.364 49.5116 55.3648ZM35.668 43.0616C35.5575 43.0736 35.4017 43.0087 35.2714 43.0053C34.7257 42.9903 34.5235 42.9453 34.0297 42.9198C33.2976 42.882 31.1249 42.9672 31.1248 42.5167C31.1248 42.5167 31.1248 42.5166 31.1248 42.5166C31.1248 42.5122 31.125 42.5077 31.1254 42.5032C31.1331 42.4174 31.3179 42.3237 31.3453 42.2266C31.3727 42.1295 31.3521 41.5026 31.6146 41.4673C31.9952 41.4209 32.9081 41.5816 33.1111 41.5745C33.2499 41.5696 33.4207 41.5126 33.5982 41.5025C34.1703 41.4699 34.4697 41.5115 34.9851 41.3567C35.1913 41.4383 35.3975 41.5199 35.6036 41.6015C35.8726 41.5637 36.2804 41.6713 36.4438 41.6653C36.4922 41.6636 36.5334 41.654 36.5729 41.6424L36.1702 42.1847C36.1304 42.1239 36.086 42.0701 36.0583 41.9853C36.0094 41.8363 36.0065 41.5858 35.914 41.3159C35.7627 40.8734 35.5775 40.8424 35.476 40.5802C35.3707 40.3082 35.3275 39.8488 35.1635 39.5108C35.1323 39.4716 35.1011 39.4324 35.0699 39.3932C35.0395 39.4372 35.0091 39.4813 34.9786 39.5253C34.9059 39.352 34.9648 39.2503 34.9166 39.0854C34.86 38.8915 34.7523 38.8163 34.7134 38.6861C34.6815 38.5793 34.7003 38.4159 34.6546 38.2788C34.5883 38.0789 34.5115 38.1502 34.4618 38.0468C34.4422 38.0055 34.1507 37.2205 34.1364 37.1756C34.0291 36.8334 34.1435 36.7662 34.0716 36.4892C33.8717 35.7211 33.5365 34.9718 33.2866 34.2809C33.1751 33.9724 33.0834 33.6431 33.0087 33.3244C33.4733 33.7215 33.3898 32.5573 33.0187 33.1143C32.9839 32.7451 32.776 32.5388 32.6989 32.2022C32.6492 31.9844 32.6731 31.8161 32.5793 31.512C32.4124 30.9727 32.039 30.4403 32.3441 30.1785C32.0904 29.5628 32.0521 28.9748 31.6722 28.84C31.6038 28.6821 31.6623 28.2069 31.632 28.0158C31.6033 27.8352 31.2846 26.4784 31.2235 26.2592C31.1623 26.0399 31.0522 25.6571 30.9695 25.4819C30.8661 25.2616 30.4952 25.1979 30.7481 24.6737C30.5734 24.2058 30.5329 24.0326 30.4426 23.5756C30.4262 23.4929 30.4794 23.4669 30.4653 23.4199C30.4361 23.3233 30.3451 23.1713 30.2879 23.0002C30.1939 22.7189 30.2627 22.5214 30.0924 22.6073C30.0057 22.4293 29.9191 22.2513 29.8324 22.0733C29.8473 21.9972 29.8621 21.9211 29.877 21.845C29.809 21.7563 29.7409 21.6677 29.6729 21.5791C29.9686 21.618 29.6023 20.9603 29.5221 21.234C29.4664 20.8551 29.4106 20.4761 29.3549 20.0971C29.6659 20.0584 29.1484 19.2904 29.0091 19.4103C28.9968 19.3687 28.9845 19.3272 28.9722 19.2856C28.9411 18.8985 28.776 18.5843 28.6949 18.1254C28.6139 17.6667 28.6553 17.6995 28.7506 17.5238C28.7113 17.4219 28.6721 17.3201 28.6328 17.2182C28.1274 16.8104 28.692 16.6988 28.2911 15.9826L28.6602 16.2566C28.6083 16.268 28.5528 16.2826 28.4934 16.3008C28.1809 16.0559 27.4105 16.1845 26.8997 16.2588C26.8402 16.2674 26.8392 16.3149 26.7601 16.3296C26.5665 16.3648 26.0727 16.3037 26.0896 16.457C25.9186 16.4127 25.7477 16.3683 25.5767 16.324C25.437 16.3518 25.2972 16.3797 25.1575 16.4076C25.1582 16.4554 25.1589 16.5033 25.1596 16.5511C24.8783 16.3881 24.4362 16.4507 24.218 16.4117C24.1747 16.4038 24.1653 16.3378 24.0304 16.3198C23.8727 16.2984 23.5789 16.318 23.391 16.2974C23.3179 16.3705 23.2449 16.4436 23.1718 16.5167C22.8358 16.5564 22.7177 16.3634 22.5204 16.3484C22.4986 16.3468 22.2446 16.3514 22.0445 16.3562L22.5296 15.8711C22.5325 15.9961 22.5356 16.1002 22.5371 16.1137C22.5698 16.3995 22.7342 16.3185 22.699 17.1454C22.6926 17.2926 22.6357 17.4117 22.6335 17.5448C22.6301 17.7372 22.7159 18.2466 22.8125 18.4558C22.8115 18.5013 22.7951 18.629 22.7813 18.6724C22.7888 18.723 22.801 18.7596 22.8189 18.7754C22.5953 19.0068 22.4387 19.756 22.3339 19.9594C22.3021 20.0208 22.2066 20.0086 22.1284 20.2029C22.0649 20.3604 22.0151 20.7995 21.9424 21.0015C21.865 21.2159 21.7654 21.2713 21.7313 21.3675C21.6991 21.4584 21.7359 21.5618 21.6985 21.6876C21.5808 22.08 21.3766 22.4067 21.2835 22.7169C21.1485 23.1653 21.2149 23.616 21.1857 24.0158C21.1464 24.1057 21.0802 24.1858 21.051 24.2835C20.6895 25.492 20.2545 26.8472 19.8584 28.0495C19.6748 28.6077 19.0143 29.9358 19.5389 29.6837C19.554 29.9009 18.9682 31.2756 18.8861 31.5457C18.804 31.8157 18.8153 32.0522 18.7538 32.2653C18.5682 32.9085 18.3817 33.345 18.2166 34.1458C18.1742 34.3527 18.1987 34.5949 18.1625 34.7142C18.1188 34.8578 17.988 34.9877 17.9277 35.1727C17.7848 35.6139 17.5691 36.4509 17.429 36.8733C17.4032 36.9503 17.3203 36.9557 17.2642 37.0603C17.0453 37.4673 16.9102 37.956 17.1744 37.9401C16.8753 38.4564 16.8477 39.0072 16.7038 39.5248C16.5028 40.2462 16.1565 41.3475 15.8926 42.2947L15.1045 41.2416C15.6128 41.2343 16.0754 41.2176 16.4126 41.1819C17.0365 41.1159 17.0206 41.0043 17.9392 41.1006C18.1431 41.122 18.3461 41.1508 18.5934 41.1763C19.1245 41.2313 19.6154 41.409 20.0338 41.2473L19.2506 41.8348C19.2471 41.7939 19.2407 41.7528 19.2311 41.7114C19.4731 41.1113 19.5727 40.6062 19.9104 40.207C19.8772 40.1387 19.844 40.0704 19.8108 40.002C19.8317 39.9259 19.8526 39.8498 19.8735 39.7736C19.927 39.7636 19.9806 39.7535 20.0342 39.7435C20.2049 39.2043 20.2138 38.4596 20.3491 38.0004C20.526 37.3999 20.9621 36.0734 21.2764 35.1809C21.3672 34.8924 21.6772 34.6469 21.9796 34.6534C22.246 34.668 22.4765 34.6831 22.6439 34.6975C23.0479 34.7323 23.0697 34.6282 23.301 34.8423C23.3913 34.8274 23.4817 34.8125 23.5721 34.7976C23.6286 34.7507 23.6852 34.7038 23.7417 34.657C24.2601 34.6551 24.8749 34.7279 25.3687 34.7272C26.2684 34.7257 27.6196 34.5966 28.5232 34.6814C28.7246 34.7004 28.9709 34.7789 29.179 34.7953C29.4228 34.8006 29.6828 34.9851 29.7459 35.2206C29.7512 35.2461 29.7573 35.2707 29.7643 35.2943C29.8561 35.6039 30.032 35.6344 30.1496 36.0269C30.3518 36.7036 30.5409 38.0185 30.7413 38.6554C30.8008 38.8446 30.8839 38.9167 30.9284 39.0463C31.1153 39.5898 31.2424 40.0437 31.485 40.5463C31.5028 41.1568 31.298 41.1633 31.157 41.3951C31.0508 41.5707 30.8336 42.0773 30.7235 42.1724C30.6461 42.2391 30.4869 42.1205 30.4053 42.2062C30.1287 41.5492 30.1319 41.2384 30.1092 40.6461C29.8066 39.6282 29.504 38.6104 29.2014 37.5925C29.228 37.4841 29.2546 37.3757 29.2813 37.2673C29.2814 37.2673 29.2815 37.2673 29.2816 37.2672C29.2294 36.8577 29.0429 36.732 28.95 36.53C28.8209 36.2492 28.691 35.9238 28.5615 35.5658L29.179 36.0291C27.0641 36.1641 23.9837 36.0075 21.9796 35.9647L22.5353 35.5478C22.5008 35.6575 22.4676 35.7638 22.436 35.8666C22.289 36.344 21.9067 37.925 21.7237 38.2287C21.6762 38.3073 21.5866 38.3069 21.5566 38.3965C21.3698 39.2206 21.183 40.0447 20.9962 40.8688C20.8304 41.3083 20.6806 41.7569 20.541 42.2108C20.4845 42.4215 20.2519 42.5866 20.0338 42.5913C18.7501 42.5722 17.4501 42.6351 16.1744 42.6502C15.8175 42.6544 15.4609 42.6587 15.1045 42.663C14.6661 42.6723 14.4141 42.317 14.5289 41.8938C15.7093 37.6912 16.8751 33.5251 18.1061 29.4051C18.3636 28.5439 18.6234 27.4313 18.9115 26.5988C19.0316 26.2513 19.2075 26.1436 19.2447 25.6516C19.2819 25.6573 19.319 25.6629 19.3562 25.6686C19.4318 25.2519 19.4263 24.9699 19.5512 24.5146C19.6565 24.1312 19.9478 23.1206 20.0605 22.7876C20.1187 22.6148 20.1664 22.6996 20.214 22.5366C20.2949 22.2572 20.3778 21.634 20.491 21.249C20.5935 20.9002 20.8433 20.3349 20.911 20.0635C21.0559 19.4838 21.1835 18.8661 21.3328 18.2466L21.3027 18.4558C21.2812 18.0192 21.2692 17.5789 21.2821 17.1425C21.2912 16.8463 21.3815 16.4652 21.3789 16.3724C21.3737 16.1911 21.286 16.1371 21.2747 16.0154C21.2704 15.9691 21.2671 15.9209 21.2645 15.8711C21.255 15.43 21.6033 15.1006 22.0445 15.0911C22.6608 15.0594 23.5279 15.1489 24.0887 15.1527C25.5805 15.1629 27.1392 15.1435 28.6602 15.1404C28.9582 15.134 29.2673 15.3763 29.3596 15.6598C29.5031 16.1312 29.6438 16.5994 29.7792 17.0613C30.1289 18.2536 30.7408 20.2258 31.0094 21.343C31.0673 21.5839 30.9562 21.5486 31.0163 21.7474C31.0829 21.9679 31.1811 22.0685 31.2173 22.17C31.4679 22.8726 32.0063 24.428 32.1462 25.1205C32.1728 25.2524 32.1288 25.3672 32.1523 25.4439C32.164 25.4828 32.2397 25.5557 32.2816 25.6762C32.6516 26.7402 32.8602 27.5344 33.1623 28.5951C33.7412 30.6266 34.5404 32.9416 35.1325 35.0806C35.2616 35.5466 35.2149 35.907 35.236 35.9716C35.282 36.1136 35.4055 36.176 35.5166 36.4581C35.8849 37.3962 36.1738 38.7221 36.4982 39.6223C36.6584 40.067 36.9678 40.6511 37.129 41.0877C37.1927 41.2599 37.275 41.5552 37.3543 41.827C37.5399 42.3977 37.1729 42.8667 36.5729 42.8793C36.2828 42.8765 36.0173 42.8777 35.9341 42.9059C35.8341 42.9397 35.7878 43.048 35.668 43.0616ZM32.5613 31.1634C32.7463 31.1765 32.4076 30.5532 32.3939 30.8296C32.3909 30.8918 32.5134 31.16 32.5613 31.1634ZM20.2839 25.8175C20.3332 25.8253 20.3824 25.8332 20.4317 25.841C20.4377 25.7477 20.4436 25.6545 20.4496 25.5612C20.4066 25.6019 20.3636 25.6427 20.3206 25.6835C20.3084 25.7282 20.2961 25.7728 20.2839 25.8175ZM45.2252 39.5876C45.2372 39.6478 45.1723 39.7327 45.1689 39.8037C45.1539 40.101 45.1089 40.2112 45.0834 40.4802C45.0456 40.8791 45.1308 42.063 44.6802 42.063C44.6802 42.063 44.6802 42.063 44.6802 42.063C44.6758 42.063 44.6713 42.0629 44.6668 42.0627C44.581 42.0586 44.4873 41.9579 44.3902 41.9429C44.2931 41.928 43.6662 41.9392 43.6309 41.7962C43.5845 41.5888 43.7452 41.0914 43.7381 40.9808C43.7332 40.9052 43.6762 40.8121 43.6661 40.7154C43.6335 40.4037 43.6751 40.2405 43.5203 39.9597C43.6019 39.8473 43.6835 39.735 43.7651 39.6227C43.7272 39.4761 43.8348 39.2539 43.8289 39.1649C43.824 39.0918 43.7595 39.049 43.7565 38.9729C43.7528 38.8875 43.8224 38.7563 43.8119 38.601C43.7951 38.3463 43.6268 38.301 43.6054 38.1482C43.5833 37.9898 43.6748 37.7434 43.6155 37.5412C43.597 37.5159 43.5785 37.4905 43.56 37.4651C43.5181 37.4833 43.4763 37.5015 43.4344 37.5196C43.4149 37.4178 43.5007 37.374 43.5023 37.2805C43.5041 37.1704 43.4228 37.1142 43.4232 37.0401C43.4235 36.9794 43.4888 36.8971 43.4847 36.8185C43.4791 36.7037 43.3849 36.7288 43.3672 36.6671C43.3604 36.6424 43.3084 36.187 43.3077 36.1614C43.304 35.966 43.4329 35.9489 43.4441 35.7931C43.4749 35.361 43.3707 34.9174 43.3314 34.5176C43.3137 34.3392 43.3212 34.1529 43.3419 33.9749C43.6718 34.2553 43.9286 33.6349 43.4123 33.8669C43.4857 33.6689 43.3464 33.5285 43.3699 33.3408C43.3853 33.2194 43.4569 33.1353 43.455 32.962C43.4512 32.6543 43.2477 32.3178 43.6155 32.2294C43.5507 31.8682 43.6841 31.5555 43.3594 31.4253C43.3396 31.3322 43.533 31.0936 43.5593 30.9891C43.584 30.8904 43.6713 30.1325 43.6762 30.0085C43.6811 29.8845 43.6864 29.6675 43.6579 29.563C43.6226 29.4319 43.2859 29.3402 43.6796 29.1066C43.6478 28.8351 43.659 28.7383 43.7048 28.4857C43.713 28.44 43.7715 28.4348 43.7715 28.4081C43.7715 28.3531 43.7283 28.2595 43.7231 28.1612C43.7145 27.9997 43.8374 27.9075 43.6496 27.9255C43.6181 27.819 43.5866 27.7125 43.5551 27.606C43.5914 27.5686 43.6276 27.5313 43.6639 27.4939C43.6244 27.437 43.5849 27.38 43.5453 27.3231C43.8172 27.39 43.6568 26.9892 43.5008 27.1193C43.557 26.9129 43.6133 26.7064 43.6695 26.5C43.9784 26.5288 43.7051 26.0467 43.5372 26.0873C43.5374 26.0637 43.5377 26.04 43.5379 26.0164C43.62 25.8096 43.5528 25.6197 43.608 25.3676C43.6631 25.1155 43.6932 25.1392 43.8353 25.0625C43.8271 25.0032 43.819 24.9439 43.8108 24.8846C43.4213 24.5734 44.0958 24.6284 43.7969 24.0954C44.0418 23.9251 43.9132 23.5053 43.8389 23.227C43.8303 23.1946 43.7828 23.1941 43.7681 23.151C43.7329 23.0455 43.794 22.7764 43.6407 22.7856C43.685 22.6925 43.7294 22.5993 43.7737 22.5062C43.7459 22.4301 43.718 22.3539 43.6901 22.2778C43.6423 22.2782 43.5944 22.2786 43.5466 22.2789C43.5908 22.2374 43.6184 22.1894 43.6359 22.1391L44.2266 22.7298C44.0915 22.6826 43.94 22.7082 43.8534 22.6798C43.8298 22.6719 43.8246 22.6059 43.7511 22.5879C43.6652 22.5665 43.5051 22.586 43.4028 22.5654C43.363 22.6385 43.3231 22.7117 43.2833 22.7848C43.1003 22.8244 43.0359 22.6314 42.9284 22.6164C42.9091 22.6138 42.5559 22.6277 42.5369 22.6318C42.3811 22.6645 42.4253 22.8289 41.9747 22.7937C41.8945 22.7873 41.8296 22.7304 41.7571 22.7281C41.629 22.724 41.243 22.853 41.2127 22.9723C41.0573 22.8231 40.6416 22.8841 40.5192 22.8409C40.4822 22.8277 40.4739 22.7326 40.3603 22.7124C40.2682 22.6959 40.0311 22.772 39.9143 22.7593C39.7903 22.7454 39.7461 22.6655 39.6905 22.6599C39.638 22.6547 39.5896 22.7191 39.5181 22.7187C39.2949 22.7165 39.0928 22.6127 38.9163 22.6108C38.9136 22.6108 38.9109 22.6108 38.9082 22.6108L39.3799 22.1391C39.381 22.391 39.5687 22.6139 39.6525 22.8251C39.6401 22.8781 39.5992 22.9302 39.5988 22.9857C39.5928 23.673 39.5576 24.4483 39.5168 25.1377C39.498 25.4577 39.2389 26.2535 39.6712 26.0411C39.7469 26.1523 39.5726 26.9609 39.57 27.1147C39.5674 27.2685 39.6449 27.3904 39.646 27.5113C39.6494 27.876 39.5936 28.1329 39.6611 28.5768C39.6787 28.6915 39.7705 28.8144 39.7695 28.8823C39.768 28.9641 39.6792 29.0521 39.6735 29.1581C39.6608 29.4106 39.69 29.8813 39.6746 30.1237C39.6716 30.1679 39.5936 30.1835 39.5693 30.2467C39.474 30.4932 39.4823 30.7694 39.7312 30.7205C39.5899 31.0363 39.7188 31.3285 39.7267 31.6212C39.7429 32.2401 39.6847 33.3674 39.7894 33.9066C39.8553 34.2465 39.967 34.2378 39.8707 34.7384C39.8493 34.8495 39.8205 34.9601 39.795 35.0948C39.735 35.4107 39.5287 35.7005 39.7773 35.9412C39.7128 36.2921 39.7585 36.5715 39.5459 36.8318C39.5969 36.8624 39.6479 36.8931 39.6989 36.9238C39.7002 36.9668 39.7014 37.0098 39.7027 37.0528C39.6541 37.0663 39.6054 37.0797 39.5568 37.0931C39.5437 37.4012 39.7436 37.7921 39.7421 38.0529C39.7399 38.4902 39.6622 39.6165 39.5966 40.0312C39.5618 40.2513 39.6659 40.2631 39.4518 40.3892C39.4667 40.4384 39.4816 40.4876 39.4965 40.5369C39.5434 40.5677 39.5903 40.5985 39.6371 40.6293C39.639 40.9117 39.5662 41.2467 39.5669 41.5158C39.5674 41.6773 39.5818 41.8656 39.5978 42.063L38.9082 41.3735C39.31 41.341 39.7497 41.3018 40.0798 41.3586C40.2032 41.3799 40.3575 41.4766 40.4784 41.4755C40.6544 41.474 40.6971 41.3136 40.9204 41.3106C41.3052 41.3057 42.0219 41.4921 42.3856 41.4778C42.4936 41.4737 42.544 41.414 42.6186 41.4076C42.9314 41.3803 43.1882 41.3851 43.4881 41.2929C43.8102 41.4466 43.7824 41.645 43.8822 41.8453C43.9578 41.9964 44.1897 42.3466 44.2226 42.4789C44.2458 42.5719 44.1594 42.6915 44.1918 42.7939C43.806 42.8756 43.6439 42.7856 43.3306 42.6416C42.752 42.6474 42.1734 42.6531 41.5948 42.6589C41.5422 42.603 41.4896 42.5471 41.4369 42.4913C41.4369 42.4911 41.4369 42.491 41.4369 42.4909C41.2147 42.4264 41.1205 42.5703 41.0007 42.603C40.471 42.7473 39.7043 42.7729 38.9082 42.7551C38.5171 42.7706 38.2317 42.4542 38.2162 42.063C38.237 41.1351 38.3166 40.1671 38.3356 39.4873C38.3431 39.2151 38.2678 38.3298 38.3586 38.1431C38.3822 38.0947 38.4683 38.0813 38.4721 38.0298C38.4209 37.5702 38.3696 37.1107 38.3184 36.6511C38.4523 35.7061 38.3417 34.729 38.3211 33.7768C38.2652 31.2004 38.1973 28.6498 38.2179 26.1156C38.2221 25.6259 38.1575 25.0043 38.1991 24.5249C38.2164 24.3248 38.3547 24.2414 38.2516 23.9785C38.2889 23.9757 38.3262 23.973 38.3634 23.9702C38.3185 23.7408 38.2336 23.5942 38.225 23.337C38.2179 23.1204 38.2124 22.5474 38.2266 22.356C38.2337 22.2567 38.3034 22.2937 38.303 22.2012C38.3029 22.1828 38.3015 22.1619 38.2991 22.1391C38.2854 21.7948 38.5639 21.5436 38.9082 21.53C39.0817 21.5117 39.3686 21.4365 39.5619 21.4365C39.7599 21.4365 40.0938 21.5167 40.2461 21.5051C40.7945 21.4639 41.3919 21.3449 41.9763 21.3768C42.1377 21.3858 42.3454 21.4761 42.3959 21.4736C42.4947 21.4684 42.5241 21.3806 42.5904 21.3694C42.9274 21.3124 43.4526 21.4166 43.7829 21.4208C43.9297 21.4226 44.0778 21.4235 44.2266 21.4237C44.631 21.4076 44.9261 21.7347 44.9421 22.1391C44.9409 23.0815 44.9676 24.058 44.9537 24.9834C44.9435 25.6604 44.959 26.7855 44.893 27.4105C44.8788 27.5453 44.7827 27.5094 44.7827 27.6226C44.7827 27.7481 44.8476 27.816 44.8528 27.8747C44.8896 28.2806 44.9552 29.1767 44.8889 29.56C44.8761 29.633 44.8008 29.6859 44.8011 29.7296C44.8011 29.7517 44.8525 29.8017 44.8577 29.8712C44.9042 30.4844 44.8742 30.9315 44.8566 31.5324C44.8233 32.6832 44.9189 34.0166 44.8671 35.2256C44.8559 35.489 44.7069 35.6696 44.7084 35.7067C44.7114 35.7879 44.8116 35.84 44.8364 36.0046C44.9177 36.5519 44.8108 37.2891 44.861 37.8097C44.8858 38.0669 45.0129 38.4203 45.0411 38.6734C45.0636 38.8756 45.0137 39.353 45.0695 39.4426C45.1032 39.4971 45.2116 39.5223 45.2252 39.5876ZM43.5386 32.7773C43.7119 32.8133 43.5679 32.4348 43.4749 32.5768C43.454 32.6088 43.4937 32.768 43.5386 32.7773ZM39.2955 23.9055C39.3449 23.9021 39.3944 23.8986 39.4439 23.8951C39.4233 23.8454 39.4027 23.7957 39.3821 23.7461C39.3524 23.774 39.3226 23.8019 39.2929 23.8298C39.2937 23.8551 39.2946 23.8803 39.2955 23.9055ZM42.7261 20.5766C42.7027 20.5964 42.6468 20.5454 42.6149 20.5508C42.4797 20.5724 42.4209 20.5396 42.2984 20.5382C42.1221 20.5459 41.5924 20.6598 41.5996 20.2019C41.5996 20.2019 41.5996 20.2018 41.5996 20.2018C41.5996 20.1974 41.5997 20.193 41.5997 20.1884C41.6018 20.1027 41.6394 20.0087 41.643 19.9115C41.6466 19.8143 41.6356 19.1877 41.6716 19.1514C41.723 19.1045 41.8712 19.2523 41.9037 19.2399C41.9243 19.2323 41.9415 19.1722 41.9657 19.158C42.0423 19.112 42.098 19.1423 42.1297 18.9744C42.178 19.0461 42.2292 19.1164 42.2835 19.1851C42.3114 19.1373 42.4054 19.2186 42.4286 19.2036C42.4471 19.1915 42.4355 19.1269 42.4543 19.1163C42.4749 19.1041 42.5366 19.1541 42.5738 19.1259C42.6345 19.0797 42.571 18.9226 42.5966 18.8855C42.6225 18.8474 42.7257 18.8945 42.7413 18.8151C42.7373 18.7958 42.7331 18.7766 42.7288 18.7575C42.7025 18.7245 42.6764 18.6915 42.6506 18.6582C42.661 18.6288 42.7162 18.6952 42.7369 18.6834C42.7613 18.6695 42.7265 18.5946 42.7412 18.5847C42.7532 18.5767 42.8078 18.6177 42.8213 18.6025C42.8408 18.5808 42.7785 18.5097 42.7792 18.4869C42.7806 18.4781 42.8282 18.3711 42.8311 18.3666C42.8613 18.3346 42.9518 18.4264 42.9873 18.408C43.086 18.3555 43.0803 18.2032 43.1022 18.1079C43.1126 18.0647 43.1424 18.0351 43.182 18.012C43.4182 18.2542 43.7251 18.2515 43.2549 18.0287C43.3429 18.0265 43.24 17.9263 43.2808 17.9005C43.3075 17.8833 43.3807 17.8981 43.3974 17.8591C43.4283 17.7865 43.2647 17.6448 43.6173 17.7515C43.5883 17.644 43.7388 17.598 43.4322 17.4865C43.4181 17.4626 43.6193 17.4506 43.6504 17.4279C43.6816 17.4109 43.7955 17.2235 43.8003 17.188C43.8078 17.1548 43.8155 17.0957 43.7872 17.067C43.776 17.0554 43.7333 17.0447 43.6938 17.0343C43.6108 17.0114 43.5426 16.9954 43.8073 16.943C43.7719 16.8707 43.7811 16.8465 43.8186 16.7721C43.8253 16.7587 43.883 16.7498 43.8821 16.7423C43.8801 16.7267 43.8337 16.7071 43.8241 16.6812C43.8085 16.6391 43.9239 16.5903 43.7405 16.6311C43.7042 16.6094 43.6675 16.5887 43.6306 16.5696C43.6637 16.552 43.6966 16.5339 43.7293 16.5153C43.6873 16.5102 43.6453 16.5059 43.6034 16.5025C43.8706 16.4474 43.6854 16.386 43.5464 16.4659C43.5853 16.4006 43.621 16.3317 43.653 16.2593C43.9441 16.153 43.6362 16.127 43.4892 16.2117C43.4869 16.2061 43.4846 16.2006 43.4823 16.1951C43.534 16.1119 43.4519 16.0979 43.4678 16.0144C43.4822 15.9293 43.5104 15.919 43.6198 15.8256C43.6038 15.8152 43.5877 15.8051 43.5715 15.7952C43.2014 15.9433 43.7632 15.5653 43.4269 15.6198C43.587 15.427 43.3989 15.4069 43.2902 15.4047C43.2774 15.4041 43.2438 15.4377 43.2248 15.4395C43.1795 15.4439 43.1645 15.3473 43.0641 15.4635C43.0751 15.4138 43.0847 15.3634 43.0928 15.3124C43.0583 15.3198 43.0242 15.328 42.9906 15.337C42.961 15.3746 42.9314 15.4122 42.9018 15.4498C42.9714 15.2966 42.879 15.3066 42.8753 15.2569C42.8744 15.2467 42.9109 15.1916 42.9035 15.1648C42.895 15.1332 42.8459 15.1248 42.8317 15.092C42.7837 15.1483 42.7365 15.2053 42.6903 15.2629C42.6301 15.2734 42.7094 15.097 42.6891 15.069C42.6857 15.0636 42.5907 15.0313 42.584 15.0332C42.5303 15.0447 42.4745 15.1975 42.3807 15.1215C42.3637 15.108 42.3677 15.0487 42.35 15.0399C42.318 15.0232 42.1816 15.1158 42.1438 15.2295C42.1489 15.0749 42.0299 15.1092 42.0087 15.0618C42.0021 15.047 42.0183 14.9532 41.9915 14.9278C41.9692 14.9069 41.895 14.9726 41.8665 14.9565C41.8357 14.9389 41.8315 14.8583 41.8167 14.8512C41.8026 14.8446 41.7839 14.9077 41.7648 14.9059C41.7054 14.8993 41.6533 14.7939 41.6019 14.792C41.6011 14.7919 41.6004 14.7919 41.5996 14.7919C41.526 14.7929 41.4718 14.9838 41.4273 15.0716C41.4132 15.0604 41.3962 15.0208 41.3819 15.0219C41.2059 15.0332 41.0045 15.044 40.8185 15.0721C40.7371 15.0792 40.4192 14.9498 40.6706 15.3074C40.6828 15.3833 40.4231 15.3354 40.3862 15.361C40.3517 15.382 40.3728 15.4629 40.35 15.482C40.2815 15.5398 40.1928 15.542 40.1617 15.6684C40.1538 15.7012 40.2005 15.7856 40.1893 15.7963C40.1755 15.8091 40.0952 15.7657 40.0737 15.782C40.0226 15.8207 39.9764 15.9303 39.9317 15.9709C39.9233 15.9782 39.8561 15.9384 39.8267 15.9389C39.7116 15.9411 39.681 16.0129 39.9048 16.1228C39.7436 16.121 39.8254 16.2475 39.8069 16.3118C39.7614 16.4473 39.6396 16.7012 39.7345 16.8387C39.7929 16.9237 39.9035 16.9222 39.8053 17.0294C39.8039 17.0311 39.8024 17.0327 39.801 17.0343C39.7801 17.0574 39.7538 17.0814 39.7312 17.1111C39.6738 17.182 39.4775 17.2849 39.7321 17.3058C39.681 17.3977 39.739 17.4477 39.5505 17.5658C39.6018 17.5602 39.653 17.554 39.7041 17.5472C39.7081 17.5568 39.7121 17.5663 39.7163 17.5758C39.6706 17.5928 39.6251 17.6101 39.5796 17.6276C39.591 17.7109 39.8128 17.7305 39.8354 17.7837C39.8694 17.8783 39.9416 18.1478 39.9617 18.2714C39.9702 18.3378 40.0509 18.2714 39.9103 18.4364C39.9303 18.4368 39.9503 18.437 39.9702 18.4368C40.0106 18.4117 40.0507 18.3861 40.0904 18.3601C40.1386 18.4102 40.149 18.5219 40.2029 18.5679C40.3024 18.6546 40.5239 18.6526 40.5891 18.7838C40.6056 18.8174 40.5968 18.922 40.6269 18.9356C40.6707 18.9552 40.7481 18.8144 40.7994 18.8334C40.8833 18.8663 41.0035 19.1011 41.1073 19.1082C41.1367 19.1106 41.1622 19.0549 41.1822 19.0524C41.2664 19.0409 41.3336 19.0551 41.4166 18.97C41.4837 19.1297 41.4702 19.3267 41.4912 19.5282C41.5058 19.6804 41.5826 20.0321 41.598 20.1641C41.6076 20.2571 41.5717 20.3767 41.5847 20.479C41.4179 20.559 41.345 20.4632 41.2328 20.3071C40.9959 20.2873 40.7599 20.2422 40.5309 20.1722C40.5278 20.1123 40.5259 20.0525 40.525 19.993C40.525 19.9929 40.5251 19.9928 40.5251 19.9926C40.4656 19.9029 40.3804 20.0233 40.3221 20.0347C39.7351 20.1647 39.0571 19.3263 38.8391 18.8721C38.7784 18.7809 38.5321 18.4915 38.5868 18.3804C38.6 18.3524 38.6764 18.3122 38.6716 18.2921C38.5512 18.1464 38.4417 17.9858 38.3465 17.8122C38.371 17.5415 38.3236 17.2948 38.2951 17.0343C38.2804 16.8993 38.2712 16.7629 38.2809 16.6275C38.3467 15.5561 39.0027 14.5125 39.9755 14.0309C40.159 13.9368 40.3847 13.7753 40.5956 13.7572C40.6837 13.7495 40.7502 13.8742 40.8331 13.7491C40.8424 13.7852 40.8518 13.8213 40.8611 13.8574C40.9424 13.7933 40.9874 13.6982 41.0947 13.6735C41.1836 13.651 41.4273 13.6254 41.5078 13.6398C41.5499 13.646 41.5355 13.7159 41.5738 13.7152C41.5815 13.715 41.5901 13.7135 41.5996 13.7111C41.671 13.6924 41.7941 13.6216 41.8771 13.6285C41.9618 13.6345 42.0915 13.7318 42.1552 13.7311C42.385 13.726 42.6713 13.6788 42.8988 13.8027C42.9615 13.8368 43.0069 13.9554 43.0267 13.9619C43.0666 13.9743 43.1153 13.9004 43.1464 13.9028C43.3061 13.915 43.455 14.1215 43.5668 14.2045C43.94 14.472 44.3162 14.8036 44.5513 15.206C44.706 15.4527 44.9153 15.9021 44.9122 16.1802C44.9128 16.2394 44.8158 16.2477 44.8266 16.2929C44.8383 16.3429 44.9075 16.3574 44.9175 16.3805C44.9844 16.5235 45.077 16.8515 45.0335 17.0343C45.0295 17.0527 45.0244 17.0695 45.0181 17.0844C45.0049 17.1153 44.9289 17.1352 44.9285 17.153C44.9282 17.1621 44.9788 17.1847 44.9825 17.2143C45.0133 17.4753 44.9522 17.6642 44.8706 17.9031C44.7184 18.3563 44.5278 18.9121 44.1419 19.2593C44.0585 19.3351 43.8999 19.2815 43.891 19.2926C43.87 19.3174 43.925 19.4041 43.8912 19.469C43.7765 19.6877 43.4607 19.785 43.2992 19.9323C43.2196 20.007 43.1413 20.1891 43.0488 20.2598C42.9759 20.3184 42.7616 20.3443 42.7413 20.4083C42.729 20.4478 42.7511 20.5546 42.7261 20.5766ZM43.4925 17.853C43.6471 17.9326 43.5545 17.7835 43.4541 17.7817C43.432 17.7807 43.4528 17.832 43.4925 17.853ZM41.0848 14.7625C41.0963 14.8106 41.1077 14.8588 41.1191 14.9069C41.1281 14.8839 41.1377 14.8609 41.1474 14.838C41.1339 14.8104 41.1201 14.7828 41.106 14.7553C41.0989 14.7577 41.0919 14.7601 41.0848 14.7625Z" fill="#121212"/>
</svg>
