<svg width="160" height="181" viewBox="0 0 160 181" fill="none" xmlns="http://www.w3.org/2000/svg">
<path d="M78.9533 129.359C65.3768 188.19 21.6776 186.635 6.82841 164.714C5.70671 163.059 4.35354 160.354 4 159.058C7.67696 161.037 14.0173 157.997 16.7279 156.229C17.2936 135.864 41.7124 120.638 53.851 115.57L63.7505 109.206M78.9533 129.359L156.382 13.04C156.971 10.5651 157.866 4.90822 156.735 2.0798C155.604 -0.748629 94.274 72.3191 63.7505 109.206M78.9533 129.359C76.2427 124.999 68.1346 115.288 58.8008 112.742L63.7505 109.206M78.9533 129.359L81.7818 125.116C78.9534 117.762 68.5824 111.21 63.7505 109.206" stroke="#121212" stroke-width="4"/>
</svg>
