<svg width="44" height="44" viewBox="0 0 44 44" fill="none" xmlns="http://www.w3.org/2000/svg">
<g clip-path="url(#clip0_2086_34)">
<path d="M19.5854 39.1789C14.6435 39.5205 9.74696 16.4727 13.1092 13.11C16.4715 9.74718 39.5208 14.6403 39.1793 19.5822C38.9441 22.8188 33.466 24.099 33.6259 26.9754C33.6728 27.8179 34.737 28.5857 36.8654 30.1213C38.3444 31.1884 39.8524 32.2246 41.3061 33.3259C41.8864 33.7654 42.1154 34.5045 41.945 35.2012C41.1268 38.5474 38.5621 41.1233 35.2022 41.945C34.5055 42.1154 33.7665 41.8862 33.3271 41.3059C32.2261 39.852 31.19 38.3438 30.123 36.8646C28.5876 34.7359 27.8199 33.6716 26.9776 33.6247C24.1016 33.4648 22.8215 38.9436 19.5854 39.1789Z" fill="white" stroke="#141B34" stroke-width="3"/>
<path d="M16.0594 5V2M8 8L6 6M5 16.0595H2M8 24L6 26M26 6L24 8" stroke="#FF689B" stroke-width="3" stroke-linecap="round" stroke-linejoin="round"/>
</g>
<defs>
<clipPath id="clip0_2086_34">
<rect width="44" height="44" fill="white"/>
</clipPath>
</defs>
</svg>
