<svg width="47" height="46" viewBox="0 0 47 46" fill="none" xmlns="http://www.w3.org/2000/svg">
<path d="M22.5854 41.1789C17.6435 41.5205 12.747 18.4727 16.1092 15.11C19.4715 11.7472 42.5208 16.6403 42.1793 21.5822C41.9441 24.8188 36.466 26.099 36.6259 28.9754C36.6728 29.8179 37.737 30.5857 39.8654 32.1213C41.3444 33.1884 42.8524 34.2246 44.3061 35.3259C44.8864 35.7654 45.1154 36.5045 44.945 37.2012C44.1268 40.5474 41.5621 43.1233 38.2022 43.945C37.5055 44.1154 36.7665 43.8862 36.3271 43.3059C35.2261 41.852 34.19 40.3438 33.123 38.8646C31.5876 36.7359 30.8199 35.6716 29.9776 35.6247C27.1016 35.4648 25.8215 40.9436 22.5854 41.1789Z" fill="white"/>
<path d="M28.2688 39.1299C28.2089 39.2438 27.9949 39.306 27.8924 39.4254C27.459 39.9259 27.2292 40.0788 26.7553 40.5448C26.4032 40.8817 25.7154 41.6885 24.7212 42.1646C23.7268 42.6665 22.646 42.5375 22.6512 42.0837C22.6512 42.0837 22.6512 42.0837 22.6512 42.0836C22.6505 42.0748 22.6502 42.0659 22.6502 42.0568C22.6552 41.8868 22.9024 41.67 22.9007 41.4706C22.8992 41.2725 22.6949 40.0424 22.8415 39.9307C23.0482 39.8195 23.8949 39.642 24.0549 39.4565C24.1538 39.3569 24.203 39.1538 24.3174 39.0072C24.6853 38.5284 24.9613 38.3122 25.0913 37.653C25.3685 37.5657 25.6495 37.4709 25.933 37.3756C26.075 37.0721 26.567 36.812 26.6957 36.6493C26.8005 36.5148 26.7726 36.3525 26.8954 36.2134C27.0343 36.0569 27.3548 35.9249 27.6505 35.657C28.1481 35.2286 28.1171 34.8728 28.556 34.6333C28.9013 34.453 29.5064 34.4061 30.0432 34.4449C30.3002 34.4587 30.5469 34.5095 30.7614 34.561C30.8764 34.5658 30.9878 34.5769 31.0954 34.592C31.071 34.4843 31.0342 34.3732 30.989 34.2627C31.4404 34.4269 31.4751 34.6787 31.7182 34.8704C31.991 35.1007 32.2098 35.0986 32.3558 35.25C32.4727 35.3736 32.5185 35.6215 32.6501 35.7658C32.8401 35.9766 32.9467 35.8115 33.0679 35.9058C33.1269 35.9483 33.8471 36.7303 33.8766 36.7734C34.1436 37.1253 33.9553 37.306 34.1396 37.599C34.2162 37.7208 34.2971 37.8383 34.3835 37.9554C34.8707 38.6152 35.4735 39.191 35.9579 39.7569C36.2126 40.0544 36.4354 40.3926 36.627 40.7291C35.7353 40.6204 36.1081 42.0149 36.6495 41.001C36.7819 41.4343 37.1855 41.5138 37.3871 41.8639C37.4769 42.0198 37.5018 42.1769 37.5826 42.3551C37.5727 42.3745 37.5705 42.3923 37.5806 42.3999C37.7031 42.4564 37.6856 42.0489 37.8464 42.7705C37.867 42.7574 37.8868 42.7457 37.9062 42.7348C38.4848 42.5233 39.0498 42.4867 39.0105 41.8502C39.1431 41.753 39.7014 41.9092 39.902 41.8528C40.0988 41.8382 41.3755 41.1307 41.5406 40.9419C41.7239 40.7883 42.0226 40.4904 42.1089 40.2996C42.2268 40.0509 41.786 39.5364 42.6806 39.6311C42.92 39.16 43.0274 39.016 43.3303 38.6179C43.384 38.5452 43.4938 38.5858 43.5163 38.5379C43.5626 38.4388 43.5587 38.2357 43.6193 38.0534C43.7181 37.7557 44.0045 37.6581 43.6377 37.5736C43.6427 37.3592 43.6388 37.147 43.6268 36.9371C43.6501 36.9235 43.6735 36.9098 43.6968 36.896C43.7533 36.8888 43.8099 36.877 43.8661 36.8601C43.7955 36.7975 43.7174 36.7503 43.6367 36.7204C44.1958 36.7465 43.8035 36.4173 43.532 36.6329C43.5974 36.5389 43.6349 36.4122 43.5938 36.2664C43.5382 36.1968 43.4824 36.1274 43.4264 36.0581C43.8484 35.6001 42.68 35.4154 42.5532 35.7407C42.5123 35.7102 42.4714 35.6796 42.4304 35.6492C42.1653 35.2528 41.7517 35.1208 41.3678 34.7117C40.9831 34.3025 41.0594 34.2833 41.0872 33.9543C40.9717 33.8923 40.8561 33.8302 40.7405 33.768C39.7505 34.0016 40.5791 33.0189 39.3813 32.7922C39.3579 32.7877 39.3338 32.7834 39.3089 32.7795C39.2923 32.163 38.3944 31.8364 37.8038 31.5697C37.7345 31.5382 37.6773 31.6142 37.5801 31.5758C37.3446 31.4874 36.9349 30.981 36.7458 31.2177C36.6292 30.9948 36.5162 30.7649 36.4107 30.5126C36.2296 30.3912 36.0429 30.247 35.8588 30.0365C35.7762 30.0848 35.6937 30.1333 35.6112 30.1818C35.6046 29.857 35.4973 29.4611 35.4975 29.0382C35.5003 28.7098 35.5254 28.3923 35.6067 28.2023C35.6391 28.1303 35.7668 28.1387 35.8647 27.9355C35.9757 27.6965 36.1437 27.2593 36.3364 27.0494C36.2726 26.8791 36.2169 26.7036 36.1697 26.523C36.4309 26.0561 36.8387 26.2059 37.0431 26.039C37.0795 25.9973 37.6901 25.4109 37.7183 25.3848C37.9513 25.1069 37.6791 24.8978 38.5065 24.3366C38.6516 24.2386 38.8317 24.2415 38.9549 24.1489C39.1832 23.9835 39.6059 23.2808 39.4714 23.0718C39.9052 23.0931 40.2937 22.4744 40.4404 22.3787C40.492 22.3472 40.6621 22.4418 40.7843 22.308C40.8912 22.1938 40.8699 21.8327 40.9137 21.7021C40.9515 21.6049 41.0319 21.5535 41.0887 21.5029C41.1164 21.4954 41.1378 21.4826 41.1415 21.4683C41.1511 21.4251 41.02 21.4046 41.0088 21.3545C40.9857 21.1996 40.9844 20.8032 40.7862 20.5808C40.4831 20.2367 39.9021 20.2685 39.4838 20.1829C39.4137 20.1041 39.3769 19.9809 39.2904 19.924C38.1859 19.1928 36.6957 18.4714 35.3577 17.9013C34.743 17.6267 33.2578 16.6255 33.4408 17.5881C33.1823 17.6583 31.6187 16.8574 31.2931 16.7779C30.9764 16.6923 30.6863 16.7814 30.4345 16.7242C29.6754 16.5534 29.1599 16.3258 28.2032 16.2787C27.9571 16.2676 27.6652 16.4012 27.5238 16.374C27.3532 16.3406 27.1989 16.1336 26.9788 16.0856C26.45 15.9696 25.4511 15.8847 24.9449 15.795C24.8531 15.7779 24.839 15.6191 24.7122 15.5554C24.2052 15.3042 23.6213 15.2699 23.6807 15.7751C23.036 15.4336 22.4034 15.6526 21.8015 15.6494C20.5566 15.6034 18.1058 15.6815 17.6084 16.2134C17.4141 16.39 17.472 16.5235 17.5179 16.5185C17.5546 16.5133 17.5311 16.4881 17.3791 16.6355C17.2886 16.7312 17.1851 16.8397 17.0752 17.0429C16.8278 17.4765 16.3376 18.0465 16.7956 18.5401C16.6101 19.2225 16.6967 19.7878 16.2774 20.3321C16.3802 20.3956 16.4833 20.4587 16.5866 20.5215C16.591 20.6146 16.5957 20.6988 16.601 20.787C16.5046 20.8174 16.4083 20.8481 16.312 20.8792C16.3062 21.5309 16.7647 22.3272 16.8146 22.8685C16.88 23.7864 17.0734 26.1733 17.1238 27.0723C17.143 27.5478 17.3532 27.5311 16.9868 27.8812C17.0371 27.9792 17.0877 28.0771 17.1385 28.1746C17.2438 28.2202 17.3492 28.2654 17.4546 28.3102C17.5832 28.8985 17.6043 29.6314 17.7467 30.1883C18.0025 31.2112 18.6873 32.6429 18.8666 33.6747C18.9113 33.9383 18.8384 34.3108 18.9279 34.5467C19.0623 34.8991 19.3948 34.8734 19.5705 35.2962C19.8703 36.0416 20.1689 37.5412 20.5866 38.1441C20.7073 38.3257 20.8601 38.341 20.9471 38.4489C21.3324 38.924 21.6321 39.2941 22.0754 39.4205C22.2101 39.9041 21.9955 40.2102 22.0031 40.654C21.955 40.9894 22.4396 41.7774 22.6294 42.0095C22.7309 42.1918 22.4114 42.4427 22.5394 42.6436C20.8734 42.7158 20.4752 41.9539 20.0496 41.2281C18.9258 40.1328 18.2931 38.936 17.6926 37.731C17.741 37.5723 17.7906 37.4137 17.8413 37.2553C17.8415 37.2552 17.8417 37.2551 17.842 37.255C17.7557 36.7513 17.4101 36.6665 17.2426 36.4329C15.6011 34.2387 14.7722 29.1323 14.4335 26.3364C14.3376 25.7288 13.931 23.7827 14.0796 23.3318C14.1158 23.2187 14.2844 23.1722 14.2811 23.0576C14.0829 22.0327 13.9207 21.0195 13.8204 19.9487C14.1466 18.2021 13.7478 16.4233 15.3072 14.3081C15.7703 13.8267 16.3064 13.5676 16.766 13.3901C23.0822 11.8523 28.603 13.2479 34.1331 14.7606C35.1931 15.087 36.5777 15.429 37.5648 15.9285C37.9914 16.1435 38.0355 16.4606 38.6849 16.5338C38.6592 16.6041 38.6334 16.6744 38.6075 16.7446C39.122 16.8887 39.5136 16.8936 40.0523 17.1758C40.5268 17.4077 41.6874 18.1755 42.0649 18.5977C42.2496 18.7911 42.0707 18.8107 42.2579 19.0004C42.5494 19.287 43.3866 20.005 43.538 20.924C43.5775 21.1371 43.589 21.4015 43.5527 21.6771C43.4731 22.2701 43.181 22.8669 43.0533 23.1682C42.4109 24.711 41.293 25.8125 40.2558 26.566C39.9621 26.7731 39.5098 26.9021 39.4325 26.9728C39.2823 27.1091 39.3485 27.283 39.2653 27.3835C38.8148 27.8927 38.1247 28.4016 38.0871 28.6511C38.0613 28.7358 38.0516 28.8082 38.0552 28.8959C37.7753 28.6282 39.5921 30.2045 40.7201 30.9366C41.2302 31.3013 41.7402 31.6643 42.2405 32.0299C43.0241 32.6028 44.1766 33.4083 45.1637 34.1939C46.1275 34.929 46.4327 36.1217 46.3286 36.9093C46.2728 37.3249 46.1265 37.2775 46.0398 37.4689C46.0235 37.4959 46.0092 37.5302 45.9975 37.5762C45.9208 37.873 45.9942 38.0708 45.9602 38.2134C45.7862 39.2137 44.7629 41.2933 43.9759 41.9045C43.836 42.0272 43.6355 42.0226 43.5624 42.1015C43.5252 42.1411 43.5145 42.3025 43.3986 42.4329C42.3619 43.5696 41.3465 44.158 39.9559 44.7004C39.4898 44.8762 39.0024 45.0306 38.4981 45.155C37.4191 45.4402 36.0684 45.075 35.3119 44.0746C34.3259 42.8225 33.3772 41.5242 32.5555 40.2715C32.3662 39.9828 32.2951 39.6907 32.2573 39.489C32.2304 39.3523 32.2209 39.259 32.2012 39.2338C32.0909 39.0914 31.8629 39.1173 31.6128 38.8573C30.9509 38.11 29.7435 36.578 29.908 36.8753C29.8714 36.8774 29.8378 36.8829 29.8067 36.8913C29.5708 36.9478 29.3734 37.3302 29.1175 37.6347C28.9253 37.8369 28.2453 38.4745 28.2137 38.7008C28.1953 38.8308 28.3324 39.0062 28.2688 39.1299ZM37.5339 42.5712C37.3447 42.8742 37.7069 42.6964 37.6585 42.4851C37.6589 42.4432 37.5864 42.4986 37.5339 42.5712ZM37.9405 18.4911C37.9045 18.5836 37.8684 18.676 37.8322 18.7684C37.9435 18.776 38.0538 18.784 38.1631 18.7925C38.1385 18.7138 38.1129 18.6349 38.0864 18.5558C38.0381 18.5342 37.9895 18.5126 37.9405 18.4911Z" fill="#121212"/>
<path d="M19.5742 5.75V2M9.5 9.5L7 7M5.75 19.5744H2M9.5 29.5L7 32M32 7L29.5 9.5" stroke="#FF689B" stroke-width="4" stroke-linecap="round" stroke-linejoin="round"/>
</svg>
