<svg width="142" height="135" viewBox="0 0 142 135" fill="none" xmlns="http://www.w3.org/2000/svg">
<path d="M38.7386 85.2889C39.0707 85.2378 39.5314 85.4929 39.9216 85.5029C41.5463 85.5479 42.1483 85.7224 43.6192 85.8112C43.8768 85.827 44.1962 85.8352 44.5613 85.8404C47.243 85.879 52.2579 85.7573 52.2726 87.3451C52.2726 87.3451 52.2726 87.3452 52.2726 87.3452C52.2728 87.3629 52.2723 87.3808 52.2712 87.3989C52.2517 87.7424 51.7056 88.1222 51.6276 88.5113C51.5497 88.9004 51.6338 91.4075 50.8545 91.5556C49.7245 91.7517 47.0039 91.1336 46.4005 91.1676C45.9881 91.191 45.4821 91.4236 44.9549 91.4689C44.8369 91.4791 44.7229 91.4877 44.6122 91.4953C43.1268 91.5964 42.2534 91.4998 40.8332 92.0891C40.2213 91.7683 39.6013 91.4477 38.9862 91.1272C38.1903 91.286 36.971 90.8676 36.4864 90.8963C36.0944 90.9198 35.8524 91.1804 35.4432 91.1968C34.9761 91.2167 34.2556 90.946 33.4133 90.9979C32.0276 91.0822 31.7827 91.7591 30.958 91.8561C30.1012 91.9568 28.7439 91.6122 27.6625 91.8724C27.5277 91.9493 27.3863 92.0265 27.2531 92.1036C27.3542 92.2689 27.4568 92.4341 27.5608 92.5994C27.0093 92.6895 26.7718 92.3519 26.2647 92.3595C25.6768 92.3686 25.3879 92.7041 25.0033 92.7179C24.6993 92.7288 24.2453 92.4877 23.9158 92.5315C23.8357 92.4983 23.2717 92.8696 24.5823 92.4856C24.5701 92.6152 24.5938 92.7389 24.4911 92.8347C24.4048 92.8685 22.8547 94.1151 22.768 94.2234C22.0694 94.7764 21.6781 94.4397 21.0666 94.9063C20.0524 95.6948 19.157 96.7477 18.269 97.8264C17.6713 98.5514 17.0735 99.29 16.4354 99.9766C15.7271 100.74 14.8631 101.47 13.9341 102.094C14.4437 100.02 10.8785 101.471 13.224 102.283C12.4855 102.601 12.0345 103.085 11.4984 103.542C11.5877 103.536 11.3543 103.739 11.197 103.866L11.1872 103.873C11.0882 103.95 10.9721 104.029 10.8475 104.1C10.2209 104.451 9.6607 104.499 8.69764 105.07C8.05514 105.439 7.41734 105.914 6.46347 106.288C5.68699 106.592 3.53018 107.171 1.80726 105.307C0.624051 103.822 0.996182 103.422 0.929523 103.088C0.953173 102.776 1.01826 102.614 1.08781 102.473C1.23003 102.21 1.41042 102.09 1.62211 102.018C1.71045 101.018 1.92892 100.411 2.09562 99.8235C2.13316 99.7022 2.21871 99.3766 2.16349 99.5711L2.15925 99.5918C2.30245 98.6737 2.3101 97.9401 1.69197 97.3872C1.70816 97.152 1.92827 96.7977 2.18554 96.436C2.50192 95.9904 2.87281 95.5333 2.99579 95.2458C3.17737 94.8341 3.98373 92.2239 4.20506 90.9671C4.23488 90.8928 4.26829 90.5475 4.2763 90.447C4.32697 89.8114 4.38804 88.6211 4.29176 88.0522C4.17325 87.3277 2.84173 86.8061 4.45031 85.5733C4.36179 84.0946 4.41944 83.5675 4.6336 82.1967C4.67223 81.9485 4.90657 81.9255 4.90997 81.7801C4.91655 81.4795 4.75473 80.9664 4.7444 80.4312C4.72758 79.5501 5.22811 79.0578 4.47514 79.142C4.35964 78.5661 4.2436 77.9745 4.1261 77.4026C4.27415 77.1989 4.42205 76.9958 4.56968 76.8C4.41584 76.4809 4.2613 76.187 4.10647 75.8664C5.19229 76.2364 4.56371 74.0757 3.93597 74.7709C4.03559 74.3065 4.13403 73.76 4.21879 73.4369L4.21827 73.4258C4.30869 72.8492 4.39554 72.2642 4.48377 71.6735C4.49179 71.6213 4.49976 71.5683 4.50773 71.5153C5.74939 71.614 4.53275 69.0358 3.87235 69.2878C3.8673 69.1586 3.86227 69.0294 3.85726 68.9002C4.1332 67.7545 3.81776 66.7267 3.9821 65.3347C4.14763 63.9431 4.27441 64.068 4.82688 63.6274C4.78272 63.3035 4.73902 62.9795 4.69585 62.6551C3.08744 60.9908 5.78195 61.2225 4.53486 58.3202C5.11835 57.7447 5.15196 56.6813 5.03053 55.5877C4.95081 54.8721 4.80491 54.144 4.69495 53.5368C4.66268 53.3582 4.47259 53.3527 4.41733 53.1142C4.2832 52.5303 4.55967 51.0556 3.94626 51.0918C4.13573 50.5829 4.32675 50.0756 4.51898 49.5697C4.41971 49.1487 4.32128 48.7275 4.2235 48.3064C4.03213 48.3022 3.84075 48.2981 3.64938 48.2939C4.32851 47.4735 4.12588 46.1472 4.30632 45.5034C4.34277 45.3754 4.60764 45.3573 4.69482 44.9587C4.75483 44.6879 4.76488 44.2783 4.78318 43.8739C4.79625 43.5832 4.81359 43.2946 4.85693 43.0623C4.57286 42.8344 4.28875 42.6066 4.00458 42.3791C3.88319 41.3772 4.66705 41.0559 4.74745 40.4734C4.76257 40.368 4.76933 38.4492 4.75458 38.3461C4.64623 37.4985 3.99122 37.7169 4.17933 35.292C4.21216 34.8604 4.44456 34.5141 4.45802 34.1235C4.47096 33.7582 4.33644 33.0024 4.13109 32.352C3.94893 31.7914 3.70675 31.305 3.48127 31.2338C3.8053 30.7765 3.85497 29.8867 3.8598 29.0535C3.86281 28.3929 3.83997 27.7647 3.91021 27.4579C3.95898 27.2499 4.33639 27.1962 4.40799 26.5571C4.46381 26.043 4.16228 24.6858 4.24493 23.9985C4.32986 23.2734 4.67057 23.0325 4.71737 22.7099C4.763 22.4042 4.5317 22.0943 4.58327 21.6658C4.74998 20.3216 5.41997 19.1843 5.75356 18.159C6.23096 16.6825 6.18421 15.0543 6.72168 13.6534C6.96454 13.3838 7.29949 13.2021 7.52826 12.9122C8.12176 12.1622 8.79934 11.4588 9.52976 10.8221C12.0771 8.5562 15.4574 6.71752 18.6902 5.93164C20.6302 5.3241 25.3134 5.90052 23.9153 4.31496C24.585 3.88775 29.2299 4.41457 30.0381 4.44096C30.4193 4.44059 30.7585 4.37697 31.0813 4.30547C31.4754 4.21746 31.8382 4.1178 32.1987 4.11049C33.6633 4.08021 34.7899 4.17949 36.2215 4.0629C36.7323 4.02178 37.2793 3.95762 37.8907 3.85602C38.5068 3.75288 39.1501 3.34894 39.5169 3.33213C39.9589 3.3128 40.4556 3.63946 41.0304 3.62706C42.3998 3.59631 44.941 3.30938 46.259 3.27659C46.4997 3.27159 46.606 3.57676 46.9563 3.64944C48.3204 3.93389 49.8191 3.78853 49.4795 2.81531C51.2359 3.25144 52.785 2.61533 54.3746 2.46146C54.5757 2.44212 54.7869 2.42308 55.0066 2.40423C55.4383 2.36709 55.9045 2.33064 56.3944 2.29413C59.9322 2.01534 64.6135 2.01555 67.0553 1.65882C68.6066 1.42961 68.8412 1.08623 70.4349 1.19187C70.5822 1.2018 70.7413 1.21562 70.9142 1.23381C71.1303 1.25642 71.3642 1.28573 71.6221 1.32237C72.2233 1.4076 72.8171 1.52218 73.5333 1.61723C75.2004 1.84262 76.7642 2.6083 77.9182 1.52122C77.958 1.52391 77.9976 1.52635 78.0371 1.52855L78.0518 1.52742C79.9454 1.62033 81.4462 1.37154 82.8952 2.1251C83.0532 1.91228 83.2117 1.69962 83.3706 1.48712C83.608 1.46969 83.8454 1.45263 84.0828 1.43593C84.1665 1.62656 84.25 1.81723 84.3333 2.00794C84.647 2.00252 84.9749 1.96806 85.3103 1.91542L85.2973 1.91602C86.3923 1.73739 87.5577 1.352 88.5488 1.14052C88.8799 1.06968 89.193 1.01747 89.4819 1.00067C89.8012 0.982034 90.1937 0.963421 90.6437 0.946666C93.4281 0.795176 98.6195 0.898831 100.756 1.43318C102.051 1.71895 102.207 1.33813 102.807 2.31233C103.11 2.30854 103.413 2.3106 103.723 2.32053C103.949 2.18029 104.179 2.0433 104.417 1.91112C106.167 2.34 108.131 3.47952 109.605 4.55605C111.376 5.74588 113.492 7.97074 114.477 10.4071C115.157 12.2275 115.166 13.2759 115.196 14.348C115.193 15.0785 114.883 15.9835 114.937 16.6657C115.011 17.6488 115.667 17.8484 115.741 19.0984C115.873 21.2519 115.207 25.2212 115.277 27.2156C115.299 27.8049 115.54 28.0852 115.568 28.4933C115.687 30.2101 115.666 31.6197 116.029 33.2669C115.405 35.0303 114.61 34.8739 113.806 35.4112C113.198 35.8217 111.786 37.0708 111.254 37.2463C110.881 37.3687 110.407 36.892 109.996 37.0648C109.69 34.9629 110.055 34.0892 110.637 32.3876C110.622 29.2402 110.583 26.1097 110.482 22.9797C110.699 22.6907 110.914 22.4021 111.129 22.1084C111.13 22.1084 111.13 22.1084 111.131 22.1084C111.352 20.8992 110.755 20.4096 110.597 19.7753C110.061 17.7902 109.751 14.3253 109.183 12.5246C107.798 8.06273 101.782 6.32835 97.4742 6.29577C96.2837 6.21998 92.7121 6.60447 91.0021 6.56991C90.7068 6.56062 90.4731 6.53658 90.3202 6.49294C90.05 6.4154 89.9546 6.07625 89.6711 6.07879C89.3917 6.11884 89.1105 6.15837 88.8269 6.1965C87.7256 6.34789 86.6241 6.49161 85.5277 6.63531L85.5175 6.63578C84.4056 6.77676 83.2955 6.92586 82.1872 7.08304C80.954 7.02631 79.7127 7.03665 78.4689 7.09547C75.9173 7.23129 73.3811 7.30833 70.9128 7.3908C70.7544 7.39624 70.5946 7.40171 70.4349 7.40716C69.08 7.45354 67.7333 7.50275 66.3997 7.53817C63.1771 7.62345 59.9878 7.77407 56.8397 8.06898C56.3776 8.1121 55.9152 8.1552 55.4529 8.19823C49.1412 8.78394 42.8294 9.35821 36.494 9.70034C34.6825 9.80001 32.8919 9.82791 31.1459 9.85045C28.9774 9.87873 26.8753 9.89599 24.8741 10.0628C22.3665 10.2422 19.5688 11.1566 17.5248 12.0241C16.6711 12.3801 16.0207 12.0988 15.1977 13.1515C15.102 13.0364 15.0064 12.9213 14.9103 12.8065C14.1943 13.5015 13.8463 14.1389 13.1674 14.8657C13.076 14.9653 12.9821 15.0647 12.8829 15.1662C12.1368 15.8149 10.7926 17.8365 10.49 18.6219C10.3029 19.0101 10.1002 18.7606 9.9612 19.1534C9.70984 19.8328 9.74591 21.432 9.65335 22.4752C9.54006 23.405 9.17501 25.0913 9.23157 25.8947C9.28984 26.8495 9.40829 27.8503 9.52935 28.8925C9.65567 30.0022 9.78749 31.156 9.84431 32.352C9.89412 33.3697 9.9029 34.3892 9.84584 35.3975C9.79507 36.2918 9.40491 37.4281 9.40723 37.7063C9.41347 38.2505 9.75927 38.4226 9.79342 38.7892C9.92984 40.2602 9.62986 42.3546 9.45527 44.0519C9.40866 44.5055 9.37117 44.9305 9.35338 45.3087C9.19415 48.6918 9.11288 52.167 9.13833 55.5877C9.15664 58.0921 9.22556 60.5934 9.28263 63.0396C9.33338 65.3022 9.49403 68.4999 9.58722 71.4307C9.6055 72.0228 9.62263 72.6107 9.63243 73.1835L9.63187 73.1716C9.63995 74.5564 9.56498 75.4974 9.49156 76.4032C9.4252 77.1559 9.04351 76.9365 9.03439 77.5647C9.02401 78.2536 9.27702 78.6286 9.29233 78.9522C9.40287 81.1804 9.54882 86.0918 9.21367 88.1909C9.14992 88.5954 8.83957 88.8632 8.83196 89.1151C8.82784 89.2333 9.02339 89.528 9.03 89.8998C9.03223 90.4475 9.05516 90.7742 9.00193 91.5342C8.79235 93.8459 8.30747 95.6988 7.79796 97.7137C7.67045 98.2154 7.53992 98.7278 7.41112 99.2579C7.30453 99.6972 7.2034 100.138 7.11033 100.581L7.10619 100.601C6.98033 101.112 6.96257 101.106 6.90242 101.31C6.77803 101.702 6.66577 102.071 6.58244 102.402C6.54152 102.564 6.50811 102.721 6.49561 102.808C6.48911 102.847 6.4903 102.876 6.49384 102.805C6.37877 102.663 6.91005 102.777 5.83278 101.282C4.77318 100.451 4.52283 100.905 4.73982 100.768C4.91198 100.715 5.24287 100.567 5.57395 100.382C6.25416 100.005 6.98382 99.4995 7.75984 98.9397C7.95211 98.8038 8.06637 98.7072 8.45032 98.4642C10.3887 97.258 12.2005 95.4389 14.1125 93.6255C14.3889 93.3634 14.6687 93.1005 14.9519 92.8392C16.0315 91.8387 17.2144 91.5718 17.3652 91.4295C17.7063 91.111 17.6576 90.6073 18.3572 89.9092C19.2895 88.9894 20.5545 88.0729 22.0251 87.3632C23.3876 86.8768 22.9808 87.1243 23.3011 87.0476C23.4703 87.0337 23.6202 87.0256 23.7723 87.0184C24.0591 87.0055 24.3378 86.9984 24.6097 86.993C25.1497 86.9827 25.6811 86.979 26.1854 86.9729C27.2163 86.9605 28.1685 86.9388 29.0289 86.8634C30.4419 86.7395 32.3717 86.2055 33.7493 86.0771C34.852 85.9738 37.4699 86.1469 37.9534 85.919C38.2554 85.7812 38.3807 85.3466 38.7386 85.2889ZM7.4242 105.357C7.38598 104.99 6.86623 105.219 6.31636 105.503C5.78367 105.791 5.06765 106.126 5.90445 106.162C6.33693 106.182 7.47778 105.548 7.4242 105.357ZM12.4769 9.96112C12.345 9.81222 12.2126 9.66364 12.0798 9.5154C11.8836 9.75881 11.7017 9.99855 11.5188 10.2454C11.7228 10.2373 11.9251 10.2326 12.1255 10.2313C12.2395 10.1419 12.3596 10.0496 12.4769 9.96112Z" fill="#121212"/>
<path d="M134.561 114.421C134.514 114.038 134.774 113.499 134.787 113.044C134.84 111.144 135.009 110.433 135.085 108.699C135.194 106.15 134.694 98.3988 136.529 98.3764C136.529 98.3764 136.529 98.3764 136.529 98.3764C136.547 98.3764 136.565 98.3772 136.583 98.3786C136.926 98.4004 137.303 99.0671 137.692 99.1579C138.082 99.2506 140.587 99.1644 140.738 100.076C140.937 101.404 140.362 104.637 140.405 105.357C140.435 105.847 140.675 106.449 140.727 107.077C140.894 109.105 140.744 110.169 141.376 112.005C141.055 112.743 140.73 113.481 140.402 114.215C140.552 115.176 140.102 116.63 140.112 117.214C140.121 117.693 140.372 117.983 140.369 118.485C140.366 119.049 140.058 119.902 140.042 120.932C140.009 122.618 140.645 122.982 140.627 124.029C140.612 124.614 140.438 125.364 140.255 126.155C140.173 126.356 140.137 127.152 140.228 127.762C140.296 127.938 140.363 128.118 140.429 128.303C140.602 128.181 140.775 128.057 140.947 127.937C140.994 128.668 140.638 128.981 140.539 129.744C140.399 130.661 140.603 131.299 140.201 132.218C139.925 132.803 139.201 133.782 137.866 134.393C136.725 134.906 136.028 134.698 135.64 134.643C133.488 133.919 134.15 134.43 133.446 134.135C133.042 133.984 130.434 131.937 130.347 131.815C129.362 130.881 129.646 130.423 128.964 129.665C128.943 129.641 128.908 129.603 128.894 129.586L128.902 129.595C126.588 127.069 124.845 124.654 123.386 122.497C122.738 121.518 122.175 120.473 121.677 119.487C123.718 120.316 122.574 116.449 121.572 118.772C121.181 117.581 120.253 117.186 119.7 116.284C119.34 115.708 119.271 115.148 118.636 114.487C117.829 113.652 116.772 113.399 116.374 112.921C116.613 112.902 116.541 112.612 116.539 112.169C115.182 112.227 112.893 112.154 112.428 113.555C111.902 113.732 110.284 113.29 109.6 113.341C109.134 113.353 106.955 113.782 104.763 113.949C103.917 113.978 103.218 114.003 102.956 114.021C102.147 114.078 100.732 114.182 100.06 114.351C99.2186 114.561 98.7156 115.955 97.0739 114.495C95.309 114.746 94.6714 114.74 93.0096 114.649C92.7087 114.632 92.6627 114.4 92.4881 114.409C92.1285 114.427 91.525 114.63 90.8827 114.68C89.8261 114.76 89.2049 114.288 89.3501 115.035C88.6561 115.187 87.9606 115.335 87.2633 115.479C87.0138 115.34 86.7648 115.201 86.5164 115.062C86.146 115.228 85.7747 115.393 85.4023 115.557C85.8242 114.466 83.2025 115.137 84.0618 115.752C82.6983 115.539 81.3386 115.31 79.9838 115.065C80.1929 113.839 77.0125 114.856 77.2508 115.529C77.0947 115.523 76.9387 115.517 76.7826 115.51C75.4301 115.132 74.1642 115.342 72.5136 115.014C70.8672 114.68 71.032 114.565 70.5756 113.959C70.1841 113.96 69.7928 113.959 69.4018 113.956C68.8987 114.271 68.5413 114.37 68.2486 114.348C67.2148 114.244 67.0164 112.907 64.1146 113.242C63.1904 112.055 60.3865 111.786 58.4828 111.145C58.2633 111.075 58.1745 111.244 57.8727 111.153C57.1177 110.953 55.6235 109.646 55.3195 110.155C54.8562 109.589 54.4323 108.993 54.0628 108.371C53.5791 108.043 53.1081 107.675 52.6592 107.263C52.508 107.381 52.3569 107.498 52.2058 107.616C52.2038 107.604 52.2017 107.592 52.1995 107.58C51.807 106.057 50.9957 104.44 50.9214 103.532C50.9081 103.355 51.1475 103.25 51.0991 102.717C51.0405 102.095 50.783 101.001 50.7894 100.291C50.4671 100.049 50.1486 99.8079 49.8322 99.5543C49.5659 98.2863 50.328 97.8123 50.3596 97.0889C50.3547 96.9547 50.2696 94.6022 50.2612 94.4803C50.1357 93.4582 49.4715 93.7117 49.6573 90.799C49.69 90.2834 49.922 89.876 49.9327 89.415C49.9508 88.8153 49.6503 87.3224 49.2412 86.7044C49.0974 86.4177 48.9549 86.2247 48.8282 86.1845C49.3321 85.1237 48.8719 82.4248 48.9927 81.6044C49.0292 81.3579 49.4035 81.2772 49.4367 80.5263C49.4626 79.9188 49.0731 78.3721 49.0943 77.5952C49.1162 76.7718 49.4278 76.4682 49.4394 76.1005C49.4506 75.7532 49.1847 75.4391 49.1776 74.9637C49.1603 73.4788 49.5854 72.1368 49.6245 70.968C49.6619 69.8634 49.3888 68.8285 49.1353 67.8271C48.9997 67.3086 48.8665 66.7969 48.7859 66.299C48.8616 65.9536 49.052 65.6228 49.0838 65.2559C49.4805 60.7243 50.291 55.5471 51.8289 51.0357C52.3957 48.8622 55.8826 44.3372 53.6962 44.8504C53.7093 44.7649 53.7554 44.6401 53.8302 44.4848C54.3651 42.7504 58.8428 39.3712 59.8228 39.103C60.8361 38.5263 61.5311 37.8736 62.3498 37.53C64.204 36.7706 65.651 36.487 67.4003 35.9272C68.4541 35.6406 68.9465 35.5804 69.775 35.4112C70.5373 35.2568 71.3268 34.8228 71.8083 34.7891C72.3184 34.7548 72.9833 35.0629 73.6513 35.0419C75.3207 34.9796 78.4004 34.7094 79.9819 34.7056C80.272 34.7052 80.3896 35.0123 80.8102 35.0925C82.4211 35.4068 84.2246 35.3114 83.871 34.3273C85.9474 34.8198 87.84 34.2468 89.7454 34.1643C93.7784 33.9846 101.127 34.0939 104.646 33.6694C106.874 33.4013 106.825 32.9428 110.121 33.3632C110.858 33.4593 111.603 33.5878 112.495 33.7194C113.105 33.8066 113.701 33.9435 114.273 34.092C115.619 34.4706 116.915 34.7886 118.12 34.1623C120.412 34.5996 122.341 34.6228 123.97 35.7264C124.207 35.5556 124.445 35.3863 124.687 35.2187C124.98 35.261 125.275 35.3059 125.57 35.3536C125.627 35.5615 125.683 35.7695 125.738 35.9776C127.789 36.3951 130.695 36.3448 132.56 37.1747C133.719 37.6889 135.664 38.6364 137.447 40.5056C139.278 43.0997 138.636 43.295 138.959 44.3514C139.091 45.2403 139.161 46.0141 139.223 46.81C139.33 48.2982 139.364 49.6309 139.357 50.4671C139.341 51.9232 139.76 51.9842 138.967 52.8614C139.05 53.1789 139.133 53.5017 139.215 53.8294C139.416 54.0198 139.616 54.1995 139.816 54.3875C139.948 56.2586 139.775 58.4347 139.864 60.2012C140.03 63.4062 140.724 68.1693 140.484 71.3897C140.424 72.1948 140.068 73.212 140.095 73.9981C140.134 75.1373 140.784 75.4052 140.835 76.8543C140.923 79.3635 140.284 84.0261 140.391 86.3893C140.422 87.0905 140.668 87.429 140.703 87.9058C140.856 89.9508 140.868 91.5717 141.279 93.5293C140.711 95.6366 139.915 95.4968 139.13 96.1315C138.539 96.6815 137.182 98.1477 136.684 98.4891C136.324 98.6885 135.806 98.0902 135.412 98.3546C134.974 95.6646 135.337 94.6873 135.864 92.629C135.763 88.8835 135.665 85.1066 135.553 81.3704C135.768 81.0248 135.984 80.6766 136.199 80.3261C136.199 80.326 136.2 80.326 136.2 80.326C136.423 78.8838 135.832 78.2851 135.681 77.509C134.226 70.1344 134.81 55.4123 133.976 47.4917C133.926 47.0431 133.834 46.4331 133.68 45.661C133.664 45.173 132.927 43.5205 133.5 44.4534C132.554 43.5262 131.236 42.8515 130.84 42.4686C130.634 42.2683 130.7 41.9204 130.428 41.7885C127.843 40.9344 124.996 40.5975 122.128 40.427C119.495 39.8376 116.723 39.6287 113.861 39.4503C110.665 39.3037 107.171 39.4921 103.842 39.5468C97.8671 39.6667 91.9301 39.8771 86.0066 40.1393C80.2512 40.4313 73.6333 40.6375 68.9488 41.3563C64.4556 42.612 60.7944 44.0564 58.9922 47.2936C58.9721 47.3275 58.952 47.3618 58.932 47.3967C57.5413 49.7559 56.6974 53.3714 55.9628 56.1743C55.65 57.3639 55.0053 57.785 55.1602 59.4761C55.0102 59.4709 54.8602 59.4658 54.7102 59.4608C54.6769 60.9178 54.8989 61.8747 54.7646 63.4916C54.6811 64.4652 54.5168 66.5854 54.402 68.1779C54.3554 68.8023 54.3186 69.3406 54.2867 69.6834C54.2316 70.3028 53.9624 70.0602 53.9436 70.6421C53.9095 71.6404 54.2764 73.7727 54.311 75.1491C54.3313 76.3949 54.1056 78.5266 54.2122 79.4954C54.4372 81.6313 54.837 83.88 55.1636 86.1764C55.3851 87.8856 55.3882 89.4018 55.3241 90.8883C55.2721 91.9508 54.8907 93.2701 54.8992 93.5936C54.9148 94.2222 55.2656 94.4098 55.311 94.8258C55.5252 96.9379 55.2656 100.153 55.6927 101.861C55.9132 102.85 56.2665 103.74 56.6526 104.241C58.9445 107.321 64.0839 108.813 68.7515 109.291C69.3171 109.35 69.8798 109.406 70.4384 109.459C74.707 109.907 81.8719 110.003 85.8746 110.157C86.7376 110.197 86.5167 110.586 87.2423 110.568C88.0472 110.546 88.4744 110.271 88.849 110.237C91.4455 110.02 97.158 109.402 99.6317 109.446C100.103 109.458 100.469 109.728 100.748 109.703C100.89 109.691 101.192 109.458 101.635 109.397C102.564 109.268 103.435 109.157 104.273 109.059C106.381 108.713 108.98 108.017 112.029 107.54C113.973 107.378 115.543 106.58 118.937 107.792C125.828 111.767 127.867 118.608 131.006 123.178C131.841 124.494 132.066 125.603 132.218 125.758C132.311 125.852 132.419 125.91 132.539 125.957C132.901 126.143 133.316 126.255 133.885 126.723C134.51 127.236 135.157 127.812 135.802 128.361C136.12 128.631 136.448 128.902 136.725 129.106C136.86 129.206 136.994 129.293 137.032 129.316C136.937 129.454 137.45 128.89 135.394 129.451C134.475 130.326 135.302 129.475 135.245 128.648C135.337 127.758 135.28 126.909 135.343 125.652C135.349 125.566 135.36 125.453 135.373 125.344C135.504 123.85 135.193 121.731 135.158 120.203C135.143 118.95 135.402 115.923 135.177 115.348C135.045 114.999 134.613 114.836 134.561 114.421ZM118.18 113.585C118.781 113.14 116.898 112.462 117.26 113.184C117.33 113.322 118.023 113.676 118.18 113.585ZM50.9611 59.3302C50.7619 59.3245 50.5627 59.319 50.3635 59.3137C50.3978 59.6544 50.4346 59.9915 50.4732 60.3303C50.6153 60.1616 50.7579 59.9944 50.9011 59.8278C50.9205 59.6621 50.9406 59.4959 50.9611 59.3302Z" fill="#121212"/>
<path d="M76.8691 73.1593C71.012 72.4625 69.202 83.9777 74.3502 85.4493C81.5303 87.4997 83.5532 73.1593 76.8691 73.1593Z" fill="#121212"/>
<path d="M92.4972 73.1626C87.4547 73.1626 88.5526 82.5218 91.5172 84.6656C96.0008 87.866 99.0373 82.5815 97.9532 78.6247C96.4556 73.1626 95.6853 73.1626 92.4972 73.1626Z" fill="#121212"/>
<path d="M114.28 73.2604C110.215 68.9008 103.439 81.1694 107.464 85.2426C110.04 87.8458 112.824 85.7434 114.28 83.3821C116.292 80.1113 117.254 76.2326 114.28 73.2604Z" fill="#121212"/>
</svg>
