<svg width="43" height="49" viewBox="0 0 43 49" fill="none" xmlns="http://www.w3.org/2000/svg">
<path d="M34.8945 4.38005C34.915 4.48107 34.8204 4.62533 34.8166 4.74343C34.7987 5.23837 34.7289 5.41866 34.6846 5.85577C34.6177 6.51277 34.6952 8.37181 34.0249 8.36043C34.0249 8.36043 34.0249 8.36043 34.0249 8.36043C34.0183 8.36034 34.0116 8.36007 34.0048 8.35961C33.8761 8.35128 33.738 8.19046 33.5928 8.16408C33.4477 8.1379 32.5068 8.14023 32.4584 7.90907C32.3949 7.5731 32.6569 6.78768 32.6503 6.61301C32.6459 6.49305 32.5639 6.34401 32.5519 6.19156C32.5129 5.70088 32.5789 5.44506 32.3458 5.01213C32.4675 4.83881 32.5878 4.66432 32.7063 4.48785C32.6816 4.39795 32.6907 4.28902 32.7091 4.18145C32.7377 4.03724 32.7795 3.89384 32.7646 3.82229C32.7442 3.72465 32.6395 3.68491 32.6156 3.59276C32.5881 3.4905 32.6479 3.30037 32.557 3.1303C32.4011 2.85773 32.1543 2.97277 32.0444 2.88592C31.9336 2.80231 31.8269 2.53987 31.5822 2.5225C31.5458 2.5357 31.5094 2.54958 31.4743 2.56458C31.4666 2.62972 31.4571 2.6944 31.4456 2.7584C31.3492 2.74625 31.3556 2.6107 31.2597 2.57591C31.1451 2.53613 31.0525 2.6397 30.9726 2.6212C30.9073 2.60618 30.828 2.49204 30.7307 2.48493C30.7112 2.48341 30.6944 2.48494 30.6799 2.48869C30.5686 2.50982 30.5729 2.61947 30.4885 2.63216C30.4493 2.63637 29.7423 2.63541 29.7029 2.63385C29.4028 2.60884 29.3952 2.41414 29.1562 2.37513C28.4928 2.26847 27.7952 2.37839 27.1768 2.40884C27.038 2.41563 26.8967 2.41344 26.7557 2.40472C26.6147 2.39604 26.474 2.38073 26.3364 2.36106C26.7913 1.87994 25.8291 1.46564 26.1711 2.25045C25.8645 2.13164 25.6404 2.33581 25.3481 2.29545C25.159 2.26932 25.029 2.15998 24.7575 2.16032C24.275 2.16145 23.7507 2.46876 23.6085 1.91808C23.0422 2.0186 22.546 1.82793 22.3518 2.31907C22.2068 2.35161 21.8254 2.07062 21.6597 2.03601C21.5039 2.00138 20.3054 1.91257 20.1092 1.91538C19.9134 1.91628 19.5706 1.92407 19.408 1.97485C19.2032 2.03781 19.0861 2.54917 18.6864 1.97928C18.2606 2.05043 18.1073 2.04247 17.7044 1.99808C17.6314 1.9901 17.6179 1.9031 17.5757 1.90563C17.4887 1.91099 17.3449 1.98488 17.1903 2.00272C16.9361 2.03201 16.7782 1.85776 16.8253 2.137C16.6603 2.19528 16.4954 2.2538 16.3307 2.31253C16.268 2.26234 16.2052 2.21219 16.1424 2.16206C16.0567 2.22747 15.971 2.29293 15.8853 2.35845C15.962 1.94406 15.346 2.22977 15.5686 2.44825C15.2367 2.38781 14.9044 2.3281 14.5716 2.26897C14.5818 1.80322 13.8506 2.27118 13.9348 2.51748C13.8975 2.52005 13.8601 2.52263 13.8228 2.52521C13.4862 2.42824 13.1939 2.5527 12.7885 2.50266C12.3831 2.4527 12.4168 2.40476 12.278 2.20224C12.1851 2.2221 12.0922 2.24198 11.9993 2.26187C11.5545 2.88484 11.5585 1.86936 10.7511 2.38598C10.451 2.04231 9.80184 2.28958 9.3695 2.43654C9.3192 2.45362 9.32412 2.52474 9.25749 2.55222C9.09452 2.61858 8.66021 2.56166 8.6932 2.78966C8.54 2.73522 8.38683 2.6807 8.23372 2.6261C8.18806 2.64601 8.14239 2.66591 8.09671 2.68581C8.03497 2.71647 7.97175 2.74839 7.90839 2.78124C7.91696 2.85251 7.92551 2.92378 7.93405 2.99505C7.69454 2.77432 7.3421 2.92658 7.14752 2.90032C7.10865 2.8948 7.08473 2.79845 6.96419 2.79124C6.92309 2.78864 6.8727 2.79285 6.81735 2.79994C6.69842 2.81429 6.56149 2.85062 6.4575 2.85317C6.4287 2.9728 6.4045 3.09235 6.38423 3.21179C6.17899 3.33226 6.00888 3.08942 5.86394 3.12288C5.83354 3.12302 5.42659 3.34885 5.41389 3.3728C5.27116 3.52739 5.43598 3.67363 5.00562 3.98679C4.93052 4.04576 4.81398 4.04466 4.75116 4.11082C4.62999 4.2244 4.52053 4.73942 4.66727 4.85724C4.37342 4.89943 4.23774 5.44039 4.13197 5.57537C4.11314 5.59728 4.06373 5.59714 4.00998 5.6152L4.00588 5.6275C3.95939 5.64497 3.90922 5.67625 3.87093 5.74725C3.80212 5.87329 3.8015 6.25276 3.73336 6.41745C3.65977 6.59236 3.52648 6.62485 3.49515 6.70465C3.46581 6.78017 3.5393 6.87721 3.51054 6.98245C3.41939 7.3102 3.19594 7.57513 3.13413 7.84038C3.04442 8.22431 3.26034 8.61952 3.33159 8.95735C3.29986 9.03304 3.22639 9.10086 3.21261 9.18402C3.08201 9.95806 2.96263 10.8121 2.8879 11.6367L2.88834 11.6239C2.86693 11.906 2.84452 12.184 2.82172 12.4537C2.77939 12.9619 2.35295 14.2161 3.01113 13.8978C3.11964 14.0783 2.81769 15.3576 2.80509 15.6023C2.79298 15.847 2.90248 16.0451 2.89745 16.2377C2.88201 16.8191 2.7834 17.225 2.85643 17.9367C2.87558 18.1206 3.00514 18.3222 2.99902 18.4305C2.99134 18.5609 2.85233 18.6957 2.83658 18.8643C2.80034 19.2662 2.80945 20.0192 2.76706 20.4047C2.75908 20.4751 2.64103 20.4941 2.59946 20.5932C2.43718 20.9789 2.42578 21.4195 2.80286 21.3617C2.56408 21.8543 2.73043 22.3312 2.71377 22.7996C2.69353 23.3598 2.61825 24.1777 2.56884 24.9403C2.53186 25.5138 2.51988 26.0565 2.56631 26.4276C2.63456 26.9668 2.80157 26.9609 2.61851 27.7392C2.57814 27.9121 2.52693 28.0839 2.47946 28.2942C2.36788 28.7866 2.04145 29.233 2.40091 29.6258C2.28515 30.1756 2.34086 30.6183 2.01098 31.0212C2.0529 31.0494 2.09483 31.0777 2.13676 31.1058C2.17 31.128 2.20324 31.1503 2.23648 31.1726C2.23661 31.2405 2.23677 31.3084 2.23698 31.3764C2.16354 31.3957 2.0901 31.4151 2.01667 31.4345C1.98493 31.9212 2.27283 32.5439 2.2649 32.9544C2.24831 33.6433 2.12687 35.4155 2.03898 36.0697C1.99063 36.4172 2.14739 36.4332 1.82932 36.6368C1.85289 36.7141 1.87654 36.7914 1.90029 36.8686C1.97147 36.9159 2.04268 36.963 2.11393 37.0101C2.11551 37.0716 2.11505 37.1346 2.11311 37.1988C2.09866 37.5486 2.05801 37.9312 2.12343 38.2224C2.25008 38.8766 2.81779 39.4586 3.20154 39.8886C3.22486 39.917 3.24631 39.952 3.26869 39.9904C3.33024 40.1031 3.39919 40.2434 3.49747 40.2955C3.69091 40.3941 3.83241 40.1966 4.07416 40.2767C4.32055 40.3579 4.72065 40.5371 5.16712 40.6424C5.51215 40.7206 5.84028 40.786 6.07756 40.7935C6.2486 40.7991 6.33425 40.7151 6.45278 40.7135C6.94978 40.7057 7.3559 40.7392 7.84061 40.6319C8.33685 40.8951 8.27355 41.1893 8.41232 41.4993C8.51773 41.7333 8.85091 42.2817 8.8898 42.4833C8.91718 42.6249 8.76854 42.7948 8.80969 42.9514C8.19139 43.0334 7.94329 42.8824 7.46005 42.6347C6.65202 42.5899 5.84158 42.5445 5.02889 42.4914C4.90693 42.4833 4.78382 42.4729 4.65956 42.4593C4.57567 42.365 4.4941 42.2693 4.41571 42.1721C4.41574 42.1719 4.41577 42.1718 4.4158 42.1716C4.04917 42.0136 3.83935 42.1781 3.60633 42.1617C3.15865 42.1285 2.60307 41.9624 2.07628 41.6194C0.681525 40.8357 -0.0556647 38.7035 0.0718001 37.2423C0.0948551 36.4902 0.128443 35.7905 0.141651 35.2189C0.149264 34.7834 0.0457659 33.3651 0.187778 33.0684C0.224273 32.9915 0.35378 32.9719 0.360606 32.8898C0.30571 32.2786 0.254696 31.6668 0.206922 31.0548C0.197272 30.9309 0.18773 30.8072 0.178305 30.6833C0.421626 29.1813 0.318173 27.6162 0.380167 26.0903C0.397802 25.6547 0.417794 25.2192 0.440631 24.7841C0.629855 21.1534 0.691431 17.5445 0.828667 13.9501C0.856739 13.2212 0.798014 12.3052 0.859669 11.5673L0.860168 11.5529C0.864966 11.5021 0.870439 11.4522 0.876627 11.4033C0.919608 11.0706 1.13397 10.9488 1.0162 10.5023C1.07229 10.5026 1.12838 10.5029 1.18448 10.5032C1.15105 10.1211 1.0503 9.86484 1.09307 9.43873C1.12472 9.07972 1.27721 8.13769 1.36715 7.83123C1.41111 7.67177 1.5007 7.75342 1.5323 7.60364C1.58454 7.3478 1.5744 6.76737 1.67139 6.41532C1.75624 6.09568 2.03131 5.59946 2.09363 5.35524C2.12246 5.24002 2.15072 5.12305 2.17917 5.0047L2.17494 5.0174C2.36987 4.16299 2.74013 3.15212 3.5367 2.45081C3.78533 2.22549 4.20743 2.08618 4.28755 2.03084C4.44595 1.91585 4.42924 1.774 4.53851 1.69133C5.03364 1.30806 5.93132 1.13394 6.53646 1.07982C6.60175 1.07335 6.66518 1.06554 6.72501 1.05624C7.09629 0.998953 7.50344 0.927947 7.95267 0.889714C9.30585 0.778052 10.69 0.630419 12.0155 0.540528C13.0901 0.466725 14.8775 0.302357 15.881 0.332195C16.0972 0.338416 16.05 0.486235 16.2302 0.473766C16.4301 0.459983 16.5318 0.355581 16.6248 0.341472C17.2676 0.241665 18.6948 0.0592693 19.3136 0.130817C19.4314 0.144234 19.5214 0.25309 19.5913 0.249436C19.6266 0.247799 19.7031 0.167094 19.8139 0.154276C20.7928 0.041714 21.5124 0.0628452 22.4776 0.0703744C23.8364 0.0812607 25.3567 0.0178185 26.8431 0.0662482C27.3815 0.0836282 27.9144 0.117896 28.431 0.175202C28.8567 0.222424 29.1288 0.471233 29.1883 0.474052C29.3194 0.481157 29.4166 0.338631 29.686 0.327516C30.0685 0.31253 30.5024 0.359479 30.9382 0.424759C31.6169 0.519472 32.3367 0.782105 32.9011 1.13901C33.3946 1.41268 34.0793 2.00576 34.3115 2.55072C34.53 2.96134 34.5853 3.87987 34.6405 4.11283C34.6447 4.12517 34.6491 4.13522 34.654 4.1433C34.7076 4.2328 34.8714 4.2705 34.8945 4.38005ZM24.4689 2.03293C24.5267 1.77294 23.9313 1.98781 24.1543 2.12762C24.2044 2.15895 24.454 2.10021 24.4689 2.03293ZM2.58613 10.5253C2.66053 10.5268 2.73492 10.5283 2.80932 10.5299C2.78561 10.4513 2.76234 10.3723 2.7395 10.2931C2.69069 10.3312 2.64198 10.3696 2.59337 10.4083C2.59085 10.4473 2.58844 10.4863 2.58613 10.5253ZM36.8118 10.1118C36.7287 10.1177 36.627 10.0054 36.5299 9.98779C36.123 9.91431 35.9731 9.83255 35.5889 9.75844C35.2946 9.70136 34.6794 9.67417 34.1439 9.55934C33.8658 9.47274 33.3398 9.36459 33.3446 9.03139C33.3446 9.03138 33.3446 9.03136 33.3446 9.03134C33.3446 9.02472 33.3448 9.01801 33.3452 9.01123C33.3551 8.88297 33.5122 8.74011 33.5298 8.59373C33.5511 8.44762 33.5026 7.50774 33.7263 7.44986C33.8564 7.42026 34.0777 7.43657 34.3284 7.49367C34.6159 7.57283 34.9189 7.68302 35.0191 7.68486C35.1324 7.68676 35.2785 7.61294 35.4253 7.61009C35.8999 7.60163 36.1402 7.68607 36.6018 7.50528C36.7623 7.64727 36.9212 7.79109 37.0769 7.93716C37.1709 7.92765 37.2791 7.95662 37.3832 7.99642C37.5533 8.05787 37.7068 8.14974 37.796 8.16687C37.9172 8.19011 38.0148 8.11699 38.1446 8.15384C38.2907 8.19544 38.4697 8.37028 38.7195 8.47775C39.1255 8.66192 39.3334 8.51186 39.5901 8.66534C39.8585 8.8306 40.0922 9.26068 40.379 9.51624C40.4295 9.53891 40.4797 9.56246 40.5298 9.58739C40.5626 9.52346 40.5942 9.45858 40.6246 9.39277C40.7656 9.5445 40.7023 9.68724 40.7894 9.8428C40.8894 10.0264 41.0448 10.0695 41.1042 10.199C41.1527 10.3063 41.1219 10.4857 41.1774 10.6186C41.2567 10.8129 41.3743 10.7257 41.4354 10.8262C41.4444 10.8416 41.4984 10.9643 41.555 11.115L41.5598 11.133C41.6403 11.3442 41.735 11.6185 41.7412 11.6432C41.8154 11.9464 41.6313 12.0135 41.664 12.2577C41.7535 12.9344 42.0117 13.6027 42.1374 14.2313C42.1937 14.5112 42.208 14.8087 42.1958 15.0933C41.6732 14.6898 41.35 15.6769 42.101 15.2711C42.0736 15.3662 42.0735 15.4513 42.0862 15.5324L42.0853 15.5145C42.1176 15.6985 42.2225 15.8589 42.2081 16.0617C42.1945 16.2486 42.0935 16.3817 42.1072 16.6458C42.1325 17.1132 42.4503 17.6207 41.9014 17.7673C42.0109 18.3141 41.813 18.7889 42.3005 18.9855C42.3309 19.1278 42.0402 19.4904 41.9994 19.648C41.9636 19.7983 41.8132 20.9425 41.7985 21.1288C41.7863 21.3159 41.768 21.643 41.805 21.8021C41.8508 22.0012 42.3505 22.1615 41.7454 22.4892C41.7751 22.9005 41.751 23.0458 41.6625 23.4222C41.6465 23.4904 41.5585 23.4934 41.5562 23.5335C41.5517 23.6162 41.6086 23.7605 41.6079 23.9087C41.6067 24.1523 41.4139 24.2794 41.6968 24.2696C41.7341 24.4326 41.7711 24.5958 41.8077 24.7591C41.7498 24.8118 41.6918 24.8643 41.6338 24.9168C41.6872 25.0063 41.7405 25.0959 41.7937 25.1856C41.3941 25.0571 41.5916 25.6751 41.8388 25.4966C41.7324 25.801 41.625 26.1045 41.5166 26.4073C41.0584 26.3279 41.4091 27.0812 41.6648 27.0416C41.6615 27.077 41.6582 27.1124 41.6549 27.1478C41.5065 27.4473 41.5827 27.7402 41.4671 28.11C41.3515 28.4796 41.3095 28.4401 41.087 28.5355C41.0912 28.6251 41.0953 28.7147 41.0994 28.8043C41.3546 29.0491 41.2652 29.1394 41.1397 29.2546C41.0005 29.3788 40.8148 29.5393 41.0209 29.9684C40.6359 30.1924 40.7925 30.8281 40.8881 31.2428C40.899 31.2912 40.9702 31.2949 40.9897 31.3594C41.0361 31.5168 40.9316 31.9118 41.162 31.9053C41.0913 32.0408 41.0209 32.1769 40.9508 32.3134C40.9897 32.4274 41.0287 32.5414 41.068 32.6554C41.1397 32.6565 41.2115 32.6576 41.2833 32.6586C41.0334 32.8804 41.1203 33.2413 41.0585 33.4174C41.046 33.4524 40.9469 33.4582 40.9178 33.5674C40.8834 33.6951 40.9082 33.9349 40.8744 34.0876C40.9829 34.1493 41.0914 34.211 41.1999 34.2728C41.2231 34.3908 41.1829 34.475 41.1274 34.5453C41.0532 34.6371 40.9516 34.7052 40.9373 34.7959C40.9323 34.8242 40.9472 35.3466 40.9536 35.375C41.0013 35.6065 41.2471 35.541 41.1936 36.2098C41.184 36.3291 41.0987 36.4258 41.0954 36.534C41.0895 36.7246 41.2839 37.3021 41.4627 37.3481C41.2393 37.5811 41.3291 38.2084 41.2623 38.3939C41.2419 38.4498 41.0994 38.4611 41.0671 38.6326C41.041 38.7714 41.1494 39.1331 41.1259 39.3108C41.1006 39.4992 40.9787 39.5633 40.9677 39.6474C40.9578 39.7242 41.0453 39.7984 41.0473 39.9018C41.0474 39.9035 41.0474 39.9074 41.0472 39.9113C41.0316 40.2626 40.8551 40.568 40.8284 40.8404C40.7895 41.2338 41.0308 41.6165 41.1065 41.9729C41.0758 42.0537 41.0024 42.1259 40.9877 42.2126C40.9393 42.4952 40.8797 42.7856 40.8094 43.0781C40.5993 43.976 40.1503 44.9081 39.5149 45.5885C39.1351 46.0866 37.7425 46.5136 38.3963 46.8574C38.281 47.1199 36.7902 47.4395 36.539 47.4447C36.2777 47.5011 36.0892 47.6505 35.8799 47.6809C35.8221 47.6892 35.7655 47.696 35.7097 47.7015L35.722 47.7C35.242 47.7512 34.8586 47.7343 34.2537 47.8842C34.0816 47.927 33.9059 48.0806 33.8017 48.0877C33.6762 48.096 33.5309 47.9741 33.3687 47.9779C32.9819 47.9892 32.265 48.0758 31.893 48.068C31.8251 48.0665 31.7962 47.9507 31.6983 47.9182C31.317 47.7912 30.8984 47.8136 30.9819 48.185C30.9183 48.1591 30.8556 48.1399 30.7936 48.1261L30.7803 48.1263C30.3756 48.029 29.9966 48.1806 29.6156 48.1944C28.6897 48.2277 27.0017 48.1531 26.1951 48.3136C25.6865 48.4151 25.7001 48.5827 24.9497 48.4408C24.7831 48.4092 24.6173 48.3665 24.4153 48.3287C23.9417 48.2398 23.5078 47.9307 23.1471 48.3036C22.6215 48.2068 22.2026 48.2746 21.8135 47.9547C21.7673 48.031 21.7212 48.1074 21.6749 48.1837C21.6105 48.1854 21.546 48.1871 21.4816 48.1888C21.4617 48.1158 21.4419 48.0427 21.422 47.9697C20.9608 47.9485 20.3734 48.2451 19.9823 48.2401C19.3267 48.2332 17.6392 48.0988 17.0192 47.9903C16.8547 47.9617 16.7674 47.9863 16.6982 47.9776C16.6246 47.9689 16.5696 47.9266 16.4751 47.7631C16.3969 47.7832 16.3186 47.8026 16.24 47.8215C16.1884 47.8896 16.1362 47.9575 16.0835 48.0252C15.6326 48.0052 15.1173 47.8471 14.702 47.7971C13.9437 47.7115 12.7915 47.7059 12.0844 47.4359C12.0301 47.4153 11.9735 47.3834 11.9163 47.3481C11.755 47.2621 11.5985 47.1509 11.4522 47.1077C11.1497 47.0128 10.9864 47.2161 10.5888 47.0312C9.86006 46.7319 9.05284 45.5245 8.77369 44.9433C8.67453 44.7728 8.5551 44.7267 8.48996 44.6038C8.22214 44.084 8.11589 43.629 7.90641 43.1058C7.91701 43.0636 7.92873 43.0245 7.94134 42.9883C8.12024 42.5722 8.40055 42.5744 8.66427 42.4065C8.87833 42.2708 9.36643 41.8738 9.55871 41.8038C9.69392 41.7549 9.8856 41.8661 10.0334 41.802C10.1673 42.2223 10.1399 42.4641 10.0513 42.7548C10.0187 42.8422 9.98022 42.9341 9.94237 43.0418C10.0724 43.7427 10.391 44.3658 10.8718 44.795C10.858 44.8964 10.8498 45.0001 10.8472 45.1057C10.8471 45.1058 10.847 45.106 10.8469 45.1061C11.0053 45.3539 11.2307 45.2311 11.3716 45.2536C11.6496 45.298 11.9561 45.3518 12.3041 45.3834C13.6867 45.5456 15.3737 45.9515 16.7282 46.0425C17.1399 46.0717 17.5223 46.0964 17.8578 46.1099C18.2636 46.1269 19.5847 46.0264 19.8622 46.1639C19.9341 46.1999 19.9532 46.3292 20.03 46.3354C20.7163 46.2632 21.4023 46.1894 22.0881 46.1141C23.4979 46.318 24.9565 46.1489 26.3775 46.1102C27.8428 46.0704 29.3026 46.0232 30.758 45.9793L30.7469 45.9794C32.3285 45.913 33.8989 45.7725 35.4556 45.5711L35.4671 45.5697C36.0989 45.4952 36.6866 45.3253 37.1811 45.0444C37.6838 44.7704 38.0797 44.2079 38.3804 43.7472C38.5064 43.5571 38.7453 43.5389 38.7064 43.1801C38.7605 43.1946 38.8146 43.209 38.8688 43.2233C38.8878 43.014 38.8522 42.8472 38.8466 42.6573C38.845 42.5699 38.8502 42.4747 38.8671 42.3676C38.9201 42.0674 39.0298 41.2705 39.0744 41.0046C39.0996 40.867 39.1983 40.9292 39.2103 40.7987C39.2297 40.5864 39.1315 40.1397 39.1266 39.8342C39.1266 39.8136 39.1268 39.796 39.1274 39.7788C39.1381 39.4914 39.2689 39.0047 39.2542 38.7799C39.2041 37.9717 39.0205 37.0863 39.0683 36.2071C39.0817 35.9644 39.2183 35.6513 39.215 35.575C39.2079 35.4258 39.0767 35.3803 39.0606 35.2795C39.0256 35.0587 39.0371 34.784 39.0647 34.5023C39.1008 34.1416 39.1595 33.7682 39.1683 33.4871C39.2126 32.074 39.2033 30.5592 39.3463 29.0882C39.3653 28.8915 39.385 28.6961 39.4055 28.5023C39.5132 27.4998 39.6265 25.834 39.7859 24.9168C39.8207 24.7189 39.9609 24.7816 39.972 24.614C39.9841 24.4282 39.8931 24.3215 39.8907 24.2343C39.8753 23.6298 39.8427 22.3031 39.9596 21.7415C39.9825 21.6345 40.0979 21.56 40.0996 21.4954C40.1007 21.4627 40.026 21.3864 40.0212 21.2837C39.9773 20.3767 40.0313 19.7194 40.0541 18.834C40.0787 17.8312 40.0099 16.7364 39.9227 15.6472L39.922 15.6326C39.8744 14.9013 39.7934 14.1741 39.7144 13.4744C39.6725 13.1024 39.8412 12.8066 39.829 12.754C39.8019 12.6397 39.6406 12.5956 39.5548 12.3739C39.4751 12.1675 39.409 11.9376 39.3465 11.6979L39.3499 11.711C39.2082 11.1739 38.9971 10.6379 38.681 10.3838C38.4656 10.1984 38.0697 10.1541 37.8312 10.0962C37.6608 10.0399 37.2281 9.85725 37.0704 9.90241C37.0598 9.9046 37.0502 9.90746 37.0423 9.91116C36.9606 9.94928 36.9021 10.1046 36.8118 10.1118ZM41.9927 16.9317C41.7316 16.8863 41.9658 17.4534 42.0984 17.2336C42.1284 17.184 42.0607 16.9434 41.9927 16.9317ZM40.2282 43.5624C40.3008 43.5791 40.3734 43.5957 40.446 43.612C40.4417 43.5217 40.4353 43.4323 40.4269 43.3442C40.3717 43.3779 40.3164 43.4099 40.2607 43.4417C40.2502 43.4822 40.2394 43.5224 40.2282 43.5624ZM27.5008 7.05979C27.5605 7.03973 27.6489 7.13402 27.7201 7.13668C28.0187 7.14886 28.1313 7.21242 28.402 7.24121C28.8035 7.28422 29.9832 7.11366 30.0081 7.78884C30.0081 7.78885 30.0081 7.78887 30.0081 7.78889C30.0084 7.79551 30.0085 7.80221 30.0085 7.809C30.0091 7.93781 29.9134 8.08198 29.9038 8.22804C29.8941 8.37415 29.9398 9.31351 29.7982 9.37157C29.5927 9.44882 29.085 9.22572 28.9746 9.2403C28.899 9.25035 28.8087 9.33908 28.7122 9.35767C28.4013 9.41757 28.2356 9.36078 27.962 9.60264C27.8451 9.48424 27.7282 9.36583 27.6114 9.24741C27.4664 9.30919 27.2382 9.15554 27.1492 9.16748C27.0763 9.1773 27.0367 9.27549 26.9605 9.2826C26.8751 9.29112 26.7401 9.19123 26.5849 9.21228C26.3306 9.2463 26.2938 9.50015 26.1418 9.53743C25.9842 9.57602 25.7326 9.44734 25.5331 9.54309C25.5086 9.57171 25.4842 9.60034 25.4597 9.62897C25.4801 9.69111 25.5004 9.75325 25.5208 9.8154C25.4198 9.84812 25.3715 9.72099 25.2777 9.72189C25.1673 9.72288 25.1153 9.84678 25.041 9.84878C24.9802 9.85032 24.8945 9.75538 24.8159 9.76424C24.7013 9.77666 24.7313 9.91698 24.6704 9.94555C24.6461 9.95665 24.1929 10.0505 24.1672 10.0526C23.9719 10.065 23.948 9.87238 23.7914 9.86102C23.3572 9.8303 22.919 10.0025 22.5215 10.0764C22.344 10.1095 22.1574 10.1052 21.9783 10.0811C22.2399 9.57587 21.6045 9.21465 21.8662 9.97964C21.664 9.87713 21.5317 10.0915 21.3427 10.0635C21.2205 10.0452 21.1322 9.94124 20.959 9.95097C20.6517 9.96892 20.3283 10.2878 20.2169 9.74029C19.8601 9.85248 19.5388 9.66613 19.4301 10.1584C19.3385 10.1921 19.0874 9.9129 18.9813 9.87825C18.9273 9.86067 18.6813 9.82455 18.4462 9.79502C18.2476 9.76923 18.0574 9.75006 18.0011 9.74992C17.8793 9.74941 17.666 9.75497 17.5667 9.80475C17.4409 9.86652 17.392 10.3761 17.1178 9.80557C16.856 9.87494 16.7607 9.86655 16.5071 9.82184C16.4612 9.81382 16.4476 9.72708 16.4214 9.72958C16.3674 9.73491 16.2822 9.80858 16.187 9.82656C16.0307 9.85606 15.92 9.68305 15.9688 9.96107C15.8703 10.0196 15.7722 10.0785 15.6745 10.1378C15.6318 10.0881 15.589 10.0385 15.546 9.98901C15.4978 10.0546 15.4498 10.1204 15.4022 10.1862C15.4157 9.77307 15.0561 10.0628 15.2137 10.278C15.0032 10.2209 14.7915 10.1655 14.5787 10.1119C14.5382 9.64876 14.1291 10.1268 14.2099 10.3697C14.1871 10.373 14.1642 10.3763 14.1414 10.3796C14.1049 10.3647 14.0697 10.3559 14.0353 10.3514L14.0178 10.3542C13.8773 10.3248 13.7604 10.4067 13.5824 10.3834C13.3654 10.3591 13.3697 10.3143 13.2385 10.1329C13.1935 10.1613 13.1493 10.1906 13.1059 10.2206C13.098 10.8586 12.7063 9.91026 12.5056 10.5406C12.185 10.301 11.9615 10.6958 11.8662 10.9408C11.854 10.9695 11.9019 11.0222 11.8902 11.0633C11.861 11.1605 11.6378 11.2646 11.815 11.4132C11.7205 11.4239 11.6252 11.4387 11.5292 11.4578C11.5271 11.4547 11.522 11.4555 11.5169 11.4563C11.5142 11.5277 11.5155 11.5978 11.5205 11.6663C11.5806 11.7055 11.6407 11.7447 11.7008 11.7839C11.4387 11.7341 11.437 11.9398 11.3542 11.9912C11.3368 12.0022 11.2436 11.9672 11.1982 12.0101C11.1441 12.0604 11.1349 12.1864 11.0872 12.2556C11.0967 12.2609 11.1062 12.2662 11.1158 12.2714L11.1183 12.2604C11.2077 12.3157 11.2973 12.3706 11.3871 12.4249C11.4091 12.6074 11.1136 12.6103 11.0713 12.7085C11.0632 12.7261 11.021 13.0664 11.0245 13.0857C11.0473 13.2434 11.2949 13.2416 11.176 13.6609C11.155 13.7358 11.0614 13.7853 11.048 13.8544C11.0234 13.9768 11.1673 14.3727 11.3419 14.4227C11.1008 14.5433 11.1476 14.9548 11.0721 15.0665C11.0487 15.1003 10.9059 15.0941 10.865 15.2019C10.8316 15.2894 10.9244 15.5309 10.896 15.6432C10.8652 15.7625 10.7424 15.7964 10.7297 15.8503C10.7178 15.9012 10.8105 15.9561 10.8047 16.0262C10.785 16.2448 10.6163 16.4336 10.6024 16.6081C10.5819 16.8606 10.8551 17.1004 10.9707 17.318C10.9493 17.3694 10.8852 17.4178 10.8818 17.4728C10.8453 18.0307 10.7815 18.6508 10.7073 19.2378C10.691 19.3662 10.6743 19.4928 10.6575 19.6166C10.6145 19.9353 10.1904 20.7143 10.8477 20.5308C10.9561 20.6471 10.6591 21.4445 10.6485 21.5983C10.6379 21.752 10.7488 21.879 10.7453 22.0001C10.7346 22.3653 10.6399 22.6188 10.7223 23.0674C10.7439 23.1833 10.8763 23.3121 10.8719 23.38C10.8662 23.4617 10.7294 23.5443 10.7165 23.65C10.6868 23.9021 10.7111 24.3751 10.6781 24.6168C10.6718 24.661 10.5543 24.6717 10.5151 24.7336C10.3623 24.9745 10.3634 25.2516 10.7385 25.2179C10.5137 25.5256 10.6951 25.8261 10.695 26.1197C10.694 26.7406 10.5613 27.8666 10.6962 28.4133C10.7813 28.758 10.9491 28.7561 10.7842 29.2519C10.7477 29.362 10.6999 29.4711 10.6562 29.6047C10.5534 29.9177 10.2323 30.1954 10.5948 30.4521C10.5848 30.4835 10.5762 30.5143 10.5685 30.5446C10.4912 30.8493 10.5115 31.1037 10.212 31.3293C10.2872 31.3631 10.3624 31.397 10.4375 31.4308C10.4377 31.474 10.4378 31.5172 10.438 31.5604C10.3646 31.5709 10.2911 31.5813 10.2177 31.5918C10.1856 31.8998 10.4692 32.3037 10.4564 32.565C10.4352 33.0031 10.2727 34.127 10.1572 34.5385C10.096 34.757 10.2516 34.7752 9.92552 34.8883C9.94581 34.9386 9.9661 34.9889 9.98639 35.0391C10.0554 35.0729 10.1244 35.1066 10.1933 35.1404C10.1845 35.4236 10.0615 35.7547 10.0515 36.0244C10.0335 36.5158 10.1962 37.2615 10.0487 37.7496C10.0409 37.7754 10.028 37.8023 10.0125 37.8299C9.95421 37.9375 9.85846 38.0528 9.8547 38.1504C9.84752 38.3301 10.0853 38.3875 10.0766 38.6135C10.0685 38.8192 9.97443 39.1094 9.88903 39.3903L9.89048 39.3221C9.8318 39.5803 9.77829 39.8318 9.79066 40.0036C9.79829 40.1119 9.88849 40.1612 9.89905 40.2359C9.94428 40.5489 9.94043 40.8065 10.0828 41.1054C9.85651 41.4314 9.55853 41.4075 9.25956 41.5115C9.03392 41.5904 8.51176 41.8299 8.3137 41.8656C8.17454 41.8906 7.99399 41.8065 7.84091 41.841C7.71316 41.4558 7.84595 41.2914 8.05771 40.9744C8.04243 40.432 8.02715 39.8895 8.01187 39.3471L8.01319 39.2854C8.01476 39.2473 8.01634 39.2094 8.01793 39.1717C8.10464 39.1232 8.19136 39.0751 8.27811 39.0271C8.27829 39.0271 8.27847 39.0271 8.27865 39.0271C8.38828 38.8094 8.17855 38.7026 8.1367 38.5801C8.05342 38.3366 8.00901 38.0507 7.98616 37.7455C7.90066 36.5353 8.20682 34.9169 8.28969 33.9161C8.31211 33.6439 8.23549 32.7524 8.37908 32.5709C8.41647 32.5239 8.54613 32.5157 8.55385 32.4644C8.49581 32.0008 8.43771 31.5373 8.37955 31.0738C8.43119 30.871 8.46577 30.6659 8.48832 30.4594C8.57087 29.7101 8.49486 28.9429 8.5009 28.1941C8.52163 25.6098 8.52181 23.0485 8.6667 20.5078C8.6905 20.093 8.64557 19.5805 8.68237 19.1431C8.68911 19.0631 8.69856 18.9857 8.71167 18.9117C8.74673 18.7129 8.95779 18.639 8.81541 18.3681C8.87139 18.3679 8.92736 18.3677 8.98334 18.3675C8.92655 18.1342 8.80629 17.9808 8.80603 17.7207C8.80561 17.5021 8.82824 16.9211 8.86179 16.7275C8.87853 16.6273 8.98052 16.6712 8.98579 16.5772C8.99388 16.4166 8.87282 16.062 8.89007 15.838C8.90509 15.6352 9.05395 15.3035 9.05136 15.1462C9.04146 14.5802 8.93514 13.9402 9.07516 13.3395C9.11385 13.1737 9.28325 12.9809 9.28852 12.9285C9.29819 12.8253 9.17405 12.7721 9.16971 12.7002C9.15545 12.4597 9.26474 12.1523 9.36821 11.876L9.37241 11.8576C9.43969 11.6669 9.51758 11.494 9.57676 11.3491C9.71904 10.9995 9.91025 10.6643 10.1473 10.3606C10.7811 9.55206 11.6526 8.9024 12.5977 8.58025C12.9047 8.47357 13.2995 8.36352 13.7186 8.30681L13.6994 8.30979C14.2506 8.22446 14.8371 8.15779 15.2362 8.16959C15.3765 8.17374 15.3573 8.32136 15.4724 8.30751C15.5999 8.29228 15.658 8.18772 15.7171 8.17311C16.124 8.06893 17.0363 7.8879 17.4371 7.96287C17.5134 7.97679 17.575 8.08595 17.6197 8.08267C17.6423 8.08121 17.6885 8.001 17.7593 7.98881C17.9743 7.95174 18.1704 7.93111 18.36 7.92023C18.7124 7.89952 19.043 7.90994 19.4395 7.91004C20.5973 7.90965 21.9304 7.71453 23.1463 7.74831C23.4112 7.75561 23.6003 7.97245 23.6374 7.96887C23.7187 7.96147 23.7656 7.80943 23.9294 7.76649C24.4741 7.62513 25.2188 7.75988 25.738 7.66672C25.9946 7.62079 26.3423 7.41804 26.5945 7.36718C26.7959 7.32653 27.2768 7.38491 27.3636 7.29811C27.4165 7.24567 27.4361 7.08238 27.5008 7.05979ZM20.7694 9.83307C20.7949 9.57196 20.4252 9.80314 20.5729 9.93672C20.6061 9.96678 20.7628 9.90083 20.7694 9.83307ZM10.3829 18.3671C10.4572 18.367 10.5315 18.367 10.6058 18.367C10.5772 18.3159 10.5487 18.2648 10.5201 18.2137C10.4743 18.2395 10.4284 18.2654 10.3825 18.2912C10.3826 18.3165 10.3827 18.3418 10.3829 18.3671ZM33.129 6.85992C33.1323 6.8418 33.1413 6.93881 33.1461 6.94377C33.1664 6.96556 33.1761 7.03269 33.1951 7.07028C33.2233 7.12613 33.2964 6.99559 33.3204 7.67099C33.3204 7.671 33.3204 7.67102 33.3204 7.67104C33.3206 7.67766 33.3209 7.68436 33.3211 7.69114C33.3254 7.81982 33.3238 7.96052 33.328 8.10607C33.3322 8.25168 33.3664 9.19145 33.3589 9.24461C33.3477 9.31472 33.3065 9.07491 33.2997 9.08585C33.295 9.09339 33.2919 9.17904 33.2861 9.19443C33.2674 9.24405 33.2545 9.18196 33.2443 9.41469C33.2326 9.29265 33.2209 9.17062 33.2091 9.04858C33.2015 9.10563 33.1812 8.94485 33.1757 8.95394C33.1712 8.96142 33.1718 9.05823 33.167 9.0629C33.1616 9.06869 33.1493 8.96461 33.1396 8.98069C33.1238 9.00658 33.1298 9.25898 33.1209 9.29137C33.1117 9.32489 33.0907 9.18835 33.0806 9.2776C33.0799 9.30541 33.0792 9.33322 33.0786 9.36104C33.082 9.42376 33.0854 9.48648 33.0888 9.54921C33.0832 9.57866 33.0757 9.45013 33.0695 9.44802C33.0622 9.44547 33.0629 9.56755 33.058 9.56716C33.054 9.56673 33.0451 9.46914 33.0402 9.47545C33.0329 9.48415 33.0396 9.62528 33.0365 9.65184C33.0352 9.66216 33.0081 9.74114 33.0065 9.74232C32.9939 9.74834 32.9859 9.55513 32.9751 9.5386C32.9451 9.49352 32.9215 9.65071 32.8974 9.71066C32.8866 9.73747 32.874 9.72668 32.8613 9.69619C32.862 9.20094 32.8077 8.81747 32.8504 9.59085C32.8335 9.48121 32.8317 9.69046 32.8182 9.65558C32.8094 9.63282 32.8 9.5257 32.7888 9.52892C32.7688 9.53531 32.7576 9.84112 32.7322 9.29C32.7119 9.38803 32.6843 9.18877 32.6931 9.67579C32.688 9.70574 32.6621 9.41639 32.6538 9.37725C32.646 9.34038 32.5916 9.21125 32.5833 9.20423C32.5749 9.19722 32.5603 9.18978 32.555 9.23272C32.5483 9.28586 32.5602 9.79083 32.5239 9.20121C32.5078 9.2496 32.5009 9.23294 32.4818 9.16497C32.4784 9.15268 32.4749 9.06507 32.4732 9.06505C32.4696 9.06518 32.4657 9.13015 32.4596 9.13828C32.4494 9.15158 32.4368 8.96744 32.448 9.24899C32.4427 9.29645 32.4374 9.34391 32.4321 9.39137C32.4277 9.3371 32.4234 9.28284 32.419 9.22858C32.4173 9.28794 32.4157 9.3473 32.4141 9.40666C32.404 8.99903 32.3862 9.24043 32.4031 9.47393C32.3866 9.39012 32.37 9.3063 32.3535 9.22249C32.3389 8.7593 32.3218 9.1701 32.3335 9.42181C32.3319 9.4215 32.3303 9.42119 32.3288 9.42088C32.3108 9.29827 32.302 9.39939 32.2825 9.31736C32.263 9.23532 32.263 9.19018 32.2503 8.97734C32.2469 8.98968 32.2434 9.00202 32.24 9.01435C32.2403 9.59906 32.208 8.58785 32.1889 9.03706C32.1647 8.67043 32.144 8.8642 32.1298 8.97613C32.1281 8.98914 32.1306 9.06038 32.1285 9.08245C32.1235 9.13552 32.1026 9.04457 32.1114 9.27434C32.1029 9.20807 32.0944 9.1418 32.0859 9.07553C32.0824 9.11749 32.0789 9.15945 32.0754 9.20141C32.078 9.27314 32.0806 9.34488 32.0832 9.41661C32.0644 9.17249 32.0519 9.26701 32.0421 9.20883C32.0401 9.19704 32.0362 9.0981 32.0305 9.07128C32.0237 9.03944 32.0142 9.06909 32.0064 9.03842C32.0077 9.14812 32.009 9.25783 32.0103 9.36753C32.0004 9.42741 31.9859 9.13824 31.978 9.11602C31.9766 9.11215 31.9542 9.13376 31.9532 9.13999C31.9447 9.18931 31.9563 9.43569 31.9249 9.38394C31.9193 9.37458 31.912 9.28944 31.9071 9.28619C31.8985 9.2803 31.8801 9.47463 31.8845 9.65344C31.8663 9.4301 31.8423 9.52251 31.832 9.45816C31.8288 9.43837 31.8232 9.2959 31.8147 9.26584C31.8078 9.24133 31.7963 9.35597 31.7879 9.33715C31.7791 9.31665 31.7719 9.19705 31.7679 9.18872C31.7642 9.18097 31.7645 9.27771 31.7598 9.27732C31.745 9.27447 31.7262 9.11941 31.7145 9.11696C31.6977 9.11306 31.693 9.39968 31.6836 9.5272C31.6794 9.50877 31.6738 9.44749 31.6702 9.44706C31.6248 9.43967 31.572 9.38876 31.5246 9.32911C31.5026 9.30172 31.4366 8.91524 31.4736 9.5627C31.4704 9.67644 31.408 9.41708 31.3978 9.41351C31.3876 9.40997 31.3837 9.52644 31.3758 9.52844C31.3521 9.53435 31.3323 9.45123 31.3067 9.55343C31.3002 9.58015 31.297 9.71808 31.2925 9.71664C31.287 9.71458 31.2765 9.58166 31.2693 9.57345C31.252 9.55493 31.2227 9.59982 31.206 9.57735C31.2029 9.57296 31.1978 9.45611 31.1923 9.41972C31.1711 9.27754 31.1534 9.29057 31.1699 9.66365C31.1416 9.45252 31.1293 9.64646 31.1105 9.65899C31.0708 9.6846 30.9938 9.60012 30.964 9.75819C30.9452 9.85791 30.9517 10.0253 30.9138 9.88201C30.9053 9.85023 30.8965 9.80728 30.8863 9.76938C30.8624 9.68019 30.8324 9.37165 30.8299 9.74483C30.8034 9.64901 30.7875 9.71819 30.7591 9.40014C30.7598 9.47664 30.7605 9.55314 30.7612 9.62964C30.7585 9.63163 30.7557 9.63362 30.753 9.63561C30.7495 9.56275 30.746 9.48989 30.7426 9.41703C30.7217 9.39812 30.7067 9.69863 30.6895 9.69705C30.6607 9.6947 30.5827 9.58094 30.552 9.48355C30.5357 9.43183 30.5405 9.58797 30.5208 9.26735C30.5183 9.28979 30.5159 9.31223 30.5135 9.33467C30.5139 9.40501 30.5144 9.47535 30.5149 9.54569C30.4965 9.54916 30.4706 9.4408 30.453 9.44254C30.4209 9.44594 30.3795 9.64105 30.3427 9.51518C30.3335 9.48343 30.3182 9.33888 30.3103 9.3408C30.2989 9.34346 30.3046 9.58403 30.2901 9.58905C30.2651 9.59726 30.2082 9.31957 30.1851 9.34178C30.1782 9.34822 30.1781 9.43781 30.1736 9.44754C30.1545 9.4893 30.1374 9.48261 30.1226 9.62158C30.0933 9.39189 30.0846 9.09437 30.0673 8.79447C30.0543 8.56812 30.0204 8.04368 30.0112 7.84536C30.0047 7.70603 30.004 7.52653 29.9964 7.37317C30.0174 7.24975 30.0328 7.38425 30.061 7.59935C30.0987 7.5894 30.1363 7.57945 30.174 7.5695C30.1804 7.65313 30.1868 7.73675 30.1933 7.82038C30.1933 7.82056 30.1933 7.82074 30.1933 7.82093C30.2113 7.91706 30.2098 7.70116 30.2159 7.65192C30.2745 7.18049 30.4357 7.5421 30.5204 7.59199C30.5386 7.60259 30.5927 7.48767 30.6098 7.62325C30.6142 7.65856 30.6197 7.78767 30.6233 7.79317C30.6507 7.7153 30.6781 7.63743 30.7055 7.55957C30.7746 7.75802 30.8328 7.59002 30.8942 7.55688C31.0602 7.46713 31.2239 7.35938 31.3912 7.38438C31.4236 7.38942 31.4609 7.29122 31.4946 7.35249C31.5086 7.37789 31.5214 7.58507 31.5332 7.4299C31.5354 7.48576 31.5375 7.54163 31.5397 7.5975C31.5523 7.52951 31.5574 7.40203 31.5738 7.38851C31.5877 7.37732 31.625 7.36769 31.6383 7.3886C31.6452 7.39904 31.6465 7.50353 31.6525 7.50279C31.6628 7.50073 31.6799 7.35561 31.6943 7.35509C31.7073 7.35463 31.7334 7.47411 31.7428 7.45633C31.7766 7.39323 31.8094 7.21356 31.8494 7.25997C31.8605 7.27311 31.879 7.408 31.8821 7.40411C31.8883 7.39601 31.8856 7.26444 31.8893 7.24738C31.9084 7.16116 31.9484 7.31621 31.9703 7.32163C32.0416 7.33936 32.1144 7.2793 32.1855 7.30097C32.2304 7.31456 32.3034 7.28879 32.3479 7.38625C32.3575 7.40729 32.3603 7.55144 32.3677 7.55118C32.376 7.55085 32.377 7.45338 32.3805 7.44537C32.4052 7.38934 32.4605 7.28887 32.4892 7.38746C32.4946 7.40639 32.5021 7.51914 32.505 7.51863C32.5064 7.51858 32.507 7.44143 32.5112 7.43339C32.549 7.36227 32.5799 7.40615 32.6203 7.43116C32.6975 7.47849 32.7799 7.33207 32.8619 7.40681C32.8798 7.42305 32.8996 7.64591 32.902 7.64357C32.9071 7.63888 32.9052 7.48858 32.9147 7.4511C32.9462 7.3279 33.0003 7.48642 33.0318 7.40992C33.0473 7.37223 33.0637 7.18077 33.0788 7.138C33.0909 7.10381 33.1249 7.17747 33.1278 7.09357C33.1295 7.04287 33.1254 6.8804 33.129 6.85992ZM32.7722 9.404C32.7653 9.14425 32.7482 9.36093 32.7625 9.49999C32.7657 9.5313 32.774 9.47143 32.7722 9.404ZM31.5936 8.99447C31.5965 9.06864 31.5994 9.1428 31.6022 9.21697C31.6044 9.18599 31.6066 9.15501 31.6087 9.12403C31.6053 9.0795 31.6019 9.03498 31.5985 8.99046C31.5969 8.9918 31.5953 8.99313 31.5936 8.99447ZM30.5955 6.89715C30.5945 6.87916 30.6076 6.97556 30.6095 6.98049C30.6175 7.00219 30.6274 7.06891 30.6366 7.10633C30.6502 7.16192 30.6564 7.03246 30.7345 7.70376C30.7345 7.70378 30.7345 7.70379 30.7345 7.70381C30.7353 7.71039 30.736 7.71705 30.7368 7.72379C30.7517 7.85168 30.7663 7.99148 30.783 8.13614C30.7996 8.28085 30.9089 9.21487 30.913 9.26761C30.9183 9.33714 30.8831 9.0985 30.8827 9.1093C30.8825 9.11674 30.8912 9.20179 30.8917 9.21703C30.8931 9.26613 30.8834 9.20433 30.9071 9.43537C30.8909 9.31405 30.8747 9.19274 30.8585 9.07144C30.8632 9.12803 30.8406 8.96819 30.8403 8.97718C30.8401 8.98456 30.8512 9.0807 30.8507 9.0853C30.8501 9.091 30.8356 8.98754 30.8352 9.00343C30.8346 9.02901 30.8647 9.27965 30.8665 9.31174C30.8683 9.34494 30.848 9.2092 30.856 9.29772C30.8591 9.32532 30.8621 9.35292 30.8652 9.38053C30.8732 9.44283 30.8812 9.50512 30.8891 9.56742C30.8913 9.59661 30.8749 9.46895 30.8733 9.4668C30.8714 9.4642 30.8857 9.58539 30.8846 9.58496C30.8837 9.58449 30.8705 9.48754 30.8702 9.49376C30.8696 9.50233 30.8875 9.64247 30.8899 9.66881C30.8909 9.67904 30.8944 9.75717 30.8942 9.75833C30.8922 9.76419 30.8678 9.57237 30.8635 9.55587C30.8517 9.51087 30.8652 9.66666 30.8673 9.72594C30.8682 9.75246 30.8642 9.74164 30.8577 9.71128C30.7986 9.21991 30.7405 8.83905 30.8428 9.60669C30.8259 9.49778 30.8507 9.70537 30.8436 9.67065C30.8389 9.648 30.8239 9.54167 30.8219 9.54477C30.8182 9.55097 30.853 9.85424 30.7803 9.30737C30.7877 9.40449 30.7571 9.20667 30.8187 9.68977C30.8213 9.71944 30.7801 9.43228 30.7734 9.39342C30.7671 9.3568 30.7388 9.22842 30.736 9.22142C30.7332 9.21442 30.729 9.20696 30.7331 9.24952C30.7381 9.30218 30.8038 9.80297 30.722 9.21811C30.7244 9.26601 30.7207 9.24945 30.7078 9.18196C30.7055 9.16975 30.6937 9.08287 30.6933 9.08285C30.6925 9.08296 30.6997 9.14736 30.6993 9.15539C30.6987 9.16853 30.6727 8.98589 30.7105 9.2651C30.7153 9.31213 30.72 9.35916 30.7248 9.40619C30.717 9.35237 30.7091 9.29855 30.7013 9.24473C30.7084 9.30358 30.7154 9.36243 30.7225 9.42127C30.669 9.01707 30.6951 9.25633 30.7284 9.48791C30.7141 9.40474 30.6997 9.32157 30.6853 9.2384C30.6235 8.77913 30.6713 9.18633 30.7058 9.43592C30.7054 9.4356 30.705 9.43529 30.7046 9.43497C30.685 9.31334 30.6956 9.41356 30.6807 9.33215C30.6657 9.25076 30.66 9.206 30.6301 8.99495C30.6308 9.00717 30.6316 9.01939 30.6323 9.03161C30.7065 9.61125 30.5707 8.60868 30.6231 9.05393C30.5709 8.6904 30.5905 8.88242 30.6013 8.99334C30.6025 9.00622 30.6122 9.07685 30.6145 9.09872C30.62 9.15132 30.6035 9.06109 30.6347 9.28889C30.6243 9.22317 30.6139 9.15744 30.6034 9.09173C30.6079 9.13331 30.6124 9.1749 30.6169 9.21649C30.6266 9.2876 30.6363 9.35872 30.646 9.42983C30.6105 9.18778 30.6195 9.28144 30.6098 9.22374C30.6078 9.21204 30.5943 9.11395 30.5895 9.08734C30.5839 9.05576 30.5854 9.08513 30.5796 9.0547C30.5938 9.16345 30.608 9.27221 30.6222 9.38097C30.6274 9.4403 30.5873 9.15359 30.5826 9.13154C30.5817 9.1277 30.579 9.14907 30.5795 9.15523C30.5837 9.20411 30.6177 9.44839 30.6034 9.39702C30.6009 9.38772 30.5884 9.3033 30.5868 9.30005C30.5839 9.2942 30.6038 9.48682 30.6274 9.66411C30.5948 9.44264 30.6004 9.53421 30.5897 9.47039C30.5865 9.45076 30.5672 9.30949 30.5614 9.27966C30.5566 9.25534 30.5681 9.36898 30.5636 9.3503C30.5589 9.32995 30.5421 9.21135 30.5401 9.20308C30.5382 9.19539 30.5503 9.29132 30.5491 9.29092C30.545 9.28806 30.5211 9.13426 30.5179 9.13179C30.5132 9.12788 30.5475 9.41211 30.5607 9.53858C30.5574 9.5203 30.5484 9.45951 30.5474 9.45908C30.5348 9.45167 30.5149 9.40109 30.4954 9.34181C30.4863 9.31461 30.4234 8.93092 30.5097 9.57352C30.5222 9.6864 30.4748 9.42892 30.4718 9.42533C30.4687 9.4218 30.4811 9.53741 30.4791 9.53939C30.4732 9.54523 30.4584 9.46266 30.4629 9.56411C30.4641 9.59063 30.4787 9.7276 30.4772 9.72617C30.4754 9.72413 30.4576 9.5921 30.4547 9.58394C30.4477 9.56552 30.4444 9.61006 30.4372 9.58771C30.4358 9.58334 30.4216 9.46724 30.4162 9.43108C30.3948 9.28977 30.3914 9.30264 30.436 9.67341C30.4053 9.46355 30.4225 9.65625 30.4181 9.66867C30.4089 9.69409 30.3777 9.60987 30.3837 9.76703C30.3874 9.86619 30.4051 10.0327 30.3795 9.89011C30.3738 9.85848 30.367 9.81572 30.3603 9.77797C30.3444 9.68915 30.3079 9.38184 30.3402 9.75333C30.3234 9.65782 30.324 9.72666 30.2883 9.40976C30.295 9.48595 30.3017 9.56213 30.3084 9.63832C30.3077 9.64029 30.3069 9.64226 30.3062 9.64423C30.2991 9.57164 30.2919 9.49906 30.2847 9.42647C30.277 9.40748 30.2967 9.70672 30.2907 9.70506C30.2811 9.70257 30.2469 9.58861 30.2305 9.49117C30.2218 9.43944 30.2338 9.59519 30.2059 9.27528C30.2067 9.29762 30.2075 9.31997 30.2082 9.34232C30.2131 9.41247 30.2179 9.48262 30.2227 9.55277C30.2169 9.55604 30.2016 9.44767 30.1961 9.44919C30.1864 9.45216 30.1831 9.64635 30.1641 9.52019C30.1594 9.48837 30.1472 9.34385 30.1448 9.34563C30.1413 9.3481 30.1547 9.58836 30.1499 9.59314C30.1414 9.60097 30.1109 9.32266 30.1046 9.34435C30.1026 9.35065 30.1058 9.44013 30.1046 9.44976C30.0997 9.4911 30.0938 9.48406 30.0927 9.62258C30.0757 9.39249 30.0649 9.09505 30.0512 8.79503C30.0408 8.56859 30.0177 8.04378 30.0103 7.84539C30.0049 7.70602 29.9992 7.5267 29.9932 7.37329C29.9917 7.25066 29.9977 7.38549 30.01 7.60113C30.0153 7.59229 30.0206 7.58342 30.0259 7.57451C30.031 7.65817 30.0361 7.74181 30.0413 7.82546C30.0413 7.82564 30.0413 7.82582 30.0413 7.826C30.0493 7.92242 30.0383 7.70688 30.0367 7.65791C30.0202 7.18906 30.0633 7.55403 30.0841 7.60534C30.0883 7.61628 30.0882 7.50294 30.1025 7.63829C30.1063 7.67355 30.1181 7.80222 30.1192 7.80777C30.118 7.73072 30.1164 7.65369 30.1144 7.57668C30.1452 7.77542 30.1413 7.60912 30.1494 7.57713C30.1724 7.49035 30.192 7.38535 30.2305 7.4116C30.2381 7.41687 30.234 7.31977 30.2488 7.38079C30.255 7.40609 30.2832 7.61167 30.2668 7.45784C30.2741 7.51327 30.2814 7.56869 30.2888 7.62411C30.2833 7.55676 30.2687 7.43037 30.2706 7.41707C30.2723 7.40607 30.2794 7.39674 30.285 7.41755C30.2878 7.42795 30.3011 7.53157 30.3024 7.53087C30.3045 7.52888 30.2902 7.38508 30.2934 7.38465C30.2963 7.38426 30.3173 7.50286 30.3172 7.48528C30.317 7.42288 30.3019 7.24491 30.317 7.2911C30.3212 7.30417 30.3426 7.43797 30.3429 7.43412C30.3433 7.42611 30.326 7.29567 30.3247 7.27878C30.3183 7.19338 30.3473 7.34723 30.3532 7.35269C30.3725 7.3705 30.3824 7.31117 30.4025 7.33284C30.4153 7.34643 30.43 7.32105 30.4534 7.41778C30.4584 7.43866 30.4771 7.5816 30.4789 7.58136C30.4809 7.58106 30.469 7.4844 30.4689 7.47648C30.4679 7.42099 30.4696 7.32145 30.4889 7.41929C30.4926 7.43808 30.5084 7.54992 30.5091 7.54942C30.5094 7.54938 30.5 7.47286 30.5001 7.4649C30.5009 7.39445 30.5143 7.43802 30.5275 7.46295C30.5527 7.5101 30.5565 7.36502 30.5865 7.43943C30.5931 7.45561 30.6241 7.67688 30.6244 7.67457C30.6252 7.66993 30.6072 7.52074 30.6053 7.48356C30.5994 7.36134 30.6314 7.51893 30.631 7.44309C30.6308 7.40571 30.6136 7.21564 30.6128 7.17321C30.6122 7.13929 30.6295 7.21257 30.621 7.12924C30.6159 7.07889 30.5968 6.91749 30.5955 6.89715ZM30.8031 9.42073C30.7701 9.163 30.7925 9.37785 30.8126 9.51589C30.8171 9.54697 30.8116 9.48763 30.8031 9.42073ZM30.4726 9.01C30.4823 9.08357 30.4921 9.15714 30.5018 9.23072C30.4986 9.19999 30.4954 9.16927 30.4922 9.13854C30.4859 9.09437 30.4796 9.0502 30.4733 9.00602C30.473 9.00735 30.4728 9.00867 30.4726 9.01Z" fill="black"/>
</svg>
