<svg width="62" height="70" viewBox="0 0 62 70" fill="none" xmlns="http://www.w3.org/2000/svg">
<path d="M49.5315 0.00196609C49.8102 -0.0100279 50.2037 0.0548244 50.5325 0.0582406C51.9101 0.0732376 52.4206 0.118193 53.6669 0.14369C55.515 0.181562 60.9999 0.0963247 61 0.546875C61 0.546887 61 0.546898 61 0.546909C61 0.551327 60.9995 0.555796 60.9984 0.560317C60.9792 0.646151 60.5127 0.739855 60.4434 0.836929C60.3743 0.934039 60.4262 1.56096 59.7636 1.59621C58.8029 1.64265 56.4982 1.48191 55.9859 1.48903C55.6356 1.49394 55.2043 1.55093 54.7564 1.56105C53.3121 1.59367 52.5564 1.55199 51.2552 1.7068C50.7348 1.62522 50.2143 1.54364 49.6938 1.46205C49.0148 1.49988 47.9856 1.39228 47.573 1.39821C47.2346 1.40308 47.0362 1.4676 46.6835 1.4706C46.2878 1.47432 45.6802 1.40469 44.9606 1.41518C43.7808 1.43205 43.5708 1.60035 42.8629 1.62172C42.1289 1.64384 40.9873 1.55237 40.0506 1.61159C39.9331 1.6301 39.8157 1.64862 39.6982 1.66713C39.7824 1.709 39.8665 1.75087 39.9507 1.79274C39.4789 1.81223 39.276 1.72642 38.8425 1.72487C38.3325 1.723 38.0722 1.80435 37.729 1.80397C37.4479 1.80359 37.0666 1.73836 36.7021 1.74245C36.1706 1.74807 36.2868 1.84226 36.0008 1.85988C35.8867 1.86673 33.7768 1.9187 33.6578 1.91945C32.7525 1.92316 32.6737 1.79425 31.9518 1.78298C29.9497 1.75223 27.8945 1.8564 26.0426 1.89577C25.2157 1.91338 24.3528 1.90589 23.5283 1.88527C24.827 1.55533 21.9529 1.29856 23.0277 1.81484C22.1103 1.74139 21.4599 1.88076 20.5902 1.8572C20.0277 1.84182 19.6384 1.77024 18.8352 1.77211C17.41 1.77589 15.851 1.97938 15.4411 1.61159C13.7681 1.67643 12.319 1.54301 11.716 1.86769C11.2846 1.88753 10.179 1.69414 9.69515 1.66786C9.23753 1.64312 5.72632 1.55579 5.15191 1.55092C4.57749 1.54605 3.57198 1.54074 3.08818 1.56923C2.48537 1.60419 2.06263 1.93571 1 1.55701L1.55432 0.951066C1.55199 0.96006 1.54962 0.969123 1.5472 0.978216C1.69066 2.22856 1.71924 2.67605 1.7776 3.84563C1.78818 4.0574 1.73209 4.08644 1.74302 4.20971C1.76567 4.46366 1.84721 4.89189 1.89287 5.34473C1.96792 6.0894 1.88336 6.52576 2.06305 6.42598C2.13824 6.91464 2.21342 7.40329 2.28861 7.89195C2.26787 8.06759 2.24713 8.2432 2.22639 8.41884C2.28917 8.67809 2.35195 8.93734 2.41473 9.19659C2.11647 8.91211 2.44112 10.7472 2.54294 10.1329C2.57187 11.0906 2.6008 12.0483 2.62973 13.0059C2.31016 12.9004 2.78071 15.1009 2.93133 14.8987C2.9408 15.0077 2.95028 15.1168 2.95975 15.2258C2.96305 16.1875 3.10809 17.0579 3.1569 18.2261C3.20571 19.3941 3.16601 19.2876 3.05601 19.654C3.08852 19.927 3.12103 20.2 3.15354 20.473C3.66962 21.8746 2.97518 21.6807 3.49211 24.1136C3.31829 24.9212 3.61909 26.8468 3.80755 28.1245C3.82946 28.2732 3.87702 28.2716 3.90937 28.4693C3.98785 28.9528 4.03771 30.1999 4.18661 30.1438C4.18076 30.5776 4.1749 31.0114 4.16905 31.4452C4.22814 31.794 4.28722 32.1429 4.34631 32.4918C4.39381 32.4857 4.44132 32.4797 4.48882 32.4737C4.38945 33.1956 4.55099 34.3017 4.56105 34.8536C4.5629 34.9634 4.49926 34.9928 4.51157 35.3336C4.52563 35.732 4.61095 36.469 4.63253 36.9433C4.72173 37.1205 4.81094 37.2976 4.90015 37.4748C5.01497 38.3161 4.84921 38.6302 4.87851 39.1276C4.88387 39.2172 5.04298 40.8456 5.05491 40.933C5.15153 41.6489 5.29715 41.4307 5.44742 43.5128C5.47408 43.8836 5.44411 44.188 5.47166 44.5228C5.52026 45.1143 5.80759 46.884 5.93883 47.0135C5.85412 47.7437 6.0859 49.6566 6.09333 50.2254C6.09533 50.3971 6.00408 50.4441 6.03066 50.97C6.05212 51.3964 6.2255 52.484 6.26086 53.0241C6.29805 53.5974 6.23673 53.8088 6.25396 54.0656C6.27032 54.3082 6.35443 54.5257 6.38348 54.8558C6.47308 55.8861 6.45291 56.8282 6.5236 57.6425C6.6256 58.8203 6.90843 59.8435 7.08067 60.8212C7.09014 61.0668 7.07076 61.3107 7.09325 61.5672C7.11104 61.7711 7.12886 61.9766 7.1467 62.1837L6.64468 61.5809C9.55747 62.3989 12.7641 63.3236 15.6334 64.1598C17.0569 64.5745 20.5402 65.8103 19.7076 65.1306C20.2243 65.1955 23.7875 66.3655 24.4735 66.5586C25.1592 66.7517 25.7241 66.8281 26.264 66.9768C27.8932 67.4255 29.0248 67.7977 31.0248 68.2828C31.0716 68.2942 31.1189 68.305 31.1664 68.3154L30.7604 68.3153C31.2227 68.1591 31.681 67.9533 31.957 67.8778C32.3225 67.7781 32.7393 67.7547 33.2138 67.629C34.3449 67.3286 36.4386 66.7179 37.5246 66.4328C37.7229 66.3809 37.8131 66.4368 38.1022 66.382C39.2277 66.1687 40.4587 65.8189 40.174 65.6395C41.6218 65.3848 42.8918 64.8989 44.1965 64.529C46.9552 63.7474 52.0039 62.4081 54.383 61.64C54.7627 61.5174 55.0419 61.4196 55.2838 61.3334L54.6017 62.1521C54.6147 61.3945 54.6077 60.9763 54.8334 59.2576C54.9005 58.7468 54.9747 58.239 55.0556 57.6194C55.2455 56.1671 55.5703 54.8483 55.4219 53.7151C55.6306 52.102 55.7002 50.8086 56.0191 49.6264C55.981 49.4802 55.9429 49.3341 55.9047 49.188C55.9212 48.9894 55.9376 48.7908 55.9541 48.5922C56.0081 48.5346 56.062 48.477 56.116 48.4194C56.2559 46.9988 56.2179 45.1771 56.3268 43.9737C56.5092 41.956 57.0504 36.7656 57.2866 34.8579C57.412 33.8452 57.3131 33.7813 57.5783 33.2187C57.5837 32.9902 57.5892 32.7616 57.5946 32.5331C57.5606 32.3868 57.5266 32.2404 57.4926 32.094C57.6071 30.7906 57.8176 29.2513 57.9277 28.0096C58.1282 25.7471 58.3029 22.3383 58.5901 20.0739C58.6622 19.5062 58.8221 18.8027 58.8708 18.2447C58.9418 17.4327 58.7996 17.2211 58.8886 16.1905C59.0423 14.4143 59.5231 11.1238 59.6587 9.44415C59.6991 8.94527 59.6604 8.70737 59.6848 8.36259C59.7864 6.91676 59.897 5.73216 59.9287 4.33992C60.2145 2.86749 60.4006 3.01351 60.6412 2.57076C60.8228 2.23516 61.2672 1.19604 61.4126 1.05588C61.5147 0.957428 61.5983 1.36652 61.7136 1.22607C61.6361 3.01382 61.4797 3.75383 61.2072 5.18679C60.9746 7.85725 60.742 10.5277 60.5093 13.1981C60.432 13.4361 60.3547 13.674 60.2774 13.912C60.2772 13.912 60.2771 13.912 60.277 13.9119C60.1212 14.9316 60.2258 15.3789 60.2089 15.9348C60.0478 21.2566 58.8739 31.6547 58.3186 37.4797C58.199 38.735 57.9093 42.8271 57.742 43.6808C57.6985 43.9018 57.6072 43.9562 57.5823 44.1933C57.444 46.3185 57.3057 48.4438 57.1674 50.5691C56.7059 54.4099 56.4239 58.3826 56.1083 62.2866C56.0909 62.5023 55.896 62.7315 55.6879 62.7911C55.1895 62.9337 54.6921 63.0754 54.1958 63.2155C46.4661 65.3974 38.79 67.5702 31.1464 69.7078C31.0659 69.7308 30.8608 69.7294 30.7799 69.7077C27.0597 68.684 23.3505 67.6571 19.6516 66.6232C17.4663 66.0123 14.6746 65.3043 12.5453 64.67C11.6566 64.4054 11.3214 64.1688 10.1203 63.9423C10.118 63.903 10.1156 63.8637 10.1132 63.8243C9.0771 63.5834 8.39996 63.4834 7.24947 63.173C7.00731 63.1076 6.66575 63.0145 6.27634 62.9078C6.02702 62.8409 5.80023 62.5629 5.77511 62.306C5.66363 61.0995 5.5158 59.4464 5.46738 58.783C5.43363 58.3242 5.51822 58.4887 5.47979 58.0617C5.41348 57.3306 5.17829 55.7768 5.08833 54.7679C5.00684 53.8539 4.94937 52.3059 4.87514 51.6042C4.60843 49.0772 4.24421 46.3312 4.03551 43.6315C3.97807 42.8857 3.98259 41.9195 3.95928 41.6864C3.91342 41.2312 3.81394 41.1032 3.77542 40.7981C3.58002 39.2482 3.46775 36.8151 3.33599 35.2906C2.90664 30.323 2.39942 25.0651 1.97459 20.1185C1.70613 16.9935 1.22787 11.8031 1.03643 8.9128C0.995163 8.28954 1.10567 8.44682 1.0591 7.92453C1.00745 7.34545 0.914827 7.03758 0.885474 6.76745C0.741962 5.44943 0.483975 3.009 0.312109 1.06182C0.270678 0.638087 0.574263 0.313506 1 0.309868C1.81865 0.310594 2.54979 0.318682 3.0739 0.338271C3.41211 0.351012 3.65745 0.426313 3.85996 0.426039C3.96244 0.426039 4.194 0.374651 4.51575 0.369399C7.35681 0.322906 9.42827 0.352875 12.2121 0.370497C17.5438 0.403864 23.7215 0.308263 29.3224 0.359999C30.5428 0.371247 31.3796 0.520191 31.5512 0.518691C31.9278 0.515687 32.1688 0.415507 32.9315 0.390761C35.4673 0.309424 38.8825 0.416325 41.2944 0.366103C42.486 0.341359 44.1234 0.214188 45.296 0.186049C46.2326 0.163555 48.4445 0.21344 48.8596 0.157606C49.1122 0.123874 49.229 0.0155295 49.5315 0.00196609ZM17.9795 1.68849C18.1464 1.51527 16.3929 1.65923 17.0507 1.75221C17.1988 1.77315 17.9364 1.73346 17.9795 1.68849ZM10.0737 62.8461C10.0714 62.7941 10.0692 62.7421 10.067 62.6902C9.83965 62.6484 9.61234 62.6067 9.38502 62.565C9.50173 62.6282 9.61843 62.6915 9.73513 62.7548C9.84798 62.7852 9.96084 62.8156 10.0737 62.8461Z" fill="#121212"/>
<path d="M27.2172 45.8555C27.5211 45.9491 27.9231 46.1585 28.2758 46.2856C29.623 46.7716 30.1861 47.0096 31.2855 47.4219L30.7892 47.3996C30.8998 47.3743 31.0154 47.3477 31.1373 47.3193C32.1837 47.0759 34.2674 46.5384 36.0733 46.1278L35.9922 46.1528C37.6773 45.5782 39.1194 45.1472 39.1956 45.3545C39.1956 45.3545 39.1956 45.3546 39.1956 45.3546C39.1971 45.3587 39.1981 45.3631 39.1985 45.3678C39.2075 45.4559 38.7405 45.7271 38.6998 45.8454C38.6593 45.9637 38.9307 46.5319 38.2337 46.8252C37.8188 46.9977 37.1503 47.2262 36.4682 47.4501C36.4567 47.4542 36.4223 47.465 36.4105 47.4678C35.4001 47.6854 34.3626 47.8906 34.0293 47.9788C33.6432 48.081 33.1804 48.2563 32.6876 48.3907C32.0903 48.5537 31.598 48.6794 31.1417 48.8001C31.0662 48.8185 30.8816 48.8113 30.8084 48.785C30.0661 48.5352 29.4144 48.3284 28.5088 48.1138C27.9758 47.8408 27.4427 47.5677 26.9096 47.2947C26.1664 47.0747 25.0945 46.5855 24.6487 46.4358C24.2829 46.3129 24.0481 46.2991 23.6676 46.1691C23.4241 46.0861 23.1143 45.9547 22.7488 45.8086C22.6183 45.7618 22.4815 45.5982 22.463 45.4608C22.4338 45.1656 22.3975 44.8385 22.3432 44.4902C22.1363 43.1611 21.9358 42.9479 21.8005 42.1521C21.6957 41.5351 21.617 40.652 21.4963 39.8074L22.0812 40.3147C21.7931 40.3147 21.5087 40.32 21.2392 40.335C21.1053 40.3535 20.9714 40.372 20.8374 40.3905C20.9334 40.4324 21.0294 40.4743 21.1253 40.5161C20.5875 40.5356 20.3562 40.4498 19.862 40.4483C19.2805 40.4464 18.9839 40.5277 18.5926 40.5274C18.2721 40.527 17.8375 40.4617 17.4218 40.4658C16.8159 40.4715 16.9484 40.5656 16.6224 40.5833C16.5235 40.5885 15.1106 40.6197 14.3785 40.6348L15.2846 39.631C15.3129 39.8605 15.3327 40.0227 15.3362 40.0551C15.4451 41.0813 15.3261 41.1839 15.3988 42.0037C15.6009 44.2773 15.9435 46.5974 16.1979 48.6937C16.3096 49.6137 16.4013 50.5755 16.4759 51.4981L15.8455 50.7389C15.8608 50.7437 15.8761 50.7486 15.8914 50.7535C15.8743 50.7523 15.8579 50.7513 15.842 50.7505L16.4638 51.4994C16.2756 50.9612 16.1776 51.1749 16.1538 51.5311L15.7538 51.0494C16.219 51.2777 17.0211 51.4755 16.4187 50.9826C17.401 51.3491 18.1516 51.4254 19.0959 51.7286C19.7065 51.9249 20.1119 52.1192 20.9907 52.3766C22.55 52.833 24.3121 53.1409 24.6562 53.626C26.5038 54.1037 28.0504 54.6993 28.8016 54.5825C29.2789 54.7028 30.433 55.245 30.9546 55.4264C31.0026 55.4431 31.0819 55.4696 31.1865 55.5041L30.7814 55.5145C31.5126 55.2825 33.4668 54.6435 34.6364 54.2566C34.6437 54.2541 34.6657 54.247 34.6731 54.245C35.0728 54.1424 35.3827 54.0621 35.5259 54.0235C36.1583 53.8533 37.2644 53.5523 37.7883 53.3775C38.0414 53.2933 38.2528 53.1744 38.4908 53.0627C38.8718 52.884 39.3207 52.7239 40.1171 52.7546C41.1203 52.4525 41.6551 52.304 42.3761 52.1242C42.6424 52.0579 42.934 51.9872 43.284 51.903C43.519 51.8465 43.5609 51.8955 43.6969 51.8579C43.977 51.7803 44.442 51.6066 44.9406 51.4629C45.7605 51.2267 46.2625 51.2152 46.1207 51.0596C46.1529 51.0487 46.1851 51.0378 46.2173 51.0269L45.7925 51.5368C45.8065 51.1117 45.8205 50.6865 45.8345 50.2614C45.8379 50.1573 45.8414 50.0534 45.8448 49.9494C45.8984 49.7561 45.9521 49.5628 46.0058 49.3694C45.9931 49.0664 45.9805 48.7633 45.9679 48.4602C46.2073 48.8362 46.2357 46.7137 46.0192 47.3844C46.1722 46.3033 46.3251 45.2223 46.4781 44.1412C46.7722 44.3202 46.7264 41.7597 46.5401 41.9583C46.5514 41.834 46.5627 41.7098 46.5741 41.5855C46.753 40.5049 46.7752 39.4998 46.9485 38.1785C47.1218 36.8574 47.1406 36.9846 47.3182 36.5939C47.3379 36.2812 47.3576 35.9684 47.3774 35.6557C47.1355 33.9836 47.7815 34.333 47.7341 31.5026C47.8233 31.2618 47.8932 30.9188 47.9488 30.5175C48.0319 29.9245 48.0841 29.2049 48.1214 28.499C48.1496 27.9484 48.1688 27.4056 48.1868 26.9385C48.1934 26.7673 48.1463 26.7602 48.152 26.532C48.1664 25.9741 48.3535 24.564 48.1965 24.5988C48.2843 24.1127 48.3722 23.6266 48.4601 23.1405C48.4681 22.7375 48.476 22.3345 48.484 21.9315C48.4362 21.9293 48.3883 21.9271 48.3405 21.9249C48.5748 21.1328 48.6255 19.86 48.7201 19.2383C48.739 19.1146 48.8072 19.0935 48.8596 18.7085C48.9212 18.2584 48.9769 17.4144 49.0454 16.8777C48.9913 16.6618 48.9371 16.4459 48.883 16.2301C48.9294 15.2634 49.1518 14.942 49.2172 14.3778C49.2233 14.3247 49.2676 13.7923 49.3093 13.2813L49.7904 13.8072C49.3215 13.8107 48.8708 13.8149 48.8228 13.8169C48.0001 13.8496 48.2332 14.014 45.8538 13.9788C45.43 13.9724 45.0873 13.9155 44.7044 13.9132C44.0278 13.9091 41.9892 14.0381 41.8289 14.1574C41.0083 14.0081 38.8128 14.0691 38.1661 14.026C37.9709 14.0128 37.9269 13.9177 37.327 13.8975C36.8406 13.881 35.5881 13.9571 34.9712 13.9444C34.3165 13.9305 34.0827 13.8506 33.7893 13.845C33.5122 13.8397 33.2566 13.9042 32.879 13.9038C31.6999 13.9016 30.6322 13.7978 29.7003 13.7959C28.3526 13.7929 27.1622 13.9838 26.0345 14.0685C25.7547 14.0561 25.4797 14.0152 25.1862 14.0148C21.5562 14.0088 17.4614 13.9736 13.8206 13.9328C13.3392 13.9274 12.654 13.9026 11.946 13.8798L12.4987 13.2678C12.6222 15.0423 12.773 16.9583 12.9991 16.1288C13.1137 16.6184 13.3185 19.7679 13.4266 21.2025L12.7467 20.5976C13.0024 20.6005 13.2039 20.6018 13.3266 20.6004C14.1386 20.5907 14.7812 20.5035 15.4195 20.4927C17.3457 20.4602 18.7029 20.4956 21.0465 20.3927C21.6518 20.3659 22.2993 20.2642 22.6579 20.2599C23.0899 20.2549 23.5561 20.3366 24.1158 20.3338C25.4498 20.3264 27.9352 20.2597 29.2152 20.2557C29.4489 20.2552 29.5321 20.3319 29.8666 20.3512C31.1694 20.4268 32.628 20.3965 32.3661 20.1514C34.0362 20.2676 35.5773 20.1153 37.1229 20.0841C38.3286 20.0599 39.9001 20.0403 41.5462 20.0178C42.0574 20.0139 42.4223 20.3992 42.3733 20.9081C42.12 23.7123 41.8527 26.7346 41.7594 28.5304C41.7581 28.5558 41.7568 28.5809 41.7556 28.6057C41.7118 29.0598 41.3313 29.4148 40.8751 29.4114C39.1557 29.4777 39.1633 29.5848 36.5573 29.4898C35.9705 29.4685 35.3863 29.4397 34.6745 29.4142C33.0063 29.3542 31.4758 29.1479 30.2042 29.3965C28.3513 29.332 26.8756 29.3777 25.5008 29.1651C25.3388 29.2161 25.1767 29.2671 25.0146 29.3181C24.7875 29.3194 24.5603 29.3206 24.3331 29.3219C24.2623 29.2733 24.1914 29.2246 24.1206 29.176C22.4932 29.1629 20.4286 29.3628 19.0511 29.3613C17.856 29.3601 15.6865 29.3388 13.5677 29.3094L14.3485 28.4865C14.4244 30.4613 14.491 32.3924 14.5147 33.4494C14.5407 34.6123 14.6479 34.6694 14.469 35.3453C14.4974 35.6042 14.5259 35.8632 14.5544 36.1221C14.5677 36.1608 14.5811 36.1995 14.5945 36.2383L13.9676 35.6485C14.0906 35.6119 14.2137 35.5753 14.3367 35.5387C15.8283 35.5236 17.5981 35.5808 19.0191 35.5675C21.6084 35.5431 25.4955 35.3797 28.0965 35.4414C28.7486 35.457 29.5645 35.5465 30.2029 35.5397C31.1321 35.53 31.3566 35.3676 32.5357 35.3542C34.5482 35.3316 38.2807 35.4813 40.2185 35.4539C40.5822 35.4534 40.8413 35.7289 40.8062 36.0909C40.8046 36.1099 40.803 36.1288 40.8015 36.1476C40.7548 36.7162 40.7905 36.9867 40.7617 37.3797C40.6417 39.0276 40.5159 40.3781 40.4666 41.9641C40.1619 43.6445 39.9773 43.4805 39.7309 43.9876C39.5448 44.3721 39.0868 45.5609 38.9395 45.7223C38.836 45.8357 38.7575 45.3708 38.6403 45.5322C38.7405 43.4951 38.9065 42.6504 39.1974 41.0151C39.3442 39.3388 39.4911 37.6626 39.6379 35.9863L40.2289 36.6268C38.8558 36.6415 37.4827 36.6562 36.1096 36.6709C35.8311 36.6175 35.5526 36.5641 35.2741 36.5107C35.2741 36.5106 35.2741 36.5105 35.2741 36.5103C34.1 36.4562 33.6039 36.6045 32.9713 36.6428C28.3932 36.9196 20.4599 36.9076 13.9786 36.8955C13.6405 36.901 13.3694 36.641 13.3492 36.3035C13.2622 34.2127 13.1818 32.2731 13.1052 30.6469C13.084 30.1969 13.0381 29.4297 12.9862 28.5579C12.9654 28.2118 13.2209 27.9477 13.5677 27.9451C15.4812 27.9314 17.8978 27.9155 18.575 27.9778C18.8304 28.0014 18.9014 28.0875 19.1731 28.0913C21.6004 28.0401 24.0277 27.9888 26.4549 27.9376C31.1949 28.0647 36.0872 27.9714 40.8751 27.944L40.294 28.4758C40.315 28.2227 40.3362 27.97 40.3576 27.7176C40.5538 25.4016 40.7493 23.0895 40.9446 20.7811L41.5679 21.4519C31.9091 21.6385 22.315 21.8215 12.7673 21.9648C12.4084 21.9729 12.1055 21.6981 12.0664 21.3412C11.9075 19.7823 11.7497 18.2246 11.5933 16.6679C11.4916 15.6546 11.3683 14.535 11.243 13.396C11.195 12.9577 11.5052 12.6208 11.946 12.6175C13.7107 12.6037 15.5218 12.5899 17.0571 12.6151C18.114 12.6324 18.5544 12.7707 19.9428 12.6676C19.9574 12.7049 19.972 12.7422 19.9865 12.7794C21.1982 12.7344 21.9725 12.6496 23.3309 12.641C24.4749 12.6339 27.5015 12.6283 28.5123 12.6426C29.0366 12.6497 28.8413 12.7194 29.3301 12.719C30.167 12.7179 31.9551 12.6216 33.1098 12.6216C34.156 12.6216 35.9195 12.7018 36.7238 12.6902C39.6203 12.649 42.7752 12.53 45.8619 12.5619C46.7146 12.5709 47.8113 12.6612 48.0783 12.6587C48.5999 12.6535 48.7552 12.5657 49.1056 12.5545C49.3205 12.5476 49.55 12.543 49.7904 12.5404C50.2736 12.5368 50.6104 12.9122 50.5711 13.3939C50.4348 15.1386 50.1471 17.4519 50.0072 18.9793C49.7196 22.1188 49.4387 25.3632 49.157 28.5919C49.097 29.2666 49.0371 29.9394 48.9771 30.6104C48.8093 32.5213 48.6405 34.419 48.4693 36.277C48.1413 39.8377 47.6284 45.7577 47.2692 49.04C47.1917 49.7478 47.1128 49.5503 47.0597 50.1457C47.0527 50.2242 47.047 50.2985 47.0423 50.3691C47.0079 50.8914 47.0311 51.2058 47.0115 51.478C47.0076 51.5318 47.0037 51.5872 46.9995 51.6442C46.9804 51.8796 46.7681 52.1298 46.541 52.1946C45.5778 52.4791 44.1533 52.8964 42.705 53.3109C41.3144 53.7089 39.902 54.1043 38.8551 54.377C38.5884 54.4464 38.3455 54.5079 38.1327 54.5594C37.7577 54.6501 37.4681 54.6523 37.2457 54.7142C37.1331 54.7454 36.8925 54.8654 36.5404 54.9684C36.0042 55.1254 35.4926 55.2731 34.9972 55.4145L35.0394 55.4012C33.7004 55.8842 32.4823 56.3099 31.2157 56.7481C31.1263 56.7803 30.9077 56.7846 30.8163 56.7584C29.8716 56.4739 28.9016 56.1796 27.8354 55.8584C23.9591 54.6911 19.6563 53.4575 15.4097 52.215C15.183 52.15 14.9706 51.8896 14.9448 51.6551C14.7133 49.4484 14.4892 47.2539 14.2889 45.1307C14.1582 43.7456 14.2091 42.7814 14.1876 42.5869C14.1409 42.1602 14.0132 41.897 13.8999 41.0346C13.8478 40.6369 13.7973 40.2196 13.7481 39.7885C13.7049 39.3954 13.983 39.0932 14.3785 39.0902C16.8597 39.0619 19.7844 39.1218 22.0812 39.0977C22.3862 39.0954 22.6557 39.3337 22.7011 39.6353C22.731 39.8299 22.7608 40.0198 22.7906 40.2043C23.0072 41.5456 23.3971 43.3755 23.614 44.6949C23.6412 44.86 23.6716 45.0607 23.7041 45.2835L23.163 44.6252C24.3082 45.0223 26.0507 45.6619 26.4429 45.7493C26.7258 45.8126 26.8873 45.7544 27.2172 45.8555ZM21.9026 52.733C21.6711 52.8453 23.6291 53.2731 22.9361 52.9716C22.7801 52.9037 21.9624 52.7038 21.9026 52.733ZM20.3283 13.7114C20.3466 13.7609 20.3649 13.8104 20.3832 13.8599C20.6457 13.8393 20.9081 13.8187 21.1705 13.7981C21.023 13.7684 20.8755 13.7386 20.728 13.7089C20.5948 13.7097 20.4615 13.7106 20.3283 13.7114Z" fill="#121212"/>
</svg>
