<svg width="154" height="84" viewBox="0 0 154 84" fill="none" xmlns="http://www.w3.org/2000/svg">
<path d="M20.7351 70.1841C6.45953 60.0168 16.5714 21.3412 20.7351 13.1675C21.454 10.7945 22.6749 8.8957 24.3132 7.3862M20.7351 70.1841C26.6832 70.1841 67.9237 70.1841 75.0615 70.1841C80.7717 70.1841 120.928 72.1777 140.293 73.1745C142.551 73.5468 146.05 73.064 148.635 70.1841M20.7351 70.1841L10.425 77.7599M148.635 70.1841C150.664 67.9232 152.13 64.1848 151.991 58.2226C151.991 49.8495 151.991 30.2422 151.991 20.3443C151.991 7.78491 119.358 3.99671 84.7768 3.99696C62.3164 3.99713 34.7866 -2.26414 24.3132 7.3862M148.635 70.1841C147.506 74.4372 141.879 82.7439 128.397 81.9465C111.544 80.9497 74.0702 81.9465 52.2603 81.9465C30.4505 81.9465 13.2008 82.3453 10.425 77.7599M10.425 77.7599C7.64923 73.1745 -3.05744 24.9294 4.87343 20.3443C11.2181 16.6763 20.4769 10.1772 24.3132 7.3862" stroke="#121212" stroke-width="4"/>
</svg>
