<svg width="49" height="72" viewBox="0 0 49 72" fill="none" xmlns="http://www.w3.org/2000/svg">
<path d="M9.21778 69.4317C9.30204 69.4479 9.39661 69.5472 9.49262 69.5804C9.89303 69.717 10.0349 69.7989 10.4072 69.907C10.9606 70.1042 12.6557 70.1226 12.6667 70.5469C12.6667 70.5469 12.6667 70.5469 12.6667 70.5469C12.6667 70.5514 12.6666 70.5558 12.6662 70.5603C12.6603 70.6464 12.507 70.7391 12.4822 70.8355C12.4574 70.9319 12.4665 71.5607 12.2313 71.5886C11.889 71.6308 11.0969 71.3891 10.9235 71.3648C10.803 71.3524 10.6436 71.385 10.4871 71.367C9.98183 71.3061 9.73688 71.2041 9.25051 71.2284C9.09552 71.0991 8.94498 70.9666 8.79907 70.8314C8.56166 70.7929 8.26401 70.5643 8.131 70.5155C8.0209 70.4758 7.93247 70.5086 7.8182 70.4622C7.68972 70.4102 7.52696 70.2605 7.29898 70.1588C6.92685 69.99 6.78335 70.0992 6.55486 69.9947C6.31797 69.8851 6.02532 69.5963 5.72171 69.458C5.67709 69.4498 5.63245 69.4413 5.58778 69.4326C5.58809 69.484 5.58872 69.5355 5.58966 69.587C5.43973 69.5066 5.43075 69.3944 5.30786 69.302C5.16365 69.1926 5.04074 69.2 4.94431 69.1236C4.86536 69.0608 4.80084 68.9248 4.69896 68.8445C4.55084 68.7268 4.52126 68.8246 4.43203 68.7706C4.39347 68.7536 3.80233 68.2727 3.77481 68.2382C3.54185 68.0083 3.61667 67.8979 3.45077 67.7008C2.9934 67.1531 2.46781 66.6309 2.07465 66.0874C1.89896 65.8454 1.74705 65.5729 1.6236 65.3015C2.13116 65.5464 1.88177 64.5368 1.60133 65.1098C1.51544 64.7856 1.29007 64.6366 1.18504 64.3393C1.11839 64.1467 1.13066 63.9923 1.02676 63.7248C0.84216 63.2552 0.491054 62.7666 0.809738 62.53C0.592029 61.9735 0.63804 61.4487 0.284202 61.2856C0.238799 61.1343 0.38015 60.7168 0.391491 60.5451C0.394866 60.4301 0.394012 59.7769 0.427608 59.3338C0.439554 59.1489 0.452449 59.0015 0.45573 58.9425C0.465649 58.7427 0.493416 58.3899 0.481447 58.2192C0.46606 58.0088 0.146705 57.8062 0.592133 57.4859C0.630023 57.044 0.67257 56.8907 0.80944 56.5016C0.834743 56.4314 0.8936 56.4374 0.90398 56.3957C0.92518 56.3103 0.921475 56.1521 0.960074 55.9977C1.02382 55.7434 1.18845 55.6399 1.00028 55.6103C1.02312 55.4351 1.04978 55.2603 1.08032 55.0857C1.13553 55.0405 1.19097 54.996 1.24663 54.9522C1.24299 54.8515 1.24064 54.7505 1.23957 54.6491C1.44696 54.8519 1.55663 54.1931 1.33019 54.3232C1.51933 54.035 1.71973 53.7563 1.92966 53.489C2.17377 53.6754 2.32474 52.8742 2.15456 52.8396C2.17522 52.8067 2.19603 52.7739 2.21698 52.7412C2.46768 52.4997 2.58713 52.2046 2.88036 51.9086C3.17512 51.6164 3.17775 51.6687 3.36498 51.6629C3.41927 51.5844 3.47453 51.5064 3.53075 51.4291C3.57791 50.7936 3.99907 51.3077 4.39947 50.5057C4.76335 50.4952 5.1764 49.9691 5.49597 49.6452C5.53254 49.6074 5.50503 49.5685 5.55262 49.5158C5.66864 49.3851 6.06304 49.1939 5.96757 49.0748C6.11874 49.0289 6.27033 48.986 6.42176 48.9465C6.51234 48.8594 6.60468 48.7734 6.69878 48.6885C6.67478 48.6471 6.65079 48.6057 6.62678 48.5643C6.92472 48.5822 7.24165 48.3498 7.43452 48.3027C7.47257 48.2935 7.50816 48.3492 7.62313 48.316C7.75731 48.2773 7.98654 48.1566 8.14699 48.1147C8.17895 48.023 8.21222 47.9313 8.24682 47.8396C8.51476 47.695 8.67816 47.8444 8.84695 47.8035C8.87669 47.7928 9.41815 47.6145 9.44813 47.6055C9.68418 47.5119 9.56996 47.3554 10.3023 47.2395C10.4324 47.2207 10.5468 47.2582 10.6639 47.2412C10.8682 47.2067 11.4806 47.0056 11.5216 46.8857C11.7885 47.0049 12.4557 46.9185 12.6667 46.9641C12.6685 46.9644 12.6702 46.9648 12.6719 46.9652C12.7293 46.9784 12.7422 47.0735 12.9184 47.0937C13.0612 47.1102 13.4291 47.0341 13.6102 47.0469C13.8025 47.0607 13.8712 47.1406 13.9574 47.1462C14.0388 47.1515 14.1138 47.087 14.2247 47.0874C14.571 47.0896 14.8846 47.1934 15.1583 47.1953C15.5541 47.1983 15.9037 47.0074 16.2349 46.9227C16.3171 46.9351 16.3978 46.976 16.484 46.9764C17.5501 46.9824 18.7527 47.0176 19.822 47.0585C20.3184 47.0772 21.5528 47.3363 21.2233 46.904C21.3958 46.8283 22.6501 47.0026 22.8887 47.0052C23.1273 47.0078 23.3163 46.9303 23.5038 46.9292C23.8048 46.9274 24.0583 46.9423 24.3335 46.9466C24.7408 46.957 25.0643 47.2596 25.0539 47.667C25.0501 47.9091 25.0547 48.1678 25.0863 48.4902C25.1039 48.6681 25.1957 48.8587 25.1947 48.964C25.1932 49.0909 25.1044 49.2274 25.0987 49.3918C25.086 49.7836 25.1152 50.5137 25.0998 50.8896C25.0968 50.9582 25.0189 50.9823 24.9945 51.0805C24.8993 51.4627 24.9075 51.8912 25.1565 51.8154C25.0151 52.3053 25.1441 52.7585 25.152 53.2125C25.1681 54.1725 25.11 55.9212 25.2146 56.7575C25.2806 57.2848 25.3922 57.2713 25.2959 58.0477C25.2745 58.2201 25.2457 58.3916 25.2202 58.6007C25.1887 58.8579 25.1169 59.104 25.0917 59.3338C25.069 59.5563 25.0786 59.7611 25.1873 59.9561C25.0937 60.5354 25.0796 61.0051 24.7993 61.3926C24.8412 61.4507 24.8827 61.5093 24.9238 61.5684C24.9124 61.6387 24.9003 61.7088 24.8877 61.7788C24.8356 61.791 24.7836 61.803 24.7316 61.8147C24.6208 62.305 24.6393 62.9777 24.4931 63.3912C24.289 64.0955 23.3743 65.7383 22.9085 66.2436C22.6761 66.5215 22.7454 66.5984 22.4517 66.6361C22.4158 66.709 22.379 66.7817 22.3415 66.8542C22.3476 66.9226 22.3532 66.9913 22.3581 67.0602C22.0696 67.4268 21.6459 67.787 21.3329 68.0957C20.7745 68.6668 19.8924 69.5255 19.1479 69.8716C18.9635 69.9606 18.6971 70.0033 18.5248 70.0982C18.2739 70.2347 18.2853 70.4112 17.9532 70.5735C17.38 70.8639 16.207 71.0799 15.6365 71.2228C15.4671 71.2689 15.4 71.345 15.2815 71.3774C14.7852 71.5115 14.3699 71.5705 13.8855 71.7116C13.3435 71.6054 13.3786 71.3966 13.2111 71.206C13.0827 71.0621 12.7199 70.7183 12.6727 70.5846C12.6385 70.4918 12.7662 70.3718 12.7177 70.2696C13.2785 70.181 13.5095 70.2518 13.986 70.3442C14.8325 70.2381 15.6652 70.0337 16.4625 69.7362C16.5546 69.762 16.6475 69.7867 16.741 69.8102C16.7411 69.8103 16.7411 69.8104 16.7412 69.8105C17.0747 69.7486 17.1475 69.5569 17.2945 69.4545C18.7478 68.5715 21.397 66.5543 22.2888 64.8571C22.5166 64.5199 22.9813 63.3031 23.1406 63.0675C23.1867 63.0083 23.2747 63.0177 23.3031 62.9461C23.4754 62.2801 23.5843 61.6028 23.63 60.9254C23.7554 60.4105 23.81 59.8747 23.8087 59.3338C23.8067 58.4071 23.7591 57.4742 23.7463 56.5562C23.7046 53.5729 23.6562 50.6118 23.6429 47.667L24.3335 48.3575C23.3335 48.3621 22.3354 48.3625 21.3389 48.3573C20.5792 48.3532 19.6152 48.4177 18.8714 48.3761C18.561 48.3588 18.4317 48.2205 18.0239 48.3236C18.0197 48.2863 18.0154 48.2491 18.0111 48.2118C17.6553 48.2568 17.4278 48.3416 17.0289 48.3502C16.6929 48.3573 15.804 48.3629 15.5072 48.3486C15.3532 48.3415 15.4105 48.2718 15.267 48.2722C15.0212 48.2733 14.4961 48.3696 14.1569 48.3696C13.8497 48.3696 13.3317 48.2894 13.0955 48.301C12.9545 48.3078 12.8115 48.3168 12.6667 48.3269C11.9765 48.3771 11.2678 48.5213 10.5708 48.6307C10.3403 48.6653 10.0247 48.6486 9.95383 48.6699C9.81507 48.7108 9.79643 48.8072 9.70713 48.8438C9.25391 49.025 8.50652 49.1914 8.06788 49.3962C6.63595 50.0393 5.31263 51.1026 4.3012 52.2865C3.63437 53.0187 2.8116 54.4444 2.43836 55.2795C2.35327 55.4577 2.28237 55.3747 2.22429 55.5316C2.1611 55.7057 2.19138 55.8218 2.16951 55.9051C1.99892 56.4806 1.8048 57.7718 1.70781 58.3257C1.68552 58.4304 1.60472 58.5025 1.60055 58.5671C1.59834 58.5997 1.64462 58.6767 1.6448 58.7789C1.64528 58.973 1.64764 59.1563 1.65143 59.3338C1.66754 59.9733 1.68821 60.5254 1.78884 61.2093C2.02838 62.8905 2.90871 64.6919 3.96794 66.1075C4.1958 66.4177 4.26282 66.714 4.30061 66.755C4.38361 66.8432 4.50871 66.8342 4.69356 66.9919C5.30035 67.5193 6.07531 68.2855 6.75571 68.649C7.08797 68.8334 7.59944 68.9727 7.93999 69.1043C8.20827 69.2167 8.82813 69.5226 8.97099 69.5097C9.05619 69.5046 9.12605 69.4145 9.21778 69.4317ZM1.00128 63.4101C1.18158 63.4102 0.852894 62.8679 0.835975 63.117C0.831476 63.1742 0.953311 63.4112 1.00128 63.4101ZM17.9107 47.2798C17.9054 47.2303 17.9 47.1808 17.8946 47.1313C17.8175 47.1519 17.7405 47.1725 17.6634 47.1931C17.7067 47.2228 17.75 47.2526 17.7933 47.2823C17.8325 47.2815 17.8716 47.2806 17.9107 47.2798Z" fill="#121212"/>
<path d="M0.767955 40.347C0.719533 40.2499 0.730463 40.085 0.694073 39.9638C0.545177 39.4541 0.537765 39.2511 0.453701 38.7822C0.281432 38.0951 0.0614658 35.9943 0.546387 36.001C0.546398 36.001 0.54641 36.001 0.546421 36.001C0.550838 36.001 0.555307 36.0012 0.559829 36.0016C0.645378 36.0092 0.740329 36.1799 0.83813 36.2027C0.936022 36.2255 1.56085 36.1991 1.6035 36.4199C1.65382 36.74 1.5776 37.5337 1.61795 37.7065C1.64098 37.8246 1.72158 37.9601 1.76012 38.1068C1.88692 38.579 1.9121 38.8419 2.18558 39.2151C2.15861 39.4055 2.13695 39.5988 2.12034 39.7935C2.23298 39.9989 2.26589 40.3644 2.32964 40.4931C2.38087 40.5981 2.46763 40.6336 2.52122 40.7413C2.58153 40.8613 2.61016 41.0806 2.73611 41.2939C2.94484 41.6431 3.12936 41.617 3.27152 41.8093C3.41919 42.0076 3.55891 42.3806 3.79714 42.5993C3.83567 42.62 3.87431 42.6405 3.91297 42.6607C3.92912 42.6128 3.94555 42.5651 3.96225 42.5176C4.07199 42.6308 4.0457 42.7365 4.13521 42.8508C4.24097 42.9849 4.35955 42.9988 4.43324 43.0853C4.49364 43.1561 4.5288 43.2945 4.61431 43.3816C4.73891 43.5081 4.78141 43.4148 4.85918 43.4712C4.88688 43.4982 5.42083 43.9453 5.45351 43.9665C5.67695 44.1616 5.6137 44.2756 5.79183 44.4375C6.28942 44.8845 6.92071 45.1799 7.4713 45.4376C7.71755 45.5536 7.96717 45.6876 8.20523 45.8186C7.66887 45.9372 8.45334 46.5711 8.32749 45.9503C8.57845 46.1393 8.83184 46.0885 9.0926 46.2057C9.26214 46.2807 9.36363 46.3906 9.61999 46.464C10.0808 46.5966 10.6199 46.4952 10.6894 46.8802C11.2529 46.9173 11.732 47.0886 11.9537 46.7774C12.0967 46.7684 12.4536 46.9749 12.6198 47.0003C12.6306 47.0021 12.6465 47.0041 12.6667 47.0064C12.9501 47.0369 14.0454 47.1128 14.2357 47.1173C14.4403 47.1222 14.7985 47.1275 14.9708 47.099C15.1873 47.0638 15.3386 46.727 15.7241 47.1207C16.1723 47.0889 16.332 47.1001 16.7488 47.1459C16.8243 47.1542 16.8328 47.2126 16.8769 47.2127C16.9677 47.2127 17.1222 47.1695 17.2843 47.1642C17.5509 47.1556 17.7031 47.2786 17.6734 47.0907C17.8491 47.0592 18.0249 47.0277 18.2007 46.9962C18.2623 47.0325 18.324 47.0687 18.3856 47.105C18.4796 47.0655 18.5736 47.026 18.6676 46.9865C18.5572 47.2583 19.2186 47.0979 19.0038 46.9419C19.3445 46.9981 19.6853 47.0544 20.026 47.1106C19.9784 47.4195 20.7741 47.1463 20.7071 46.9783C20.7461 46.9785 20.7851 46.9788 20.824 46.979C21.1654 47.0611 21.4788 46.994 21.8948 47.0491C22.3108 47.1042 22.2718 47.1343 22.3983 47.2764C22.4962 47.2682 22.5941 47.2601 22.6919 47.252C23.2056 46.8624 23.1148 47.5369 23.9944 47.238C24.0772 47.3102 24.1957 47.3499 24.3335 47.3681L24.0338 47.6678C24.0775 47.3379 23.9981 46.8977 23.9457 46.5737C23.9371 46.5202 23.8896 46.5193 23.8749 46.4481C23.8397 46.2741 23.9008 45.83 23.7475 45.8452C23.7919 45.6915 23.8362 45.5378 23.8806 45.384C23.8527 45.2584 23.8248 45.1327 23.7969 45.0071C23.7491 45.0077 23.7012 45.0084 23.6534 45.009C23.8165 44.756 23.7538 44.3584 23.7928 44.1623C23.8007 44.1233 23.8667 44.1148 23.8847 43.9935C23.9061 43.8517 23.8865 43.5875 23.9072 43.4186C23.834 43.3529 23.7609 43.2872 23.6878 43.2215C23.6481 42.9194 23.8411 42.8132 23.8561 42.6357C23.8587 42.6038 23.8449 42.021 23.8408 41.9896C23.8081 41.7325 23.6437 41.8053 23.6789 41.0618C23.6853 40.9294 23.7422 40.8223 23.7444 40.7027C23.7486 40.4913 23.6195 39.8543 23.5003 39.8042C23.6495 39.5478 23.5885 38.8617 23.6317 38.6596C23.6449 38.5987 23.74 38.5849 23.7602 38.3974C23.7767 38.2455 23.7006 37.8541 23.7133 37.6613C23.7272 37.4567 23.807 37.3837 23.8127 37.292C23.8179 37.2054 23.7535 37.1256 23.7538 37.0076C23.7561 36.6391 23.8598 36.3055 23.8618 36.0143C23.8648 35.5932 23.6739 35.2212 23.5892 34.8689C23.6015 34.7814 23.6425 34.6955 23.6429 34.6038C23.6489 33.4695 23.684 32.19 23.7249 31.0523C23.7437 30.5242 24.0027 29.2108 23.5705 29.5614C23.4948 29.3778 23.6691 28.0433 23.6717 27.7895C23.6743 27.5357 23.5968 27.3345 23.5956 27.135C23.5923 26.5331 23.6481 26.1092 23.5806 25.3765C23.563 25.1872 23.4712 24.9845 23.4722 24.8724C23.4737 24.7374 23.5625 24.5921 23.5682 24.4173C23.569 24.391 23.5696 24.3632 23.5701 24.3342L24.3335 25.0976C23.9031 25.0903 23.1976 25.115 22.8229 25.1006C22.7499 25.0976 22.7242 25.0196 22.6198 24.9953C22.2131 24.9 21.7573 24.9083 21.8379 25.1572C21.3167 25.0159 20.8345 25.1448 20.3514 25.1527C19.33 25.1688 17.4695 25.1107 16.5797 25.2153C16.0187 25.2813 16.033 25.393 15.207 25.2966C15.0236 25.2753 14.8411 25.2465 14.6187 25.221C14.0974 25.161 13.6191 24.9547 13.2218 25.2033C13.0242 25.1813 12.8403 25.1721 12.6667 25.1611C12.3526 25.1401 12.0799 25.1244 11.8016 25.0054C11.7578 25.0599 11.7148 25.1147 11.6725 25.1698C11.6068 25.177 11.5415 25.1848 11.4754 25.1932C11.4496 25.1471 11.4235 25.1011 11.3971 25.0552C10.915 25.0946 10.3557 25.4065 9.97368 25.5058C9.31459 25.6336 7.6834 26.2285 7.10805 26.5333C6.79575 26.6792 6.83921 26.7784 6.55657 26.7066C6.50011 26.7616 6.44435 26.8172 6.3892 26.8733C6.37602 26.9393 6.36353 27.0053 6.35173 27.0711C5.99642 27.3234 5.54582 27.5951 5.23725 27.8805C4.66301 28.3935 4.01878 29.3425 3.53688 29.9338C3.41314 30.0803 3.20288 30.234 3.10795 30.3984C2.97078 30.6384 3.07743 30.7737 2.92301 31.0806C2.64879 31.6016 2.07822 32.5825 1.95672 33.1465C1.9173 33.3119 1.9573 33.4019 1.93713 33.5164C1.85545 33.9971 1.78625 34.392 1.82884 34.8636C1.62907 35.3424 1.4411 35.2936 1.23117 35.4429C1.07268 35.5537 0.714995 35.9344 0.584123 35.9941C0.491013 36.0344 0.371893 35.8838 0.269327 35.9397C0.196191 35.2612 0.312189 34.9744 0.518549 34.4527C0.638341 33.4578 0.881627 32.4766 1.24231 31.5392C1.32762 31.4744 1.4134 31.4113 1.49959 31.3498C1.49971 31.3499 1.49982 31.3499 1.49993 31.35C1.70668 31.0256 1.6464 30.8226 1.70806 30.6209C2.18858 28.5973 5.24659 25.7829 7.29744 25.0006C7.71006 24.776 9.13578 24.178 9.47947 24.2052C9.56646 24.2063 9.61106 24.2837 9.69684 24.2657C10.4474 24.0232 11.227 23.8537 12.0197 23.7612C12.2344 23.7676 12.4496 23.7753 12.6667 23.7852C14.0324 23.8508 15.4286 23.765 16.7939 23.7471C19.321 23.7139 21.8331 23.6764 24.3335 23.6558C24.7171 23.6466 25.0026 23.9506 25.0119 24.3342C25.0259 26.0408 25.0321 27.7418 25.0237 29.4384C25.0196 30.2467 25.0842 31.2724 25.0425 32.0637C25.0253 32.3939 24.887 32.5315 24.9901 32.9654C24.9528 32.9699 24.9155 32.9745 24.8782 32.979C24.9232 33.3576 25.008 33.5996 25.0167 34.0241C25.0238 34.3815 25.0293 35.3272 25.0151 35.6431C25.008 35.8069 24.9383 35.7459 24.9387 35.8986C24.9398 36.1601 25.0361 36.7189 25.0361 37.0797C25.0361 37.4066 24.9559 37.9576 24.9675 38.209C25.0087 39.114 25.1276 40.0999 25.0958 41.0644C25.0868 41.3308 24.9964 41.6735 24.999 41.7569C25.0042 41.9199 25.0919 41.9685 25.1032 42.0779C25.1602 42.634 25.056 43.5009 25.0518 44.046C25.0428 45.228 25.0568 46.4567 25.0624 47.6678C25.0723 48.08 24.7457 48.3868 24.3335 48.3967C23.7247 48.3995 23.1205 48.4002 22.5289 48.3948C21.4116 48.3847 19.5548 48.4001 18.5233 48.3341C18.3008 48.3199 18.3601 48.2238 18.1733 48.2238C17.9662 48.2238 17.8541 48.2887 17.7573 48.294C17.0873 48.3307 15.6084 48.3963 14.9759 48.33C14.8554 48.3172 14.7681 48.2419 14.6959 48.2422C14.6594 48.2422 14.5769 48.2936 14.4623 48.2988C13.795 48.3295 13.247 48.3269 12.6667 48.3165C12.3484 48.311 12.026 48.2923 11.6704 48.2579C9.68461 48.0872 7.38277 47.3951 5.68156 46.1333C5.30944 45.8621 5.15849 45.5476 5.10808 45.5101C4.99753 45.4252 4.86365 45.4478 4.63059 45.2797C3.84742 44.723 3.06934 43.6844 2.52658 42.964C2.25139 42.6125 1.82258 42.1463 1.59245 41.7603C1.39915 41.4563 1.10801 40.6635 1.00491 40.5341C0.938626 40.4564 0.821166 40.4525 0.767955 40.347ZM9.87316 46.6208C9.77501 46.7773 10.3842 46.7752 10.1894 46.6334C10.1458 46.6026 9.89925 46.5819 9.87316 46.6208ZM23.9462 33.0858C23.8968 33.0915 23.8473 33.0973 23.7978 33.103C23.8184 33.185 23.839 33.267 23.8596 33.349C23.8893 33.3029 23.919 33.2568 23.9488 33.2107C23.9479 33.1691 23.9471 33.1275 23.9462 33.0858Z" fill="#121212"/>
<path d="M0.768075 17.0128C0.719653 16.9157 0.730583 16.7508 0.694193 16.6296C0.545299 16.1199 0.537886 15.9169 0.453822 15.448C0.281554 14.7609 0.061588 12.6601 0.546509 12.6668C0.54652 12.6668 0.546532 12.6668 0.546543 12.6668C0.55096 12.6668 0.55543 12.667 0.559951 12.6674C0.6455 12.675 0.740451 12.8456 0.838252 12.8685C0.936144 12.8913 1.56097 12.8649 1.60363 13.0857C1.65395 13.4058 1.57772 14.1995 1.61808 14.3723C1.64111 14.4904 1.7217 14.6259 1.76024 14.7725C1.88704 15.2448 1.91222 15.5077 2.1857 15.8809C2.15873 16.0712 2.13707 16.2646 2.12046 16.4593C2.2331 16.6647 2.26601 17.0302 2.32976 17.1589C2.38099 17.2639 2.46775 17.2993 2.52134 17.4071C2.58165 17.5271 2.61028 17.7464 2.73623 17.9597C2.94496 18.3089 3.12948 18.2828 3.27164 18.4751C3.41931 18.6734 3.55903 19.0464 3.79726 19.2651C3.83579 19.2858 3.87443 19.3063 3.91309 19.3265C3.92924 19.2786 3.94567 19.2309 3.96237 19.1834C4.07211 19.2966 4.04582 19.4023 4.13533 19.5166C4.24109 19.6507 4.35967 19.6646 4.43336 19.7511C4.49376 19.8219 4.52892 19.9603 4.61443 20.0473C4.73903 20.1739 4.78153 20.0806 4.8593 20.137C4.887 20.164 5.42094 20.6111 5.45363 20.6323C5.67707 20.8274 5.61383 20.9414 5.79195 21.1032C6.28954 21.5503 6.92083 21.8457 7.47142 22.1034C7.71767 22.2194 7.96729 22.3534 8.20535 22.4844C7.66898 22.603 8.45345 23.2369 8.32761 22.6161C8.57857 22.8051 8.83196 22.7543 9.09272 22.8715C9.26226 22.9465 9.36375 23.0564 9.62011 23.1298C10.0809 23.2624 10.6201 23.161 10.6896 23.546C11.253 23.5831 11.7321 23.7544 11.9538 23.4432C12.0969 23.4342 12.4538 23.6407 12.6199 23.6661C12.6307 23.6679 12.6466 23.6699 12.6668 23.6722C12.9503 23.7027 14.0455 23.7786 14.2358 23.7831C14.4404 23.788 14.7986 23.7933 14.971 23.7648C15.1875 23.7296 15.3388 23.3929 15.7242 23.7865C16.1724 23.7547 16.3321 23.766 16.7489 23.8117C16.8244 23.82 16.8329 23.8784 16.877 23.8785C16.9678 23.8785 17.1224 23.8353 17.2845 23.83C17.5511 23.8214 17.7032 23.9444 17.6735 23.7565C17.8493 23.725 18.025 23.6935 18.2008 23.662C18.2624 23.6983 18.3241 23.7345 18.3858 23.7708C18.4797 23.7313 18.5737 23.6918 18.6677 23.6523C18.5573 23.9241 19.2187 23.7637 19.0039 23.6077C19.3447 23.6639 19.6854 23.7202 20.0261 23.7764C19.9785 24.0853 20.7742 23.8121 20.7072 23.6441C20.7462 23.6443 20.7852 23.6446 20.8242 23.6448C21.1655 23.7269 21.4789 23.6598 21.895 23.7149C22.3109 23.77 22.2719 23.8001 22.3984 23.9422C22.4963 23.934 22.5942 23.9259 22.6921 23.9178C23.2057 23.5282 23.115 24.2027 23.9946 23.9039C24.0773 23.976 24.1958 24.0157 24.3336 24.0339L24.034 24.3336C24.0777 24.0037 23.9982 23.5635 23.9459 23.2395C23.9372 23.186 23.8897 23.1851 23.8751 23.1139C23.8398 22.9399 23.9009 22.4958 23.7476 22.511C23.792 22.3573 23.8363 22.2036 23.8807 22.0498C23.8528 21.9242 23.8249 21.7985 23.7971 21.6729C23.7492 21.6735 23.7014 21.6741 23.6535 21.6748C23.8166 21.4218 23.7539 21.0242 23.7929 20.8281C23.8008 20.7891 23.8668 20.7806 23.8848 20.6593C23.9062 20.5175 23.8867 20.2533 23.9073 20.0843C23.8342 20.0187 23.761 19.953 23.6879 19.8873C23.6483 19.5851 23.8413 19.4789 23.8563 19.3015C23.8589 19.2696 23.845 18.6868 23.8409 18.6554C23.8082 18.3983 23.6438 18.4711 23.679 17.7276C23.6854 17.5952 23.7423 17.4881 23.7446 17.3685C23.7487 17.1571 23.6197 16.52 23.5004 16.47C23.6497 16.2135 23.5887 15.5275 23.6318 15.3254C23.645 15.2645 23.7401 15.2507 23.7603 15.0632C23.7768 14.9113 23.7007 14.5199 23.7134 14.3271C23.7273 14.1225 23.8072 14.0495 23.8128 13.9578C23.8181 13.8712 23.7536 13.7914 23.754 13.6733C23.7562 13.3049 23.86 12.9713 23.8619 12.6801C23.8649 12.259 23.674 11.887 23.5893 11.5347C23.6017 11.4472 23.6426 11.3613 23.643 11.2696C23.649 10.1353 23.6842 8.85578 23.725 7.71812C23.7438 7.18998 24.0029 5.87662 23.5706 6.22716C23.4949 6.04362 23.6692 4.70909 23.6718 4.45525C23.6744 4.20147 23.5969 4.0003 23.5958 3.80083C23.5924 3.19886 23.6482 2.77498 23.5808 2.04226C23.5631 1.85302 23.4713 1.65025 23.4724 1.53818C23.4739 1.4032 23.5627 1.25792 23.5683 1.08304C23.5691 1.05673 23.5697 1.02899 23.5702 1L24.3336 1.76334C23.9032 1.75604 23.1977 1.78077 22.823 1.76637C22.75 1.76337 22.7243 1.6854 22.6199 1.66103C22.2132 1.5658 21.7574 1.57406 21.838 1.82302C21.3168 1.68168 20.8346 1.8106 20.3515 1.8185C19.3301 1.83462 17.4696 1.77651 16.5798 1.88112C16.0188 1.94711 16.0331 2.05877 15.2071 1.96242C15.0237 1.94105 14.8412 1.91223 14.6188 1.88674C14.0975 1.82675 13.6193 1.62047 13.2219 1.86904C13.0243 1.84703 12.8404 1.83787 12.6668 1.82688C12.3527 1.80589 12.08 1.79018 11.8017 1.67117C11.7579 1.72571 11.7149 1.7805 11.6726 1.83553C11.607 1.84275 11.5416 1.85054 11.4756 1.85901C11.4497 1.81291 11.4236 1.76691 11.3972 1.72099C10.9151 1.76038 10.3558 2.07232 9.9738 2.17155C9.31471 2.2994 7.68352 2.89428 7.10817 3.19912C6.79586 3.34502 6.83933 3.44421 6.55669 3.37237C6.50023 3.42742 6.44447 3.48297 6.38932 3.53908C6.37614 3.6051 6.36365 3.67103 6.35185 3.73685C5.99654 3.98918 5.54594 4.26086 5.23737 4.54625C4.66313 5.0593 4.0189 6.00832 3.537 6.59958C3.41326 6.74611 3.203 6.89983 3.10807 7.06417C2.9709 7.30414 3.07755 7.4395 2.92313 7.7464C2.64891 8.26734 2.07834 9.24829 1.95684 9.81225C1.91742 9.97767 1.95743 10.0676 1.93726 10.1822C1.85557 10.6629 1.78637 11.0578 1.82896 11.5294C1.62919 12.0082 1.44122 11.9593 1.23129 12.1087C1.0728 12.2195 0.715117 12.6001 0.584245 12.6599C0.491135 12.7002 0.372015 12.5496 0.269449 12.6055C0.196313 11.927 0.312311 11.6402 0.518671 11.1185C0.638463 10.1235 0.881748 9.14235 1.24243 8.20497C1.32774 8.14022 1.41352 8.07711 1.49972 8.01563C1.49983 8.01568 1.49994 8.01572 1.50005 8.01577C1.7068 7.69135 1.64652 7.48836 1.70818 7.28671C2.18869 5.26307 5.24671 2.4487 7.29756 1.66635C7.71017 1.44181 9.1359 0.843783 9.47959 0.870956C9.56658 0.872088 9.61118 0.949441 9.69697 0.931506C10.4475 0.688992 11.2272 0.519517 12.0198 0.426996C12.2345 0.433395 12.4498 0.441093 12.6668 0.450992C14.0325 0.516562 15.4287 0.430772 16.794 0.412856C19.3211 0.379652 21.8333 0.342196 24.3336 0.3216C24.7172 0.312391 25.0028 0.61635 25.012 1C25.026 2.70654 25.0322 4.40759 25.0239 6.10416C25.0197 6.91245 25.0843 7.93816 25.0427 8.72946C25.0254 9.05971 24.8871 9.19731 24.9902 9.63115C24.9529 9.63571 24.9156 9.64026 24.8784 9.64482C24.9234 10.0234 25.0082 10.2654 25.0168 10.6899C25.0239 11.0473 25.0294 11.993 25.0152 12.3089C25.0081 12.4727 24.9384 12.4117 24.9388 12.5644C24.9399 12.8259 25.0362 13.3847 25.0362 13.7455C25.0362 14.0724 24.956 14.6234 24.9676 14.8748C25.0088 15.7798 25.1278 16.7657 25.0959 17.7302C25.0869 17.9966 24.9966 18.3393 24.9991 18.4227C25.0043 18.5857 25.0921 18.6343 25.1033 18.7437C25.1603 19.2998 25.0561 20.1667 25.0519 20.7117C25.043 21.8938 25.0569 23.1225 25.0625 24.3336C25.0724 24.7458 24.7458 25.0526 24.3336 25.0625C23.7249 25.0653 23.1206 25.066 22.529 25.0606C21.4117 25.0505 19.5549 25.0659 18.5234 24.9999C18.3009 24.9857 18.3602 24.8896 18.1734 24.8896C17.9663 24.8896 17.8542 24.9545 17.7574 24.9598C17.0875 24.9965 15.6085 25.0621 14.9761 24.9958C14.8556 24.983 14.7682 24.9077 14.696 24.908C14.6595 24.908 14.577 24.9594 14.4624 24.9646C13.7952 24.9953 13.2471 24.9927 12.6668 24.9823C12.3486 24.9768 12.0261 24.9581 11.6705 24.9237C9.68473 24.753 7.38288 24.0609 5.68168 22.7991C5.30956 22.5279 5.15861 22.2134 5.1082 22.1759C4.99765 22.091 4.86377 22.1136 4.63071 21.9455C3.84754 21.3888 3.06946 20.3502 2.5267 19.6298C2.25151 19.2783 1.8227 18.8121 1.59257 18.426C1.39927 18.1221 1.10813 17.3293 1.00503 17.1999C0.938747 17.1222 0.821285 17.1183 0.768075 17.0128ZM9.87328 23.2866C9.77513 23.4431 10.3843 23.441 10.1895 23.2992C10.146 23.2684 9.89937 23.2477 9.87328 23.2866ZM23.9464 9.75161C23.8969 9.75733 23.8474 9.76305 23.7979 9.76877C23.8185 9.85077 23.8391 9.93278 23.8597 10.0148C23.8894 9.96869 23.9192 9.9226 23.9489 9.87652C23.9481 9.83488 23.9472 9.79325 23.9464 9.75161Z" fill="#121212"/>
<path d="M23.3349 5.0856C23.3229 4.9863 23.3877 4.84613 23.3911 4.72899C23.4061 4.23828 23.4511 4.05643 23.4766 3.61245C23.5144 2.95412 23.4292 1.00029 23.8798 1.00024C23.8798 1.00024 23.8798 1.00024 23.8798 1.00024C23.8842 1.00025 23.8887 1.00043 23.8932 1.00081C23.979 1.00766 24.0727 1.17385 24.1698 1.1985C24.2669 1.22312 24.8938 1.20466 24.9291 1.44069C24.9755 1.78292 24.8148 2.60387 24.8219 2.7864C24.8268 2.91118 24.8838 3.06481 24.8939 3.22437C24.9266 3.73884 24.8849 4.00804 25.0397 4.47155C24.9581 4.65695 24.8765 4.84235 24.7949 5.02776C24.8328 5.26965 24.7252 5.63628 24.7311 5.78324C24.736 5.90381 24.8005 5.97447 24.8035 6.10012C24.8072 6.24106 24.7376 6.4575 24.7481 6.71386C24.7649 7.13413 24.9332 7.20892 24.9546 7.46108C24.9767 7.72257 24.8853 8.12924 24.9445 8.46289C24.963 8.50474 24.9815 8.54659 25 8.58844C25.0419 8.55846 25.0838 8.52847 25.1256 8.49849C25.1451 8.66654 25.0593 8.73882 25.0578 8.89324C25.0559 9.07494 25.1372 9.16763 25.1369 9.28989C25.1365 9.39005 25.0712 9.52585 25.0753 9.65572C25.081 9.84505 25.1751 9.80365 25.1928 9.90554C25.1996 9.94619 25.2516 10.6978 25.2523 10.7402C25.2561 11.0626 25.1271 11.0907 25.1159 11.3479C25.0851 12.0611 25.1893 12.7932 25.2287 13.4529C25.2463 13.7474 25.2388 14.0548 25.2182 14.3485C24.8882 13.8859 24.6314 14.9097 25.1477 14.5268C25.0743 14.8536 25.2136 15.0853 25.1901 15.3951C25.1747 15.5955 25.1031 15.7342 25.105 16.0203C25.1088 16.528 25.3123 17.0833 24.9445 17.2294C25.0093 17.8253 24.8759 18.3415 25.2006 18.5563C25.2204 18.71 25.027 19.1038 25.0007 19.2762C24.976 19.4392 24.8887 20.69 24.8838 20.8946C24.8789 21.0992 24.8736 21.4574 24.9021 21.6298C24.9374 21.8463 25.2741 21.9976 24.8804 22.383C24.9122 22.8312 24.901 22.9909 24.8552 23.4077C24.847 23.4832 24.7885 23.4917 24.7885 23.5358C24.7885 23.6266 24.8317 23.7811 24.8369 23.9433C24.8443 24.1706 24.7559 24.3147 24.8462 24.3338L24.3334 23.8209C24.3362 23.8074 24.3363 23.7898 24.3334 23.7672L24.8999 24.3338C24.9033 24.3334 24.9068 24.3329 24.9104 24.3323C24.9105 24.3328 24.9106 24.3333 24.9107 24.3338L24.3334 23.7565C24.5086 23.7251 24.6839 23.6937 24.8591 23.6623C24.9208 23.6985 24.9825 23.7348 25.0441 23.771C25.1381 23.7315 25.2321 23.692 25.326 23.6525C25.2157 23.9243 25.8771 23.7639 25.6623 23.608C26.003 23.6642 26.3437 23.7204 26.6845 23.7767C26.6369 24.0856 27.4326 23.8123 27.3656 23.6443C27.4046 23.6446 27.4436 23.6448 27.4825 23.6451C27.8239 23.7272 28.1373 23.66 28.5533 23.7151C28.9693 23.7702 28.9303 23.8003 29.0568 23.9424C29.1547 23.9343 29.2525 23.9262 29.3504 23.918C29.8641 23.5284 29.7733 24.2029 30.6529 23.9041C30.934 24.1489 31.6267 24.0203 32.086 23.9461C32.1395 23.9375 32.1404 23.8899 32.2116 23.8753C32.3856 23.84 32.8297 23.9011 32.8145 23.7478C32.9682 23.7922 33.122 23.8366 33.2757 23.8809C33.4013 23.853 33.527 23.8252 33.6526 23.7973C33.652 23.7494 33.6514 23.7016 33.6507 23.6537C33.9037 23.8168 34.3013 23.7541 34.4974 23.7931C34.5364 23.801 34.5449 23.867 34.6662 23.8851C34.808 23.9064 35.0722 23.8869 35.2412 23.9075C35.3068 23.8344 35.3725 23.7613 35.4382 23.6882C35.7266 23.6503 35.8365 23.8244 36.0001 23.8534C36.0077 23.8548 36.0153 23.8558 36.0232 23.8565C36.0552 23.8624 36.6123 23.8322 36.6423 23.8229C36.8873 23.7715 36.8044 23.6283 37.505 23.5772C37.6291 23.5666 37.738 23.6074 37.8509 23.5907C38.0523 23.566 38.614 23.3097 38.6265 23.1799C38.896 23.272 39.497 23.0236 39.6869 22.9961C39.7452 22.9891 39.7898 23.0752 39.964 23.0306C40.1062 22.9955 40.4197 22.7827 40.5896 22.7171C40.7709 22.6489 40.8679 22.6893 40.9492 22.6556C41.0258 22.6233 41.0645 22.5315 41.1636 22.4797C41.4733 22.3188 41.7998 22.2449 42.037 22.0949C42.3801 21.8779 42.5575 21.5126 42.7626 21.2428C42.8345 21.2017 42.9231 21.1829 42.9899 21.1281C43.8195 20.4562 44.6565 19.5731 45.2753 18.688C45.5794 18.2956 46.3693 17.2778 45.8295 17.3904C45.8509 17.2144 46.4726 16.1202 46.5283 15.8797C46.6004 15.6518 46.5747 15.4471 46.6177 15.2669C46.7439 14.7184 46.8729 14.3333 46.871 13.6422C46.8693 13.4643 46.7888 13.269 46.7943 13.1662C46.8014 13.0422 46.8945 12.9098 46.9013 12.7451C46.9023 12.7204 46.903 12.6943 46.9035 12.667C46.9153 12.2613 46.8452 11.6077 46.8102 11.2579C46.8043 11.19 46.8785 11.1558 46.8885 11.055C46.9287 10.6595 46.8253 10.2351 46.5985 10.3638C46.6333 9.85766 46.3816 9.45249 46.2249 9.03512C45.9252 8.13524 45.1091 6.58329 44.4896 6.0162C44.1101 5.65405 44.0472 5.73439 43.5914 5.12269C43.4879 4.98832 43.387 4.85067 43.2522 4.69328C42.9397 4.32701 42.7049 3.88141 42.2581 3.86847C41.8559 3.5038 41.4677 3.32567 41.2132 2.94664C41.1469 2.96889 41.0811 2.99173 41.0157 3.01513C40.9565 2.98569 40.8969 2.95677 40.8371 2.92839C40.8403 2.87566 40.8433 2.82286 40.8459 2.76999C40.4186 2.54254 39.7799 2.50325 39.4046 2.3804C38.7811 2.13209 37.0862 1.75198 36.4376 1.69718C36.1806 1.66162 36.1055 1.71571 36.0001 1.65071C35.9639 1.62975 35.9242 1.59638 35.8732 1.54384C35.7919 1.55873 35.7106 1.57363 35.6294 1.58852C35.5785 1.63539 35.5277 1.68227 35.4768 1.72914C35.0107 1.73102 34.4579 1.65821 34.0138 1.65895C33.2047 1.66045 31.9897 1.78946 31.1772 1.70473C30.9734 1.68336 30.7188 1.58669 30.5193 1.58779C30.2289 1.58928 30.1583 1.7497 29.7898 1.7527C29.1548 1.75758 27.972 1.57122 27.3718 1.58547C27.1935 1.58959 27.1103 1.64928 26.9872 1.65566C26.471 1.68303 26.0472 1.67817 25.5522 1.7704C25.0207 1.61668 25.0666 1.41825 24.9019 1.21803C24.7771 1.06692 24.3943 0.716713 24.34 0.584365C24.3018 0.491383 24.4443 0.371772 24.3908 0.269423C25.0276 0.187687 25.2951 0.277667 25.8122 0.421645C26.767 0.415907 27.7219 0.41017 28.6768 0.404433C28.7637 0.4603 28.8505 0.516168 28.9374 0.572036C28.9374 0.572158 28.9374 0.57228 28.9374 0.572402C29.3041 0.636877 29.4595 0.493 29.6573 0.460341C31.1862 0.207832 33.9104 0.318814 36.0001 0.389455C36.5259 0.40619 37.0077 0.454439 37.4253 0.509891C37.8933 0.543812 39.4166 0.81044 39.691 1.01888C39.7638 1.06685 39.759 1.15588 39.8414 1.18726C40.604 1.38848 41.3514 1.66663 42.0687 2.0175C43.4194 2.94018 44.766 3.97614 45.7819 5.28799C47.4146 7.38119 48.3332 10.0203 48.3453 12.667C48.3616 14.4718 47.9671 16.2804 47.1945 17.9037C46.8346 18.6782 46.3129 19.6457 45.7565 20.2793C45.5245 20.5442 45.3298 20.566 45.1006 20.974C45.0698 20.9524 45.0391 20.9308 45.0084 20.9091C44.773 21.2302 44.6532 21.4728 44.3284 21.784C44.0614 22.0527 43.2771 22.6788 42.9872 22.848C42.8398 22.9399 42.8546 22.8459 42.7208 22.9349C42.4943 23.0884 42.0367 23.475 41.6943 23.6491C41.387 23.8128 40.8223 23.9793 40.581 24.0854C39.7152 24.4802 38.7201 24.8754 37.6944 24.9814C37.4111 25.0123 37.0405 24.9545 36.9536 24.9629C36.7825 24.9809 36.7357 25.0711 36.6195 25.0884C36.4397 25.1148 36.2263 25.1234 36.0001 25.118C35.5238 25.106 34.9915 25.055 34.6138 25.0522C32.8376 25.0387 30.9559 25.077 29.1874 25.0608C28.0701 25.0507 26.2133 25.0662 25.1817 25.0002C24.9593 24.9859 25.0186 24.8898 24.8318 24.8898C24.6247 24.8898 24.5125 24.9548 24.4158 24.96C24.3895 24.9614 24.362 24.9629 24.3334 24.9645C23.9767 24.973 23.7113 24.6904 23.7027 24.3338C23.6655 23.6316 23.6074 22.2426 23.6712 21.6348C23.6839 21.5144 23.7592 21.427 23.7589 21.3548C23.7589 21.3183 23.7075 21.2358 23.7023 21.1212C23.6558 20.1092 23.6858 19.3713 23.7034 18.3796C23.7367 16.4803 23.6411 14.2797 23.6929 12.2845C23.7041 11.8498 23.8531 11.5517 23.8516 11.4906C23.8486 11.3564 23.7484 11.2706 23.7236 10.9989C23.6423 10.0956 23.7492 8.87901 23.699 8.01983C23.6742 7.59536 23.5471 7.01207 23.5189 6.59435C23.4964 6.26073 23.5463 5.4728 23.4905 5.32493C23.4568 5.23497 23.3484 5.19334 23.3349 5.0856ZM25.0214 16.3251C24.8482 16.2657 24.9921 16.8903 25.0851 16.656C25.106 16.6032 25.0663 16.3405 25.0214 16.3251ZM44.2508 20.3556C44.2109 20.3259 44.171 20.2962 44.1311 20.2664C44.0927 20.3376 44.0534 20.4086 44.0132 20.4793C44.0653 20.4684 44.1176 20.4571 44.1699 20.4453C44.197 20.4156 44.224 20.3857 44.2508 20.3556Z" fill="#121212"/>
<path d="M48.0714 32.1597C48.1119 32.2472 48.0887 32.3933 48.1162 32.5012C48.2286 32.9556 48.2237 33.1334 48.2834 33.55C48.4082 34.159 48.5976 36.0066 48.1205 36.001C48.1205 36.001 48.1205 36.001 48.1204 36.001C48.116 36.001 48.1116 36.0008 48.107 36.0005C48.0214 35.9938 47.9267 35.8436 47.8291 35.8234C47.7314 35.8034 47.1061 35.8267 47.0651 35.6323C47.0157 35.3513 47.1111 34.6522 47.0781 34.4986C47.0593 34.3949 46.9841 34.276 46.9519 34.1456C46.8464 33.7287 46.8362 33.4954 46.5893 33.1634C46.6285 32.9941 46.6637 32.8228 46.6948 32.6492C46.5987 32.4654 46.5973 32.1392 46.5462 32.0233C46.5053 31.929 46.4234 31.8967 46.381 31.7997C46.3331 31.6915 46.3263 31.4946 46.2255 31.3011C46.0591 30.9849 45.8775 31.0055 45.7617 30.8301C45.6413 30.6488 45.5516 30.3076 45.3513 30.1032C45.317 30.0836 45.2826 30.0642 45.2482 30.0451C45.2266 30.0887 45.2047 30.1321 45.1825 30.1754C45.092 30.0699 45.1311 29.9735 45.0609 29.8668C44.9778 29.7414 44.867 29.7262 44.8089 29.6449C44.7613 29.5784 44.7473 29.4498 44.6788 29.3671C44.579 29.2468 44.5255 29.3322 44.4602 29.2779C44.437 29.253 44.0021 28.8206 43.9758 28.799C43.797 28.6087 43.874 28.504 43.7341 28.345C43.3429 27.905 42.8141 27.5916 42.3596 27.3083C42.1563 27.1809 41.955 27.0345 41.7644 26.8892C42.2676 26.8173 41.677 26.1433 41.6783 26.7523C41.4875 26.5493 41.2521 26.5759 41.0416 26.4373C40.9047 26.3481 40.8353 26.2317 40.6219 26.1329C40.2396 25.9556 39.7484 25.9876 39.7596 25.6016C39.2745 25.494 38.8905 25.2546 38.6401 25.5267C38.5165 25.5148 38.2429 25.2552 38.1064 25.2032C37.9833 25.141 36.9582 24.9157 36.7846 24.9119C36.6128 24.8941 36.3138 24.877 36.1683 24.9042C36.1092 24.9148 36.0557 24.9574 36.0001 24.997C35.8829 25.08 35.7626 25.1482 35.5354 24.8908C35.1609 24.9404 35.03 24.9404 34.6757 24.934C34.6117 24.9334 34.5973 24.8764 34.5603 24.881C34.4838 24.8908 34.3616 24.951 34.2273 24.9779C34.0072 25.022 33.8587 24.927 33.9183 25.1065C33.7805 25.1648 33.643 25.226 33.5083 25.2896C33.4503 25.2658 33.392 25.2425 33.3333 25.2196C33.2667 25.2768 33.2007 25.3346 33.1357 25.3931C33.1534 25.1043 32.6625 25.4124 32.8805 25.5117C32.5953 25.5378 32.309 25.5756 32.0222 25.6255C31.9466 25.3189 31.4231 25.832 31.5489 25.9646C31.5193 25.9775 31.4898 25.9905 31.4603 26.0037C31.1686 26.0468 30.9639 26.2227 30.6354 26.3419C30.3061 26.4647 30.3205 26.4256 30.1549 26.3587C30.088 26.4089 30.0216 26.4598 29.956 26.5114C29.8119 27.0741 29.4839 26.4656 29.0637 27.1618C28.7223 27.1146 28.3443 27.6052 28.1215 27.9323C28.095 27.9703 28.1277 28.0047 28.0954 28.0574C28.015 28.1844 27.7136 28.4165 27.8361 28.5113C27.7165 28.5759 27.5976 28.6432 27.4793 28.7131C27.4314 28.812 27.385 28.9113 27.3404 29.0108C27.3779 29.0405 27.4155 29.0702 27.453 29.0998C27.1928 29.1604 27.041 29.4671 26.9157 29.5785C26.8904 29.6007 26.8321 29.5682 26.7588 29.6424C26.6725 29.7291 26.5655 29.9262 26.4724 30.0368C26.5047 30.1228 26.5379 30.2082 26.5721 30.2928C26.4771 30.5272 26.2672 30.5089 26.1811 30.6335C26.1634 30.6548 25.9501 31.0976 25.9446 31.1245C25.8827 31.3351 26.0467 31.344 25.7781 31.899C25.7313 31.9985 25.6461 32.0613 25.6091 32.1546C25.5399 32.3184 25.5004 32.8642 25.6068 32.9353C25.4002 33.0937 25.3245 33.6609 25.253 33.8162C25.2303 33.8629 25.1341 33.8551 25.0858 34.0057C25.0455 34.1283 25.0702 34.463 25.0391 34.62C25.0045 34.7872 24.9195 34.8411 24.9063 34.9166C24.8941 34.9885 24.9523 35.0606 24.9445 35.1589C24.9191 35.4666 24.8073 35.7409 24.8051 35.9897C24.805 35.9934 24.805 35.9972 24.805 36.001C24.8063 36.3557 25.0094 36.6556 25.117 36.9338C25.1107 37.0066 25.0765 37.0805 25.0841 37.1564C25.172 38.0922 25.3884 39.1354 25.7009 40.0332C25.8261 40.4508 26.1081 41.5551 26.3555 41.09C26.4789 41.192 26.9027 42.2184 27.0386 42.3874C27.1593 42.5606 27.3222 42.6464 27.4248 42.7744C27.7368 43.1583 27.9281 43.463 28.4072 43.8383C28.5316 43.9345 28.716 43.9793 28.7831 44.0408C28.8637 44.1152 28.8948 44.2605 29.0016 44.3576C29.2538 44.5915 29.7854 44.9483 30.0543 45.1367C30.1029 45.172 30.0783 45.249 30.1386 45.316C30.3733 45.5786 30.7155 45.7552 30.7756 45.5041C31.083 45.8348 31.503 45.8916 31.8687 46.034C32.6348 46.3624 34.1167 46.7793 34.8551 46.7265C35.3161 46.7019 35.3053 46.5983 35.9707 46.7053C35.9805 46.7067 35.9903 46.7082 36.0001 46.7096C36.1395 46.7304 36.2806 46.7548 36.4499 46.7718C36.8728 46.8149 37.2964 46.977 37.5828 46.6835C38.0616 46.6775 38.4161 46.5519 38.813 46.6678C38.8409 46.6077 38.868 46.5476 38.8945 46.4874C38.9503 46.4707 39.006 46.4536 39.0614 46.436C39.0924 46.4776 39.1237 46.519 39.1552 46.5603C39.5678 46.453 39.9973 46.0786 40.3162 45.9391C40.8685 45.7325 42.2191 45.0198 42.6951 44.7003C42.9547 44.5421 42.8982 44.4509 43.1693 44.5037C43.2118 44.4483 43.2537 44.3926 43.2949 44.3367C43.296 44.2734 43.2965 44.2103 43.2965 44.1474C43.5816 43.8908 43.9564 43.6175 44.2019 43.3408C44.6589 42.8408 45.1395 41.9532 45.5356 41.4103C45.6375 41.2749 45.8229 41.1338 45.8971 40.9838C46.0042 40.7651 45.8854 40.6443 46.0054 40.3665C46.2184 39.8947 46.7031 39.0185 46.794 38.5192C46.8235 38.3731 46.7793 38.2922 46.7935 38.191C46.8503 37.7671 46.9052 37.417 46.8513 37.0025C47.0407 36.5803 47.231 36.6228 47.4387 36.4923C47.5955 36.3946 47.9515 36.0596 48.0827 36.007C48.1758 35.9716 48.2951 36.1041 48.3976 36.0549C48.4727 36.652 48.3624 36.9053 48.1703 37.3637C48.0789 38.2408 47.892 39.1091 47.613 39.9472C47.5342 40.0053 47.4551 40.062 47.3756 40.1173C47.3755 40.1173 47.3754 40.1172 47.3752 40.1172C47.2 40.4084 47.2786 40.5909 47.2379 40.7721C46.9355 42.5784 44.4745 45.2518 42.7925 46.1823C42.4572 46.4232 41.2995 47.1356 40.9939 47.1522C40.917 47.1607 40.8637 47.09 40.7911 47.1174C40.1759 47.4389 39.5287 47.709 38.8585 47.9219C37.9167 48.057 36.9643 48.1874 36.0001 48.2156C35.4981 48.2303 34.9986 48.2175 34.5037 48.1643C30.5834 47.7708 26.948 45.3294 25.1251 41.8707C24.7663 41.2105 24.3355 40.3452 24.1634 39.6226C24.0915 39.3218 24.1893 39.1641 23.9961 38.7981C24.0315 38.7855 24.0668 38.773 24.1022 38.7605C23.981 38.4299 23.8543 38.2262 23.7857 37.8351C23.7211 37.5095 23.6414 36.6272 23.6562 36.3348C23.6598 36.1821 23.7304 36.2377 23.7285 36.0961C23.7282 36.0679 23.7266 36.036 23.7242 36.001C23.7045 35.7351 23.6455 35.2939 23.6711 34.9957C23.6929 34.6921 23.8386 34.1929 23.8679 33.9621C23.9634 33.1299 24.0947 32.1981 24.4643 31.3683C24.565 31.1393 24.7795 30.8837 24.8102 30.8133C24.8694 30.6741 24.8105 30.5953 24.8458 30.4979C25.0222 30.0005 25.5288 29.3497 25.826 28.9395C26.778 27.5837 28.0517 26.3228 29.4699 25.4669C30.3479 24.9 31.9585 24.2079 32.915 24.0575C33.1187 24.0207 33.088 24.1274 33.2555 24.0881C33.4414 24.0456 33.5308 23.9618 33.6174 23.9392C34.1612 23.7843 35.3432 23.6034 36.0001 23.6569C36.0668 23.6609 36.1277 23.6664 36.1818 23.6733C36.294 23.6877 36.3726 23.7655 36.4388 23.7675C36.4724 23.7687 36.5501 23.7201 36.6565 23.7204C37.5969 23.7296 38.2789 23.8686 39.164 24.1158C40.8564 24.5837 42.7569 25.471 44.1128 26.7482C44.4094 27.0239 44.4995 27.3257 44.5401 27.3631C44.6291 27.4476 44.7567 27.4319 44.9477 27.5979C45.5892 28.1495 46.1811 29.1256 46.6178 29.7885C46.8394 30.1132 47.2028 30.5401 47.3885 30.8891C47.5445 31.1654 47.7601 31.8767 47.8526 31.992C47.9116 32.0616 48.027 32.0654 48.0714 32.1597ZM40.4279 25.9526C40.5436 25.8118 40.0069 25.7429 40.1517 25.904C40.1838 25.9392 40.398 25.988 40.4279 25.9526ZM24.9901 38.4619C25.0374 38.4464 25.0846 38.4309 25.1319 38.4155C25.0969 38.3528 25.0624 38.289 25.0285 38.2255C25.007 38.2692 24.9859 38.3139 24.965 38.3584C24.9732 38.393 24.9816 38.4275 24.9901 38.4619Z" fill="#121212"/>
</svg>
