<svg width="62" height="70" viewBox="0 0 62 70" fill="none" xmlns="http://www.w3.org/2000/svg">
<path d="M17.2443 66.2796C16.9724 66.2168 16.6105 66.0493 16.2944 65.9583C14.9708 65.5763 14.4908 65.3968 13.2964 65.0397C11.5253 64.5101 6.21645 63.1288 6.33653 62.6945C6.33653 62.6945 6.33653 62.6945 6.33654 62.6945C6.33771 62.6902 6.33942 62.6861 6.34165 62.682C6.38308 62.6044 6.85769 62.6386 6.95031 62.5635C7.04284 62.4884 7.16015 61.8703 7.80815 62.0131C8.74645 62.2247 10.9247 62.9945 11.4204 63.1244C11.7593 63.2131 12.1902 63.2732 12.6246 63.383C14.0252 63.7369 14.7424 63.9787 16.0378 64.1767C16.5176 64.3942 16.9975 64.6117 17.4773 64.8292C18.1419 64.9739 19.1051 65.3522 19.5043 65.4565C19.8318 65.5421 20.0402 65.5329 20.3809 65.6241C20.7632 65.7261 21.3302 65.9553 22.0266 66.1372C23.1682 66.4357 23.4154 66.3296 24.1034 66.4978C24.8168 66.6724 25.8926 67.0651 26.8111 67.258C26.9293 67.2715 27.0474 67.285 27.1656 67.2985C27.0957 67.2357 27.0257 67.1728 26.9558 67.11C27.4156 67.2171 27.5883 67.354 28.0057 67.4711C28.4967 67.609 28.7693 67.6 29.0999 67.692C29.3708 67.7674 29.7208 67.9319 30.0733 68.0253C30.587 68.1617 30.5001 68.0399 30.7805 68.0992C30.8092 68.1053 30.9651 68.1436 31.183 68.1976L30.7176 68.1977C31.3402 68.0069 32.4787 67.6615 32.5639 67.6373C33.4353 67.392 33.5457 67.4952 34.2443 67.3133C36.182 66.8084 38.1349 66.1592 39.9091 65.6268C40.7013 65.389 41.5348 65.1658 42.335 64.9655C41.1715 65.6303 44.0099 65.1103 42.8362 64.8998C43.7399 64.7256 44.3295 64.4176 45.174 64.2081C45.7202 64.0727 46.1145 64.0377 46.8881 63.8215C48.2605 63.4373 49.7086 62.8249 50.2018 63.0699C51.7969 62.5607 53.2289 62.3023 53.7234 61.8284C54.0479 61.7222 54.8143 61.6319 55.3549 61.5475L54.8429 62.1619C54.8722 62.0201 54.8964 61.8933 54.9109 61.7929C54.9762 61.3393 55.3749 57.8496 55.4308 57.2779C55.4866 56.7061 55.5812 55.705 55.5958 55.2206C55.6146 54.6121 55.317 54.1591 55.8052 53.1163C55.8851 51.8602 55.9362 51.4147 56.0856 50.2532C56.1127 50.0429 56.173 50.0243 56.1841 49.901C56.2067 49.647 56.2022 49.2111 56.2374 48.7573C56.2952 48.0111 56.4556 47.5966 56.2611 47.663C56.2736 47.1687 56.286 46.6745 56.2984 46.1802C56.3499 46.011 56.4014 45.8418 56.4529 45.6726C56.437 45.4064 56.421 45.1401 56.4051 44.8738C56.6483 45.2066 56.6534 43.3429 56.4445 43.9296C56.5855 42.9818 56.7264 42.0341 56.8673 41.0864C57.1632 41.2468 57.0893 38.9977 56.9053 39.1701C56.9153 39.0611 56.9252 38.9521 56.9352 38.8431C57.1021 37.896 57.1133 37.0136 57.2719 35.8552C57.4305 34.6969 57.4507 34.8087 57.6238 34.4676C57.6401 34.1932 57.6564 33.9187 57.6727 33.6443C57.4127 32.1733 58.0619 32.4871 57.9835 30.001C58.2974 29.2369 58.342 27.2884 58.3825 25.9975C58.3872 25.8472 58.3401 25.8405 58.3433 25.6401C58.3515 25.1504 58.5231 23.914 58.3666 23.9429C58.4491 23.517 58.5316 23.0911 58.6141 22.6652C58.6177 22.3113 58.6212 21.9575 58.6248 21.6037C58.5769 21.6012 58.5291 21.5987 58.4813 21.5963C58.7068 20.9033 58.7435 19.786 58.8312 19.2411C58.8488 19.1327 58.9167 19.1149 58.9648 18.7773C59.0215 18.3827 59.0679 17.6422 59.1305 17.1716C59.0741 16.9814 59.0176 16.7913 58.9611 16.6011C58.9969 15.7527 59.2157 15.4729 59.2748 14.9781C59.2854 14.889 59.4168 13.2581 59.4206 13.17C59.4521 12.4482 59.2702 12.6373 59.4906 10.5614C59.5299 10.1917 59.6133 9.89736 59.6454 9.56296C59.7022 8.97218 59.7325 7.1795 59.6262 7.02884C59.8387 6.32512 59.949 4.40139 60.0423 3.84018C60.0707 3.67082 60.1688 3.64077 60.2357 3.11839C60.29 2.69492 60.3117 1.59375 60.3725 1.05593C60.3768 1.01756 60.3813 0.980877 60.3859 0.945751L61 1.61697C60.5088 1.59635 60.3142 1.52652 60.0741 1.52126C59.831 1.51601 59.6069 1.58047 59.2756 1.58009C58.2413 1.57785 57.3047 1.47409 56.4873 1.47218C55.3051 1.46918 54.2608 1.66003 53.2716 1.74477C53.0261 1.73239 52.7849 1.69143 52.5275 1.69106C49.3432 1.68506 45.7512 1.64989 42.5574 1.60903C41.0747 1.59026 37.3878 1.3312 38.3718 1.76344C37.8566 1.83914 34.1101 1.66487 33.3975 1.66225C32.6851 1.65965 32.1203 1.73715 31.5604 1.7383C29.8705 1.74167 28.6805 1.68582 26.6235 1.75331C26.0923 1.77096 25.523 1.86278 25.2084 1.86171C24.8295 1.86021 24.4216 1.77141 23.9307 1.76576C22.7605 1.75302 20.5796 1.78223 19.4569 1.76686C19.252 1.76386 19.18 1.68589 18.8868 1.66152C17.7451 1.56629 16.4654 1.57455 16.6918 1.8235C15.2285 1.68216 13.8749 1.81109 12.5188 1.81899C9.65142 1.83511 4.4283 1.777 1.93039 1.88161C1.54185 1.89789 1.25161 1.91695 1 1.93498L1.9308 0.91756C2.05382 1.67796 2.13531 2.0804 2.21804 3.8268C2.24243 4.34143 2.2592 4.85443 2.28921 5.47857C2.35933 6.94157 2.27301 8.29712 2.61958 9.38613C2.6996 11.0108 2.86001 12.2961 2.7553 13.5162C2.8187 13.6533 2.88209 13.7903 2.94549 13.9274C2.96443 14.1258 2.98337 14.3242 3.00231 14.5225C2.9594 14.5888 2.91648 14.655 2.87356 14.7212C2.9872 16.1443 3.34699 17.9305 3.45277 19.1342C3.63032 21.1524 4.01605 26.3569 4.12117 28.2762C4.17697 29.2952 4.28557 29.3406 4.12416 29.9412C4.15924 30.1671 4.19432 30.393 4.22939 30.6189C4.28875 30.7569 4.34811 30.895 4.40747 31.033C4.52546 32.3362 4.59066 33.8885 4.70202 35.1301C4.90509 37.3925 5.33628 40.7785 5.4543 43.058C5.48377 43.6296 5.45093 44.3503 5.50172 44.908C5.57555 45.7199 5.75292 45.903 5.8477 46.9331C6.01077 48.7084 6.11979 52.0322 6.28353 53.7094C6.33205 54.2076 6.41223 54.4349 6.44925 54.7785C6.60511 56.2195 6.70585 57.4051 6.92104 58.781C6.90033 60.2808 6.69125 60.17 6.53285 60.6483C6.41343 61.0108 6.15996 62.1122 6.04167 62.2759C5.95857 62.3908 5.80393 62.003 5.7153 62.1616C5.47526 60.3883 5.49824 59.6323 5.51283 58.1737C5.26924 55.5041 5.02564 52.8346 4.78204 50.165C4.81605 49.9172 4.85005 49.6693 4.88406 49.4214C4.88418 49.4214 4.8843 49.4214 4.88442 49.4214C4.85729 48.3903 4.67526 47.9684 4.59346 47.4183C3.81031 42.1518 3.12572 31.7099 2.64155 25.8783C2.53712 24.6217 2.09814 20.5428 2.11174 19.6729C2.11539 19.4477 2.19567 19.378 2.17826 19.1403C1.93828 17.024 1.6983 14.9077 1.45833 12.7915C1.23255 8.92309 0.806018 4.95629 0.425352 1.05169C0.390766 0.697731 0.644373 0.426603 1 0.423564C1.51185 0.419302 2.02257 0.415724 2.53177 0.413344C14.4682 0.357478 26.2855 0.289573 38.0265 0.310194C40.2956 0.314319 43.1751 0.249777 45.3966 0.291395C46.3237 0.308651 46.71 0.446992 47.9279 0.343886C47.9407 0.381158 47.9535 0.41843 47.9663 0.455702C49.0291 0.410706 49.7083 0.325897 50.9 0.317274C51.9035 0.310151 54.5584 0.304616 55.4451 0.318861C55.9051 0.325984 55.7337 0.395631 56.1625 0.395278C56.8966 0.394153 58.4651 0.297868 59.4781 0.297865C59.9 0.297865 60.455 0.314824 61 0.332018C61.4121 0.328497 61.6989 0.64908 61.6658 1.05984C61.5888 1.69594 61.5128 2.31837 61.4852 2.69857C61.3007 5.233 61.1734 8.00019 60.9012 10.6943C60.8258 11.4385 60.6505 12.3887 60.6322 12.6223C60.5968 13.0785 60.6721 13.222 60.656 13.5291C60.5742 15.0891 60.2543 17.5038 60.1143 19.0276C59.6581 23.993 59.2272 29.2579 58.7703 34.2017C58.4818 37.325 58.0343 42.5183 57.7115 45.3969C57.6418 46.0177 57.5609 45.8433 57.5143 46.3656C57.4627 46.9447 57.4994 47.2641 57.4805 47.5352C57.3501 49.4118 57.0469 53.553 56.8231 55.3157C56.7804 55.6514 56.6836 55.8891 56.6659 56.0909C56.6568 56.193 56.6874 56.4282 56.6641 56.7491C56.5142 58.8123 56.3601 60.4656 56.1852 62.2816C56.1658 62.5231 55.9477 62.7795 55.7148 62.8462C55.0566 63.0235 54.3761 63.2062 53.645 63.4037C48.4979 64.7952 42.5699 66.5369 37.1583 67.9826C35.9793 68.2976 35.133 68.3775 34.968 68.4248C34.6059 68.5282 34.4003 68.6891 33.672 68.9166C32.8935 69.1594 32.0223 69.4078 31.1216 69.656C31.0464 69.6775 30.8549 69.6762 30.7793 69.656C28.8791 69.1271 26.8666 68.5303 25.2801 68.1264C24.1251 67.8324 22.513 67.518 21.3754 67.2323C20.4667 67.0041 18.3483 66.3658 17.9333 66.3089C17.6809 66.274 17.5394 66.3473 17.2443 66.2796ZM47.735 63.6736C47.6204 63.8851 49.2719 63.2781 48.6131 63.3642C48.4647 63.3835 47.7645 63.6187 47.735 63.6736ZM48.2661 1.38771C48.2821 1.43719 48.2982 1.48667 48.3142 1.53615C48.5444 1.51556 48.7746 1.49497 49.0048 1.47438C48.8755 1.44464 48.7461 1.41489 48.6167 1.38515C48.4998 1.386 48.3829 1.38686 48.2661 1.38771Z" fill="#121212"/>
<path d="M12.2011 26.616C12.1639 26.3006 12.193 25.8489 12.1666 25.4754C12.0568 23.9107 12.0554 23.3278 11.968 21.9112C11.8385 19.8108 11.257 13.5926 11.7061 13.5566C11.7062 13.5566 11.7062 13.5566 11.7062 13.5566C11.7106 13.5562 11.7151 13.5565 11.7197 13.5573C11.807 13.5723 11.9426 14.0943 12.0457 14.1652C12.1487 14.2359 12.769 14.1272 12.8641 14.8764C12.9973 15.9631 13.0457 18.5915 13.0992 19.1724C13.1358 19.5696 13.2317 20.0545 13.2823 20.5621C13.4455 22.1986 13.4724 23.0596 13.7445 24.5241C13.7103 25.1213 13.6761 25.7185 13.6419 26.3156C13.7411 27.0833 13.727 28.26 13.7702 28.7277C13.8057 29.1115 13.888 29.3315 13.9229 29.7316C13.9624 30.1803 13.948 30.8754 14.0236 31.6914C14.1472 33.029 14.334 33.2539 14.4194 34.0556C14.4807 34.6315 14.5054 35.4337 14.5625 36.2241L13.9719 35.6796C14.3234 35.6816 14.6732 35.677 15.0009 35.6583C15.1346 35.6396 15.2683 35.6208 15.402 35.6021C15.3061 35.5604 15.2102 35.5187 15.1143 35.477C15.6514 35.4566 15.8826 35.542 16.3761 35.5427C16.9569 35.5436 17.253 35.4618 17.6438 35.4615C17.9639 35.4613 18.398 35.5258 18.8131 35.5211C19.4182 35.5144 19.2858 35.4205 19.6114 35.4023C19.7413 35.3952 22.1434 35.3392 22.2789 35.3383C23.3095 35.3328 23.3995 35.4616 24.2214 35.4715C26.5009 35.4984 28.8407 35.3904 30.9491 35.3475C31.8906 35.3283 32.873 35.3341 33.8118 35.3532C32.3337 35.6856 35.6065 35.9369 34.3818 35.4227C35.4264 35.4944 36.1668 35.3538 37.157 35.3757C37.7975 35.39 38.2408 35.4608 39.1553 35.4574C39.5101 35.456 39.8721 35.445 40.2262 35.4326C40.7171 35.4354 41.0666 35.8097 41.019 36.2983C40.948 37.5624 40.9051 38.7266 40.5862 39.0641C40.4804 40.9671 40.1999 42.5984 40.4618 43.3112C40.4376 43.8022 40.1324 45.0386 40.0569 45.585C40.046 45.6643 40.0262 45.8252 40.0004 46.043C39.9771 46.2822 39.7649 46.545 39.5338 46.6106C38.3639 46.9165 35.5153 47.6825 34.9827 47.8338C34.3536 48.0124 33.2532 48.3282 32.7324 48.51C32.2264 48.6861 31.8906 49.0004 31.1664 49.1188C31.0778 49.144 30.8563 49.1456 30.7681 49.1194C30.5702 49.035 30.3532 48.9185 30.1096 48.7553C28.7245 48.3885 28.2373 48.2361 26.97 47.8225C26.7406 47.7477 26.7306 47.684 26.5952 47.6448C26.3164 47.5643 25.8299 47.4688 25.3306 47.3301C24.5096 47.102 24.0765 46.8489 24.1156 47.0557C23.5672 46.9302 23.0187 46.8046 22.4703 46.679C22.4166 46.6522 22.3629 46.6254 22.3091 46.5985C22.0758 46.5293 21.8633 46.2703 21.8489 46.0273C21.865 45.8879 21.8811 45.7485 21.8973 45.609C21.8378 45.312 21.7784 45.0149 21.7189 44.7179C22.0137 45.0517 21.7126 42.9532 21.6028 43.6485C21.5863 42.5582 21.5697 41.4679 21.5532 40.3776C21.6463 40.4159 21.6744 40.2276 21.6636 39.9477L22.081 40.3381C21.4032 40.3188 20.1741 40.4904 20.3256 40.6092C20.201 40.609 20.0764 40.6087 19.9518 40.6085C18.8609 40.5264 17.8591 40.5935 16.5294 40.5384C15.1998 40.4833 15.3246 40.4532 14.9203 40.3111C14.7396 40.3158 14.559 40.3205 14.3783 40.3252L14.7818 39.8794C14.7983 40.0106 14.8149 40.1418 14.8315 40.2731C15.3825 41.8679 14.6825 41.6463 15.2596 44.414C15.1053 45.3321 15.4536 47.5224 15.6735 48.9759C15.6991 49.145 15.7467 49.1431 15.7839 49.3681C15.8743 49.9181 15.9548 51.3364 16.1025 51.2729C16.1049 51.5254 16.1074 51.7779 16.1098 52.0304L15.7236 51.5804C15.9505 51.6612 16.1774 51.742 16.4042 51.8227C16.8001 51.8959 17.196 51.969 17.5918 52.0422C17.6018 51.9953 17.6118 51.9485 17.6217 51.9016C18.3642 52.2612 19.6104 52.5174 20.2077 52.7114C20.3265 52.7502 20.3361 52.8208 20.7071 52.9349C21.1407 53.0686 21.9634 53.2603 22.4812 53.4149C22.7027 53.3964 22.9243 53.378 23.1458 53.3595C24.0909 53.5619 24.3715 53.8334 24.9169 53.9894C25.0151 54.0173 26.8225 54.4684 26.9207 54.4894C27.7246 54.6627 27.5401 54.4454 29.8327 55.072C30.2409 55.1837 30.5582 55.3242 30.928 55.4217C30.9814 55.4358 31.0438 55.4513 31.1135 55.4679L30.8083 55.4707C31.5797 55.2408 33.2142 54.6652 33.3266 54.5204C34.1562 54.4451 36.2528 53.8002 36.8866 53.6691C37.078 53.6297 37.1458 53.7095 37.7286 53.5689C38.201 53.4549 39.3861 53.0472 39.9831 52.8948C40.6169 52.7333 40.8633 52.7479 41.1471 52.675C41.4153 52.606 41.6439 52.4757 42.0075 52.3752C43.1428 52.0626 44.198 51.8775 45.0953 51.6306C45.4833 51.5239 45.8532 51.4042 46.2094 51.2787L45.8356 51.7272C45.8544 50.8417 45.8166 50.0146 45.828 49.223C45.8652 48.9457 45.9306 48.6758 45.9571 48.384C46.2869 44.7737 46.6871 40.7036 47.0526 37.0856C47.2221 35.406 47.855 31.2482 47.3244 32.3255C47.31 31.9545 47.5231 30.1483 47.7024 28.6552L48.4138 29.4333C47.5225 29.4065 46.7419 29.3817 46.4399 29.3807C45.6288 29.3781 44.9858 29.4556 44.3483 29.4568C42.4243 29.4602 41.0695 29.4043 38.7276 29.4718C38.1227 29.4894 37.4747 29.5813 37.1165 29.5802C36.685 29.5787 36.2207 29.4899 35.6618 29.4842C34.3295 29.4715 31.8465 29.5007 30.5683 29.4853C30.335 29.4823 30.253 29.4044 29.9192 29.38C28.6194 29.2848 27.1624 29.293 27.4202 29.542C25.7542 29.4006 24.213 29.5296 22.6691 29.5375C22.2089 29.5397 21.6954 29.5405 21.1448 29.5405C20.7255 29.5374 20.3657 29.2178 20.3273 28.8002C20.0977 26.4901 19.8172 23.5224 19.5564 21.1107C19.5093 20.5976 19.865 20.197 20.3802 20.2009C21.4603 20.1916 22.4302 20.1753 23.1829 20.1477C24.9761 20.0817 24.9302 19.97 27.5703 20.0664C28.1564 20.0877 28.7398 20.1165 29.4507 20.142C31.1168 20.202 32.6453 20.4083 33.9153 20.1597C35.7658 20.2242 37.2396 20.1785 38.6126 20.3911C38.7744 20.3401 38.9363 20.2891 39.0982 20.2381C39.325 20.2368 39.5519 20.2356 39.7788 20.2343C39.8495 20.283 39.9203 20.3316 39.9911 20.3802C41.6164 20.3933 43.6783 20.1934 45.0541 20.1949C45.9764 20.1958 47.4797 20.2087 49.0919 20.2282L48.2947 20.955C48.5466 18.5483 48.8356 15.899 48.9957 14.5956C49.0678 14.0088 49.0778 13.702 49.1065 13.4576L49.7865 14.2034C49.5491 14.1976 49.3679 14.1692 49.0414 14.0641C48.7817 14.079 48.5219 14.0939 48.2622 14.1088C48.0997 14.1557 47.9372 14.2025 47.7746 14.2494C46.2849 14.2513 44.5179 14.1785 43.0987 14.1792C40.5126 14.1807 36.6292 14.3097 34.0323 14.225C33.3811 14.2036 32.5671 14.107 31.9295 14.108C31.0014 14.1095 30.7758 14.27 29.5981 14.273C27.5683 14.2778 23.7881 14.0915 21.8695 14.1057C21.2997 14.1099 21.0338 14.1695 20.6404 14.1759C18.9905 14.2033 17.6359 14.1984 16.0538 14.2907C14.3551 14.1369 14.5018 13.9385 13.9754 13.7383C13.5764 13.5872 12.353 13.237 12.1794 13.1046C12.0574 13.0116 12.5129 12.892 12.3419 12.7897C14.3771 12.708 15.2322 12.7979 16.8848 12.9419C19.9367 12.9362 22.9887 12.9304 26.0406 12.9247C26.3183 12.9806 26.5959 13.0364 26.8736 13.0923C26.8736 13.0924 26.8736 13.0925 26.8736 13.0927C28.0456 13.1571 28.5424 13.0133 29.1745 12.9806C34.1443 12.7238 43.0658 12.843 49.7865 12.9133C50.162 12.9105 50.4229 13.2023 50.3911 13.5764C50.2411 15.0316 50.103 16.3831 49.9871 17.5683C49.9202 18.2526 49.8038 19.6774 49.6808 21.0833C49.6551 21.3863 49.396 21.618 49.0919 21.6203C47.5565 21.6279 46.0428 21.6257 45.5295 21.5784C45.2745 21.5548 45.2035 21.4687 44.9322 21.4649C42.508 21.5161 40.0839 21.5674 37.6597 21.6186C32.6747 21.4848 27.5212 21.5953 22.4982 21.6159C21.7919 21.6188 21.0859 21.6218 20.3802 21.6247L20.9733 20.9698C21.2393 23.5368 21.5052 26.099 21.7701 28.6568L21.1448 28.0906C30.286 28.0529 39.3707 28.0208 48.4138 28.0253C48.8416 28.0221 49.1397 28.3545 49.1047 28.7809C49.0059 29.8758 48.9067 30.9701 48.807 32.0637C48.5721 34.6365 48.3436 37.9075 48.0763 40.4228C47.9648 41.4725 47.7877 41.8982 47.7666 43.2885C47.7282 43.2997 47.6898 43.3109 47.6513 43.3221C47.5881 44.5313 47.6035 45.3091 47.4909 46.6612C47.396 47.7997 47.1315 50.8108 47.0271 51.8151C47.0265 51.8214 47.0258 51.8277 47.0252 51.8338C47.0043 52.0885 46.7744 52.3594 46.5287 52.4295C46.0445 52.555 46.2041 52.4402 45.7395 52.5695C44.9344 52.794 43.2394 53.3641 42.1281 53.6724C41.1213 53.9517 39.4027 54.3453 38.6318 54.5712C36.2588 55.2661 33.7192 56.0661 31.1713 56.7792C31.0849 56.8039 30.8621 56.8047 30.7749 56.7829C30.339 56.6718 29.9041 56.5583 29.4715 56.4421C28.6491 56.2211 27.6109 55.8605 27.352 55.7965C26.8463 55.6716 26.6741 55.7179 26.3324 55.6416C24.597 55.2536 21.9399 54.4618 20.2538 54.0234C18.6638 53.61 17.0455 53.1937 15.4157 52.7764C15.1519 52.7106 14.9101 52.4236 14.881 52.1533C14.4689 48.0856 14.0397 43.9525 13.6545 39.9921C13.6061 39.5418 13.9254 39.1958 14.3783 39.1924C14.4198 39.1925 14.4613 39.1926 14.5028 39.1927C16.5625 39.1986 19.4084 39.1959 22.081 39.2053C22.4584 39.2024 22.7659 39.4957 22.7939 39.8721C22.9179 41.8294 23.0291 43.694 23.0943 45.0882C23.1213 45.665 23.0548 45.653 23.0502 45.947L22.6432 45.4418C22.7068 45.466 22.7869 45.4927 22.8948 45.5239C23.5307 45.7075 23.8932 45.7446 24.1918 45.8253C25.8074 46.262 28.9449 47.1197 31.1572 47.7718L30.7732 47.7724C31.3933 47.595 31.9436 47.4428 32.3718 47.3329C32.745 47.2372 33.0342 47.2312 33.2554 47.1663C33.3674 47.1336 33.6061 47.0104 33.9563 46.9026C35.8834 46.3097 37.4922 45.8406 39.1686 45.3603L38.7032 45.9265C38.8028 44.8772 38.9077 43.8033 39.0212 42.6147C39.2174 40.5577 39.4086 38.3882 39.6002 36.1709L40.2285 36.8571C35.9158 36.8791 31.4238 36.9166 27.2175 36.8895C25.8281 36.8805 24.875 36.7332 24.6796 36.735C24.2509 36.7387 23.9766 36.8394 23.1083 36.8656C20.3545 36.9478 16.6894 36.8602 13.9739 36.8995C13.6459 36.9025 13.375 36.6479 13.3465 36.3211C13.3344 36.1903 13.3221 36.0618 13.3097 35.9357C13.1772 34.5853 12.9022 32.737 12.768 31.4083C12.6608 30.3472 12.5103 27.8329 12.4171 27.3662C12.3606 27.0822 12.242 26.9582 12.2011 26.616ZM40.1297 35.5394C40.0934 35.5726 40.1372 35.5941 40.2265 35.6064C40.61 35.6087 40.883 35.901 40.8458 36.2828C40.7595 36.6536 40.7612 37.8479 40.8902 37.2515C40.9196 37.1156 40.9488 36.529 40.9363 36.2909C40.979 35.8533 40.666 35.5181 40.2263 35.5155C40.1738 35.5231 40.1386 35.5312 40.1297 35.5394ZM46.6926 43.5788C46.6416 43.5926 46.5907 43.6064 46.5398 43.6202C46.5369 43.883 46.534 44.1459 46.5311 44.4088C46.5739 44.2647 46.6167 44.1207 46.6595 43.9766C46.6705 43.844 46.6815 43.7114 46.6926 43.5788Z" fill="#121212"/>
</svg>
