<svg width="62" height="60" viewBox="0 0 62 60" fill="none" xmlns="http://www.w3.org/2000/svg">
<path d="M2.44136 31.7502C2.49256 31.9611 2.48854 32.2734 2.5395 32.5251C2.75776 33.576 2.81943 33.9733 3.07464 34.915C3.34111 35.9931 4.4039 38.549 4.8373 39.7341L4.84591 39.7518C4.94377 40.0835 5.01197 40.3537 4.9147 40.4017C4.91469 40.4017 4.91468 40.4017 4.91467 40.4018C4.91077 40.4038 4.90663 40.4056 4.90222 40.4069C4.81784 40.4307 4.55985 40.1493 4.45036 40.1449C4.37397 40.1403 4.09716 40.2956 3.83791 40.2239L3.84316 40.2347C3.72556 40.2089 3.6123 40.139 3.52693 39.99C3.12252 39.3064 2.54005 37.4983 2.39996 37.1058C2.29473 36.8392 2.12126 36.5263 1.99387 36.1811C1.58856 35.0658 1.46222 34.4594 1.05928 33.4538C1.03994 33.0175 1.03017 32.5814 1.03054 32.148C0.885811 31.608 0.866317 30.7577 0.820419 30.4249C0.780852 30.151 0.698104 29.9971 0.665607 29.7098C0.629165 29.3868 0.654316 28.886 0.615561 28.2983C0.558437 27.3352 0.398379 27.1629 0.383136 26.5775C0.369677 25.9696 0.513392 25.0345 0.544585 24.2603C0.537123 24.1617 0.530272 24.0629 0.524042 23.964C0.473801 24.028 0.423818 24.0924 0.374098 24.1572C0.401414 23.7643 0.509827 23.6083 0.565956 23.2528C0.634019 22.8347 0.594189 22.6072 0.649408 22.3258C0.695093 22.0952 0.824851 21.7982 0.890912 21.5021C0.989266 21.0704 0.876297 21.1417 0.919171 20.9054C0.919889 20.8078 1.39698 19.101 1.44737 19.0113C1.70831 18.2949 1.85636 18.2832 2.104 17.7335C2.69534 16.4432 3.35201 15.1409 4.09594 13.9993L4.12665 13.958C4.26417 13.7709 4.40044 13.5866 4.53554 13.4062C4.93495 12.8727 5.37197 12.3322 5.80017 11.8239C5.40999 12.8492 7.0476 11.1924 6.10553 11.5514C6.62156 11.0172 6.83728 10.5198 7.29035 9.98483C7.58349 9.63893 7.83417 9.43734 8.23407 8.92864C8.26803 8.88541 8.30178 8.8417 8.33532 8.79765L9.62814 9.63441C9.14825 10.5888 8.8947 11.6767 8.46154 11.8378C8.0543 13.0805 7.64686 14.1552 7.8564 14.6857C7.79529 15.0133 7.43686 15.818 7.3541 16.1908C7.23074 16.5318 6.90284 19.2752 6.93566 19.733C6.92289 20.1854 6.93781 20.9792 6.98978 21.3582C7.05389 21.8384 7.40642 22.1325 7.11223 23.0212C7.26785 24.0028 7.31598 24.3513 7.45094 25.268C7.47669 25.4337 7.42371 25.4643 7.44423 25.5602C7.4867 25.7578 7.60433 26.0839 7.69687 26.4316C7.84926 27.0034 7.82803 27.3617 7.98989 27.2471C8.12604 27.6134 8.26963 27.9767 8.42016 28.3361C8.42802 28.4769 8.43696 28.6179 8.44698 28.7592C8.55189 28.9436 8.65861 29.1265 8.76716 29.308C8.42194 29.1736 9.10034 30.489 9.07305 29.9863C9.29722 30.7065 9.54965 31.4201 9.82962 32.1252C9.49565 32.1704 10.5575 33.6257 10.6402 33.405C10.6814 33.4807 10.723 33.5562 10.765 33.6315C11.0641 34.3305 11.4793 34.8916 11.9438 35.6884C12.4153 36.4826 12.3492 36.4243 12.3968 36.7373C12.4466 36.8011 12.4967 36.8645 12.547 36.9278C12.5854 36.9779 12.6205 37.0233 12.6555 37.0688C12.7023 37.1269 12.7532 37.1902 12.8043 37.2533C13.215 37.5332 13.3488 37.7332 13.4646 37.9721C13.5664 38.1747 13.6588 38.4123 13.9144 38.7453C13.9774 38.8245 14.0422 38.9097 14.1092 38.98C14.2528 39.134 14.4316 39.3039 14.66 39.4929C14.7027 39.6069 14.7748 39.735 14.8695 39.8722L14.8351 39.8395C14.8476 39.8529 14.8603 39.8663 14.8732 39.8799L14.9133 39.9192C14.9176 39.9256 14.9219 39.932 14.9263 39.9384L14.9192 39.9304C15.1021 40.1827 15.3587 40.4594 15.645 40.7278C15.7315 40.8125 15.8157 40.8931 15.9007 40.9731C16.1143 41.1625 16.3461 41.354 16.5613 41.5441L16.5518 41.5348C16.6439 41.6099 16.7334 41.6825 16.8187 41.7519C16.835 41.764 16.856 41.7805 16.8767 41.7967C16.972 41.8716 17.0054 41.8378 17.1345 41.9351C17.286 42.0498 17.5271 42.2758 17.7453 42.4645L17.7621 42.4805C17.7629 42.4813 17.7638 42.4821 17.7646 42.4829L17.7416 42.4613C17.9751 42.6561 18.1852 42.8023 18.2226 42.7304C18.3678 42.8884 18.5153 43.0448 18.665 43.1994C18.7536 43.2905 18.8419 43.3814 18.9303 43.4723C18.9376 43.4789 18.9403 43.4818 18.943 43.4847C19.1636 43.6299 19.3977 43.7701 19.6392 43.9249L19.6255 43.9145C19.6322 43.9185 19.639 43.9224 19.6458 43.9264C19.6729 43.887 19.7 43.8475 19.7271 43.8081C19.7997 43.9035 19.901 44.0045 20.02 44.1228L19.2901 45.0861C19.272 45.0696 19.2536 45.0532 19.235 45.0368L19.9381 44.0738C20.1686 44.2903 20.448 44.4921 20.6885 44.6604C20.797 44.7369 20.8716 44.7959 20.9236 44.8331L20.9415 44.8452C20.9875 44.8804 21.0295 44.9133 21.0665 44.9441C21.1324 44.9984 21.1093 45.0647 21.3222 45.2258C21.406 45.289 21.5187 45.364 21.6439 45.4421L21.1717 46.1797C21.1667 46.1763 21.1617 46.1729 21.1567 46.1696L21.6563 45.4505C21.7448 45.5155 21.8417 45.5803 21.9392 45.6411L21.484 46.3868C21.4309 46.3546 21.3783 46.3224 21.3272 46.2907L21.7866 45.5507C21.8834 45.6141 21.975 45.6751 22.0538 45.7305C22.2169 45.7464 22.3798 45.7609 22.5424 45.7742C22.8047 45.9131 22.9725 46.044 23.1073 46.1663C23.1776 46.2348 23.2747 46.3155 23.3871 46.4228L23.3326 46.3891C23.4102 46.4555 23.4885 46.5176 23.5823 46.5739C23.612 46.591 23.885 46.7426 24.1631 46.8872L23.7217 47.7437C23.705 47.7356 23.6882 47.7274 23.6715 47.7193L24.1201 46.8653C24.3032 46.964 24.4911 47.0547 24.6143 47.1104L24.6274 47.1169C24.7054 47.1553 24.7571 47.1808 24.7695 47.1863C25.0316 47.3033 25.1436 47.3074 25.358 47.3641L25.389 47.3797C25.4542 47.3993 25.5301 47.4238 25.6262 47.455L25.1132 48.6155C25.0149 48.5817 24.8993 48.5384 24.76 48.4816L25.3102 47.2936C25.4961 47.377 25.726 47.4858 26.0184 47.6268C26.2049 47.7168 26.3566 47.8166 26.5154 47.9054L26.4922 47.8958C26.6021 47.9477 26.661 47.9833 26.6748 47.987C26.675 47.9871 26.6753 47.9872 26.6755 47.9872L26.7335 48.0094C26.9515 48.1087 27.4058 48.2682 27.8233 48.3835L27.7503 48.359C27.7597 48.3605 27.7692 48.362 27.7786 48.3635L27.8206 48.3764C27.9261 48.4019 28.0283 48.4298 28.1242 48.4581L28.1014 48.4489C28.3912 48.5179 28.613 48.5528 28.6669 48.5251C28.7713 48.5992 28.9209 48.6785 29.0938 48.7538L29.1247 48.765C29.1733 48.7883 29.2237 48.8119 29.2756 48.8355L28.7856 50.253C28.7101 50.225 28.6317 50.197 28.5516 50.1693L29.01 48.7652C29.5956 48.9965 30.2863 49.1888 30.5519 49.2918C30.5749 49.3009 30.5939 49.3117 30.6119 49.324C30.7008 49.3821 30.7674 49.4716 31.0899 49.5845C31.2324 49.6339 31.4787 49.6952 31.7325 49.74C32.069 49.7994 32.4379 49.856 32.669 49.9091C33.1129 50.0113 33.259 50.1175 33.4592 50.1592C33.6482 50.1979 33.8349 50.1646 34.0942 50.2065C34.9024 50.3377 35.6287 50.5308 36.2762 50.5959C37.213 50.6899 38.0534 50.5447 38.8333 50.4788C39.0266 50.4958 39.2162 50.5397 39.4191 50.5413C41.9314 50.5726 44.768 50.2904 47.209 49.6757C48.3533 49.4464 51.157 48.6035 50.2687 48.4873C50.6289 48.3092 53.3117 47.1448 53.7622 46.7996C54.2341 46.5031 54.5519 46.1879 54.9023 45.9301C55.9506 45.1422 56.7041 44.5821 57.7537 43.3725C58.0209 43.0599 58.241 42.663 58.3951 42.4784C58.539 42.3071 58.7293 42.155 58.9171 41.9558L60.2665 42.7053C60.2166 42.8129 60.1898 42.8621 60.1424 42.9723C59.762 43.8793 58.9138 45.4852 58.3924 46.2572C58.2992 46.3986 58.1976 46.4133 58.0447 46.6024C57.4552 47.3351 56.8227 48.1772 57.1317 48.1813C56.293 49.0591 55.6672 49.9857 54.8843 50.8109C53.3036 52.5981 49.7458 55.1402 47.9136 56.1195C46.7607 56.7704 46.8499 56.8836 45.0185 57.5091C44.6085 57.6421 44.1895 57.7613 43.6958 57.8955C42.5068 58.2192 41.3955 58.2807 40.5426 58.71C39.2088 58.9165 38.1636 59.0984 37.1366 58.9845C37.0277 59.046 36.9177 59.1071 36.8067 59.1677C36.6452 59.1826 36.4827 59.1965 36.3192 59.2092C36.2648 59.1643 36.2104 59.1192 36.1563 59.0741C34.9647 59.1441 33.4912 59.3511 32.5033 59.3108C31.1487 59.2843 28.1992 58.945 26.2597 58.5148C25.6893 58.3887 25.3027 58.2184 25.027 58.1258C25.0199 58.1233 25.0129 58.1208 25.006 58.1184L25.0297 58.1251C24.8859 58.0818 24.7991 58.0485 24.745 58.0336L24.7308 58.0295C24.211 57.8669 24.1076 57.8821 23.7799 57.5801C23.7189 57.5649 23.6581 57.5496 23.5974 57.5343L23.5879 57.531C23.5451 57.5194 23.5022 57.5078 23.4593 57.4961C23.3852 57.4765 23.309 57.4558 23.2329 57.4349C23.1072 57.4392 22.9816 57.443 22.8561 57.4464C22.6954 57.3872 22.5316 57.3239 22.3661 57.2582C22.2458 57.2105 22.1661 57.1736 22.1568 57.1702L22.0988 57.1504C21.7288 56.9969 21.3548 56.8266 20.9928 56.655L20.9426 56.6306C20.9274 56.6196 20.8922 56.6022 20.8162 56.569C20.475 56.4108 20.1493 56.253 19.845 56.0996C19.8184 56.0862 19.7932 56.0734 19.7693 56.0615C19.7173 56.0354 19.6703 56.0124 19.6268 55.993L20.3658 55.859C20.3625 55.8623 20.3592 55.8657 20.3558 55.8691L19.9955 56.2218L19.5694 55.9792C19.5747 55.9826 19.5767 55.9821 19.5444 55.9722L19.4376 55.9276C19.2493 55.8306 19.0476 55.7285 18.8352 55.6141L18.8629 55.6288C18.7211 55.5607 18.5533 55.4867 18.3675 55.3859L18.3876 55.3968C18.1009 55.2538 17.8155 55.1014 17.5317 54.9464L17.5133 54.9355C17.4339 54.8896 17.3463 54.8444 17.2562 54.8021L17.2075 54.7753C16.8348 54.5611 16.4534 54.3404 16.0823 54.1089L16.0706 54.1013C15.9692 54.0353 15.8685 53.9696 15.7687 53.9041C15.5327 53.752 15.2973 53.5982 15.0712 53.4475L15.0174 53.4086C14.9933 53.3892 14.9693 53.3698 14.9454 53.3505L15.0061 53.3937C14.8931 53.3201 14.7972 53.2491 14.7125 53.1862C14.5258 53.047 14.3382 52.9083 14.16 52.7663C14.1082 52.725 14.055 52.6804 14.001 52.6331C13.8939 52.5374 13.7883 52.4377 13.6819 52.3371C13.4847 52.148 13.2669 51.9514 13.0599 51.7818L13.049 51.7728C13.0374 51.7628 13.0257 51.753 13.0141 51.7433C12.9071 51.6538 12.8127 51.5842 12.7241 51.5251L12.741 51.5387C12.4446 51.352 12.2167 51.261 11.8498 50.9741C11.8019 50.9362 11.7531 50.8964 11.7014 50.8528L11.8609 50.96C11.6378 50.7727 11.5507 50.9147 12.1845 51.0321L11.8991 51.029L11.6961 50.8518C11.6769 50.8359 11.6574 50.8194 11.6376 50.8025C11.3917 50.592 11.1184 50.3303 10.8358 50.0477C10.7494 49.9597 10.6679 49.8758 10.5851 49.7903C10.3822 49.5854 10.1788 49.3628 9.98093 49.1419C9.98364 49.1444 9.98045 49.1409 9.97726 49.1374L10.0205 49.1771C9.60823 48.8025 9.23606 48.376 8.92571 47.955L8.89477 47.9126C8.9617 47.9292 8.9981 48.2865 8.7787 47.5503L8.93728 47.9647C8.67279 47.6462 8.41047 47.3381 8.18288 47.0553L8.1995 47.0745C8.09967 46.9607 8.03429 46.8708 7.98628 46.8166L7.97609 46.8046C7.94217 46.7635 7.9091 46.7238 7.87696 46.6856C7.66835 46.4378 7.52037 46.3199 7.37587 46.1739L7.35419 46.1461C7.3245 46.1135 7.29274 46.0771 7.25829 46.0337C7.21602 45.9805 7.17089 45.9234 7.1241 45.8599L7.14972 45.8936C6.92401 45.6267 6.72323 45.3672 6.53161 45.1177L6.54136 45.1305C6.2357 44.7514 5.95699 44.3694 5.67667 43.9787L5.70453 44.019C5.60697 43.8979 5.53059 43.7867 5.46809 43.7078L5.45096 43.6809C5.39186 43.5984 5.32508 43.5112 5.2522 43.4173C5.17021 43.2477 5.09804 43.0893 5.04471 42.9461L5.07185 42.9889C4.97372 42.7784 4.94022 42.6358 4.92197 42.5272C4.87118 42.2215 4.95292 42.1173 4.94157 41.8552C4.939 41.7982 4.93239 41.7219 4.92355 41.6342C4.91362 41.4923 4.89725 41.3228 4.89251 41.1587C4.87814 41.0639 4.86898 40.9763 4.87668 40.9064L4.86859 40.8909C4.85217 40.68 4.86912 40.5163 4.89995 40.4586C4.95508 40.3583 5.17547 40.5418 5.22439 40.4081C5.26357 40.4744 5.306 40.5409 5.35078 40.6096L5.38301 40.6713C5.39187 40.683 5.42414 40.7332 5.46692 40.7973L5.49918 40.8553C5.56069 40.9678 5.62906 41.0851 5.69727 41.2107L5.68172 41.1833C5.82484 41.4229 5.94459 41.6408 6.05406 41.8553C6.12157 41.988 6.17313 42.0985 6.22393 42.1968L6.2514 42.2401C6.34044 42.4444 6.46482 42.6769 6.60655 42.9802L6.59256 42.9582C6.63205 43.0344 6.66492 43.1044 6.695 43.1664C6.71378 43.1939 6.7316 43.219 6.74903 43.2423L6.77135 43.2745C7.01429 43.6503 7.26615 44.011 7.53738 44.3583L7.54576 44.3693C7.73452 44.6238 7.9223 44.8715 8.11625 45.1089L8.13897 45.1388C8.19594 45.2186 8.26791 45.3094 8.34631 45.4151L8.32665 45.3899C8.51142 45.6127 8.69618 45.8356 8.88094 46.0584L8.87068 46.0463C8.96158 46.1513 9.02273 46.2323 9.07112 46.2846L9.08779 46.3038C9.3235 46.5861 9.57971 46.8655 9.84053 47.1549L9.98935 47.3174L9.99182 47.5503C9.78485 46.862 9.83425 47.2113 9.90489 47.2392L9.87541 47.1988C10.1259 47.5116 10.3984 47.8021 10.6939 48.0651C10.73 48.1253 10.7672 48.1852 10.8056 48.2448L10.8392 48.2756C10.8416 48.2799 10.844 48.2842 10.8464 48.2885C10.909 48.4009 10.9668 48.508 11.025 48.6142C11.0249 48.6143 11.0248 48.6144 11.0247 48.6145C11.1472 48.7587 11.2607 48.8743 11.3673 48.9698C11.4656 49.06 11.5546 49.1336 11.6387 49.1987C11.8715 49.3731 12.0686 49.4822 12.2642 49.6325C12.3577 49.7043 12.4535 49.7773 12.5517 49.8507L12.1845 49.7152C12.6678 49.8018 12.6117 49.9203 12.4502 49.7815L12.5703 49.8623C12.6198 49.9006 12.6698 49.9394 12.7203 49.9788C12.969 50.1713 13.2283 50.373 13.4994 50.5676L13.5167 50.5816C13.6225 50.6637 13.7298 50.7475 13.8385 50.833L13.8267 50.8233C14.0243 50.9705 14.2457 51.1224 14.4813 51.2954C14.5935 51.3771 14.7087 51.4614 14.825 51.5468C15.039 51.7011 15.2799 51.8612 15.5334 52.0381C15.6203 52.0986 15.6992 52.1532 15.7704 52.1974L15.8276 52.2382C15.8519 52.2571 15.8762 52.276 15.9006 52.295L15.8499 52.2583C16.0823 52.4075 16.3177 52.5595 16.5554 52.7137C16.66 52.7828 16.7603 52.8492 16.8609 52.9159L16.8498 52.9086C17.1976 53.13 17.56 53.3492 17.9312 53.5745L17.8832 53.5481C18.0033 53.6087 18.1224 53.674 18.2435 53.749L18.2253 53.7382C18.4914 53.8926 18.7569 54.0442 19.0212 54.1852L19.0416 54.1963C19.1595 54.2649 19.304 54.3348 19.4681 54.4183L19.4965 54.4333C19.6766 54.5365 19.8659 54.6384 20.0597 54.7427L19.9501 54.6969C20.0184 54.719 20.1199 54.7561 20.218 54.8118L19.4115 54.9247C19.4149 54.9214 19.4183 54.9181 19.4216 54.9148L19.7443 54.5853L20.1793 54.7774C20.2797 54.8242 20.3667 54.8704 20.4406 54.9084C20.7328 55.0589 21.0336 55.2003 21.3383 55.3365C21.3823 55.356 21.4751 55.3922 21.5788 55.449L21.5306 55.4255C21.8861 55.587 22.24 55.7402 22.592 55.8833L22.5404 55.8657C22.7017 55.9168 22.7898 55.9636 22.8438 55.9837C23.1915 56.121 23.529 56.253 23.8596 56.3762C23.9037 56.3927 23.9451 56.4084 23.9865 56.424L23.976 56.4203C24.3623 56.5583 24.7366 56.6881 25.1003 56.8034L25.0878 56.7997C25.2086 56.8354 25.2936 56.8666 25.3563 56.8841L25.3769 56.8899C25.8082 57.0279 26.1722 57.1642 26.496 57.2274C26.7764 57.2814 27.0472 57.3305 27.3048 57.3746C28.2871 57.5773 31.5234 57.8281 32.2227 57.9151C32.3987 57.9463 32.4447 58.0343 32.6321 58.0444C34.3321 58.049 36.0206 57.9378 37.6862 57.692C41.1443 57.4319 44.6123 56.2898 47.6496 54.5961C52.6518 51.8353 56.7171 47.3031 58.8978 42.1952L60.0734 42.8482C57.7511 45.8978 54.58 48.2553 51.0859 49.7207C49.3612 50.4666 47.0735 51.1867 45.2566 51.455C44.4987 51.5681 44.1675 51.4828 43.1849 51.6989C43.1704 51.6629 43.1559 51.627 43.1415 51.5911C42.279 51.726 41.7278 51.8527 40.7484 51.8973C39.9242 51.9507 37.7402 51.9023 37.0167 51.8169C36.6406 51.7808 36.7862 51.7227 36.4362 51.6925C35.8386 51.6445 34.5479 51.586 33.728 51.4461C33.0858 51.3437 32.0837 51.0869 31.4598 50.9336C31.3507 50.907 31.2564 50.8828 31.1758 50.8631C30.8529 50.784 30.5427 50.6949 30.2409 50.6167C29.6805 50.4749 29.1073 50.3151 28.5335 50.1344L28.9748 48.7827C29.0546 48.8044 29.1345 48.8262 29.2145 48.848L28.7453 50.2054C28.6931 50.187 28.6408 50.1685 28.5886 50.1499L28.6179 50.1606C28.2593 50.0501 27.9142 49.9257 27.581 49.8059L27.5567 49.7961C27.4906 49.7701 27.4237 49.7462 27.3561 49.7246L27.4034 49.7392C27.3942 49.7369 27.385 49.7345 27.3758 49.7322L27.2931 49.7044C26.9212 49.5626 26.55 49.4117 26.1834 49.2495L26.259 49.2783C26.1012 49.2257 26.0176 49.1792 25.9977 49.1734L25.9681 49.1613C25.7857 49.0811 25.6046 48.9985 25.4251 48.9135C25.1918 48.803 24.938 48.6637 24.7102 48.5316L25.3162 47.2233C25.436 47.2875 25.5492 47.3492 25.649 47.4034L25.0904 48.6671C24.9661 48.6016 24.8629 48.5398 24.7864 48.4936L24.8211 48.511C24.7801 48.4892 24.7473 48.472 24.7235 48.4609C24.3907 48.3033 24.2542 48.3155 24.0558 48.2357L24.0763 48.2458C24.062 48.2404 24.0474 48.2345 24.0324 48.2281C23.8654 48.1564 23.6892 48.0718 23.5083 47.9748L24.238 46.586C24.2547 46.5941 24.2715 46.6022 24.2883 46.6104L23.5689 48.0063C23.2825 47.858 22.9978 47.6917 22.7188 47.5362L22.6369 47.4857C22.6152 47.4671 22.5372 47.4218 22.4265 47.3576C21.9851 47.0894 21.5533 46.8079 21.1552 46.5393L21.9331 45.2862C21.9853 45.3195 22.037 45.3525 22.0882 45.3851L21.3245 46.6364C21.2018 46.557 21.085 46.4752 20.9747 46.3925L21.8018 45.2021C21.8067 45.2056 21.8116 45.209 21.8166 45.2124L21.0354 46.4326C20.8738 46.3294 20.7219 46.2293 20.5814 46.1356C20.4573 46.0528 20.334 45.9681 20.2118 45.8816L20.235 45.8973C20.1162 45.8196 20.0327 45.7541 19.9694 45.7111C19.6937 45.5222 19.4197 45.3254 19.1494 45.1219L19.9932 43.9664C20.0132 43.9806 20.0332 43.9948 20.0532 44.0089L19.1895 45.1488C19.1067 45.0817 19.003 45.0075 18.8865 44.9222L18.8681 44.9083C18.6583 44.7438 18.4283 44.5736 18.1935 44.3821C18.1024 44.3098 18.004 44.2317 17.9054 44.1534C17.5827 43.8976 17.2648 43.6333 16.9529 43.3614L16.9181 43.3288C16.9173 43.328 16.9165 43.3271 16.9156 43.3263L16.941 43.3505C16.6514 43.0889 16.3614 42.8271 16.0713 42.5653L16.0621 42.5568C15.9785 42.4787 15.895 42.4006 15.8114 42.3225L15.7923 42.3038C15.5994 42.1097 15.39 41.9137 15.1749 41.7048L15.1609 41.6908C15.0798 41.6076 14.9987 41.5245 14.9177 41.4414L14.928 41.4518C14.6598 41.1874 14.3983 40.9168 14.1442 40.6405L14.1282 40.6224C14.1232 40.6166 14.1182 40.6107 14.1132 40.6049L14.2033 40.6933C14.1891 40.6817 14.175 40.67 14.1608 40.6584L14.0851 40.5864C13.8148 40.2906 13.5492 39.9918 13.2888 39.6904C13.1996 39.5874 13.1363 39.5035 13.0846 39.4432C12.8885 39.2057 12.6994 38.9764 12.5111 38.7477L12.503 38.7377C12.2407 38.4074 11.9861 38.0738 11.7395 37.7376L11.7325 37.728C11.709 37.6947 11.6854 37.6615 11.6618 37.6282C11.6523 37.6148 11.6427 37.6012 11.6331 37.5876L11.6392 37.5961C10.0558 35.5378 8.06002 31.7392 7.3887 29.4577C7.23272 28.9675 7.36843 29.066 7.2338 28.6574C7.08726 28.2038 6.95282 27.9737 6.88518 27.7604C6.36928 26.2996 5.72119 22.9139 5.76127 21.4367C5.75881 21.1567 5.82681 20.9519 5.8214 20.7853C5.81891 20.701 5.76183 20.5114 5.75397 20.2457C5.70362 17.9004 5.93196 16.1757 6.49648 13.9441C6.92363 12.3085 7.54154 10.616 8.38057 8.9853L9.43842 9.66998C8.07957 11.4073 6.69093 13.1907 5.32528 14.9059L5.34828 14.875C4.97936 15.3988 4.63943 15.9306 4.32552 16.4697C3.84813 17.2908 3.44731 17.8291 3.39076 17.9529C3.27192 18.2245 3.2829 18.4363 3.08556 18.9992C2.40896 20.8602 1.7502 23.4715 1.69305 25.3715C1.64607 26.307 1.77005 27.5906 1.85724 28.5006C1.90554 29.2291 2.07606 30.9517 2.19726 31.2615C2.26319 31.4506 2.38535 31.5215 2.44136 31.7502ZM9.323 10.0488C9.21727 9.8518 8.77409 11.162 9.07286 10.7309C9.13747 10.633 9.3467 10.0985 9.323 10.0488ZM42.8044 50.6891C42.7867 50.6411 42.7691 50.5932 42.7516 50.5452C42.5722 50.5836 42.3916 50.6204 42.2118 50.6556C42.3164 50.677 42.4209 50.6979 42.5265 50.7182C42.6193 50.7089 42.7119 50.6992 42.8044 50.6891ZM23.2145 29.0832C23.2243 29.0764 23.1718 29.1144 23.1691 29.1166C23.1575 29.1261 23.1212 29.1526 23.101 29.1682C23.0709 29.1913 23.1426 29.145 22.7761 29.407C22.7761 29.407 22.7761 29.4071 22.7761 29.4071C22.7725 29.4096 22.7689 29.4122 22.7652 29.4149C22.6954 29.4648 22.6189 29.519 22.5399 29.5754C22.4609 29.6319 21.951 29.9965 21.922 30.0166C21.8838 30.0431 22.0136 29.9482 22.0076 29.952C22.0034 29.9547 21.9569 29.9876 21.9485 29.9932C21.9213 30.0113 21.9549 29.9866 21.8284 30.0758C21.8945 30.0281 21.9607 29.9803 22.0268 29.9326C21.9958 29.9542 22.0828 29.891 22.0778 29.8942C22.0737 29.8968 22.0212 29.9342 22.0186 29.9357C22.0154 29.9377 22.0718 29.8968 22.0629 29.9025C22.0487 29.9116 21.9117 30.0093 21.894 30.0213C21.8757 30.0338 21.9496 29.9799 21.9011 30.0138C21.8859 30.0245 21.8708 30.0352 21.8557 30.0459C21.8217 30.0703 21.7877 30.0947 21.7536 30.1191C21.7376 30.1301 21.8073 30.0801 21.8084 30.0789C21.8097 30.0775 21.7434 30.1247 21.7436 30.1243C21.7438 30.1239 21.7967 30.0857 21.7932 30.0879C21.7884 30.0908 21.7118 30.1457 21.6973 30.1557C21.6917 30.1597 21.6485 30.1886 21.6479 30.189C21.6445 30.1906 21.7493 30.1156 21.7582 30.1086C21.7823 30.0895 21.6967 30.1489 21.6639 30.1707C21.6492 30.1804 21.6549 30.1755 21.6713 30.163C21.9403 29.9719 22.1479 29.8209 21.7284 30.1218C21.7878 30.0785 21.6741 30.1592 21.6929 30.145C21.7052 30.1357 21.7633 30.0938 21.7614 30.0944C21.7577 30.0958 21.5915 30.2132 21.8905 29.999C21.8371 30.0357 21.945 29.9573 21.6806 30.1458C21.6643 30.157 21.8211 30.0439 21.8423 30.0283C21.8622 30.0137 21.9317 29.9608 21.9355 29.9576C21.9392 29.9544 21.9431 29.9507 21.9197 29.967C21.8908 29.9871 21.6167 30.1827 21.9365 29.9531C21.91 29.9709 21.919 29.964 21.9557 29.9367C21.9623 29.9318 22.0099 29.8978 22.0098 29.8977C22.0097 29.8975 21.9744 29.9224 21.9699 29.9252C21.9626 29.9298 22.0625 29.858 21.9097 29.9673C21.8839 29.9853 21.858 30.0033 21.8322 30.0213C21.8616 30.0002 21.891 29.979 21.9204 29.9578C21.8882 29.9806 21.8559 30.0034 21.8237 30.0262C22.0449 29.8683 21.9137 29.9605 21.787 30.0516C21.8324 30.0183 21.8777 29.985 21.923 29.9518C22.1744 29.7721 21.9511 29.9298 21.8146 30.0276C21.8147 30.0274 21.8149 30.0272 21.815 30.0269C21.8814 29.9786 21.8264 30.0172 21.8708 29.9844C21.9151 29.9516 21.9396 29.9342 22.055 29.8513C22.0483 29.8559 22.0416 29.8605 22.0348 29.8651C21.7173 30.0908 22.2661 29.6986 22.0219 29.871C22.2208 29.7281 22.1153 29.8017 22.0544 29.8441C22.0473 29.8491 22.0086 29.8767 21.9966 29.8851C21.9678 29.9053 22.0169 29.869 21.8922 29.9582C21.9281 29.9322 21.964 29.9061 21.9999 29.88C21.9771 29.896 21.9543 29.912 21.9315 29.928C21.8925 29.9559 21.8536 29.9837 21.8147 30.0115C21.947 29.9163 21.8956 29.952 21.9271 29.929C21.9334 29.9244 21.9871 29.886 22.0016 29.8753C22.0188 29.8626 22.0026 29.8735 22.0192 29.8613C21.9597 29.9037 21.9001 29.9461 21.8405 29.9885C21.8079 30.0111 21.9648 29.8986 21.9768 29.8896C21.9788 29.8881 21.9669 29.8951 21.9635 29.8975C21.9366 29.916 21.8029 30.0118 21.8307 29.9901C21.8357 29.9861 21.8819 29.9529 21.8836 29.9513C21.8867 29.9486 21.781 30.0226 21.6839 30.0918C21.805 30.0046 21.7545 30.0389 21.7894 30.0135C21.8001 30.0057 21.8774 29.9504 21.8936 29.9383C21.9069 29.9285 21.8445 29.9721 21.8546 29.9643C21.8656 29.9559 21.9305 29.9094 21.935 29.9059C21.9392 29.9027 21.8866 29.9401 21.8868 29.9397C21.8882 29.9377 21.9722 29.8768 21.9734 29.8752C21.9734 29.8752 21.9734 29.8752 21.9734 29.8752L22.7343 29.3177C22.7346 29.3185 22.886 29.2058 22.9537 29.1559C22.9439 29.1634 22.9112 29.1882 22.9111 29.1886C22.9077 29.194 22.8811 29.2173 22.8499 29.2437C22.8355 29.2558 22.63 29.4135 22.9752 29.1534C23.036 29.1083 22.8983 29.2151 22.8965 29.2171C22.8947 29.2191 22.9569 29.1729 22.9581 29.1725C22.9615 29.1715 22.9174 29.2057 22.9723 29.1664C22.9866 29.1561 23.0603 29.1013 23.0596 29.1022C23.0586 29.1033 22.9877 29.1569 22.9834 29.1605C22.9738 29.1689 22.9981 29.1526 22.9863 29.1625C22.984 29.1644 22.9217 29.2113 22.9023 29.2261C22.8266 29.2839 22.8338 29.2797 23.0328 29.1301C22.9204 29.2159 23.0241 29.1392 23.031 29.1353C23.0401 29.1302 23.0254 29.1438 23.0355 29.1384L23.0553 29.1659C23.0611 29.1631 23.0753 29.1545 23.1069 29.1335C23.162 29.0971 23.2539 29.0337 23.1755 29.0898C23.1581 29.1022 23.1346 29.1188 23.1139 29.1337C23.0651 29.1686 22.8957 29.2863 23.1009 29.1461C23.0485 29.1836 23.0867 29.1585 22.9121 29.2797C22.9541 29.2509 22.9962 29.2221 23.0383 29.1933C23.0394 29.1927 23.0405 29.1921 23.0416 29.1915C23.0016 29.2191 22.9616 29.2467 22.9215 29.2743C22.9113 29.2826 23.0767 29.1704 23.076 29.1719C23.075 29.1745 23.0132 29.2216 22.96 29.26C22.9317 29.2804 23.0175 29.2214 22.8414 29.3431C22.8538 29.3348 22.8661 29.3265 22.8785 29.3182C22.9172 29.2917 22.9559 29.2652 22.9945 29.2387C22.9966 29.2384 22.9373 29.2806 22.9384 29.281C22.9406 29.2815 23.0483 29.2104 22.9795 29.2599C22.9621 29.2723 22.8828 29.3276 22.8839 29.3273C22.8855 29.3269 23.0177 29.2361 23.0206 29.235C23.0254 29.2333 22.8732 29.341 22.8857 29.3339C22.8893 29.3319 22.9385 29.2982 22.9439 29.2948C22.9671 29.2802 22.9636 29.2836 23.0401 29.2322C22.9141 29.3203 22.7506 29.4327 22.5859 29.5464C22.4615 29.6323 22.1735 29.8315 22.0645 29.9066C21.988 29.9594 21.8893 30.027 21.805 30.0851C21.7369 30.1303 21.8107 30.0789 21.9287 29.9964C21.9229 29.998 21.9171 29.9996 21.9112 30.0012C21.9571 29.9694 22.0031 29.9376 22.049 29.9058C22.0491 29.9057 22.0492 29.9056 22.0493 29.9056C22.102 29.8684 21.9833 29.9497 21.9561 29.9679C21.6963 30.1419 21.8936 29.9968 21.9201 29.9733C21.9258 29.9683 21.8621 30.0085 21.9365 29.9565C21.9558 29.943 22.0268 29.8941 22.0298 29.8919C21.9867 29.9196 21.9436 29.9474 21.9005 29.9751C22.0089 29.8966 21.916 29.9565 21.8971 29.9655C21.8929 29.9675 21.8887 29.9696 21.8844 29.9717L21.8988 29.9918C21.8521 30.0169 21.8028 30.0439 21.8132 30.0262C21.8155 30.0224 21.7626 30.0594 21.7949 30.0331C21.8083 30.0222 21.9187 29.9389 21.8358 30.0001C21.8656 29.9777 21.8954 29.9553 21.9252 29.933C21.8887 29.9593 21.8206 30.0099 21.8132 30.0143C21.807 30.018 21.8014 30.0198 21.8124 30.0107C21.8179 30.0062 21.8737 29.9645 21.8732 29.9644C21.8731 29.9644 21.8718 29.9653 21.8697 29.9668L22.8528 29.2464C22.8684 29.236 22.9295 29.1935 22.9299 29.194C22.9303 29.1946 22.8657 29.2421 22.8755 29.2358C22.9101 29.2133 23.008 29.1458 22.9833 29.166C22.9762 29.1717 22.9032 29.2248 22.9053 29.2235C22.9098 29.2207 22.9812 29.1697 22.9905 29.1634C23.0376 29.1311 22.9538 29.1932 22.9511 29.1966C22.9423 29.2074 22.9757 29.1883 22.9647 29.2006C22.9578 29.2084 22.9726 29.2025 22.9201 29.2427C22.9088 29.2513 22.8306 29.3071 22.8308 29.3074C22.831 29.3078 22.884 29.2702 22.8884 29.2673C22.9191 29.2471 22.9742 29.2114 22.921 29.251C22.9108 29.2586 22.8496 29.3026 22.85 29.3026C22.85 29.3026 22.8919 29.2729 22.8963 29.27C22.9353 29.2447 22.9119 29.2633 22.8987 29.2752C22.8739 29.2978 22.9543 29.2459 22.9146 29.2794C22.9059 29.2867 22.7851 29.3738 22.7864 29.373C22.789 29.3715 22.8706 29.3134 22.8911 29.2994C22.9583 29.2536 22.8729 29.3179 22.9147 29.2901C22.9354 29.2764 23.0395 29.2034 23.0629 29.1878C23.0816 29.1753 23.042 29.2056 23.0876 29.1734C23.1151 29.1539 23.2033 29.091 23.2145 29.0832ZM21.829 30.0453C21.97 29.9446 21.8522 30.0273 21.7768 30.0818C21.7598 30.094 21.7924 30.0714 21.829 30.0453ZM22.6704 29.3732C22.7099 29.3435 22.7495 29.3138 22.789 29.284C22.7725 29.2963 22.7559 29.3085 22.7393 29.3207C22.7156 29.3387 22.6919 29.3566 22.6681 29.3745C22.6689 29.3741 22.6696 29.3736 22.6704 29.3732ZM21.9644 27.0979C22.0515 27.23 22.1057 27.4557 22.1978 27.6179C22.5809 28.2857 22.7058 28.5525 23.0797 29.1324C23.0882 29.145 23.0938 29.1537 23.0995 29.1624C23.4633 29.7176 24.2331 30.8514 24.8499 31.4611L24.9269 31.5375C25.3231 32.0604 25.6516 32.4957 25.5202 32.6272C25.5202 32.6273 25.5202 32.6273 25.5202 32.6273C25.5171 32.6304 25.5137 32.6334 25.5101 32.6362C25.4417 32.6896 25.1814 32.5637 25.084 32.6031C24.9864 32.6417 24.5649 33.1116 24.2562 32.8426C24.1516 32.7491 24.0235 32.6117 23.8896 32.4483L23.9487 32.5068C23.4069 32.0172 22.946 31.2512 22.8004 31.0655C22.6683 30.8976 22.4692 30.7184 22.3068 30.5042C22.1507 30.2984 22.0239 30.12 21.9067 29.9589C21.6209 29.5686 21.3935 29.2515 21.0071 28.8348C20.9094 28.5214 20.8193 28.2075 20.7364 27.8935C20.5617 27.6413 20.4092 27.2442 20.2982 26.9672C20.26 26.8734 20.2256 26.7921 20.1958 26.7357C20.1004 26.5552 19.9899 26.4752 19.8963 26.2831C19.7912 26.0673 19.7029 25.7044 19.5291 25.3064C19.2483 24.6523 19.0523 24.5875 18.8902 24.1862C18.7232 23.7686 18.6093 23.0775 18.415 22.5387C18.3796 22.4737 18.3446 22.4085 18.3098 22.3429C18.2811 22.4028 18.2526 22.4628 18.2245 22.5231C18.1363 22.2457 18.1921 22.1045 18.1376 21.8447C18.0746 21.5387 17.9654 21.3968 17.9279 21.1886C17.8975 21.0179 17.9232 20.776 17.8865 20.5554C17.8342 20.2333 17.7517 20.3163 17.7113 20.1434C17.6854 20.0766 17.5151 18.7798 17.5208 18.7044C17.4897 18.1429 17.6197 18.0907 17.6275 17.6458C17.6547 16.4133 17.6768 15.1366 17.8637 13.9947C17.9458 13.4857 18.0807 12.9625 18.2447 12.4746C18.3377 13.3315 19.0864 11.7196 18.4021 12.1964C18.6426 11.6765 18.6497 11.2495 18.8777 10.7548C19.0275 10.4361 19.1882 10.2432 19.4053 9.79418C19.7848 9.00016 20.1424 8.06072 20.5911 8.05677C20.6538 7.94849 20.7193 7.84398 20.7859 7.74323C21.2539 7.04377 21.7151 6.51226 21.664 6.09136C21.7957 5.87162 22.3322 5.44985 22.5194 5.23148C22.6656 5.06084 23.5606 3.90915 23.9807 3.35889L24.9182 3.96893C24.8419 4.08726 24.7857 4.17924 24.7568 4.22841C24.5884 4.50981 24.3216 5.01982 24.2327 5.28309C24.1179 5.61741 24.3306 5.95508 23.7444 6.38775C23.527 7.07446 23.4421 7.31403 23.2229 7.94998C23.1844 8.06545 23.1246 8.06462 23.1073 8.13381C23.0718 8.2765 23.0565 8.52921 23.0092 8.78623C22.9318 9.20839 22.7745 9.43205 22.9669 9.4153C22.9515 9.699 22.9434 9.9824 22.9424 10.2652C22.895 10.359 22.8485 10.4534 22.8027 10.5487C22.8272 10.7031 22.8538 10.8566 22.8825 11.0093C22.6187 10.8121 22.7236 11.8883 22.8967 11.5481C22.8182 12.089 22.7649 12.6365 22.7367 13.1881C22.4145 13.1281 22.7932 14.4011 22.9569 14.2684C22.9635 14.3305 22.9705 14.3925 22.9778 14.4546C22.9636 15.0086 23.1085 15.4963 23.1947 16.1607C23.2874 16.8262 23.2511 16.771 23.1633 17.006C23.2116 17.1582 23.2618 17.3096 23.3139 17.4603C23.4398 17.6043 23.5114 17.7182 23.5515 17.8219C23.709 18.2148 23.3813 18.485 24.0179 19.461C23.9562 19.9804 24.5445 20.9745 24.9693 21.595C25.0181 21.6679 25.0606 21.6467 25.1289 21.7414C25.2923 21.9744 25.6077 22.6281 25.7277 22.5264C25.8187 22.7624 25.9139 22.9976 26.0134 23.2317C26.1485 23.3882 26.2855 23.5425 26.4243 23.6947C26.4631 23.6667 26.5019 23.6387 26.5407 23.6107C26.637 24.0415 27.0733 24.5254 27.2393 24.7987C27.2722 24.8535 27.2281 24.9052 27.3373 25.0714C27.4643 25.2661 27.7542 25.586 27.9196 25.8076C28.045 25.841 28.1704 25.8732 28.2956 25.9042C28.6501 26.242 28.628 26.4974 28.8172 26.7177C28.8482 26.7603 29.5302 27.4219 29.5731 27.4509C29.9027 27.7124 29.9141 27.5261 30.8011 28.3389C30.9605 28.4822 31.0582 28.6365 31.208 28.7605C31.2769 28.8175 31.3882 28.8965 31.5183 28.9799L31.5344 28.993C31.6026 29.0388 31.7008 29.1002 31.8097 29.1808L31.756 29.1372C32.0939 29.3245 32.4327 29.4862 32.5113 29.4574C32.5848 29.5656 32.7175 29.694 32.8738 29.8214L32.8544 29.8083C33.0118 29.9277 33.191 30.0507 33.3617 30.1653L33.3513 30.1586C33.4698 30.236 33.532 30.2822 33.5614 30.2989L33.6055 30.3256C33.7567 30.428 33.8958 30.5165 33.9723 30.5782C34.0512 30.6422 34.0189 30.7323 34.2809 30.9173C34.289 30.9231 34.2977 30.9291 34.3069 30.9353L33.8237 31.963C33.8213 31.9621 33.8188 31.9612 33.8163 31.9603L34.3068 30.9377C34.3316 30.9555 34.3649 30.9733 34.4039 30.9884L34.4476 31.0114C34.6476 31.1169 34.9075 31.2393 35.1081 31.3327C35.1822 31.366 35.2558 31.4018 35.3147 31.4345C35.344 31.4507 35.3711 31.4667 35.3963 31.4822C35.6318 31.6304 35.7012 31.7401 35.8208 31.8079C35.8386 31.818 35.8568 31.8268 35.8755 31.8346L35.8615 31.8275C35.9724 31.8697 36.0993 31.877 36.249 31.9459C36.477 32.0514 36.6935 32.1678 36.9007 32.2847L36.9488 32.3093C36.9373 32.3146 37.0193 32.3551 37.115 32.4047C37.3045 32.5126 37.5 32.609 37.6951 32.6863C37.7703 32.7161 37.8463 32.7436 37.9229 32.7697L37.9126 32.7657C38.0376 32.8049 38.1621 32.8376 38.2856 32.8659C38.552 32.9224 38.8275 32.9512 39.1019 32.991L39.078 32.9832C39.2201 33.0021 39.3296 33.0165 39.4153 33.0196L39.0278 34.425C38.9943 34.4212 38.961 34.4172 38.9278 34.4129C38.9126 34.4072 38.8975 34.4011 38.8825 34.3948L39.3086 32.9795C39.4218 33.0326 39.5301 33.1003 39.6554 33.1383C39.9351 33.2234 40.2222 33.3047 40.5149 33.381C42.0582 33.7963 43.744 34.0787 45.2857 34.1679C46.1325 34.2527 48.2806 34.3616 47.679 33.9669C47.9657 33.8986 50.1028 33.7622 50.4998 33.6408C50.8964 33.5525 51.1906 33.3939 51.4949 33.3051C52.4135 33.0286 53.079 32.8562 54.112 32.305C54.3781 32.1608 54.6221 31.9329 54.7788 31.8506C54.9675 31.7523 55.2122 31.7191 55.4553 31.5832C56.0398 31.2682 57.0354 30.5378 57.5274 30.1392C57.6186 30.068 57.6999 30.1021 57.8425 30.0127C58.4012 29.6654 58.9105 29.1338 58.6418 29.0511C59.3244 28.5651 59.7252 27.8901 60.1643 27.273C60.2168 27.1993 60.2713 27.1218 60.3272 27.0408L61.7855 27.7479C61.2164 29.5982 59.6448 32.0429 58.7752 33.2349C58.2093 34.0226 58.3181 34.1034 57.2358 35.0638C56.9905 35.2746 56.7391 35.4718 56.4334 35.7084C55.706 36.2712 54.9355 36.5921 54.5011 37.1881C53.6381 37.6958 52.9539 38.1306 52.1946 38.2754C52.1407 38.3595 52.0857 38.4435 52.0294 38.5275C51.9199 38.5821 51.8093 38.6359 51.6975 38.689C51.642 38.6611 51.5867 38.633 51.5316 38.6047C50.7368 38.9578 49.7679 39.525 49.0381 39.7392C47.854 40.1583 44.6737 40.5963 43.5025 40.5427C42.8838 40.5399 42.8596 40.641 42.5002 40.436C42.3626 40.4536 42.2238 40.4703 42.0838 40.4859C41.9965 40.5333 41.9083 40.5802 41.8194 40.6267C41.0478 40.628 40.0753 40.509 39.3491 40.4473C38.5204 40.3802 37.4939 40.3053 36.4595 40.1536C35.9537 40.08 35.554 39.9161 35.2396 39.8162C35.1121 39.7732 34.9961 39.7327 34.8841 39.6922L34.8686 39.687C34.7627 39.6458 34.6574 39.6045 34.5549 39.5622C34.4157 39.5048 34.2617 39.4266 34.1037 39.3424L34.1329 39.3525C33.9742 39.2815 33.8652 39.2144 33.7768 39.173L33.7577 39.1661C33.6829 39.1299 33.61 39.0969 33.5398 39.0696C33.2561 38.9585 33.0829 38.951 32.8558 38.905L32.8294 38.893C32.7891 38.891 32.7335 38.8842 32.6389 38.8592L32.5987 38.8425C32.5189 38.8163 32.4299 38.7825 32.3275 38.7367C32.1077 38.6381 31.8457 38.5093 31.5612 38.3549L31.5892 38.3679C31.5633 38.3551 31.5371 38.3422 31.5108 38.3292L31.4612 38.3051C31.3076 38.214 31.1541 38.1213 31.0014 38.0341L30.9693 38.0172C30.9178 37.9816 30.8262 37.9329 30.709 37.8559L30.7523 37.8801C30.5091 37.738 30.264 37.5869 30.0264 37.4245L30.1029 37.4644C30.0121 37.4202 29.9854 37.4013 29.9984 37.4056L29.9116 37.3617C29.635 37.1726 29.3651 36.991 29.1272 36.8305L29.1422 36.8398C29.023 36.7644 28.9497 36.7062 28.9036 36.6773C28.8743 36.6589 28.8404 36.6379 28.8072 36.6177C28.6235 36.5056 28.4845 36.4514 28.3492 36.378L28.3958 36.4088C28.3822 36.4032 28.3687 36.3975 28.3551 36.3916L28.3168 36.3667C28.2813 36.348 28.2459 36.3276 28.2094 36.3035C27.8444 36.0624 27.5189 35.8295 27.1967 35.5983L27.2235 35.618C27.0868 35.5247 27.014 35.4632 26.9843 35.4514L26.9522 35.4284C26.9341 35.4159 26.9159 35.4035 26.8977 35.3911C26.6692 35.2312 26.4419 35.0749 26.198 34.9118C26.062 34.7527 25.968 34.6222 25.9026 34.5129C25.898 34.5014 25.8893 34.4862 25.8811 34.4715L25.8723 34.4637C25.6943 34.1296 25.7858 34.0127 25.7358 33.7653C25.7049 33.6136 25.6104 33.3035 25.5519 33.0464C25.5172 32.8762 25.4921 32.7272 25.5039 32.6643C25.5248 32.5537 25.7769 32.6366 25.7864 32.5014C25.8454 32.5519 25.9013 32.6007 25.9547 32.6481L25.9452 32.6388C26.3065 32.9465 26.5557 33.1878 26.7859 33.4476L26.776 33.4389C26.7873 33.4511 26.7986 33.4634 26.8098 33.4757C26.9911 33.6793 27.1643 33.8896 27.3889 34.1441C27.4854 34.2211 27.5826 34.2972 27.6805 34.3727C27.6937 34.3826 27.7113 34.3959 27.7288 34.4092L27.7023 34.3901C27.8327 34.4795 27.9108 34.5517 27.9495 34.5763L27.9722 34.5929C28.3155 34.8558 28.6663 35.1099 29.0235 35.3582L28.9887 35.3356C29.0012 35.3431 29.0138 35.3505 29.0263 35.358L29.069 35.3862C29.2052 35.4843 29.3635 35.582 29.5328 35.6875C29.6406 35.7574 29.7076 35.8071 29.7479 35.8303L29.7629 35.8396C30.0167 36.0012 30.2784 36.1585 30.5449 36.3191L30.4629 36.2776C30.5545 36.3163 30.6016 36.3444 30.595 36.3397L30.6665 36.377C30.8534 36.4901 31.052 36.5981 31.2551 36.7024C31.2756 36.7263 31.2963 36.7502 31.3171 36.774L31.3527 36.7939C31.3821 36.855 31.4478 36.9271 31.5299 37.0142L31.5091 37.0033C31.5245 37.0195 31.5397 37.0356 31.5548 37.0518C31.5547 37.0519 31.5547 37.052 31.5546 37.0521C31.7283 37.1625 31.8716 37.2383 31.9992 37.2925L31.9705 37.2786C31.9991 37.2883 32.027 37.2971 32.0542 37.3051L32.0707 37.3127C32.2958 37.3888 32.4758 37.4052 32.6627 37.4692C32.8149 37.5212 32.975 37.5774 33.1426 37.6386L33.1108 37.6253C33.1873 37.6483 33.282 37.6767 33.3936 37.7242L33.3709 37.7138C33.6328 37.8067 33.91 37.9037 34.1991 37.9996L34.1783 37.9922C34.3266 38.0376 34.4485 38.0838 34.5309 38.1052L34.5608 38.1155C34.7962 38.1942 35.0531 38.2714 35.3282 38.361L35.3135 38.3561C35.4297 38.3911 35.5471 38.4267 35.6654 38.4629C36.0571 38.5801 36.3954 38.7073 36.6839 38.7496C39.5318 39.2392 42.7487 39.4119 44.884 39.1592C45.6266 39.1162 47.9191 38.5655 48.4104 38.482C48.5398 38.469 48.5942 38.5428 48.7316 38.505C49.8978 38.0957 51.0221 37.5773 52.071 36.9567C54.3548 35.8941 56.3269 34.0668 57.8418 32.0454C58.9284 30.602 59.8523 28.9544 60.3947 27.3277L61.5184 27.8726C58.4768 32.3495 53.2439 34.9867 48.0027 35.3982C46.6223 35.5262 44.8516 35.5576 43.5065 35.3531C42.947 35.2688 42.7346 35.1028 41.9884 35.077C41.9873 35.039 41.9863 35.0009 41.9852 34.9628C41.3451 34.8903 40.923 34.8873 40.2157 34.7173C40.203 34.7142 40.1898 34.7109 40.1762 34.7076C39.8779 34.6365 39.3678 34.5005 38.8709 34.3404L39.2688 33.0184C39.3165 33.0318 39.364 33.0451 39.4114 33.0584L39.0443 34.3897C38.8954 34.3492 38.7738 34.3056 38.6839 34.2783L38.6591 34.2702C38.3451 34.1614 38.0493 34.0599 37.8702 33.9883C37.8636 33.9858 37.8618 33.9851 37.86 33.9843C37.6243 33.8889 37.7128 33.8567 37.532 33.7806L37.5188 33.7755C37.5066 33.77 37.4931 33.7643 37.478 33.7583C37.2943 33.6844 36.9926 33.5975 36.6452 33.4707C36.5995 33.4538 36.5218 33.4428 36.3466 33.3531L36.4062 33.3835C36.1247 33.2783 35.8356 33.1681 35.6033 33.0602C35.5206 33.0219 35.4291 32.9766 35.3322 32.926L35.3135 32.9167C35.1552 32.8275 34.9824 32.7262 34.8109 32.6252C34.7202 32.5728 34.6227 32.5169 34.5285 32.4633C34.2718 32.314 34.0627 32.1792 33.9184 32.1011C33.8923 32.0869 33.8664 32.0729 33.8405 32.0589L33.8891 32.0843C33.8069 32.0477 33.7267 32.0055 33.6493 31.9581L34.2005 30.8088C34.2031 30.8096 34.2056 30.8103 34.2081 30.8111L33.6651 31.9661C33.4097 31.8187 33.1304 31.6717 32.837 31.4955L32.8786 31.5207C32.7441 31.4493 32.6529 31.3858 32.6009 31.3592L32.591 31.3529C32.4138 31.2484 32.2356 31.1433 32.0567 31.0373L32.0381 31.0248C31.6517 30.778 31.2854 30.5196 30.9303 30.2726L30.867 30.2211C30.8156 30.1769 30.746 30.1244 30.6507 30.0467L30.6708 30.063C30.4003 29.8566 30.1363 29.6413 29.882 29.4173C29.5382 29.1164 29.166 28.6552 29.061 28.5598C28.8542 28.3743 28.7341 28.3802 28.5912 28.258C27.8597 27.6412 26.9368 26.4667 26.3692 25.7291C24.6367 23.5334 23.1628 20.9112 22.3398 18.1985C22.2689 17.9701 22.202 17.7387 22.1398 17.5072C21.583 15.6592 21.2816 12.433 21.5578 10.6647C21.6067 10.284 21.6926 10.3956 21.7284 10.0775C21.7706 9.72534 21.7363 9.52562 21.7569 9.35997C21.8524 8.20852 22.5418 5.71841 23.114 4.76933C23.2142 4.58523 23.3486 4.48367 23.4042 4.37257C23.4325 4.31646 23.4509 4.16601 23.5399 3.98869C23.6519 3.76557 23.7654 3.55496 23.8814 3.3524L24.9644 4.05711C24.2036 5.16816 23.5453 6.05372 22.7149 7.19747C22.4168 7.60812 22.114 8.03127 21.8074 8.46338C20.2651 10.6321 19.3595 13.4752 19.1119 16.1435C19.0431 16.8352 18.8936 17.3136 18.893 17.4132C18.8945 17.6304 18.9918 17.7696 19.0291 18.2051C19.1396 19.6511 19.3592 21.6079 19.8092 22.9242C20.0201 23.5766 20.4531 24.417 20.7399 25.0178C20.891 25.3444 21.1624 25.9806 21.3898 26.4068C21.4994 26.6178 21.5924 26.7774 21.6446 26.8368C21.7427 26.9481 21.8694 26.9547 21.9644 27.0979ZM19.7219 9.36035C19.8196 9.53027 20.228 8.52187 19.9462 8.82672C19.88 8.89542 19.6931 9.31559 19.7219 9.36035ZM41.9791 34.0139C41.9791 33.9636 41.9792 33.9132 41.9793 33.8629C41.8453 33.8584 41.7107 33.8526 41.5756 33.8456C41.6432 33.89 41.7109 33.9341 41.7789 33.9778C41.8456 33.9902 41.9124 34.0022 41.9791 34.0139ZM7.89201 44.136C7.90175 44.129 7.84954 44.1675 7.84686 44.1696C7.83509 44.1789 7.79896 44.2057 7.77869 44.2211C7.74859 44.2441 7.81861 44.1955 7.45528 44.4619C7.45527 44.4619 7.45526 44.4619 7.45526 44.4619C7.45169 44.4646 7.44809 44.4672 7.44444 44.4699C7.37522 44.5206 7.29955 44.5759 7.22125 44.6333C7.14292 44.6907 6.63737 45.0614 6.60879 45.082C6.57111 45.1092 6.7002 45.0134 6.69433 45.0175C6.69029 45.0202 6.64423 45.0538 6.63597 45.0597C6.60932 45.0785 6.64276 45.0536 6.51761 45.1447C6.58327 45.0963 6.64894 45.0479 6.71461 44.9995C6.68395 45.0216 6.77047 44.9577 6.76559 44.9611C6.76158 44.9638 6.70951 45.0019 6.70701 45.0036C6.70391 45.0057 6.75992 44.9643 6.7513 44.9702C6.73741 44.9798 6.60164 45.0793 6.58424 45.0917C6.56624 45.1046 6.63973 45.0501 6.59175 45.0848C6.5768 45.0957 6.56184 45.1066 6.54688 45.1176C6.51313 45.1423 6.47939 45.1671 6.44564 45.1919C6.42982 45.2033 6.49897 45.1525 6.50012 45.1514C6.50151 45.1502 6.43584 45.1982 6.43607 45.1978C6.43631 45.1975 6.48882 45.1588 6.48544 45.1611C6.48078 45.1643 6.40485 45.22 6.39057 45.2303C6.38503 45.2344 6.34262 45.2644 6.34198 45.2648C6.33878 45.2667 6.44272 45.1905 6.45164 45.1836C6.47596 45.1647 6.39147 45.2257 6.35929 45.2484C6.34489 45.2585 6.35073 45.2538 6.36716 45.2414C6.63354 45.0467 6.83993 44.8939 6.42385 45.1996C6.48286 45.1558 6.37032 45.238 6.38911 45.2238C6.40138 45.2145 6.45901 45.1721 6.45731 45.1729C6.45393 45.1747 6.28947 45.2945 6.58596 45.0769C6.53329 45.1147 6.64053 45.0354 6.37856 45.2272C6.36246 45.2388 6.51816 45.1241 6.53923 45.1084C6.55908 45.0936 6.62867 45.0408 6.63247 45.0377C6.63626 45.0347 6.6403 45.0312 6.61722 45.0479C6.58865 45.0686 6.31702 45.2675 6.63424 45.0344C6.60826 45.0528 6.61723 45.046 6.65384 45.0186C6.66046 45.0136 6.70759 44.9791 6.70761 44.979C6.70755 44.9789 6.67261 45.0043 6.66826 45.0073C6.66113 45.0121 6.7602 44.9393 6.60874 45.0504C6.58322 45.0689 6.55771 45.0873 6.5322 45.1058C6.56139 45.0843 6.59059 45.0628 6.61979 45.0413C6.58786 45.0646 6.55594 45.0879 6.52401 45.1111C6.74329 44.9505 6.6135 45.0448 6.48786 45.1372C6.53298 45.1036 6.57811 45.0701 6.62323 45.0365C6.87239 44.8539 6.65149 45.0147 6.51607 45.1141C6.51624 45.114 6.51641 45.1138 6.51659 45.1136C6.58258 45.0647 6.52821 45.1042 6.57238 45.0712C6.61655 45.0382 6.64084 45.0205 6.75534 44.9363C6.74872 44.9411 6.74209 44.9458 6.73546 44.9505C6.42097 45.1804 6.96494 44.7816 6.72338 44.9576C6.92064 44.8125 6.81647 44.888 6.7563 44.9314C6.74931 44.9365 6.71098 44.9646 6.69912 44.9732C6.67059 44.9939 6.71956 44.9574 6.59595 45.048C6.63162 45.0217 6.66728 44.9953 6.70295 44.9689C6.68039 44.9853 6.65783 45.0017 6.63527 45.018C6.59668 45.0463 6.55809 45.0746 6.5195 45.1029C6.65085 45.0063 6.60004 45.043 6.63136 45.0197C6.63771 45.015 6.69093 44.976 6.70537 44.9652C6.72251 44.9525 6.70659 44.9638 6.72311 44.9514C6.6641 44.9946 6.60509 45.0378 6.54608 45.081C6.5139 45.1041 6.66947 44.9899 6.68144 44.9809C6.68352 44.9793 6.67196 44.987 6.66861 44.9894C6.6421 45.0085 6.50956 45.1058 6.53747 45.0843C6.54252 45.0804 6.58833 45.0467 6.59009 45.0452C6.59328 45.0426 6.4888 45.1183 6.39262 45.1888C6.51279 45.1003 6.46315 45.1357 6.49779 45.1101C6.50844 45.1022 6.58508 45.0459 6.60127 45.0338C6.61447 45.0239 6.55284 45.0686 6.56298 45.0609C6.57403 45.0525 6.63838 45.0052 6.64287 45.0018C6.64704 44.9986 6.59501 45.0366 6.59523 45.0363C6.5968 45.0346 6.68025 44.973 6.6816 44.9716C6.6816 44.9716 6.6816 44.9716 6.6816 44.9716L7.43433 44.4031C7.4323 44.4053 7.58317 44.2885 7.65029 44.2368C7.64059 44.2444 7.60831 44.2697 7.60808 44.27C7.60412 44.2747 7.57724 44.2974 7.54576 44.3235C7.5313 44.3355 7.32771 44.4956 7.66868 44.23C7.72856 44.1837 7.5919 44.2918 7.59001 44.2937C7.58813 44.2955 7.64945 44.2481 7.65049 44.2476C7.65357 44.246 7.60977 44.2807 7.66355 44.2399C7.67761 44.2292 7.75023 44.173 7.74946 44.1738C7.74837 44.1748 7.67837 44.2295 7.67403 44.2331C7.66426 44.2413 7.68785 44.224 7.67599 44.2338C7.67368 44.2357 7.61214 44.2836 7.59297 44.2987C7.51808 44.3575 7.52491 44.3528 7.72138 44.1999C7.61017 44.2871 7.71227 44.2084 7.71883 44.204C7.73226 44.195 7.68767 44.2323 7.77085 44.1689C7.82333 44.1289 7.91146 44.0603 7.83597 44.1202C7.81923 44.1335 7.7966 44.1513 7.77663 44.1672C7.72963 44.2045 7.56713 44.3315 7.76362 44.1793C7.71312 44.2193 7.74953 44.1917 7.58202 44.3226C7.6223 44.2913 7.66258 44.2601 7.70286 44.2288C7.70391 44.2281 7.70495 44.2274 7.706 44.2267C7.66763 44.2565 7.62926 44.2864 7.59089 44.3163C7.58581 44.3206 7.62422 44.2911 7.66309 44.2613L7.69461 44.305C7.73418 44.279 7.77422 44.2527 7.77375 44.2533C7.77233 44.2552 7.70888 44.3 7.65471 44.337C7.62594 44.3567 7.7126 44.2989 7.53462 44.4179C7.54706 44.4097 7.5595 44.4015 7.57194 44.3933C7.61097 44.3674 7.65001 44.3414 7.68904 44.3155C7.69089 44.3149 7.63065 44.3558 7.63154 44.3558C7.63329 44.3557 7.74139 44.2852 7.67139 44.333C7.65374 44.345 7.57347 44.3989 7.5745 44.3985C7.57592 44.3979 7.70944 44.309 7.71216 44.3077C7.71661 44.3056 7.56229 44.41 7.57452 44.4027C7.57806 44.4006 7.62778 44.3675 7.63316 44.3641C7.65625 44.3494 7.65247 44.3525 7.72952 44.3018C7.60194 44.3876 7.43682 44.4976 7.27034 44.6088C7.14468 44.6928 6.85354 44.8874 6.74346 44.9609C6.66612 45.0125 6.56651 45.0787 6.48139 45.1355C6.41299 45.1803 6.48769 45.1301 6.60716 45.0498C6.60179 45.0521 6.59643 45.0544 6.59106 45.0567C6.63749 45.0256 6.68392 44.9945 6.73035 44.9634C6.73045 44.9634 6.73055 44.9633 6.73066 44.9632C6.78407 44.9271 6.66427 45.0068 6.63697 45.0247C6.37562 45.1964 6.57695 45.0572 6.60498 45.0357C6.61094 45.0311 6.5474 45.0715 6.6227 45.0209C6.64231 45.0077 6.71397 44.9599 6.71704 44.9578C6.70359 44.9664 6.69013 44.9751 6.67668 44.9837L6.69731 45.0124C6.66914 45.0335 6.64097 45.0547 6.6128 45.0759C6.7174 44.9923 6.62903 45.0588 6.61167 45.07C6.56465 45.1006 6.50817 45.1386 6.52158 45.1222C6.52428 45.119 6.47263 45.1577 6.50494 45.1315C6.51833 45.1206 6.62744 45.0355 6.54575 45.0984C6.57517 45.0755 6.60459 45.0527 6.63401 45.0298C6.59823 45.0571 6.53112 45.1089 6.52402 45.1138C6.51815 45.1179 6.51314 45.1205 6.52416 45.1114C6.52968 45.1069 6.5847 45.0642 6.58431 45.0643C6.58417 45.0644 6.58277 45.0654 6.58044 45.0672L7.55391 44.3319C7.56994 44.3206 7.62908 44.2778 7.62929 44.2781C7.62951 44.2784 7.56517 44.3264 7.57471 44.3197C7.60857 44.2961 7.70512 44.2267 7.68006 44.2464C7.67296 44.252 7.60037 44.3057 7.60245 44.3043C7.60679 44.3013 7.67757 44.2495 7.68673 44.2429C7.73306 44.2097 7.64957 44.2722 7.64659 44.2751C7.63688 44.2847 7.669 44.2637 7.65716 44.2749C7.64974 44.2818 7.66341 44.2744 7.61088 44.3143C7.59954 44.323 7.522 44.3797 7.52212 44.3799C7.52228 44.3801 7.57471 44.3418 7.579 44.3388C7.60908 44.3176 7.66298 44.2802 7.60988 44.32C7.59968 44.3276 7.53902 44.3722 7.53929 44.3721C7.53931 44.3722 7.5808 44.3419 7.58512 44.3389C7.62328 44.3123 7.5996 44.3307 7.58604 44.342C7.56039 44.3634 7.63893 44.3089 7.59853 44.3413C7.58975 44.3483 7.46983 44.4366 7.47108 44.4358C7.47359 44.4342 7.55444 44.375 7.57457 44.3606C7.64076 44.3133 7.55536 44.3776 7.59643 44.3487C7.61666 44.3345 7.7196 44.2598 7.74256 44.2435C7.76092 44.2305 7.72122 44.2607 7.76634 44.2278C7.7936 44.208 7.881 44.1439 7.89201 44.136ZM6.52454 45.1232C6.66427 45.0208 6.54777 45.1054 6.47294 45.1606C6.45609 45.173 6.48827 45.1498 6.52454 45.1232ZM7.36966 44.4575C7.40871 44.4272 7.44777 44.3968 7.48682 44.3664C7.47051 44.379 7.4542 44.3915 7.4379 44.4041C7.41445 44.4224 7.391 44.4407 7.36755 44.459C7.36825 44.4585 7.36896 44.458 7.36966 44.4575ZM16.8483 43.6397C16.8405 43.6488 16.8819 43.5989 16.884 43.5962C16.8933 43.5844 16.9219 43.5498 16.9379 43.5299C16.9617 43.5004 16.9057 43.5647 17.1942 43.2186C17.1942 43.2186 17.1942 43.2186 17.1942 43.2186C17.197 43.2152 17.1999 43.2118 17.2028 43.2083C17.2577 43.1424 17.3178 43.0705 17.38 42.9959C17.4422 42.9213 17.8435 42.4397 17.8663 42.4128C17.8962 42.3773 17.7939 42.5013 17.7986 42.4959C17.8019 42.4922 17.8385 42.4485 17.845 42.4409C17.8663 42.4161 17.8398 42.4483 17.9393 42.3296C17.8872 42.3924 17.8351 42.4552 17.783 42.518C17.8074 42.4891 17.7388 42.572 17.7427 42.5675C17.7459 42.5638 17.7872 42.5143 17.7892 42.5121C17.7917 42.5093 17.7473 42.5629 17.7542 42.555C17.7653 42.5423 17.8731 42.4131 17.887 42.3968C17.9013 42.38 17.843 42.4505 17.8812 42.4052C17.8931 42.391 17.905 42.3768 17.9168 42.3626C17.9436 42.3304 17.9704 42.2982 17.9972 42.2661C18.0098 42.2512 17.9549 42.3172 17.954 42.3184C17.953 42.32 18.0051 42.2576 18.005 42.2579C18.0048 42.2583 17.9631 42.3085 17.9658 42.3054C17.9696 42.3012 18.0298 42.2288 18.0412 42.2153C18.0456 42.2101 18.0794 42.1706 18.0799 42.1701C18.0826 42.1674 18 42.2665 17.993 42.2753C17.9738 42.2993 18.0411 42.2198 18.0667 42.1899C18.0782 42.1766 18.0737 42.1825 18.0607 42.1985C17.8491 42.4517 17.6855 42.6496 18.0157 42.2527C17.9689 42.3093 18.0583 42.2024 18.0435 42.2207C18.0338 42.2326 17.988 42.2877 17.9894 42.2865C17.9922 42.2839 18.1229 42.1279 17.8876 42.4105C17.9295 42.361 17.8445 42.4638 18.0525 42.2146C18.0653 42.1994 17.9418 42.3482 17.9251 42.3685C17.9093 42.3876 17.8543 42.4554 17.8514 42.4593C17.8484 42.4632 17.8453 42.4675 17.8636 42.4457C17.8863 42.4188 18.102 42.1602 17.8503 42.4628C17.871 42.4386 17.8639 42.4474 17.8349 42.4828C17.8297 42.4892 17.7922 42.5341 17.7922 42.5342C17.7923 42.5342 17.8201 42.5011 17.8236 42.4972C17.8293 42.4907 17.7507 42.5853 17.8709 42.441C17.8912 42.4169 17.9115 42.3928 17.9318 42.3687C17.9086 42.3966 17.8854 42.4245 17.8623 42.4524C17.8876 42.4221 17.913 42.3918 17.9384 42.3615C17.7643 42.5702 17.8674 42.4474 17.9671 42.3274C17.9314 42.3708 17.8956 42.4143 17.8599 42.4577C17.662 42.695 17.8376 42.4855 17.9451 42.3564C17.9449 42.3566 17.9448 42.3568 17.9447 42.357C17.8924 42.4203 17.9356 42.3689 17.9006 42.4115C17.8656 42.4541 17.8463 42.4772 17.7555 42.5864C17.7607 42.5802 17.766 42.5741 17.7713 42.5679C18.0211 42.2689 17.5892 42.787 17.7811 42.558C17.6246 42.7462 17.7074 42.6478 17.7553 42.5911C17.7609 42.5845 17.7913 42.548 17.8007 42.5368C17.8234 42.5098 17.7846 42.557 17.8827 42.4392C17.8545 42.4734 17.8262 42.5076 17.7979 42.5417C17.8158 42.5204 17.8338 42.499 17.8517 42.4777C17.8823 42.441 17.913 42.4042 17.9436 42.3674C17.8394 42.4929 17.8798 42.445 17.855 42.475C17.8499 42.4811 17.8077 42.5318 17.7962 42.5457C17.7827 42.5623 17.7954 42.5474 17.7823 42.5634C17.8291 42.5072 17.876 42.4511 17.9229 42.395C17.9485 42.3647 17.825 42.513 17.8155 42.5246C17.8139 42.5266 17.8232 42.5163 17.8258 42.5132C17.8469 42.4883 17.9521 42.3619 17.9301 42.3894C17.9261 42.3944 17.8898 42.4382 17.8884 42.44C17.8859 42.4433 17.969 42.3445 18.0454 42.253C17.95 42.3678 17.9896 42.3213 17.9621 42.3546C17.9537 42.3648 17.8928 42.4378 17.88 42.4535C17.8696 42.4662 17.9186 42.408 17.9106 42.4179C17.9018 42.4287 17.8508 42.4901 17.8472 42.4945C17.8439 42.4986 17.8852 42.4491 17.8851 42.4494C17.8842 42.4509 17.8483 42.4944 17.8289 42.518L17.1061 43.1674C17.1152 43.1613 17.1216 43.1569 17.122 43.1566C17.1242 43.1546 16.9652 43.2602 16.8945 43.3069C16.9048 43.2999 16.9388 43.2772 16.9391 43.2769C16.9435 43.2727 16.9721 43.2522 17.0055 43.2286C17.0208 43.2178 17.2357 43.0731 16.8762 43.3131C16.8131 43.3549 16.9574 43.2572 16.9595 43.2556C16.9615 43.2539 16.8969 43.2967 16.8959 43.2972C16.8951 43.2976 16.8975 43.2958 16.9006 43.2935L17.0899 43.4872C17.096 43.4778 17.106 43.4628 17.0768 43.5037C17.0666 43.518 17.0137 43.5931 17.0143 43.5922C17.015 43.5909 17.0658 43.5181 17.0689 43.5133C17.0759 43.5027 17.0586 43.5262 17.0671 43.5134C17.0687 43.5109 17.1134 43.447 17.1273 43.427C17.1816 43.3487 17.1765 43.3553 17.0338 43.5593C17.1145 43.4432 17.0402 43.5485 17.0353 43.5548C17.0252 43.5674 17.0571 43.5188 16.9964 43.604C16.9582 43.6578 16.8941 43.7493 16.9488 43.6699C16.9609 43.6523 16.9773 43.6286 16.9917 43.6076C17.0257 43.5581 17.1436 43.3889 17.0008 43.5923C17.0373 43.5392 17.0107 43.5764 17.1323 43.402C17.103 43.4437 17.0737 43.4855 17.0445 43.5272C17.0437 43.5282 17.0429 43.5292 17.0421 43.5302C17.07 43.4904 17.0979 43.4505 17.1257 43.4107C17.1329 43.3997 17.0177 43.563 17.0182 43.5616C17.019 43.5594 17.0621 43.4948 17.0992 43.4406C17.1189 43.4119 17.0591 43.4972 17.1817 43.3217C17.1731 43.3339 17.1645 43.346 17.1559 43.3582C17.129 43.3966 17.1021 43.4349 17.0752 43.4733C17.0737 43.4746 17.1151 43.4146 17.1143 43.415C17.1128 43.4158 17.0379 43.5208 17.0858 43.451C17.0979 43.4334 17.1532 43.354 17.1524 43.3548C17.1513 43.3559 17.0593 43.4873 17.0573 43.4895C17.054 43.4932 17.1599 43.3399 17.1513 43.3512C17.1488 43.3545 17.1145 43.4034 17.1108 43.4085C17.0947 43.4307 17.0971 43.4264 17.0438 43.5017C17.1316 43.3755 17.2454 43.213 17.3601 43.0489C17.4467 42.925 17.6472 42.6379 17.7231 42.5295C17.7764 42.4533 17.8451 42.3554 17.9037 42.2715C17.9511 42.2049 17.8997 42.2787 17.8175 42.397C17.8216 42.3928 17.8256 42.3886 17.8296 42.3844C17.7976 42.4302 17.7657 42.476 17.7337 42.5218C17.7336 42.5219 17.7336 42.522 17.7335 42.5221C17.6968 42.5752 17.7794 42.4574 17.7983 42.4307C17.9791 42.1756 17.8416 42.3781 17.823 42.4081C17.8191 42.4145 17.8634 42.3536 17.8116 42.4281C17.7981 42.4475 17.7487 42.5181 17.7466 42.5212C17.7766 42.4796 17.8065 42.4381 17.8365 42.3965C17.7609 42.507 17.8256 42.4173 17.8386 42.4013C17.8663 42.3673 17.8981 42.3273 17.9065 42.3206L18.0855 42.5037C18.0884 42.5028 18.0886 42.5037 18.0854 42.5069C18.0824 42.5099 18.1366 42.4749 18.1024 42.4986C18.0882 42.5084 17.9732 42.5852 18.0592 42.5284C18.0282 42.5491 17.9972 42.5697 17.9662 42.5904C18.0038 42.5658 18.0745 42.5189 18.0819 42.5145C18.088 42.5108 18.0931 42.5085 18.0814 42.5166C18.0756 42.5207 18.0176 42.5593 18.018 42.5592C18.0183 42.559 18.0281 42.5527 18.0408 42.5443L17.1097 43.381C17.091 43.403 17.0643 43.4346 17.0642 43.4344C17.0639 43.4342 17.1149 43.3723 17.1073 43.381C17.0802 43.4122 17.0033 43.5029 17.023 43.4779C17.0286 43.4708 17.0862 43.4012 17.0845 43.4031C17.081 43.407 17.0248 43.4744 17.0175 43.483C16.9807 43.5264 17.0468 43.4458 17.049 43.4423C17.0564 43.4309 17.0305 43.4591 17.0395 43.4457C17.0452 43.4372 17.034 43.448 17.0755 43.3967C17.0844 43.3856 17.146 43.3118 17.1459 43.3117C17.1457 43.3116 17.1041 43.3614 17.1006 43.3653C17.0766 43.3932 17.0335 43.4427 17.0756 43.3913C17.0836 43.3815 17.1318 43.3236 17.1316 43.3237C17.1315 43.3237 17.0986 43.3631 17.0951 43.3671C17.0646 43.4022 17.0833 43.3787 17.0938 43.3646C17.1138 43.3378 17.051 43.4099 17.0827 43.369C17.0896 43.3601 17.1847 43.2455 17.1837 43.2466C17.1817 43.2488 17.1175 43.3257 17.1015 43.3446C17.0487 43.4065 17.1163 43.3237 17.0835 43.3617C17.0674 43.3805 16.9855 43.4778 16.9672 43.4992C16.9526 43.5163 16.9839 43.4775 16.9481 43.5203C16.9264 43.5461 16.857 43.6293 16.8483 43.6397ZM17.9361 42.3509C17.8252 42.4839 17.9178 42.3737 17.9772 42.3021C17.9905 42.286 17.9649 42.3163 17.9361 42.3509ZM17.1907 43.1074C17.1495 43.1349 17.1084 43.1623 17.0672 43.1898C17.0844 43.1784 17.1016 43.1671 17.1187 43.1557C17.1435 43.1392 17.1682 43.1226 17.1929 43.1061C17.1922 43.1066 17.1914 43.107 17.1907 43.1074ZM35.3644 1.79362C35.3951 1.68462 35.5147 1.56724 35.5707 1.44986C35.7696 1.03835 35.8979 0.866562 36.0863 0.576356L37.5521 1.5117C37.5108 1.55989 37.4669 1.61211 37.4192 1.67066C36.9951 2.19031 35.8965 3.84868 35.5318 3.58402C35.5318 3.58401 35.5318 3.58401 35.5318 3.584C35.5282 3.5814 35.5247 3.57862 35.5213 3.57565C35.4559 3.51959 35.4794 3.32775 35.4156 3.25042C35.3517 3.1731 34.8334 2.81998 34.9459 2.60498C35.1128 2.29599 35.7335 1.71467 35.8368 1.56024C35.9074 1.45464 35.9531 1.2947 36.0403 1.15741C36.1682 0.956009 36.2781 0.805441 36.3743 0.656638L37.3579 1.28428C37.27 1.46632 37.2063 1.64409 37.1796 1.8964C37.0301 2.02108 36.884 2.14978 36.7405 2.28539C36.6851 2.51668 36.4663 2.81387 36.4285 2.95509C36.3971 3.06903 36.4388 3.15349 36.4081 3.27073C36.374 3.40294 36.2513 3.58911 36.2075 3.83574C36.138 4.24228 36.2964 4.34155 36.2809 4.58286C36.2661 4.83156 36.1346 5.21235 36.1799 5.53659C36.1965 5.57757 36.2134 5.61835 36.2305 5.65893C36.2734 5.63179 36.3163 5.60502 36.3594 5.5786C36.3724 5.73733 36.2851 5.80328 36.2822 5.95026C36.2795 6.12326 36.3629 6.20985 36.3657 6.32496C36.368 6.41924 36.3084 6.55076 36.3203 6.67405C36.3379 6.85349 36.4296 6.80697 36.4549 6.90116C36.4593 6.93989 36.5964 7.63536 36.6088 7.67317C36.6615 7.97122 36.5409 8.02102 36.5788 8.26373C36.6882 8.93818 36.9952 9.58273 37.2583 10.1524C37.3756 10.4077 37.4828 10.6796 37.5817 10.9432C37.0927 10.6715 37.2836 11.6883 37.5905 11.1279C37.6603 11.4438 37.8872 11.5794 38.0089 11.8503C38.0886 12.0258 38.0921 12.1779 38.2367 12.414C38.4947 12.8357 38.9664 13.153 38.7517 13.4825C39.1423 13.9156 39.3663 14.3891 39.7483 14.3353C39.8579 14.4344 39.9676 14.8463 40.0657 14.9869C40.1459 15.1269 40.969 16.0376 41.1287 16.1629C41.2769 16.2977 41.547 16.5235 41.6982 16.6031C41.7463 16.6289 41.803 16.6365 41.8616 16.6419C42.036 16.6597 42.2191 16.6569 42.2804 17.0583C42.6603 17.2817 42.7844 17.3745 43.1108 17.6271C43.1701 17.6724 43.1476 17.727 43.185 17.7492C43.2624 17.795 43.4159 17.8345 43.5581 17.9077C43.7917 18.028 43.8685 18.2057 43.93 18.0261C44.0976 18.0791 44.266 18.1295 44.4347 18.1774C44.4486 18.199 44.4627 18.2207 44.4769 18.2423L43.9418 19.3869C43.9184 19.3544 43.8949 19.322 43.8714 19.2895L44.3524 18.2524C44.3555 18.2572 44.3587 18.262 44.3619 18.2668C44.462 18.271 44.5619 18.2741 44.6614 18.2761C44.4491 18.4805 45.11 18.5956 44.978 18.3676C45.2592 18.5498 45.5483 18.7233 45.8447 18.8874C45.8093 18.9539 45.8307 19.0047 45.884 19.0406L45.6103 19.8464C45.5883 19.8321 45.5611 19.8203 45.5306 19.8107L45.8094 19.0251C46.0109 19.0984 46.3705 19.0511 46.3634 18.9313C46.3988 18.9432 46.4343 18.9549 46.4698 18.9664C46.6897 19.1017 46.9241 19.1428 47.1892 19.2176C47.2731 19.2409 47.3609 19.2681 47.4526 19.3024C47.8399 19.4462 47.7997 19.4657 47.8935 19.6309C47.9913 19.6426 48.0864 19.6532 48.1854 19.6639C48.7557 19.3704 48.5547 20.0316 49.4678 19.8515C49.7168 20.1314 50.4264 20.068 50.8811 20.0049C50.9347 19.998 50.9371 19.9506 51.0078 19.9378C51.1797 19.9089 51.6174 19.9666 51.5991 19.8123C51.748 19.854 51.9021 19.8929 52.0543 19.9291C52.1745 19.8948 52.2973 19.8584 52.4162 19.8205C52.4116 19.7728 52.4069 19.7252 52.4023 19.6776C52.6589 19.8212 53.0375 19.7108 53.2294 19.7183C53.2679 19.72 53.2859 19.7845 53.4059 19.7821C53.5472 19.7798 53.7947 19.7105 53.9601 19.6925C54.0059 19.6068 54.0499 19.5209 54.0924 19.4347C54.3605 19.3248 54.5092 19.4797 54.679 19.4423C54.7107 19.4395 55.2352 19.237 55.2597 19.2178C55.4748 19.0898 55.3549 18.985 55.992 18.7011C56.1046 18.6485 56.2205 18.6487 56.3196 18.5933C56.5004 18.5001 56.9228 18.0538 56.8829 17.9285C57.1658 17.9134 57.6139 17.4454 57.7732 17.3403C57.8232 17.3094 57.8999 17.3691 58.0385 17.2552C58.1532 17.1628 58.3445 16.8345 58.4676 16.7004C58.6003 16.559 58.7067 16.5495 58.7639 16.4835C58.818 16.4202 58.8116 16.3204 58.8776 16.228C58.8878 16.2138 58.8981 16.1998 58.9086 16.1859L59.8556 16.8508C59.7071 17.0524 59.4503 17.3376 59.311 17.5731C59.0923 17.9491 59.0521 18.381 58.9127 18.7456C58.8518 18.8152 58.7677 18.8669 58.7114 18.9481C58.0255 19.9469 57.0673 20.958 56.0773 21.6789C55.6289 22.0427 54.2916 22.5355 54.8298 22.7152C54.7059 22.9022 53.317 23.3768 53.0531 23.4464C52.7982 23.5393 52.6193 23.6809 52.4091 23.7476C51.7914 23.9382 51.3296 23.9953 50.5671 24.1868C50.3713 24.2354 50.1559 24.3555 50.0401 24.3676C49.8972 24.3826 49.7338 24.3102 49.5452 24.3201C49.0964 24.3497 48.2686 24.3989 47.8454 24.3686C47.7671 24.3636 47.7419 24.285 47.6305 24.2567C47.2076 24.1474 46.7332 24.1144 46.7957 24.3695C46.2578 24.1836 45.7307 24.2466 45.2345 24.1758C45.026 24.1458 44.7813 24.1041 44.5126 24.0517L44.4901 24.0471C44.1952 23.9808 43.937 23.8838 43.7215 23.8152C43.6546 23.7943 43.5813 23.7715 43.5077 23.7488L43.4719 23.7368C43.3203 23.6819 43.1491 23.6248 42.9665 23.5554L42.9797 23.5603C42.3452 23.3328 41.7562 23.0832 41.3493 22.936C40.7833 22.7247 40.7343 22.8365 40.0138 22.303C39.8554 22.1829 39.7038 22.0548 39.5177 21.9032C39.0793 21.5457 38.797 21.0826 38.3107 21.0168C37.8643 20.5837 37.4625 20.2873 37.2772 19.8195C37.2032 19.8196 37.1291 19.8192 37.0547 19.8183C36.9994 19.7665 36.9443 19.7143 36.8896 19.6617C36.9071 19.6106 36.9248 19.5595 36.9427 19.5086C36.5718 19.1219 35.9659 18.7414 35.6764 18.378C35.1625 17.7936 34.1499 16.0642 33.9193 15.3649C33.7825 15.0018 33.6808 15.0228 33.7869 14.7349C33.7649 14.7016 33.743 14.6681 33.7212 14.6345C33.6953 14.5947 33.6697 14.5546 33.6443 14.5145C33.5802 14.4825 33.5163 14.45 33.4524 14.4168C33.2621 13.9522 33.1432 13.3657 33.0197 12.9076C32.7798 12.0799 32.4552 10.7904 32.5306 9.90518C32.546 9.68421 32.6438 9.41161 32.6501 9.19897C32.6609 8.88945 32.5032 8.80368 32.5368 8.40428C32.5837 7.70921 33.0351 6.49672 33.2384 5.89229C33.295 5.70971 33.2693 5.60605 33.3094 5.47903C33.4796 4.94729 33.6724 4.53374 33.8423 4.01533C34.2538 3.58159 34.4059 3.73389 34.6644 3.68946C34.8613 3.65351 35.365 3.52412 35.5042 3.55789C35.6017 3.57993 35.623 3.76122 35.7368 3.77584C35.4699 4.32506 35.2743 4.49307 34.9178 4.87162C34.5098 5.69647 34.2134 6.57467 34.0372 7.47668C33.9659 7.5476 33.8953 7.62001 33.8254 7.69388C33.8253 7.69386 33.8252 7.69384 33.8251 7.69382C33.7 8.03769 33.8258 8.21034 33.8363 8.40309C33.8745 9.83407 34.0378 12.3068 34.8088 14.1692C35.0154 14.7038 35.2437 15.1869 35.4622 15.5848C35.6573 15.9825 36.5296 17.1119 36.6604 17.3935C36.6905 17.4694 36.6371 17.5404 36.6871 17.608C37.2001 18.157 37.7523 18.6646 38.3356 19.1276C39.3774 20.2621 40.7854 21.0743 42.1828 21.7075C42.6038 21.8992 43.0327 22.0715 43.4676 22.2234L43.4774 22.2271C43.6228 22.2806 43.7826 22.3317 43.9541 22.3907L43.9272 22.3817C44.0008 22.4033 44.0744 22.4248 44.1481 22.4463C44.4037 22.5242 44.6182 22.5975 44.8024 22.6344L44.7853 22.6308C47.9773 23.208 51.2937 23.0459 53.9988 21.5166C54.6742 21.1467 55.4191 20.507 55.9871 20.0135C56.2231 19.8094 56.4188 19.8113 56.6258 19.4298C56.6565 19.4514 56.6872 19.473 56.7179 19.4945C56.9265 19.1915 57.0124 18.9549 57.2512 18.626C57.4608 18.3502 57.9594 17.5818 58.1252 17.317C58.2145 17.1802 58.2426 17.2698 58.3181 17.1394C58.4427 16.9317 58.5645 16.5175 58.8107 16.115L59.9555 16.9187C59.9295 16.9595 59.9036 16.9979 59.8781 17.0333C59.6742 17.3244 59.2275 17.7388 59.0494 17.9427C58.4185 18.6941 57.6191 19.4827 56.6532 19.9542C56.3876 20.0868 56.0063 20.1592 55.9242 20.196C55.7629 20.2706 55.7457 20.3713 55.6371 20.426C55.085 20.7111 54.1312 20.8559 53.5504 20.9415C51.6487 21.2534 49.6213 21.1342 47.8025 20.7535C47.5264 20.6961 47.2081 20.626 46.8675 20.5426C46.3932 20.4261 45.887 20.2698 45.4103 20.0842L45.8884 18.7369C45.9159 18.7464 45.9433 18.7558 45.9706 18.7653L45.5114 20.1174C44.9121 19.9034 44.3607 19.6547 43.9628 19.4378C43.8901 19.3982 43.8551 19.3647 43.8326 19.3346L44.3617 18.1936C44.3884 18.2287 44.3976 18.2598 44.4321 18.2911L43.9506 19.3212C43.9321 19.3036 43.9064 19.2856 43.867 19.2662C43.6728 19.1701 43.5388 19.1734 43.4459 19.131C42.8469 18.8723 41.6213 18.1817 41.0696 17.6878C41.026 17.6505 40.9855 17.6142 40.9495 17.5802C40.8559 17.4917 40.8303 17.375 40.7707 17.3275C40.7407 17.3034 40.6401 17.2883 40.5434 17.2149C39.6921 16.5597 39.1559 15.978 38.4913 15.1679C37.2218 13.6211 35.9614 11.6004 35.4282 9.52663C35.3101 9.07607 35.3892 8.73292 35.3734 8.67092C35.3403 8.53318 35.2218 8.46575 35.145 8.18439C34.8814 7.24605 34.9231 5.92358 34.9683 5.00185C34.9811 4.5453 34.9558 3.8977 35.0365 3.44232C35.0884 3.0769 35.4019 2.26482 35.4134 2.09789C35.4166 1.99345 35.3321 1.91107 35.3644 1.79362ZM38.3214 12.7092C38.1422 12.7545 38.5986 13.1865 38.5498 12.9437C38.5384 12.89 38.3671 12.6982 38.3214 12.7092ZM57.4866 20.0324C57.5277 20.0606 57.5688 20.0887 57.61 20.1168C57.6503 20.0396 57.6932 19.9579 57.7333 19.8782C57.679 19.8966 57.6245 19.9147 57.5699 19.9327C57.5414 19.967 57.5147 19.9991 57.4866 20.0324Z" fill="#121212"/>
</svg>
