<svg width="62" height="62" viewBox="0 0 62 62" fill="none" xmlns="http://www.w3.org/2000/svg">
<path d="M0.00147781 12.7249C-0.0105162 12.4399 0.0543361 12.0377 0.0577524 11.7015C0.0727493 10.2932 0.117705 9.77136 0.143202 8.49716C0.181074 6.60785 0.0958364 1.00063 0.546387 1.00049C0.546398 1.00049 0.54641 1.00049 0.546421 1.00049C0.550838 1.00049 0.555307 1.00103 0.559829 1.00212C0.645663 1.02177 0.739367 1.49869 0.836441 1.56947C0.933551 1.64013 1.56048 1.58715 1.59572 2.26452C1.64217 3.24666 1.48142 5.60269 1.48854 6.12651C1.49345 6.48462 1.55044 6.92551 1.56056 7.38344C1.59318 8.85988 1.5515 9.63246 1.70632 10.9627C1.62473 11.4948 1.54315 12.0268 1.46156 12.5589C1.49939 13.2531 1.3918 14.3053 1.39772 14.7271C1.4026 15.0731 1.46711 15.2758 1.47011 15.6365C1.47384 16.0409 1.4042 16.6621 1.41469 17.3978C1.43156 18.6039 1.59986 18.8185 1.62123 19.5422C1.64335 20.2927 1.55188 21.4598 1.6111 22.4173C1.62961 22.5374 1.64813 22.6575 1.66664 22.7776C1.70851 22.6916 1.75038 22.6055 1.79225 22.5195C1.81174 23.0017 1.72594 23.2092 1.72438 23.6523C1.72251 24.1738 1.80386 24.4398 1.80348 24.7907C1.80311 25.0781 1.73787 25.4678 1.74196 25.8406C1.74758 26.3839 1.84177 26.2651 1.85939 26.5575C1.86624 26.6742 1.91821 28.8311 1.91896 28.9528C1.92268 29.8782 1.79376 29.9588 1.78249 30.6968C1.75174 32.7435 1.85591 34.8446 1.89528 36.7379C1.91289 37.5833 1.9054 38.4653 1.88478 39.3083C1.55485 37.9806 1.29807 40.9189 1.81435 39.82C1.7409 40.7578 1.88027 41.4228 1.85671 42.3119C1.84133 42.887 1.76975 43.285 1.77162 44.1061C1.77541 45.5631 1.97889 47.1568 1.6111 47.5759C1.67594 49.2863 1.54253 50.7676 1.8672 51.3841C1.88704 51.8251 1.69365 52.9554 1.66738 53.4501C1.64263 53.9179 1.55531 57.5074 1.55043 58.0947C1.54556 58.6819 1.54026 59.7099 1.56874 60.2045C1.57568 60.3267 1.59429 60.4417 1.6167 60.556L1 59.9393C1.46664 59.8478 1.92162 59.6928 2.81017 60.009C4.09639 59.9772 4.55465 59.9884 5.75091 60.0342C5.96749 60.0424 5.99199 60.1009 6.1185 60.101C6.37915 60.101 6.82259 60.0578 7.28786 60.0525C8.05295 60.0439 8.4896 60.1668 8.40432 59.979C8.90873 59.9475 9.41314 59.916 9.91755 59.8845C10.0945 59.9208 10.2715 59.957 10.4484 59.9933C10.7181 59.9538 10.9878 59.9143 11.2575 59.8748C10.9407 60.1466 12.8388 59.9862 12.2225 59.8302C13.2003 59.8864 14.1782 59.9427 15.156 59.9989C15.0195 60.3078 17.3029 60.0346 17.1107 59.8666C17.2226 59.8668 17.3345 59.8671 17.4463 59.8673C18.4259 59.9494 19.3254 59.8823 20.5193 59.9374C21.7132 59.9925 21.6011 60.0226 21.9642 60.1647C22.2451 60.1565 22.526 60.1484 22.807 60.1403C24.2811 59.7507 24.0206 60.4252 26.5449 60.1263C27.3514 60.3712 29.3395 60.2426 30.6578 60.1683C30.8111 60.1597 30.8138 60.1122 31.018 60.0975C31.5175 60.0623 32.792 60.1234 32.7484 59.9701C33.1895 60.0144 33.6307 60.0588 34.0719 60.1031C34.4325 60.0753 34.7931 60.0474 35.1537 60.0195C35.1519 59.9717 35.15 59.9238 35.1482 59.876C35.8743 60.0391 37.0153 59.9764 37.5781 60.0154C37.6901 60.0233 37.7143 60.0893 38.0625 60.1073C38.4694 60.1287 39.2277 60.1091 39.7126 60.1298C39.9011 60.0566 40.0896 59.9835 40.2781 59.9104C41.1452 59.8707 41.45 60.0637 41.9591 60.0787C42.0508 60.0813 43.7234 60.0675 43.8135 60.0634C44.5513 60.0307 44.3423 59.8663 46.4761 59.9015C46.856 59.9079 47.1633 59.9648 47.5068 59.967C48.1135 59.9712 49.9416 59.8421 50.0854 59.7229C50.8212 59.8721 52.7901 59.8111 53.37 59.8542C53.545 59.8675 53.5845 59.9626 54.1225 59.9828C54.5586 59.9993 55.6819 59.9232 56.235 59.9359C56.8222 59.9498 57.0318 60.0296 57.2949 60.0353C57.5435 60.0405 57.7726 59.9761 58.1113 59.9764C59.1686 59.9787 60.1261 60.0824 60.9617 60.0843C60.9745 60.0844 60.9873 60.0844 61 60.0844L60.5283 60.556C60.5273 59.3632 60.3396 58.3075 60.2557 57.307C60.2681 57.056 60.3091 56.8094 60.3094 56.5463C60.3154 53.291 60.3506 49.619 60.3915 46.354C60.4102 44.8383 60.6693 41.0692 60.237 42.0752C60.1613 41.5484 60.3356 37.7185 60.3382 36.99C60.3408 36.2617 60.2633 35.6844 60.2622 35.1119C60.2588 33.3844 60.3147 32.1679 60.2472 30.0651C60.2295 29.522 60.1377 28.94 60.1388 28.6184C60.1403 28.231 60.2291 27.8141 60.2347 27.3122C60.2475 26.1159 60.2183 23.8865 60.2336 22.7388C60.2366 22.5292 60.3146 22.4556 60.339 22.1559C60.4342 20.9888 60.4259 19.6806 60.177 19.9121C60.3183 18.4161 60.1894 17.0323 60.1815 15.646C60.1654 12.7147 60.2235 7.37522 60.1189 4.82164C60.054 3.23879 59.945 3.25179 60.0329 1.00049L61 1.96763C60.9612 1.96611 60.9218 1.96454 60.8816 1.96291C60.3554 1.94154 59.8315 1.91272 59.1933 1.88722C57.6972 1.82723 56.3247 1.62096 55.1844 1.86952C53.5228 1.80506 52.1995 1.85078 50.9667 1.6382C50.8213 1.68919 50.676 1.74017 50.5307 1.79115C50.327 1.79242 50.1233 1.79368 49.9195 1.79494C49.856 1.74631 49.7924 1.69769 49.7289 1.64906C48.2696 1.63597 46.4181 1.83583 45.1828 1.83437C43.1117 1.83212 37.7772 1.75447 35.8133 1.68886C34.7707 1.65402 34.7146 1.75816 34.1177 1.54408C33.8845 1.55898 33.6512 1.57387 33.4181 1.58876C33.2721 1.63564 33.1262 1.68251 32.9802 1.72939C31.6426 1.73126 30.056 1.65845 28.7817 1.6592C26.4596 1.6607 22.9727 1.78971 20.6408 1.70497C20.0561 1.6836 19.3253 1.58694 18.7527 1.58803C17.9194 1.58953 17.7168 1.74995 16.6593 1.75295C14.8367 1.75782 11.4425 1.57146 9.71979 1.58571C9.20813 1.58984 8.9694 1.64953 8.6161 1.6559C7.13464 1.68327 5.91835 1.67841 4.4978 1.77065C2.9725 1.61692 3.10426 1.4185 2.63156 1.21828C2.27332 1.06716 1.17484 0.716957 1.0189 0.584609C0.909367 0.491627 1.31834 0.372016 1.16484 0.269667C2.99229 0.187932 3.76003 0.277911 5.24393 0.421889C7.98429 0.416152 10.7247 0.410414 13.465 0.404677C13.7143 0.460545 13.9637 0.516412 14.213 0.57228C14.213 0.572402 14.213 0.572524 14.213 0.572646C15.2654 0.637121 15.7114 0.493244 16.279 0.460585C21.7126 0.147882 32.4073 0.392626 38.3892 0.42787C39.6782 0.435366 43.8715 0.360085 44.7559 0.45082C44.9849 0.47445 45.0486 0.560596 45.2923 0.564345C47.4689 0.513116 49.6456 0.461887 51.8223 0.410658C54.8401 0.500906 57.9268 0.480054 61 0.45057C61.3111 0.447968 61.5473 0.689418 61.5499 1.00049C61.5642 2.48538 61.5804 3.96712 61.5871 5.43642C61.643 17.6389 61.7109 29.7195 61.6903 41.7222C61.6862 44.0419 61.7507 46.9855 61.7091 49.2565C61.6918 50.2042 61.5535 50.5991 61.6566 51.8442C61.6193 51.8573 61.5821 51.8703 61.5448 51.8834C61.5898 52.97 61.6746 53.6643 61.6832 54.8825C61.6903 55.9083 61.6959 58.6225 61.6816 59.529C61.6745 59.9991 61.6049 59.824 61.6052 60.2623C61.6053 60.3495 61.6068 60.4481 61.6092 60.556C61.612 60.9006 61.3446 61.1623 61 61.1652C60.1785 61.1834 58.8195 61.2587 57.9042 61.2587C56.9661 61.2587 55.3847 61.1784 54.6634 61.1901C52.066 61.2313 49.2367 61.3502 46.4688 61.3184C45.7041 61.3093 44.7207 61.219 44.4812 61.2216C44.0135 61.2268 43.8741 61.3145 43.5599 61.3258C41.964 61.3828 39.4763 61.2786 37.912 61.2744C32.8146 61.2609 27.4145 61.2992 22.3391 61.2831C19.1325 61.273 13.8038 61.2884 10.8434 61.2224C10.205 61.2082 10.3752 61.1121 9.83911 61.1121C9.24475 61.1121 8.92286 61.177 8.64512 61.1823C6.83323 61.2169 2.95951 61.2772 1 61.2284C0.619644 61.2316 0.330778 60.9364 0.327596 60.556C0.330574 60.4363 0.333959 60.3236 0.337782 60.219C0.350524 59.8733 0.425825 59.6225 0.425551 59.4155C0.425551 59.3107 0.374163 59.074 0.36891 58.745C0.322417 55.8406 0.352387 53.7229 0.370009 50.8769C0.403375 45.4263 0.307774 39.1108 0.359511 33.3848C0.370759 32.1373 0.519702 31.2818 0.518203 31.1063C0.515198 30.7214 0.415018 30.4749 0.390273 29.6953C0.308935 27.1029 0.415836 23.6115 0.365614 21.1458C0.340871 19.9276 0.2137 18.2536 0.18556 17.0548C0.163066 16.0974 0.212951 13.8361 0.157118 13.4118C0.123385 13.1536 0.0150412 13.0341 0.00147781 12.7249ZM1.68801 44.9809C1.51478 44.8103 1.65874 46.6029 1.75173 45.9304C1.77266 45.7789 1.73297 45.0249 1.68801 44.9809ZM60.6128 52.1899C60.5633 52.2063 60.5138 52.2227 60.4643 52.2391C60.4849 52.4745 60.5055 52.7098 60.5261 52.9451C60.5559 52.8129 60.5856 52.6806 60.6153 52.5484C60.6145 52.4289 60.6136 52.3094 60.6128 52.1899Z" fill="#121212"/>
<path d="M37.6855 50.6922C37.6019 50.5692 37.5555 50.3589 37.4827 50.199C37.2452 49.7522 37.4177 49.2141 37.8517 48.9539C37.8572 48.9511 37.8627 48.9482 37.8681 48.9452C38.4765 48.6117 38.7216 48.5222 39.278 48.2308C40.103 47.7988 42.4529 46.3453 42.678 46.7356C42.678 46.7356 42.678 46.7356 42.678 46.7356C42.6802 46.7394 42.6822 46.7434 42.684 46.7476C42.7185 46.8268 42.5619 47.0253 42.5801 47.1268C42.5985 47.2284 42.9343 47.7584 42.6629 47.9556C42.267 48.2375 41.1815 48.6779 40.9615 48.813C40.8112 48.9053 40.6516 49.0632 40.4612 49.1846C39.8476 49.5762 39.4971 49.7301 39.0069 50.1915C38.8766 50.2208 38.7463 50.2501 38.6161 50.2795L38.8459 49.504C38.8662 49.6361 38.8896 49.7688 38.9158 49.9014C39.1048 50.1683 39.2836 50.6413 39.4066 50.801C39.5053 50.932 39.614 50.9708 39.7194 51.1029C39.8382 51.2505 39.9679 51.5228 40.212 51.772C40.6158 52.1761 40.8103 52.1158 41.0725 52.323C41.3442 52.5351 41.7174 52.9414 42.1245 53.1334C42.1812 53.1483 42.2376 53.1624 42.2942 53.1761C42.283 53.1196 42.2724 53.0632 42.2624 53.0069C42.4563 53.108 42.4933 53.2304 42.6684 53.3331C42.8766 53.4535 43.0215 53.4366 43.1641 53.5093C43.2794 53.5678 43.414 53.7046 43.5713 53.7697C43.8025 53.8645 43.7897 53.7553 43.9185 53.7895C43.9672 53.8141 44.9097 54.0851 44.9662 54.0892C45.3724 54.1997 45.377 54.3311 45.7078 54.4171C46.631 54.6495 47.6214 54.6336 48.5017 54.5982C48.5333 54.597 48.5651 54.5958 48.597 54.5947C48.9625 54.5822 49.3339 54.576 49.6932 54.5665C49.0933 54.9456 50.5013 55.0831 49.9346 54.6159C50.3775 54.6452 50.6612 54.4629 51.0645 54.4098C51.3235 54.3737 51.5196 54.4059 51.8833 54.3053C52.536 54.1271 53.1023 53.6596 53.4296 53.9076C54.1069 53.5212 54.7351 53.2234 54.744 52.7993C54.8829 52.6699 55.3783 52.4823 55.5486 52.3332C55.7488 52.2372 56.729 50.9496 56.7947 50.6748C56.9118 50.4342 57.0708 49.9956 57.1007 49.7685C57.1408 49.4793 56.8592 49.2437 57.3199 48.8065C57.3558 48.3099 57.3662 48.0865 57.3985 47.6948C57.4041 47.6174 57.4098 47.5345 57.4152 47.4436C57.421 47.3421 57.4789 47.3295 57.4768 47.27C57.472 47.143 57.4185 46.9435 57.3923 46.7239C57.35 46.3734 57.434 46.151 57.2557 46.22C57.1889 45.9952 57.113 45.7765 57.0274 45.5644C57.0436 45.4797 57.0574 45.3913 57.07 45.3041C56.9982 45.1977 56.9237 45.0935 56.8469 44.9932C57.1598 45.0355 56.6894 44.2901 56.6514 44.6119C56.5341 44.1946 56.3696 43.7859 56.1583 43.3929C56.4602 43.253 55.566 42.5979 55.4981 42.7959C55.4639 42.7589 55.4297 42.7226 55.3947 42.6863C55.1425 42.3119 54.7877 42.0875 54.3773 41.7127C53.9592 41.3409 54.011 41.3511 53.9476 41.1362C53.8306 41.0692 53.7124 41.0037 53.5941 40.9404C52.7919 40.9179 53.2403 40.3782 52.0074 40.0874C51.7795 39.7123 50.9164 39.4287 50.2973 39.2494C50.2646 39.2398 50.2325 39.2303 50.2011 39.221C50.1283 39.1994 50.1085 39.2426 50.0101 39.2168C49.77 39.1529 49.2162 38.8511 49.176 39.0006C49.0633 38.9229 48.9506 38.8452 48.8379 38.7676C48.7642 38.7174 48.6941 38.6686 48.6247 38.6197C48.447 38.5725 48.2726 38.5254 48.0951 38.4747C48.076 38.5186 48.0569 38.5625 48.0378 38.6063C47.7716 38.3074 47.2239 38.1039 46.984 37.917C46.9367 37.8802 46.9593 37.8188 46.8125 37.7076C46.6423 37.58 46.2949 37.3616 46.1101 37.1618C45.9826 37.1452 45.8534 37.1211 45.7224 37.0867C45.3349 36.7071 45.4147 36.4121 45.3103 36.1366C45.2496 36.091 45.0523 35.1332 45.0795 35.087C45.0706 35.0137 45.0597 34.957 45.0472 34.9055C45.0269 34.6724 44.7717 34.5095 45.2554 33.4919C45.3759 33.2796 45.5355 33.1526 45.6758 32.9932C45.8828 32.6639 46.8184 32.0055 46.8901 31.8984C47.2078 31.8797 47.7996 31.7699 48.2665 31.7849C48.5062 31.7875 48.7194 31.8054 48.8336 31.8323C48.9314 31.8573 48.9434 31.9469 49.2387 32.0202C49.476 32.0688 50.1279 32.2012 50.4064 32.3863C50.7019 32.5694 50.7474 32.7126 50.8627 32.8062C50.9691 32.8962 51.1109 32.9313 51.2488 33.0645C51.6759 33.4841 51.8822 33.9701 52.1084 34.3377C52.1777 34.4514 52.2502 34.5591 52.3251 34.6639L51.63 34.4895C51.9787 34.2057 52.2526 33.8741 52.5473 33.6072C52.6582 33.5512 52.7826 33.5205 52.8921 33.4511C53.8554 32.8423 54.914 32.1902 55.9405 31.5659L55.7285 32.4264C55.5064 32.0178 55.2663 31.6297 55.0121 31.2743C54.6539 30.6693 53.4827 29.3466 53.5635 29.9873C53.3719 29.8585 51.9881 28.8696 51.6402 28.8029C51.3293 28.6898 51.0563 28.6944 50.8048 28.6349C50.0434 28.4651 49.4842 28.3373 48.5005 28.3812C48.4234 28.3853 48.344 28.3969 48.2665 28.4113C48.0919 28.4442 47.9348 28.4929 47.8343 28.4963C47.6556 28.5021 47.4647 28.4247 47.2322 28.4418C46.6824 28.4701 45.6965 28.7098 45.2109 28.8772C45.1219 28.9052 45.0639 28.8427 44.9275 28.8686C44.3937 28.9655 43.8711 29.2714 44.0859 29.4372C43.4349 29.6352 43.0102 30.121 42.5979 30.5502C41.617 31.3989 40.7206 33.6545 40.8936 34.805C40.8987 34.8844 40.9059 34.9549 40.9141 35.0189C40.9914 35.538 41.0431 35.6254 41.0974 36.5465C41.1165 36.7764 41.136 37.0045 41.1877 37.2795C41.3027 37.911 41.3914 38.5697 41.8687 38.8604C42.2001 39.5043 42.6302 39.8964 42.8987 40.4299C42.982 40.4366 43.0659 40.4428 43.1482 40.4466C43.2181 40.5054 43.2897 40.5636 43.3623 40.6208C43.3539 40.6766 43.3459 40.7326 43.3385 40.7889C43.8579 41.2251 44.7004 41.5101 45.2069 41.7818C45.6088 42.0034 46.326 42.3767 47.0882 42.7243C47.5745 42.9486 48.0625 43.177 48.4783 43.3754C48.8094 43.5358 49.0938 43.6774 49.2961 43.7844C49.7566 44.0292 49.8308 43.9507 50.0107 44.274C50.1238 44.3121 50.2377 44.352 50.3505 44.3931C50.4386 44.3856 50.5287 44.3798 50.6174 44.3742C51.2344 44.7014 51.9656 45.2523 52.4163 45.9244C52.7515 46.3912 52.9865 47.0967 52.9943 47.7666C53.0706 48.8888 52.286 50.0189 51.5432 50.4072C51.2381 50.59 50.8145 50.6842 50.5154 50.7888C50.0766 50.9348 50.0043 51.1246 49.4173 51.2178C49.1495 51.2554 48.8185 51.2688 48.4665 51.25C47.5032 51.2189 46.3579 50.8639 45.7319 50.5788C45.4753 50.4696 45.332 50.4604 45.1578 50.371C44.431 49.9867 43.9263 49.5384 43.3448 49.0291C42.9268 48.3036 43.1562 48.2348 43.1716 47.9251C43.1835 47.6885 43.186 47.0495 43.2633 46.9179C43.3151 46.8252 43.5187 46.9258 43.5672 46.8101C44.0935 47.4791 44.225 47.7929 44.5837 48.3801C45.4487 49.2691 46.5726 49.7968 47.8045 49.8999C47.9098 49.9663 48.0207 50.0302 48.1332 50.0913C48.1332 50.0914 48.1332 50.0915 48.1332 50.0917C48.2623 50.1144 48.3685 50.1186 48.4665 50.1127C48.7359 50.095 48.8929 49.9991 49.0762 49.9569C50.0973 49.7509 51.6262 49.0886 51.6007 47.7666C51.7897 46.1021 49.3534 45.2686 47.9602 44.5816C47.8485 44.5318 47.7362 44.482 47.6272 44.4341C47.4081 44.3377 46.9974 44.1725 46.5512 43.9905C45.7977 43.69 44.9595 43.2845 44.7397 43.1007C44.6476 43.0254 44.6594 42.934 44.5534 42.8721C43.5658 42.3904 42.5974 41.806 41.7477 41.0281C40.2555 39.4341 39.4215 37.1718 39.4289 35.0189C39.4262 34.8231 39.4303 34.6321 39.4418 34.437C39.512 29.9326 44.1378 26.7296 48.2665 26.9416C50.3348 26.9184 52.59 27.3749 54.3234 28.7366C55.3273 29.483 56.3591 30.6961 56.8974 31.7488C56.8985 31.7509 56.8996 31.753 56.9007 31.755C57.0962 32.0833 56.9853 32.4942 56.6665 32.7051C56.267 32.938 56.0287 32.9279 55.5692 33.3425C55.5437 33.3145 55.5183 33.2866 55.4928 33.2586C55.0657 33.5842 54.8229 33.8395 54.3215 34.1692C53.8993 34.4468 52.775 35.1699 52.3908 35.3978C52.3207 35.4395 52.2797 35.4535 52.248 35.4592C51.9209 35.6756 51.5205 35.5658 51.3226 35.2271C51.3166 35.171 51.3364 35.1453 51.2702 35.033C51.0974 34.7286 50.6073 34.1958 50.296 33.9283C50.0299 33.6578 49.5234 33.3054 49.2261 33.255C48.9311 33.1878 48.607 33.1714 48.2665 33.191C47.4737 33.2324 46.8096 33.6052 46.5074 34.1552C46.378 34.3601 46.236 34.688 46.238 34.7804C46.2363 34.831 46.2443 34.8709 46.2561 34.9055C46.2847 34.998 46.3326 35.048 46.3467 35.1302C46.3949 35.7272 46.8214 36.3701 47.484 36.7502C48.0253 37.0803 48.6653 37.3656 49.3182 37.6453C49.7845 37.842 50.256 38.04 50.7275 38.238C51.9874 38.7691 53.2468 39.3534 54.3977 40.0954C55.8354 40.8895 57.9 43.1262 58.19 44.7618C58.2757 45.0921 58.1581 45.0341 58.228 45.3061C58.302 45.6119 58.3935 45.764 58.4244 45.9102C58.5158 46.3408 58.6059 47.0069 58.6171 47.6948C58.6435 48.6081 58.4804 49.5704 58.2885 50.0918C58.2258 50.269 58.113 50.3729 58.0784 50.4765C58.0604 50.5294 58.0681 50.667 58.0088 50.8331C57.4626 52.2974 56.6725 53.2355 55.4606 54.1364C53.5814 55.5143 51.007 56.1638 48.597 56.1498C47.9811 56.1492 47.3699 56.1115 46.7753 56.0326C46.1355 55.9475 45.7345 55.7108 45.6456 55.6955C45.4522 55.6587 45.3073 55.7337 44.9106 55.6588C43.5772 55.424 41.9437 54.5467 40.8977 53.7952C40.37 53.4408 39.6293 52.9346 39.1855 52.4696C38.8125 52.114 38.1593 51.1007 38.007 50.93C37.9067 50.8305 37.7804 50.8306 37.6855 50.6922ZM52.2919 54.271C52.2729 54.4662 53.0067 54.0503 52.682 54.0691C52.6107 54.0751 52.2988 54.2231 52.2919 54.271ZM54.8646 32.5538C54.8312 32.5164 54.7978 32.479 54.7643 32.4416C54.6777 32.5213 54.591 32.6009 54.5043 32.6806C54.5752 32.6707 54.6462 32.6607 54.7171 32.6508C54.7662 32.6185 54.8154 32.5861 54.8646 32.5538ZM18.965 48.8658C19.0441 48.8043 19.1978 48.7875 19.3002 48.73C19.7293 48.4896 19.9086 48.4343 20.303 48.2271C20.8878 47.9198 22.5217 46.8385 22.7538 47.2247C22.7538 47.2247 22.7538 47.2247 22.7538 47.2247C22.7561 47.2285 22.7583 47.2324 22.7603 47.2365C22.7986 47.3136 22.7042 47.4797 22.733 47.5756C22.7619 47.6716 23.1006 48.1994 22.9161 48.3514C22.6461 48.5678 21.8584 48.8537 21.7053 48.954C21.6007 49.0226 21.4981 49.1507 21.3663 49.2417C20.9413 49.5351 20.6887 49.6383 20.3704 50.0102C20.1692 50.036 19.968 50.0617 19.7667 50.0874C19.5785 50.2447 19.2082 50.3417 19.0851 50.4226C18.9841 50.489 18.9566 50.5807 18.8503 50.6481C18.7943 50.6838 18.7158 50.7142 18.626 50.751L18.7977 50.1812C18.8272 50.2819 18.8653 50.3975 18.9305 50.5109C19.1351 50.8609 19.32 50.835 19.4607 51.0252C19.6067 51.2209 19.7472 51.5896 19.9881 51.799C20.0267 51.8183 20.0654 51.8373 20.1041 51.8559C20.1193 51.808 20.1348 51.7603 20.1508 51.7129C20.2612 51.8206 20.237 51.9257 20.3286 52.0347C20.437 52.1624 20.5545 52.1691 20.6303 52.25C20.692 52.3157 20.7326 52.4502 20.8208 52.5296C20.9497 52.645 20.9871 52.5497 21.0662 52.5987C21.0938 52.6247 21.6453 53.0102 21.68 53.0253C21.9133 53.1898 21.8629 53.3095 22.0534 53.445C22.5861 53.8178 23.2438 53.9986 23.8203 54.1421C24.0785 54.2073 24.3451 54.2871 24.6014 54.3648C24.1046 54.5931 24.9971 55.0478 24.7467 54.4677C25.0289 54.599 25.2659 54.4946 25.5437 54.5519C25.7274 54.5884 25.8462 54.6729 26.1162 54.6888C26.3701 54.703 26.639 54.6505 26.856 54.6522C27.045 54.6539 27.1908 54.6975 27.2604 54.8661C27.8242 54.7854 28.3309 54.857 28.482 54.507C28.6191 54.4694 29.0097 54.5979 29.1752 54.5877C29.3327 54.6004 30.4782 54.3477 30.6497 54.256C30.8272 54.1894 31.1311 54.0497 31.2573 53.9475C31.4209 53.8171 31.3536 53.4734 31.8612 53.6056C32.1798 53.3422 32.2966 53.2603 32.6098 53.0336C32.6657 52.9918 32.7121 53.028 32.7414 52.9993C32.802 52.9399 32.8715 52.8073 32.9668 52.6925C33.1238 52.5032 33.3042 52.4664 33.1405 52.3719C33.2159 52.2258 33.2833 52.0795 33.3458 51.9294C33.4072 51.9027 33.4676 51.8764 33.5285 51.8477C33.5409 51.7538 33.5516 51.6593 33.5596 51.566C33.7484 51.7928 33.898 51.1718 33.6652 51.278C33.8547 51.0319 34.0306 50.7639 34.1895 50.4836C34.4731 50.6312 34.4377 49.8178 34.2507 49.8389C34.2605 49.8032 34.2695 49.7694 34.2786 49.7346C34.4356 49.4472 34.4299 49.1423 34.5404 48.7651C34.6485 48.378 34.6688 48.4217 34.8238 48.3139C34.8249 48.2192 34.8252 48.1211 34.8241 48.027C34.513 47.5786 34.9815 47.6162 34.9171 47.051C34.9066 46.9659 34.8842 46.8677 34.8454 46.7531C35.0902 46.4716 34.9616 45.7776 34.8874 45.3174C34.8788 45.2638 34.8312 45.2629 34.8166 45.1916C34.7813 45.0173 34.8424 44.5724 34.6891 44.5876C34.7335 44.4336 34.7778 44.2796 34.8222 44.1255C34.7943 43.9997 34.7665 43.8738 34.7386 43.7479C34.6907 43.7485 34.6429 43.7492 34.595 43.7498C34.7581 43.4963 34.6954 43.098 34.7344 42.9015C34.7423 42.8625 34.8083 42.854 34.8263 42.7325C34.8477 42.5904 34.8282 42.3257 34.8488 42.1565C34.7757 42.0906 34.7026 42.0248 34.6294 41.959C34.5898 41.6563 34.7828 41.5499 34.7978 41.3722C34.8004 41.3402 34.7865 40.7563 34.7824 40.7248C34.7497 40.4673 34.5853 40.5403 34.6205 39.7954C34.6269 39.6627 34.6838 39.5555 34.6861 39.4356C34.6902 39.2238 34.5612 38.5856 34.4419 38.5354C34.5912 38.2785 34.5302 37.5912 34.5733 37.3888C34.5866 37.3277 34.6816 37.3139 34.7018 37.1261C34.7183 36.9738 34.6422 36.5817 34.655 36.3886C34.6688 36.1837 34.7487 36.1105 34.7543 36.0186C34.7596 35.9319 34.6951 35.8519 34.6955 35.7336C34.6977 35.3646 34.8015 35.0303 34.8034 34.7386C34.8064 34.3167 34.6156 33.944 34.5308 33.591C34.5432 33.5034 34.5841 33.4173 34.5845 33.3255C34.5905 32.1891 34.6257 30.9072 34.6666 29.7675C34.6853 29.2383 34.9444 27.9226 34.5121 28.2738C34.4929 28.227 34.4898 28.1054 34.496 27.946L35.2751 28.7251C34.8084 28.707 34.0173 28.6097 33.8277 28.6077C33.5735 28.6051 33.3719 28.6826 33.1721 28.6838C32.569 28.6872 32.1443 28.6313 31.4103 28.6988C31.2207 28.7165 31.0175 28.8083 30.9053 28.8072C30.77 28.8057 30.6245 28.7169 30.4493 28.7113C30.2387 28.7048 29.9364 28.7091 29.637 28.7129L30.4039 27.946C30.4077 28.2402 30.411 28.5316 30.4034 28.7302C30.4004 28.8034 30.3224 28.8291 30.298 28.9337C30.2028 29.3411 30.2111 29.7978 30.46 29.717C30.3187 30.2392 30.4476 30.7223 30.4555 31.2063C30.4716 32.2295 30.4135 34.0935 30.5181 34.9849C30.5841 35.547 30.6958 35.5326 30.5994 36.3602C30.5781 36.5439 30.5492 36.7267 30.5237 36.9496C30.4637 37.4718 30.2575 37.9509 30.506 38.349C30.4416 38.929 30.4873 39.391 30.2747 39.8214C30.3257 39.8721 30.3767 39.9228 30.4277 39.9736C30.4289 40.0447 30.4302 40.1158 30.4314 40.1869C30.3828 40.2091 30.3342 40.2313 30.2856 40.2535C30.2725 40.7629 30.4723 41.4092 30.4709 41.8404C30.4686 42.5635 30.391 44.4257 30.3254 45.1112C30.2905 45.4752 30.3947 45.4948 30.1806 45.7032C30.1955 45.7846 30.2104 45.866 30.2253 45.9474C30.2721 45.9983 30.319 46.0493 30.3659 46.1002C30.367 46.3752 30.3422 46.6802 30.3218 46.9754C30.3075 47.1994 30.2884 47.4116 30.2749 47.612C30.259 48.4284 29.9807 50.1008 28.8669 50.6483C28.6235 50.7834 28.286 50.8239 28.0585 50.8925C27.7271 50.9877 27.6716 51.1646 27.2416 51.2163C27.0609 51.2351 26.8439 51.2354 26.616 51.2191C25.8684 51.1974 24.9543 50.7896 24.5203 50.4759C24.3423 50.3602 24.2291 50.3439 24.1123 50.2537C23.6294 49.8686 23.3471 49.4787 22.9726 49.085C22.7923 48.5214 23.0004 48.4644 23.0845 48.2178C23.149 48.0313 23.2639 47.5266 23.3524 47.4139C23.4144 47.3349 23.5886 47.3993 23.6512 47.3024C24.0349 47.808 24.0796 48.0649 24.2347 48.5421C24.7453 49.2701 25.3613 49.7641 26.1449 49.8627C26.2076 49.9286 26.276 49.9925 26.3479 50.0539C26.3479 50.0541 26.3479 50.0542 26.3479 50.0543C26.4526 50.0832 26.5394 50.084 26.616 50.072C26.7803 50.0465 26.8814 49.9696 27.0001 49.9396C28.1973 49.7805 28.9877 48.8197 28.9797 46.9754C29.011 45.9483 29.0516 44.9714 29.0644 44.212C29.0719 43.762 28.9966 42.2982 29.0873 41.9895C29.111 41.9095 29.1971 41.8873 29.2009 41.8022C29.1496 41.0424 29.0984 40.2825 29.0472 39.5227C29.181 37.9601 29.0705 36.3448 29.0499 34.7703C29.0199 32.4841 28.9864 30.2101 28.965 27.946C28.9559 27.566 29.257 27.2831 29.637 27.274C31.5228 27.2562 33.4017 27.2468 35.2751 27.2548C35.666 27.2454 35.957 27.5551 35.9663 27.946C35.966 28.0142 35.9657 28.0824 35.9654 28.1505C35.9613 28.9603 36.0258 29.9879 35.9842 30.7807C35.9669 31.1115 35.8286 31.2494 35.9317 31.684C35.8944 31.6886 35.8572 31.6931 35.8199 31.6977C35.8649 32.077 35.9497 32.3194 35.9583 32.7447C35.9654 33.1028 35.971 34.0502 35.9567 34.3667C35.9496 34.5308 35.88 34.4697 35.8803 34.6227C35.8814 34.8847 35.9777 35.4444 35.9777 35.8059C35.9777 36.1334 35.8975 36.6855 35.9091 36.9373C35.9504 37.844 36.0693 38.8317 36.0374 39.7979C36.0284 40.0649 35.9381 40.4082 35.9406 40.4918C35.9459 40.655 36.0336 40.7037 36.0449 40.8134C36.1018 41.3705 35.9976 42.2389 35.9935 42.785C35.9829 44.1773 36.004 45.6343 36.006 47.051C36.0065 47.4696 35.9888 47.8783 35.9497 48.2851C35.8798 49.4629 35.3459 51.4483 34.6479 52.3739C34.5074 52.5755 34.4617 52.467 34.3496 52.6365C34.2232 52.8228 34.2021 52.9571 34.1409 53.0457C33.7622 53.6824 32.5115 54.8 31.8446 55.0293C31.722 55.0807 31.6029 55.056 31.5338 55.0902C31.4986 55.1074 31.4408 55.1928 31.3289 55.2491C30.3422 55.7326 29.5445 55.8926 28.5068 56.0141C27.9748 56.0719 27.4208 56.1048 26.856 56.1089C25.3021 56.1281 23.5936 55.8677 22.1808 55.1379C21.7614 54.9235 21.5646 54.6255 21.5094 54.5948C21.3873 54.5234 21.2547 54.5619 20.9987 54.4169C20.134 53.9393 19.278 52.9119 18.7238 52.1855C18.4397 51.8319 18.0085 51.3569 17.7813 50.9634C17.7442 50.9003 17.7014 50.8174 17.6569 50.7242C17.4674 50.3495 17.6206 49.8929 17.9752 49.668C18.2988 49.4732 18.7613 49.2217 18.8396 49.1227C18.8995 49.0474 18.8795 48.933 18.965 48.8658ZM26.3984 54.7868C26.3372 54.9606 26.9342 54.8273 26.712 54.7308C26.6616 54.7099 26.4166 54.7431 26.3984 54.7868ZM34.8879 31.8047C34.8384 31.8104 34.7889 31.8162 34.7394 31.8219C34.76 31.904 34.7806 31.9862 34.8012 32.0683C34.8309 32.0222 34.8607 31.976 34.8904 31.9298C34.8896 31.8881 34.8887 31.8464 34.8879 31.8047Z" fill="#121212"/>
</svg>
