<svg width="204" height="71" viewBox="0 0 204 71" fill="none" xmlns="http://www.w3.org/2000/svg">
<path d="M17.172 4.14737C15.6159 18.2714 13.4373 47.0492 17.172 49.1679M17.172 4.14737C29.718 -2.03192 198.652 7.08988 201.277 7.08988C203.378 7.08988 200.402 38.2805 198.652 53.8759M17.172 4.14737L2 20.9197V60.938M17.172 49.1679C21.8403 51.8161 119.582 51.5219 121.625 53.8759C123.259 55.7591 173.657 54.6606 198.652 53.8759M17.172 49.1679L2 60.938M198.652 53.8759L184.355 68C163.445 65.646 118.415 61.703 105.578 64.7632C92.7398 67.8234 31.1768 63.4881 2 60.938" stroke="#121212" stroke-width="4"/>
</svg>
