<svg width="204" height="67" viewBox="0 0 204 67" fill="none" xmlns="http://www.w3.org/2000/svg">
<path d="M199.218 37.6583C186.455 63.9558 162.146 52.336 136.924 52.336C116.747 52.336 69.7682 52.336 48.8009 52.336C35.5318 53.2533 9.72284 49.4616 12.64 26.9559C13.1478 23.0386 14.4853 19.7006 16.4263 16.8649M199.218 37.6583C209.428 16.6203 189.089 9.52607 177.643 8.60872L60.652 2.18727C48.4375 1.26122 25.6371 3.40856 16.4263 16.8649M199.218 37.6583C199.218 53.0231 183.012 60.5727 174.908 62.4269C152.726 64.0577 105.686 66.5855 94.9897 63.65C81.6192 59.9806 35.4305 61.8153 26.0104 60.5922C16.5904 59.369 2.30833 52.336 2.00446 37.6583C1.76136 25.9161 11.5177 18.9035 16.4263 16.8649" stroke="#121212" stroke-width="4"/>
</svg>
