<svg width="257" height="71" viewBox="0 0 257 71" fill="none" xmlns="http://www.w3.org/2000/svg">
<path d="M41.3832 3.80052L15.5679 30.2955M41.3832 3.80052C104.11 2.44181 228.883 0.539601 226.166 3.80052C223.448 7.06145 242.923 22.8226 253 30.2955L220.052 55.4318M41.3832 3.80052L26.0978 8.55608L3 38.4479M15.5679 30.2955L46.4783 55.4318M15.5679 30.2955L3 38.4479M46.4783 55.4318H220.052M46.4783 55.4318L41.3832 63.5842M220.052 55.4318L204.427 68L41.3832 63.5842M3 38.4479L41.3832 63.5842" stroke="#121212" stroke-width="4"/>
<path d="M15.568 30.2955L41.3832 3.80052C104.11 2.44181 228.883 0.539601 226.166 3.80052C223.448 7.06145 242.923 22.8226 253 30.2955L220.052 55.4318H46.4783L15.568 30.2955Z" fill="#156BD8" stroke="#121212" stroke-width="4"/>
</svg>
