<svg width="199" height="65" viewBox="0 0 199 65" fill="none" xmlns="http://www.w3.org/2000/svg">
<g filter="url(#filter0_d_2424_954)">
<path d="M8.17195 49.1679C4.43732 47.0492 6.61585 18.2714 8.17195 4.14737C20.718 -2.03192 189.652 7.08988 192.277 7.08988C194.378 7.08988 191.402 38.2805 189.652 53.8759C164.657 54.6606 114.259 55.7591 112.625 53.8759C110.582 51.5219 12.8402 51.8161 8.17195 49.1679Z" fill="#156BD8"/>
<path d="M8.17195 49.1679C4.43732 47.0492 6.61585 18.2714 8.17195 4.14737C20.718 -2.03192 189.652 7.08988 192.277 7.08988C194.378 7.08988 191.402 38.2805 189.652 53.8759C164.657 54.6606 114.259 55.7591 112.625 53.8759C110.582 51.5219 12.8402 51.8161 8.17195 49.1679Z" stroke="#121212" stroke-width="4"/>
</g>
<defs>
<filter id="filter0_d_2424_954" x="0.109863" y="0" width="198.89" height="64.916" filterUnits="userSpaceOnUse" color-interpolation-filters="sRGB">
<feFlood flood-opacity="0" result="BackgroundImageFix"/>
<feColorMatrix in="SourceAlpha" type="matrix" values="0 0 0 0 0 0 0 0 0 0 0 0 0 0 0 0 0 0 127 0" result="hardAlpha"/>
<feOffset dy="4"/>
<feGaussianBlur stdDeviation="2"/>
<feComposite in2="hardAlpha" operator="out"/>
<feColorMatrix type="matrix" values="0 0 0 0 0 0 0 0 0 0 0 0 0 0 0 0 0 0 0.25 0"/>
<feBlend mode="normal" in2="BackgroundImageFix" result="effect1_dropShadow_2424_954"/>
<feBlend mode="normal" in="SourceGraphic" in2="effect1_dropShadow_2424_954" result="shape"/>
</filter>
</defs>
</svg>
