<svg width="191" height="57" viewBox="0 0 191 57" fill="none" xmlns="http://www.w3.org/2000/svg">
<g filter="url(#filter0_i_2424_954)">
<path d="M4.17195 49.1679C0.437316 47.0492 2.61585 18.2714 4.17195 4.14737C16.718 -2.03192 185.652 7.08988 188.277 7.08988C190.378 7.08988 187.402 38.2805 185.652 53.8759C160.657 54.6606 110.259 55.7591 108.625 53.8759C106.582 51.5219 8.84023 51.8161 4.17195 49.1679Z" fill="#156BD8"/>
</g>
<path d="M4.17195 49.1679C0.437316 47.0492 2.61585 18.2714 4.17195 4.14737C16.718 -2.03192 185.652 7.08988 188.277 7.08988C190.378 7.08988 187.402 38.2805 185.652 53.8759C160.657 54.6606 110.259 55.7591 108.625 53.8759C106.582 51.5219 8.84023 51.8161 4.17195 49.1679Z" stroke="#121212" stroke-width="4"/>
<defs>
<filter id="filter0_i_2424_954" x="0.109863" y="0" width="190.89" height="60.916" filterUnits="userSpaceOnUse" color-interpolation-filters="sRGB">
<feFlood flood-opacity="0" result="BackgroundImageFix"/>
<feBlend mode="normal" in="SourceGraphic" in2="BackgroundImageFix" result="shape"/>
<feColorMatrix in="SourceAlpha" type="matrix" values="0 0 0 0 0 0 0 0 0 0 0 0 0 0 0 0 0 0 127 0" result="hardAlpha"/>
<feOffset dy="8"/>
<feGaussianBlur stdDeviation="2"/>
<feComposite in2="hardAlpha" operator="arithmetic" k2="-1" k3="1"/>
<feColorMatrix type="matrix" values="0 0 0 0 0 0 0 0 0 0 0 0 0 0 0 0 0 0 0.25 0"/>
<feBlend mode="normal" in2="shape" result="effect1_innerShadow_2424_954"/>
</filter>
</defs>
</svg>
