<svg width="202" height="65" viewBox="0 0 202 65" fill="none" xmlns="http://www.w3.org/2000/svg">
<g filter="url(#filter0_d_2424_950)">
<path d="M42.8009 52.336C29.5318 53.2533 3.72283 49.4616 6.64001 26.9559C7.14777 23.0386 8.48528 19.7006 10.4263 16.8649C19.637 3.40856 42.4375 1.26122 54.652 2.18727L171.643 8.60872C183.089 9.52607 203.428 16.6203 193.218 37.6583C180.455 63.9558 156.146 52.336 130.924 52.336H42.8009Z" fill="#156BD8"/>
<path d="M42.8009 52.336C29.5318 53.2533 3.72283 49.4616 6.64001 26.9559C7.14777 23.0386 8.48528 19.7006 10.4263 16.8649C19.637 3.40856 42.4375 1.26122 54.652 2.18727L171.643 8.60872C183.089 9.52607 203.428 16.6203 193.218 37.6583C180.455 63.9558 156.146 52.336 130.924 52.336H42.8009Z" stroke="#121212" stroke-width="4"/>
</g>
<defs>
<filter id="filter0_d_2424_950" x="0.412231" y="0" width="201.588" height="64.8936" filterUnits="userSpaceOnUse" color-interpolation-filters="sRGB">
<feFlood flood-opacity="0" result="BackgroundImageFix"/>
<feColorMatrix in="SourceAlpha" type="matrix" values="0 0 0 0 0 0 0 0 0 0 0 0 0 0 0 0 0 0 127 0" result="hardAlpha"/>
<feOffset dy="4"/>
<feGaussianBlur stdDeviation="2"/>
<feComposite in2="hardAlpha" operator="out"/>
<feColorMatrix type="matrix" values="0 0 0 0 0 0 0 0 0 0 0 0 0 0 0 0 0 0 0.25 0"/>
<feBlend mode="normal" in2="BackgroundImageFix" result="effect1_dropShadow_2424_950"/>
<feBlend mode="normal" in="SourceGraphic" in2="effect1_dropShadow_2424_950" result="shape"/>
</filter>
</defs>
</svg>
