<svg width="50" height="48" viewBox="0 0 50 48" fill="none" xmlns="http://www.w3.org/2000/svg">
<g clip-path="url(#clip0_2066_776)">
<path d="M15.5841 3.92825C22.4599 1.04624 28.9323 2.24749 34.131 4.88528L34.63 5.14505C39.9833 7.99943 43.8272 12.2911 45.1583 14.8667L45.1876 14.9224C46.9023 18.2833 47.7146 22.8053 47.5284 27.2066L47.4786 28.0855C47.1469 32.6265 45.7478 36.7991 43.3243 39.2964L43.0861 39.5327L43.0831 39.5347C35.2851 47.0412 22.3577 47.086 12.3458 42.2876H12.3448L12.131 42.1831H12.13C3.8973 38.1154 0.107165 28.6375 3.51868 18.1284L3.68665 17.6265L3.68762 17.6255C3.87628 17.0785 4.29587 16.1851 4.81067 15.2036L5.35266 14.2027C6.1014 12.8571 6.88631 11.5991 7.3634 11.0181C9.57249 8.39539 12.1189 5.55585 14.9659 4.20071L15.2423 4.07474L15.5841 3.92825Z" stroke="#156BD8" stroke-width="4"/>
<path fill-rule="evenodd" clip-rule="evenodd" d="M36.1015 25.3496C36.2591 25.3997 36.4053 25.4805 36.5319 25.5872C36.6583 25.6938 36.7625 25.8244 36.8384 25.9714C36.9144 26.1183 36.9607 26.2788 36.9747 26.4437C36.9887 26.6085 36.97 26.7746 36.9199 26.9322C35.339 31.8998 31.0368 35.2798 26.38 36.3111C21.6948 37.349 16.4965 36.0349 13.2512 31.4344C13.1559 31.2992 13.0881 31.1465 13.0517 30.9853C13.0153 30.8238 13.0111 30.6568 13.0392 30.4938C13.0674 30.3308 13.1274 30.1749 13.2158 30.035C13.3041 29.8952 13.4192 29.7741 13.5543 29.6788C13.6895 29.5834 13.8421 29.5156 14.0035 29.4792C14.1648 29.4428 14.3318 29.4386 14.4948 29.4668C14.6578 29.4949 14.8136 29.5549 14.9534 29.6433C15.0933 29.7317 15.2143 29.8468 15.3096 29.982C17.8731 33.6158 21.9668 34.7083 25.8351 33.8514C29.7324 32.9881 33.2449 30.1721 34.5195 26.168C34.621 25.8497 34.8444 25.5846 35.1411 25.4311C35.4377 25.2777 35.7832 25.2483 36.1015 25.3496Z" fill="#292524"/>
<path fill-rule="evenodd" clip-rule="evenodd" d="M16.8243 15.0858C16.7098 15.0231 16.5819 14.9842 16.4496 14.972C16.3172 14.9597 16.1836 14.9743 16.0579 15.0147C15.9323 15.0551 15.8177 15.1204 15.722 15.2061C15.6263 15.2917 15.5519 15.3957 15.504 15.5107C15.3597 15.7161 15.2173 15.9219 15.0964 16.1405C14.4044 17.3964 14.1104 19.94 14.066 21.3725C14.0513 21.8423 14.0792 22.3656 14.2263 22.8397C14.3742 23.3151 14.6769 23.8452 15.291 24.1435C15.4388 24.2165 15.6031 24.2557 15.7705 24.258C15.9378 24.2602 16.1033 24.2253 16.2532 24.1563C16.5202 24.0336 16.6677 23.838 16.7387 23.7276C16.8825 23.5039 16.9548 23.2382 16.9952 23.0647C17.0716 22.7357 17.116 22.3104 17.1225 22.2447C17.2562 21.5571 17.525 20.0958 17.6459 18.7261C17.7068 18.0373 17.7343 17.3332 17.6766 16.75C17.6478 16.4605 17.5946 16.1617 17.493 15.8952C17.3977 15.6465 17.2122 15.298 16.8243 15.0858ZM15.5264 15.478L15.5219 15.4848C15.5233 15.4825 15.5249 15.4802 15.5264 15.478Z" fill="#292524"/>
<path fill-rule="evenodd" clip-rule="evenodd" d="M30.8867 14.5697C30.7722 14.5069 30.6445 14.4681 30.5121 14.4558C30.3797 14.4435 30.2461 14.4581 30.1204 14.4986C29.9948 14.539 29.8801 14.6043 29.7845 14.6899C29.6888 14.7756 29.6144 14.8795 29.5665 14.9945C29.4222 15.1999 29.2798 15.4058 29.1589 15.6244C28.4669 16.8803 28.1728 19.4238 28.1284 20.8559C28.1138 21.3257 28.1422 21.849 28.2887 22.3235C28.4366 22.7989 28.7394 23.329 29.3535 23.627C29.5012 23.7001 29.6655 23.7395 29.8328 23.7418C30.0002 23.7442 30.1657 23.7095 30.3157 23.6406C30.5826 23.5175 30.7303 23.3214 30.8012 23.2119C30.9451 22.9873 31.0174 22.7221 31.0575 22.5485C31.1341 22.2196 31.1786 21.7943 31.1849 21.7285C31.3186 21.0409 31.5875 19.5796 31.7083 18.21C31.7693 17.5211 31.7968 16.817 31.7391 16.2338C31.7104 15.9444 31.6572 15.6451 31.5555 15.379C31.4601 15.1303 31.2746 14.7819 30.8867 14.5697ZM29.5889 14.9618L29.5843 14.9686C29.5858 14.9663 29.5873 14.964 29.5889 14.9618Z" fill="#292524"/>
</g>
<defs>
<clipPath id="clip0_2066_776">
<rect width="50" height="48" fill="white"/>
</clipPath>
</defs>
</svg>
