<svg width="56" height="53" viewBox="0 0 56 53" fill="none" xmlns="http://www.w3.org/2000/svg">
<path d="M30.0438 -0.221157C31.4288 -0.250965 33.9504 0.534391 35.2475 1.10887C35.2716 1.11885 35.2959 1.12892 35.32 1.13898C35.632 1.27063 35.9262 1.39081 36.2695 1.53811C36.8834 1.80521 37.6642 2.1473 38.9043 2.88007C39.3091 3.12077 39.7592 3.40371 40.263 3.7469C40.8832 4.11099 41.4885 4.49572 42.0805 4.90171C45.7428 7.49149 48.9691 10.4559 51.2806 14.8388L53.281 18.4518L48.9697 18.6052C48.9695 18.6052 48.9694 18.6051 48.9693 18.6051L51.2783 14.8349C52.7712 17.9519 53.4516 21.2142 53.7022 24.4506C53.7135 24.5468 53.7245 24.6447 53.7353 24.7437C53.9489 26.5964 53.9741 28.903 53.7774 30.3991C53.7716 30.4462 53.7656 30.4924 53.7595 30.5377C53.5002 32.4306 53.1605 33.6914 52.8496 34.7134C51.9664 38.1351 50.4678 41.6015 47.6609 44.2167C45.783 45.9475 43.6364 47.3632 41.3475 48.4329C39.6309 49.2366 37.8372 49.8494 36.0127 50.2903C34.332 50.6967 32.6228 50.9561 30.9091 51.0855C29.9144 51.2032 28.9623 51.2808 28.0776 51.321C26.8337 51.3775 25.7223 51.3602 24.8096 51.2829C22.6074 51.1066 20.1691 50.4977 18.4167 49.9114C18.1299 49.8171 17.8596 49.7244 17.6107 49.6369C16.2018 49.2257 14.8134 48.7347 13.4551 48.1613C13.3731 48.1032 13.2912 48.0438 13.2084 47.983C13.057 47.8719 12.899 47.7623 12.7329 47.6524C12.6572 47.6025 12.5875 47.5565 12.516 47.5106L12.5064 47.5059C11.5432 46.8835 10.3117 46.2177 8.75023 45.0022C7.89651 44.331 6.94905 43.4859 5.98437 42.3551C5.36578 41.6232 5.15919 41.1616 4.99115 40.793C4.94224 40.684 4.89733 40.5815 4.84893 40.4803C4.68339 40.1334 4.40627 39.8413 4.08887 39.4794C3.67938 39.0112 3.19459 38.4194 2.87929 37.4824C1.93264 34.5028 1.53232 33.2435 1.12194 32.2596C1.01145 31.9723 0.915721 31.7046 0.845965 31.4307C0.61278 30.5341 0.58525 29.2157 0.691704 28.2335C0.762926 27.4545 0.714019 25.9121 0.736443 24.7265C0.741369 24.2773 0.818604 23.6823 0.942184 22.9805C1.06856 22.2612 1.24441 21.4327 1.42873 20.5422C1.61189 19.6575 1.79807 18.945 1.97005 18.3426C2.30205 17.2766 2.56798 16.7049 2.80205 16.1492C2.91292 15.8938 3.01791 15.6597 3.12406 15.4263C3.29724 15.0456 3.50049 14.6242 3.72384 14.1832C3.93271 13.7707 4.15906 13.341 4.39624 12.9087C4.8973 12.0076 5.3823 11.1419 6.03325 10.2634L5.99044 10.3169C5.99173 10.315 5.99302 10.3132 5.9943 10.3113L6.04849 10.2441C6.04988 10.2422 6.05128 10.2403 6.05268 10.2385C6.15223 10.1068 6.2465 9.98131 6.33347 9.86424C7.91226 8.09836 9.61379 6.30894 11.6414 4.75556C12.6811 3.95608 13.9068 3.4212 14.9109 3.30732C15.367 3.25348 15.7569 3.28213 16.0569 3.37277L16.0008 3.39961C16.0011 3.3997 16.0014 3.39978 16.0017 3.39987L16.0657 3.36962C16.4039 3.48973 16.6367 3.67705 16.7425 3.92426C16.8483 4.17149 16.8232 4.46918 16.6765 4.79682L16.7171 4.77763C16.717 4.77793 16.7169 4.77823 16.7168 4.77853L16.6812 4.79557C16.5718 5.06594 16.3948 5.35693 16.1648 5.66758C15.6566 6.3481 14.9368 7.08265 14.1152 7.80346C12.4536 9.25569 10.9797 11.0177 9.50391 12.8641C9.46038 12.9185 9.41705 12.9727 9.37392 13.0267C9.37639 13.0239 9.37494 13.0257 9.37349 13.0275L9.4205 12.9692C9.41916 12.971 9.41782 12.9729 9.41647 12.9747L9.37933 13.0211C8.76013 13.8565 8.05595 15.1093 7.4408 16.2514C6.82859 17.4029 6.17221 18.6873 5.81707 19.6703C5.79147 19.7446 5.76656 19.8178 5.74197 19.891C5.13591 21.6933 4.70705 23.5433 4.49478 25.4074C4.47312 25.5973 4.45308 25.793 4.43591 25.9847C4.43041 27.5664 4.61383 29.1087 4.78639 30.1752C4.92658 31.0577 4.99011 31.6992 5.06075 32.2569C5.10968 32.6373 5.16436 32.9761 5.26536 33.3033C5.31948 33.4783 5.40013 33.7182 5.50497 34.0018C5.92062 35.1684 6.82674 37.0454 7.85646 38.6432C8.30487 39.358 8.85833 40.179 9.46365 40.9173C10.322 41.9774 11.2902 42.8519 11.8538 43.1792C12.5349 43.5804 13.2738 44.0279 14.0229 44.4308L14.0131 44.426C14.0867 44.4648 14.16 44.5036 14.2329 44.5424C14.4997 44.6835 14.7724 44.8243 15.0391 44.9575C16.0674 45.4727 17.0039 45.8671 17.5708 45.9789C18.2502 46.1122 18.7887 46.331 19.6077 46.627C20.1764 46.8304 20.8802 47.0705 21.862 47.3C22.9956 47.5623 23.7999 47.7518 24.4884 47.9021C25.4566 48.1084 26.2003 48.241 27.3117 48.1785C28.5462 48.1074 29.8157 47.9988 30.8173 47.9653C31.2742 47.951 31.794 47.8981 32.3315 47.826C33.0433 47.7312 33.785 47.6013 34.4674 47.5058C35.0297 47.4273 35.5074 47.4086 35.9327 47.3831C36.0653 47.3751 36.1927 47.3662 36.3154 47.3545C36.7528 47.2294 37.1872 47.0916 37.6156 46.941C37.6801 46.9025 37.7474 46.8609 37.8174 46.8173C38.169 46.5982 38.5919 46.3232 39.1281 46.0339C39.9753 45.5749 40.743 45.244 41.5389 44.846C42.1564 44.5356 42.7903 44.1825 43.4441 43.6799C43.891 43.3364 44.3654 42.906 44.8122 42.4573C45.0109 42.258 45.2051 42.0548 45.3916 41.8549C45.7939 41.4224 46.1339 40.9903 46.4133 40.6691C46.5632 40.4968 46.7269 40.3732 46.8889 40.2447C46.8897 40.2442 46.8905 40.2437 46.8913 40.2432C46.9022 40.2345 46.9131 40.2257 46.9241 40.217C47.7422 38.9442 48.3446 37.5026 48.7771 36.0017C48.8041 35.8685 48.8306 35.7333 48.8557 35.5989C48.9787 34.9441 49.0625 34.2996 49.0537 33.8682C49.0469 33.4019 49.2079 32.2713 49.268 31.0645C49.2854 30.7344 49.297 30.3992 49.3009 30.0722C49.3063 29.6173 49.2967 29.1776 49.2721 28.7893C49.2473 28.3998 49.3124 28.0319 49.3723 27.6498C49.4281 27.2936 49.4792 26.9245 49.4445 26.5248C49.4271 26.3247 49.3888 26.1099 49.345 25.8816C49.3064 25.6808 49.2635 25.4689 49.2271 25.2473C49.1931 25.0411 49.1822 24.5768 49.1432 23.9816C49.119 23.6136 49.0839 23.1966 49.0286 22.7611C48.7804 21.6296 48.4621 20.5222 48.067 19.4618C47.9396 19.2551 47.8044 19.0883 47.6638 18.9701C47.563 18.8857 47.4558 18.8231 47.3459 18.7599C47.1964 18.6743 47.0418 18.5885 46.8875 18.4504C46.7671 18.3432 46.6734 18.1977 46.653 18.0821C46.6436 18.0282 46.6499 17.9806 46.6552 17.937C46.6614 17.8873 46.6666 17.8428 46.6463 17.801C46.6316 17.771 46.6 17.7474 46.5613 17.7187C46.4997 17.6732 46.4194 17.6134 46.3586 17.4952C46.3384 17.4559 46.3179 17.4162 46.2973 17.3763L44.1838 12.8432L48.9693 13.0132C48.9694 13.0132 48.9695 13.0132 48.9697 13.0132L46.2953 17.3718C46.118 17.0265 45.8756 16.5965 45.6037 16.1741C45.2745 15.6604 44.8993 15.152 44.5675 14.7737C44.1957 14.3474 43.7098 13.6954 43.1731 13.0567C42.8011 12.6121 42.4105 12.1775 42.0507 11.828C41.6982 11.4851 41.2825 11.1804 40.8752 10.8981C40.3856 10.5582 39.9047 10.2479 39.5484 9.91533C39.4756 9.84747 39.4212 9.71596 39.3497 9.55067C39.2992 9.43372 39.2384 9.29848 39.1603 9.15991C38.6443 8.80604 38.1205 8.46698 37.5878 8.14326C37.5637 8.14077 37.5389 8.13812 37.514 8.13566C37.5136 8.13569 37.5132 8.13572 37.5127 8.13574C37.1505 8.10018 36.7082 8.06497 36.2355 7.88523C35.9747 7.78638 35.7028 7.64241 35.4251 7.42929C35.2258 7.27681 35.1263 7.12923 35.0336 6.99532C34.9425 6.86406 34.8603 6.7469 34.7013 6.65971C34.5202 6.56061 34.278 6.51035 34.0142 6.46056C33.6434 6.39032 33.2333 6.32305 32.8729 6.11169C32.8483 6.09723 32.8217 6.08161 32.7939 6.06561C32.532 5.91404 32.1404 5.69643 31.7625 5.41119C30.5159 4.99672 29.2376 4.68121 27.9422 4.48268C25.7828 4.15013 23.5681 4.14852 21.3818 4.50872C20.3198 4.68062 19.2661 4.76791 18.4012 4.69278C17.5362 4.61724 16.9342 4.37127 16.7437 3.92375C16.558 3.47825 16.8056 2.85468 17.5107 2.2121C18.2107 1.57215 19.3177 0.989428 20.5576 0.670737C22.5767 0.148123 24.6818 -0.118002 26.7895 -0.104413C26.9006 -0.109647 27.0121 -0.113795 27.1229 -0.116635C27.9466 -0.137435 28.72 -0.191835 29.5031 -0.213112C29.6822 -0.218027 29.8629 -0.220971 30.0438 -0.221157Z" fill="#156BD8"/>
<path fill-rule="evenodd" clip-rule="evenodd" d="M38.1015 27.3496C38.2591 27.3997 38.4053 27.4805 38.5319 27.5872C38.6583 27.6938 38.7625 27.8244 38.8384 27.9714C38.9144 28.1183 38.9607 28.2788 38.9747 28.4437C38.9887 28.6085 38.97 28.7746 38.9199 28.9322C37.339 33.8998 33.0368 37.2798 28.38 38.3111C23.6948 39.349 18.4965 38.0349 15.2512 33.4344C15.1559 33.2992 15.0881 33.1465 15.0517 32.9853C15.0153 32.8238 15.0111 32.6568 15.0392 32.4938C15.0674 32.3308 15.1274 32.1749 15.2158 32.035C15.3041 31.8952 15.4192 31.7741 15.5543 31.6788C15.6895 31.5834 15.8421 31.5156 16.0035 31.4792C16.1648 31.4428 16.3318 31.4386 16.4948 31.4668C16.6578 31.4949 16.8136 31.5549 16.9534 31.6433C17.0933 31.7317 17.2143 31.8468 17.3096 31.982C19.8731 35.6158 23.9668 36.7083 27.8351 35.8514C31.7324 34.9881 35.2449 32.1721 36.5195 28.168C36.621 27.8497 36.8444 27.5846 37.1411 27.4311C37.4377 27.2777 37.7832 27.2483 38.1015 27.3496Z" fill="#292524"/>
<path fill-rule="evenodd" clip-rule="evenodd" d="M18.8243 17.0858C18.7098 17.0231 18.5819 16.9842 18.4496 16.972C18.3172 16.9597 18.1836 16.9743 18.0579 17.0147C17.9323 17.0551 17.8177 17.1204 17.722 17.2061C17.6263 17.2917 17.5519 17.3957 17.504 17.5107C17.3597 17.7161 17.2173 17.9219 17.0964 18.1405C16.4044 19.3964 16.1104 21.94 16.066 23.3725C16.0513 23.8423 16.0792 24.3656 16.2263 24.8397C16.3742 25.3151 16.6769 25.8452 17.291 26.1435C17.4388 26.2165 17.6031 26.2557 17.7705 26.258C17.9378 26.2602 18.1033 26.2253 18.2532 26.1563C18.5202 26.0336 18.6677 25.838 18.7387 25.7276C18.8825 25.5039 18.9548 25.2382 18.9952 25.0647C19.0716 24.7357 19.116 24.3104 19.1225 24.2447C19.2562 23.5571 19.525 22.0958 19.6459 20.7261C19.7068 20.0373 19.7343 19.3332 19.6766 18.75C19.6478 18.4605 19.5946 18.1617 19.493 17.8952C19.3977 17.6465 19.2122 17.298 18.8243 17.0858ZM17.5264 17.478L17.5219 17.4848C17.5233 17.4825 17.5249 17.4802 17.5264 17.478Z" fill="#292524"/>
<path fill-rule="evenodd" clip-rule="evenodd" d="M32.8867 16.5697C32.7722 16.5069 32.6445 16.4681 32.5121 16.4558C32.3797 16.4435 32.2461 16.4581 32.1204 16.4986C31.9948 16.539 31.8801 16.6043 31.7845 16.6899C31.6888 16.7756 31.6144 16.8795 31.5665 16.9945C31.4222 17.1999 31.2798 17.4058 31.1589 17.6244C30.4669 18.8803 30.1728 21.4238 30.1284 22.8559C30.1138 23.3257 30.1422 23.849 30.2887 24.3235C30.4366 24.7989 30.7394 25.329 31.3535 25.627C31.5012 25.7001 31.6655 25.7395 31.8328 25.7418C32.0002 25.7442 32.1657 25.7095 32.3157 25.6406C32.5826 25.5175 32.7303 25.3214 32.8012 25.2119C32.9451 24.9873 33.0174 24.7221 33.0575 24.5485C33.1341 24.2196 33.1786 23.7943 33.1849 23.7285C33.3186 23.0409 33.5875 21.5796 33.7083 20.21C33.7693 19.5211 33.7968 18.817 33.7391 18.2338C33.7104 17.9444 33.6572 17.6451 33.5555 17.379C33.4601 17.1303 33.2746 16.7819 32.8867 16.5697ZM31.5889 16.9618L31.5843 16.9686C31.5858 16.9663 31.5873 16.964 31.5889 16.9618Z" fill="#292524"/>
</svg>
