<svg width="62" height="61" viewBox="0 0 62 61" fill="none" xmlns="http://www.w3.org/2000/svg">
<path d="M0.00147781 12.6271C-0.0105162 12.3445 0.0543361 11.9456 0.0577524 11.6122C0.0727493 10.2156 0.117705 9.69805 0.143202 8.43443C0.181074 6.5608 0.0958364 1.00013 0.546387 1C0.546398 1 0.54641 1 0.546421 1C0.550838 1.00001 0.555307 1.00053 0.559829 1.00162C0.645663 1.02111 0.739367 1.49407 0.836441 1.56426C0.933551 1.63432 1.56048 1.58178 1.59572 2.25354C1.64217 3.22752 1.48142 5.564 1.48854 6.08346C1.49345 6.43861 1.55044 6.87583 1.56056 7.32995C1.59318 8.79415 1.5515 9.5603 1.70632 10.8795C1.62473 11.4071 1.54315 11.9348 1.46156 12.4625C1.49939 13.1509 1.3918 14.1943 1.39772 14.6126C1.4026 14.9557 1.46711 15.1568 1.47011 15.5145C1.47384 15.9156 1.4042 16.5316 1.41469 17.2612C1.43156 18.4573 1.59986 18.6701 1.62123 19.3878C1.64335 20.132 1.55188 21.2894 1.6111 22.239C1.62961 22.3581 1.64813 22.4772 1.66664 22.5963C1.70851 22.511 1.75038 22.4256 1.79225 22.3403C1.81174 22.8186 1.72594 23.0243 1.72438 23.4638C1.72251 23.9809 1.80386 24.2447 1.80348 24.5927C1.80311 24.8777 1.73787 25.2642 1.74196 25.6338C1.74758 26.1727 1.84177 26.0548 1.85939 26.3448C1.86624 26.4605 1.91821 28.5995 1.91896 28.7202C1.92268 29.638 1.79376 29.7179 1.78249 30.4497C1.75174 32.4795 1.85591 34.5631 1.89528 36.4407C1.91289 37.279 1.9054 38.1538 1.88478 38.9897C1.55485 37.6731 1.29807 40.5869 1.81435 39.4972C1.7409 40.4273 1.88027 41.0867 1.85671 41.9685C1.84133 42.5387 1.76975 42.9334 1.77162 43.7477C1.77541 45.1926 1.97889 46.7731 1.6111 47.1887C1.67594 48.8849 1.54253 50.354 1.8672 50.9653C1.88704 51.4027 1.69365 52.5236 1.66738 53.0141C1.64263 53.4781 1.55531 57.0378 1.55043 57.6202C1.54601 58.1485 1.54124 59.0364 1.56166 59.5629L1 59.0013C1.05387 58.9992 1.10395 58.9968 1.14948 58.9942C1.76566 58.9589 2.19626 58.6222 3.2933 59.0159C4.56885 58.9841 5.02329 58.9953 6.20962 59.0411C6.42441 59.0493 6.4487 59.1078 6.57416 59.1078C6.83264 59.1078 7.27241 59.0646 7.73381 59.0594C8.49255 59.0508 8.92558 59.1737 8.84099 58.9859C9.34123 58.9544 9.84144 58.9229 10.3417 58.8914C10.5172 58.9277 10.6926 58.9639 10.8681 59.0002C11.1356 58.9607 11.403 58.9212 11.6705 58.8816C11.3564 59.1535 13.2387 58.9931 12.6275 58.8371C13.5972 58.8933 14.5669 58.9496 15.5366 59.0058C15.4013 59.3147 17.6657 59.0414 17.4751 58.8735C17.586 58.8737 17.697 58.874 17.808 58.8742C18.7793 58.9563 19.6714 58.8891 20.8554 58.9443C22.0394 58.9994 21.9282 59.0295 22.2883 59.1716C22.5669 59.1634 22.8455 59.1553 23.1241 59.1471C24.586 58.7576 24.3276 59.4321 26.831 59.1332C27.6308 59.3781 29.6024 59.2495 30.9097 59.1752C31.0618 59.1666 31.0644 59.1191 31.267 59.1044C31.7623 59.0692 33.0262 59.1303 32.9829 58.977C33.4204 59.0213 33.858 59.0657 34.2955 59.11C34.6531 59.0822 35.0107 59.0543 35.3683 59.0264C35.3665 58.9786 35.3647 58.9307 35.3628 58.8829C36.0829 59.046 37.2144 58.9833 37.7726 59.0223C37.8837 59.0302 37.9077 59.0962 38.2529 59.1142C38.6565 59.1356 39.4084 59.116 39.8893 59.1366C40.0762 59.0635 40.2632 58.9904 40.4501 58.9173C41.31 58.8776 41.6123 59.0706 42.1172 59.0856C42.2082 59.0882 43.8668 59.0744 43.9562 59.0702C44.6879 59.0376 44.4806 58.8732 46.5966 58.9084C46.9735 58.9147 47.2782 58.9716 47.6188 58.9739C48.2205 58.9781 50.0334 58.849 50.176 58.7298C50.9057 58.879 52.8582 58.818 53.4333 58.8611C53.6069 58.8744 53.6461 58.9694 54.1796 58.9897C54.6121 59.0062 55.726 58.9301 56.2746 58.9428C56.8569 58.9567 57.0648 59.0365 57.3257 59.0422C57.5722 59.0474 57.7994 58.983 58.1353 58.9833C59.1838 58.9856 60.1333 59.0893 60.962 59.0912C60.9747 59.0913 60.9874 59.0913 61 59.0913L60.5283 59.5629C60.5273 58.38 60.3396 57.333 60.2557 56.3409C60.2681 56.092 60.3091 55.8474 60.3094 55.5864C60.3154 52.3582 60.3506 48.7167 60.3915 45.4788C60.4102 43.9757 60.6693 40.2379 60.237 41.2355C60.1613 40.7132 60.3356 36.915 60.3382 36.1926C60.3408 35.4703 60.2633 34.8978 60.2622 34.3301C60.2588 32.6169 60.3147 31.4105 60.2472 29.3251C60.2295 28.7865 60.1377 28.2094 60.1388 27.8905C60.1403 27.5063 60.2291 27.0928 60.2347 26.5951C60.2475 25.4088 60.2183 23.1978 60.2336 22.0596C60.2366 21.8518 60.3146 21.7788 60.339 21.4816C60.4342 20.3242 60.4259 19.0268 60.177 19.2564C60.3183 17.7729 60.1894 16.4005 60.1815 15.0257C60.1654 12.1188 60.2235 6.82365 60.1189 4.29127C60.0592 2.8481 59.9623 2.74266 60.0153 1L61 1.98467C60.8146 1.97903 60.6106 1.97169 60.3845 1.96242C59.8626 1.94105 59.3431 1.91223 58.7101 1.88674C57.2265 1.82675 55.8654 1.62047 54.7345 1.86904C53.0867 1.80457 51.7744 1.85029 50.5518 1.63771C50.4077 1.6887 50.2636 1.73968 50.1194 1.79067C49.9174 1.79193 49.7154 1.79319 49.5134 1.79445C49.4504 1.74583 49.3873 1.6972 49.3243 1.64858C47.8771 1.63548 46.041 1.83534 44.816 1.83388C42.762 1.83163 37.4719 1.75399 35.5243 1.68837C34.4903 1.65353 34.4347 1.75767 33.8427 1.5436C33.6114 1.55849 33.3802 1.57338 33.1489 1.58827C33.0042 1.63515 32.8594 1.68202 32.7147 1.7289C31.3881 1.73077 29.8147 1.65796 28.551 1.65871C26.2482 1.66021 22.7902 1.78922 20.4777 1.70448C19.8979 1.68312 19.1731 1.58645 18.6053 1.58754C17.7789 1.58904 17.578 1.74946 16.5293 1.75246C14.7219 1.75733 11.3558 1.57097 9.64739 1.58522C9.13998 1.58935 8.90323 1.64904 8.55287 1.65541C7.0837 1.68278 5.87751 1.67792 4.46876 1.77016C2.95612 1.61643 3.08679 1.41801 2.61802 1.21779C2.26275 1.06667 1.17339 0.716469 1.01875 0.584121C0.910119 0.491139 1.31569 0.371528 1.16348 0.269179C2.97575 0.187443 3.73712 0.277423 5.20869 0.421401C7.92631 0.415663 10.6439 0.409926 13.3615 0.404189C13.6088 0.460056 13.856 0.515924 14.1033 0.571792C14.1033 0.571914 14.1033 0.572036 14.1033 0.572158C15.1469 0.636633 15.5893 0.492756 16.1521 0.460097C21.5407 0.147394 32.1465 0.392137 38.0788 0.427382C39.3571 0.434878 43.5155 0.359597 44.3926 0.450331C44.6197 0.473962 44.6829 0.560108 44.9245 0.563857C47.0831 0.512628 49.2417 0.461399 51.4003 0.41017C54.5562 0.505336 57.788 0.476963 61 0.445201C61.3138 0.442554 61.5522 0.686169 61.5548 1C61.5677 2.30574 61.5812 3.6082 61.5871 4.90095C61.643 17.0021 61.7109 28.9824 61.6903 40.8855C61.6862 43.1859 61.7507 46.1051 61.7091 48.3572C61.6918 49.2971 61.5535 49.6887 61.6566 50.9234C61.6193 50.9364 61.5821 50.9493 61.5448 50.9623C61.5898 52.0398 61.6746 52.7284 61.6832 53.9365C61.6903 54.9538 61.6959 57.6454 61.6816 58.5444C61.6745 59.0107 61.6049 58.837 61.6052 59.2716C61.6053 59.3581 61.6068 59.4559 61.6092 59.5629C61.6121 59.9075 61.3446 60.1692 61 60.1721C60.1853 60.1903 58.8376 60.2656 57.9299 60.2656C56.9996 60.2656 55.4313 60.1853 54.716 60.197C52.1402 60.2382 49.3344 60.3571 46.5894 60.3253C45.8311 60.3162 44.8558 60.2259 44.6184 60.2284C44.1545 60.2337 44.0163 60.3214 43.7047 60.3327C42.1221 60.3897 39.655 60.2854 38.1037 60.2813C33.0486 60.2678 27.6934 60.3061 22.66 60.29C19.4801 60.2799 14.1957 60.2953 11.2598 60.2293C10.6267 60.2151 10.7955 60.119 10.2639 60.119C9.67446 60.119 9.35523 60.1839 9.0798 60.1891C7.17311 60.2259 2.96407 60.2915 1.16395 60.2252C1.10676 60.223 1.05219 60.2192 1 60.2142C0.631604 60.2173 0.351846 59.9313 0.348738 59.5629C0.373541 59.3022 0.425779 59.101 0.425551 58.93C0.425551 58.8261 0.374163 58.5913 0.36891 58.2651C0.322417 55.3848 0.352387 53.2847 0.370009 50.4623C0.403375 45.057 0.307774 38.7939 0.359511 33.1155C0.370759 31.8783 0.519702 31.0299 0.518203 30.8559C0.515198 30.4741 0.415018 30.2297 0.390273 29.4565C0.308935 26.8856 0.415836 23.4233 0.365614 20.978C0.340871 19.77 0.2137 18.1099 0.18556 16.9211C0.163066 15.9715 0.212951 13.7291 0.157118 13.3082C0.123385 13.0522 0.0150412 12.9337 0.00147781 12.6271ZM1.68801 44.6152C1.51478 44.4461 1.65874 46.2238 1.75173 45.5569C1.77266 45.4067 1.73297 44.6589 1.68801 44.6152ZM60.6128 51.2662C60.5633 51.2825 60.5138 51.2988 60.4643 51.3151C60.4849 51.5485 60.5055 51.7818 60.5261 52.0152C60.5559 51.8841 60.5856 51.7529 60.6153 51.6217C60.6145 51.5032 60.6136 51.3847 60.6128 51.2662Z" fill="#121212"/>
<path d="M4.77321 15.4346C4.76121 15.1969 4.82606 14.8614 4.82948 14.5811C4.84448 13.4066 4.88943 12.9714 4.91493 11.9087C4.9528 10.3331 4.86756 5.65686 5.31812 5.65674C5.31813 5.65674 5.31814 5.65674 5.31815 5.65674C5.32257 5.65674 5.32704 5.65719 5.33156 5.6581C5.41739 5.67448 5.5111 6.07223 5.60817 6.13125C5.70528 6.19018 6.3322 6.14598 6.36745 6.7109C6.41389 7.52998 6.25315 9.49483 6.26027 9.93168C6.26518 10.2303 6.32217 10.598 6.33229 10.9799C6.36491 12.2112 6.32323 12.8555 6.47804 13.9649C6.39646 14.4086 6.31488 14.8524 6.23329 15.2961C6.27112 15.8751 6.16352 16.7525 6.16945 17.1043C6.17432 17.3928 6.23884 17.5619 6.24184 17.8627C6.24557 18.2 6.17593 18.718 6.18642 19.3316C6.20329 20.3375 6.37159 20.5165 6.39296 21.12C6.41508 21.7458 6.32361 22.7191 6.38283 23.5177C6.40134 23.6179 6.41986 23.718 6.43837 23.8182C6.48024 23.7464 6.52211 23.6747 6.56398 23.6029C6.58347 24.0051 6.49766 24.1781 6.49611 24.5477C6.49424 24.9825 6.57559 25.2044 6.57521 25.497C6.57483 25.7367 6.5096 26.0618 6.51369 26.3726C6.51931 26.8257 6.6135 26.7266 6.63112 26.9705C6.63797 27.0678 6.68994 28.8666 6.69069 28.9681C6.69441 29.7399 6.56549 29.8071 6.55422 30.4225C6.52347 32.1295 6.62764 33.8817 6.66701 35.4606C6.68462 36.1656 6.67713 36.9013 6.65651 37.6043C6.32657 36.497 6.0698 38.9474 6.58608 38.031C6.51263 38.8132 6.652 39.3677 6.62844 40.1092C6.61306 40.5888 6.54148 40.9207 6.54335 41.6055C6.54714 42.8206 6.75062 44.1497 6.38283 44.4992C6.44767 45.9256 6.31425 47.161 6.63893 47.6751C6.65877 48.0429 6.46538 48.9855 6.4391 49.3981C6.41436 49.7882 6.32703 52.7818 6.32216 53.2715C6.31774 53.7159 6.31296 54.4629 6.3334 54.9056L5.77173 54.344C5.81691 54.3419 5.85893 54.3395 5.89712 54.3369C6.4153 54.3016 6.77742 53.9649 7.69998 54.3586C8.77265 54.3268 9.15481 54.338 10.1525 54.3838C10.3331 54.392 10.3535 54.4505 10.459 54.4505C10.6764 54.4505 11.0462 54.4073 11.4342 54.4021C12.0723 54.3934 12.4364 54.5164 12.3653 54.3286C12.786 54.2971 13.2066 54.2656 13.6273 54.2341C13.7749 54.2704 13.9225 54.3066 14.07 54.3429C14.295 54.3034 14.5199 54.2638 14.7448 54.2243C14.4806 54.4962 16.0636 54.3357 15.5496 54.1798C16.3651 54.236 17.1805 54.2922 17.996 54.3485C17.8822 54.6574 19.7865 54.3841 19.6262 54.2162C19.7195 54.2164 19.8128 54.2166 19.9061 54.2169C20.723 54.299 21.4732 54.2318 22.4689 54.287C23.4645 54.3421 23.371 54.3722 23.6738 54.5143C23.9081 54.5061 24.1424 54.498 24.3767 54.4898C25.6061 54.1003 25.3888 54.7747 27.494 54.4759C28.1666 54.7208 29.8247 54.5922 30.924 54.5179C31.0519 54.5093 31.0541 54.4618 31.2245 54.4471C31.641 54.4119 32.7039 54.473 32.6675 54.3197C33.0354 54.364 33.4034 54.4084 33.7713 54.4527C34.072 54.4249 34.3727 54.397 34.6735 54.3691C34.6719 54.3213 34.6704 54.2734 34.6689 54.2256C35.2745 54.3886 36.226 54.326 36.6954 54.365C36.7888 54.3729 36.809 54.4389 37.0993 54.4569C37.4387 54.4782 38.071 54.4587 38.4754 54.4793C38.6326 54.4062 38.7898 54.3331 38.9471 54.26C39.6702 54.2203 39.9244 54.4133 40.349 54.4283C40.4255 54.4309 41.8203 54.4171 41.8955 54.4129C42.5108 54.3803 42.3365 54.2158 44.116 54.2511C44.4329 54.2574 44.6892 54.3143 44.9756 54.3166C45.4815 54.3207 47.0062 54.1917 47.126 54.0725C47.7397 54.2217 49.3817 54.1607 49.8653 54.2038C50.0113 54.2171 50.0442 54.3121 50.4929 54.3324C50.8566 54.3489 51.7934 54.2728 52.2547 54.2855C52.7443 54.2994 52.9192 54.3792 53.1386 54.3849C53.3458 54.3901 53.537 54.3256 53.8194 54.326C54.7012 54.3283 55.4997 54.432 56.1966 54.4339C56.2072 54.434 56.2179 54.434 56.2285 54.434L55.7568 54.9056C55.7558 53.9108 55.5681 53.0304 55.4842 52.196C55.4966 51.9867 55.5376 51.781 55.5379 51.5616C55.5439 48.8468 55.5791 45.7844 55.62 43.0616C55.6387 41.7975 55.8978 38.6542 55.4655 39.4932C55.3898 39.0539 55.5641 35.8598 55.5667 35.2523C55.5693 34.6449 55.4918 34.1634 55.4907 33.686C55.4873 32.2453 55.5432 31.2308 55.4757 29.4771C55.458 29.0242 55.3662 28.5388 55.3673 28.2706C55.3688 27.9476 55.4576 27.5998 55.4632 27.1813C55.476 26.1836 55.4468 24.3243 55.4621 23.3672C55.4651 23.1924 55.5431 23.131 55.5675 22.8811C55.6627 21.9078 55.6544 20.8167 55.4055 21.0098C55.5468 19.7622 55.4179 18.6081 55.41 17.452C55.3939 15.0074 55.452 10.5545 55.3474 8.42484C55.2877 7.21112 55.1908 7.12253 55.2438 5.65674L56.2285 6.6414C56.0726 6.63576 55.9012 6.62842 55.7112 6.61916C55.2723 6.59779 54.8354 6.56897 54.3031 6.54347C53.0555 6.48348 51.9108 6.27721 50.9599 6.52577C49.5742 6.46131 48.4705 6.50703 47.4424 6.29445C47.3212 6.34544 47.2 6.39642 47.0788 6.4474C46.9089 6.44867 46.739 6.44993 46.5691 6.45119C46.5161 6.40256 46.4631 6.35394 46.4101 6.30531C45.1931 6.29222 43.649 6.49208 42.6188 6.49062C40.8916 6.48837 36.4428 6.41072 34.805 6.34511C33.9355 6.31027 33.8887 6.41441 33.3908 6.20033C33.1964 6.21523 33.0019 6.23012 32.8074 6.24501C32.6857 6.29189 32.564 6.33876 32.4423 6.38564C31.3267 6.38751 30.0035 6.3147 28.9408 6.31545C27.0042 6.31695 24.0963 6.44596 22.1516 6.36122C21.664 6.33985 21.0544 6.24319 20.5769 6.24428C19.882 6.24578 19.713 6.4062 18.8311 6.4092C17.3111 6.41407 14.4804 6.22771 13.0438 6.24196C12.6171 6.24609 12.418 6.30578 12.1233 6.31215C10.8878 6.33952 9.87348 6.33466 8.68878 6.4269C7.41673 6.27317 7.52662 6.07475 7.1324 5.87453C6.83364 5.72341 5.91754 5.37321 5.78749 5.24086C5.69614 5.14788 6.03721 5.02827 5.9092 4.92592C7.43324 4.84418 8.07351 4.93416 9.31103 5.07814C11.5964 5.0724 13.8818 5.06666 16.1672 5.06093C16.3751 5.11679 16.583 5.17266 16.7909 5.22853C16.7909 5.22865 16.7909 5.22877 16.7909 5.2289C17.6686 5.29337 18.0406 5.14949 18.5139 5.11684C23.0454 4.80413 31.9645 5.04888 36.9532 5.08412C38.0282 5.09162 41.5252 5.01633 42.2628 5.10707C42.4538 5.1307 42.5069 5.21685 42.7101 5.2206C44.5254 5.16937 46.3407 5.11814 48.1559 5.06691C50.8098 5.16207 53.5275 5.1337 56.2285 5.10194C56.5423 5.0988 56.7801 5.34291 56.7833 5.65674C56.7962 6.75491 56.8097 7.85031 56.8156 8.93755C56.8715 19.114 56.9394 29.1889 56.9188 39.1988C56.9147 41.1333 56.9792 43.5882 56.9376 45.4821C56.9203 46.2725 56.782 46.6019 56.8851 47.6402C56.8478 47.6511 56.8106 47.662 56.7733 47.6729C56.8183 48.5791 56.9031 49.1581 56.9117 50.1741C56.9188 51.0296 56.9244 53.2931 56.9101 54.0491C56.903 54.4412 56.8334 54.2951 56.8337 54.6607C56.8338 54.7333 56.8353 54.8156 56.8377 54.9056C56.8411 55.2502 56.5731 55.5113 56.2285 55.5148C55.5434 55.533 54.4101 55.6082 53.6467 55.6082C52.8644 55.6082 51.5455 55.528 50.944 55.5396C48.7778 55.5809 46.4183 55.6998 44.1099 55.6679C43.4722 55.6589 42.652 55.5686 42.4523 55.5711C42.0623 55.5764 41.9461 55.6641 41.684 55.6754C40.3531 55.7324 38.2784 55.6281 36.9738 55.624C32.7227 55.6105 28.2192 55.6488 23.9865 55.6327C21.3123 55.6225 16.8684 55.638 14.3994 55.572C13.867 55.5577 14.0089 55.4616 13.5619 55.4616C13.0662 55.4617 12.7978 55.5266 12.5661 55.5318C10.9627 55.5686 7.4231 55.6342 5.9093 55.5678C5.86131 55.5657 5.81552 55.5619 5.77173 55.5569C5.40332 55.5606 5.12413 55.274 5.12043 54.9056C5.14522 54.6862 5.19751 54.5169 5.19728 54.373C5.19728 54.2856 5.14589 54.0882 5.14064 53.8139C5.09415 51.3917 5.12412 49.6256 5.14174 47.2522C5.1751 42.7065 5.0795 37.4396 5.13124 32.6643C5.14249 31.6239 5.29143 30.9104 5.28993 30.7641C5.28693 30.443 5.18675 30.2375 5.162 29.5873C5.08066 27.4253 5.18756 24.5136 5.13734 22.4573C5.1126 21.4414 4.98543 20.0453 4.95729 19.0456C4.93479 18.2471 4.98468 16.3613 4.92885 16.0074C4.89511 15.792 4.78677 15.6924 4.77321 15.4346ZM6.45973 42.335C6.28651 42.1928 6.43047 43.6877 6.52345 43.1269C6.54439 43.0006 6.5047 42.3718 6.45973 42.335ZM55.8413 47.9285C55.7918 47.9422 55.7423 47.9559 55.6928 47.9696C55.7134 48.1658 55.734 48.3621 55.7546 48.5584C55.7844 48.4481 55.8141 48.3378 55.8438 48.2275C55.843 48.1278 55.8421 48.0282 55.8413 47.9285Z" fill="#121212"/>
<path d="M34.4514 30.7547C34.4394 30.6855 34.5043 30.5878 34.5077 30.5062C34.5227 30.1642 34.5677 30.0375 34.5932 29.728C34.628 29.306 34.5587 28.1202 34.898 27.9327C34.8872 27.6194 35.1388 27.3903 35.4521 27.3807C35.4683 27.4104 35.477 27.4431 35.4768 27.4792C35.4768 27.4792 35.4768 27.4792 35.4768 27.4792C35.4768 27.4837 35.4767 27.4881 35.4764 27.4926C35.475 27.5162 35.4652 27.5403 35.4514 27.5649C35.2426 27.5713 35.075 27.724 35.0822 27.9327C35.1473 27.9689 35.216 28.0333 35.2864 28.0458C35.3835 28.0629 36.0104 28.0501 36.0457 28.2146C36.0921 28.4531 35.9314 29.0252 35.9385 29.1524C35.9434 29.2393 36.0004 29.3464 36.0105 29.4576C36.0431 29.8161 36.0015 30.0037 36.1563 30.3267C36.0747 30.456 35.9931 30.5852 35.9115 30.7144C35.9494 30.8829 35.8418 31.1384 35.8477 31.2409C35.8526 31.3249 35.9171 31.3741 35.9201 31.4617C35.9238 31.5599 35.8542 31.7107 35.8647 31.8894C35.8815 32.1823 36.0498 32.2344 36.0712 32.4101C36.0933 32.5924 36.0018 32.8758 36.0611 33.1083C36.0796 33.1374 36.0981 33.1666 36.1166 33.1958C36.1585 33.1749 36.2003 33.154 36.2422 33.1331C36.2617 33.2502 36.1759 33.3006 36.1743 33.4082C36.1725 33.5348 36.2538 33.5994 36.2534 33.6846C36.2531 33.7544 36.1878 33.849 36.1919 33.9396C36.1975 34.0715 36.2917 34.0426 36.3094 34.1137C36.3162 34.142 36.3682 34.6657 36.3689 34.6953C36.3726 34.92 36.2437 34.9396 36.2324 35.1188C36.2017 35.6158 36.3059 36.126 36.3452 36.5858C36.3629 36.791 36.3554 37.0052 36.3347 37.2099C36.0048 36.8875 35.748 37.601 36.2643 37.3342C36.1909 37.5619 36.3302 37.7234 36.3067 37.9393C36.2913 38.079 36.2197 38.1756 36.2216 38.375C36.2254 38.7288 36.4289 39.1158 36.0611 39.2176C36.1259 39.6329 35.9925 39.9926 36.3172 40.1423C36.337 40.2494 36.1436 40.5239 36.1173 40.644C36.0926 40.7576 36.0053 41.6292 36.0004 41.7718C35.9955 41.9144 35.9902 42.1641 36.0187 42.2842C36.0539 42.435 36.3907 42.5405 35.997 42.8091C36.0288 43.1214 36.0176 43.2327 35.9718 43.5232C35.9636 43.5758 35.9051 43.5818 35.9051 43.6125C35.9051 43.6521 35.922 43.7091 35.9359 43.7739C35.9439 43.7876 35.954 43.793 35.9512 43.7718C35.8519 43.533 35.6802 43.6846 35.7532 43.497C35.7404 43.4863 35.7419 43.479 35.75 43.4704C35.8397 43.4473 35.9293 43.4243 36.0189 43.4013C36.0619 43.4375 36.1049 43.4738 36.1478 43.51C36.2133 43.4705 36.2788 43.431 36.3443 43.3915C36.2674 43.6633 36.7283 43.5029 36.5786 43.3469C36.8161 43.4032 37.0535 43.4594 37.291 43.5156C37.2578 43.8246 37.8123 43.5513 37.7656 43.3833C37.7928 43.3836 37.82 43.3838 37.8471 43.384C38.085 43.4662 38.3034 43.399 38.5934 43.4541C38.8833 43.5092 38.856 43.5393 38.9442 43.6814C39.0124 43.6733 39.0806 43.6651 39.1489 43.657C39.406 43.3772 39.4458 43.6464 39.675 43.7095C39.7559 43.7346 39.6633 43.6986 39.5448 43.7939C39.5809 43.8079 39.6127 43.7985 39.6342 43.7739C39.7515 43.5423 39.65 43.1561 39.5874 42.8859C39.5787 42.8486 39.5312 42.848 39.5166 42.7984C39.4813 42.6771 39.5424 42.3676 39.3891 42.3782C39.4335 42.2711 39.4778 42.1639 39.5222 42.0568C39.4943 41.9692 39.4664 41.8817 39.4386 41.7941C39.3907 41.7946 39.3429 41.795 39.295 41.7954C39.4581 41.6191 39.3954 41.3421 39.4344 41.2054C39.4423 41.1782 39.5083 41.1723 39.5263 41.0878C39.5477 40.989 39.5282 40.8048 39.5488 40.6871C39.4757 40.6413 39.4025 40.5955 39.3294 40.5498C39.2898 40.3392 39.4828 40.2652 39.4978 40.1415C39.5004 40.1193 39.4865 39.7131 39.4824 39.6912C39.4497 39.5121 39.2853 39.5628 39.3205 39.0447C39.3269 38.9524 39.3838 38.8778 39.3861 38.7944C39.3902 38.6471 39.2612 38.2031 39.1419 38.1682C39.2911 37.9895 39.2302 37.5115 39.2733 37.3706C39.2865 37.3281 39.3816 37.3185 39.4018 37.1879C39.4183 37.082 39.3422 36.8092 39.3549 36.6749C39.3688 36.5323 39.4487 36.4814 39.4543 36.4175C39.4595 36.3572 39.3951 36.3015 39.3955 36.2193C39.3977 35.9625 39.5015 35.73 39.5034 35.5271C39.5064 35.2336 39.3155 34.9744 39.2308 34.7289C39.2432 34.6679 39.2841 34.608 39.2845 34.5441C39.2905 33.7537 39.3257 32.862 39.3665 32.0691C39.3853 31.7011 39.6444 30.7858 39.2121 31.0301C39.1364 30.9022 39.3107 29.9722 39.3133 29.7953C39.3159 29.6184 39.2384 29.4782 39.2373 29.3392C39.2339 28.9197 39.2897 28.6243 39.2222 28.1137C39.2197 28.095 39.2158 28.0761 39.2107 28.0572C39.2201 27.7866 39.4224 27.452 39.675 27.3543C39.8103 27.2637 39.9216 27.158 40.0028 27.1342C40.112 27.1027 40.2516 27.1572 40.3835 27.132C40.704 27.0662 41.266 26.948 41.5582 26.9293C41.6113 26.9257 41.6398 27.0007 41.7177 27.0162C42.0205 27.0764 42.344 27.0417 42.2656 26.7984C42.6537 26.9072 42.9901 26.7585 43.3411 26.738C43.7188 26.7163 44.2564 26.7191 44.7887 26.7434L44.75 26.7425C44.7798 26.7586 44.8094 26.6795 44.5115 26.8421C44.169 27.1147 44.2429 27.3435 44.2278 27.3101C44.2202 27.0045 44.2034 26.7271 44.169 26.5231C44.103 26.1321 43.9913 26.1421 44.0877 25.5664C44.1091 25.4387 44.1379 25.3114 44.1634 25.1564C44.2234 24.7932 44.4296 24.4599 44.1811 24.183C44.2075 24.0173 44.2154 23.8655 44.2303 23.7234C44.2323 23.7139 44.2609 24.0229 44.5464 24.1788C44.7838 24.2827 44.7762 24.2039 44.75 24.1783C44.7143 24.1596 44.6788 24.1378 44.6436 24.1124C44.6095 24.1635 44.5757 24.2147 44.5421 24.266C44.4944 24.2678 44.4468 24.2696 44.3992 24.2717C44.3836 24.2233 44.3677 24.1749 44.3518 24.1266C44.0059 24.119 43.5782 24.3383 43.2908 24.356C42.8051 24.3764 41.5508 24.4374 41.0795 24.451C40.8309 24.4541 40.8338 24.5598 40.6591 24.3718C40.6069 24.3956 40.5555 24.4195 40.5028 24.4438C40.4765 24.496 40.4504 24.5482 40.4247 24.6004C40.1138 24.6574 39.7321 24.6586 39.4356 24.7237C38.8954 24.8395 38.1298 25.1659 37.5788 25.2418C37.4413 25.2598 37.2485 25.2172 37.1176 25.2596C36.9312 25.3201 36.935 25.487 36.7005 25.5692C36.4748 25.6484 36.1174 25.7143 35.7953 25.7936L35.8393 25.7737C35.7222 25.9062 36.0518 25.3429 35.9486 25.5167L35.9462 25.4633C35.9459 25.58 35.9492 25.6832 35.9593 25.7706C35.9737 25.8952 36.0378 25.9496 36.0508 26.0364C36.1054 26.399 36.1194 26.7002 36.2268 27.0517C36.0881 27.4404 35.8864 27.4114 35.6893 27.5326C35.5406 27.6249 35.1919 27.8916 35.0592 27.9284C34.9662 27.9545 34.8466 27.8569 34.7442 27.8936C34.6612 27.4678 34.7435 27.2911 34.8711 26.9313C34.8447 26.4794 34.8066 26.0251 34.7619 25.5694C34.7605 25.5589 34.7599 25.5273 34.7595 25.5167C34.6423 25.4005 35.1382 24.6046 35.2851 24.6612C35.2929 24.6569 35.3174 24.6466 35.3254 24.6429C35.3851 24.618 35.4518 24.5907 35.5128 24.5663C35.5898 24.5962 35.6732 24.6241 35.7482 24.6556C35.7483 24.6557 35.7483 24.6558 35.7484 24.6559C36.0173 24.6242 36.0709 24.4539 36.1954 24.376C37.3773 23.6097 40.0495 23.2413 41.5218 23.1153C41.8379 23.0762 42.8701 22.9014 43.0959 22.9823C43.1543 23.002 43.1759 23.0869 43.2363 23.0868C43.7367 23.007 44.2415 22.9422 44.75 22.8941C44.7991 22.8911 44.8536 22.8892 44.9239 22.8948C45.1849 22.8152 45.7343 23.555 45.6044 23.7234C45.5291 24.6983 45.6189 25.6966 45.6373 26.6724C45.6413 26.8851 45.6453 27.0977 45.6494 27.3101C45.6423 27.4113 45.6787 27.7518 45.3065 28.021C44.9785 28.2061 44.8613 28.1524 44.75 28.1674C44.7443 28.1676 44.727 28.1668 44.7212 28.1667C43.2125 28.1501 41.4654 28.2667 40.2442 28.6876L40.6605 28.0572C40.6693 29.0219 40.6722 29.9842 40.6654 30.9444C40.6612 31.5077 40.7258 32.2225 40.6842 32.7739C40.6669 33.0041 40.5286 33.1 40.6317 33.4023C40.5944 33.4055 40.5571 33.4087 40.5199 33.4118C40.5649 33.6757 40.6497 33.8443 40.6583 34.1401C40.6654 34.3892 40.6709 35.0483 40.6567 35.2684C40.6496 35.3826 40.5799 35.3401 40.5803 35.4465C40.5814 35.6287 40.6777 36.0181 40.6777 36.2696C40.6777 36.4974 40.5975 36.8814 40.6091 37.0565C40.6503 37.6873 40.7693 38.3743 40.7374 39.0465C40.7284 39.2321 40.6381 39.471 40.6406 39.5291C40.6458 39.6427 40.7336 39.6765 40.7448 39.7528C40.8018 40.1403 40.6976 40.7444 40.6934 41.1243C40.684 41.989 40.6999 42.8895 40.7048 43.7739C40.9182 44.038 39.9313 45.0147 39.675 44.8038C39.4599 44.8037 39.2464 44.8026 39.0352 44.7998C38.2566 44.7897 36.9626 44.8051 36.2437 44.7391C36.0887 44.7249 36.13 44.6288 35.9999 44.6288C35.883 44.6288 35.8096 44.6714 35.75 44.6904C35.725 44.6948 35.7 44.6973 35.6739 44.6969C35.4874 44.8597 34.6342 44.078 34.7924 43.7739C34.762 43.2683 34.7384 42.6152 34.7877 42.2877C34.8005 42.2037 34.8758 42.1428 34.8755 42.0926C34.8755 42.0671 34.8241 42.0096 34.8189 41.9298C34.7724 41.2245 34.8023 40.7102 34.82 40.0192C34.8533 38.6956 34.7577 37.162 34.8095 35.7715C34.8207 35.4686 34.9697 35.2608 34.9682 35.2182C34.9652 35.1248 34.865 35.0649 34.8402 34.8756C34.7589 34.2461 34.8658 33.3983 34.8156 32.7995C34.7908 32.5037 34.6637 32.0972 34.6355 31.8061C34.613 31.5736 34.6629 31.0245 34.6071 30.9215C34.5733 30.8588 34.465 30.8298 34.4514 30.7547ZM36.138 38.5874C35.9647 38.546 36.1087 38.9813 36.2017 38.818C36.2226 38.7812 36.1829 38.5981 36.138 38.5874ZM39.5878 33.4863C39.5384 33.4903 39.4889 33.4942 39.4394 33.4982C39.46 33.5554 39.4806 33.6125 39.5012 33.6697C39.5309 33.6376 39.5607 33.6054 39.5904 33.5733C39.5896 33.5443 39.5887 33.5153 39.5878 33.4863ZM21.0657 45.0963C20.9657 45.1083 20.8245 45.0434 20.7065 45.04C20.2121 45.025 20.029 44.9801 19.5817 44.9546C18.9624 44.9192 17.2054 44.9912 16.9751 44.6341C16.6718 44.6414 16.446 44.4011 16.4387 44.0978C16.4641 44.0814 16.4916 44.0728 16.5215 44.0728C16.5215 44.0728 16.5215 44.0728 16.5215 44.0728C16.5259 44.0728 16.5304 44.073 16.5349 44.0734C16.5537 44.0749 16.5729 44.0841 16.5924 44.0978C16.5975 44.3142 16.7587 44.4857 16.9751 44.4805C17.024 44.4109 17.1304 44.3372 17.1498 44.2613C17.1746 44.1642 17.156 43.5373 17.3938 43.5021C17.7386 43.4556 18.5656 43.6164 18.7495 43.6092C18.8752 43.6043 19.03 43.5473 19.1907 43.5372C19.709 43.5046 19.9802 43.5463 20.4471 43.3915C20.6339 43.4731 20.8207 43.5546 21.0075 43.6362C21.2512 43.5984 21.6205 43.706 21.7686 43.7001C21.89 43.6952 21.9612 43.6307 22.0878 43.6277C22.2298 43.6239 22.4478 43.6936 22.7061 43.6831C23.1295 43.6662 23.2048 43.4979 23.4589 43.4766C23.7223 43.4544 24.132 43.5459 24.4681 43.4867C24.5103 43.4682 24.5524 43.4497 24.5946 43.4311C24.5644 43.3893 24.5342 43.3474 24.504 43.3055C24.6733 43.286 24.7461 43.3719 24.9016 43.3734C25.0847 43.3753 25.1781 43.2939 25.3012 43.2943C25.4021 43.2947 25.5389 43.3599 25.6698 43.3558C25.8605 43.3502 25.8188 43.256 25.9214 43.2384C25.9624 43.2315 26.7196 43.1796 26.7623 43.1788C27.0871 43.1751 27.1154 43.304 27.3745 43.3153C28.093 43.346 28.8305 43.2419 29.4951 43.2025C29.7919 43.1849 30.1015 43.1924 30.3974 43.213C30.0675 43.4465 30.4879 43.6434 30.6249 43.5555C30.6301 43.5253 30.6092 43.4626 30.6249 43.3556C30.6123 43.3335 30.5965 43.3094 30.577 43.2834C30.5932 43.287 30.6092 43.2901 30.6249 43.2928C30.5612 43.2599 30.161 43.5649 30.1869 43.5948L30.1744 43.6531C30.1762 43.5557 30.1822 43.4568 30.2089 43.352C30.2592 43.1559 30.354 43.0308 30.4023 42.7466C30.4876 42.2423 30.3845 41.656 30.7723 41.5751C30.8129 40.9726 31.0348 40.4837 30.7527 40.2142C30.754 40.1861 30.7636 40.1514 30.7786 40.1125C30.7801 40.105 30.7843 40.0822 30.7862 40.0747C30.8215 40.0819 30.7352 40.0876 30.9436 40.4629C31.2895 40.8395 31.4319 40.6691 31.3999 40.6724C31.3397 40.6524 31.2859 40.6367 31.2447 40.6305C31.0805 40.6057 29.8204 40.5184 29.6143 40.5135C29.4081 40.5087 29.0473 40.5034 28.8737 40.5318C28.6556 40.5671 28.5031 40.9038 28.1148 40.5101C27.6633 40.542 27.5025 40.5307 27.0825 40.485C27.0065 40.4767 26.9979 40.4182 26.9535 40.4182C26.862 40.4182 26.7063 40.4614 26.543 40.4667C26.2744 40.4753 26.1212 40.3523 26.1511 40.5401C25.974 40.5716 25.797 40.6031 25.6199 40.6346C25.5578 40.5984 25.4957 40.5621 25.4335 40.5259C25.3389 40.5654 25.2442 40.6049 25.1495 40.6444C25.2607 40.3726 24.5944 40.533 24.8108 40.6889C24.4675 40.6327 24.1243 40.5765 23.781 40.5202C23.8289 40.2113 23.0274 40.4846 23.0949 40.6526C23.0556 40.6523 23.0163 40.6521 22.977 40.6518C22.6332 40.5697 22.3174 40.6369 21.8983 40.5818C21.4792 40.5267 21.5186 40.4966 21.3911 40.3545C21.2941 40.3625 21.197 40.3705 21.0999 40.3785C20.865 40.3729 20.6789 40.198 20.6845 39.9631C20.6844 39.9615 20.6843 39.96 20.6842 39.9584C20.2946 39.441 20.9691 39.5324 20.6702 38.6463C20.9151 38.3632 20.7865 37.6653 20.7122 37.2025C20.7036 37.1487 20.6561 37.1478 20.6414 37.0761C20.6062 36.9007 20.6673 36.4534 20.514 36.4687C20.5583 36.3138 20.6027 36.1589 20.647 36.0041C20.6192 35.8775 20.5913 35.7509 20.5634 35.6243C20.5156 35.625 20.4677 35.6256 20.4199 35.6262C20.583 35.3714 20.5203 34.9708 20.5593 34.7733C20.5672 34.7339 20.6332 34.7255 20.6512 34.6032C20.6726 34.4604 20.653 34.1942 20.6737 34.024C20.6005 33.9578 20.5274 33.8917 20.4543 33.8255C20.4146 33.5211 20.6076 33.4141 20.6226 33.2354C20.6252 33.2032 20.6114 32.6161 20.6073 32.5844C20.5746 32.3254 20.4102 32.3988 20.4454 31.6498C20.4518 31.5164 20.5087 31.4085 20.5109 31.288C20.5151 31.075 20.386 30.4333 20.2668 30.3828C20.416 30.1245 20.355 29.4334 20.3981 29.2298C20.4114 29.1683 20.5065 29.1545 20.5267 28.9656C20.5432 28.8125 20.4671 28.4182 20.4798 28.2241C20.4937 28.018 20.5735 27.9444 20.5792 27.852C20.5844 27.7648 20.52 27.6843 20.5203 27.5654C20.5226 27.1943 20.6263 26.8582 20.6282 26.5648C20.6312 26.1406 20.4404 25.7658 20.3557 25.4109C20.368 25.3228 20.409 25.2362 20.4094 25.1438C20.4154 24.0011 20.4505 22.7121 20.4914 21.566C20.5102 21.034 20.7692 19.7109 20.337 20.064C20.2613 19.8791 20.4356 18.5347 20.4382 18.2789C20.4408 18.0233 20.3633 17.8206 20.3621 17.6197C20.3607 17.3592 20.3702 17.1319 20.3761 16.8988C20.3902 16.8675 20.3324 16.8257 20.4496 17.0607C20.6555 17.3577 20.8989 17.3133 20.85 17.3204C20.6723 17.3234 20.48 17.3326 20.26 17.3527C20.0694 17.3703 19.8651 17.4621 19.7522 17.4611C19.6162 17.4596 19.4699 17.3708 19.2937 17.3651C18.8737 17.3524 18.0911 17.3816 17.6883 17.3662C17.6147 17.3632 17.5889 17.2853 17.4837 17.2609C17.2763 17.2127 17.0563 17.191 16.9001 17.2136C16.885 17.2713 17.2092 17.1629 17.1811 17.322C17.4377 17.0824 17.3697 16.8952 17.3681 16.9237C17.3277 17.3346 17.4122 17.7251 17.4185 18.1162C17.4347 19.1452 17.3765 21.0196 17.4812 21.916C17.5472 22.4812 17.6588 22.4667 17.5625 23.2989C17.5411 23.4836 17.5123 23.6675 17.4868 23.8915C17.4268 24.4167 17.2205 24.8985 17.4691 25.2988C17.4046 25.882 17.4503 26.3466 17.2377 26.7793C17.2887 26.8304 17.3397 26.8814 17.3907 26.9324C17.392 27.0039 17.3932 27.0754 17.3945 27.1469C17.3459 27.1692 17.2972 27.1915 17.2486 27.2138C17.2355 27.7261 17.4354 28.376 17.4339 28.8097C17.4317 29.5367 17.354 31.4093 17.2884 32.0987C17.2536 32.4647 17.3577 32.4844 17.1436 32.6939C17.1585 32.7758 17.1734 32.8576 17.1883 32.9395C17.2352 32.9907 17.2821 33.042 17.3289 33.0932C17.3308 33.5628 17.258 34.1197 17.2587 34.567C17.2602 35.3822 17.3893 36.6062 17.3045 37.4247C17.2832 37.63 17.1865 37.8865 17.1876 38.0875C17.1891 38.3801 17.3495 38.4512 17.3525 38.8224C17.3574 39.4622 17.171 40.6537 17.1853 41.2584C17.1894 41.438 17.2491 41.5218 17.2554 41.6458C17.2828 42.1659 17.278 42.5928 17.3702 43.0915C17.2331 43.569 17.0604 43.5839 16.8826 43.6992C16.8611 43.7102 16.8396 43.7223 16.8186 43.7368C16.5091 43.7668 16.826 44.4222 16.9657 44.4886C17.0301 44.5843 16.7863 44.6937 16.8717 44.8005C16.364 45.0063 15.6634 43.797 15.8414 43.6992C15.8569 43.4012 15.9277 43.1687 16.0214 42.8296C16.0157 41.8676 16.01 40.9056 16.0042 39.9437C16.0601 39.8562 16.116 39.7686 16.1718 39.6811C16.172 39.6811 16.1721 39.6811 16.1722 39.6811C16.2367 39.3117 16.0928 39.1551 16.0601 38.9559C15.7474 37.0485 15.9922 33.2943 16.0274 31.1945C16.0349 30.742 15.9596 29.27 16.0504 28.9595C16.074 28.8791 16.1601 28.8568 16.1639 28.7712C16.1127 28.0072 16.0614 27.2431 16.0102 26.479C16.1441 24.9078 16.0335 23.2834 16.0129 21.7001C15.9921 20.1023 15.9695 18.5104 15.9506 16.9237C15.7886 16.6808 16.5425 15.7779 16.9001 15.9444C18.2201 15.9293 19.5366 15.917 20.85 15.9106C20.956 15.9209 21.3247 15.8759 21.6304 16.2905C21.8394 16.6586 21.7753 16.7826 21.7912 16.8988C21.795 17.9143 21.7952 18.928 21.7902 19.9401C21.7861 20.7544 21.8507 21.7877 21.809 22.5849C21.7918 22.9176 21.6534 23.0562 21.7565 23.4932C21.7193 23.4978 21.682 23.5024 21.6447 23.507C21.6897 23.8884 21.7745 24.1322 21.7832 24.5598C21.7903 24.9199 21.7958 25.8726 21.7816 26.1909C21.7744 26.3559 21.7048 26.2944 21.7052 26.4483C21.7063 26.7117 21.8026 27.2746 21.8026 27.6381C21.8026 27.9674 21.7223 28.5226 21.734 28.7758C21.7752 29.6875 21.8941 30.6807 21.8623 31.6524C21.8532 31.9208 21.7629 32.266 21.7655 32.3501C21.7707 32.5142 21.8584 32.5632 21.8697 32.6734C21.9267 33.2337 21.8225 34.1069 21.8183 34.6561C21.8052 36.3921 21.8409 38.2281 21.8283 39.9631L21.0999 39.2348C21.1532 39.2352 21.2064 39.2356 21.2595 39.2361C22.3851 39.2462 24.2557 39.2307 25.2949 39.2967C25.519 39.311 25.4593 39.4071 25.6474 39.4071C25.8561 39.4071 25.9691 39.3421 26.0666 39.3369C26.7415 39.3001 28.2314 39.2345 28.8686 39.3009C28.9899 39.3136 29.078 39.3889 29.1506 39.3887C29.1874 39.3887 29.2705 39.3373 29.386 39.332C30.1362 39.2978 30.7369 39.305 31.3999 39.3182C31.5184 39.3405 31.7816 39.2576 32.1264 39.6551C32.3821 40.0833 32.2544 40.2696 32.2449 40.4006L32.2505 40.3726C32.2327 40.463 32.2145 40.5553 32.1961 40.65C31.9972 41.6715 31.8202 42.7882 31.6356 43.9113C31.6343 43.9203 31.6281 43.9472 31.6261 43.9561C31.6236 44.2955 30.9877 44.8267 30.6249 44.749C29.8448 44.7564 29.0671 44.7576 28.3181 44.7383C27.8801 44.727 27.5798 44.5781 27.5182 44.5796C27.3831 44.5826 27.2966 44.6828 27.0229 44.7075C26.1129 44.7889 24.8873 44.6819 24.0218 44.7322C23.5941 44.7569 23.0065 44.8841 22.5857 44.9122C22.2496 44.9347 21.4558 44.8848 21.3069 44.9407C21.2162 44.9744 21.1743 45.0827 21.0657 45.0963ZM30.5381 42.4588C30.6982 42.5479 30.666 41.9032 30.5333 42.1195C30.5034 42.1682 30.4965 42.4357 30.5381 42.4588ZM20.7127 23.6146C20.6632 23.6204 20.6138 23.6261 20.5643 23.6319C20.5849 23.7145 20.6055 23.7971 20.6261 23.8797C20.6558 23.8333 20.6855 23.7869 20.7153 23.7404C20.7144 23.6985 20.7136 23.6565 20.7127 23.6146Z" fill="#121212"/>
</svg>
