<svg width="114" height="91" viewBox="0 0 114 91" fill="none" xmlns="http://www.w3.org/2000/svg">
<path d="M23.8101 82.1733C23.3797 82.0965 22.8642 81.671 22.3737 81.5063C20.3474 80.8183 19.4825 80.344 17.8076 79.6702C15.3015 78.7243 7.14186 75.8948 7.80781 74.1772C7.80783 74.1772 7.80784 74.1771 7.80786 74.1771C7.81463 74.1608 7.8222 74.1445 7.83066 74.1285C7.99065 73.8234 8.81667 73.7572 9.06329 73.438C9.30964 73.1184 10.1843 70.7693 11.1815 71.0182C12.6263 71.4075 15.6298 73.23 16.348 73.4519C16.8418 73.6105 17.5153 73.6099 18.1438 73.7877C20.1507 74.3503 21.1633 74.8627 23.261 74.8771C23.9175 75.4256 24.5737 75.9674 25.2297 76.5027C26.25 76.6499 27.5955 77.4759 28.1855 77.6106C28.6693 77.7222 29.0153 77.5479 29.5122 77.6663C30.0905 77.8025 30.7786 78.2693 31.9167 78.5025C33.7046 78.8619 34.1571 78.2667 35.2123 78.4103C36.3036 78.5572 37.8846 79.248 39.2571 79.2513C39.437 79.2083 39.6162 79.1648 39.7948 79.1209C39.7048 78.9351 39.6151 78.7493 39.5259 78.5633C40.2032 78.604 40.4293 78.9904 41.0344 79.0962C41.7597 79.2219 42.233 78.9645 42.738 79.0409C43.1575 79.1044 43.689 79.4432 44.2308 79.4984C45.0191 79.5787 44.8938 79.1816 45.3208 79.1636C45.5024 79.17 48.5549 79.2806 48.7118 79.2792C50.0059 79.3727 50.0004 79.8876 51.116 80.004C54.1586 80.3109 57.0372 79.9125 59.7075 79.6393C60.9336 79.5162 62.1875 79.4605 63.3697 79.4328C61.6126 80.9232 65.8709 81.5431 64.1087 79.6432C65.4593 79.7957 66.2188 79.1362 67.5382 79.0296C68.364 78.9613 68.978 79.1506 70.1158 78.9219C72.1453 78.5149 73.9943 77.1782 75.0094 78.4161C77.3111 77.5019 79.4172 77.2781 79.7247 75.7645C80.2783 75.4711 82.0541 75.5647 82.7321 75.3642C83.392 75.2448 88.0121 73.1807 88.7077 72.683C89.4258 72.2614 90.6188 71.479 91.1095 70.9792C91.7608 70.3298 91.4064 68.9285 93.5945 69.1693C94.8957 67.9076 95.3691 67.533 96.7214 66.4573C96.9618 66.2629 97.1526 66.4014 97.2789 66.2726C97.539 66.0063 97.8482 65.4324 98.2692 64.934C98.9597 64.1158 99.7181 63.9593 99.0677 63.5687C99.4262 62.9454 99.775 62.305 100.097 61.6692C100.362 61.5598 100.626 61.4474 100.889 61.3321C100.984 60.9332 101.071 60.5358 101.151 60.1399C101.811 61.1249 102.729 58.5564 101.733 58.9398C102.657 57.9146 103.532 56.8368 104.347 55.7241C105.386 56.47 105.772 53.0329 105.013 53.0322C105.075 52.8896 105.135 52.7467 105.195 52.6036C106.014 51.4589 106.178 50.2242 106.858 48.6759C107.518 47.1288 107.573 47.3045 108.249 46.9367C108.308 46.5413 108.36 46.1463 108.406 45.7521C107.23 43.451 109.932 44.1964 109.034 40.5008C110.104 39.4025 109.6 36.4926 109.093 34.6761C109.036 34.4624 108.847 34.4782 108.757 34.1987C108.552 33.5156 108.497 31.7133 107.898 31.8885C107.962 31.2593 108.007 30.6204 108.034 29.9746C107.806 29.5077 107.568 29.0493 107.322 28.5998C107.139 28.6557 106.955 28.7115 106.772 28.7673C107.129 27.6247 106.359 26.2063 106.203 25.4346C106.173 25.2793 106.407 25.1472 106.281 24.6704C106.136 24.1108 105.612 23.1832 105.366 22.5453C104.985 22.4465 104.603 22.3559 104.223 22.2744C103.511 21.3324 103.939 20.5813 103.599 19.9497C103.557 19.8256 102.14 17.9648 102.038 17.8985C101.278 17.1988 101.044 17.7873 99.116 15.6101C98.758 15.2228 98.6208 14.7837 98.2767 14.4626C97.6908 13.8742 95.3768 12.7535 94.9375 13.0565C94.5062 11.9854 92.086 10.835 91.4285 10.3413C91.2409 10.1884 91.3405 9.80671 90.7211 9.4243C90.2196 9.10728 88.6879 8.78871 87.9797 8.48244C87.2312 8.14913 87.0448 7.7557 86.6926 7.61639C86.3558 7.48575 85.9687 7.63538 85.5357 7.50782C84.1697 7.10176 82.9468 6.40032 81.7531 6.17134C79.9571 5.83118 78.5268 6.43411 77.0676 6.6515C76.7225 6.57375 76.3864 6.38562 76.0113 6.36185C71.4615 6.0512 66.2636 6.32859 61.6158 7.01411C59.285 7.30868 54.0351 7.58817 55.8041 8.92487C55.1643 9.35736 49.5922 10.2976 48.688 10.6387C47.7074 10.962 47.0278 11.5344 46.2487 11.8257C44.9503 12.3123 43.8207 12.6821 42.5832 13.1684C41.5686 13.568 40.5112 14.0288 39.2911 14.6819C38.5883 15.0589 37.9731 15.7287 37.5558 15.9085C37.0521 16.1243 36.3726 16.0385 35.7309 16.3054C34.0478 17.0049 31.1676 18.5243 29.7576 19.1873C29.4954 19.3083 29.2674 19.0744 28.8141 19.2C27.0605 19.6791 25.4484 20.624 26.2245 21.3309C24.1567 21.8364 22.6026 23.3682 21.0092 24.4436C17.4951 26.6669 11.5715 31.309 10.0048 34.2789C8.95021 36.1732 9.31573 36.2406 7.70599 38.639C7.39011 39.1377 7.03534 39.7301 6.73112 40.4089C6.01183 41.9536 5.07397 43.6982 6.18399 44.9779C6.10065 46.9436 6.77471 48.3925 6.65243 50.1945C6.91673 50.2832 7.186 50.3752 7.44729 50.4446C7.56338 50.6697 7.68517 50.8951 7.81262 51.1207C7.67981 51.2842 7.54865 51.4497 7.41913 51.6172C8.32239 53.3881 10.4804 54.8868 11.5675 56.0979C13.2865 58.2833 18.8816 63.2909 21.1425 65.0364C22.29 65.9884 22.5922 65.6801 22.8518 66.8722C23.1699 67.0072 23.4927 67.1427 23.8022 67.2678C24.0783 67.2205 24.3541 67.1722 24.6298 67.123C26.2541 68.1295 28.0949 69.5346 29.7166 70.4188C32.6639 72.0503 37.4324 73.8172 40.3902 75.4989C41.1299 75.9248 41.9523 76.708 42.7238 77.0345C43.8449 77.5077 44.3659 77.033 45.7924 77.6086C48.2416 78.61 52.6248 81.0733 55.0133 81.8447C55.73 82.0808 56.1402 81.9706 56.6375 82.116C58.7122 82.7167 60.411 83.2976 62.4879 83.5673C64.4091 84.8137 64.0267 85.5185 64.4552 86.4868C64.7867 87.2201 65.9382 89.0195 66.0105 89.5901C66.0617 89.9923 65.3507 90.284 65.4532 90.7401C62.7687 90.2947 61.7173 89.5894 59.8061 88.3754C55.8856 87.1404 52.0301 85.8112 48.1859 84.3612C47.9184 84.0193 47.6521 83.6767 47.387 83.3334C47.3871 83.333 47.3873 83.3325 47.3875 83.3321C46.0213 82.5212 45.1886 82.8034 44.3541 82.6056C36.2994 80.8239 22.1516 72.7533 15.1052 66.8915C13.5126 65.7573 8.48963 61.6367 7.87957 60.2712C7.70577 59.9409 7.89565 59.6371 7.65788 59.3456C5.29537 56.9662 3.12444 54.2208 1.63596 50.9203C-0.860744 43.8247 1.30344 35.3164 5.98653 29.9058C15.3976 19.003 28.0452 13.2434 40.4612 7.94112C45.072 6.06223 49.0411 4.69135 53.8289 3.43289C57.156 2.55005 61.6672 1.38608 65.0783 1.1636C66.4782 1.07148 67.1384 1.55016 69.073 1.00697C69.1028 1.15449 69.1324 1.30203 69.1618 1.44959C70.8348 1.17274 71.8927 0.800411 73.7167 0.782532C75.3042 0.727651 79.6256 1.05634 80.919 1.35551C81.6142 1.49099 81.3294 1.7273 82.0153 1.842C83.2063 2.0293 85.7553 2.20237 87.2696 2.67169C88.7186 3.08314 90.9893 4.2843 92.0074 4.70424C95.8188 6.18952 100.009 8.33425 103.1 11.5795C103.978 12.4819 104.75 13.9127 104.997 14.1986C105.492 14.7566 105.902 14.7137 106.249 15.0858C108.068 16.9904 109.742 20.7139 110.66 23.038C113.86 30.5801 114.557 39.5422 112.737 47.3729C111.781 52.4067 108.272 60.1652 105.225 63.7224C104.596 64.5023 104.443 64.0584 103.941 64.7264C103.38 65.4633 103.26 66.0183 102.996 66.3722C101.315 68.8308 96.5818 73.5733 94.005 74.9618C93.5348 75.2374 93.0566 75.202 92.7955 75.3822C92.6639 75.4721 92.4807 75.8464 92.0676 76.1423C88.3368 78.7651 85.3614 80.095 81.182 81.618C73.2033 84.5155 63.6415 86.2285 54.9213 85.8441C53.0246 85.7689 51.7175 85.0953 51.4479 85.0882C50.8665 85.068 50.3867 85.4438 49.2703 85.4597C45.5055 85.5297 40.0088 84.3114 36.5233 83.8074C34.7231 83.5608 32.1027 83.5018 30.2338 83.1523C28.8257 82.9095 25.6736 81.842 24.9837 81.8668C24.5725 81.8887 24.2776 82.2544 23.8101 82.1733ZM71.3866 79.0007C71.3091 79.7366 73.61 78.606 72.6133 78.4592C72.394 78.4282 71.4116 78.8134 71.3866 79.0007ZM69.8383 5.14477C69.8729 5.3411 69.9072 5.53747 69.9413 5.73386C70.2762 5.6337 70.6102 5.53649 70.9433 5.44223C70.7502 5.33004 70.5553 5.21885 70.3584 5.10867C70.1856 5.11992 70.0122 5.13195 69.8383 5.14477Z" fill="#156BD8"/>
</svg>
