<svg width="34" height="34" viewBox="0 0 34 34" fill="none" xmlns="http://www.w3.org/2000/svg">
<g clip-path="url(#clip0_2086_42)">
<path d="M9.16044 29.1439C11.8546 28.872 13.7351 24.5453 15.9487 23.194C16.8209 22.6616 17.5938 23.2023 18.14 23.9132L23.4246 30.7919C24.3455 31.9904 24.9938 32.347 26.3822 31.6362C28.5167 30.5435 30.545 28.5124 31.6361 26.3819C32.347 24.9938 31.9904 24.3453 30.7921 23.4247L23.9132 18.1399C23.2023 17.5938 22.6616 16.8208 23.194 15.9487C24.5454 13.7351 28.8721 11.8545 29.1441 9.16045C29.6223 4.24982 6.6373 -0.221791 3.20753 3.20753C-0.221795 6.63728 4.24983 29.6222 9.16044 29.1439Z" fill="white" stroke="#141B34" stroke-width="3" stroke-linecap="round" stroke-linejoin="round"/>
</g>
<defs>
<clipPath id="clip0_2086_42">
<rect width="34" height="34" fill="white"/>
</clipPath>
</defs>
</svg>
