<svg width="34" height="34" viewBox="0 0 34 34" fill="none" xmlns="http://www.w3.org/2000/svg">
<path d="M9.16044 29.1439C11.8546 28.872 13.7351 24.5453 15.9487 23.194C16.8209 22.6616 17.5938 23.2023 18.14 23.9132L23.4246 30.7919C24.3455 31.9904 24.9938 32.347 26.3822 31.6362C28.5167 30.5435 30.545 28.5124 31.6361 26.3819C32.347 24.9938 31.9904 24.3453 30.7921 23.4247L23.9132 18.1399C23.2023 17.5938 22.6616 16.8208 23.194 15.9487C24.5454 13.7351 28.8721 11.8545 29.1441 9.16045C29.6223 4.24982 6.6373 -0.221791 3.20753 3.20753C-0.221795 6.63728 4.24983 29.6222 9.16044 29.1439Z" fill="white"/>
<path d="M7.31599 24.5767C7.389 24.6763 7.34077 24.8756 7.39995 25.0093C7.64208 25.5519 7.66957 25.7828 7.89129 26.2281C8.0612 26.5701 8.5135 27.1307 8.78031 27.4075C9.04473 27.6772 8.96231 27.7789 9.0725 28.241C9.0725 28.241 9.07251 28.241 9.07251 28.2411C9.07337 28.2498 9.07413 28.2588 9.07477 28.2678C9.09595 28.4404 8.9674 28.6323 8.91736 28.8208C8.87284 29.0032 8.82044 30.2979 8.26038 30.241C7.36489 30.1497 6.51902 28.8734 6.38509 28.6995C6.24782 28.5578 6.00511 28.4376 5.84883 28.2583C5.32772 27.6425 5.21243 27.262 4.62433 26.8222C4.64144 26.5044 4.66611 26.1863 4.7052 25.8869C4.48958 25.6111 4.47915 25.0463 4.39329 24.8683C4.32022 24.7179 4.1633 24.6747 4.09168 24.5112C4.00875 24.3226 4.03567 24.0074 3.89294 23.6775C3.65976 23.131 3.31612 23.1575 3.16213 22.8329C3.00217 22.4924 3.01126 21.9115 2.76647 21.4959C2.71447 21.4502 2.66242 21.4039 2.61059 21.3579C2.54176 21.4214 2.47322 21.4856 2.4047 21.5497C2.30067 21.3319 2.43949 21.1925 2.38458 20.9848C2.32064 20.7412 2.12994 20.6585 2.08636 20.4924C2.05058 20.3553 2.12935 20.1411 2.07708 19.9692C2.00166 19.7179 1.8332 19.8191 1.76462 19.6898C1.73504 19.6384 1.39314 18.6417 1.38123 18.5836C1.27623 18.1456 1.52035 18.0516 1.4694 17.6989C1.32823 16.7189 0.945555 15.7591 0.729189 14.8583C0.633006 14.4608 0.58743 14.0276 0.576803 13.6176C1.31167 14.1652 1.64598 12.7081 0.685908 13.3547C0.776791 12.8854 0.464304 12.5913 0.469536 12.1592C0.473469 11.8765 0.597747 11.6658 0.563402 11.2701C0.500209 10.5653 0.0626021 9.80226 0.79239 9.56343C0.635998 8.73319 0.919345 8.00447 0.282462 7.67828C0.249819 7.43881 0.668174 6.9066 0.744925 6.65542C0.786113 6.42267 1.24977 4.60552 1.39801 4.312C1.50094 3.98692 1.72577 3.45683 1.84354 3.14991C1.92343 2.91156 1.79371 2.44211 2.17555 2.17568C2.32749 2.07233 2.55713 2.01493 2.86764 2.07276C3.53905 1.56456 3.81155 1.5214 4.46878 1.41161C4.58221 1.39704 4.62476 1.50713 4.68824 1.49066C4.8137 1.45771 5.0447 1.31502 5.26543 1.26269C5.64156 1.17395 5.90702 1.38968 5.80875 1.02326C6.06357 0.923261 6.29365 0.833427 6.55087 0.746026C6.64834 0.80976 6.74756 0.87408 6.84244 0.939419C6.96608 0.850519 7.09305 0.762724 7.22311 0.676057C7.09384 1.22457 8.0279 0.863141 7.70817 0.564282C8.18662 0.659501 8.69404 0.769583 9.15221 0.890383C9.07197 1.50278 10.1923 0.99305 10.1148 0.656804C10.1688 0.659799 10.223 0.662922 10.2772 0.666173C10.7469 0.854949 11.188 0.749951 11.7564 0.910383C12.3274 1.07308 12.2585 1.12934 12.4035 1.42939C12.5382 1.42705 12.6735 1.42536 12.8094 1.42432C13.61 0.735193 13.31 2.04962 14.5837 1.62946C14.8905 2.16865 15.8573 2.06593 16.5036 2.03804C16.5786 2.03458 16.5975 1.94139 16.6989 1.93084C16.9471 1.90535 17.5194 2.14606 17.561 1.84223C17.7501 1.97188 17.9383 2.10261 18.1257 2.23448C18.3062 2.21695 18.4868 2.20031 18.6674 2.18456C18.688 2.09108 18.7085 1.99761 18.7291 1.90413C18.9939 2.2988 19.5584 2.30701 19.8002 2.44946C19.8482 2.47801 19.8271 2.60866 19.9784 2.68489C20.1527 2.77383 20.5197 2.83119 20.7309 2.93278C20.8567 2.81586 20.9831 2.69937 21.11 2.58332C21.5298 2.62027 21.571 3.03603 21.7942 3.1347C21.8359 3.15077 22.6067 3.36478 22.6541 3.37382C23.0166 3.42767 23.0139 3.06781 23.9827 3.49398C24.1531 3.57068 24.2518 3.72997 24.4034 3.79379C24.6866 3.9081 25.5974 4.01382 25.7759 3.83642C25.997 4.25459 26.9469 4.59128 27.1582 4.81647C27.2197 4.88168 27.1504 5.05847 27.3709 5.23529C27.5466 5.37426 28.1213 5.56265 28.3503 5.76852C28.5811 5.97473 28.5768 6.18122 28.6801 6.28307C28.7775 6.38046 28.9591 6.36901 29.0934 6.50098C29.5456 6.95234 29.7342 7.5547 29.9285 8.09671C30.0594 8.45957 30.202 8.84459 30.2657 9.26969C30.3461 9.67363 30.3931 10.0884 30.343 10.4652C30.2579 10.6151 30.1158 10.7301 30.0398 10.8773C29.029 12.7046 27.4477 13.66 26.2513 14.5774C25.6601 14.9798 24.1432 15.729 25.0716 16.0366C25.0531 16.1698 24.6838 16.467 24.4489 16.7147C24.3646 16.7571 24.3095 16.5944 24.3011 16.6373C24.3023 16.6627 24.4841 16.671 24.5721 16.7571C24.6391 16.8255 24.7184 16.9023 24.8057 16.9782C25.2337 17.3349 25.6135 17.6768 26.2701 18.0519C26.4937 18.1792 26.8221 18.1999 26.9405 18.2936C27.0828 18.4067 27.1298 18.6668 27.3097 18.8192C27.7393 19.1814 28.6045 19.7725 29.0129 20.1249C29.0872 20.1896 29.0196 20.3343 29.1015 20.4587C29.4197 20.9434 29.9166 21.3043 30.1338 20.8432C30.5183 21.4951 31.1903 21.6862 31.7158 22.07C31.7404 22.088 31.7653 22.1063 31.7906 22.125C32.1959 22.4693 32.8409 22.8042 33.4041 24.0005C33.954 25.3589 33.3818 26.5247 33.1002 27.1317C32.8027 27.7466 32.5012 28.2736 32.3001 28.6796C31.899 29.4506 32.0917 29.6024 31.0919 30.4184C30.8672 30.5947 30.6299 30.7534 30.3489 30.9495C29.681 31.4153 28.8819 31.5219 28.674 32.2749C28.0823 32.5735 27.6057 32.883 27.0732 32.986C26.87 33.0297 26.6532 33.0464 26.4213 33.0174C26.3733 33.1455 26.3135 33.2755 26.244 33.4045C26.102 33.4521 25.9513 33.495 25.7835 33.5294C25.7149 33.4435 25.6452 33.3565 25.582 33.2672C24.2825 33.5746 22.6496 32.5642 22.324 32.0877C22.2555 32.0037 22.1827 31.9094 22.106 31.805C21.4495 30.9049 20.2539 29.1203 19.8383 28.3836C19.5955 27.9531 19.4143 28.0591 19.5831 27.5762C19.4928 27.5075 19.4025 27.4389 19.3123 27.3703C19.1962 27.3731 19.0801 27.3759 18.9641 27.3787C18.5787 26.8832 18.2405 26.2041 17.875 25.7308C17.6449 25.4329 17.3509 25.1019 17.0427 24.7562C16.451 24.2421 16.7639 24.5357 16.6873 24.3939C16.6853 24.3937 16.6831 24.3934 16.6808 24.3931C16.5153 24.4339 16.2001 24.4446 16.0372 24.5923C15.7936 24.8166 15.9619 25.0995 15.6685 25.4216C15.1637 25.9687 13.8913 26.9989 13.3452 27.6602C13.1853 27.8557 13.1923 28.0258 13.0804 28.1662C12.5983 28.7604 12.1412 29.204 11.5279 29.842C10.5565 30.0838 10.4364 29.6368 10.0581 29.3713C9.74142 29.1799 9.12665 28.5887 9.083 28.3158C9.03575 28.1341 9.11548 27.8836 9.04871 27.6856C9.39661 27.4574 9.63559 27.53 10.2608 27.4344C11.0894 26.785 11.8536 25.7908 12.6656 24.7839C12.8274 24.7628 12.9888 24.7426 13.1513 24.7217C13.1515 24.7219 13.1517 24.722 13.1519 24.7222C13.5731 24.4176 13.4973 24.0676 13.6396 23.8106C13.9491 23.2719 14.3952 22.6327 15.2459 22.0426C15.7878 21.6369 16.8874 21.4343 17.6616 21.7865C18.4354 22.1067 18.8814 22.6032 19.2385 23.0693C20.4754 24.7441 21.6751 26.5719 22.5746 27.8057C22.9077 28.2622 24.0794 29.5733 24.3216 30.1028C24.3367 30.1376 24.3471 30.1682 24.3526 30.1946C24.3743 30.2985 24.2562 30.4268 24.3154 30.5101C25.1354 31.2091 24.997 31.0338 25.7988 30.6093C25.815 30.6043 25.8315 30.5989 25.8482 30.5933C27.6196 29.9679 29.0444 28.3567 30.0416 26.7801C30.2369 26.472 30.4148 26.1555 30.5695 25.8356C30.9274 24.7959 30.9549 25.2842 30.0199 24.4298C27.6829 22.705 25.3615 20.982 23.0697 19.2379C22.6262 18.8896 22.1511 18.4684 21.8155 17.7225C21.446 16.9847 21.5851 15.833 22.0107 15.2263C22.2725 14.8017 22.5644 14.4566 22.8572 14.147C23.7375 13.2238 24.7882 12.2826 25.6178 11.6857C25.9613 11.4395 26.2861 11.53 26.5327 11.015C26.5881 11.0652 26.6436 11.1153 26.6992 11.1653C26.9703 10.7772 27.0463 10.4539 27.298 10.0941C27.4989 9.83039 27.7656 9.2693 27.7772 9.02246C27.7805 9.01521 27.7839 9.005 27.7877 8.99523C27.7981 8.96056 27.9393 8.95238 27.9236 8.89166C27.9045 8.77739 27.5281 8.53207 27.2506 8.28656C27.0336 8.0687 26.5961 7.56002 26.3314 7.42901C25.3648 6.92462 24.1267 6.63681 22.996 6.1504C22.6797 6.01335 22.323 5.6998 22.2187 5.67031C22.0153 5.61286 21.8998 5.75982 21.7572 5.73708C21.0449 5.62221 20.0201 5.11134 19.3277 4.9277C17.0844 4.32297 14.6334 3.9522 12.341 3.67213C10.8936 3.47979 8.48379 3.39997 7.20026 3.37809C6.93049 3.369 6.98037 3.17234 6.74404 3.19379C6.482 3.21924 6.36601 3.36568 6.25509 3.39085C5.62491 3.5024 4.32299 3.97399 4.17972 4.17985C4.1357 4.20997 4.05103 4.30002 3.98504 4.36443C3.91864 4.42915 3.74605 4.44147 3.71597 4.5112C3.7007 4.54627 3.76653 4.65215 3.73653 4.76522C3.48162 5.81563 3.3476 6.75962 3.26789 8.01058C3.1384 10.4431 3.64986 13.3234 4.0197 15.9112C4.1005 16.4771 3.88808 16.9206 3.90706 16.9998C3.94871 17.1727 4.16697 17.2419 4.29108 17.5818C4.69705 18.7047 4.89072 20.3048 5.3239 21.3495C5.53366 21.8643 6.01336 22.4925 6.25515 22.9786C6.43772 23.3582 6.7267 24.3152 6.90996 24.4376C7.0181 24.5135 7.2365 24.4704 7.31599 24.5767ZM0.700217 10.8355C1.04937 10.8949 0.712855 10.0407 0.545239 10.3772C0.506842 10.453 0.608625 10.8195 0.700217 10.8355ZM28.0974 12.4062C28.1725 12.4711 28.2477 12.5359 28.3231 12.6006C28.3804 12.4865 28.4356 12.3722 28.4902 12.2555C28.4002 12.2636 28.3096 12.2712 28.2212 12.2759C28.1803 12.3196 28.139 12.363 28.0974 12.4062Z" fill="#121212"/>
</svg>
