<svg width="98" height="67" viewBox="0 0 98 67" fill="none" xmlns="http://www.w3.org/2000/svg">
<path fill-rule="evenodd" clip-rule="evenodd" d="M52.7637 0.244991C53.1461 0.0473187 53.5352 -0.0387781 53.9597 0.0163836C54.6125 0.104942 55.2187 0.499402 55.7661 0.855675L55.7942 0.874002C56.8055 1.52565 57.7676 2.25194 58.7 3.00688C58.9909 3.24362 59.2813 3.48192 59.5717 3.7202C60.1515 4.19579 60.7312 4.67137 61.3142 5.13485C61.3921 5.19697 61.4699 5.25947 61.5476 5.32229C61.6364 5.39414 61.7252 5.46639 61.814 5.53893C61.9167 5.62286 62.0194 5.70715 62.1223 5.79153L62.1319 5.79944L62.1365 5.80298L62.1429 5.80818L62.1478 5.81223C62.7664 6.31979 63.3886 6.83025 64.0377 7.29214C65.0767 8.03172 66.102 8.76765 67.136 9.49857L68.0178 10.0626C69.1866 10.8113 70.3579 11.5615 71.5505 12.2846C73.3824 13.3977 75.2058 14.5159 77.0292 15.634C80.3127 17.6411 83.5432 19.7366 86.7035 21.9304C89.8264 24.0995 92.8495 26.3956 95.732 28.8883C95.9129 29.0414 96.0926 29.199 96.2734 29.3577C96.4087 29.4764 96.5446 29.5956 96.6821 29.7139C96.8951 29.9027 97.113 30.1002 97.3173 30.294C97.7022 30.6607 97.9715 31.2672 97.9727 31.8093C97.9637 32.8537 97.3046 33.5922 96.4923 34.1651C95.9077 34.5692 95.2757 34.891 94.6437 35.2128C94.5083 35.2818 94.3729 35.3507 94.238 35.4205L94.2362 35.4214C92.4843 36.3059 90.7326 37.1903 89.0307 38.1613C87.9136 38.8063 86.7927 39.465 85.6805 40.1186C85.1486 40.4373 84.6254 40.7509 84.0848 41.0746C83.8596 41.2046 83.6394 41.3433 83.4279 41.4769C83.3619 41.5196 83.2956 41.5602 83.2288 41.5991C83.0414 41.8873 82.7714 42.1183 82.434 42.2355C81.888 42.4293 81.3622 42.6735 80.8355 42.9181L80.6129 43.0213C79.238 43.6997 77.868 44.3868 76.5243 45.1394C74.9591 46.0085 73.4076 46.8811 71.8474 47.7588C70.3652 48.5915 68.8815 49.4019 67.3943 50.2259C66.011 50.9899 64.6763 51.8182 63.353 52.6862C61.7034 53.81 60.105 54.9985 58.5057 56.1878L58.5045 56.1887C57.1958 57.1619 55.8863 58.1356 54.5476 59.0748C52.9872 60.172 51.4604 61.3075 50.0009 62.5196L49.8991 62.6051L49.6196 62.8402L49.6185 62.8412C49.0408 63.3277 48.4654 63.8122 47.8616 64.2743C47.5114 64.5394 47.1497 64.7906 46.7882 65.0417L46.7864 65.0429C46.485 65.2522 46.1839 65.4614 45.8895 65.6785C45.5595 65.9268 45.2071 66.1765 44.887 66.4421C44.2053 67.1013 43.0902 67.11 42.4137 66.4382C42.3528 66.3772 42.2973 66.3131 42.2462 66.2444C42.2053 66.1894 42.1673 66.1315 42.1317 66.0698C42.0363 65.8995 41.9693 65.7163 41.9312 65.5283C41.1317 65.5515 40.3085 65.0288 40.1426 64.2045C39.9822 63.445 39.8486 62.6838 39.7147 61.9206C39.6763 61.7013 39.6378 61.4819 39.5986 61.2623C39.5094 60.8589 39.408 60.4583 39.3066 60.0575L39.3053 60.0527C39.1135 59.2957 38.9214 58.5369 38.8102 57.7569C38.6436 56.6368 38.6432 55.4801 38.6427 54.346L38.6425 54.0663C38.6435 53.3726 38.6122 52.6794 38.5809 51.9864C38.5565 51.444 38.532 50.9018 38.523 50.3594C38.5115 49.7193 38.5167 49.0783 38.522 48.4372C38.5272 47.7963 38.5324 47.1554 38.5208 46.5155C38.5024 46.2837 38.479 46.0432 38.452 45.8163C38.4395 45.7555 38.4238 45.6938 38.408 45.6321L38.4071 45.6286C38.391 45.5657 38.3749 45.5028 38.3622 45.4408C38.3508 45.4334 38.3387 45.4263 38.3263 45.4195L38.3018 45.4064C38.281 45.3953 38.2602 45.3842 38.2416 45.3719C37.5149 45.4685 36.7894 45.5845 36.0646 45.7004C35.4417 45.8 34.8192 45.8995 34.197 45.9866C32.8149 46.1726 31.4326 46.3586 30.0388 46.4243C29.3062 46.4537 28.5722 46.4571 27.8389 46.4604L27.8372 46.4604C27.2153 46.4631 26.5939 46.4659 25.9744 46.4846C24.6015 46.5267 23.2336 46.5774 21.8621 46.6418C20.3367 46.7761 18.8148 46.9675 17.2928 47.1589L17.2798 47.1606L17.2505 47.1643C16.879 47.211 16.5074 47.2577 16.1358 47.3036C15.1837 47.4145 14.2239 47.4722 13.2678 47.5161C12.3836 47.5647 11.5032 47.5996 10.615 47.5812C8.54343 47.5532 6.47687 47.5339 4.4017 47.5196C3.42422 47.5066 2.4178 47.3833 1.57074 46.8562C1.17519 46.6112 0.831321 46.2554 0.601317 45.857C0.343982 45.4514 0.243911 44.978 0.157446 44.5083C-0.0104193 43.5775 -0.0406954 42.625 0.0506059 41.6832C0.0650195 41.5181 0.0800771 41.3531 0.0955593 41.1883C0.111158 41.0225 0.127242 40.8567 0.143629 40.691C0.17378 40.3863 0.20497 40.0817 0.236211 39.7768L0.237231 39.7661L0.239472 39.744L0.240997 39.7294C0.268658 39.4587 0.296356 39.1877 0.323317 38.9162C0.340353 38.7451 0.357109 38.5738 0.373364 38.4023C0.446881 37.0897 0.484489 35.7747 0.512049 34.4424C0.53094 33.1151 0.609455 31.8112 0.857888 30.5015C1.03435 29.6317 1.2813 28.7765 1.52762 27.9235C1.59986 27.6734 1.67201 27.4234 1.74232 27.1734C2.46679 24.6882 3.11934 22.1984 3.66255 19.6793C3.76165 19.0909 3.85707 18.5162 3.9475 17.9328C4.00564 17.5827 4.04166 17.224 4.07742 16.8674L4.07787 16.8624C4.08848 16.7568 4.09917 16.651 4.11031 16.5461C4.11752 16.478 4.12498 16.4102 4.13287 16.3425L4.14389 16.25L4.15181 16.1867C4.18224 15.9093 4.21044 15.6332 4.23865 15.3572L4.23896 15.3537C4.26707 15.0787 4.29522 14.8038 4.3255 14.5276C4.45173 13.3462 4.63422 11.9822 5.45245 11.0595C5.55225 10.9476 5.66017 10.8455 5.77461 10.7541C5.57303 10.2328 5.64503 9.68858 5.8396 9.1501C6.00737 8.66065 6.39005 8.24341 6.81307 7.97608C7.36095 7.62512 8.05826 7.67286 8.59672 7.98551C8.84906 7.87436 9.09897 7.75886 9.34887 7.64337L9.3512 7.64229C9.60189 7.52644 9.85256 7.41057 10.1057 7.29907C10.8449 6.9752 11.5881 6.6582 12.3379 6.33838L12.6126 6.22122C13.1518 5.9952 13.6964 5.77557 14.2418 5.55562C15.1726 5.18024 16.1057 4.8039 17.0189 4.39313C17.4877 4.14229 17.9499 3.88013 18.4121 3.61797C18.7589 3.42132 19.1056 3.22466 19.4551 3.03278L19.5546 2.97799C19.9294 2.77141 20.3282 2.55156 20.7412 2.44038C21.1029 2.34699 21.4701 2.34287 21.8389 2.44169C22.2028 2.53186 22.494 2.75632 22.7852 2.98076C23.532 3.55421 24.2724 4.09667 25.0475 4.61911C25.8599 5.16622 26.6007 5.7893 27.3255 6.4447C27.4586 6.55898 27.5921 6.67254 27.7258 6.78561C27.8189 6.86432 27.9121 6.9428 28.0053 7.02112C28.174 7.16287 28.343 7.30408 28.5119 7.44525L28.5197 7.45176C29.0078 7.85968 29.4954 8.26714 29.9757 8.6854C29.9733 8.6844 29.9709 8.68355 29.9687 8.68296C30.7531 9.36168 31.5746 9.98436 32.4257 10.5784C32.9416 10.9427 33.4311 11.3406 33.9213 11.7391C34.209 11.973 34.4969 12.207 34.7906 12.4346C35.1424 12.7072 35.5007 12.9714 35.8594 13.2358L35.8655 13.2406L35.8695 13.2435C36.3172 13.5737 36.7655 13.9044 37.2025 14.2522C37.3007 14.3303 37.3987 14.4088 37.4969 14.4873L37.498 14.4882L37.4991 14.489L37.5012 14.4905L37.5064 14.4947C37.6376 14.5995 37.7689 14.7045 37.9009 14.809C37.9606 14.4629 38.0239 14.1173 38.0922 13.7732C38.2269 13.1065 38.3667 12.4485 38.5287 11.7891C38.5491 11.7061 38.5692 11.6226 38.5894 11.5388L38.5902 11.5358L38.5904 11.5348L38.63 11.371L38.6445 11.3116C38.6592 11.2517 38.674 11.1918 38.6892 11.1321C38.7199 11.012 38.7517 10.8925 38.7859 10.7746C38.9749 10.042 39.1798 9.27702 39.641 8.67586C39.9752 8.23263 40.4983 7.98485 41.0385 7.97816C41.1762 7.90632 41.3183 7.83935 41.4643 7.77057L41.49 7.75844C42.0364 7.476 42.57 7.17143 43.1036 6.8669C43.317 6.74516 43.5303 6.62341 43.7444 6.50308C44.5981 6.02174 45.4604 5.5354 46.3092 5.04538L46.3136 5.04286C47.313 4.47737 48.3125 3.91186 49.307 3.3377C49.6705 3.1278 50.0389 2.92616 50.4153 2.72007L50.4428 2.70503C50.5785 2.63133 50.714 2.55493 50.8501 2.47822C51.1912 2.28591 51.5355 2.09185 51.8931 1.93415C51.8383 1.26436 52.1438 0.561089 52.7637 0.244991ZM37.2365 18.7061C36.9096 18.5063 36.5965 18.2847 36.2908 18.0528C36.1549 18.4355 35.8901 18.7742 35.5156 18.9904C35.1479 19.2028 34.7853 19.433 34.4267 19.6609C34.2532 19.7711 34.0806 19.8807 33.9088 19.9874C33.6615 20.1456 33.4052 20.2884 33.149 20.4313C33.0208 20.5027 32.8927 20.5741 32.7657 20.6474C32.6702 20.7025 32.5751 20.7582 32.4801 20.8137L32.4791 20.8143L32.3285 20.9023L32.2607 20.9418L32.1832 20.9866C31.9982 21.0933 31.813 21.1972 31.6262 21.2938C30.1017 22.0767 28.5804 22.8477 27.04 23.6008L27.2761 23.7591C27.7786 24.0964 28.2725 24.4449 28.7649 24.7956C28.8904 24.6488 29.044 24.5251 29.2252 24.4351C30.4603 23.8144 31.6868 23.1987 32.9182 22.5916C33.1664 22.4672 33.4145 22.3437 33.6625 22.2203C34.6315 21.738 35.5972 21.2575 36.543 20.7298C36.6003 20.6975 36.6589 20.6687 36.7183 20.6433C36.8553 20.1506 36.9916 19.6567 37.1251 19.1582C37.1653 19.0083 37.202 18.8574 37.2365 18.7061ZM35.7082 25.15C35.555 25.2264 35.4018 25.3025 35.2488 25.3786L34.8318 25.586C34.1905 25.9043 33.5506 26.2248 32.9106 26.5452L32.0739 26.964C32.6453 27.3075 33.2207 27.6464 33.8018 27.982C33.9084 28.0447 34.0157 28.1085 34.1238 28.1728C34.2472 28.2463 34.3718 28.3204 34.4975 28.3942C34.5686 28.4359 34.6401 28.4775 34.7121 28.5188C34.7407 28.2482 34.7916 27.9763 34.8598 27.6945C34.9072 27.5001 34.9832 27.3076 35.0586 27.1164C35.1031 27.0035 35.1475 26.891 35.1857 26.7789L35.201 26.7341L35.2162 26.689L35.2346 26.6344L35.2353 26.6323C35.2827 26.4908 35.3308 26.3476 35.389 26.2111C35.5034 25.8595 35.6112 25.5062 35.7082 25.15ZM33.1071 15.6123C33.2785 15.7407 33.4508 15.8685 33.6233 15.9962C33.331 16.1691 33.0476 16.3509 32.7651 16.5321L32.7641 16.5327C32.6051 16.6347 32.4459 16.7368 32.2861 16.8367C31.8331 17.1126 31.3702 17.3718 30.9053 17.6321C30.6251 17.789 30.3441 17.9463 30.064 18.108C29.0871 18.663 28.0763 19.1591 27.0655 19.6552L26.6538 19.8574L26.4239 19.9708L26.2388 20.0625L26.2734 20.0425C26.1137 20.121 25.9538 20.1992 25.7939 20.2774C25.1433 20.5956 24.491 20.9146 23.8465 21.2589C23.8238 21.2708 23.8014 21.2832 23.7795 21.2962L23.6887 21.2266C23.5352 21.109 23.3822 20.991 23.2292 20.8731L23.227 20.8715L23.2246 20.8695C22.6391 20.4183 22.055 19.9681 21.4531 19.5417C21.6529 19.4269 21.854 19.3214 22.0575 19.2203L22.0662 19.2153C22.0912 19.2009 22.1193 19.1873 22.1486 19.1731L22.1812 19.1573L22.6133 18.9531C23.994 18.3009 25.3755 17.6484 26.7322 16.9371C27.3278 16.6291 27.9074 16.2815 28.4841 15.9355C28.648 15.8372 28.8116 15.7391 28.9752 15.6421C29.6927 15.2047 30.3852 14.7241 31.0539 14.2225L31.0814 14.2015L31.0964 14.1898C31.1145 14.1755 31.1322 14.161 31.1497 14.1462C31.1637 14.1343 31.1775 14.1223 31.191 14.1101L31.2131 14.0901C31.2803 14.1418 31.3472 14.1937 31.4137 14.2457C31.617 14.4057 31.8134 14.5722 32.009 14.7381C32.2207 14.9175 32.4314 15.0962 32.6487 15.2648C32.8005 15.3814 32.9535 15.4971 33.1071 15.6123ZM18.3614 17.4766L18.364 17.4733C18.3502 17.4653 18.3364 17.4577 18.3224 17.4508L18.3614 17.4766ZM18.3678 17.4683C18.4501 17.3637 18.5447 17.2668 18.6511 17.1802C19.4492 16.5249 20.3909 16.0897 21.329 15.6561C21.505 15.5748 21.6809 15.4935 21.8558 15.4108C22.1631 15.2623 22.4738 15.1147 22.7845 14.967L23.0161 14.857C23.1664 14.7855 23.3166 14.7139 23.4662 14.6422L23.5754 14.5898L23.7111 14.5244C23.8527 14.453 23.9945 14.3828 24.1359 14.3128C24.6198 14.0731 25.1009 13.8348 25.5661 13.5573C25.7948 13.4187 26.0244 13.2814 26.2538 13.1443L26.2554 13.1433C26.8317 12.7988 27.4067 12.4551 27.9646 12.0917C27.9965 12.0685 28.0286 12.0457 28.0609 12.0231C28.1068 11.9909 28.153 11.9591 28.1991 11.9274L28.2785 11.8727C27.9408 11.5919 27.6072 11.3049 27.2726 11.0132C27.2759 11.0188 27.2795 11.0229 27.283 11.0263C27.2859 11.029 27.2888 11.0312 27.2915 11.0333C27.2957 11.0365 27.2992 11.0392 27.3013 11.0428C27.0961 10.8672 26.8884 10.6929 26.6797 10.5193C25.1121 11.5084 23.4214 12.3066 21.7463 13.0975C21.555 13.1878 21.3639 13.2781 21.1731 13.3685C20.5295 13.6794 19.8774 13.9758 19.2253 14.2721C19.0084 14.3707 18.7915 14.4692 18.5749 14.5683C18.4026 14.6471 18.2309 14.7231 18.0594 14.7988L17.7938 14.9162C17.6719 14.9702 17.5499 15.0248 17.4274 15.0808C17.3474 15.1166 17.2671 15.1533 17.1865 15.1901C16.7566 15.3868 16.3171 15.5877 15.8539 15.6763C16.6748 16.2951 17.5119 16.891 18.3678 17.4683ZM22.4533 7.13857C22.9134 7.45418 23.3698 7.76713 23.814 8.09708C23.1634 8.45602 22.5021 8.79192 21.8379 9.12927L21.485 9.30865C21.1034 9.48852 20.7213 9.67005 20.3386 9.85194C19.6287 10.1892 18.9165 10.5277 18.2 10.8588C17.968 10.9654 17.7358 11.074 17.5031 11.1828C16.7563 11.5319 16.004 11.8837 15.2327 12.1794L15.2067 12.1944C14.9416 12.2551 14.6791 12.3605 14.4703 12.5388C13.9836 12.9601 13.717 13.5653 13.7981 14.1823C13.3518 13.8822 12.9007 13.5906 12.4506 13.3007C11.6059 12.7376 10.7685 12.1472 9.94846 11.5468L9.86024 11.4819L9.7638 11.4114L9.69233 11.3595C9.7621 11.3266 9.83137 11.2943 9.90004 11.2629L10.7262 10.8901C11.1007 10.72 11.4751 10.5499 11.8547 10.3885C12.9285 9.91654 14.0108 9.47412 15.0946 9.03108L15.0958 9.0306C15.7871 8.74803 16.479 8.46521 17.1697 8.17431C18.0351 7.81324 18.8805 7.41754 19.7032 6.94253L19.9976 6.77273L20.199 6.6571C20.4413 6.5183 20.6844 6.38074 20.9293 6.2462L21.0939 6.1512C21.4884 6.45457 21.8866 6.74428 22.2935 7.02898L22.4533 7.13857ZM44.7104 62.1562C44.311 62.4361 43.9088 62.7258 43.5093 63.0224L43.4186 62.5787C43.4316 62.6242 43.4401 62.6686 43.4484 62.7114C43.4544 62.7432 43.4604 62.7742 43.4679 62.8043C43.4044 62.4759 43.3521 62.1444 43.2997 61.8124C43.2129 61.2623 43.1259 60.7112 42.9874 60.1719C42.9317 59.9494 42.875 59.7286 42.8185 59.5085C42.6777 58.96 42.5382 58.4165 42.4189 57.8673C42.3156 57.278 42.2728 56.6815 42.2301 56.0878L42.2294 56.0844L42.2141 55.8725C42.1947 55.344 42.1946 54.8207 42.1945 54.2951C42.1945 54.056 42.1945 53.8163 42.1927 53.5755C42.1841 52.9112 42.1568 52.2509 42.1294 51.589L42.1293 51.5878L42.1292 51.585L42.1288 51.5751L42.1278 51.5588L42.1056 51.0046C42.0693 50.1017 42.069 49.2012 42.0824 48.3044C42.0847 48.1803 42.0875 48.055 42.0903 47.9288C42.115 46.8329 42.1411 45.6703 41.8217 44.6328C41.6933 44.2104 41.549 43.8203 41.303 43.4543C41.0083 43.024 40.652 42.687 40.2105 42.4223C39.5414 42.0234 38.8517 41.7288 38.0645 41.8253C37.4674 41.9007 36.8734 41.9972 36.2789 42.0939L35.919 42.1522L35.7576 42.1781C35.5826 42.206 35.4076 42.2333 35.2323 42.2596C33.5813 42.52 31.9263 42.7134 30.2599 42.8672C29.58 42.8958 28.9026 42.8992 28.2256 42.9026C27.6565 42.9054 27.0877 42.9082 26.518 42.926C26.1057 42.9399 25.6938 42.9526 25.2823 42.9652C24.3371 42.9941 23.394 43.023 22.454 43.0669C20.7549 43.1502 19.0679 43.3545 17.3799 43.5589L17.3767 43.5593L17.3755 43.5594L17.3743 43.5595L17.3692 43.5602C16.2383 43.6971 15.107 43.834 13.9713 43.9345C14.0146 43.9373 14.0593 43.9352 14.1057 43.9329C14.1362 43.9314 14.1674 43.9299 14.1995 43.9298C12.5378 44.0116 10.882 44.0438 9.21862 44.0226C8.83532 44.0188 8.45167 44.0093 8.06804 43.9999L8.06527 43.9998C7.88609 43.9954 7.70691 43.991 7.52773 43.9871C7.39907 43.9844 7.27049 43.9819 7.14187 43.9799C7.06707 43.9788 6.9923 43.9778 6.91752 43.9771C6.7817 43.976 6.64574 43.9758 6.50973 43.9762C6.41207 43.9765 6.31436 43.977 6.21659 43.9778L5.92985 43.9801C5.27119 43.9858 4.61254 43.9915 3.95916 43.953L3.66133 43.9171C3.64189 43.8003 3.62435 43.6824 3.6091 43.5644C3.59131 43.4269 3.57672 43.289 3.56612 43.1523C3.56067 42.7628 3.56522 42.3907 3.5871 42.0085C3.61317 41.7351 3.64055 41.4617 3.66836 41.1884L3.71495 40.7335C3.8194 39.7171 3.92384 38.7002 3.98578 37.6792C4.03218 36.8511 4.04494 36.0194 4.05768 35.1877L4.05787 35.18C4.07061 34.3483 4.08336 33.5167 4.12976 32.6886C4.17823 32.1525 4.25409 31.6238 4.35718 31.1024C4.61996 29.9527 4.95555 28.8153 5.29041 27.6804L5.29086 27.679L5.29193 27.675L5.29222 27.6741L5.29262 27.6726L5.2929 27.6716L5.2933 27.6701L5.29415 27.6671C5.44606 27.1522 5.59799 26.6373 5.74281 26.1223C6.09821 24.8779 6.4436 23.6162 6.72204 22.3585C6.77643 22.0944 6.83657 21.8319 6.89671 21.5693L6.89751 21.5652C6.99813 21.1256 7.0988 20.6859 7.17279 20.2392C7.20806 20.025 7.24686 19.8101 7.28572 19.5947L7.28652 19.5902C7.36315 19.1654 7.44017 18.7387 7.49165 18.3115C7.53608 17.9061 7.5765 17.4997 7.61694 17.093C7.70555 16.2012 7.79433 15.3084 7.92584 14.4235C8.38501 14.7588 8.84423 15.0941 9.30707 15.4158C10.0785 15.9519 10.8658 16.4558 11.6532 16.9596C12.2377 17.3592 12.7982 17.7822 13.361 18.2072L13.3624 18.2081L13.3705 18.2142C13.506 18.3164 13.6415 18.4188 13.7776 18.5209C13.9589 18.6569 14.141 18.7926 14.325 18.9273C15.2737 19.6293 16.2507 20.274 17.2335 20.9226L17.418 21.0444C17.3534 21.0125 17.2924 20.9669 17.2227 20.9262C18.5899 21.8343 19.9362 22.766 21.2331 23.7724C21.9476 24.3298 22.6656 24.8736 23.4097 25.4024C23.7263 25.6282 24.0505 25.8401 24.3736 26.0513C24.6717 26.2462 24.9689 26.4405 25.2584 26.6445C25.4196 26.7573 25.5804 26.8707 25.7409 26.9842C25.9014 27.0978 26.0617 27.2117 26.2219 27.3255C27.3665 28.1382 28.5089 28.9493 29.7136 29.661C29.8987 29.7716 30.084 29.8818 30.2694 29.9918C30.5662 30.1679 30.8633 30.3436 31.1604 30.5193C32.1269 31.0907 33.0935 31.6622 34.049 32.2502L34.1148 32.2954L34.1905 32.347C34.3329 32.444 34.4726 32.5392 34.6102 32.6421C34.7658 32.7717 34.9264 32.9099 35.0994 33.0294C35.7215 33.467 36.6327 33.6453 37.3092 33.197C37.9683 32.7587 38.3103 32.1109 38.3117 31.3134C38.3032 31.0826 38.2854 30.8572 38.2676 30.6319L38.2566 30.4916C38.2528 30.4429 38.2491 30.3941 38.2456 30.3453L38.2396 30.2573L38.2347 30.18C38.2261 30.185 38.2311 30.1937 38.2311 30.1937C38.2294 30.1907 38.2292 30.1882 38.2296 30.1858C38.2304 30.1812 38.233 30.1771 38.2297 30.1714C38.2309 30.1534 38.2295 30.1312 38.2276 30.1079L38.2254 30.0833L38.225 30.0797L38.2249 30.078C38.2237 30.0642 38.2224 30.0505 38.2217 30.0374C38.2223 30.0284 38.2223 30.0198 38.222 30.0113L38.2212 29.9944L38.2208 29.986C38.2202 29.977 38.2197 29.9679 38.2195 29.9587L38.2195 29.9495C38.2195 29.9446 38.2197 29.9396 38.22 29.9345C38.2126 29.6617 38.2088 29.3752 38.2237 29.101C38.2343 28.9794 38.2449 28.8578 38.2692 28.7398L38.3022 28.6169L38.3881 28.3889C38.6672 27.6497 38.9533 26.8922 39.1432 26.1336C39.3001 25.4732 39.4209 24.8065 39.5418 24.1386L39.543 24.1321C39.5981 23.8277 39.6533 23.5231 39.712 23.2187C39.8339 22.744 39.9677 22.2715 40.1014 21.7988L40.102 21.7968C40.3386 20.9607 40.5754 20.1236 40.7475 19.2723C40.9687 18.1789 41.1414 17.0808 41.3138 15.9847C41.3414 15.8091 41.369 15.6335 41.3968 15.4581C41.4252 15.2791 41.4537 15.1002 41.4827 14.9215C41.4827 14.9215 41.4852 14.919 41.4858 14.9169C41.4865 14.9148 41.4865 14.9122 41.4847 14.9091L41.4827 14.9215L41.481 14.9228C41.6733 13.9507 41.868 12.9831 42.1171 12.0283C42.3898 12.1876 42.6648 12.3442 42.9392 12.5005L42.9789 12.5231L43.2297 12.6661C43.3436 12.7313 43.4573 12.7965 43.5705 12.8619C44.3254 13.2908 45.0853 13.7283 45.8452 14.1658L45.8487 14.1678C46.8564 14.7378 47.8502 15.3435 48.8402 15.9469L48.8412 15.9476L48.8429 15.9487C49.1323 16.1251 49.4213 16.3013 49.7103 16.4763L52.9352 18.702C53.2685 18.9329 53.5801 19.1968 53.8916 19.4608L53.8925 19.4617C54.048 19.5935 54.2035 19.7253 54.3618 19.8529C54.5348 19.9899 54.7074 20.1286 54.88 20.2682L55.0801 20.4302L55.4636 20.7413C55.5856 20.84 55.7078 20.9387 55.8307 21.0371C56.7484 21.8467 57.6525 22.6527 58.5616 23.4672C58.6469 23.5435 58.732 23.62 58.8171 23.6965C58.9379 23.8051 59.0586 23.9139 59.1792 24.0227L59.182 24.0252C59.9768 24.7415 60.7725 25.4586 61.6025 26.1341C61.7472 26.2543 61.8918 26.3751 62.0365 26.496C62.6462 27.0051 63.2581 27.516 63.8918 27.9993C64.1 28.1581 64.3086 28.3176 64.5176 28.4774L64.5901 28.5329C64.8891 28.7615 65.1891 28.9908 65.49 29.22C65.7467 29.4155 66.0042 29.611 66.2627 29.8059C67.8445 31.0058 69.414 32.2242 70.9416 33.49C71.2534 33.7452 71.5582 34.0093 71.8633 34.2736L71.8653 34.2752C72.2234 34.5855 72.5817 34.896 72.9524 35.1928C73.6955 35.7799 74.4509 36.3483 75.2237 36.9068C75.9878 37.4702 76.7555 38.02 77.5319 38.5648C78.0982 38.9659 78.6763 39.3663 79.2725 39.7315C78.9398 39.8918 78.6098 40.0573 78.2807 40.2225C78.0835 40.3214 77.8865 40.4202 77.6895 40.5177C76.0706 41.3137 74.4881 42.1927 72.9192 43.0754C71.1166 44.0931 69.3003 45.1071 67.4789 46.1125C65.8568 47.0029 64.2497 47.9192 62.6725 48.8875C61.0607 49.8758 59.5239 50.994 57.9958 52.1072C57.2407 52.6586 56.4961 53.2183 55.7515 53.7781C55.0064 54.3382 54.2614 54.8983 53.5057 55.4501C52.9954 55.825 52.4793 56.1922 51.9632 56.5592C50.9949 57.2479 50.0269 57.9365 49.0981 58.6761C48.6375 59.0439 48.1844 59.4188 47.7317 59.7934C46.7474 60.6078 45.7649 61.4209 44.7104 62.1562ZM82.7774 37.7302C82.6751 37.7916 82.573 37.8548 82.4707 37.9189C82.3284 37.5624 82.0734 37.2518 81.7201 37.059C81.2849 36.8252 80.8744 36.5541 80.4639 36.2831C79.8102 35.8396 79.1609 35.3845 78.5154 34.9232C78.9238 34.6821 79.3375 34.4653 79.7553 34.2558C80.0684 34.0981 80.381 33.9394 80.6936 33.7807C81.3187 33.4635 81.9438 33.1462 82.5733 32.8366C83.2445 32.4992 83.919 32.1675 84.5935 31.8358C85.9426 31.1724 87.2916 30.509 88.614 29.7994C88.6622 29.7831 88.7142 29.7531 88.7575 29.7281L88.8528 29.6731C89.3002 29.4148 89.591 28.9815 89.6925 28.5073C90.8196 29.3822 91.9271 30.2814 93.0086 31.2112C92.9799 31.1816 92.9563 31.1606 92.9277 31.1309C93.0173 31.2104 93.1075 31.2879 93.1978 31.365L93.2834 31.438C93.403 31.5398 93.5225 31.6415 93.6411 31.7467C93.1902 31.9896 92.7357 32.215 92.2825 32.4398L92.2799 32.4411L92.2743 32.4439L92.2689 32.4466L92.0305 32.5648L91.8367 32.6614C91.7372 32.7137 91.6374 32.7656 91.5374 32.8172C91.4147 32.8806 91.2917 32.9436 91.1687 33.0066C90.9463 33.1206 90.7239 33.2346 90.5027 33.3508C90.3422 33.435 90.1819 33.5188 90.0216 33.6026C89.0931 34.088 88.1692 34.5711 87.2607 35.0956C86.2388 35.6856 85.2169 36.2756 84.205 36.8829C83.7287 37.1579 83.2487 37.4466 82.7774 37.7302ZM87.1318 26.582C87.1154 26.5902 87.099 26.5986 87.0827 26.6074C85.6434 27.3899 84.1698 28.113 82.6961 28.8361C82.0643 29.1462 81.4324 29.4562 80.8033 29.7709C79.807 30.2653 78.8243 30.7634 77.8331 31.2664C77.1903 31.5901 76.5779 31.9665 75.9656 32.3429C75.7904 32.4506 75.6153 32.5582 75.4394 32.6647C74.6752 32.0655 73.9376 31.4303 73.2005 30.7955C73.0323 30.6507 72.8641 30.5058 72.6956 30.3615L73.5966 29.7286C75.7826 28.3093 78.0487 27.0288 80.3185 25.7461C81.0487 25.3335 81.7793 24.9207 82.5076 24.503C82.8261 24.4346 83.1255 24.2733 83.3563 24.013C83.3723 23.9927 83.3883 23.973 83.4042 23.9536C84.6591 24.8122 85.9041 25.6859 87.1318 26.582ZM68.8774 27.3398C69.1929 27.5767 69.5089 27.8139 69.8238 28.0526C70.6857 27.4432 71.5448 26.8408 72.4302 26.2682C73.2259 25.7442 74.0527 25.2613 74.8762 24.7803L74.8771 24.7797C75.0836 24.6591 75.2899 24.5387 75.4955 24.4176C76.552 23.8077 77.6087 23.1976 78.6702 22.5963C78.8954 22.4663 79.1209 22.3419 79.3463 22.2175C79.5718 22.0931 79.7973 21.9686 80.0225 21.8386C80.0621 21.8164 80.1019 21.7936 80.1418 21.7704C79.9662 21.6591 79.7906 21.5476 79.6151 21.4359C79.4174 21.31 79.2197 21.1841 79.0221 21.0581L78.9899 21.0375L78.9558 21.0158L78.944 21.0086C78.658 20.8263 78.3721 20.6439 78.0859 20.462C78.0742 20.4691 78.0624 20.4761 78.0505 20.483L78.0419 20.488C76.5961 21.3227 75.1189 22.0832 73.6419 22.8437L73.6404 22.8444C73.4546 22.9391 73.2683 23.0335 73.0818 23.1277C72.9063 23.2162 72.7306 23.3047 72.5548 23.3931L72.534 23.4036C71.1797 24.0849 69.8191 24.7694 68.5247 25.5439C67.6983 26.0326 66.5819 25.7188 66.1069 24.8961C65.6132 24.061 65.9111 22.9768 66.7461 22.4832C68.0455 21.7057 69.4005 21.0242 70.7511 20.3449L70.7626 20.3391C70.9666 20.2365 71.1705 20.1339 71.3742 20.031C71.5369 19.9488 71.6995 19.8664 71.8617 19.7837C72.7968 19.309 73.7279 18.8275 74.649 18.3285C73.765 17.7872 72.8785 17.2455 71.9917 16.7048C71.9558 16.7237 71.9192 16.7416 71.8817 16.7584C71.3988 16.9713 70.8993 17.1488 70.3993 17.3265C70.0225 17.4604 69.6455 17.5943 69.2751 17.7437C68.2389 18.1688 67.2162 18.5975 66.1999 19.0572C65.7209 19.2876 65.2556 19.5216 64.7916 19.7779C64.3363 20.0293 63.901 20.3153 63.4793 20.6049C63.3972 20.6592 63.3149 20.713 63.2326 20.7669L63.2305 20.7683C62.8948 20.988 62.5601 21.2071 62.2439 21.4452C62.1491 21.5575 62.0411 21.6544 61.9237 21.7357L62.1012 21.8926C62.1918 21.9725 62.2825 22.0523 62.3731 22.1319L62.5167 22.2576C62.6785 22.4061 62.8433 22.5529 63.0065 22.6981L63.1436 22.8201C63.2067 22.8764 63.2693 22.9324 63.3312 22.9883C63.5198 23.1413 63.7078 23.2945 63.8956 23.4478L64.3139 23.7896L64.3191 23.7939C64.7674 24.1604 65.2144 24.5259 65.6628 24.8869C66.1239 25.2604 66.6009 25.6199 67.0767 25.9785L67.2984 26.1457L67.4586 26.2668L67.5387 26.3277C67.6465 26.4095 67.7539 26.4915 67.8607 26.5739C68.1942 26.827 68.5298 27.0789 68.8658 27.3311L68.8699 27.3343L68.871 27.335L68.8774 27.3398ZM80.1485 21.7665L80.1465 21.7677C80.1183 21.7491 80.0904 21.7304 80.0641 21.7107L80.1485 21.7665ZM59.4841 19.205C59.4664 19.2294 59.4494 19.2542 59.4331 19.2792C59.4027 19.3258 59.3747 19.3734 59.349 19.4217C58.9191 19.0287 58.4852 18.6405 58.0349 18.275L57.8372 18.1141C58.6942 17.6555 59.557 17.2146 60.4208 16.7733C60.953 16.5013 61.4856 16.2292 62.0173 15.9526C62.3659 15.7691 62.7135 15.5891 63.06 15.4097L63.0631 15.4081L63.0694 15.4048L63.0756 15.4016C63.2957 15.2877 63.5153 15.174 63.7345 15.0597C63.8399 15.0047 63.9453 14.9496 64.0505 14.8942L65.3622 14.2062C65.4273 14.1716 65.4924 14.1379 65.5573 14.1042C65.9442 13.9037 66.3216 13.708 66.623 13.383C67.1352 13.7132 67.6502 14.0391 68.1669 14.3619C68.0881 14.3924 68.0093 14.4234 67.9309 14.4552C66.8723 14.8817 65.8323 15.3204 64.79 15.7952C63.874 16.2086 62.9793 16.6789 62.1433 17.2309L62.0739 17.2764C61.6609 17.5478 61.2411 17.8235 60.8336 18.1025C60.7411 18.1673 60.6461 18.2309 60.5504 18.2949C60.1616 18.5549 59.7631 18.8215 59.4841 19.205ZM63.4197 11.2215C62.5236 10.5841 61.6436 9.92543 60.7855 9.23909C60.6019 9.09303 60.4185 8.94739 60.2353 8.80193L60.1704 8.7503C57.7036 10.1575 55.1507 11.3975 52.5931 12.6295L52.3903 12.7291C52.0156 12.9129 51.6408 13.0968 51.272 13.2909C51.8171 13.6239 52.3385 13.9884 52.8595 14.3525L52.8618 14.3544L52.8763 14.3645L52.888 14.3727C53.0399 14.4788 53.1916 14.5849 53.344 14.6901C53.3809 14.7159 53.4179 14.7415 53.4548 14.7671L53.5554 14.8366L53.6435 14.8971C53.7349 14.9598 53.8265 15.0221 53.918 15.0844L53.9389 15.0986L53.941 15.1001L53.9464 15.1039L53.9474 15.1046C54.3806 15.3997 54.8127 15.694 55.2284 16.0131C55.36 15.6203 55.625 15.2744 56.01 15.0677C57.1111 14.4782 58.225 13.9108 59.339 13.3435C59.617 13.2019 59.8951 13.0602 60.173 12.9182C60.7294 12.6319 61.2845 12.3397 61.8406 12.0471L61.8422 12.0463C62.3664 11.7705 62.8922 11.4938 63.4197 11.2215ZM47.9555 11.2856C47.3012 10.8944 46.6427 10.5196 45.984 10.1448L45.747 10.0099C45.5799 9.91476 45.4129 9.81947 45.2459 9.7238C46.065 9.26245 46.8927 8.79612 47.7068 8.32612C48.1912 8.04946 48.6745 7.76948 49.1579 7.48944C50.5117 6.70516 51.8664 5.9203 53.2497 5.20674C53.4492 5.17237 53.6424 5.10703 53.8243 5.00201C54.13 4.8255 54.3632 4.58088 54.5187 4.29275C55.4378 4.95018 56.3191 5.65171 57.195 6.35997C56.313 6.84448 55.4232 7.31329 54.5238 7.77357L51.5199 9.23074C51.3636 9.30707 51.2065 9.38302 51.0492 9.45908L51.0441 9.46156C50.1604 9.88884 49.2677 10.3205 48.4449 10.8445C48.2539 10.9656 48.0892 11.1157 47.9555 11.2856Z" fill="black"/>
<path d="M29.9757 8.6854C29.9828 8.68843 29.9905 8.69329 29.9974 8.6996C30.0027 8.70438 30.0074 8.70998 30.0111 8.71625L29.9757 8.6854Z" fill="black"/>
</svg>
