<svg width="33" height="35" viewBox="0 0 33 35" fill="none" xmlns="http://www.w3.org/2000/svg">
<path d="M8.98807 28.242C9.49741 28.4881 14.4881 30.0753 16.9881 31.242C24.9881 34.242 29.9881 30.2419 30.9881 24.2419C31.9881 18.2419 29.9881 16.7419 27.4881 12.7419C24.9881 8.74194 23 10.5 19.5 12C16 13.5 14.4881 12.2419 11.9881 7.74197C7.98808 0.241966 4.98808 2.24197 3.98808 2.24197C2.98808 2.24197 0.988084 6.24197 4.98808 9.74197C8.18808 12.542 10.6548 18.5753 11.4881 21.242C8.98808 19.742 2.94521 19.758 2.5 20.5C-0.5 25.5 4.34847 26 8.98807 28.242Z" fill="white"/>
<path d="M22.4544 34.2542C22.2969 34.2829 22.0724 34.1551 21.886 34.145C21.1131 34.0949 20.8388 33.9762 20.169 33.8369C19.1628 33.6925 16.3277 32.9667 16.6695 32.0915C16.6695 32.0914 16.6695 32.0914 16.6695 32.0914C16.6726 32.0831 16.676 32.0748 16.6797 32.0666C16.7501 31.91 17.036 31.8155 17.133 31.6437C17.2297 31.4716 17.6346 30.2868 17.9363 30.3159C18.3714 30.376 19.2834 30.9565 19.5196 30.9855C19.6788 31.0109 19.889 30.938 20.087 30.9531C20.7301 30.9985 21.0563 31.1171 21.6339 30.8387C21.8426 31.0119 22.0722 31.1786 22.3018 31.3369C22.5983 31.2579 23.0624 31.4351 23.2468 31.3984C23.3945 31.3702 23.461 31.2303 23.6122 31.1993C23.7789 31.1637 24.0685 31.2508 24.3685 31.1498C24.8608 30.9784 24.8296 30.6229 25.084 30.4806C25.3435 30.3329 25.853 30.2923 26.1226 29.987C26.1445 29.9303 26.1654 29.8737 26.1853 29.8171C26.1118 29.7647 26.0392 29.7113 25.9676 29.6571C26.101 29.5282 26.2606 29.6278 26.4038 29.5307C26.5709 29.4155 26.5511 29.2233 26.6538 29.1408C26.7378 29.0733 26.9365 29.0748 27.0375 28.9699C27.1836 28.8174 27.0181 28.7133 27.0711 28.6114C27.1022 28.5778 27.5536 27.9007 27.5697 27.8577C27.7702 27.5761 27.9978 27.6959 28.1749 27.4621C28.6602 26.8079 28.8049 25.9303 28.9384 25.1892C29.0003 24.8549 29.097 24.5144 29.2008 24.1864C29.5649 24.6339 30.022 24.2835 29.9398 24.0672C29.9038 23.968 29.7597 23.9106 29.4531 23.9861C29.4286 23.9914 29.4031 23.9974 29.3765 24.0042C29.382 23.9947 29.3872 23.9853 29.3921 23.9759C29.5783 23.5956 29.3576 23.2769 29.4452 22.9169C29.503 22.6721 29.6633 22.5169 29.6826 22.1679C29.7183 21.5364 29.2871 20.9306 30.0065 20.7089C29.8346 20.021 29.9521 19.3674 29.262 19.3082C29.1861 19.1655 29.4179 18.6332 29.3873 18.4229C29.402 18.2348 28.8444 16.8026 28.6824 16.5676C28.5537 16.3403 28.3043 15.9391 28.1294 15.7799C27.9108 15.5787 27.2398 15.7886 27.5997 14.9132C27.2063 14.4412 27.0992 14.2408 26.8636 13.7065C26.8205 13.6086 26.9137 13.5371 26.881 13.4856C26.8405 13.4219 26.7561 13.3474 26.6665 13.2554C26.6111 13.2007 26.5546 13.1421 26.5078 13.0783C26.3159 12.8171 26.4011 12.5248 26.1204 12.7761C25.9455 12.6437 25.7717 12.5274 25.6012 12.4307C25.6137 12.3356 25.6186 12.2342 25.6253 12.1371C25.5008 12.1222 25.3728 12.1093 25.2564 12.1122C25.7018 11.7646 24.9787 11.6166 24.9716 12.0009C24.8116 11.7551 24.6496 11.5613 24.3937 11.4168C24.5135 10.7774 23.6789 11.3619 23.8393 11.7039C23.8049 11.7094 23.7694 11.7158 23.7329 11.723C23.3716 11.6332 23.0679 11.8779 22.5537 11.9749C22.0283 12.0808 22.0424 12.0139 21.7743 11.8226C21.6613 11.8922 21.5517 11.9609 21.4379 12.0318C21.1347 13.0241 20.6974 11.7794 19.8341 12.7796C19.828 12.7862 19.8218 12.7929 19.8157 12.7997C19.2521 12.5125 18.4454 13.0958 17.7258 13.3326C17.6439 13.3607 17.6543 13.4556 17.5422 13.4965C17.2614 13.6135 16.5051 13.4437 16.4878 13.7372C16.2181 13.6131 15.9635 13.4622 15.7376 13.2911C15.5117 13.273 15.2844 13.235 15.0601 13.1794C15.0164 13.2645 14.9727 13.3496 14.929 13.4348C14.6586 12.9344 14.0796 12.6283 13.9014 12.3473C13.8676 12.2933 13.943 12.1852 13.8388 12.0299C13.7117 11.8438 13.4205 11.5751 13.2958 11.3529C13.12 11.3683 12.9469 11.3849 12.7695 11.3942C12.4286 11.077 12.6592 10.7264 12.5388 10.4985C12.5142 10.4608 12.0417 9.77941 12.015 9.74513C11.7739 9.47315 11.5333 9.72976 11.0747 8.7892C11.0007 8.63441 11.0199 8.4601 10.9568 8.31492C10.9549 8.31132 10.9489 8.3008 10.9471 8.29716C10.9437 8.2888 10.94 8.28057 10.9359 8.27246C10.8102 8.01171 10.1811 7.43163 9.9428 7.50356C10.0411 7.07436 9.45871 6.39847 9.38942 6.16061C9.3661 6.08208 9.51046 5.95467 9.40386 5.74088C9.32136 5.56997 8.90251 5.28141 8.76533 5.08653C8.62622 4.88281 8.68288 4.71075 8.61356 4.61976C8.54698 4.53389 8.39469 4.56128 8.29125 4.45824C7.98921 4.15447 7.81885 3.74862 7.54151 3.55776C7.13967 3.28015 6.60323 3.46687 6.29034 3.56272C6.22774 3.52073 6.17244 3.42493 6.09475 3.41149C5.53012 3.32142 5.46843 3.39962 3.98808 3.56912C4.99469 3.12434 3.83579 3.92133 3.87771 4.41699C3.65994 4.87149 3.42632 6.42564 4.20586 5.85586C4.32827 5.97871 4.5589 7.34086 4.78684 7.5824C4.9469 7.81317 5.21028 7.88511 5.3612 8.04766C5.56234 8.26294 5.7367 8.45873 5.94065 8.65332C6.28325 8.97392 6.62365 9.3076 7.08939 9.71542C7.30583 9.90436 7.64054 10.0193 7.7463 10.1535C7.87149 10.3125 7.86678 10.5936 8.01123 10.8041C8.36545 11.3054 9.03799 12.2099 9.3052 12.7178C9.35445 12.8103 9.24014 12.9224 9.2743 13.0746C9.40724 13.667 9.72485 14.2177 10.1077 13.8799C10.2155 14.6644 10.75 15.1499 11.0597 15.7618C11.7274 17.0493 12.5874 19.503 13.1598 20.6833C13.1651 20.694 13.1705 20.7044 13.1757 20.7146C13.6814 22.4584 12.1156 23.7243 10.5784 22.7582C10.1146 22.6637 10.0723 22.8517 9.28483 22.4163C9.09987 22.321 8.90839 22.2144 8.66043 22.1104C8.08672 21.8677 7.52585 21.3789 6.98489 21.8269C6.28038 21.6316 5.70747 21.7052 5.17071 21.2838C5.10722 21.3863 5.04584 21.4892 4.98671 21.5925C4.90284 21.5967 4.81193 21.602 4.72795 21.6079C4.69757 21.5118 4.66683 21.4158 4.63571 21.3199C4.32214 21.321 3.97592 21.4433 3.70367 21.5854C3.5089 21.6232 2.9866 22.2424 3.85724 21.4678C3.88124 21.435 3.90573 21.3985 3.92998 21.358C3.34708 22.1975 2.87683 23.504 3.15829 23.793C3.27269 24.0478 3.43472 23.9022 3.30322 24.3578C3.38563 24.3883 3.4693 24.416 3.55789 24.444C3.65693 24.4004 3.75318 24.3534 3.84972 24.3057C4.24797 24.5758 4.79042 25.0068 5.31611 25.2374C6.26094 25.6568 7.91712 26.0117 8.90359 26.6483C9.10369 26.7763 9.30233 27.0156 9.50695 27.1682C9.47624 27.1667 9.52491 27.1953 9.56318 27.2094C9.88832 27.3292 10.0949 27.0599 10.5615 27.2172C11.3716 27.4882 12.7754 28.3693 13.5573 28.6235C13.7891 28.6984 13.9378 28.6256 14.1008 28.6716C14.786 28.8647 15.3277 29.079 16.0394 29.1635C16.6165 29.7269 16.4019 30.0724 16.4552 30.5288C16.4979 30.8737 16.6862 31.725 16.6288 31.9922C16.5933 32.1807 16.3315 32.3231 16.3064 32.537C15.5112 32.3561 15.2517 32.0626 14.72 31.5428C13.5335 31.0925 12.3192 30.6727 11.0987 30.2586C11.0262 30.115 10.9497 29.9701 10.8764 29.8263C10.8765 29.826 10.8765 29.8258 10.8766 29.8256C10.4515 29.5413 10.1554 29.7434 9.88019 29.7169C9.44976 29.6622 9.12471 29.6476 8.42531 29.4066C7.2091 28.959 5.69447 28.3825 4.13285 27.6235C2.66933 26.9147 0.633011 25.6457 0.459195 23.6453C0.189597 22.6399 1.03513 20.3529 1.45484 20.1084C1.53036 20.0481 1.64154 20.0649 1.72329 20.034C1.79075 19.9581 1.86359 19.8868 1.9425 19.8137C3.65957 18.7525 4.40428 19.0172 5.58066 18.83C7.70486 19.1675 9.81908 19.0945 12.0884 20.2415L10.3745 21.59C10.3428 21.4985 10.3073 21.3959 10.2739 21.301C8.82425 17.398 6.85454 13.3364 4.07785 10.7822C2.89442 9.76064 1.83829 8.3825 1.41708 6.68966C1.05899 5.36434 1.03758 3.47191 1.9689 2.15148C2.47609 1.66416 2.30363 1.45654 3.98808 0.96867C3.96066 0.958182 3.95225 0.94668 3.95828 0.9296C3.96834 1.00347 3.97951 1.0772 3.99166 1.15078C4.28003 1.01626 4.72219 0.695034 5.47017 0.639263C6.1299 0.50681 7.87252 0.971612 8.2915 1.31701C8.52937 1.46678 8.36592 1.53284 8.58553 1.66745C8.95402 1.88328 9.78078 2.30417 10.1705 2.7104C10.5365 3.06883 10.9412 3.80284 11.1833 4.08948C11.9485 4.97034 12.767 5.9412 13.3428 7.01945L13.3302 6.99633C13.4048 7.13039 13.4752 7.26259 13.5407 7.3932C13.6987 7.70944 13.7683 8.18109 13.8285 8.27019C13.9486 8.44851 14.1281 8.40479 14.2216 8.51214C14.687 9.05451 15.1285 10.0299 15.5358 10.4258C16.4887 11.4186 17.3511 11.3185 18.9246 10.6575C19.4999 10.4082 20.0741 10.1348 20.6775 9.86495C21.3944 9.56716 22.3444 9.03221 23.7517 8.87778C25.2253 8.67542 26.7106 9.61044 27.223 10.2597C27.4716 10.5452 27.2637 10.6099 27.4627 10.8296C27.6798 11.0781 27.8817 11.1322 27.9845 11.2499C28.1628 11.4547 28.3796 11.7253 28.604 12.0445C29.1539 12.8155 29.8964 13.8119 30.1754 14.4107C30.2475 14.5651 30.1871 14.7473 30.2435 14.8327C30.2717 14.8758 30.4204 14.9154 30.517 15.047C31.3608 16.2052 31.8843 17.2834 32.2206 18.7929C32.6257 20.6294 32.5566 22.6081 32.2733 24.4561C32.0997 25.5886 31.7718 26.7071 31.2665 27.7129C30.9662 28.3104 30.4695 28.5472 30.4279 28.6249C30.3295 28.7976 30.4345 29.0169 30.237 29.3887C29.5872 30.6558 27.9678 31.7961 26.8077 32.4547C26.2462 32.8052 25.457 33.3649 24.8115 33.5736C24.2999 33.7667 23.0418 33.8174 22.8242 33.9266C22.687 34.0019 22.6291 34.2218 22.4544 34.2542ZM29.8678 21.804C30.2162 21.889 29.9354 21.1162 29.7476 21.4025C29.707 21.4625 29.7796 21.7836 29.8678 21.804ZM4.42395 2.96775C4.45172 3.06319 4.48 3.15851 4.50871 3.25372C4.6319 3.18735 4.73125 3.12232 4.82608 3.0601C4.75713 3.01398 4.68167 2.96964 4.60744 2.92478C4.54681 2.93954 4.49386 2.95259 4.42395 2.96775Z" fill="#121212"/>
</svg>
