<svg width="98" height="67" viewBox="0 0 98 67" fill="none" xmlns="http://www.w3.org/2000/svg">
<path fill-rule="evenodd" clip-rule="evenodd" d="M45.209 0.244991C44.8266 0.0473187 44.4375 -0.0387781 44.013 0.0163836C43.3603 0.104942 42.754 0.499402 42.2066 0.855675L42.1785 0.874002C41.1672 1.52565 40.2051 2.25194 39.2727 3.00688C38.9818 3.24362 38.6914 3.48192 38.401 3.7202C37.8212 4.19579 37.2415 4.67137 36.6585 5.13485C36.5806 5.19697 36.5028 5.25947 36.4251 5.32229C36.3363 5.39414 36.2475 5.46639 36.1587 5.53893C36.056 5.62286 35.9533 5.70715 35.8504 5.79153L35.8408 5.79944L35.8362 5.80298L35.8298 5.80818L35.8249 5.81223C35.2063 6.31979 34.5842 6.83025 33.935 7.29214C32.896 8.03172 31.8707 8.76765 30.8367 9.49857L29.9549 10.0626C28.7861 10.8113 27.6148 11.5615 26.4222 12.2846C24.5903 13.3977 22.7669 14.5159 20.9435 15.634C17.66 17.6411 14.4295 19.7366 11.2692 21.9304C8.14629 24.0995 5.12319 26.3956 2.24067 28.8883C2.05978 29.0414 1.88012 29.199 1.69933 29.3577C1.56405 29.4764 1.42813 29.5956 1.29062 29.7139C1.07765 29.9027 0.859736 30.1002 0.655445 30.294C0.270515 30.6607 0.00115681 31.2672 0 31.8093C0.00900668 32.8537 0.668074 33.5922 1.48043 34.1651C2.06497 34.5692 2.69698 34.891 3.32901 35.2128C3.46441 35.2818 3.59981 35.3507 3.73474 35.4205L3.73653 35.4214C5.48836 36.3059 7.24013 37.1903 8.94198 38.1613C10.0591 38.8063 11.18 39.465 12.2922 40.1186C12.8241 40.4373 13.3473 40.7509 13.888 41.0746C14.1131 41.2046 14.3333 41.3433 14.5448 41.4769C14.6108 41.5196 14.6771 41.5602 14.7439 41.5991C14.9313 41.8873 15.2013 42.1183 15.5387 42.2355C16.0847 42.4293 16.6105 42.6735 17.1372 42.9181L17.3598 43.0213C18.7347 43.6997 20.1047 44.3868 21.4485 45.1394C23.0136 46.0085 24.5651 46.8811 26.1253 47.7588C27.6075 48.5915 29.0912 49.4019 30.5784 50.2259C31.9617 50.9899 33.2964 51.8182 34.6197 52.6862C36.2693 53.81 37.8677 54.9985 39.467 56.1878L39.4682 56.1887C40.7769 57.1619 42.0864 58.1356 43.4251 59.0748C44.9855 60.172 46.5123 61.3075 47.9718 62.5196L48.0736 62.6051L48.3531 62.8402L48.3542 62.8412C48.9319 63.3277 49.5074 63.8122 50.1111 64.2743C50.4613 64.5394 50.823 64.7906 51.1845 65.0417L51.1863 65.0429C51.4877 65.2522 51.7888 65.4614 52.0832 65.6785C52.4132 65.9268 52.7656 66.1765 53.0857 66.4421C53.7674 67.1013 54.8825 67.11 55.559 66.4382C55.6199 66.3772 55.6754 66.3131 55.7265 66.2444C55.7674 66.1894 55.8054 66.1315 55.841 66.0698C55.9364 65.8995 56.0034 65.7163 56.0415 65.5283C56.841 65.5515 57.6642 65.0288 57.8301 64.2045C57.9905 63.445 58.1241 62.6838 58.258 61.9206C58.2964 61.7013 58.3349 61.4819 58.3741 61.2623C58.4633 60.8589 58.5647 60.4583 58.6661 60.0575L58.6674 60.0527C58.8592 59.2957 59.0514 58.5369 59.1625 57.7569C59.3291 56.6368 59.3296 55.4801 59.33 54.346L59.3302 54.0663C59.3292 53.3726 59.3605 52.6794 59.3918 51.9864C59.4162 51.444 59.4407 50.9018 59.4497 50.3594C59.4612 49.7193 59.456 49.0783 59.4507 48.4372C59.4455 47.7963 59.4403 47.1554 59.4519 46.5155C59.4703 46.2837 59.4937 46.0432 59.5207 45.8163C59.5332 45.7555 59.5489 45.6938 59.5647 45.6321L59.5656 45.6286C59.5817 45.5657 59.5979 45.5028 59.6105 45.4408C59.6219 45.4334 59.634 45.4263 59.6464 45.4195L59.6709 45.4064C59.6917 45.3953 59.7125 45.3842 59.7311 45.3719C60.4578 45.4685 61.1833 45.5845 61.9081 45.7004C62.531 45.8 63.1535 45.8995 63.7757 45.9866C65.1578 46.1726 66.5401 46.3586 67.9339 46.4243C68.6665 46.4537 69.4005 46.4571 70.1339 46.4604L70.1355 46.4604C70.7574 46.4631 71.3788 46.4659 71.9983 46.4846C73.3712 46.5267 74.7391 46.5774 76.1106 46.6418C77.636 46.7761 79.1579 46.9675 80.6799 47.1589L80.6929 47.1606L80.7222 47.1643C81.0938 47.211 81.4653 47.2577 81.8369 47.3036C82.789 47.4145 83.7488 47.4722 84.7049 47.5161C85.5891 47.5647 86.4695 47.5996 87.3577 47.5812C89.4293 47.5532 91.4958 47.5339 93.571 47.5196C94.5485 47.5066 95.5549 47.3833 96.402 46.8562C96.7975 46.6112 97.1414 46.2554 97.3714 45.857C97.6287 45.4514 97.7288 44.978 97.8153 44.5083C97.9831 43.5775 98.0134 42.625 97.9221 41.6832C97.9077 41.5181 97.8926 41.3531 97.8771 41.1883C97.8615 41.0225 97.8455 40.8567 97.8291 40.691C97.7989 40.3863 97.7677 40.0817 97.7365 39.7768L97.7355 39.7661L97.7332 39.744L97.7317 39.7294C97.704 39.4587 97.6764 39.1877 97.6494 38.9162C97.6324 38.7451 97.6156 38.5738 97.5993 38.4023C97.5258 37.0897 97.4882 35.7747 97.4607 34.4424C97.4418 33.1151 97.3633 31.8112 97.1148 30.5015C96.9383 29.6317 96.6914 28.7765 96.4451 27.9235C96.3728 27.6734 96.3007 27.4234 96.2304 27.1734C95.5059 24.6882 94.8534 22.1984 94.3102 19.6793C94.2111 19.0909 94.1156 18.5162 94.0252 17.9328C93.9671 17.5827 93.931 17.224 93.8953 16.8674L93.8948 16.8624C93.8842 16.7568 93.8735 16.651 93.8624 16.5461C93.8552 16.478 93.8477 16.4102 93.8398 16.3425L93.8288 16.25L93.8209 16.1867C93.7905 15.9093 93.7623 15.6332 93.7341 15.3572L93.7337 15.3537C93.7056 15.0787 93.6775 14.8038 93.6472 14.5276C93.521 13.3462 93.3385 11.9822 92.5203 11.0595C92.4205 10.9476 92.3125 10.8455 92.1981 10.7541C92.3997 10.2328 92.3277 9.68858 92.1331 9.1501C91.9653 8.66065 91.5826 8.24341 91.1596 7.97608C90.6118 7.62512 89.9144 7.67286 89.376 7.98551C89.1236 7.87436 88.8737 7.75886 88.6238 7.64337L88.6215 7.64229C88.3708 7.52644 88.1201 7.41057 87.867 7.29907C87.1278 6.9752 86.3846 6.6582 85.6348 6.33838L85.3601 6.22122C84.8209 5.9952 84.2763 5.77557 83.7309 5.55562C82.8002 5.18024 81.867 4.8039 80.9538 4.39313C80.485 4.14229 80.0228 3.88013 79.5606 3.61797C79.2139 3.42132 78.8671 3.22466 78.5176 3.03278L78.4181 2.97799C78.0433 2.77141 77.6445 2.55156 77.2315 2.44038C76.8698 2.34699 76.5026 2.34287 76.1338 2.44169C75.7699 2.53186 75.4787 2.75632 75.1875 2.98076C74.4407 3.55421 73.7003 4.09667 72.9252 4.61911C72.1128 5.16622 71.372 5.7893 70.6472 6.4447C70.5141 6.55898 70.3806 6.67254 70.2469 6.78561C70.1538 6.86432 70.0606 6.9428 69.9674 7.02112C69.7987 7.16287 69.6297 7.30408 69.4608 7.44525L69.453 7.45176C68.9649 7.85968 68.4773 8.26714 67.997 8.6854C67.9994 8.6844 68.0018 8.68355 68.004 8.68296C67.2196 9.36168 66.3981 9.98436 65.547 10.5784C65.0311 10.9427 64.5416 11.3406 64.0514 11.7391C63.7637 11.973 63.4758 12.207 63.1821 12.4346C62.8303 12.7072 62.472 12.9714 62.1133 13.2358L62.1072 13.2406L62.1032 13.2435C61.6555 13.5737 61.2072 13.9044 60.7702 14.2522C60.672 14.3303 60.574 14.4088 60.4758 14.4873L60.4747 14.4882L60.4736 14.489L60.4715 14.4905L60.4663 14.4947C60.3352 14.5995 60.2038 14.7045 60.0718 14.809C60.0121 14.4629 59.9488 14.1173 59.8805 13.7732C59.7458 13.1065 59.606 12.4485 59.444 11.7891C59.4236 11.7061 59.4035 11.6226 59.3833 11.5388L59.3825 11.5358L59.3823 11.5348L59.3427 11.371L59.3282 11.3116C59.3135 11.2517 59.2987 11.1918 59.2835 11.1321C59.2529 11.012 59.221 10.8925 59.1868 10.7746C58.9978 10.042 58.7929 9.27702 58.3317 8.67586C57.9975 8.23263 57.4744 7.98485 56.9342 7.97816C56.7966 7.90632 56.6544 7.83935 56.5084 7.77057L56.4827 7.75844C55.9363 7.476 55.4027 7.17143 54.8691 6.8669C54.6558 6.74516 54.4424 6.62341 54.2283 6.50308C53.3746 6.02174 52.5123 5.5354 51.6635 5.04538L51.6591 5.04286C50.6597 4.47737 49.6602 3.91186 48.6657 3.3377C48.3022 3.1278 47.9338 2.92616 47.5574 2.72007L47.5299 2.70503C47.3942 2.63133 47.2587 2.55493 47.1226 2.47822C46.7815 2.28591 46.4372 2.09185 46.0796 1.93415C46.1345 1.26436 45.8289 0.561089 45.209 0.244991ZM60.7362 18.7061C61.0631 18.5063 61.3762 18.2847 61.6819 18.0528C61.8178 18.4355 62.0826 18.7742 62.4571 18.9904C62.8248 19.2028 63.1874 19.433 63.546 19.6609C63.7195 19.7711 63.8921 19.8807 64.0639 19.9874C64.3112 20.1456 64.5675 20.2884 64.8238 20.4313C64.9519 20.5027 65.08 20.5741 65.207 20.6474C65.3025 20.7025 65.3976 20.7582 65.4926 20.8137L65.4936 20.8143L65.6442 20.9023L65.712 20.9418L65.7895 20.9866C65.9745 21.0933 66.1597 21.1972 66.3465 21.2938C67.871 22.0767 69.3923 22.8477 70.9327 23.6008L70.6967 23.7591C70.1941 24.0964 69.7002 24.4449 69.2078 24.7956C69.0823 24.6488 68.9287 24.5251 68.7475 24.4351C67.5124 23.8144 66.2859 23.1987 65.0545 22.5916C64.8063 22.4672 64.5582 22.3437 64.3102 22.2203C63.3412 21.738 62.3755 21.2575 61.4297 20.7298C61.3724 20.6975 61.3138 20.6687 61.2544 20.6433C61.1174 20.1506 60.9811 19.6567 60.8476 19.1582C60.8074 19.0083 60.7707 18.8574 60.7362 18.7061ZM62.2645 25.15C62.4177 25.2264 62.5709 25.3025 62.7239 25.3786L63.1409 25.586C63.7822 25.9043 64.4221 26.2248 65.0621 26.5452L65.8988 26.964C65.3274 27.3075 64.752 27.6464 64.1709 27.982C64.0643 28.0447 63.957 28.1085 63.8489 28.1728C63.7255 28.2463 63.6009 28.3204 63.4752 28.3942C63.4041 28.4359 63.3326 28.4775 63.2606 28.5188C63.232 28.2482 63.1811 27.9763 63.1129 27.6945C63.0655 27.5001 62.9895 27.3076 62.9141 27.1164C62.8696 27.0035 62.8252 26.891 62.787 26.7789L62.7717 26.7341L62.7565 26.689L62.7381 26.6344L62.7374 26.6323C62.69 26.4908 62.6419 26.3476 62.5837 26.2111C62.4693 25.8595 62.3615 25.5062 62.2645 25.15ZM64.8656 15.6123C64.6942 15.7407 64.5219 15.8685 64.3494 15.9962C64.6417 16.1691 64.9251 16.3509 65.2076 16.5321L65.2086 16.5327C65.3676 16.6347 65.5268 16.7368 65.6866 16.8367C66.1396 17.1126 66.6025 17.3718 67.0674 17.6321C67.3476 17.789 67.6286 17.9463 67.9087 18.108C68.8856 18.663 69.8964 19.1591 70.9072 19.6552L71.3189 19.8574L71.5488 19.9708L71.7339 20.0625L71.6993 20.0425C71.859 20.121 72.0189 20.1992 72.1788 20.2774C72.8294 20.5956 73.4817 20.9146 74.1262 21.2589C74.1489 21.2708 74.1713 21.2832 74.1932 21.2962L74.284 21.2266C74.4375 21.109 74.5905 20.991 74.7435 20.8731L74.7457 20.8715L74.7481 20.8695C75.3336 20.4183 75.9177 19.9681 76.5196 19.5417C76.3198 19.4269 76.1187 19.3214 75.9152 19.2203L75.9065 19.2153C75.8815 19.2009 75.8534 19.1873 75.8241 19.1731L75.7915 19.1573L75.3594 18.9531C73.9787 18.3009 72.5972 17.6484 71.2405 16.9371C70.6449 16.6291 70.0653 16.2815 69.4886 15.9355C69.3247 15.8372 69.1612 15.7391 68.9975 15.6421C68.28 15.2047 67.5875 14.7241 66.9188 14.2225L66.8913 14.2015L66.8763 14.1898C66.8582 14.1755 66.8405 14.161 66.823 14.1462C66.809 14.1343 66.7952 14.1223 66.7817 14.1101L66.7596 14.0901C66.6924 14.1418 66.6255 14.1937 66.559 14.2457C66.3557 14.4057 66.1593 14.5722 65.9637 14.7381C65.752 14.9175 65.5414 15.0962 65.324 15.2648C65.1722 15.3814 65.0192 15.4971 64.8656 15.6123ZM79.6113 17.4766L79.6087 17.4733C79.6225 17.4653 79.6363 17.4577 79.6503 17.4508L79.6113 17.4766ZM79.6049 17.4683C79.5226 17.3637 79.428 17.2668 79.3216 17.1802C78.5235 16.5249 77.5818 16.0897 76.6437 15.6561C76.4677 15.5748 76.2918 15.4935 76.117 15.4108C75.8096 15.2623 75.4989 15.1147 75.1882 14.967L74.9567 14.857C74.8063 14.7855 74.6561 14.7139 74.5065 14.6422L74.3973 14.5898L74.2616 14.5244C74.12 14.453 73.9782 14.3828 73.8368 14.3128C73.3529 14.0731 72.8718 13.8348 72.4066 13.5573C72.1779 13.4187 71.9483 13.2814 71.7189 13.1443L71.7173 13.1433C71.141 12.7988 70.566 12.4551 70.0081 12.0917C69.9762 12.0685 69.9441 12.0457 69.9118 12.0231C69.8659 11.9909 69.8197 11.9591 69.7736 11.9274L69.6942 11.8727C70.0319 11.5919 70.3655 11.3049 70.7001 11.0132C70.6969 11.0188 70.6932 11.0229 70.6897 11.0263C70.6868 11.029 70.6839 11.0312 70.6812 11.0333C70.677 11.0365 70.6735 11.0392 70.6714 11.0428C70.8766 10.8672 71.0843 10.6929 71.293 10.5193C72.8606 11.5084 74.5513 12.3066 76.2264 13.0975C76.4177 13.1878 76.6088 13.2781 76.7996 13.3685C77.4432 13.6794 78.0953 13.9758 78.7474 14.2721C78.9643 14.3707 79.1812 14.4692 79.3978 14.5683C79.5701 14.6471 79.7418 14.7231 79.9133 14.7988L80.1789 14.9162C80.3008 14.9702 80.4229 15.0248 80.5453 15.0808C80.6253 15.1166 80.7056 15.1533 80.7863 15.1901C81.2161 15.3868 81.6557 15.5877 82.1188 15.6763C81.2979 16.2951 80.4608 16.891 79.6049 17.4683ZM75.5194 7.13857C75.0593 7.45418 74.6029 7.76713 74.1587 8.09708C74.8093 8.45602 75.4706 8.79192 76.1348 9.12927L76.4877 9.30865C76.8693 9.48852 77.2514 9.67005 77.6341 9.85194C78.344 10.1892 79.0562 10.5277 79.7727 10.8588C80.0048 10.9654 80.2369 11.074 80.4696 11.1828C81.2164 11.5319 81.9687 11.8837 82.74 12.1794L82.766 12.1944C83.0312 12.2551 83.2936 12.3605 83.5024 12.5388C83.9891 12.9601 84.2558 13.5653 84.1746 14.1823C84.6209 13.8822 85.072 13.5906 85.5221 13.3007C86.3668 12.7376 87.2042 12.1472 88.0242 11.5468L88.1125 11.4819L88.2089 11.4114L88.2804 11.3595C88.2106 11.3266 88.1413 11.2943 88.0727 11.2629L87.2465 10.8901C86.8721 10.72 86.4976 10.5499 86.118 10.3885C85.0442 9.91654 83.9619 9.47412 82.8781 9.03108L82.8769 9.0306C82.1856 8.74803 81.4937 8.46521 80.803 8.17431C79.9376 7.81324 79.0922 7.41754 78.2695 6.94253L77.9751 6.77273L77.7738 6.6571C77.5314 6.5183 77.2883 6.38074 77.0434 6.2462L76.8789 6.1512C76.4843 6.45457 76.0861 6.74428 75.6792 7.02898L75.5194 7.13857ZM53.2623 62.1562C53.6618 62.4361 54.0639 62.7258 54.4634 63.0224L54.5541 62.5787C54.5411 62.6242 54.5326 62.6686 54.5244 62.7114C54.5183 62.7432 54.5123 62.7742 54.5048 62.8043C54.5683 62.4759 54.6206 62.1444 54.673 61.8124C54.7598 61.2623 54.8468 60.7112 54.9853 60.1719C55.041 59.9494 55.0977 59.7286 55.1542 59.5085C55.295 58.96 55.4345 58.4165 55.5538 57.8673C55.6571 57.278 55.6999 56.6815 55.7426 56.0878L55.7433 56.0844L55.7586 55.8725C55.778 55.344 55.7781 54.8207 55.7782 54.2951C55.7782 54.056 55.7782 53.8163 55.78 53.5755C55.7886 52.9112 55.8159 52.2509 55.8433 51.589L55.8434 51.5878L55.8435 51.585L55.8439 51.5751L55.8449 51.5588L55.8671 51.0046C55.9034 50.1017 55.9037 49.2012 55.8903 48.3044C55.888 48.1803 55.8852 48.055 55.8824 47.9288C55.8577 46.8329 55.8316 45.6703 56.151 44.6328C56.2794 44.2104 56.4238 43.8203 56.6697 43.4543C56.9644 43.024 57.3207 42.687 57.7622 42.4223C58.4313 42.0234 59.121 41.7288 59.9082 41.8253C60.5053 41.9007 61.0993 41.9972 61.6938 42.0939L62.0537 42.1522L62.2151 42.1781C62.3901 42.206 62.5651 42.2333 62.7404 42.2596C64.3914 42.52 66.0464 42.7134 67.7128 42.8672C68.3927 42.8958 69.0701 42.8992 69.7471 42.9026C70.3162 42.9054 70.885 42.9082 71.4547 42.926C71.867 42.9399 72.2789 42.9526 72.6904 42.9652C73.6356 42.9941 74.5787 43.023 75.5187 43.0669C77.2178 43.1502 78.9049 43.3545 80.5928 43.5589L80.596 43.5593L80.5972 43.5594L80.5984 43.5595L80.6035 43.5602C81.7344 43.6971 82.8657 43.834 84.0014 43.9345C83.9581 43.9373 83.9134 43.9352 83.8671 43.9329C83.8365 43.9314 83.8053 43.9299 83.7732 43.9298C85.4349 44.0116 87.0907 44.0438 88.7541 44.0226C89.1374 44.0188 89.521 44.0093 89.9047 43.9999L89.9074 43.9998C90.0866 43.9954 90.2658 43.991 90.445 43.9871C90.5736 43.9844 90.7022 43.9819 90.8308 43.9799C90.9056 43.9788 90.9804 43.9778 91.0552 43.9771C91.191 43.976 91.327 43.9758 91.463 43.9762C91.5606 43.9765 91.6583 43.977 91.7561 43.9778L92.0429 43.9801C92.7015 43.9858 93.3602 43.9915 94.0135 43.953L94.3114 43.9171C94.3308 43.8003 94.3484 43.6824 94.3636 43.5644C94.3814 43.4269 94.396 43.289 94.4066 43.1523C94.412 42.7628 94.4075 42.3907 94.3856 42.0085C94.3595 41.7351 94.3322 41.4617 94.3043 41.1884L94.2578 40.7335C94.1533 39.7171 94.0489 38.7002 93.9869 37.6792C93.9405 36.8511 93.9278 36.0194 93.915 35.1877L93.9148 35.18C93.9021 34.3483 93.8893 33.5167 93.8429 32.6886C93.7945 32.1525 93.7186 31.6238 93.6155 31.1024C93.3528 29.9527 93.0172 28.8153 92.6823 27.6804L92.6818 27.679L92.6808 27.675L92.6805 27.6741L92.6801 27.6726L92.6798 27.6716L92.6794 27.6701L92.6786 27.6671C92.5266 27.1522 92.3747 26.6373 92.2299 26.1223C91.8745 24.8779 91.5291 23.6162 91.2507 22.3585C91.1963 22.0944 91.1361 21.8319 91.076 21.5693L91.0752 21.5652C90.9746 21.1256 90.8739 20.6859 90.7999 20.2392C90.7646 20.025 90.7258 19.8101 90.687 19.5947L90.6862 19.5902C90.6096 19.1654 90.5325 18.7387 90.4811 18.3115C90.4366 17.9061 90.3962 17.4997 90.3558 17.093C90.2672 16.2012 90.1784 15.3084 90.0469 14.4235C89.5877 14.7588 89.1285 15.0941 88.6656 15.4158C87.8942 15.9519 87.1069 16.4558 86.3195 16.9596C85.735 17.3592 85.1745 17.7822 84.6117 18.2072L84.6103 18.2081L84.6022 18.2142C84.4667 18.3164 84.3312 18.4188 84.1951 18.5209C84.0138 18.6569 83.8317 18.7926 83.6477 18.9273C82.699 19.6293 81.722 20.274 80.7392 20.9226L80.5547 21.0444C80.6193 21.0125 80.6803 20.9669 80.75 20.9262C79.3828 21.8343 78.0366 22.766 76.7396 23.7724C76.0251 24.3298 75.3071 24.8736 74.563 25.4024C74.2464 25.6282 73.9222 25.8401 73.5991 26.0513C73.301 26.2462 73.0038 26.4405 72.7143 26.6445C72.5531 26.7573 72.3923 26.8707 72.2318 26.9842C72.0713 27.0978 71.911 27.2117 71.7508 27.3255C70.6062 28.1382 69.4638 28.9493 68.2591 29.661C68.074 29.7716 67.8887 29.8818 67.7033 29.9918C67.4065 30.1679 67.1094 30.3436 66.8124 30.5193C65.8458 31.0907 64.8792 31.6622 63.9237 32.2502L63.8579 32.2954L63.7822 32.347C63.6399 32.444 63.5001 32.5392 63.3625 32.6421C63.2069 32.7717 63.0463 32.9099 62.8733 33.0294C62.2512 33.467 61.34 33.6453 60.6635 33.197C60.0044 32.7587 59.6624 32.1109 59.661 31.3134C59.6695 31.0826 59.6873 30.8572 59.7051 30.6319L59.7161 30.4916C59.7199 30.4429 59.7236 30.3941 59.7271 30.3453L59.7331 30.2573L59.738 30.18C59.7466 30.185 59.7417 30.1937 59.7417 30.1937C59.7434 30.1907 59.7435 30.1882 59.7431 30.1858C59.7423 30.1812 59.7397 30.1771 59.743 30.1714C59.7418 30.1534 59.7432 30.1312 59.7452 30.1079L59.7473 30.0833L59.7477 30.0797L59.7478 30.078C59.749 30.0642 59.7503 30.0505 59.751 30.0374C59.7504 30.0284 59.7504 30.0198 59.7507 30.0113L59.7515 29.9944L59.7519 29.986C59.7525 29.977 59.753 29.9679 59.7532 29.9587L59.7532 29.9495C59.7532 29.9446 59.753 29.9396 59.7527 29.9345C59.7601 29.6617 59.7639 29.3752 59.749 29.101C59.7384 28.9794 59.7278 28.8578 59.7035 28.7398L59.6706 28.6169L59.5846 28.3889C59.3055 27.6497 59.0194 26.8922 58.8295 26.1336C58.6726 25.4732 58.5518 24.8065 58.4309 24.1386L58.4297 24.1321C58.3746 23.8277 58.3194 23.5231 58.2607 23.2187C58.1388 22.744 58.005 22.2715 57.8713 21.7988L57.8707 21.7968C57.6341 20.9607 57.3973 20.1236 57.2252 19.2723C57.004 18.1789 56.8313 17.0808 56.6589 15.9847C56.6313 15.8091 56.6037 15.6335 56.5759 15.4581C56.5475 15.2791 56.519 15.1002 56.49 14.9215C56.49 14.9215 56.4875 14.919 56.4869 14.9169C56.4862 14.9148 56.4862 14.9122 56.488 14.9091L56.49 14.9215L56.4917 14.9228C56.2994 13.9507 56.1047 12.9831 55.8556 12.0283C55.5829 12.1876 55.3079 12.3442 55.0335 12.5005L54.9938 12.5231L54.743 12.6661C54.6291 12.7313 54.5154 12.7965 54.4022 12.8619C53.6473 13.2908 52.8874 13.7283 52.1275 14.1658L52.124 14.1678C51.1163 14.7378 50.1225 15.3435 49.1325 15.9469L49.1315 15.9476L49.1298 15.9487C48.8404 16.1251 48.5514 16.3013 48.2624 16.4763L45.0375 18.702C44.7042 18.9329 44.3926 19.1968 44.0811 19.4608L44.0802 19.4617C43.9247 19.5935 43.7692 19.7253 43.6109 19.8529C43.4379 19.9899 43.2653 20.1286 43.0927 20.2682L42.8926 20.4302L42.5091 20.7413C42.3871 20.84 42.2649 20.9387 42.142 21.0371C41.2243 21.8467 40.3202 22.6527 39.4111 23.4672C39.3258 23.5435 39.2407 23.62 39.1556 23.6965C39.0348 23.8051 38.9141 23.9139 38.7935 24.0227L38.7907 24.0252C37.9959 24.7415 37.2002 25.4586 36.3703 26.1341C36.2255 26.2543 36.0809 26.3751 35.9362 26.496C35.3265 27.0051 34.7146 27.516 34.0809 27.9993C33.8727 28.1581 33.6641 28.3176 33.4551 28.4774L33.3826 28.5329C33.0836 28.7615 32.7837 28.9908 32.4827 29.22C32.226 29.4155 31.9685 29.611 31.71 29.8059C30.1282 31.0058 28.5587 32.2242 27.0311 33.49C26.7193 33.7452 26.4145 34.0093 26.1094 34.2736L26.1074 34.2752C25.7493 34.5855 25.391 34.896 25.0203 35.1928C24.2772 35.7799 23.5218 36.3483 22.749 36.9068C21.985 37.4702 21.2173 38.02 20.4408 38.5648C19.8745 38.9659 19.2964 39.3663 18.7002 39.7315C19.0329 39.8918 19.3629 40.0573 19.692 40.2225C19.8892 40.3214 20.0862 40.4202 20.2832 40.5177C21.9021 41.3137 23.4846 42.1927 25.0535 43.0754C26.8561 44.0931 28.6724 45.1071 30.4938 46.1125C32.1159 47.0029 33.723 47.9192 35.3002 48.8875C36.912 49.8758 38.4488 50.994 39.9769 52.1072C40.732 52.6586 41.4766 53.2183 42.2212 53.7781C42.9663 54.3382 43.7114 54.8983 44.467 55.4501C44.9773 55.825 45.4934 56.1922 46.0095 56.5592C46.9778 57.2479 47.9458 57.9365 48.8746 58.6761C49.3352 59.0439 49.7883 59.4188 50.241 59.7934C51.2253 60.6078 52.2078 61.4209 53.2623 62.1562ZM15.1953 37.7302C15.2976 37.7916 15.3997 37.8548 15.502 37.9189C15.6443 37.5624 15.8993 37.2518 16.2526 37.059C16.6878 36.8252 17.0983 36.5541 17.5088 36.2831C18.1625 35.8396 18.8118 35.3845 19.4573 34.9232C19.0489 34.6821 18.6352 34.4653 18.2174 34.2558C17.9043 34.0981 17.5917 33.9394 17.2791 33.7807C16.6541 33.4635 16.0289 33.1462 15.3994 32.8366C14.7282 32.4992 14.0537 32.1675 13.3792 31.8358C12.0302 31.1724 10.6811 30.509 9.35875 29.7994C9.31047 29.7831 9.25849 29.7531 9.2152 29.7281L9.11995 29.6731C8.67251 29.4148 8.38174 28.9815 8.28022 28.5073C7.15306 29.3822 6.04563 30.2814 4.9641 31.2112C4.99276 31.1816 5.01637 31.1606 5.04505 31.1309C4.9554 31.2104 4.86525 31.2879 4.77495 31.365L4.68926 31.438C4.56974 31.5398 4.45018 31.6415 4.33159 31.7467C4.78249 31.9896 5.23698 32.215 5.69021 32.4398L5.69284 32.4411L5.69841 32.4439L5.70383 32.4466L5.94219 32.5648L6.13597 32.6614C6.23552 32.7137 6.33534 32.7656 6.43529 32.8172C6.55804 32.8806 6.681 32.9436 6.80397 33.0066C7.0264 33.1206 7.24883 33.2346 7.47001 33.3508C7.63047 33.435 7.79081 33.5188 7.95106 33.6026C8.87961 34.088 9.80355 34.5711 10.712 35.0956C11.7339 35.6856 12.7558 36.2756 13.7677 36.8829C14.244 37.1579 14.724 37.4466 15.1953 37.7302ZM10.8409 26.582C10.8573 26.5902 10.8737 26.5986 10.89 26.6074C12.3293 27.3899 13.8029 28.113 15.2766 28.8361C15.9084 29.1462 16.5403 29.4562 17.1694 29.7709C18.1657 30.2653 19.1484 30.7634 20.1396 31.2664C20.7824 31.5901 21.3948 31.9665 22.0071 32.3429C22.1823 32.4506 22.3574 32.5582 22.5333 32.6647C23.2975 32.0655 24.0351 31.4303 24.7722 30.7955C24.9404 30.6507 25.1086 30.5058 25.2771 30.3615L24.3761 29.7286C22.1901 28.3093 19.924 27.0288 17.6542 25.7461C16.924 25.3335 16.1934 24.9207 15.4651 24.503C15.1466 24.4346 14.8472 24.2733 14.6164 24.013C14.6004 23.9927 14.5844 23.973 14.5685 23.9536C13.3136 24.8122 12.0686 25.6859 10.8409 26.582ZM29.0953 27.3398C28.7798 27.5767 28.4638 27.8139 28.149 28.0526C27.287 27.4432 26.4279 26.8408 25.5425 26.2682C24.7468 25.7442 23.92 25.2613 23.0965 24.7803L23.0956 24.7797C22.8891 24.6591 22.6828 24.5387 22.4772 24.4176C21.4207 23.8077 20.3641 23.1976 19.3025 22.5963C19.0773 22.4663 18.8518 22.3419 18.6264 22.2175C18.4009 22.0931 18.1754 21.9686 17.9502 21.8386C17.9106 21.8164 17.8708 21.7936 17.8309 21.7704C18.0065 21.6591 18.1821 21.5476 18.3576 21.4359C18.5553 21.31 18.753 21.1841 18.9506 21.0581L18.9828 21.0375L19.0169 21.0158L19.0287 21.0086C19.3147 20.8263 19.6006 20.6439 19.8869 20.462C19.8985 20.4691 19.9103 20.4761 19.9222 20.483L19.9309 20.488C21.3766 21.3227 22.8538 22.0832 24.3308 22.8437L24.3323 22.8444C24.5181 22.9391 24.7044 23.0335 24.8909 23.1277C25.0664 23.2162 25.2421 23.3047 25.4179 23.3931L25.4388 23.4036C26.793 24.0849 28.1536 24.7694 29.448 25.5439C30.2744 26.0326 31.3908 25.7188 31.8658 24.8961C32.3595 24.061 32.0617 22.9768 31.2266 22.4832C29.9272 21.7057 28.5722 21.0242 27.2216 20.3449L27.2101 20.3391C27.0061 20.2365 26.8022 20.1339 26.5985 20.031C26.4358 19.9488 26.2732 19.8664 26.111 19.7837C25.1759 19.309 24.2448 18.8275 23.3237 18.3285C24.2077 17.7872 25.0942 17.2455 25.981 16.7048C26.0169 16.7237 26.0535 16.7416 26.091 16.7584C26.5739 16.9713 27.0734 17.1488 27.5734 17.3265C27.9502 17.4604 28.3272 17.5943 28.6976 17.7437C29.7338 18.1688 30.7565 18.5975 31.7728 19.0572C32.2518 19.2876 32.7171 19.5216 33.1811 19.7779C33.6364 20.0293 34.0718 20.3153 34.4934 20.6049C34.5755 20.6592 34.6578 20.713 34.7401 20.7669L34.7422 20.7683C35.078 20.988 35.4126 21.2071 35.7288 21.4452C35.8236 21.5575 35.9316 21.6544 36.049 21.7357L35.8715 21.8926C35.7809 21.9725 35.6902 22.0523 35.5996 22.1319L35.456 22.2576C35.2942 22.4061 35.1294 22.5529 34.9662 22.6981L34.8291 22.8201C34.766 22.8764 34.7034 22.9324 34.6415 22.9883C34.4529 23.1413 34.2649 23.2945 34.0771 23.4478L33.6588 23.7896L33.6536 23.7939C33.2053 24.1604 32.7583 24.5259 32.3099 24.8869C31.8488 25.2604 31.3718 25.6199 30.896 25.9785L30.6743 26.1457L30.5141 26.2668L30.434 26.3277C30.3262 26.4095 30.2188 26.4915 30.112 26.5739C29.7785 26.827 29.4429 27.0789 29.1069 27.3311L29.1028 27.3343L29.1018 27.335L29.0953 27.3398ZM17.8242 21.7665L17.8262 21.7677C17.8544 21.7491 17.8823 21.7304 17.9086 21.7107L17.8242 21.7665ZM38.4886 19.205C38.5063 19.2294 38.5233 19.2542 38.5396 19.2792C38.57 19.3258 38.598 19.3734 38.6237 19.4217C39.0536 19.0287 39.4875 18.6405 39.9378 18.275L40.1355 18.1141C39.2785 17.6555 38.4157 17.2146 37.5519 16.7733C37.0197 16.5013 36.4871 16.2292 35.9555 15.9526C35.6069 15.7691 35.2592 15.5891 34.9127 15.4097L34.9096 15.4081L34.9033 15.4048L34.8971 15.4016C34.677 15.2877 34.4574 15.174 34.2382 15.0597C34.1328 15.0047 34.0274 14.9496 33.9222 14.8942L32.6105 14.2062C32.5454 14.1716 32.4803 14.1379 32.4154 14.1042C32.0285 13.9037 31.6511 13.708 31.3497 13.383C30.8375 13.7132 30.3225 14.0391 29.8058 14.3619C29.8847 14.3924 29.9634 14.4234 30.0418 14.4552C31.1004 14.8817 32.1404 15.3204 33.1827 15.7952C34.0987 16.2086 34.9934 16.6789 35.8294 17.2309L35.8988 17.2764C36.3118 17.5478 36.7316 17.8235 37.1391 18.1025C37.2316 18.1673 37.3266 18.2309 37.4223 18.2949C37.8111 18.5549 38.2096 18.8215 38.4886 19.205ZM34.553 11.2215C35.4491 10.5841 36.3291 9.92543 37.1872 9.23909C37.3708 9.09303 37.5542 8.94739 37.7374 8.80193L37.8024 8.7503C40.2691 10.1575 42.822 11.3975 45.3796 12.6295L45.5824 12.7291C45.9571 12.9129 46.3319 13.0968 46.7007 13.2909C46.1557 13.6239 45.6342 13.9884 45.1132 14.3525L45.1109 14.3544L45.0964 14.3645L45.0847 14.3727C44.9329 14.4788 44.7811 14.5849 44.6287 14.6901C44.5918 14.7159 44.5548 14.7415 44.5179 14.7671L44.4173 14.8366L44.3292 14.8971C44.2378 14.9598 44.1462 15.0221 44.0547 15.0844L44.0338 15.0986L44.0317 15.1001L44.0263 15.1039L44.0253 15.1046C43.5921 15.3997 43.16 15.694 42.7443 16.0131C42.6127 15.6203 42.3477 15.2744 41.9627 15.0677C40.8616 14.4782 39.7477 13.9108 38.6337 13.3435C38.3557 13.2019 38.0776 13.0602 37.7997 12.9182C37.2434 12.6319 36.6882 12.3397 36.1321 12.0471L36.1305 12.0463C35.6063 11.7705 35.0805 11.4938 34.553 11.2215ZM50.0172 11.2856C50.6715 10.8944 51.3301 10.5196 51.9887 10.1448L52.2257 10.0099C52.3928 9.91476 52.5598 9.81947 52.7268 9.7238C51.9077 9.26245 51.08 8.79612 50.2659 8.32612C49.7815 8.04946 49.2982 7.76948 48.8148 7.48944C47.461 6.70516 46.1063 5.9203 44.723 5.20674C44.5235 5.17237 44.3303 5.10703 44.1484 5.00201C43.8427 4.8255 43.6095 4.58088 43.454 4.29275C42.535 4.95018 41.6536 5.65171 40.7777 6.35997C41.6598 6.84448 42.5495 7.31329 43.4489 7.77357L46.4528 9.23074C46.6091 9.30707 46.7662 9.38302 46.9235 9.45908L46.9286 9.46156C47.8123 9.88884 48.705 10.3205 49.5278 10.8445C49.7188 10.9656 49.8835 11.1157 50.0172 11.2856Z" fill="black"/>
<path d="M67.997 8.6854C67.9899 8.68843 67.9822 8.69329 67.9753 8.6996C67.97 8.70438 67.9653 8.70998 67.9616 8.71625L67.997 8.6854Z" fill="black"/>
</svg>
