<svg width="62" height="61" viewBox="0 0 62 61" fill="none" xmlns="http://www.w3.org/2000/svg">
<path d="M0.00147781 12.6271C-0.0105162 12.3445 0.0543361 11.9456 0.0577524 11.6122C0.0727493 10.2156 0.117705 9.69805 0.143202 8.43443C0.181074 6.5608 0.0958364 1.00013 0.546387 1C0.546398 1 0.54641 1 0.546421 1C0.550838 1.00001 0.555307 1.00053 0.559829 1.00162C0.645663 1.02111 0.739367 1.49407 0.836441 1.56426C0.933551 1.63432 1.56048 1.58178 1.59572 2.25354C1.64217 3.22752 1.48142 5.564 1.48854 6.08346C1.49345 6.43861 1.55044 6.87583 1.56056 7.32995C1.59318 8.79415 1.5515 9.5603 1.70632 10.8795C1.62473 11.4071 1.54315 11.9348 1.46156 12.4625C1.49939 13.1509 1.3918 14.1943 1.39772 14.6126C1.4026 14.9557 1.46711 15.1568 1.47011 15.5145C1.47384 15.9156 1.4042 16.5316 1.41469 17.2612C1.43156 18.4573 1.59986 18.6701 1.62123 19.3878C1.64335 20.132 1.55188 21.2894 1.6111 22.239C1.62961 22.3581 1.64813 22.4772 1.66664 22.5963C1.70851 22.511 1.75038 22.4256 1.79225 22.3403C1.81174 22.8186 1.72594 23.0243 1.72438 23.4638C1.72251 23.9809 1.80386 24.2447 1.80348 24.5927C1.80311 24.8777 1.73787 25.2642 1.74196 25.6338C1.74758 26.1727 1.84177 26.0548 1.85939 26.3448C1.86624 26.4605 1.91821 28.5995 1.91896 28.7202C1.92268 29.638 1.79376 29.7179 1.78249 30.4497C1.75174 32.4795 1.85591 34.5631 1.89528 36.4407C1.91289 37.279 1.9054 38.1538 1.88478 38.9897C1.55485 37.6731 1.29807 40.5869 1.81435 39.4972C1.7409 40.4273 1.88027 41.0867 1.85671 41.9685C1.84133 42.5387 1.76975 42.9334 1.77162 43.7477C1.77541 45.1926 1.97889 46.7731 1.6111 47.1887C1.67594 48.8849 1.54253 50.354 1.8672 50.9653C1.88704 51.4027 1.69365 52.5236 1.66738 53.0141C1.64263 53.4781 1.55531 57.0378 1.55043 57.6202C1.54601 58.1485 1.54124 59.0364 1.56166 59.5629L1 59.0013C1.05387 58.9992 1.10395 58.9968 1.14948 58.9942C1.76566 58.9589 2.19626 58.6222 3.2933 59.0159C4.56885 58.9841 5.02329 58.9953 6.20962 59.0411C6.42441 59.0493 6.4487 59.1078 6.57416 59.1078C6.83264 59.1078 7.27241 59.0646 7.73381 59.0594C8.49255 59.0508 8.92558 59.1737 8.84099 58.9859C9.34123 58.9544 9.84144 58.9229 10.3417 58.8914C10.5172 58.9277 10.6926 58.9639 10.8681 59.0002C11.1356 58.9607 11.403 58.9212 11.6705 58.8816C11.3564 59.1535 13.2387 58.9931 12.6275 58.8371C13.5972 58.8933 14.5669 58.9496 15.5366 59.0058C15.4013 59.3147 17.6657 59.0414 17.4751 58.8735C17.586 58.8737 17.697 58.874 17.808 58.8742C18.7793 58.9563 19.6714 58.8891 20.8554 58.9443C22.0394 58.9994 21.9282 59.0295 22.2883 59.1716C22.5669 59.1634 22.8455 59.1553 23.1241 59.1471C24.586 58.7576 24.3276 59.4321 26.831 59.1332C27.6308 59.3781 29.6024 59.2495 30.9097 59.1752C31.0618 59.1666 31.0644 59.1191 31.267 59.1044C31.7623 59.0692 33.0262 59.1303 32.9829 58.977C33.4204 59.0213 33.858 59.0657 34.2955 59.11C34.6531 59.0822 35.0107 59.0543 35.3683 59.0264C35.3665 58.9786 35.3647 58.9307 35.3628 58.8829C36.0829 59.046 37.2144 58.9833 37.7726 59.0223C37.8837 59.0302 37.9077 59.0962 38.2529 59.1142C38.6565 59.1356 39.4084 59.116 39.8893 59.1366C40.0762 59.0635 40.2632 58.9904 40.4501 58.9173C41.31 58.8776 41.6123 59.0706 42.1172 59.0856C42.2082 59.0882 43.8668 59.0744 43.9562 59.0702C44.6879 59.0376 44.4806 58.8732 46.5966 58.9084C46.9735 58.9147 47.2782 58.9716 47.6188 58.9739C48.2205 58.9781 50.0334 58.849 50.176 58.7298C50.9057 58.879 52.8582 58.818 53.4333 58.8611C53.6069 58.8744 53.6461 58.9694 54.1796 58.9897C54.6121 59.0062 55.726 58.9301 56.2746 58.9428C56.8569 58.9567 57.0648 59.0365 57.3257 59.0422C57.5722 59.0474 57.7994 58.983 58.1353 58.9833C59.1838 58.9856 60.1333 59.0893 60.962 59.0912C60.9747 59.0913 60.9874 59.0913 61 59.0913L60.5283 59.5629C60.5273 58.38 60.3396 57.333 60.2557 56.3409C60.2681 56.092 60.3091 55.8474 60.3094 55.5864C60.3154 52.3582 60.3506 48.7167 60.3915 45.4788C60.4102 43.9757 60.6693 40.2379 60.237 41.2355C60.1613 40.7132 60.3356 36.915 60.3382 36.1926C60.3408 35.4703 60.2633 34.8978 60.2622 34.3301C60.2588 32.6169 60.3147 31.4105 60.2472 29.3251C60.2295 28.7865 60.1377 28.2094 60.1388 27.8905C60.1403 27.5063 60.2291 27.0928 60.2347 26.5951C60.2475 25.4088 60.2183 23.1978 60.2336 22.0596C60.2366 21.8518 60.3146 21.7788 60.339 21.4816C60.4342 20.3242 60.4259 19.0268 60.177 19.2564C60.3183 17.7729 60.1894 16.4005 60.1815 15.0257C60.1654 12.1188 60.2235 6.82365 60.1189 4.29127C60.0592 2.8481 59.9623 2.74266 60.0153 1L61 1.98467C60.8146 1.97903 60.6106 1.97169 60.3845 1.96242C59.8626 1.94105 59.3431 1.91223 58.7101 1.88674C57.2265 1.82675 55.8654 1.62047 54.7345 1.86904C53.0867 1.80457 51.7744 1.85029 50.5518 1.63771C50.4077 1.6887 50.2636 1.73968 50.1194 1.79067C49.9174 1.79193 49.7154 1.79319 49.5134 1.79445C49.4504 1.74583 49.3873 1.6972 49.3243 1.64858C47.8771 1.63548 46.041 1.83534 44.816 1.83388C42.762 1.83163 37.4719 1.75399 35.5243 1.68837C34.4903 1.65353 34.4347 1.75767 33.8427 1.5436C33.6114 1.55849 33.3802 1.57338 33.1489 1.58827C33.0042 1.63515 32.8594 1.68202 32.7147 1.7289C31.3881 1.73077 29.8147 1.65796 28.551 1.65871C26.2482 1.66021 22.7902 1.78922 20.4777 1.70448C19.8979 1.68312 19.1731 1.58645 18.6053 1.58754C17.7789 1.58904 17.578 1.74946 16.5293 1.75246C14.7219 1.75733 11.3558 1.57097 9.64739 1.58522C9.13998 1.58935 8.90323 1.64904 8.55287 1.65541C7.0837 1.68278 5.87751 1.67792 4.46876 1.77016C2.95612 1.61643 3.08679 1.41801 2.61802 1.21779C2.26275 1.06667 1.17339 0.716469 1.01875 0.584121C0.910119 0.491139 1.31569 0.371528 1.16348 0.269179C2.97575 0.187443 3.73712 0.277423 5.20869 0.421401C7.92631 0.415663 10.6439 0.409926 13.3615 0.404189C13.6088 0.460056 13.856 0.515924 14.1033 0.571792C14.1033 0.571914 14.1033 0.572036 14.1033 0.572158C15.1469 0.636633 15.5893 0.492756 16.1521 0.460097C21.5407 0.147394 32.1465 0.392137 38.0788 0.427382C39.3571 0.434878 43.5155 0.359597 44.3926 0.450331C44.6197 0.473962 44.6829 0.560108 44.9245 0.563857C47.0831 0.512628 49.2417 0.461399 51.4003 0.41017C54.5562 0.505336 57.788 0.476963 61 0.445201C61.3138 0.442554 61.5522 0.686169 61.5548 1C61.5677 2.30574 61.5812 3.6082 61.5871 4.90095C61.643 17.0021 61.7109 28.9824 61.6903 40.8855C61.6862 43.1859 61.7507 46.1051 61.7091 48.3572C61.6918 49.2971 61.5535 49.6887 61.6566 50.9234C61.6193 50.9364 61.5821 50.9493 61.5448 50.9623C61.5898 52.0398 61.6746 52.7284 61.6832 53.9365C61.6903 54.9538 61.6959 57.6454 61.6816 58.5444C61.6745 59.0107 61.6049 58.837 61.6052 59.2716C61.6053 59.3581 61.6068 59.4559 61.6092 59.5629C61.6121 59.9075 61.3446 60.1692 61 60.1721C60.1853 60.1903 58.8376 60.2656 57.9299 60.2656C56.9996 60.2656 55.4313 60.1853 54.716 60.197C52.1402 60.2382 49.3344 60.3571 46.5894 60.3253C45.8311 60.3162 44.8558 60.2259 44.6184 60.2284C44.1545 60.2337 44.0163 60.3214 43.7047 60.3327C42.1221 60.3897 39.655 60.2854 38.1037 60.2813C33.0486 60.2678 27.6934 60.3061 22.66 60.29C19.4801 60.2799 14.1957 60.2953 11.2598 60.2293C10.6267 60.2151 10.7955 60.119 10.2639 60.119C9.67446 60.119 9.35523 60.1839 9.0798 60.1891C7.17311 60.2259 2.96407 60.2915 1.16395 60.2252C1.10676 60.223 1.05219 60.2192 1 60.2142C0.631604 60.2173 0.351846 59.9313 0.348738 59.5629C0.373541 59.3022 0.425779 59.101 0.425551 58.93C0.425551 58.8261 0.374163 58.5913 0.36891 58.2651C0.322417 55.3848 0.352387 53.2847 0.370009 50.4623C0.403375 45.057 0.307774 38.7939 0.359511 33.1155C0.370759 31.8783 0.519702 31.0299 0.518203 30.8559C0.515198 30.4741 0.415018 30.2297 0.390273 29.4565C0.308935 26.8856 0.415836 23.4233 0.365614 20.978C0.340871 19.77 0.2137 18.1099 0.18556 16.9211C0.163066 15.9715 0.212951 13.7291 0.157118 13.3082C0.123385 13.0522 0.0150412 12.9337 0.00147781 12.6271ZM1.68801 44.6152C1.51478 44.4461 1.65874 46.2238 1.75173 45.5569C1.77266 45.4067 1.73297 44.6589 1.68801 44.6152ZM60.6128 51.2662C60.5633 51.2825 60.5138 51.2988 60.4643 51.3151C60.4849 51.5485 60.5055 51.7818 60.5261 52.0152C60.5559 51.8841 60.5856 51.7529 60.6153 51.6217C60.6145 51.5032 60.6136 51.3847 60.6128 51.2662Z" fill="#121212"/>
<path d="M4.77321 15.4346C4.76121 15.1969 4.82606 14.8614 4.82948 14.5811C4.84448 13.4066 4.88943 12.9714 4.91493 11.9087C4.9528 10.3331 4.86756 5.65686 5.31812 5.65674C5.31813 5.65674 5.31814 5.65674 5.31815 5.65674C5.32257 5.65674 5.32704 5.65719 5.33156 5.6581C5.41739 5.67448 5.5111 6.07223 5.60817 6.13125C5.70528 6.19018 6.3322 6.14598 6.36745 6.7109C6.41389 7.52998 6.25315 9.49483 6.26027 9.93168C6.26518 10.2303 6.32217 10.598 6.33229 10.9799C6.36491 12.2112 6.32323 12.8555 6.47804 13.9649C6.39646 14.4086 6.31488 14.8524 6.23329 15.2961C6.27112 15.8751 6.16352 16.7525 6.16945 17.1043C6.17432 17.3928 6.23884 17.5619 6.24184 17.8627C6.24557 18.2 6.17593 18.718 6.18642 19.3316C6.20329 20.3375 6.37159 20.5165 6.39296 21.12C6.41508 21.7458 6.32361 22.7191 6.38283 23.5177C6.40134 23.6179 6.41986 23.718 6.43837 23.8182C6.48024 23.7464 6.52211 23.6747 6.56398 23.6029C6.58347 24.0051 6.49766 24.1781 6.49611 24.5477C6.49424 24.9825 6.57559 25.2044 6.57521 25.497C6.57483 25.7367 6.5096 26.0618 6.51369 26.3726C6.51931 26.8257 6.6135 26.7266 6.63112 26.9705C6.63797 27.0678 6.68994 28.8666 6.69069 28.9681C6.69441 29.7399 6.56549 29.8071 6.55422 30.4225C6.52347 32.1295 6.62764 33.8817 6.66701 35.4606C6.68462 36.1656 6.67713 36.9013 6.65651 37.6043C6.32657 36.497 6.0698 38.9474 6.58608 38.031C6.51263 38.8132 6.652 39.3677 6.62844 40.1092C6.61306 40.5888 6.54148 40.9207 6.54335 41.6055C6.54714 42.8206 6.75062 44.1497 6.38283 44.4992C6.44767 45.9256 6.31425 47.161 6.63893 47.6751C6.65877 48.0429 6.46538 48.9855 6.4391 49.3981C6.41436 49.7882 6.32703 52.7818 6.32216 53.2715C6.31774 53.7159 6.31296 54.4629 6.3334 54.9056L5.77173 54.344C5.81691 54.3419 5.85893 54.3395 5.89712 54.3369C6.4153 54.3016 6.77742 53.9649 7.69998 54.3586C8.77265 54.3268 9.15481 54.338 10.1525 54.3838C10.3331 54.392 10.3535 54.4505 10.459 54.4505C10.6764 54.4505 11.0462 54.4073 11.4342 54.4021C12.0723 54.3934 12.4364 54.5164 12.3653 54.3286C12.786 54.2971 13.2066 54.2656 13.6273 54.2341C13.7749 54.2704 13.9225 54.3066 14.07 54.3429C14.295 54.3034 14.5199 54.2638 14.7448 54.2243C14.4806 54.4962 16.0636 54.3357 15.5496 54.1798C16.3651 54.236 17.1805 54.2922 17.996 54.3485C17.8822 54.6574 19.7865 54.3841 19.6262 54.2162C19.7195 54.2164 19.8128 54.2166 19.9061 54.2169C20.723 54.299 21.4732 54.2318 22.4689 54.287C23.4645 54.3421 23.371 54.3722 23.6738 54.5143C23.9081 54.5061 24.1424 54.498 24.3767 54.4898C25.6061 54.1003 25.3888 54.7747 27.494 54.4759C28.1666 54.7208 29.8247 54.5922 30.924 54.5179C31.0519 54.5093 31.0541 54.4618 31.2245 54.4471C31.641 54.4119 32.7039 54.473 32.6675 54.3197C33.0354 54.364 33.4034 54.4084 33.7713 54.4527C34.072 54.4249 34.3727 54.397 34.6735 54.3691C34.6719 54.3213 34.6704 54.2734 34.6689 54.2256C35.2745 54.3886 36.226 54.326 36.6954 54.365C36.7888 54.3729 36.809 54.4389 37.0993 54.4569C37.4387 54.4782 38.071 54.4587 38.4754 54.4793C38.6326 54.4062 38.7898 54.3331 38.9471 54.26C39.6702 54.2203 39.9244 54.4133 40.349 54.4283C40.4255 54.4309 41.8203 54.4171 41.8955 54.4129C42.5108 54.3803 42.3365 54.2158 44.116 54.2511C44.4329 54.2574 44.6892 54.3143 44.9756 54.3166C45.4815 54.3207 47.0062 54.1917 47.126 54.0725C47.7397 54.2217 49.3817 54.1607 49.8653 54.2038C50.0113 54.2171 50.0442 54.3121 50.4929 54.3324C50.8566 54.3489 51.7934 54.2728 52.2547 54.2855C52.7443 54.2994 52.9192 54.3792 53.1386 54.3849C53.3458 54.3901 53.537 54.3256 53.8194 54.326C54.7012 54.3283 55.4997 54.432 56.1966 54.4339C56.2072 54.434 56.2179 54.434 56.2285 54.434L55.7568 54.9056C55.7558 53.9108 55.5681 53.0304 55.4842 52.196C55.4966 51.9867 55.5376 51.781 55.5379 51.5616C55.5439 48.8468 55.5791 45.7844 55.62 43.0616C55.6387 41.7975 55.8978 38.6542 55.4655 39.4932C55.3898 39.0539 55.5641 35.8598 55.5667 35.2523C55.5693 34.6449 55.4918 34.1634 55.4907 33.686C55.4873 32.2453 55.5432 31.2308 55.4757 29.4771C55.458 29.0242 55.3662 28.5388 55.3673 28.2706C55.3688 27.9476 55.4576 27.5998 55.4632 27.1813C55.476 26.1836 55.4468 24.3243 55.4621 23.3672C55.4651 23.1924 55.5431 23.131 55.5675 22.8811C55.6627 21.9078 55.6544 20.8167 55.4055 21.0098C55.5468 19.7622 55.4179 18.6081 55.41 17.452C55.3939 15.0074 55.452 10.5545 55.3474 8.42484C55.2877 7.21112 55.1908 7.12253 55.2438 5.65674L56.2285 6.6414C56.0726 6.63576 55.9012 6.62842 55.7112 6.61916C55.2723 6.59779 54.8354 6.56897 54.3031 6.54347C53.0555 6.48348 51.9108 6.27721 50.9599 6.52577C49.5742 6.46131 48.4705 6.50703 47.4424 6.29445C47.3212 6.34544 47.2 6.39642 47.0788 6.4474C46.9089 6.44867 46.739 6.44993 46.5691 6.45119C46.5161 6.40256 46.4631 6.35394 46.4101 6.30531C45.1931 6.29222 43.649 6.49208 42.6188 6.49062C40.8916 6.48837 36.4428 6.41072 34.805 6.34511C33.9355 6.31027 33.8887 6.41441 33.3908 6.20033C33.1964 6.21523 33.0019 6.23012 32.8074 6.24501C32.6857 6.29189 32.564 6.33876 32.4423 6.38564C31.3267 6.38751 30.0035 6.3147 28.9408 6.31545C27.0042 6.31695 24.0963 6.44596 22.1516 6.36122C21.664 6.33985 21.0544 6.24319 20.5769 6.24428C19.882 6.24578 19.713 6.4062 18.8311 6.4092C17.3111 6.41407 14.4804 6.22771 13.0438 6.24196C12.6171 6.24609 12.418 6.30578 12.1233 6.31215C10.8878 6.33952 9.87348 6.33466 8.68878 6.4269C7.41673 6.27317 7.52662 6.07475 7.1324 5.87453C6.83364 5.72341 5.91754 5.37321 5.78749 5.24086C5.69614 5.14788 6.03721 5.02827 5.9092 4.92592C7.43324 4.84418 8.07351 4.93416 9.31103 5.07814C11.5964 5.0724 13.8818 5.06666 16.1672 5.06093C16.3751 5.11679 16.583 5.17266 16.7909 5.22853C16.7909 5.22865 16.7909 5.22877 16.7909 5.2289C17.6686 5.29337 18.0406 5.14949 18.5139 5.11684C23.0454 4.80413 31.9645 5.04888 36.9532 5.08412C38.0282 5.09162 41.5252 5.01633 42.2628 5.10707C42.4538 5.1307 42.5069 5.21685 42.7101 5.2206C44.5254 5.16937 46.3407 5.11814 48.1559 5.06691C50.8098 5.16207 53.5275 5.1337 56.2285 5.10194C56.5423 5.0988 56.7801 5.34291 56.7833 5.65674C56.7962 6.75491 56.8097 7.85031 56.8156 8.93755C56.8715 19.114 56.9394 29.1889 56.9188 39.1988C56.9147 41.1333 56.9792 43.5882 56.9376 45.4821C56.9203 46.2725 56.782 46.6019 56.8851 47.6402C56.8478 47.6511 56.8106 47.662 56.7733 47.6729C56.8183 48.5791 56.9031 49.1581 56.9117 50.1741C56.9188 51.0296 56.9244 53.2931 56.9101 54.0491C56.903 54.4412 56.8334 54.2951 56.8337 54.6607C56.8338 54.7333 56.8353 54.8156 56.8377 54.9056C56.8411 55.2502 56.5731 55.5113 56.2285 55.5148C55.5434 55.533 54.4101 55.6082 53.6467 55.6082C52.8644 55.6082 51.5455 55.528 50.944 55.5396C48.7778 55.5809 46.4183 55.6998 44.1099 55.6679C43.4722 55.6589 42.652 55.5686 42.4523 55.5711C42.0623 55.5764 41.9461 55.6641 41.684 55.6754C40.3531 55.7324 38.2784 55.6281 36.9738 55.624C32.7227 55.6105 28.2192 55.6488 23.9865 55.6327C21.3123 55.6225 16.8684 55.638 14.3994 55.572C13.867 55.5577 14.0089 55.4616 13.5619 55.4616C13.0662 55.4617 12.7978 55.5266 12.5661 55.5318C10.9627 55.5686 7.4231 55.6342 5.9093 55.5678C5.86131 55.5657 5.81552 55.5619 5.77173 55.5569C5.40332 55.5606 5.12413 55.274 5.12043 54.9056C5.14522 54.6862 5.19751 54.5169 5.19728 54.373C5.19728 54.2856 5.14589 54.0882 5.14064 53.8139C5.09415 51.3917 5.12412 49.6256 5.14174 47.2522C5.1751 42.7065 5.0795 37.4396 5.13124 32.6643C5.14249 31.6239 5.29143 30.9104 5.28993 30.7641C5.28693 30.443 5.18675 30.2375 5.162 29.5873C5.08066 27.4253 5.18756 24.5136 5.13734 22.4573C5.1126 21.4414 4.98543 20.0453 4.95729 19.0456C4.93479 18.2471 4.98468 16.3613 4.92885 16.0074C4.89511 15.792 4.78677 15.6924 4.77321 15.4346ZM6.45973 42.335C6.28651 42.1928 6.43047 43.6877 6.52345 43.1269C6.54439 43.0006 6.5047 42.3718 6.45973 42.335ZM55.8413 47.9285C55.7918 47.9422 55.7423 47.9559 55.6928 47.9696C55.7134 48.1658 55.734 48.3621 55.7546 48.5584C55.7844 48.4481 55.8141 48.3378 55.8438 48.2275C55.843 48.1278 55.8421 48.0282 55.8413 47.9285Z" fill="#121212"/>
<path d="M14.501 21.1129C14.489 21.0252 14.5539 20.9014 14.5573 20.798C14.5723 20.3648 14.6173 20.2042 14.6428 19.8123C14.6806 19.231 14.5954 17.5061 15.046 17.506C15.046 17.506 15.046 17.506 15.046 17.506C15.0504 17.506 15.0549 17.5062 15.0594 17.5065C15.1453 17.5126 15.239 17.6593 15.336 17.6811C15.4331 17.7028 16.0601 17.6865 16.0953 17.8949C16.1417 18.197 15.981 18.9218 15.9881 19.083C15.993 19.1932 16.05 19.3288 16.0601 19.4697C16.0927 19.9239 16.0511 20.1615 16.2059 20.5708C16.1243 20.7344 16.0427 20.8981 15.9611 21.0618C15.9989 21.2754 15.8914 21.5991 15.8973 21.7288C15.9021 21.8352 15.9667 21.8976 15.9697 22.0086C15.9734 22.133 15.9038 22.3241 15.9142 22.5504C15.9311 22.9215 16.0994 22.9875 16.1208 23.2101C16.1429 23.441 16.0514 23.8 16.1106 24.0946C16.1291 24.1315 16.1477 24.1685 16.1662 24.2054C16.208 24.1789 16.2499 24.1525 16.2918 24.126C16.3113 24.2744 16.2255 24.3382 16.2239 24.4745C16.222 24.6349 16.3034 24.7168 16.303 24.8247C16.3026 24.9131 16.2374 25.033 16.2415 25.1477C16.2471 25.3148 16.3413 25.2783 16.3589 25.3682C16.3658 25.4041 16.4177 26.0677 16.4185 26.1051C16.4222 26.3898 16.2933 26.4146 16.282 26.6416C16.2513 27.2713 16.3554 27.9176 16.3948 28.5001C16.4124 28.7601 16.4049 29.0315 16.3843 29.2908C16.0543 28.8824 15.7976 29.7863 16.3138 29.4482C16.2404 29.7367 16.3798 29.9413 16.3562 30.2148C16.3408 30.3917 16.2692 30.5142 16.2711 30.7668C16.2749 31.215 16.4784 31.7053 16.1106 31.8342C16.1754 32.3604 16.042 32.8161 16.3667 33.0057C16.3865 33.1414 16.1931 33.4891 16.1668 33.6413C16.1421 33.7852 16.0548 34.8895 16.0499 35.0701C16.045 35.2508 16.0397 35.567 16.0682 35.7192C16.1034 35.9103 16.4401 36.0439 16.0464 36.3842C16.0783 36.7799 16.067 36.9209 16.0213 37.2889C16.013 37.3555 15.9546 37.363 15.9545 37.402C15.9545 37.4821 15.9977 37.6186 16.003 37.7617C16.0116 37.9971 15.8886 38.1314 16.0765 38.1052C16.108 38.2603 16.1394 38.4155 16.1709 38.5707C16.1347 38.6251 16.0984 38.6796 16.0622 38.734C16.1017 38.817 16.1412 38.8999 16.1807 38.9829C15.9089 38.8854 16.0693 39.4694 16.2253 39.2798C16.169 39.5806 16.1128 39.8814 16.0565 40.1822C15.7476 40.1402 16.0209 40.8427 16.1889 40.7835C16.1886 40.8179 16.1884 40.8524 16.1881 40.8868C16.1303 41.0989 16.1465 41.2989 16.1419 41.5268L15.4994 40.8843C15.5952 40.8862 15.696 40.8918 15.8047 40.9081C16.172 40.9632 16.1375 40.9933 16.2492 41.1354C16.3356 41.1273 16.4221 41.1191 16.5085 41.111C16.962 40.7214 16.8818 41.3959 17.6584 41.0971C17.9065 41.3419 18.5181 41.2133 18.9237 41.1391C18.9708 41.1305 18.9716 41.0829 19.0345 41.0683C19.1881 41.033 19.5802 41.0941 19.5668 40.9408C19.7025 40.9852 19.8382 41.0295 19.974 41.0739C20.0849 41.046 20.1958 41.0181 20.3068 40.9903C20.3062 40.9424 20.3056 40.8946 20.3051 40.8467C20.3822 40.903 20.4745 40.9324 20.5694 40.9484L19.991 41.5268C20.0213 41.3466 20.0032 41.157 20.0287 41.0436C20.0366 41.0091 20.1026 41.0017 20.1206 40.8946C20.142 40.7694 20.1225 40.5361 20.1431 40.387C20.07 40.329 19.9969 40.271 19.9237 40.213C19.8841 39.9462 20.0771 39.8525 20.0921 39.6958C20.0947 39.6676 20.0808 39.1531 20.0767 39.1254C20.044 38.8984 19.8796 38.9627 19.9148 38.3063C19.9212 38.1894 19.9781 38.0949 19.9804 37.9892C19.9845 37.8026 19.8555 37.2402 19.7362 37.1959C19.8855 36.9696 19.8245 36.3639 19.8676 36.1855C19.8808 36.1316 19.9759 36.1195 19.9961 35.954C20.0126 35.8198 19.9365 35.4743 19.9493 35.3041C19.9631 35.1235 20.043 35.059 20.0486 34.978C20.0539 34.9016 19.9894 34.8311 19.9898 34.7269C19.992 34.4016 20.0958 34.1071 20.0977 33.85C20.0978 33.8358 20.0976 33.8217 20.0972 33.8076C20.1044 33.5434 20.3001 33.3311 20.5643 33.3354C20.9127 33.3201 21.2246 33.1334 21.5176 33.044C21.5942 33.0543 21.6709 33.0931 21.7507 33.091C21.9584 33.0859 22.1716 33.081 22.3876 33.0756C23.1829 33.0572 24.0163 32.9937 24.7574 32.8643C25.1916 32.8095 26.3191 32.6954 25.8957 32.3818C26.0141 32.2787 27.0653 31.9964 27.2426 31.8748C27.4237 31.7738 27.5211 31.6206 27.6544 31.5308C28.0548 31.2561 28.3671 31.087 28.7683 30.6297C28.8714 30.5108 28.927 30.3283 28.9927 30.2643C29.0135 30.2441 29.0389 30.2277 29.067 30.2124C29.1399 30.1756 29.2367 30.1457 29.3073 30.0731C29.5403 29.8433 29.871 29.3312 30.0342 29.0631C30.0652 29.0149 30.1432 29.0356 30.2046 28.9738C30.4459 28.7326 30.5821 28.3797 30.3265 28.3454C30.6177 28.0187 30.6143 27.6023 30.6956 27.229C30.8179 26.7016 30.949 25.8553 30.9276 25.1232C30.9205 24.7662 30.8776 24.4447 30.8149 24.2158C30.6876 23.7847 30.5932 23.82 30.5307 23.1755C30.5139 23.0328 30.5006 22.8876 30.4683 22.7148C30.395 22.3143 30.417 21.868 30.049 21.71C29.8892 21.2805 29.6495 21.0186 29.6017 20.6228C29.5367 20.6239 29.4721 20.626 29.4079 20.6294C29.3716 20.5887 29.3343 20.5481 29.2968 20.5086C29.3214 20.4634 29.3457 20.4179 29.3695 20.3721C29.2404 20.2224 29.0482 20.0985 28.8574 19.9991C28.6533 19.8884 28.4531 19.8023 28.3141 19.7051C27.8832 19.3504 26.5436 18.6909 25.9949 18.5118C25.712 18.4019 25.6735 18.5024 25.55 18.2552C25.4793 18.2551 25.4104 18.2559 25.3403 18.2572C25.2894 18.2949 25.2378 18.3327 25.1883 18.3711C24.8094 18.3009 24.357 18.1673 23.9831 18.1345C23.5457 18.094 22.9615 18.1191 22.416 18.1359C22.1027 18.1447 21.801 18.1429 21.5446 18.1138C21.3655 18.0934 21.1404 17.9982 20.9647 18.0007C20.709 18.0043 20.648 18.1652 20.3241 18.1716C19.7647 18.1819 18.7203 18.0107 18.1907 18.0346C18.0352 18.0414 17.9604 18.1025 17.8533 18.1108C17.3992 18.1466 17.0263 18.1492 16.5904 18.2509C16.1232 18.1074 16.1513 17.9085 16.0062 17.7115C15.8912 17.563 15.5467 17.2211 15.4919 17.0902C15.4555 16.9981 15.5791 16.8753 15.5305 16.7742C16.09 16.6785 16.3335 16.7633 16.7913 16.8975C17.6352 16.874 18.4799 16.8531 19.3246 16.8355C19.4028 16.8903 19.4799 16.9451 19.5574 17C19.5574 17.0001 19.5574 17.0002 19.5574 17.0003C19.8829 17.0605 20.0184 16.9152 20.1929 16.8805C20.7779 16.7647 21.5627 16.7166 22.416 16.7107C24.0522 16.6825 25.9388 17.0723 27.1207 17.5414C27.521 17.6587 28.8039 18.2208 28.9857 18.4888C29.0355 18.5506 29.0044 18.6336 29.0675 18.6822C29.2663 18.8013 29.4605 18.9305 29.6485 19.0698C30.0438 19.3595 30.4058 19.6991 30.7294 20.0722C31.518 21.3436 32.1297 22.7589 32.2946 24.2433C32.3269 24.5358 32.345 24.8295 32.3492 25.1232C32.3955 27.2934 31.767 29.6393 30.1538 31.2852C29.1482 32.331 27.8867 33.2153 26.4932 33.711C25.7761 33.9787 24.8432 34.2602 24.1081 34.3181C23.8016 34.343 23.6614 34.2217 23.2749 34.3608C23.2675 34.3241 23.26 34.2873 23.2527 34.2506C22.9532 34.3156 22.7531 34.3983 22.4441 34.4343C22.4015 34.4393 22.3573 34.4433 22.3101 34.4462C21.991 34.4673 21.148 34.4953 20.8666 34.4848C20.7196 34.4802 20.7732 34.4097 20.6371 34.412C20.6181 34.4123 20.5975 34.4133 20.5759 34.4147L21.1766 33.8076C21.1904 34.056 21.272 34.4973 21.272 34.7906C21.272 35.0792 21.1918 35.5657 21.2034 35.7876C21.2447 36.5866 21.3636 37.457 21.3317 38.3085C21.3227 38.5438 21.2324 38.8463 21.2349 38.92C21.2402 39.0639 21.3279 39.1067 21.3392 39.2034C21.3961 39.6943 21.2919 40.4596 21.2878 40.9409C21.2861 41.1349 21.2852 41.3303 21.2849 41.5268C21.2959 41.9314 20.974 42.2313 20.5694 42.2423C19.1777 42.2403 17.7328 42.268 16.3645 42.2538C16.1114 42.2512 15.8152 42.2503 15.4994 42.2493C15.0908 42.2604 14.788 41.9353 14.7769 41.5268C14.7799 40.6121 14.784 39.5325 14.833 38.8555C14.8473 38.6591 14.9434 38.7114 14.9434 38.5465C14.9434 38.3637 14.8785 38.2647 14.8732 38.1792C14.8365 37.5877 14.7709 36.2821 14.8372 35.7237C14.85 35.6173 14.9253 35.5401 14.925 35.4764C14.925 35.4442 14.8736 35.3714 14.8684 35.2702C14.8219 34.3767 14.8518 33.7252 14.8695 32.8497C14.9029 31.1729 14.8073 29.23 14.859 27.4686C14.8703 27.0848 15.0192 26.8216 15.0177 26.7676C15.0147 26.6492 14.9145 26.5734 14.8898 26.3335C14.8085 25.536 14.9154 24.4619 14.8652 23.7034C14.8404 23.3287 14.7132 22.8137 14.6851 22.4449C14.6626 22.1503 14.7125 21.4547 14.6567 21.3242C14.6229 21.2447 14.5146 21.208 14.501 21.1129ZM16.1875 31.0359C16.0143 30.9834 16.1582 31.5349 16.2512 31.328C16.2721 31.2814 16.2324 31.0494 16.1875 31.0359ZM23.0796 33.3298C23.0706 33.2809 23.0617 33.232 23.0528 33.1831C22.9835 33.2093 22.9171 33.2349 22.8478 33.2602C22.8893 33.2872 22.9308 33.314 22.9723 33.3408C23.0076 33.3373 23.0435 33.3336 23.0796 33.3298ZM21.5677 28.2858C21.5797 28.3161 21.5149 28.3588 21.5114 28.3945C21.4964 28.5441 21.4515 28.5995 21.426 28.7348C21.3881 28.9354 21.4734 29.5309 21.0228 29.5309C21.0228 29.5309 21.0228 29.5309 21.0228 29.5309C21.0184 29.5309 21.0139 29.5308 21.0094 29.5307C20.9235 29.5286 20.8298 29.478 20.7327 29.4705C20.6356 29.463 20.0087 29.4686 19.9735 29.3967C19.927 29.2924 20.0878 29.0422 20.0806 28.9865C20.0757 28.9485 20.0187 28.9017 20.0086 28.8531C19.976 28.6963 20.0177 28.6142 19.8629 28.473C19.9445 28.4165 20.026 28.3599 20.1076 28.3034C20.0698 28.2297 20.1774 28.118 20.1715 28.0732C20.1666 28.0364 20.1021 28.0149 20.0991 27.9766C20.0954 27.9337 20.165 27.8677 20.1545 27.7896C20.1376 27.6615 19.9693 27.6387 19.948 27.5618C19.9258 27.4821 20.0173 27.3582 19.9581 27.2565C19.9396 27.2438 19.9211 27.231 19.9025 27.2183C19.8607 27.2274 19.8188 27.2365 19.7769 27.2457C19.7574 27.1944 19.8433 27.1724 19.8448 27.1254C19.8467 27.07 19.7653 27.0417 19.7657 27.0045C19.7661 26.9739 19.8313 26.9326 19.8272 26.893C19.8216 26.8353 19.7274 26.8479 19.7098 26.8168C19.703 26.8044 19.651 26.5754 19.6502 26.5625C19.6465 26.4642 19.7754 26.4556 19.7867 26.3773C19.8174 26.1599 19.7133 25.9368 19.6739 25.7357C19.6563 25.6459 19.6638 25.5523 19.6844 25.4627C20.0143 25.6037 20.2711 25.2917 19.7548 25.4084C19.8283 25.3088 19.6889 25.2382 19.7125 25.1438C19.7279 25.0827 19.7994 25.0404 19.7976 24.9532C19.7938 24.7985 19.5903 24.6293 19.9581 24.5848C19.8933 24.4031 20.0267 24.2458 19.702 24.1803C19.6822 24.1335 19.8755 24.0135 19.9018 23.9609C19.9266 23.9113 20.0139 23.5301 20.0188 23.4677C20.0236 23.4053 20.0289 23.2962 20.0004 23.2436C19.9652 23.1777 19.6285 23.1315 20.0222 23.0141C19.9903 22.8775 20.0016 22.8288 20.0473 22.7018C20.0556 22.6788 20.114 22.6762 20.1141 22.6627C20.1141 22.6351 20.0709 22.588 20.0656 22.5386C20.057 22.4573 20.18 22.4109 19.9921 22.42C19.9607 22.3664 19.9292 22.3129 19.8977 22.2593C19.9339 22.2405 19.9702 22.2217 20.0064 22.2029C19.9669 22.1743 19.9274 22.1456 19.8879 22.117C20.1597 22.1506 19.9993 21.9491 19.8433 22.0145C19.8996 21.9107 19.9558 21.8068 20.012 21.703C20.321 21.7175 20.0477 21.475 19.8797 21.4954C19.88 21.4835 19.8802 21.4716 19.8805 21.4598C19.9389 21.3857 19.9217 21.316 19.9268 21.2362C19.9544 20.8866 20.1963 20.579 20.5467 20.5942C20.5814 20.5951 20.6168 20.5998 20.6543 20.6146C20.7847 20.6662 20.7745 20.6968 20.8158 20.8379C20.8469 20.8291 20.8755 20.8203 20.9061 20.8115C21.0571 20.4191 21.041 21.0935 21.3075 20.7916C21.3963 21.0354 21.6071 20.9056 21.7492 20.8318C21.7656 20.8232 21.766 20.7757 21.788 20.7611C21.8422 20.726 21.9788 20.7881 21.9755 20.6348C22.0232 20.6796 22.0699 20.7245 22.1171 20.7695C22.1561 20.7421 22.1959 20.7148 22.2352 20.6876C22.2358 20.6398 22.2365 20.592 22.2371 20.5441C22.3132 20.7085 22.4378 20.6486 22.4981 20.6894C22.51 20.6976 22.5108 20.7636 22.548 20.7827C22.5848 20.802 22.6499 20.7927 22.7005 20.8033C22.7101 20.8052 22.7192 20.8078 22.7275 20.8113C22.7523 20.7391 22.7777 20.6671 22.8038 20.5952C22.9098 20.5612 22.9308 20.7567 22.9882 20.7763C22.999 20.7791 23.1931 20.785 23.2036 20.783C23.2925 20.7622 23.2919 20.592 23.5397 20.6699C23.5842 20.6844 23.6097 20.7473 23.6492 20.7576C23.7167 20.7741 23.9636 20.7015 24.0126 20.5923C24.0641 20.7588 24.3119 20.7728 24.3667 20.8397C24.3826 20.8595 24.3553 20.9504 24.4086 20.992C24.4517 21.0254 24.6079 21.0067 24.6646 21.0464C24.7256 21.0888 24.7145 21.1722 24.7406 21.1908C24.7651 21.2084 24.8184 21.1626 24.855 21.1816C24.9712 21.2429 25.0201 21.3902 25.104 21.4438C25.2236 21.5206 25.4377 21.4361 25.5936 21.4472C25.612 21.4764 25.6118 21.528 25.6376 21.5488C25.9596 21.8068 26.2555 22.1757 26.449 22.5317C26.5502 22.6992 26.5339 23.2181 26.8586 22.9105C26.9643 22.9351 27.0036 23.4496 27.0237 23.5319C27.052 23.6169 27.1477 23.6591 27.1704 23.7273C27.237 23.9327 27.2207 24.0891 27.3357 24.3297C27.3653 24.3917 27.4677 24.4489 27.4727 24.4888C27.4786 24.5371 27.398 24.6008 27.4 24.6625C27.407 24.8089 27.4562 25.0791 27.4433 25.2194C27.441 25.2449 27.3633 25.2557 27.3396 25.2919C27.3173 25.3257 27.3007 25.36 27.2917 25.3924C27.263 25.4951 27.3101 25.5801 27.5 25.5648C27.3537 25.7415 27.4702 25.9148 27.4579 26.0893C27.4412 26.4561 27.2209 27.0927 27.1835 27.4349C27.1633 27.6525 27.2687 27.702 27.0368 27.9397C26.9845 27.9917 26.9253 28.038 26.8602 28.097C26.7044 28.2389 26.4403 28.255 26.5469 28.5232C26.3633 28.6546 26.2766 28.8163 26.0158 28.7771C26.0391 28.826 26.0618 28.8753 26.084 28.9249C26.066 28.9442 26.0478 28.9635 26.0295 28.9824C25.9902 28.9527 25.9511 28.9227 25.9121 28.8926C25.7731 29.0059 25.7149 29.309 25.5807 29.402C25.3645 29.5697 24.724 29.8201 24.4753 29.8347C24.3443 29.8482 24.3712 29.9483 24.233 29.7702C24.2119 29.7934 24.1904 29.8164 24.1685 29.8394C24.1667 29.8894 24.1643 29.9394 24.1614 29.9896C24.0055 30.0419 23.801 30.0211 23.6526 30.0547C23.3857 30.1189 22.9855 30.3046 22.7026 30.2367C22.6318 30.2202 22.5409 30.1282 22.476 30.1317C22.3967 30.1357 22.3696 30.2467 22.2904 30.2873C22.2757 30.2957 22.2593 30.301 22.2405 30.3018C22.0513 30.3088 21.6898 30.1303 21.502 30.1471C21.4465 30.1519 21.4207 30.2119 21.3818 30.2185C21.2173 30.247 21.0785 30.2412 20.9071 30.3264C20.734 30.1643 20.7644 29.9658 20.7262 29.7628C20.6962 29.6094 20.6129 29.2505 20.6111 29.1171C20.6093 29.0236 20.6608 28.9083 20.6554 28.805C20.8368 28.7393 20.8965 28.8324 21.0367 28.9815C21.3023 28.9839 21.5879 28.9699 21.8806 28.9591C21.9083 29.0145 21.9359 29.0699 21.9635 29.1253C21.9635 29.1254 21.9635 29.1255 21.9635 29.1256C22.0769 29.1882 22.1225 29.0436 22.1829 29.0101C22.2124 28.994 22.242 28.9793 22.2746 28.9659C22.813 28.7317 23.7355 28.7841 24.2304 28.5677C24.3468 28.5277 24.632 28.2732 24.745 28.2983C24.7756 28.3058 24.8302 28.3726 24.8511 28.3623C24.9873 28.2014 25.1038 28.0314 25.1996 27.8559C25.577 27.6542 25.7206 27.2156 25.8422 26.8339C25.9922 26.3762 26.0414 25.8855 26.0207 25.3924C25.9941 24.7547 25.8482 24.1471 25.5872 23.6154C25.498 23.4303 25.3063 23.2559 25.2154 23.0825C25.1778 23.0104 25.2568 22.8897 25.1065 22.8811C25.1327 22.8545 25.1587 22.8279 25.1848 22.8012C25.0838 22.7618 24.9822 22.7817 24.8983 22.7196C24.8283 22.6648 24.6396 22.5301 24.58 22.4769C24.5497 22.4487 24.6002 22.3984 24.5671 22.378C24.5093 22.3424 24.3399 22.3565 24.26 22.3176C24.1889 22.2812 24.0927 22.1515 24.0269 22.1388C23.7927 22.0906 23.5237 22.1386 23.2883 22.0643C23.223 22.0431 23.1483 21.9411 23.1251 21.9406C23.0811 21.94 23.0577 22.0256 23.0286 22.0335C22.9232 22.0616 22.7864 22.0099 22.6579 21.9769C22.6 21.963 22.5451 21.9515 22.498 21.9489C21.9735 21.9203 21.4086 21.9599 20.8806 21.9552C20.7972 21.9544 20.6939 21.956 20.5945 21.9583L21.2917 21.2362C21.2887 21.5525 21.2847 21.9266 21.2356 22.161C21.2213 22.2288 21.1252 22.2107 21.1252 22.2676C21.1252 22.3307 21.1901 22.3649 21.1954 22.3944C21.2321 22.5986 21.2978 23.0493 21.2314 23.2421C21.2187 23.2788 21.1434 23.3054 21.1436 23.3274C21.1436 23.3386 21.195 23.3637 21.2003 23.3986C21.2468 23.7071 21.2168 23.932 21.1992 24.2342C21.1658 24.813 21.2614 25.4837 21.2097 26.0918C21.1984 26.2243 21.0495 26.3151 21.051 26.3338C21.054 26.3746 21.1542 26.4008 21.1789 26.4836C21.2603 26.7589 21.1534 27.1297 21.2036 27.3915C21.2283 27.5209 21.3555 27.6987 21.3836 27.826C21.4061 27.9277 21.3562 28.1678 21.4121 28.2129C21.4458 28.2403 21.5541 28.253 21.5677 28.2858ZM19.8812 24.8603C20.0544 24.8784 19.9104 24.6881 19.8175 24.7595C19.7965 24.7756 19.8362 24.8557 19.8812 24.8603ZM25.8313 22.1291C25.8653 22.0931 25.8992 22.057 25.9331 22.0209C25.8982 22.0148 25.8635 22.0093 25.8289 22.0043C25.8195 22.0367 25.8098 22.0689 25.7997 22.1009C25.8103 22.1102 25.8208 22.1196 25.8313 22.1291Z" fill="#121212"/>
<path d="M32.6855 40.0405C32.6735 39.9459 32.7384 39.8124 32.7418 39.7008C32.7568 39.2333 32.8018 39.06 32.8273 38.6371C32.8653 38.0099 32.7802 36.1485 33.2308 36.1485C33.2308 36.1485 33.2308 36.1485 33.2308 36.1485C33.2352 36.1485 33.2397 36.1487 33.2442 36.149C33.3301 36.1556 33.4237 36.3139 33.5208 36.3374C33.6179 36.3609 34.2449 36.3433 34.2801 36.5682C34.3265 36.8942 34.1657 37.6763 34.1728 37.8502C34.1777 37.9691 34.2346 38.1155 34.2447 38.2675C34.2773 38.7576 34.2356 39.0141 34.3904 39.4557C34.3088 39.6323 34.2272 39.8089 34.1456 39.9855C34.1536 40.0342 34.1551 40.0882 34.1525 40.1444L33.9072 39.7324C34.0784 39.8365 34.2575 39.9992 34.356 40.0412C34.4585 40.085 34.5449 40.0543 34.6509 40.0992C34.77 40.1492 34.9252 40.2938 35.1492 40.3727C35.5173 40.5007 35.6403 40.3632 35.8633 40.4189C36.0941 40.4758 36.4215 40.674 36.7303 40.6935C36.7716 40.6853 36.8129 40.6769 36.854 40.6682C36.8381 40.621 36.8225 40.5737 36.8073 40.5265C36.9568 40.5451 36.9988 40.6436 37.1332 40.6761C37.2914 40.7139 37.3885 40.6503 37.494 40.6713C37.5803 40.6883 37.6869 40.7738 37.801 40.7876C37.9668 40.8074 37.9442 40.7082 38.0338 40.7028C38.0718 40.7074 38.7143 40.7118 38.7472 40.7051C38.7618 40.7055 38.7755 40.7061 38.7887 40.7071C39.0382 40.7232 39.0681 40.8391 39.2869 40.8492C39.9298 40.8766 40.5741 40.7144 41.1248 40.5713C41.3719 40.5079 41.6307 40.4557 41.8754 40.4074C41.5735 40.8369 42.5187 40.8281 42.0424 40.4315C42.3319 40.4185 42.4723 40.2185 42.7191 40.139C42.8772 40.0867 43.0157 40.1031 43.2282 39.9879C43.6121 39.7809 43.8399 39.3507 44.1642 39.5575C44.5113 39.1942 44.8916 38.9352 44.737 38.6004C44.7952 38.4959 45.1309 38.34 45.2238 38.2231C45.3374 38.1371 45.8038 37.1818 45.8189 36.9959C45.8648 36.8262 45.9178 36.5208 45.9026 36.369C45.8868 36.1912 45.6118 36.0657 45.8693 35.7972C45.8922 35.7799 45.9194 35.7525 45.9514 35.7234C45.905 35.3306 45.9027 35.196 45.8879 34.833C45.8841 34.7677 45.9398 34.7492 45.9323 34.7116C45.9162 34.633 45.8447 34.5127 45.8014 34.3811C45.7303 34.166 45.7955 34.0024 45.6291 34.0915C45.5486 33.9651 45.4618 33.8447 45.3697 33.7315C45.3797 33.6705 45.3882 33.6088 45.3951 33.5463C45.3225 33.4967 45.2493 33.4506 45.1752 33.4073C45.4595 33.3365 45.0063 32.9671 44.9855 33.2084C44.8687 32.9542 44.7197 32.7053 44.5428 32.466C44.7884 32.2588 44.0601 32.015 44.0094 32.1977C43.983 32.1778 43.9562 32.158 43.929 32.1382C43.7364 31.9006 43.4676 31.8104 43.1702 31.5872C42.8679 31.3658 42.9065 31.3571 42.8663 31.1788C42.7827 31.148 42.6953 31.1166 42.611 31.0879C42.0312 31.2598 42.3597 30.6699 41.5069 30.6619C41.4972 30.661 41.4896 30.6609 41.4819 30.6609C41.3065 30.3401 40.643 30.2379 40.1963 30.1259C40.1441 30.113 40.1264 30.1572 40.0543 30.1416C39.8798 30.1077 39.504 29.8492 39.4423 29.9863C39.3196 29.869 39.1986 29.7449 39.0844 29.6083C38.954 29.5487 38.8205 29.4759 38.6877 29.3768C38.6535 29.4103 38.6194 29.4439 38.5854 29.4775C38.4427 29.1399 38.1706 28.5845 38.2221 28.3154C38.2258 28.2807 38.2566 28.263 38.282 28.2092C38.2945 28.1836 38.3057 28.1499 38.314 28.1022C38.3376 27.9313 38.3917 27.592 38.5183 27.4058C38.4916 27.2969 38.4765 27.1805 38.4737 27.0599C38.721 26.6794 38.982 26.7619 39.1652 26.6602C39.1955 26.6167 39.826 26.3579 39.8599 26.3653C40.1272 26.2816 40.0362 26.0825 40.8525 26.0892C40.8611 26.0896 40.8696 26.0901 40.878 26.0908C41.0142 26.1023 41.1226 26.1581 41.2425 26.1693C41.4687 26.1814 42.139 26.1687 42.2152 26.0682C42.4487 26.2639 43.1283 26.3884 43.3076 26.4946C43.3616 26.5258 43.3466 26.6199 43.516 26.6974C43.6532 26.7594 44.0433 26.8177 44.2165 26.8989C44.3998 26.9843 44.4362 27.0857 44.5184 27.125C44.5945 27.1617 44.6927 27.1325 44.7993 27.1782C45.1328 27.323 45.3885 27.5562 45.6482 27.6937C45.6835 27.7124 45.7259 27.7332 45.7622 27.7494L45.0571 28.1671C45.0278 27.8139 44.8654 27.4964 44.7891 27.1941C44.8015 27.1108 44.8425 27.0289 44.8428 26.9416C44.8478 26.0439 44.8729 25.0507 44.9047 24.1189L45.2513 24.6807C45.0917 24.5933 44.933 24.5098 44.7764 24.4312C44.3594 24.1993 43.3013 23.5814 43.4736 24.0945C43.3036 24.1009 42.1982 23.6614 41.9661 23.6461C41.7425 23.6119 41.5573 23.671 41.3825 23.6585C41.1341 23.641 40.9201 23.6221 40.6952 23.6163C40.4367 23.6104 40.168 23.6187 39.8287 23.6829C39.6626 23.7145 39.4975 23.8265 39.4009 23.8384C39.2857 23.8523 39.1459 23.7834 38.9942 23.8048C38.6296 23.8504 37.9865 24.0534 37.6625 24.165C37.6032 24.184 37.5539 24.1191 37.4604 24.1301C37.094 24.1709 36.7407 24.3697 36.9209 24.5563C36.4633 24.6372 36.1882 24.9786 35.8946 25.2385C35.218 25.7493 34.3951 27.0712 34.4097 27.8166C34.396 28.2431 34.4875 28.2597 34.4079 28.7962C34.4079 28.7997 34.4079 28.8101 34.4078 28.8135C34.4027 28.8482 34.3972 28.8848 34.3917 28.9235C34.3725 29.0593 34.3524 29.1937 34.3521 29.3562C34.345 29.7228 34.3052 30.1596 34.6738 30.2837C34.8422 30.6777 35.1277 30.8993 35.2637 31.2924C35.3298 31.2813 35.3941 31.2679 35.4585 31.254C35.5047 31.2892 35.5538 31.3254 35.601 31.3589C35.5867 31.4089 35.5729 31.4591 35.5597 31.5096C35.908 31.7834 36.5041 31.8889 36.8424 32.0544C37.2238 32.2504 38.0445 32.6322 38.7459 32.9094C39.1221 33.0566 39.4485 33.2186 39.6533 33.3397C39.983 33.5385 40.0566 33.467 40.139 33.764C40.2197 33.7958 40.3032 33.8319 40.3841 33.8697C40.4576 33.8634 40.5296 33.8573 40.6052 33.8553C41.0381 34.1651 41.4582 34.7512 41.6389 35.295C41.7351 35.5586 41.8036 35.8757 41.8148 36.1998C41.9902 37.2257 40.7386 38.2723 40.0902 38.261C39.8505 38.3015 39.5589 38.2466 39.3498 38.2656C39.0969 38.2875 39.0068 38.4003 38.761 38.4415C38.7078 38.4497 38.6472 38.4541 38.5768 38.4522C37.8633 38.4485 36.7405 37.9992 36.1751 37.8322C36.0048 37.7845 35.9079 37.8156 35.7897 37.7834C35.2932 37.6463 34.9035 37.4919 34.4102 37.3777C33.9825 37.0179 34.1164 36.8535 34.0602 36.6036C34.0143 36.4138 33.8692 35.9324 33.9055 35.7962C33.9267 35.7005 34.0899 35.6589 34.1038 35.548C34.6059 35.7409 34.7935 35.9179 35.1698 36.2356C35.978 36.5641 36.8235 36.832 37.6625 36.9886C37.7279 37.058 37.7953 37.1266 37.8637 37.1943C37.8637 37.1944 37.8637 37.1945 37.8636 37.1946C38.183 37.31 38.3386 37.1768 38.5083 37.1553C38.5908 37.1444 38.6762 37.133 38.761 37.12C39.5565 37.0174 40.5217 36.8166 40.4442 36.1998C40.5532 35.2474 39.2738 34.4918 38.3813 34.186C38.3639 34.1796 38.3444 34.1729 38.3231 34.1657C37.8431 34.0164 36.5919 33.5811 36.3648 33.3604C36.3028 33.3045 36.3208 33.2174 36.248 33.1773C35.5548 32.8884 34.8672 32.5377 34.2385 32.024C33.4408 31.1951 32.854 29.982 32.8768 28.7864C32.863 28.2948 32.9072 27.7872 33.0226 27.2965C33.8025 23.8023 37.5917 22.13 40.6952 22.2031C41.7478 22.1981 42.7976 22.3637 43.7916 22.6717C44.4404 22.8685 45.2287 23.1445 45.8574 23.4737C46.0702 23.5739 46.2495 23.8838 46.2554 24.1189C46.2536 24.2582 46.2496 24.3932 46.2425 24.5216C46.2252 24.8362 46.0869 24.9673 46.19 25.3806C46.1527 25.385 46.1155 25.3893 46.0782 25.3937C46.1232 25.7544 46.208 25.9849 46.2166 26.3893C46.2237 26.7298 46.2293 27.6308 46.215 27.9317C46.208 28.0848 46.1409 28.0318 46.1387 28.1671C46.1502 28.6836 45.7012 28.9359 45.2427 28.698C45.2408 28.6969 45.2388 28.6958 45.2368 28.6947C45.045 28.5883 44.5391 28.4576 44.2363 28.3323C43.9618 28.2147 43.5191 27.9611 43.2966 27.898C42.5126 27.6713 41.6048 27.5406 40.878 27.5068C40.8709 27.5066 40.8639 27.5063 40.8569 27.5061C40.6428 27.4953 40.3715 27.4382 40.3092 27.4536C40.1885 27.4807 40.176 27.5753 40.1087 27.6054C39.7325 27.7705 39.4915 27.8787 39.4786 28.1904C39.4783 28.1966 39.4782 28.2028 39.4781 28.2092C39.2683 28.5917 40.8006 29.2098 41.887 29.5737C42.3412 29.7291 42.7927 29.9067 43.2279 30.113C44.2568 30.5431 45.9252 31.7393 46.3965 32.8216C46.5053 33.0398 46.3889 33.029 46.4798 33.2068C46.5771 33.4051 46.6811 33.4921 46.7247 33.5877C46.9609 34.0668 47.2024 35.0489 47.1901 35.7877C47.1884 36.0706 47.1634 36.313 47.1277 36.4884C47.102 36.615 47.0149 36.6961 47.0044 36.7702C46.9989 36.8074 47.0368 36.902 47.0198 37.0223C46.855 38.0818 46.4815 38.836 45.8136 39.6534C44.5193 41.2593 42.2285 42.1573 40.2334 42.2332C39.798 42.2555 39.4966 42.1087 39.4374 42.1118C39.3042 42.1166 39.2202 42.2188 38.9503 42.2396C38.8825 42.2445 38.8125 42.2479 38.7405 42.2498C37.827 42.2789 36.753 41.9649 35.9854 41.7772C35.5728 41.6812 34.9792 41.6043 34.5782 41.4673C34.2554 41.3656 33.5577 40.9749 33.4001 40.9483C33.3433 40.9405 33.2897 40.9626 33.2341 40.9744C32.9718 40.8407 32.7472 40.4386 32.7398 40.1442C32.7134 40.1153 32.6912 40.0834 32.6855 40.0405ZM43.4929 39.9338C43.5423 40.112 43.9133 39.6979 43.6936 39.7312C43.6454 39.7398 43.4829 39.8886 43.4929 39.9338ZM45.1462 25.4954C45.0967 25.5009 45.0472 25.5063 44.9977 25.5118C45.0183 25.5899 45.0389 25.668 45.0595 25.7461C45.0892 25.7022 45.119 25.6583 45.1487 25.6144C45.1479 25.5747 45.147 25.5351 45.1462 25.4954Z" fill="#121212"/>
</svg>
