<svg width="186" height="200" viewBox="0 0 186 200" fill="none" xmlns="http://www.w3.org/2000/svg">
<path d="M28.6539 52.5611C27.8613 52.764 26.6935 52.7235 25.7697 52.8923C25.597 52.9237 25.4296 52.9541 25.267 52.9835C25.2574 52.9855 25.2285 52.9909 25.2189 52.9928C22.7945 53.4149 21.4521 53.7352 19.6435 54.3179L19.6713 54.307C19.0235 54.5339 18.3224 54.7718 17.5381 55.0386C15.0245 55.9382 9.75213 57.6068 7.32431 59.7452C4.98278 61.5014 5.79801 64.4937 4.91516 64.8511C4.91511 64.8511 4.91507 64.8511 4.91503 64.8511C4.89804 64.856 4.88048 64.8596 4.86233 64.8619C4.50331 64.9136 3.87407 63.8262 3.48463 63.6834C3.12515 63.5086 0.431329 64.1522 0.438207 61.5293C0.411464 59.6319 2.1709 56.488 4.36964 55.0677C6.50304 53.5371 8.56421 52.8497 9.26592 52.4965C10.2333 52.0355 11.3561 51.3361 12.5835 50.8295C14.6021 49.9985 16.118 49.4758 17.5056 48.8622C17.5093 48.8608 17.5205 48.8563 17.5242 48.8549C19.0106 48.2254 20.463 47.6275 22.3383 46.8713C22.9185 46.8518 23.4967 46.8462 24.0721 46.8542L24.0404 46.8604C25.0613 46.8728 26.0727 46.8953 27.0789 46.9173C28.3598 46.5664 30.1229 46.385 31.4772 46.194C32.1724 46.0946 32.7674 46.0177 33.1599 45.9335C34.1411 45.7247 34.6746 45.369 35.6986 45.1857C36.8463 44.9776 38.6476 44.99 40.6893 44.6265C41.1036 44.5523 41.4729 44.4746 41.8056 44.3944C44.6063 43.8915 45.2153 43.5308 47.0414 43.4395C48.7172 43.3853 51.7285 43.6439 52.7273 43.0781C51.4284 43.9957 51.8975 44.0671 51.7816 44.053C51.7766 44.0301 51.785 43.8978 51.7794 43.7609C51.7285 43.5267 51.6659 43.2445 51.5948 42.9552C51.4252 43.1615 51.2512 43.3532 51.0732 43.5073C51.0424 42.5017 51.3457 41.8705 51.2808 40.6888C51.2483 40.0927 51.1634 39.855 51.0811 39.0619C50.9884 38.3853 50.8706 37.8427 50.8842 37.2041C50.9024 36.3531 51.2028 35.2082 51.2589 34.0983C51.3512 32.4771 50.9561 32.7973 50.9702 31.9068C50.8498 31.5795 51.8726 24.8997 52.1767 24.4937C52.5076 23.4233 52.853 22.737 53.1788 22.1945C53.1797 22.1924 53.1824 22.1859 53.1834 22.1838C53.6911 21.3896 54.1204 20.9307 54.7216 19.6938C57.2492 14.2939 60.9355 8.13294 66.3851 4.84748C68.7372 3.3524 71.4361 2.32472 74.01 1.71249C70.4525 4.0456 79.3295 2.81297 75.625 1.5984C76.343 1.50802 76.9643 1.40563 77.5907 1.28504C79.5722 0.913235 81.2963 0.479147 83.431 0.577734C85.2495 0.687035 86.473 1.04725 88.9717 1.45483C93.3887 2.15149 98.2962 3.29661 98.8352 5.17906C103.684 7.0556 106.944 10.1828 109.223 10.3963C110.37 11.1868 112.375 14.1919 113.239 15.4523C113.742 16.1143 116.266 19.4139 117.452 23.0315C118.326 26.2918 118.079 28.1661 118.223 28.9126C118.274 30.4159 118.934 33.3072 119.183 33.0764C119.112 33.0004 119.043 32.9413 118.985 32.8967C118.182 32.4898 119.22 32.4101 119.812 32.0871C120.544 31.8319 121.492 31.6803 123.279 32.1016C123.618 32.0232 123.927 31.9442 124.407 31.8871C127.21 31.5038 128.594 31.321 131.659 31.019C132.27 30.9563 132.38 31.1752 132.73 31.1199C133.46 31.0038 134.675 30.6331 135.975 30.4004C138.115 30.0175 139.421 30.3049 139.061 29.6019C140.458 29.2486 141.859 28.8968 143.266 28.551C143.784 28.6174 144.313 28.6831 144.832 28.7513C145.572 28.4799 146.309 28.2116 147.062 27.9452C146.298 29.1363 151.652 27.79 149.801 27.4C150.939 27.35 152.076 27.3125 153.254 27.3158C153.819 27.3203 154.444 27.3296 155.093 27.3753C155.427 27.3999 155.739 27.4271 156.179 27.4956C156.638 27.6677 156.845 27.2988 158.356 28.4834C158.908 29.106 159.3 29.7858 159.601 30.3619C158.546 30.6676 162.296 36.1925 162.66 35.5115C162.791 35.8358 162.898 36.1053 163.018 36.4119C163.757 39.1976 164.876 41.5791 165.732 44.8869C166.573 48.1908 166.363 47.9744 166.124 49.1066C166.39 49.8518 166.658 50.6111 166.926 51.383C169.618 54.9486 166.852 55.02 169.948 61.6029C169.625 64.0724 171.599 69.3962 172.825 72.9595C172.968 73.3734 173.154 73.3329 173.356 73.8818C173.852 75.2255 174.505 78.8023 175.068 78.533C175.204 79.7999 175.334 81.0581 175.463 82.3204C175.818 83.2953 176.17 84.2667 176.519 85.2327C176.704 85.1826 176.889 85.1324 177.074 85.0822C176.931 87.2557 177.927 90.3647 178.135 91.9485C178.175 92.2597 177.936 92.3966 178.091 93.3833C178.27 94.5296 178.829 96.6264 179.048 97.9844C179.449 98.4354 179.853 98.8988 180.256 99.3685C180.944 101.742 180.377 102.784 180.617 104.194C180.666 104.441 181.695 109.134 181.752 109.371C182.27 111.385 182.864 110.729 183.755 116.595C183.762 116.642 183.769 116.693 183.776 116.746C183.931 117.839 183.838 118.754 183.968 119.739C184.227 121.469 185.289 126.681 185.774 127.077C185.401 129.257 185.83 135.031 185.512 136.795C185.43 137.324 185.068 137.417 184.842 139.028C184.696 140.03 184.594 142.296 184.012 144.184L184.018 144.168C183.798 144.897 183.472 145.507 183.169 145.942C181.696 147.865 180.82 147.847 180.11 148.368C179.42 148.808 178.905 149.403 177.961 149.873C175.735 150.963 173.598 151.437 172.107 152.123C171.551 152.389 171.017 152.652 170.51 152.922C167.44 154.554 165.024 156.581 162.543 158.133C161.871 158.397 161.162 158.549 160.479 158.865C154.707 161.539 148.391 164.197 142.466 167.046C144.133 165.725 143.33 165.819 143.484 165.909C143.464 166.028 143.452 166.273 143.454 166.53C143.454 167.105 143.511 167.499 143.539 168.539C143.513 170.173 143.596 171.906 143.607 173.66C143.604 175.48 143.499 178.6 142.436 181.484C140.978 185.405 138.519 187.885 140.581 187.023C140.216 187.843 137.757 190.612 134.743 192.445C131.767 194.352 128.48 195.515 127.454 195.909C125.399 196.704 123.818 197.502 122.138 197.941C120.374 198.395 118.757 198.684 117.146 198.896C113.921 199.29 110.55 199.191 106.295 197.88C104.615 197.363 102.775 196.83 101.88 196.306C100.799 195.68 99.8838 194.665 98.6575 193.715C97.3658 192.723 95.6716 191.288 94.0786 189.708C92.3715 187.629 92.1938 186.831 91.4602 185.583C90.8467 184.438 90.3178 183.405 89.9116 182.588C89.6477 182.056 89.8316 181.731 89.5261 180.944C89.3594 180.513 89.175 180.071 88.9921 179.672C88.9 179.472 88.8056 179.278 88.7259 179.125C88.6849 179.046 88.6464 178.978 88.6349 178.953C88.6305 178.942 88.6323 178.944 88.6778 178.995C88.6961 179.013 88.7538 179.082 88.8745 179.185C88.9968 179.149 89.0731 179.871 90.9531 179.672L90.9807 179.665C88.7435 180.153 87.0483 180.743 87.6689 181.334C83.3187 181.729 79.5044 182.944 75.5836 183.629C67.4007 185.052 52.7255 186.858 45.8107 188.917C45.7275 188.941 45.6464 188.966 45.565 188.992C41.6576 190.236 42.3231 191.235 34.5255 192.448C32.7063 192.597 30.662 192.614 28.1746 191.748C26.3666 191.108 24.8121 189.924 23.7133 188.649C20.9468 185.18 21.0238 182.276 19.8607 179.983C19.5648 176.979 19.4715 174.483 19.3352 172.496C19.2133 170.922 19.1701 169.431 19.3005 167.956C19.037 167.581 18.773 167.207 18.5085 166.834C18.4152 166.267 18.3207 165.701 18.2249 165.136C18.3886 164.928 18.5521 164.72 18.7154 164.512C18.2745 161.54 17.2431 158.078 16.4198 155.136C16.0943 153.909 15.8708 152.791 15.7527 151.756C15.673 151.04 15.5946 150.194 15.577 149.172C15.6372 148.075 15.3505 147.192 16.3211 144.853C17.4889 142.962 18.2072 142.974 18.8334 142.566C19.4585 142.259 20.0054 142.057 20.5463 141.872C21.622 141.51 22.6532 141.243 23.6842 140.992C25.6595 140.508 28.0462 140.055 29.247 139.682C32.0704 138.642 34.577 136.282 35.905 134.915C37.7557 132.934 37.4329 132.548 39.0151 131.712C39.2934 131.16 39.5526 130.6 39.7901 130.037C39.8075 129.612 39.8117 129.194 39.8062 128.776C41.2246 125.933 42.3943 122.275 41.8471 119.658C41.8121 119.475 41.7735 119.294 41.7317 119.117C41.1069 116.339 39.2828 113.101 36.6325 110.635C34.0092 108.129 30.7179 106.438 27.9808 105.462C27.6953 105.357 27.3962 105.243 27.0861 105.127C26.2926 104.763 24.8637 104.524 23.7173 104.648C21.5646 104.909 21.1634 105.647 18.3556 106.318C18.0419 106.396 17.7095 106.476 17.355 106.56L17.3756 106.555C15.2271 106.86 14.8937 106.605 13.6362 106.445C13.0802 106.339 12.5065 106.21 11.8306 105.969C11.1618 105.603 10.33 105.788 9.0139 103.709L9.0195 103.72C7.41772 97.9366 6.99447 93.3894 6.15709 90.0638C5.82424 88.6358 5.4472 88.0313 5.20676 87.0542C4.1974 82.9586 3.48603 79.5703 2.27435 75.6989C1.96646 71.3487 2.81564 71.5218 3.31686 70.0478C3.68892 68.9117 4.41693 65.6267 4.78861 64.9603C5.06267 64.5072 5.84164 65.7153 6.12515 65.132C7.58916 70.2429 7.6625 72.3783 7.99646 76.6413C9.66764 84.2274 11.3085 91.8811 13.1421 99.3612C13.0838 100.048 13.0533 100.84 13.0173 101.486C13.0169 101.486 13.0164 101.487 13.0159 101.487C13.0324 101.603 13.1079 101.827 13.0459 101.707C12.5332 101.161 13.131 101.719 13.4588 101.703C13.8407 101.779 14.2327 101.794 14.5893 101.78C15.2221 101.755 16.2061 101.596 16.1518 101.538C16.1359 101.541 16.1166 101.544 16.0928 101.549C16.0958 101.549 16.1047 101.547 16.1076 101.546C19.246 100.637 22.8208 98.9838 28.4054 99.88C36.5437 101.599 45.2834 108.757 47.0681 118.611C48.0648 124.777 45.6004 129.908 43.05 134.008C40.3816 138.113 37.1308 141.356 33.6289 143.448C33.0526 143.787 32.2627 144.234 31.236 144.654C29.216 145.39 27.3682 145.735 25.3423 146.295C24.3544 146.56 23.3714 146.84 22.519 147.14C21.7714 147.281 20.5967 148.299 21.3815 147.382C21.2313 147.581 21.1795 149.506 21.1443 150.007C21.0969 150.608 20.7715 150.815 20.8347 151.472C20.9774 152.366 21.1546 153.279 21.3579 154.148C22.5651 159.286 23.5783 164.457 24.5164 169.631C24.5893 170.328 24.6637 171.025 24.7397 171.722C25.2169 176.772 25.127 182.32 27.4824 184.876C29.2946 186.74 31.9617 186.934 34.9533 186.214C37.9543 185.533 40.912 184.102 44.5456 183.211C45.0155 183.102 45.4871 182.996 45.9584 182.893C60.7697 179.652 75.6535 178.38 89.7517 174.753C89.7577 174.751 89.7756 174.747 89.7815 174.746C92.0572 174.556 92.0128 175.384 92.2234 175.383C92.3936 175.535 92.4993 175.662 92.5464 175.717C92.6628 175.855 92.7489 175.975 92.8024 176.051C92.9305 176.234 93.0054 176.354 93.0951 176.498C93.2494 176.748 93.3922 176.996 93.5198 177.222C93.7814 177.685 94.0223 178.131 94.2611 178.577C94.734 179.461 95.192 180.338 95.6496 181.204C96.4773 182.789 97.7598 185.129 98.1493 185.642C103.249 190.788 109.715 194.37 116.338 193.277C123.542 192.172 131.008 189.369 135.383 184.236C136.408 183.011 137.266 181.546 137.778 179.927C138.737 176.95 138.126 172.696 138.133 168.539C138.127 167.954 137.915 166.659 138.15 165.047C138.382 164.523 137.944 163.648 140.07 162.233C142.057 161.405 143.351 161.214 146.062 159.545C146.158 159.664 146.255 159.784 146.352 159.903C149.091 158.433 150.756 157.312 153.885 155.848C156.535 154.629 163.438 151.366 165.695 150.235C166.876 149.66 166.57 150.133 167.654 149.562C168.254 149.244 169.055 148.768 169.938 148.214C172.23 146.866 174.622 145.885 176.14 145.044C177.437 144.397 178.941 143.37 179.197 142.591C179.198 142.588 179.201 142.578 179.203 142.574C179.563 141.657 179.78 140.649 179.865 139.956C180.584 133.196 179.239 125.203 178.182 117.651C178.175 117.608 178.169 117.565 178.163 117.523C177.877 115.479 177.706 112.75 177.575 112.133C177.296 110.814 176.88 110.527 176.661 109.667C175.547 105.268 174.441 98.3532 173.446 94.0185C170.219 79.9468 166.287 65.1539 162.163 51.4376C161.301 48.5984 160.217 45.1727 158.945 41.6084C157.727 38.2207 156.027 33.8055 154.671 32.1651C155.913 33.1055 155.631 32.6481 155.632 32.7374C155.551 32.7246 155.402 32.7121 155.211 32.7065C154.86 32.6957 154.437 32.7056 153.994 32.727C153.137 32.7689 152.267 32.8442 151.401 32.928C149.699 33.0942 148.084 33.2871 146.667 33.4488C144.879 33.6569 145.29 33.2073 143.799 33.4373C142.138 33.6965 141.277 34.099 140.503 34.2445C136.917 34.8934 130.587 36.216 124.864 36.8456C124.139 36.9496 122.486 37.3644 121.246 37.548C119.824 37.6277 118.955 38.2796 116.323 37.0379C116.132 36.9155 115.91 36.7414 115.72 36.5433C114.483 35.0556 114.672 34.128 114.428 33.468C114.322 33.1084 113.925 32.3586 113.755 31.3377C113.313 28.6475 113.224 25.9725 112.792 24.7826C111.211 20.7797 108.429 17.3903 104.36 14.1824C97.56 8.9209 87.6428 5.35628 78.6092 6.96484C72.2906 8.06037 66.8199 11.0031 63.3923 15.8629C61.5012 18.4587 60.0144 20.3763 59.7935 20.8004C59.3477 21.7569 59.4168 22.5263 58.6628 24.5333C58.6619 24.537 58.6578 24.5483 58.6537 24.5596C57.2191 28.4074 56.6096 33.8685 56.5815 39.0619C56.615 39.759 56.7192 41.131 56.7374 42.2109C56.7481 42.7848 56.7498 43.3585 56.7038 44.0045C56.6782 44.3313 56.6472 44.6662 56.5535 45.1045C56.31 45.5521 56.804 46.0804 54.9034 47.4314C53.6802 48.0248 52.7458 48.1513 51.8778 48.294C48.7486 48.757 44.737 48.6852 42.6031 49.1907C41.8547 49.3615 41.1433 49.5106 40.4859 49.6348C38.543 50.0002 34.799 50.474 32.548 51.0214C31.5624 51.2521 30.806 51.4344 30.4762 51.5662C29.7697 51.8465 29.5137 52.3385 28.6539 52.5611ZM91.5289 2.33194C90.8779 2.81535 96.2096 3.82189 94.385 2.87219C93.9737 2.63444 91.7019 2.17342 91.5289 2.33194ZM148.711 162.918C148.836 163.079 148.961 163.239 149.086 163.399C149.656 163.045 150.227 162.692 150.799 162.34C150.409 162.388 150.018 162.436 149.628 162.484C149.323 162.628 149.016 162.774 148.711 162.918Z" fill="#121212"/>
</svg>
