<svg width="106" height="108" viewBox="0 0 106 108" fill="none" xmlns="http://www.w3.org/2000/svg">
<path d="M96.8514 14.9396C96.6583 14.6968 96.6488 14.1806 96.4461 13.8476C95.6031 12.4919 95.3566 11.9114 94.4026 10.7035C93.1168 8.78985 87.2558 5.0263 88.0769 3.53346C88.0769 3.53342 88.0769 3.53338 88.0769 3.53335C88.0864 3.51841 88.0965 3.50369 88.1075 3.4892C88.3138 3.21235 89.0603 3.24595 89.3527 2.97453C89.6448 2.70324 90.96 0.558716 91.8375 0.981602C93.094 1.56853 95.3809 4.19058 95.9217 4.67968C96.3068 4.99383 96.9327 5.258 97.4418 5.70018C99.0325 7.10247 99.6485 8.06387 101.331 9.31397C101.517 10.1319 101.703 11.0154 101.803 11.8364C102.467 12.6466 102.738 14.2264 102.984 14.7938C103.193 15.2561 103.535 15.431 103.724 15.9412C103.935 16.5161 103.934 17.4556 104.196 18.5069C104.598 20.2186 105.266 20.4718 105.439 21.5648C105.608 22.705 105.217 24.445 105.286 25.8741C105.34 26.0598 105.392 26.2466 105.442 26.4342C105.625 26.3283 105.807 26.2197 105.989 26.1087C105.978 26.8505 105.59 27.1115 105.472 27.763C105.327 28.5286 105.559 28.9823 105.44 29.4968C105.341 29.9184 104.947 30.4148 104.814 30.9469C104.616 31.7226 105.023 31.6618 104.964 32.0977C104.967 32.2835 104.089 35.3474 104.001 35.5008C103.503 36.7598 102.979 36.6576 102.504 37.6013C101.182 40.2032 100.122 42.9852 98.9585 45.3242C98.4382 46.3712 97.8034 47.395 97.1676 48.3264C96.9218 46.1189 94.0573 49.0181 96.5805 48.7787C95.7921 49.618 95.752 50.554 95.321 51.4006C95.261 51.5177 95.1936 51.6349 95.1172 51.7523C94.5978 52.5395 94.053 52.8739 93.3361 53.9159C92.1275 55.666 91.2775 57.9161 89.7798 57.4054C88.415 59.4015 86.6291 60.5067 86.9625 62.0422C86.6168 62.5243 84.9412 63.1388 84.401 63.531C83.8949 63.9278 80.1036 67.1241 79.5047 67.6368C78.8943 68.1851 77.8656 69.1083 77.4372 69.6536C76.8972 70.3377 77.3699 71.7307 75.1861 71.571C73.9512 72.8415 73.4615 73.2105 72.1014 74.1487C71.8577 74.3158 71.6796 74.1605 71.5495 74.2726C71.2817 74.5036 70.9365 75.0283 70.4648 75.458C69.6863 76.1668 68.9222 76.1656 69.4935 76.667C69.0497 77.2061 68.6013 77.7459 68.1486 78.2859C67.8704 78.3286 67.5929 78.3703 67.3148 78.4121C67.1327 78.7678 66.9492 79.1237 66.7643 79.4799C66.4106 78.3661 64.8078 80.5019 65.8532 80.4545C64.6783 81.1201 63.4896 81.7852 62.3067 82.4343C61.6888 81.3519 59.9175 84.1287 60.532 84.4979C60.4106 84.5909 60.2891 84.6839 60.1675 84.7768C58.9085 85.3354 58.0947 86.2965 56.6579 87.1003C55.2239 87.899 55.2688 87.7116 54.5339 87.5495C54.2453 87.8035 53.9564 88.0567 53.6675 88.3089C52.9607 90.7507 51.6737 88.3678 49.5598 91.3271C48.1008 91.1591 46.1747 93.114 44.835 94.3574C44.6791 94.5025 44.7812 94.6629 44.5805 94.8662C44.0907 95.3624 42.4993 96.1035 42.877 96.5879C42.2693 96.7684 41.6654 96.9428 41.0658 97.1109C40.7122 97.4655 40.3399 97.8292 39.9786 98.1833C40.0813 98.3448 40.184 98.5064 40.2867 98.6679C39.102 98.635 37.8787 99.6622 37.1338 99.916C36.9859 99.9659 36.8233 99.7559 36.3798 99.9301C35.8543 100.137 34.9726 100.729 34.3599 100.973C34.2778 101.353 34.1976 101.731 34.1007 102.118C33.1002 102.842 32.3811 102.344 31.7306 102.614C31.6346 102.657 30.36 103.339 29.7715 103.644C29.5865 103.74 29.4597 103.805 29.4346 103.821C28.4862 104.36 29.1118 104.967 25.96 105.83C25.3847 105.968 24.9002 105.854 24.366 105.958C23.5067 106.193 20.6382 106.915 20.3599 107.33C19.137 106.806 15.9109 106.392 15.0781 105.799C14.8277 105.643 14.9012 105.282 14.1563 104.85C13.5528 104.521 11.8599 103.866 11.2021 103.275C10.4999 102.669 10.4752 102.205 10.1918 101.923C9.92841 101.655 9.49579 101.602 9.13321 101.228C8.0084 100.056 7.48292 98.6648 6.81514 97.6551C5.85479 96.1946 4.4606 95.1943 3.51777 93.977C3.40638 93.6199 3.40824 93.2227 3.25848 92.8699C1.86532 89.5752 0.891529 85.813 0.475192 82.1195L0.312405 80.7203L1.28068 79.8792C2.14801 79.1364 3.0108 78.4032 3.84923 77.695C5.41687 76.368 9.90199 73.7043 7.73006 73.3389C8.05423 72.6347 12.3792 69.6705 13.1227 69.0198C13.865 68.3671 14.2425 67.6125 14.8179 67.0918C16.5574 65.5208 17.9387 64.583 19.9282 62.4896C20.4368 61.9535 20.8187 61.1423 21.1763 60.8479C21.3331 60.7192 21.566 60.5986 21.7838 60.5099C22.2145 60.3057 22.5786 60.1567 23.3134 59.7479C23.7524 59.579 24.1409 59.1123 25.8332 59.2241C27.7629 59.5315 28.4258 60.9138 28.6466 61.2659C29.1274 62.1949 29.2244 62.546 29.4475 62.9865C29.8344 63.7963 30.2987 64.4341 30.6503 64.8977C30.7719 65.0594 30.5941 65.3327 30.7385 65.6275C31.3292 66.8251 32.6919 67.6865 33.016 66.7029C33.8948 67.8846 35.3321 68.3057 36.66 68.732C36.9034 68.8081 37.1379 68.8788 37.3633 68.9524C38.8229 69.451 40.8005 69.7532 42.7715 69.1619C44.7442 68.6135 46.6573 67.2499 47.7037 66.1474C49.0252 64.7089 48.6793 64.4663 51.0265 62.6334C51.5518 62.2082 52.0843 61.803 52.7083 61.2564C54.1652 59.9815 55.962 59.0886 56.1347 57.2843C57.7117 55.7264 58.654 54.2004 60.3418 53.4037C60.3006 53.1229 60.2583 52.8433 60.2161 52.5637C60.3796 52.3429 60.5436 52.1213 60.7081 51.8991C60.9148 51.9493 61.1216 51.9994 61.3285 52.0495C62.2831 50.8738 63.0401 49.1374 63.8255 47.791C64.0347 47.419 64.2262 47.0886 64.4192 46.8185C66.1258 44.9272 68.2172 39.413 67.9866 37.0387C68.0263 35.8137 67.5831 35.8256 68.3091 34.9669C68.1997 34.6972 68.0846 34.4301 67.964 34.1631C67.742 34.0291 67.5189 33.9003 67.2948 33.7749C66.9102 32.215 66.4979 30.2216 65.8762 28.6326C65.1711 26.4098 63.002 23.6798 63.4719 19.122C63.8042 17.3714 64.5468 16.3982 65.1736 15.6258C65.8245 14.8564 66.8721 14.2714 67.4582 13.6739C68.3214 12.8078 68.1142 12.121 69.2738 11.108C71.2791 9.33674 75.5913 7.24249 77.5651 5.93447C78.1525 5.53854 78.3025 5.16277 78.7052 4.881C80.3894 3.70387 81.8396 2.8685 83.3689 1.57566C85.5094 1.07686 85.7295 1.87446 86.6836 2.26467C87.3949 2.56367 89.3776 3.10246 89.7875 3.48971C90.0838 3.75515 89.8333 4.4235 90.1987 4.69533C88.2221 6.09852 87.1606 6.28492 85.1661 6.76248C82.0161 8.60858 78.9318 10.5637 76.0289 12.6837C75.6356 12.6922 75.2344 12.7091 74.8394 12.7248C74.8391 12.7244 74.8388 12.724 74.8385 12.7236C73.5672 13.3531 73.4751 14.1718 72.9886 14.7399C71.679 16.2761 69.225 18.9475 69.099 20.0618C68.7881 21.7801 70.6964 25.8923 71.8103 29.5828C73.0236 33.376 73.4235 37.504 72.8923 40.6439C72.8936 42.6825 70.5086 48.7485 69.2931 49.4996C69.0201 49.7338 68.6865 49.61 68.4734 49.8829C68.2611 50.2242 68.0365 50.5674 67.7994 50.9121C66.3651 53.027 64.9563 55.1715 63.5232 57.3189C59.3435 61.7741 55.8919 67.186 50.6291 71.3042C46.6057 74.6848 39.7539 76.5713 34.408 74.0513C31.7314 72.9425 29.0624 71.5137 26.8071 69.1738C25.689 68.0163 24.7324 66.5619 24.1007 65.1377C23.9421 64.7905 23.8023 64.4545 23.6946 64.2179C23.6807 64.0058 23.2063 63.8241 24.2493 64.6492C25.9348 65.365 26.213 64.6291 26.1001 64.8105C26.0221 64.8597 25.8234 65.0079 25.6053 65.1903C21.1108 69.0566 16.5212 73.2838 11.9845 77.3286C9.78611 79.2966 7.20674 81.9469 4.92964 83.8758L5.83365 81.3614C5.85048 81.5309 5.8674 81.701 5.88405 81.8709C6.00814 83.0437 5.55775 83.6704 6.33105 85.1132C6.19043 85.1655 6.04987 85.218 5.90937 85.2707C6.42959 86.5776 7.00222 87.3268 7.54508 88.7605C7.9678 89.9919 9.40495 93.0493 9.96123 93.996C10.2315 94.501 9.8823 94.465 10.1722 94.9197C10.6661 95.7116 12.1328 97.0163 12.9758 97.8201C13.7093 98.5938 14.9462 99.9002 15.6892 100.215C18.3163 101.47 21.3392 101.164 24.3939 100.383C25.2435 100.184 26.482 100.076 26.7316 99.9543C27.2402 99.7127 27.2513 99.3181 27.5823 99.1102C27.5829 99.1098 27.5836 99.1094 27.5842 99.109C29.3327 98.0269 32.3987 96.837 34.208 95.7927C40.0769 92.4367 45.9601 88.229 51.4691 84.2514C54.9643 81.7512 60.5521 77.2966 63.7735 74.9601C64.4696 74.4595 64.5376 74.902 65.0915 74.4421C65.7086 73.9284 65.8724 73.4513 66.1439 73.1956C68.0362 71.4313 72.1415 67.4881 74.0984 66.0346C74.4758 65.7583 74.926 65.7529 75.128 65.5648C75.2312 65.4695 75.32 65.1075 75.6269 64.7929C78.3391 62.0003 80.4393 60.1201 83.0937 57.4175C85.628 54.7938 88.3568 51.6714 90.0169 48.577C91.9268 44.9356 93.9912 41.6019 95.7813 38.376C96.5793 36.9518 97.5852 36.1996 97.6797 35.9856C97.8805 35.5241 97.6568 35.0646 97.9619 34.1036C99.0103 30.938 100.599 26.8021 100.448 23.7941C100.423 22.3087 99.7332 20.4026 99.2998 19.1353C99.0276 18.1028 98.2281 15.6319 97.7691 15.3256C97.5133 15.1257 97.0666 15.2091 96.8514 14.9396ZM92.3249 54.7364C91.9138 54.151 90.8184 56.4795 91.6945 55.9684C91.895 55.8555 92.4248 54.9077 92.3249 54.7364ZM2.39911 86.5914C2.21339 86.6635 2.02778 86.736 1.84226 86.8088C2.00623 87.1091 2.17658 87.418 2.34646 87.711C2.40988 87.5008 2.47326 87.2861 2.53888 87.0749C2.49113 86.9132 2.44455 86.752 2.39911 86.5914Z" fill="#121212"/>
</svg>
