<svg width="187" height="200" viewBox="0 0 187 200" fill="none" xmlns="http://www.w3.org/2000/svg">
<path d="M3.41129 65.3502C3.76774 66.5906 10.89 100.657 11.7891 102.456C12.334 103.558 16.18 103.821 16.8702 103.644C19.9058 102.889 24.828 101.676 27.9884 102.476C36.1097 104.504 43.023 110.91 44.6736 119.14C46.3673 127.601 38.1008 139.534 30.6244 142.521C28.4947 143.374 20.3326 144.666 19.5039 146.322C18.6775 147.977 19.4449 152.746 19.7945 154.506C20.9434 160.223 21.9037 166.321 22.7233 172.045C23.3227 176.232 23.2001 183.334 26.2334 186.366C31.5371 191.664 39.5607 186.761 45.2912 185.493C60.3053 182.16 75.6374 181.058 90.6311 177.307C91.0603 177.205 95.2787 186.332 96.482 187.541C102.026 193.075 108.749 197.191 116.97 196.016C126.072 194.701 137.59 190.056 140.673 180.813C141.908 177.125 141.259 172.458 141.259 168.539C141.259 167.843 140.85 165.088 141.554 164.739C151.108 159.967 161.774 155.758 171.401 150.417C174.548 148.671 180.653 147.254 181.913 143.401C184.09 136.897 182.505 123.598 181.409 117.022C178.123 97.1333 163.186 36.4177 156.918 30.1563C155.472 28.7049 132.55 33.3788 124.848 34.0954C123.475 34.2202 118.843 35.6965 117.824 34.6783C115.946 32.8028 116.457 26.4462 115.485 23.8609C110.983 11.8756 92.788 1.82699 78.3914 4.40774C64.9642 6.81614 60.5619 14.4813 56.6636 23.5729C54.6952 28.206 54.3206 34.075 54.3206 39.0619C54.3206 39.7196 54.8836 44.7745 54.03 45.2008C51.4871 46.473 45.323 45.5818 42.326 46.0807C38.9227 46.6454 35.4807 47.0786 32.082 47.8315C29.7162 48.3576 27.2256 48.8043 24.769 49.2964C22.6689 49.6888 20.6096 50.2761 18.6162 51.0495C10.9422 54.1019 0.829837 56.3266 3.41129 65.3502Z" fill="#156BD8"/>
<path d="M28.8945 52.5611C28.1019 52.764 26.9341 52.7235 26.0103 52.8923C25.8376 52.9237 25.6702 52.9541 25.5076 52.9835C25.498 52.9855 25.4691 52.9909 25.4595 52.9928C23.0351 53.4149 21.6927 53.7352 19.8841 54.3179L19.9119 54.307C19.2641 54.5339 18.563 54.7718 17.7787 55.0386C15.2651 55.9382 9.99273 57.6068 7.56491 59.7452C6.37889 60.787 6.01989 61.6813 5.8067 62.752C5.61082 63.7997 5.59665 64.7241 5.15576 64.8511C5.15571 64.8511 5.15567 64.8511 5.15563 64.8511C5.13864 64.856 5.12108 64.8596 5.10293 64.8619C4.74391 64.9136 4.11467 63.8262 3.72523 63.6834C3.36575 63.5086 0.67193 64.1522 0.678808 61.5293C0.652065 59.6319 2.4115 56.488 4.61024 55.0677C6.74364 53.5371 8.80481 52.8497 9.50652 52.4965C10.4739 52.0355 11.5967 51.3361 12.8241 50.8295C14.8427 49.9985 16.3586 49.4758 17.7462 48.8622C17.7499 48.8608 17.7611 48.8563 17.7648 48.8549C19.2512 48.2254 20.7036 47.6275 22.5789 46.8713C23.1591 46.8518 23.7373 46.8462 24.3127 46.8542L24.281 46.8604C25.3019 46.8728 26.3133 46.8953 27.3195 46.9173C28.6004 46.5664 30.3635 46.385 31.7178 46.194C32.413 46.0946 33.008 46.0177 33.4005 45.9335C34.3817 45.7247 34.9152 45.369 35.9392 45.1857C37.0869 44.9776 38.8882 44.99 40.9299 44.6265C41.3442 44.5523 41.7135 44.4746 42.0462 44.3944C44.8469 43.8915 45.4559 43.5308 47.282 43.4395C48.9578 43.3853 51.9691 43.6439 52.9679 43.0781C52.2324 43.4883 52.1747 43.8104 52.0909 43.9219C52.03 44.0433 52.0275 44.0612 52.0222 44.053C52.0172 44.0301 52.0256 43.8978 52.02 43.7609C51.9691 43.5267 51.9065 43.2445 51.8354 42.9552C51.6658 43.1615 51.4918 43.3532 51.3138 43.5073C51.283 42.5017 51.5863 41.8705 51.5214 40.6888C51.5049 40.4154 51.476 40.1655 51.4405 39.9262C51.423 39.8084 51.4033 39.6885 51.3831 39.5668C51.3629 39.4239 51.3399 39.3654 51.3217 39.0619C51.229 38.3853 51.1112 37.8427 51.1248 37.2041C51.143 36.3531 51.4434 35.2082 51.4995 34.0983C51.5918 32.4771 51.1967 32.7973 51.2108 31.9068C51.0904 31.5795 52.1132 24.8997 52.4173 24.4937C52.7482 23.4233 53.0936 22.737 53.4194 22.1945C53.4203 22.1924 53.423 22.1859 53.424 22.1838C53.9317 21.3896 54.361 20.9307 54.9622 19.6938C57.4898 14.2939 61.1761 8.13294 66.6257 4.84748C68.9778 3.3524 71.6767 2.32472 74.2506 1.71249C70.6931 4.0456 79.5701 2.81297 75.8656 1.5984C76.5836 1.50802 77.2049 1.40563 77.8313 1.28504C79.8128 0.913235 81.5369 0.479147 83.6716 0.577734C85.4901 0.687035 86.7136 1.04725 89.2123 1.45483C93.6293 2.15149 98.5368 3.29661 99.0758 5.17906C103.925 7.0556 107.184 10.1828 109.463 10.3963C110.611 11.1868 112.616 14.1919 113.48 15.4523C113.982 16.1143 116.506 19.4139 117.693 23.0315C118.566 26.2918 118.319 28.1661 118.464 28.9126C118.515 30.4159 119.175 33.3072 119.424 33.0764C119.353 33.0004 119.284 32.9413 119.226 32.8967C118.948 32.6987 118.907 32.6952 118.933 32.6439C118.961 32.6014 119.055 32.5525 119.167 32.492C119.393 32.372 119.695 32.2153 120.053 32.0871C120.785 31.8319 121.733 31.6803 123.519 32.1016C123.858 32.0232 124.167 31.9442 124.648 31.8871C127.451 31.5038 128.835 31.321 131.899 31.019C132.51 30.9563 132.621 31.1752 132.97 31.1199C133.7 31.0038 134.915 30.6331 136.216 30.4004C138.356 30.0175 139.661 30.3049 139.302 29.6019C140.699 29.2486 142.099 28.8968 143.506 28.551C144.025 28.6174 144.553 28.6831 145.073 28.7513C145.813 28.4799 146.549 28.2116 147.303 27.9452C146.538 29.1363 151.893 27.79 150.042 27.4C151.18 27.35 152.316 27.3125 153.495 27.3158C154.06 27.3203 154.685 27.3296 155.334 27.3753C155.476 27.3866 155.679 27.4012 155.85 27.4199C156.025 27.439 156.193 27.46 156.419 27.4956C156.639 27.533 156.817 27.5641 157.154 27.6585C157.318 27.7079 157.442 27.7471 157.684 27.8535C157.945 27.9736 158.259 28.1415 158.597 28.4834C158.869 28.7891 159.104 29.1147 159.33 29.4642C159.536 29.7892 159.675 30.0465 159.842 30.3619C158.787 30.6676 162.536 36.1925 162.901 35.5115C163.032 35.8358 163.139 36.1053 163.259 36.4119C163.998 39.1976 165.117 41.5791 165.973 44.8869C166.814 48.1908 166.603 47.9744 166.365 49.1066C166.631 49.8518 166.898 50.6111 167.167 51.383C169.859 54.9486 167.093 55.02 170.189 61.6029C169.866 64.0724 171.84 69.3962 173.066 72.9595C173.209 73.3734 173.395 73.3329 173.597 73.8818C174.092 75.2255 174.745 78.8023 175.308 78.533C175.444 79.7999 175.575 81.0581 175.703 82.3204C176.059 83.2953 176.411 84.2667 176.76 85.2327C176.945 85.1826 177.13 85.1324 177.314 85.0822C177.172 87.2557 178.168 90.3647 178.376 91.9485C178.416 92.2597 178.177 92.3966 178.332 93.3833C178.51 94.5296 179.069 96.6264 179.289 97.9844C179.69 98.4354 180.093 98.8988 180.497 99.3685C181.185 101.742 180.618 102.784 180.858 104.194C180.906 104.441 181.936 109.134 181.993 109.371C182.511 111.385 183.105 110.729 183.995 116.595C184.002 116.642 184.01 116.693 184.017 116.746C184.171 117.839 184.079 118.754 184.209 119.739C184.468 121.469 185.53 126.681 186.014 127.077C185.642 129.257 186.07 135.031 185.753 136.795C185.67 137.324 185.308 137.417 185.083 139.028C184.937 140.03 184.834 142.296 184.253 144.184L184.258 144.168C184.039 144.897 183.712 145.507 183.41 145.942C181.937 147.865 181.061 147.847 180.351 148.368C179.66 148.808 179.145 149.403 178.202 149.873C175.976 150.963 173.838 151.437 172.347 152.123C171.792 152.389 171.257 152.652 170.75 152.922C167.681 154.554 165.264 156.581 162.784 158.133C162.112 158.397 161.402 158.549 160.719 158.865C154.947 161.539 148.631 164.197 142.707 167.046C143.183 166.805 143.425 166.485 143.545 166.3C143.664 166.108 143.695 166.004 143.715 165.944C143.75 165.826 143.731 165.855 143.725 165.909C143.705 166.028 143.692 166.273 143.694 166.53C143.696 166.791 143.708 167.079 143.725 167.383C143.734 167.537 143.744 167.695 143.754 167.867C143.764 168.05 143.778 168.193 143.78 168.539C143.753 170.173 143.837 171.906 143.848 173.66C143.844 175.48 143.74 178.6 142.677 181.484C141.219 185.405 138.76 187.885 140.822 187.023C140.457 187.843 137.997 190.612 134.984 192.445C132.008 194.352 128.721 195.515 127.695 195.909C125.639 196.704 124.059 197.502 122.378 197.941C120.614 198.395 118.998 198.684 117.386 198.896C114.162 199.29 110.79 199.191 106.535 197.88C104.856 197.363 103.015 196.83 102.12 196.306C101.04 195.68 100.124 194.665 98.8981 193.715C97.6064 192.723 95.9122 191.288 94.3192 189.708C93.6546 188.997 93.5444 188.732 93.2901 188.359C93.0719 188.016 92.8817 187.696 92.6991 187.381C92.334 186.751 92.0093 186.157 91.7008 185.583C91.0873 184.438 90.5584 183.405 90.1522 182.588C89.8883 182.056 90.0722 181.731 89.7667 180.944C89.6 180.513 89.4156 180.071 89.2327 179.672C89.1406 179.472 89.0462 179.278 88.9665 179.125C88.9255 179.046 88.887 178.978 88.8755 178.953C88.8711 178.942 88.8729 178.944 88.9184 178.995C88.9367 179.013 88.9944 179.082 89.1151 179.185C89.1463 179.211 89.1828 179.241 89.2271 179.274C89.251 179.292 89.2676 179.304 89.3053 179.33C89.3547 179.363 89.4125 179.4 89.4825 179.439C89.7457 179.576 90.2957 179.867 91.1937 179.672L91.2213 179.665C88.9841 180.153 87.2889 180.743 87.9095 181.334C83.5593 181.729 79.745 182.944 75.8242 183.629C67.6413 185.052 52.9661 186.858 46.0513 188.917C45.9681 188.941 45.887 188.966 45.8056 188.992C41.8982 190.236 42.5637 191.235 34.7661 192.448C32.9469 192.597 30.9026 192.614 28.4152 191.748C26.6072 191.108 25.0527 189.924 23.9539 188.649C21.1874 185.18 21.2644 182.276 20.1013 179.983C19.8054 176.979 19.7121 174.483 19.5758 172.496C19.4539 170.922 19.4107 169.431 19.5411 167.956C19.2776 167.581 19.0136 167.207 18.7491 166.834C18.6558 166.267 18.5613 165.701 18.4655 165.136C18.6292 164.928 18.7927 164.72 18.956 164.512C18.5151 161.54 17.4837 158.078 16.6604 155.136C16.3349 153.909 16.1114 152.791 15.9933 151.756C15.9136 151.04 15.8352 150.194 15.8176 149.172C15.8778 148.075 15.5911 147.192 16.5617 144.853C17.1226 143.817 17.6293 143.499 18.0274 143.187C18.4288 142.9 18.7651 142.72 19.074 142.566C19.6991 142.259 20.246 142.057 20.7869 141.872C21.8626 141.51 22.8938 141.243 23.9248 140.992C25.9001 140.508 28.2868 140.055 29.4876 139.682C32.311 138.642 34.8176 136.282 36.1456 134.915C37.9963 132.934 37.6735 132.548 39.2557 131.712C39.534 131.16 39.7932 130.6 40.0307 130.037C40.0481 129.612 40.0523 129.194 40.0468 128.776C41.4652 125.933 42.6349 122.275 42.0877 119.658C42.0527 119.475 42.0141 119.294 41.9723 119.117C40.9754 113.289 33.8144 107.105 28.2214 105.462C27.9359 105.357 27.6368 105.243 27.3267 105.127C26.5332 104.763 25.1043 104.524 23.9579 104.648C21.8052 104.909 21.404 105.647 18.5962 106.318C18.2825 106.396 17.9501 106.476 17.5956 106.56L17.6162 106.555C17.1155 106.67 16.9854 106.659 16.7807 106.677C16.6007 106.687 16.4445 106.69 16.3023 106.689C16.0119 106.688 15.7477 106.674 15.482 106.654C14.9535 106.614 14.4307 106.547 13.8768 106.445C13.3208 106.339 12.7471 106.21 12.0712 105.969C11.7306 105.845 11.3654 105.699 10.9153 105.437C10.4849 105.154 9.84897 104.838 9.2545 103.709L9.2601 103.72C7.65832 97.9366 7.23507 93.3894 6.39769 90.0638C6.06484 88.6358 5.6878 88.0313 5.44736 87.0542C4.43801 82.9586 3.72663 79.5703 2.51495 75.6989C2.20706 71.3487 3.05625 71.5218 3.55746 70.0478C3.92952 68.9117 4.65753 65.6267 5.02921 64.9603C5.14847 64.6929 5.44614 64.9683 5.70084 65.1148C5.9553 65.249 6.22387 65.431 6.36575 65.132C7.82976 70.2429 7.9031 72.3783 8.23706 76.6413C9.90824 84.2274 11.5491 91.8811 13.3827 99.3612C13.3244 100.048 13.2939 100.84 13.2579 101.486C13.2575 101.486 13.257 101.487 13.2565 101.487C13.2724 101.563 13.2805 101.611 13.2956 101.674C13.3111 101.74 13.3236 101.774 13.2865 101.707C13.0195 101.324 13.0664 101.515 13.1936 101.546C13.3217 101.608 13.5115 101.665 13.6994 101.703C14.0813 101.779 14.4733 101.794 14.8299 101.78C15.1876 101.765 15.5217 101.723 15.8296 101.675C15.9814 101.65 16.1315 101.624 16.2602 101.597C16.3659 101.575 16.573 101.525 16.3924 101.538C16.3765 101.541 16.3572 101.544 16.3334 101.549C16.3364 101.549 16.3453 101.547 16.3482 101.546C19.4866 100.637 23.0614 98.9838 28.646 99.88C36.7843 101.599 45.524 108.757 47.3087 118.611C48.4162 130.961 40.4205 139.123 33.8695 143.448C33.2932 143.787 32.5033 144.234 31.4766 144.654C29.4566 145.39 27.6088 145.735 25.5829 146.295C24.595 146.56 23.612 146.84 22.7596 147.14C22.3367 147.288 21.9404 147.446 21.653 147.589C21.5123 147.658 21.3994 147.726 21.3636 147.751C21.3262 147.76 21.3977 147.789 21.6221 147.382C21.6548 147.278 21.5574 147.553 21.5271 147.805C21.4876 148.068 21.4643 148.364 21.4486 148.641C21.418 149.198 21.4123 149.686 21.3849 150.007C21.3375 150.608 21.0121 150.815 21.0753 151.472C21.218 152.366 21.3952 153.279 21.5985 154.148C22.8057 159.286 23.8189 164.457 24.757 169.631C24.8299 170.328 24.9043 171.025 24.9803 171.722C25.4575 176.772 25.3676 182.32 27.723 184.876C31.4516 188.785 37.9584 185.049 44.7862 183.211C45.2561 183.102 45.7277 182.996 46.199 182.893C61.0103 179.652 75.8941 178.38 89.9923 174.753C89.9983 174.751 90.0162 174.747 90.0221 174.746C91.1149 174.517 91.7324 174.899 92.0392 175.067C92.2271 175.185 92.2458 175.206 92.3136 175.257C92.3713 175.302 92.4204 175.344 92.464 175.383C92.6342 175.535 92.7399 175.662 92.787 175.717C92.9034 175.855 92.9895 175.975 93.043 176.051C93.1711 176.234 93.246 176.354 93.3357 176.498C93.49 176.748 93.6328 176.996 93.7604 177.222C94.022 177.685 94.2629 178.131 94.5017 178.577C94.9746 179.461 95.4326 180.338 95.8902 181.204C96.347 182.069 96.8045 182.931 97.2625 183.757C97.4921 184.17 97.7246 184.579 97.9514 184.955C98.0617 185.137 98.1772 185.322 98.2777 185.471C98.3633 185.608 98.5228 185.791 98.3899 185.642C103.49 190.788 109.956 194.37 116.579 193.277C123.783 192.172 131.249 189.369 135.624 184.236C136.649 183.011 137.507 181.546 138.019 179.927C138.978 176.95 138.367 172.696 138.374 168.539C138.376 168.593 138.372 168.455 138.365 168.35C138.358 168.236 138.349 168.106 138.341 167.974C138.323 167.705 138.306 167.422 138.295 167.126C138.28 166.523 138.253 165.937 138.391 165.047C138.442 164.763 138.503 164.45 138.686 164.003C138.879 163.59 139.184 162.821 140.311 162.233C142.298 161.405 143.592 161.214 146.302 159.545C146.399 159.664 146.496 159.784 146.593 159.903C149.331 158.433 150.997 157.312 154.126 155.848C156.776 154.629 163.679 151.366 165.936 150.235C167.116 149.66 166.811 150.133 167.894 149.562C168.494 149.244 169.295 148.768 170.179 148.214C172.47 146.866 174.862 145.885 176.381 145.044C177.677 144.397 179.182 143.37 179.437 142.591C179.439 142.588 179.442 142.578 179.443 142.574C179.804 141.657 180.02 140.649 180.106 139.956C180.824 133.196 179.48 125.203 178.422 117.651C178.416 117.608 178.41 117.565 178.404 117.523C178.118 115.479 177.946 112.75 177.815 112.133C177.537 110.814 177.121 110.527 176.901 109.667C175.787 105.268 174.682 98.3532 173.687 94.0185C170.459 79.9468 166.527 65.1539 162.403 51.4376C160.709 46.0735 157.972 36.6638 154.911 32.1651C155.194 32.4444 155.43 32.5646 155.583 32.6367C155.755 32.7119 155.776 32.711 155.831 32.728C155.92 32.7508 155.903 32.7415 155.873 32.7374C155.791 32.7246 155.642 32.7121 155.452 32.7065C155.1 32.6957 154.678 32.7056 154.234 32.727C153.377 32.7689 152.507 32.8442 151.641 32.928C149.939 33.0942 148.325 33.2871 146.907 33.4488C145.12 33.6569 145.531 33.2073 144.04 33.4373C142.378 33.6965 141.518 34.099 140.744 34.2445C137.157 34.8934 130.827 36.216 125.104 36.8456C124.38 36.9496 122.726 37.3644 121.487 37.548C120.825 37.6493 120.166 37.728 119.442 37.7354C118.699 37.6962 117.956 37.8293 116.564 37.0379C116.373 36.9155 116.151 36.7414 115.961 36.5433C114.724 35.0556 114.912 34.128 114.669 33.468C114.562 33.1084 114.165 32.3586 113.996 31.3377C113.553 28.6475 113.465 25.9725 113.033 24.7826C111.452 20.7797 108.669 17.3903 104.6 14.1824C97.8006 8.9209 87.8834 5.35628 78.8498 6.96484C72.5312 8.06037 67.0605 11.0031 63.6329 15.8629C61.7418 18.4587 60.255 20.3763 60.0341 20.8004C59.5883 21.7569 59.6574 22.5263 58.9034 24.5333C58.9025 24.537 58.8984 24.5483 58.8943 24.5596C57.4597 28.4074 56.8502 33.8685 56.8221 39.0619C56.8556 39.759 56.9598 41.131 56.978 42.2109C56.9887 42.7848 56.9904 43.3585 56.9444 44.0045C56.9188 44.3313 56.8878 44.6662 56.7941 45.1045C56.7422 45.3311 56.6879 45.5642 56.5347 45.9229C56.3535 46.2524 56.2217 46.8207 55.144 47.4314C53.9208 48.0248 52.9864 48.1513 52.1184 48.294C48.9892 48.757 44.9776 48.6852 42.8437 49.1907C42.0953 49.3615 41.3839 49.5106 40.7265 49.6348C38.7836 50.0002 35.0396 50.474 32.7886 51.0214C31.803 51.2521 31.0466 51.4344 30.7168 51.5662C30.0103 51.8465 29.7543 52.3385 28.8945 52.5611ZM91.7695 2.33194C91.1185 2.81535 96.4502 3.82189 94.6256 2.87219C94.2143 2.63444 91.9425 2.17342 91.7695 2.33194ZM148.951 162.918C149.077 163.079 149.202 163.239 149.327 163.399C149.897 163.045 150.468 162.692 151.039 162.34C150.649 162.388 150.259 162.436 149.869 162.484C149.563 162.628 149.257 162.774 148.951 162.918Z" fill="#121212"/>
</svg>
