<svg width="107" height="79" viewBox="0 0 107 79" fill="none" xmlns="http://www.w3.org/2000/svg">
<path d="M97.3897 18.8275C97.3199 18.627 97.5397 18.3056 97.5139 18.0596C97.4002 17.0457 97.4815 16.6437 97.2932 15.742C97.1498 14.2692 94.5454 11.4266 95.6479 10.1725C95.6479 10.1725 95.6479 10.1724 95.648 10.1724C95.6604 10.1598 95.6732 10.1474 95.6866 10.1351C95.9373 9.89827 96.4851 9.92007 96.8107 9.70139C97.136 9.48382 98.9196 7.70294 99.51 8.15705C100.394 8.8105 101.206 11.276 101.426 11.7432C101.612 12.0618 102.016 12.3798 102.239 12.8092C102.946 14.2071 102.995 15.007 103.889 16.2539C103.678 16.869 103.439 17.4618 103.177 18.0281C103.415 18.7081 103.04 19.7794 103.068 20.1843C103.094 20.5229 103.353 20.719 103.36 21.0775C103.369 21.4776 103.072 22.0752 103.057 22.7866C103.047 23.2656 103.139 23.5851 103.256 23.8615C103.432 24.2201 103.667 24.4612 103.683 24.8364C103.709 25.4882 103.273 26.4787 103.477 27.3286C103.547 27.4366 103.617 27.5443 103.687 27.6517C103.857 27.5825 104.027 27.5141 104.198 27.4465C104.26 27.8652 103.911 28.0341 103.896 28.4192C103.879 28.8728 104.203 29.1082 104.2 29.4127C104.197 29.662 103.936 30.0035 103.956 30.3291C103.983 30.8044 104.359 30.6949 104.434 30.9482C104.457 31.049 104.727 32.9258 104.74 33.0324C104.793 33.8416 104.284 33.9413 104.278 34.5973C104.267 36.4178 104.851 38.2574 105.178 39.9351C105.324 40.6828 105.379 41.4842 105.378 42.2497C103.937 41.192 103.203 43.9619 105.148 42.7429C104.949 43.6287 105.569 44.1611 105.564 44.9878C105.561 45.5209 105.316 45.9148 105.403 46.6621C105.561 48.0014 106.512 49.404 105.081 49.9282C105.484 51.4911 105.04 52.9047 106.368 53.4287C106.473 53.8502 105.746 54.9555 105.651 55.437C105.593 55.8758 105.196 59.3464 105.091 59.9144C105.033 60.4743 104.897 61.4999 104.935 61.9906C104.981 62.6122 106.233 63.3567 104.434 64.12C104.23 65.4254 104.029 65.896 103.383 66.9731C103.261 67.1707 103.037 67.0976 102.982 67.2172C102.869 67.4628 102.821 67.9573 102.596 68.3968C102.218 69.1289 101.534 69.2227 102.208 69.5744C101.999 70.1023 101.757 70.6214 101.474 71.1343C101.232 71.1893 100.991 71.2371 100.751 71.2779C100.661 71.6001 100.56 71.9198 100.442 72.2426C99.98 71.2265 98.821 73.0172 99.7157 73.0908C98.7154 73.5896 97.6705 73.9633 96.6456 74.2167C96.2214 73.0855 94.5976 74.9494 94.9491 75.5071C94.835 75.5471 94.72 75.5862 94.6041 75.6245C93.5766 75.6258 92.6639 76.1477 91.4982 76.1527C90.2847 76.1556 90.3628 76.0035 89.9212 75.4981C89.6698 75.5672 89.4137 75.6336 89.1529 75.6972C88.4536 76.672 88.1063 76.2009 87.5368 75.8745C87.1411 75.6244 86.6168 75.4565 85.6374 76.0327C84.8486 75.1023 83.0537 75.7191 81.8555 76.0724C81.7151 76.1136 81.7219 76.3037 81.5347 76.3711C81.0854 76.534 79.9081 76.3401 79.9716 76.9508C79.5559 76.7906 79.1401 76.6297 78.7332 76.4678C78.4084 76.5918 78.0816 76.7155 77.7529 76.8387C77.7614 77.03 77.7699 77.2212 77.7784 77.4124C77.0768 76.785 76.0535 77.0688 75.5265 76.9283C75.4223 76.8998 75.3923 76.6366 75.0687 76.574C74.6874 76.4996 74.0045 76.5965 73.5554 76.5253C73.3899 76.8221 73.2238 77.1188 73.057 77.4155C72.2558 77.5935 71.9689 76.8274 71.4993 76.7775C71.4172 76.7694 69.8756 76.855 69.7978 76.8724C69.1259 77.0144 69.3273 77.6711 67.3651 77.5583C67.0168 77.5375 66.7321 77.3135 66.4167 77.3082C65.8578 77.2991 64.1883 77.8311 64.0591 78.3087C63.3762 77.7181 61.574 77.9726 61.0398 77.8016C60.879 77.7491 60.8405 77.3692 60.3476 77.2898C59.9479 77.2252 58.9186 77.5314 58.4112 77.4805C57.8726 77.4252 57.6805 77.1055 57.4394 77.0828C57.2117 77.0616 57.0014 77.3192 56.691 77.3171C55.7232 77.3064 54.8445 76.888 54.0805 76.8766C52.9765 76.8591 51.9877 77.6156 51.0618 77.9468C50.8319 77.8954 50.606 77.7295 50.3644 77.7258C47.3808 77.675 44.0166 77.4867 41.0288 77.267C39.6459 77.1678 36.2174 76.0553 37.0993 77.8041C36.596 78.0972 33.1213 77.3147 32.4457 77.2844C31.771 77.2558 31.2559 77.5516 30.7191 77.5408C29.1268 77.5084 28.0404 77.2521 26.088 77.4573C25.5982 77.5116 25.0429 77.8599 24.7459 77.8452C24.3854 77.8265 24.0348 77.4586 23.5679 77.419C22.4659 77.3284 20.412 77.3644 19.3736 77.2574C19.3408 77.2539 19.3123 77.2411 19.2862 77.2219L18.6087 77.1151C18.4853 76.9935 18.4436 76.7478 18.2192 76.5954C17.1581 75.8774 15.9658 75.383 15.7828 76.39C14.5742 75.2585 13.0909 75.0459 11.8099 74.223C10.5751 73.4212 8.91597 72.0826 7.58489 70.1795C6.21824 68.3069 5.47462 65.7606 5.36924 63.9338L5.63831 65.2687C5.51748 65.041 5.40816 64.8242 5.30462 64.6184C4.48822 62.941 4.08769 63.1293 3.96016 60.7311C3.94626 60.2376 3.95533 59.6778 3.95144 59.0877C3.9302 57.6295 4.55084 56.2626 3.40767 55.3492C3.43175 53.7695 3.08806 52.5906 3.78222 51.3451C3.56249 51.2376 3.34241 51.1266 3.12335 51.0226C3.09448 50.8385 3.06569 50.6535 3.03699 50.4676C3.22254 50.3849 3.40812 50.3022 3.59372 50.2196C3.47569 48.874 2.48223 47.2808 2.35929 46.1423C2.14557 44.2445 1.95085 39.3295 2.04572 37.5105C2.09326 36.5433 1.67438 36.5339 2.47567 35.907C2.39641 35.6989 2.31729 35.4912 2.23831 35.2837C2.03929 35.1677 1.84032 35.0517 1.6414 34.9357C1.52149 33.7127 1.68271 32.2331 1.58012 31.0735C1.39021 28.9516 0.617472 25.7964 0.7968 23.6452C0.840192 23.0833 1.17884 22.4194 1.1351 21.8756C1.07421 21.1143 0.420239 20.9683 0.341606 20.0066C0.336567 19.9443 0.332532 19.8801 0.329432 19.8144L0.433412 20.4186C-0.292455 18.1286 0.767031 14.3901 1.49812 12.728C1.69437 12.1888 1.59499 11.8468 1.75337 11.4726C2.43736 9.91169 3.29014 8.84197 4.14885 7.45802C5.80837 6.72847 6.20582 7.50928 7.06167 7.83511C7.7239 8.07457 9.3173 8.67547 9.70471 9.0631C9.97996 9.32747 9.96739 9.90751 10.2953 10.182C9.33722 11.2309 8.75066 11.2752 7.55852 11.6948C6.19025 13.2214 5.40262 15.0832 5.38533 16.974C5.15779 17.14 4.93604 17.3221 4.72167 17.518C4.72118 17.5181 4.72069 17.5181 4.72021 17.5181C4.51097 18.3382 5.16641 18.5876 5.3819 18.9193C5.40345 18.9522 5.42506 18.9851 5.44675 19.0177L5.52266 19.4588C7.04102 24.3305 6.88322 33.9854 7.29528 39.3632C7.37833 40.5358 8.08054 44.2905 7.81463 45.1333C7.74397 45.3502 7.40807 45.4464 7.41809 45.6671C7.84603 47.6127 8.28808 49.5524 8.75277 51.4777C8.77784 55.4623 9.78537 59.9158 10.9795 63.0243L11.1629 63.9338C11.1631 63.9419 11.1634 63.95 11.1637 63.9581C11.1693 67.4742 15.9036 70.5039 20.1245 71.632L19.5316 71.5385C25.3376 71.6913 31.1256 71.8088 36.905 71.9852C39.0136 72.0501 41.7099 71.8442 43.7742 72.0434C44.6391 72.1261 44.9825 72.6849 46.1296 72.2884C46.1396 72.4376 46.1495 72.5868 46.1595 72.7361C47.1511 72.5695 47.7868 72.2382 48.9001 72.2158C49.8312 72.1983 52.3064 72.1969 53.1331 72.258C53.5624 72.2891 53.4008 72.5667 53.7997 72.5675C54.482 72.5669 55.9473 72.1874 56.8888 72.1885C57.7429 72.1902 59.1842 72.5103 59.8409 72.462C62.209 72.2917 64.7736 71.7982 67.2946 71.8912C67.986 71.918 68.8931 72.2647 69.1089 72.2508C69.5334 72.2226 69.6532 71.8695 69.9365 71.8192C71.3873 71.5656 73.6523 71.9296 75.071 71.9035C79.0558 71.833 83.2407 71.5479 87.2076 71.2748C87.8368 71.2315 88.4303 71.1758 88.9898 71.1107C91.6739 70.9026 95.5043 69.4269 97.0111 68.0683C97.3605 67.7979 97.5628 68.1414 97.8245 67.8482C98.1112 67.515 98.0391 67.1692 98.1375 66.9971C98.9167 65.856 99.6596 62.7501 100.062 61.2828C100.153 61.0176 100.478 60.8506 100.497 60.6782C100.507 60.591 100.326 60.3723 100.332 60.0942C100.362 57.6562 100.434 55.8257 100.362 53.3065C100.203 48.4734 99.0086 42.7879 98.7798 37.4538C98.7283 36.2892 99.2718 35.4534 99.2549 35.2915C99.2199 34.935 98.8041 34.7315 98.6658 34.0064C98.2011 31.5918 98.5996 28.2748 98.5623 25.909C98.5451 25.1567 98.3905 24.1995 98.3054 23.2946C98.2493 22.8684 98.1933 22.4695 98.1759 22.1278C98.1603 21.3548 98.3246 19.5822 98.057 19.2792C97.9069 19.095 97.4673 19.0425 97.3897 18.8275ZM105.154 47.5041C104.45 47.4197 105.188 49.003 105.496 48.3507C105.566 48.2037 105.338 47.5262 105.154 47.5041ZM46.39 76.4676C46.4023 76.6657 46.4146 76.8638 46.4269 77.0619C46.6423 76.9824 46.8581 76.9028 47.0742 76.8232C46.9548 76.7027 46.8357 76.5822 46.7166 76.4616C46.6076 76.4636 46.4988 76.4656 46.39 76.4676ZM95.363 2.76004C95.5004 2.78298 95.5286 3.09946 95.6519 3.18911C96.1686 3.57115 96.2707 3.85238 96.6874 4.2607C97.3168 4.81652 99.5022 6.29623 98.1953 7.58797C98.1952 7.58801 98.1952 7.58804 98.1952 7.58807C98.1828 7.60066 98.1701 7.61322 98.157 7.62578C97.9093 7.86327 97.5078 7.99552 97.2199 8.25784C96.932 8.52036 95.2071 10.3388 94.9563 10.2978C94.6119 10.2231 94.4351 9.2421 94.2681 9.15534C94.161 9.0975 93.9071 9.1915 93.7622 9.13622C93.2964 8.96091 93.1659 8.67563 92.4741 8.974C92.5006 8.60684 92.516 8.23612 92.5209 7.86262C92.2433 7.87663 92.1313 7.32743 91.9873 7.28004C91.871 7.24169 91.6915 7.43981 91.5757 7.39537C91.4457 7.34717 91.3738 7.00186 91.1217 6.93218C90.7087 6.81837 90.3741 7.40988 90.1181 7.39485C89.8545 7.38039 89.6169 6.89395 89.2275 7.00561C89.1639 7.06136 89.1007 7.11737 89.0378 7.17362C89.009 7.34112 88.9795 7.50845 88.9494 7.67559C88.7746 7.69575 88.8237 7.34939 88.6854 7.29556C88.5227 7.23241 88.3367 7.51415 88.2276 7.47743C88.1383 7.44711 88.0932 7.15941 87.9684 7.1386C87.7875 7.10745 87.7183 7.4803 87.6064 7.52078C87.5619 7.53348 86.8254 7.54716 86.7868 7.54313C86.4904 7.48337 86.5855 6.97641 86.3542 6.876C85.7079 6.60008 84.9273 6.87895 84.2833 6.94193C83.9955 6.96986 83.7073 6.901 83.438 6.78619C84.053 5.52974 83.1458 4.39056 83.2985 6.48654C83.0138 6.15941 82.7317 6.6925 82.4457 6.57437C82.2577 6.49763 82.1427 6.20161 81.8637 6.19216C81.3577 6.17627 80.8168 6.97775 80.6947 5.50487C80.1055 5.75357 79.5722 5.23366 79.4114 6.53853C79.2677 6.62184 78.8614 5.86613 78.6817 5.77274C78.6476 5.75424 78.5672 5.72777 78.4608 5.69827L79.0941 5.57194C78.1753 5.71556 77.299 5.56951 77.0808 5.59009C76.8408 5.60237 76.411 5.62919 76.2405 5.7607C76.0112 5.92566 75.9508 7.2853 75.3773 5.75373C74.8854 5.92235 74.6885 5.89116 74.225 5.73928C74.1401 5.71176 74.1153 5.47907 74.0666 5.48203C73.9679 5.48844 73.7979 5.67231 73.6205 5.70391C73.3373 5.75523 73.138 5.27309 73.2127 6.02158C73.0245 6.15806 72.8231 6.29459 72.6447 6.42945C72.5706 6.28789 72.4962 6.14628 72.4215 6.00463C72.3255 6.16738 72.2277 6.33007 72.1282 6.49269C72.1989 5.40153 71.5017 6.07338 71.7621 6.68681C71.3911 6.47712 70.9711 6.26758 70.6105 6.05449C70.6263 4.81806 69.7821 5.93776 69.8702 6.60693C69.8241 6.60727 69.7853 6.60738 69.743 6.60759C69.371 6.28931 69.0228 6.56681 68.5586 6.35625C68.1074 6.14516 68.144 6.02376 67.9957 5.45812C67.8891 5.49266 67.7815 5.52714 67.673 5.56154C67.1194 7.12881 67.2118 4.43027 66.2481 5.63694C65.9269 4.66121 65.1981 5.18186 64.6795 5.48104C64.623 5.51579 64.6229 5.7059 64.5473 5.76484C64.3635 5.90671 63.8796 5.66358 63.8966 6.27664C63.7277 6.09957 63.5574 5.92236 63.3857 5.745C63.2426 5.85654 63.111 5.96798 62.9761 6.07933C62.9766 6.27074 62.977 6.46215 62.9775 6.65355C62.7077 6.001 62.2735 6.25056 62.056 6.09369C62.0129 6.06191 62.0048 5.79785 61.8702 5.72525C61.7079 5.63907 61.4291 5.71574 61.2473 5.63211C61.1749 5.92415 61.102 6.21616 61.0288 6.50815C60.6991 6.66452 60.5874 5.89153 60.3922 5.82991C60.3549 5.8193 59.7155 5.8687 59.686 5.88475C59.407 6.01232 59.4851 6.67148 58.6681 6.52039C58.5219 6.49301 58.4058 6.26385 58.2721 6.25285C58.0467 6.23339 57.3524 6.73893 57.2876 7.21476C57.0204 6.61365 56.2462 6.84401 56.0427 6.6675C55.9781 6.61324 55.9709 6.23286 55.7701 6.14802C55.6079 6.07892 55.1749 6.37468 54.9627 6.31919C54.7381 6.25894 54.6635 5.93782 54.5621 5.91302C54.4641 5.88986 54.3762 6.14582 54.2495 6.14148C53.8559 6.12362 53.5037 5.70012 53.185 5.68465C52.723 5.66129 52.2909 6.4137 51.9074 6.74249C51.8146 6.69049 51.7263 6.52418 51.627 6.51997C50.3793 6.46194 49.0097 6.27918 47.765 6.07367C47.2075 5.98027 45.7993 4.89291 46.1223 6.63452C45.8913 6.92956 44.5 6.18012 44.2143 6.15819C43.9371 6.13706 43.7032 6.43814 43.4821 6.43396C42.8244 6.42133 42.3902 6.18016 41.5745 6.41616C41.3643 6.47796 41.1251 6.83541 41.0012 6.82584C40.8519 6.81345 40.7059 6.45163 40.5219 6.42107C40.0797 6.35097 39.2325 6.43035 38.7949 6.34887C38.7152 6.33325 38.7012 6.02039 38.5907 5.91776C38.1532 5.51653 37.6714 5.52711 37.7098 6.52581C37.1775 5.93504 36.6303 6.42533 36.0987 6.43128C35.8779 6.4333 35.6209 6.422 35.3417 6.40522C34.2525 6.33714 32.8538 6.21152 32.0962 6.53695C31.5151 6.79261 31.5126 7.23737 30.6666 6.84969C30.4759 6.76413 30.283 6.64927 30.0514 6.54883C29.5165 6.31234 28.9852 5.49655 28.6013 6.50074C27.9874 6.25827 27.5312 6.45863 27.0367 5.62985C26.9928 5.83601 26.9495 6.0422 26.9068 6.24842C26.8335 6.25698 26.7604 6.26565 26.6876 6.27442C26.6549 6.08134 26.6221 5.88828 26.589 5.69524C26.051 5.67028 25.4401 6.5116 24.9957 6.54067C24.2563 6.58039 22.3283 6.47264 21.5977 6.31819C21.2053 6.23246 21.2501 6.64773 20.9119 5.83247C20.8397 5.90365 20.7625 5.97581 20.6886 6.0477C20.6654 6.24114 20.643 6.43454 20.6213 6.62791C20.1573 6.70946 19.5497 6.52164 19.1046 6.6123C18.2898 6.77438 17.2249 7.5527 16.364 7.44599C16.1435 7.41876 15.796 7.1172 15.6011 7.18088C15.3191 7.27334 15.4509 7.90377 15.1094 8.02823C14.5339 8.23205 13.1827 7.94948 12.662 8.24878C12.5077 8.33508 12.5336 8.58586 12.4381 8.65792C12.0319 8.96698 11.6634 9.13191 11.4372 9.67738C10.712 9.37851 10.3386 8.68293 9.78588 8.07892C9.37175 7.62077 8.26402 6.66175 7.91844 6.25614C7.67758 5.96885 7.56393 5.47309 7.28829 5.16358C7.79393 4.45596 8.28467 4.59407 9.10611 4.80417C10.1096 4.24213 11.1404 3.76153 12.1874 3.34194C12.3635 3.51435 12.5331 3.68979 12.7037 3.86531C12.7039 3.86577 12.7041 3.86623 12.7042 3.86668C13.1869 3.96552 13.1646 3.36616 13.3414 3.16848C15.0719 1.21011 19.5976 1.28142 21.9119 1.19176C22.4108 1.1554 24.035 0.695835 24.403 1.03599C24.4995 1.12314 24.551 1.46474 24.6464 1.47243C25.4774 1.20327 26.3024 0.950274 27.1488 0.710196C28.9071 1.17322 30.6788 0.717956 32.4313 0.668943C33.5045 0.639055 34.5552 0.623086 35.6257 0.62482C39.1815 0.625163 42.6931 0.629577 46.1965 0.820409C47.0927 0.869448 48.1632 0.647662 49.0392 0.842089C49.395 0.922455 49.527 1.48027 50.0025 1.08215C50.0029 1.23132 50.0032 1.38049 50.0035 1.52966C50.4071 1.36179 50.6881 1.03073 51.1509 1.00943C51.5488 0.992463 52.5352 0.996803 52.8933 1.06264C53.072 1.09565 52.9983 1.37247 53.165 1.37521C53.4511 1.37788 54.0614 1.00717 54.4413 1.01558C54.7905 1.02349 55.3939 1.35712 55.6619 1.31585C56.6192 1.16993 57.712 0.712667 58.744 0.8534C59.0347 0.893265 59.3978 1.25865 59.4867 1.24953C59.6608 1.23044 59.7157 0.880093 59.8317 0.836165C60.4358 0.614564 61.3591 1.0383 61.9482 1.05707C63.8539 1.11927 65.8777 0.957459 67.772 0.987815C68.9619 1.00943 70.9443 0.889749 72.0437 1.10037C72.2825 1.14634 72.2381 1.53325 72.4326 1.52378C72.6404 1.51343 72.7603 1.24701 72.8602 1.22062C73.5546 1.0399 75.0837 0.668869 75.732 0.863189C75.8564 0.901632 75.9676 1.19251 76.0471 1.18257C76.0852 1.17833 76.1475 0.96453 76.2543 0.930551C76.7905 0.759934 77.4051 0.641596 77.4509 0.652006L78.0906 0.524396C78.5114 0.515508 78.9478 0.530514 79.4235 0.546883C81.6553 0.617435 84.2664 0.441403 86.5523 1.10022C87.0518 1.24312 87.2611 1.9025 87.331 1.91178C87.4858 1.93466 87.6716 1.56525 88.0077 1.54528C89.1318 1.48008 90.3962 2.3203 91.4211 2.50704C91.93 2.59505 92.7863 2.40528 93.3109 2.52793C93.7314 2.61839 94.5196 3.2524 94.7891 3.15193C94.9542 3.08908 95.2132 2.73727 95.363 2.76004ZM81.5819 5.8419C81.6748 5.1514 81.0252 5.70163 81.2459 6.08252C81.2952 6.16783 81.5573 6.0205 81.5819 5.8419ZM50.0049 5.25944C50.005 5.45745 50.0052 5.65546 50.0053 5.85347C50.0956 5.77379 50.1855 5.69409 50.2752 5.61436C50.2297 5.49398 50.1842 5.37359 50.1386 5.25319C50.0941 5.25528 50.0495 5.25736 50.0049 5.25944ZM90.4784 9.62861C90.5344 9.50746 90.8341 9.57808 90.9524 9.48211C91.4373 9.09387 91.7202 9.06885 92.1885 8.75242C92.883 8.2883 94.3649 6.3266 95.6327 7.60312C95.6327 7.60315 95.6328 7.60319 95.6328 7.60322C95.6453 7.61566 95.6579 7.6284 95.6704 7.64145C95.9091 7.88839 96.0327 8.29596 96.2859 8.592C96.5391 8.88823 98.3377 10.6362 98.2205 10.9535C98.0464 11.3923 96.8516 11.6731 96.7026 11.8597C96.6065 11.9823 96.629 12.2805 96.5108 12.4536C96.1375 13.004 95.77 13.1302 95.7864 13.9791C95.3897 13.91 94.9886 13.8449 94.5967 13.7704C94.485 14.0897 93.8434 14.1114 93.7308 14.2529C93.6352 14.3721 93.7499 14.62 93.6429 14.7397C93.5227 14.8761 93.1323 14.8651 92.9285 15.1185C92.5901 15.536 92.9842 16.0903 92.8139 16.3709C92.6356 16.6632 92.0065 16.7564 91.864 17.2174C91.8763 17.3077 91.8885 17.3981 91.9007 17.4886C92.0435 17.584 92.1864 17.6794 92.3293 17.7748C92.2273 17.9786 91.9236 17.7934 91.7758 17.9243C91.6045 18.0757 91.742 18.3932 91.6278 18.4986C91.5341 18.5848 91.2291 18.5133 91.119 18.6392C90.9569 18.8222 91.2551 19.0589 91.2088 19.199C91.1922 19.2525 90.6309 20.0615 90.5943 20.0992C90.3053 20.3886 89.9277 20.0355 89.6567 20.2255C88.908 20.7523 88.5061 21.6882 87.9885 22.3739C87.7598 22.678 87.4495 22.9198 87.1155 23.1112C86.6655 21.7379 85.012 21.8499 86.7582 23.0547C86.2532 23.1154 86.4068 23.7276 86.0493 23.9221C85.8183 24.0469 85.4958 23.9516 85.2288 24.2003C84.7567 24.6427 84.7649 25.7225 83.651 24.7434C83.2535 25.4408 82.4081 25.4708 83.0545 26.6302C82.958 26.8198 82.0713 26.5653 81.8363 26.6296C81.6143 26.6927 80.1763 27.4658 79.9647 27.6177C79.755 27.7703 79.3898 28.051 79.2953 28.2791C79.1754 28.5639 79.8907 29.7222 78.502 28.8293C78.1431 29.2932 77.9578 29.3875 77.4285 29.585C77.3329 29.6205 77.1765 29.4464 77.1329 29.4817C77.0431 29.5551 77.0012 29.8122 76.8532 29.9595C76.6082 30.2028 76.1485 29.9411 76.6495 30.5024C76.5528 30.7421 76.4584 30.9794 76.3595 31.2195C76.2065 31.1561 76.0538 31.0923 75.9013 31.0283C75.905 31.2273 75.9084 31.4263 75.9117 31.6252C75.3477 30.6856 75.0833 31.7104 75.6836 32.0319C75.1942 32.1302 74.7141 32.2183 74.2274 32.3082C73.523 31.2924 73.3773 32.7763 73.8484 33.2614C73.8084 33.2903 73.7657 33.3212 73.7244 33.3509C73.33 33.3553 73.1335 33.5862 72.852 33.7682C72.7229 33.8529 72.5784 33.9288 72.4007 33.9753C71.7886 34.131 71.7694 33.9923 71.3116 33.6143C71.2161 33.7154 71.1198 33.8154 71.0227 33.9143C71.211 35.6197 69.9728 33.2419 69.4879 34.8419C68.7035 34.1457 68.1093 34.9852 67.6178 35.4866C67.5612 35.5451 67.6276 35.7234 67.555 35.8132C67.374 36.0343 66.716 35.9981 66.9224 36.574C66.6577 36.4736 66.3986 36.3676 66.145 36.2565C66.0095 36.4119 65.8698 36.5661 65.7258 36.7191C65.7751 36.904 65.8245 37.089 65.8739 37.2739C65.3566 36.7369 64.8769 37.1021 64.5696 37.0032C64.5095 36.9828 64.446 36.7268 64.2685 36.6872C64.0625 36.6398 63.7141 36.7786 63.4719 36.7306C63.4258 37.0332 63.376 37.3357 63.3226 37.6381C62.9115 37.8528 62.672 37.1002 62.4255 37.0647C62.3825 37.0622 61.5803 37.1788 61.5381 37.194C61.1929 37.3388 61.3149 38.0087 60.2557 37.8757C60.0664 37.8498 59.9185 37.6201 59.7518 37.6072C59.4633 37.589 58.5373 38.0527 58.4246 38.5187C58.0978 37.9007 57.1123 38.0359 56.8513 37.8206C56.7737 37.7559 56.8086 37.3778 56.5632 37.2584C56.3654 37.1624 55.7817 37.3707 55.5246 37.2672C55.2552 37.1578 55.2247 36.8241 55.1066 36.7759C54.9947 36.7304 54.8313 36.9585 54.6725 36.9205C54.1806 36.798 53.8398 36.2792 53.4652 36.165C52.9234 35.9987 52.2121 36.5728 51.6281 36.7296C51.5268 36.6421 51.4678 36.4475 51.3486 36.4028C49.8589 35.841 48.2905 34.9721 46.9696 33.9678C46.8722 33.8942 46.7656 33.7863 46.658 33.6639L46.7059 33.6941C46.1845 33.0923 45.4959 32.0683 45.0495 33.5077C44.6938 33.6445 43.6252 32.1696 43.358 31.993C43.0909 31.8167 42.7124 31.948 42.4958 31.8202C41.8421 31.4343 41.5037 30.9641 40.5753 30.7104C40.3351 30.6456 39.9249 30.8247 39.8068 30.7471C39.6649 30.6529 39.6949 30.2543 39.5188 30.1196C39.0978 29.801 38.2021 29.3877 37.8047 29.0713C37.7325 29.0129 37.8683 28.7303 37.8071 28.5783C37.5697 27.9853 37.0628 27.7125 36.628 28.6141C36.3641 27.7884 35.5761 27.9094 35.0407 27.6174C33.9097 26.9981 32.0329 25.5718 30.858 25.3409C30.1171 25.1954 29.8987 25.5854 29.2131 24.7118C29.0609 24.5179 28.9252 24.2992 28.7397 24.0655C28.3053 23.5169 28.2236 22.4982 27.2762 23.083C26.7893 22.4811 26.1982 22.3325 26.182 21.3245C26.0208 21.4648 25.8596 21.6051 25.6985 21.7454C25.6196 21.7029 25.5407 21.6603 25.4618 21.6177C25.5398 21.4374 25.6179 21.2571 25.6959 21.0768C25.1771 20.6964 24.0656 20.9516 23.6063 20.6625C22.8357 20.1784 21.0017 18.6868 20.404 18.0114C20.0867 17.6528 19.8476 17.9948 20.0725 17.128C19.954 17.1251 19.8356 17.1222 19.7171 17.1193C19.5643 17.2455 19.4115 17.3716 19.2587 17.4978C18.7541 17.1965 18.3127 16.5834 17.8342 16.2928C16.9619 15.7638 15.3865 15.4013 14.6912 14.5762C14.5171 14.3689 14.446 13.8713 14.2294 13.7433C13.9143 13.5567 13.5025 14.0568 13.1004 13.8238C12.408 13.4212 11.5278 12.0053 10.8532 11.6576C10.653 11.5539 10.4387 11.7024 10.2931 11.6429C9.68124 11.3954 9.23616 11.099 8.51127 11.0866C8.26231 10.2119 8.7272 9.56596 8.96959 8.7749C9.15199 8.17751 9.47428 6.73137 9.69309 6.24447C9.84683 5.9024 10.2504 5.58885 10.4073 5.20475C11.2625 5.34657 11.3614 5.82982 11.6153 6.66182C12.6531 7.27263 13.6908 7.88344 14.7285 8.49426C14.7048 8.742 14.6812 8.98974 14.6575 9.23748C14.6572 9.2379 14.657 9.23831 14.6567 9.23873C14.9156 9.70054 15.3839 9.31282 15.6647 9.33208C18.3534 9.51633 21.8439 12.8105 24.0091 14.3066C24.4759 14.6287 26.2031 15.3367 26.3441 15.8493C26.3803 15.9826 26.2237 16.2908 26.3071 16.3596C27.2291 16.6857 28.1511 17.0118 29.0731 17.3379C30.4682 18.8237 32.4318 19.5114 34.1631 20.4787C38.8475 23.0952 43.5115 25.6427 47.961 28.4739C48.391 28.7479 48.9155 28.9992 49.4278 29.2652L49.4861 29.302C49.8952 29.5177 50.3242 29.7351 50.6695 30.0095C50.9531 30.2341 50.8521 30.8037 51.4724 30.637C51.4147 30.7746 51.3571 30.9122 51.2996 31.0498C51.7678 31.0652 52.1504 30.8605 52.6057 31.0043C52.9892 31.1322 53.995 31.4567 54.3233 31.6091C54.4904 31.6892 54.3453 31.9367 54.513 31.9842C54.8066 32.0665 55.5124 31.8544 55.9013 31.9401C56.2562 32.0227 56.8035 32.4541 57.0914 32.4525C58.1329 32.4575 59.2396 32.0804 60.2681 32.2082C60.5517 32.2457 60.9341 32.5951 61.0276 32.5805C61.2053 32.5519 61.2387 32.1983 61.352 32.1464C61.9242 31.8884 62.8754 32.1895 63.4573 32.0893C65.3382 31.7887 67.1466 30.9011 68.7512 29.9424C69.0156 29.7856 69.3048 29.5946 69.6192 29.3687C70.6443 28.6325 71.8433 27.7223 72.7075 27.2864C72.9586 27.1598 73.1405 27.5063 73.323 27.3607C73.5233 27.2005 73.4679 26.9118 73.5481 26.8203C74.1072 26.1853 75.3507 24.819 76.1219 24.5143C76.2693 24.457 76.5467 24.6171 76.6149 24.5581C76.6498 24.5287 76.5958 24.3052 76.6916 24.1966C77.5309 23.2417 78.3065 22.7315 79.2849 21.9712C81.16 20.5118 82.9504 18.3868 84.925 16.8482C85.3571 16.5113 86.0316 16.6983 86.0857 16.6401C86.2016 16.5163 86.0088 16.1487 86.1901 15.8449C86.797 14.8371 88.1996 14.1052 88.8392 13.2201C89.162 12.7772 89.3347 11.9092 89.6339 11.466C89.8712 11.1143 90.715 10.5775 90.6971 10.2835C90.6845 10.108 90.4203 9.76054 90.4784 9.62861ZM84.716 24.2096C84.3118 23.642 84.101 24.5999 84.5707 24.68C84.6767 24.698 84.8212 24.3568 84.716 24.2096ZM49.8748 34.4974C49.8003 34.6809 49.7259 34.8644 49.6517 35.0481C49.788 35.0192 49.9245 34.9896 50.0612 34.9592C50.0503 34.8247 50.0406 34.6905 50.032 34.5565C49.9793 34.5369 49.9269 34.5172 49.8748 34.4974Z" fill="#121212"/>
</svg>
