<svg width="194" height="166" viewBox="0 0 194 166" fill="none" xmlns="http://www.w3.org/2000/svg">
<path d="M106.391 2.88907C104.391 5.0224 96.7908 14.4891 89.4575 23.8224C82.1241 33.2891 74.7908 41.8224 73.1908 42.8891C69.5908 45.2891 69.0575 45.0224 46.7908 35.5557C27.4575 27.2891 11.3241 21.9557 5.85745 21.9557C1.45745 21.9557 -1.34255 26.0891 0.657451 29.6891C2.12412 32.3557 22.1241 51.8224 36.5241 64.4891C41.7241 69.1557 46.1241 73.6891 46.1241 74.4891C46.1241 75.2891 39.9908 79.1557 32.3908 83.1557C13.1908 93.2891 6.65745 97.8224 3.99078 102.756C1.05745 108.089 2.79078 110.756 9.59078 112.089C13.5908 112.889 30.1241 111.422 43.8575 109.156L48.7908 108.222V130.756C48.7908 159.022 50.9241 167.822 56.7908 164.622C57.9908 163.956 63.7241 154.356 69.5908 143.156C75.3241 132.089 80.7908 122.756 81.7241 122.356C82.5241 122.089 94.7908 128.356 108.924 136.489C123.057 144.622 135.991 151.289 137.724 151.289C144.657 151.289 141.457 145.556 121.991 123.822C111.724 112.222 103.857 102.489 104.657 102.222C105.324 101.956 121.457 106.889 140.391 113.022C182.391 126.889 189.457 128.622 192.257 125.689C193.857 124.089 193.991 123.022 192.924 120.889C191.457 118.089 167.724 101.556 148.524 90.0891C141.991 86.2224 136.791 82.7557 136.791 82.2224C136.791 81.6891 140.257 79.8224 144.524 78.0891C172.391 66.3557 178.524 61.9557 175.191 56.0891C172.124 50.7557 165.457 49.5557 137.057 49.2891C122.257 49.1557 109.724 48.6224 109.324 48.2224C108.791 47.8224 109.857 40.6224 111.457 32.3557C113.057 24.0891 114.791 13.9557 115.057 9.8224C115.724 3.0224 115.457 2.08907 112.924 0.755722C110.391 -0.577606 109.591 -0.310944 106.391 2.88907ZM107.457 16.4891C107.457 17.0224 106.257 23.6891 104.657 31.0224C101.324 47.8224 101.591 52.7557 106.124 54.7557C108.124 55.6891 120.791 56.6224 136.657 57.0224C152.791 57.4224 164.391 58.3557 165.191 59.1557C166.791 60.7557 148.924 69.5557 134.524 74.0891C125.457 77.0224 122.124 78.7557 122.124 80.6224C122.124 81.1557 133.324 88.7557 147.057 97.4224C177.191 116.622 174.924 115.022 173.991 115.822C173.191 116.622 157.857 111.956 123.591 100.756C97.8575 92.2224 93.1908 91.2891 91.8575 94.7557C90.6575 98.0891 93.0575 101.689 108.257 118.489C116.124 127.289 121.991 134.622 121.191 134.889C120.391 135.156 111.591 130.489 101.457 124.622C81.3241 112.622 78.9241 112.089 74.3908 119.556C72.9241 121.956 68.6575 130.089 64.9241 137.556C61.0575 145.156 57.4575 151.289 56.6575 151.289C55.9908 151.289 55.4575 141.556 55.4575 127.422C55.4575 108.222 55.0575 103.289 53.4575 101.956C51.9908 100.756 48.2575 100.889 35.8575 102.622C27.1908 103.822 17.9908 104.622 15.4575 104.356L10.7908 103.956L15.9908 100.622C18.9241 98.7557 28.5241 93.4224 37.3241 88.6224C51.5908 81.0224 53.4575 79.5557 53.8575 76.2224C54.3908 71.9557 50.6575 67.9557 23.5908 43.2891C15.9908 36.3557 10.3908 30.4891 11.0575 30.3557C12.5241 29.8224 32.7908 37.0224 52.9241 45.2891C68.7908 51.8224 71.4575 52.0891 78.2575 47.1557C81.1908 45.0224 98.5241 25.0224 104.124 17.1557C105.591 15.0224 107.457 14.6224 107.457 16.4891Z" fill="black"/>
</svg>
