<svg width="281" height="81" viewBox="0 0 281 81" fill="none" xmlns="http://www.w3.org/2000/svg">
<path d="M0.619006 4.59212C1.97218 9.43811 8.22761 17.9557 7.65165 19.0811C5.66956 23.4418 2.08935 25.9039 0.619006 30.8982C-0.340262 33.9925 4.77451 38.8457 6.11709 40.3227C6.30907 40.5339 4.90228 47.5679 4.90228 48.7635C4.90228 55.7266 6.7566 61.7053 7.97141 68.3871C8.67513 72.1857 8.29116 76.1949 11.9356 77.5309C20.1195 80.5557 30.0299 79.9228 38.6614 79.9228C50.1699 79.9228 61.8069 80.2743 73.379 80.2743C121.588 80.2743 169.349 74.4366 217.366 71.1305C232.775 70.0752 248.311 71.1305 263.721 71.1305C267.237 71.1305 277.787 73.2403 278.746 72.1149C282.07 68.4579 273.247 63.6046 273.247 61.6351C273.247 60.5097 281.495 57.0632 279.066 51.8584C277.722 48.8336 271.649 46.8641 269.219 45.1058C269.027 44.9654 268.452 44.4729 268.58 44.1214C269.411 42.222 282.582 40.4637 280.216 35.3291C278.874 32.3751 275.804 28.6473 273.183 26.8883C272.735 26.6076 268.771 24.9896 269.795 23.8642C271.137 22.3872 281.175 17.534 279.321 13.3844C277.851 10.2186 266.853 9.02302 263.976 8.31995C246.01 3.95922 227.404 4.23992 208.99 4.23992C161.677 4.23992 114.491 1.8487 67.1137 1.8487C52.0885 1.8487 36.296 -1.17541 21.3343 0.512082C14.685 1.28665 -0.520332 0.512082 0.619006 4.59212Z" fill="#156BD8"/>
<path d="M81.922 21.0392C77.2528 19.22 74.6093 19.3894 71.7017 22.1388C66.9001 26.7498 64.7856 34.9555 72.0983 38.4669C79.499 42.02 87.1202 36.9019 87.6928 29.4568C87.9577 26.1996 86.0629 22.689 81.922 21.0392Z" fill="#121212"/>
<path d="M152.026 21.0392C147.356 19.22 144.713 19.3894 141.806 22.1388C137.004 26.7498 134.889 34.9555 142.202 38.4669C149.603 42.02 157.224 36.9019 157.797 29.4568C158.061 26.1996 156.167 22.689 152.026 21.0392Z" fill="#121212"/>
<path d="M277.244 18.3581C275.7 19.8159 273.668 21.1585 272.095 22.1979C271.001 22.9208 270.129 23.4974 269.795 23.8648C268.94 24.8049 271.569 26.0899 272.716 26.6506C272.942 26.7605 273.11 26.8426 273.183 26.8889C274.461 27.7463 275.845 29.071 277.083 30.5453C274.147 34.2314 268.959 35.8825 263.876 33.4416C256.562 29.9309 258.678 21.7239 263.479 17.1135C266.387 14.3642 269.03 14.1947 273.7 16.0139C275.159 16.5952 276.339 17.4075 277.244 18.3581Z" fill="#121212"/>
<path d="M87.8506 80.1068C83.0311 80.2154 78.207 80.2743 73.3789 80.2743C72.1031 80.2743 70.8268 80.2696 69.5497 80.2624C67.8808 76.3386 69.9324 71.2854 73.3252 68.0269C76.2328 65.2775 78.8763 65.1087 83.5455 66.9273C87.6865 68.577 89.5812 72.0877 89.317 75.3449C89.1914 77.022 88.6903 78.6495 87.8506 80.1068Z" fill="#121212"/>
<path d="M277.768 72.4174C276.142 72.5591 272.873 72.1387 269.783 71.7408C267.357 71.4284 265.042 71.1305 263.721 71.1305C262.263 71.1305 260.803 71.1212 259.343 71.1046C258.413 67.3695 260.39 62.9148 263.479 59.9483C266.387 57.1989 269.03 57.0294 273.7 58.848C274.309 59.0909 274.869 59.3743 275.382 59.6907C275.189 59.8397 275.002 59.9814 274.824 60.1164C273.919 60.8029 273.247 61.314 273.247 61.6351C273.247 62.3216 274.32 63.359 275.576 64.5738C276.957 65.9091 278.56 67.4582 279.204 68.9935C278.921 70.2072 278.436 71.3646 277.768 72.4174Z" fill="#121212"/>
<path d="M48.6331 0.877928C42.6862 0.421134 36.7213 -0.019772 30.8307 0.000750595C27.939 4.60577 27.6563 10.56 33.5993 13.4133C41 16.9664 48.6212 11.8476 49.1938 4.40319C49.2892 3.22744 49.1038 2.01991 48.6331 0.877928Z" fill="#121212"/>
<path d="M187.796 4.09632C181.117 4.01026 174.439 3.8911 167.762 3.75208C166.791 7.46733 167.771 11.2951 172.183 13.4129C179.584 16.966 187.205 11.8479 187.778 4.40284C187.787 4.30089 187.793 4.19894 187.796 4.09632Z" fill="#121212"/>
<path d="M43.423 34.0375C38.7531 32.219 36.1103 32.3878 33.2027 35.1378C28.4004 39.7481 26.2859 47.9545 33.5993 51.4659C41 55.0189 48.6212 49.9009 49.1938 42.4558C49.458 39.1986 47.5639 35.6873 43.423 34.0375Z" fill="#121212"/>
<path d="M111.903 34.0375C107.234 32.219 104.59 32.3878 101.683 35.1378C96.8812 39.7481 94.7667 47.9545 102.079 51.4659C109.48 55.0189 117.101 49.9009 117.675 42.4558C117.939 39.1986 116.044 35.6873 111.903 34.0375Z" fill="#121212"/>
<path d="M182.007 34.0375C177.337 32.219 174.695 32.3878 171.787 35.1378C166.985 39.7481 164.87 47.9545 172.184 51.4659C179.584 55.0189 187.205 49.9009 187.778 42.4558C188.042 39.1986 186.148 35.6873 182.007 34.0375Z" fill="#121212"/>
<path d="M4.84931 38.9788C2.8798 36.8689 -0.137021 33.3377 0.619007 30.8982C1.45713 28.0515 2.98176 26.027 4.50441 24.0052C5.4736 22.7176 6.44214 21.4313 7.23326 19.9338C8.94723 19.6458 10.8929 20.0463 13.4423 21.0393C17.5833 22.6891 19.4773 26.1998 19.2132 29.4569C18.6723 36.4896 11.8422 41.4455 4.84931 38.9788Z" fill="#121212"/>
<path d="M214.045 21.0392C209.375 19.22 206.732 19.3894 203.824 22.1388C199.023 26.7498 196.908 34.9555 204.221 38.4669C211.622 42.02 219.243 36.9019 219.816 29.4568C220.08 26.1996 218.186 22.689 214.045 21.0392Z" fill="#121212"/>
<path d="M19.7499 79.3898C17.0429 79.0257 14.4101 78.4458 11.9354 77.5309C9.03181 76.4664 8.68491 73.7051 8.30822 70.7055C8.21223 69.9402 8.11425 69.1596 7.97125 68.3871C7.83686 67.6482 7.69452 66.9174 7.54822 66.1938C9.59121 65.3643 11.8474 65.6741 15.0655 66.9273C19.2064 68.577 21.1004 72.0877 20.8363 75.3449C20.7307 76.7493 20.3622 78.1215 19.7499 79.3898Z" fill="#121212"/>
<path d="M159.374 75.8142C152.607 76.3813 145.836 76.92 139.064 77.4302C138.992 74.1228 140.811 70.5406 143.429 68.0269C146.337 65.2775 148.979 65.1087 153.649 66.9273C157.79 68.577 159.684 72.0877 159.42 75.3449C159.408 75.5017 159.393 75.6581 159.374 75.8142Z" fill="#121212"/>
<path d="M220.454 70.9466C219.424 70.999 218.395 71.0604 217.366 71.1307C212.358 71.4756 207.353 71.8476 202.35 72.2382C203.118 70.6871 203.79 68.1344 205.047 66.9275C207.954 64.1781 210.142 62.8978 214.812 64.717C217.071 65.6174 219.518 69.2817 220.454 70.9466Z" fill="#121212"/>
<path d="M117.592 2.53989C111.13 2.39028 104.667 2.25324 98.2014 2.14136C96.4742 6.31672 97.0257 10.986 102.08 13.4123C109.48 16.9653 117.101 11.8472 117.675 4.40216C117.724 3.78038 117.697 3.15481 117.592 2.53989Z" fill="#121212"/>
<path d="M249.614 5.74423C242.996 4.92796 236.323 4.5506 229.635 4.37848C228.931 7.89182 230.038 11.4131 234.202 13.4124C241.149 16.7477 248.29 12.4426 249.614 5.74423Z" fill="#121212"/>
<path d="M244.026 34.0375C239.356 32.219 236.713 32.3878 233.805 35.1378C229.003 39.7481 226.889 47.9545 234.202 51.4659C241.603 55.0189 249.224 49.9009 249.797 42.4558C250.061 39.1986 248.167 35.6873 244.026 34.0375Z" fill="#121212"/>
</svg>
