<svg width="300" height="94" viewBox="0 0 300 94" fill="none" xmlns="http://www.w3.org/2000/svg">
<path d="M2.69307 11.5152C3.07314 12.4839 -0.559218 15.3427 0.0744045 15.8039C0.602165 16.1886 1.99593 15.9423 2.43951 16.5883C3.05196 17.4796 0.708027 18.31 1.36282 19.2632C1.70055 19.7703 2.94662 20.0931 3.30552 20.3694C4.17152 20.9999 0.7922 23.3056 1.15161 23.8282C1.48934 24.3203 2.84076 24.1205 3.305 24.4582C4.23452 25.1347 1.23579 27.1951 2.22831 27.9171C6.34659 30.9148 5.31121 34.1428 6.55729 38.6163C6.95853 40.0612 9.04943 40.999 9.57719 42.5513C10.6967 45.8098 10.5067 49.5764 11.098 52.9273C12.5759 61.4897 13.8008 70.3284 15.427 78.5526C15.9971 81.5038 15.8917 85.0701 17.1585 87.822C17.5385 88.6363 16.9472 90.6658 17.8132 91.2803C20.263 93.0634 29.2799 92.3875 32.7217 92.3875C41.6967 92.3875 50.7776 93.4482 59.7103 93.0175C65.18 92.7562 70.6492 92.1721 76.1184 91.9108C110.076 90.3735 143.568 89.036 177.631 90.4964C193.11 91.1574 208.864 89.728 224.279 90.973C239.969 92.2491 255.28 91.7569 270.927 91.7569C273.04 91.7569 285.731 91.665 286.702 90.973C288.307 89.805 285.921 88.6828 285.415 88.2981C285.034 88.0218 286.914 86.1003 287.146 85.6237C287.484 84.9012 286.132 84.8857 286.724 84.0559C287.674 82.6724 287.04 80.7509 288.012 79.3365C288.793 78.1834 289.997 77.0612 290.82 75.8777C291.01 75.6164 289.976 75.1862 289.744 74.9399C289.3 74.4638 289.469 73.4645 289.321 72.8954C288.624 70.3899 289.785 68.3609 287.378 66.6083C285.942 65.5631 281.486 65.8858 280.473 64.4105C279.332 62.7348 282.416 59.6911 282.416 57.8006C282.416 56.6934 280.452 55.7097 280.03 54.4956C279.248 52.2204 279.269 52.2359 280.241 50.099C280.853 48.7615 279.417 47.1782 280.03 45.8563C280.726 44.3189 283.366 40.8141 282.183 39.0925C281.381 37.9244 281.402 33.7735 282.183 32.6519C282.88 31.6527 285.351 31.1915 286.069 30.1309C287.188 28.4861 282.817 24.6431 284.781 23.2132C287.822 20.9999 291.94 19.0939 295.15 16.7726C295.825 16.2805 297.81 15.8808 298.169 15.3582C299.458 13.4981 298.254 11.0081 298.824 9.37831C299.056 8.67136 300.365 6.74984 299.901 6.07336C299.394 5.32045 297.029 5.65869 296.438 4.81334C296.205 4.4751 297.831 3.61426 298.169 3.24504C299.014 2.32275 298.57 0.708997 297.747 0.0939656C297.325 -0.213292 295.53 0.324796 295.15 0.401223C293.059 0.908844 288.476 0.570602 286.301 0.401223C272.322 -0.735888 257.476 1.95404 243.538 2.75342C226.94 3.72167 210.278 4.9822 193.637 5.42837C181.221 5.7661 168.677 5.42837 156.281 5.1206C134.952 4.56702 113.455 5.59724 92.1257 5.59724C82.6441 5.59724 73.1201 4.598 63.6174 4.96723C50.7353 5.45884 37.8325 5.889 24.9509 6.38113C19.0381 6.61196 13.1672 7.01114 7.23325 7.01114C6.57846 7.01114 2.39717 6.59647 1.82706 7.01114C-0.284493 8.5025 2.08062 9.99334 2.69307 11.5152Z" fill="#156BD8"/>
<path d="M62.3714 4.99756C52.5092 5.36627 42.6476 5.70451 32.7859 6.07322C23.6208 14.6971 14.4558 23.3519 5.26953 31.9598C5.88198 33.8963 5.83964 36.0487 6.55795 38.6007C6.95919 40.0456 9.04958 40.9834 9.57734 42.5357C10.5487 45.364 10.5492 48.577 10.9081 51.5742C23.8955 40.0916 37.136 28.7473 49.7429 17.0028C53.9877 13.0214 58.1902 9.00947 62.3714 4.99756Z" fill="#121212"/>
<path d="M277.622 0.125407C275.489 2.47709 273.314 4.81431 270.843 6.98113C261.214 15.4052 250.739 23.2911 241.173 31.807C226.053 45.2727 211.651 59.2459 196.974 72.9734C190.738 78.8051 184.515 84.6515 178.306 90.5124C187.809 90.8816 197.396 90.4819 206.942 90.4359C220.689 77.4154 233.93 64.2111 248.627 51.7447C262.037 40.3689 275.257 28.1179 287.294 15.8973C291.2 11.9313 293.122 8.62638 296.564 4.9367L296.438 4.79831C296.227 4.49105 297.557 3.73762 298.043 3.33793C298.064 2.35419 299.901 -0.761251 295.804 0.232818C295.488 0.310278 295.234 0.371213 295.128 0.402197C293.038 0.909301 288.455 0.57106 286.28 0.402197C283.408 0.171366 280.515 0.0944228 277.622 0.125407Z" fill="#121212"/>
<path d="M151.529 5.0137C141.519 14.3141 131.678 23.7368 121.732 33.0521C104.289 49.3616 87.0784 65.7485 69.5508 82.012C65.623 85.6552 61.6318 89.3443 57.7882 93.0794C58.4218 93.0645 59.0555 93.0335 59.6891 93.003C65.1583 92.7412 70.628 92.1572 76.0972 91.8959C79.3913 91.7425 82.6859 91.6041 85.98 91.4502C99.4322 79.5214 113.2 67.7774 126.294 55.5718C142.005 40.9226 156.766 25.9046 173.365 11.808C175.795 9.7409 178.209 7.65545 180.608 5.55179C172.477 5.5208 164.326 5.30547 156.238 5.10614L151.529 5.0137Z" fill="#121212"/>
<path d="M120.909 5.19727C111.321 5.36664 101.755 5.58147 92.21 5.58147C88.9577 8.64062 85.7271 11.6998 82.4537 14.7589C65.0107 31.0679 47.7997 47.4548 30.2725 63.7188C25.2676 68.3607 20.1573 73.0491 15.4477 77.8454L15.3 77.9993L15.4054 78.5523C15.976 81.5041 15.8702 85.0703 17.1374 87.8217C17.5175 88.6366 16.9257 90.6655 17.7917 91.2805C19.1224 92.2488 22.3742 92.4946 25.6265 92.5101C28.2871 89.9716 30.969 87.4556 33.672 84.9624C51.1366 68.8683 69.6986 53.4806 87.0362 37.3091C98.461 26.6258 109.4 15.7582 120.909 5.19727Z" fill="#121212"/>
<path d="M279.86 50.8672L278.466 52.1122C263.959 65.0398 250.085 78.429 236.02 91.6183C245.397 91.9411 254.688 91.8182 264.065 91.7717C271.139 85.0849 278.319 78.46 285.9 72.0344C286.914 71.1736 287.948 70.2972 288.962 69.4209C288.856 68.3912 288.54 67.4534 287.357 66.5926C285.921 65.5474 281.465 65.8701 280.451 64.3943C279.311 62.7191 282.395 59.6754 282.395 57.7844C282.395 56.6777 280.43 55.694 280.008 54.4794C279.332 52.5274 279.248 52.2506 279.86 50.8672Z" fill="#121212"/>
<path d="M242.778 2.7998C232.536 3.39883 222.273 4.1063 212.009 4.65988C209.032 7.13446 206.075 9.62506 203.204 12.1921C188.084 25.6577 173.681 39.631 159.005 53.3579C145.869 65.6405 132.861 77.9685 119.747 90.251C129.208 90.0047 138.668 89.8663 148.15 89.8818C153.345 85.2704 158.519 80.6124 163.566 75.8936C179.277 61.2438 194.039 46.2254 210.637 32.1292C221.694 22.7359 232.415 12.9533 242.778 2.7998Z" fill="#121212"/>
</svg>
