<svg width="310" height="68" viewBox="0 0 310 68" fill="none" xmlns="http://www.w3.org/2000/svg">
<path d="M3.59572 4.20119C2.82431 5.52847 13.4258 11.2837 12.7886 16.6641C12.4622 19.4395 10.2911 21.3127 8.29828 23.0025C8.02704 23.2342 4.43063 25.5145 4.55205 25.7779C5.97959 28.8001 15.1346 26.404 13.9054 32.9139C13.3952 35.6091 10.1876 37.6427 8.29104 39.2518C7.23724 40.1441 4.923 41.6284 4.923 41.6284C4.923 41.6284 13.222 45.3139 12.4155 48.7638C11.0136 54.7079 -2.40181 59.2233 0.378064 60.716C22.646 72.5813 253.262 65.8074 275.459 65.8074C283.143 65.8074 291.099 66.8082 298.651 65.8074C301.18 65.476 303.963 65.8074 306.5 65.8074C307.625 65.8074 310.664 66.6478 309.869 65.8074C305.554 61.2374 294.706 54.8254 293.406 47.9791C293.151 46.6362 293.876 44.7714 294.81 43.1579C296.755 39.801 298.651 40.4493 298.651 39.8232C298.651 39.1978 297.453 39.7603 296.032 39.2574C292.86 38.1389 287.338 35.026 288.539 30.5407C289.451 27.1765 293.534 23.9282 296.032 21.8212C298.132 20.0466 295.129 20.1508 293.788 19.8428C290.152 18.9828 285.731 18.0928 283.685 14.2914C281.649 10.5257 284.608 5.72843 287.431 3.58796C288.315 2.92237 289.838 2.44783 291.212 2.13035C292.586 1.81287 292.177 1.60958 290.645 1.60958H260.487C238.664 1.60958 216.836 0.817556 195.017 0.817556C173.954 0.817556 152.855 -0.203383 131.78 0.417647C106.98 1.13615 6.75657 -1.22878 3.59572 4.20119Z" fill="#121212"/>
<path fill-rule="evenodd" clip-rule="evenodd" d="M8.71212 9.44688C9.75868 9.42683 11.238 9.40901 13.4971 9.39508C17.3672 9.38002 21.2372 9.3726 25.1073 9.3728L25.1062 8.92555L25.0923 1.24316C27.4174 1.14183 29.7432 1.05605 32.0695 0.985836L32.0701 9.36835C38.7042 9.36668 45.9845 9.36723 52.1903 9.36835H52.2884L52.2878 8.92555L52.2722 0.602079C54.5714 0.578129 56.9018 0.559191 59.2506 0.544153V0.641068L59.2517 9.3689C61.4144 9.3689 63.2436 9.36835 64.602 9.36723C69.5513 9.36445 74.5079 9.36222 79.47 9.36055L79.4694 8.92611L79.4538 0.496811C81.7987 0.498482 84.1291 0.50238 86.4322 0.506835V0.641068L86.4333 9.35776L108.148 9.35219L108.147 8.92555L108.131 0.563648C110.564 0.568104 112.897 0.570887 115.11 0.569773V0.641068L115.111 9.35108L135.329 9.34774L135.328 8.92555L135.312 0.328045C137.638 0.279031 139.964 0.247842 142.291 0.231689V0.641068L142.292 9.34663L162.511 9.34105L162.51 8.92555L162.494 0.369262C164.821 0.407136 167.147 0.449466 169.473 0.492354V0.641068L169.474 9.33938C175.487 9.33716 181.492 9.33437 187.485 9.33103L187.484 8.92555C187.479 6.2075 187.474 3.49223 187.468 0.777526C189.795 0.800362 192.121 0.814287 194.447 0.816515L194.448 9.32713C201.187 9.3232 207.926 9.31819 214.666 9.31209L214.665 8.92555L214.651 0.988064C216.977 1.02315 219.303 1.06214 221.628 1.1028L221.629 9.30596L240.083 9.29037L241.847 9.28926L241.847 8.92555L241.833 1.45258C244.159 1.48712 246.484 1.51775 248.81 1.54226L248.811 9.28313L270.525 9.2653L270.524 8.92555C270.521 6.48487 270.516 4.04643 270.511 1.60909H277.488L277.488 9.25974L283.389 9.25584C282.856 10.9329 282.827 12.7035 283.685 14.2909C284.089 15.0421 284.613 15.7224 285.235 16.3049L277.49 16.3027L277.493 30.0801L288.686 30.0723C288.631 30.2283 288.582 30.3842 288.539 30.5402C287.799 33.3067 289.615 35.5507 291.86 37.127L277.492 37.1231C277.492 41.7232 277.489 46.3138 277.488 50.9005C283.154 50.896 288.826 50.8921 294.505 50.8888C296.569 54.6178 300.882 58.1495 304.664 61.2408L304.662 65.7645L303.927 65.7345C302.155 65.6604 300.346 65.5846 298.651 65.8069C298.351 65.8467 298.051 65.8835 297.75 65.9172C297.747 63.2648 297.744 60.608 297.742 57.9479C290.95 57.9474 284.205 57.9457 277.484 57.9429L277.48 65.828C276.807 65.8143 276.133 65.8073 275.46 65.8069C274.341 65.8069 272.693 65.8241 270.569 65.8553C270.566 63.2214 270.563 60.5824 270.561 57.9407L248.807 57.9318L248.803 66.2563L241.892 66.3895C241.888 63.5745 241.885 60.7534 241.883 57.929C235.154 57.9268 228.409 57.9256 221.625 57.9256L221.621 66.7621C219.363 66.8011 217.058 66.8406 214.711 66.8802C214.707 63.9009 214.704 60.9155 214.701 57.9256L194.443 57.9268L194.44 67.1926C192.159 67.2249 189.855 67.2561 187.53 67.2862L187.529 66.9169C187.525 63.926 187.522 60.9289 187.52 57.9279H183.299L169.47 57.9295L169.465 67.4951C167.173 67.5179 164.87 67.5396 162.557 67.5597L162.556 66.9169C162.552 63.9271 162.549 60.9305 162.547 57.9301L147.647 57.9306H142.288L142.284 67.6939C139.981 67.7039 137.677 67.7123 135.374 67.7184L135.374 66.9169C135.37 63.9271 135.367 60.9305 135.364 57.9301L115.107 57.9279L115.103 67.7162C112.79 67.709 110.486 67.6995 108.193 67.6867L108.193 66.9169C108.189 63.926 108.186 60.9283 108.183 57.9268L87.2938 57.9223H86.4289L86.425 67.475C84.0985 67.4416 81.7942 67.4043 79.5151 67.3631V66.9169C79.5111 63.9183 79.5079 60.9198 79.5056 57.9212L59.2478 57.9173L59.2433 66.8662C56.894 66.7911 54.5892 66.7103 52.3329 66.624C52.3296 63.7266 52.3262 60.8236 52.324 57.9162L32.0662 57.9139L32.0623 65.5869C29.6522 65.4242 27.3447 65.251 25.1496 65.0655C25.1469 62.6856 25.1441 60.3011 25.1424 57.9139H24.7826C22.5369 57.9139 19.2273 57.9162 15.4577 57.919L15.1062 57.9195C11.1461 57.9223 6.70701 57.9256 2.47119 57.9268C2.88892 57.6516 3.34342 57.3609 3.82019 57.0562C6.37059 55.4254 9.56263 53.3846 11.2876 51.0525C11.9281 51.0464 12.6589 51.0408 13.4971 51.0358C15.524 51.0241 19.8183 51.0169 25.1379 51.013L25.1335 40.8476L25.1324 37.0936H24.7826C22.5369 37.0936 19.2273 37.0964 15.4577 37.0991H15.1062L10.9395 37.1019C12.3219 35.91 13.5996 34.5309 13.9054 32.9135C14.1226 31.7611 14.0151 30.8883 13.6826 30.2143C15.7774 30.2032 19.9703 30.1965 25.1285 30.1926C25.1262 25.5424 25.1229 20.9 25.1173 16.2738H24.7832C22.4784 16.2738 19.0546 16.276 15.1636 16.2788H15.0984L12.8154 16.2804C12.8666 13.9189 10.866 11.506 8.71212 9.44688ZM187.516 50.9718C181.512 50.9751 175.497 50.9779 169.473 50.9796C169.475 46.3617 169.477 41.7404 169.478 37.1092L183.299 37.1081L187.51 37.1075L187.511 41.2024C187.512 44.4596 187.514 47.7168 187.516 50.9718ZM162.536 37.1097L147.647 37.1103H142.296C142.295 41.7438 142.293 46.3672 142.291 50.9868C149.048 50.9857 155.799 50.984 162.542 50.9818L162.538 41.5193L162.536 37.1097ZM187.506 30.1514C181.508 30.1547 175.497 30.157 169.478 30.1592C169.478 25.5218 169.477 20.9006 169.476 16.2888L183.299 16.2877L187.495 16.2871C187.5 20.8955 187.504 25.5196 187.506 30.1514ZM162.533 30.162C162.53 25.5274 162.526 20.9006 162.521 16.2893L147.647 16.2899H142.294C142.295 20.9039 142.296 25.5268 142.296 30.1664L162.533 30.162ZM241.858 16.2882C235.139 16.2866 228.405 16.2849 221.631 16.2849L221.633 30.1263L240.497 30.1107L241.869 30.1096C241.867 25.4923 241.863 20.8822 241.858 16.2882ZM241.872 37.1086C235.15 37.1064 228.411 37.1053 221.633 37.1053L221.628 50.9467L241.879 50.9294L241.874 40.8565L241.872 37.1086ZM248.81 50.9239L248.815 37.1114L261.76 37.1164L270.551 37.1203L270.552 40.8632L270.556 50.906L248.81 50.9239ZM248.815 30.1035C248.815 25.485 248.813 20.8839 248.812 16.2905L261.76 16.296L270.536 16.2999C270.541 20.8822 270.544 25.48 270.547 30.0851L248.815 30.1035ZM108.179 50.9929L86.4322 50.9985C86.4344 46.3723 86.4361 41.7421 86.4367 37.1019L108.173 37.1064L108.174 40.8738L108.179 50.9929ZM79.4967 40.8404L79.4951 37.1008L59.2556 37.0969C59.2545 41.7421 59.2528 46.3773 59.2506 51.0091L64.602 51.008C69.5614 51.0052 74.5285 51.003 79.5012 51.0013L79.4967 40.8404ZM108.17 30.1726L86.4372 30.1781C86.4372 25.5318 86.4361 20.9022 86.435 16.2816L108.158 16.286C108.164 20.9017 108.167 25.5335 108.17 30.1726ZM79.4917 30.1809C79.4895 25.5368 79.4856 20.9006 79.48 16.2804L59.2534 16.2765L59.2562 30.1887C61.4167 30.1887 63.2447 30.1887 64.602 30.1876C69.5586 30.1848 74.5223 30.1826 79.4917 30.1809ZM135.354 37.1097L115.115 37.1075C115.114 41.7432 115.112 46.3695 115.11 50.9918L135.36 50.9879L135.355 40.8582L135.354 37.1097ZM135.35 30.1681C135.348 25.5313 135.345 20.9022 135.339 16.2893C128.589 16.2893 121.848 16.2882 115.113 16.2871L115.115 30.1715L135.35 30.1681ZM214.676 16.2849L194.45 16.2866V16.5049C194.451 21.0415 194.452 25.5859 194.452 30.1469C201.197 30.143 207.943 30.138 214.688 30.1319C214.685 25.5062 214.682 20.8872 214.676 16.2849ZM214.691 37.1053L194.451 37.1069C194.451 41.7349 194.449 46.3528 194.447 50.9673L201.733 50.9623L214.697 50.9523L214.693 41.2041L214.691 37.1053ZM52.3151 40.8404L52.3134 37.0958C45.5746 37.0947 38.829 37.0941 32.074 37.0941C32.0734 41.7404 32.0712 46.3767 32.0695 51.0096C38.6602 51.0074 45.8893 51.008 52.0684 51.0085H52.3196L52.3151 40.8404ZM52.3106 30.1882C52.3079 25.5402 52.3045 20.9 52.299 16.2754C45.564 16.2749 38.8229 16.2738 32.0718 16.2738L32.0745 30.1893C38.6786 30.187 45.9232 30.1876 52.1101 30.1882H52.3106Z" fill="#156BD8"/>
</svg>
