<svg width="80" height="100" viewBox="0 0 80 100" fill="none" xmlns="http://www.w3.org/2000/svg">
<path d="M38.5266 1.15932C35.3039 1.07754 8.85522 36.1288 7.38069 38.4283C4.69003 42.6001 1.65674 45.5742 2.06255 49.4546C2.27885 51.4972 5.11427 52.28 6.77839 52.648C11.8212 53.7611 17.3725 53.2895 22.5082 53.1936C23.8435 53.1334 25.1811 53.1464 26.515 53.2323C26.7022 53.2505 27.7873 53.2013 27.9193 53.3639C28.2163 53.7198 26.8892 55.9111 26.7346 56.2614C25.4183 59.2543 23.891 62.1634 23.05 65.3518C21.0825 72.8078 19.6578 80.3683 17.6209 87.8131C17.0517 89.7133 16.6471 91.659 16.4117 93.6287C16.33 94.5288 16.079 95.4408 16.6785 96.1607C17.5205 97.1858 20.1852 97.486 21.3787 97.6854C26.0387 98.4553 38.9122 82.2447 41.0979 82.3596C43.4153 82.475 55.3461 99.1663 58.536 98.6335C60.1228 98.372 61.7981 98.2952 63.101 97.211C66.3893 94.4816 65.4221 90.5219 64.6595 86.7526C63.3078 80.0494 62.15 73.3308 60.5973 66.6665C59.9041 63.693 59.3631 60.6783 58.6739 57.7169C58.6165 57.4711 57.8643 55.3357 58.0797 55.1586C58.1871 55.066 58.9961 55.1903 59.1679 55.1647C60.1505 55.0913 61.1948 54.7477 62.1528 54.5241C66.0542 53.6146 70.5141 53.22 74.1941 51.6377C75.6937 50.9906 77.117 50.6754 77.7757 49.0453C79.0639 45.8632 77.289 42.6775 75.6091 40.08C73.7413 37.2397 43.9789 1.29148 38.5266 1.15932Z" fill="#156BD8"/>
<path d="M49.1052 12.471C48.8204 12.2102 48.5389 11.7338 48.2343 11.4128C46.9444 10.0567 46.513 9.50001 45.345 8.29958C43.6524 6.3416 37.8271 2.07435 38.5046 2.06628C38.5046 2.06626 38.5046 2.06624 38.5046 2.06621C38.5048 2.05738 38.5052 2.04845 38.5058 2.03942C38.4403 1.84035 38.9973 1.76898 39.1367 1.63242C39.2689 1.48884 39.7134 0.252538 40.6793 0.699154C42.0655 1.33667 44.3172 3.69789 44.8441 4.16335C45.203 4.46917 45.7607 4.82263 46.2067 5.21122C47.7358 6.55613 48.3956 7.33061 49.8907 8.39514C50.2928 9.03345 50.6575 9.64041 51.0493 10.2805C51.7556 10.9007 52.5791 12.0804 52.9747 12.4842C53.2986 12.814 53.5793 12.9246 53.9165 13.2769C54.2995 13.6762 54.7594 14.3754 55.4475 15.0934C56.573 16.2704 57.0099 16.2538 57.6993 16.9514C58.4094 17.6702 59.3233 18.9639 60.2668 19.8499C60.4017 19.9462 60.5366 20.0426 60.6713 20.1389C60.6573 19.9968 60.6433 19.8546 60.6291 19.7124C61.0886 20.1722 61.145 20.4954 61.5384 20.9466C62.0002 21.477 62.3579 21.6384 62.667 21.9927C62.922 22.2852 63.1717 22.7697 63.5065 23.1421C63.9937 23.6854 64.0308 23.4412 64.3135 23.7133C64.4355 23.8302 66.4026 25.9546 66.5146 26.0862C67.3272 27.0249 67.2023 27.2765 67.8316 28.0521C69.5682 30.1935 71.5462 32.2363 73.2177 34.1537C73.985 35.0355 74.7067 35.9489 75.3961 36.8827C73.7226 35.8355 75.8525 39.3555 75.7054 37.5014C76.1404 38.2012 76.4969 38.5422 76.9944 39.1689L77.0014 39.1795C77.2774 39.5353 77.555 39.9057 77.8065 40.3655C78.1954 41.0935 78.3655 41.6525 78.8614 42.7733C79.8316 44.6824 80.2654 47.6182 79.3097 48.1477C79.2408 48.6297 79.1113 49.0927 78.9446 49.5185C77.922 51.9899 75.6868 52.2203 75.4296 53.0042C75.2895 53.0718 75.0855 53.1321 74.8634 53.1889C74.1114 53.4106 73.0863 53.5336 72.5871 53.6451C71.9314 53.8895 67.0717 54.7251 66.3101 54.8205C65.531 54.9521 64.1838 55.1911 63.5596 55.3808C63.1663 55.498 62.8684 55.7522 62.4791 55.9237C62.1149 56.0877 61.6224 56.202 60.7584 56.0045C60.2022 56.1559 59.7171 56.2522 59.2519 56.2906L59.3341 56.2815C58.7053 56.3186 58.7502 56.2693 58.5337 56.2631C58.5385 56.1692 57.6741 56.5089 58.8085 56.0043L58.7887 56.0209C59.5355 54.8359 59.0326 55.3968 59.1486 55.3313C59.1515 55.3894 59.1639 55.4825 59.1807 55.5828C59.215 55.7864 59.2667 56.03 59.3317 56.3086C59.396 56.5806 59.2949 56.6466 59.3444 56.8056C59.3992 56.9869 59.4711 57.1125 59.6026 57.5C59.6881 57.7649 59.7819 58.0643 59.8568 58.3755C60.0986 59.3836 59.9762 60.0103 60.3207 59.82C60.5235 60.4733 60.7225 61.1261 60.9208 61.7767C60.8977 62.0241 60.8746 62.2712 60.8515 62.518C61.0019 62.856 61.1525 63.1932 61.3037 63.5293C60.6823 63.2287 61.5263 65.6372 61.6586 64.7675C61.7272 65.3028 61.7988 65.8366 61.875 66.3686C61.9867 67.1382 62.093 67.9074 62.1951 68.6765C61.5565 68.629 62.7342 71.5194 63.0067 71.1996C63.0371 71.3475 63.0674 71.4953 63.0975 71.6432C63.2044 72.9696 63.5747 74.1308 63.7757 75.7284C63.9755 77.3253 63.8863 77.1886 63.7002 77.7215C63.7878 78.0889 63.8751 78.4563 63.9624 78.8237C65.1018 80.6198 63.7074 80.533 64.9393 83.7425C64.785 84.3941 64.9616 85.4957 65.2381 86.6359C65.4522 87.513 65.7299 88.4261 65.922 89.1976C65.9731 89.4039 66.0681 89.3917 66.1391 89.6696C66.3413 90.3416 66.2983 92.183 66.5783 92.1334C66.4798 92.7916 66.3232 93.4528 66.0812 94.0861C66.0087 94.6327 65.8722 95.1868 65.6619 95.7236C65.7485 95.7643 65.8352 95.8049 65.922 95.8454C65.3146 96.5472 64.5386 97.5006 63.8112 98.0666C63.5512 98.2776 63.2963 98.4383 63.0841 98.5408C62.9144 98.6167 62.8174 98.5405 62.3021 98.7277C61.6975 98.9575 60.6054 99.234 59.9419 99.2842C59.7069 99.4685 59.4728 99.6493 59.2486 99.8301C59.0594 99.8714 58.8945 99.8968 58.7467 99.9118C56.9814 99.8935 57.0333 99.1901 56.4221 98.8772C56.2604 98.8334 54.3981 97.3379 54.3361 97.2521C53.5553 96.6025 53.4805 97.0506 51.5151 94.9015C51.1626 94.5101 50.9702 94.1358 50.6538 93.7857C50.0995 93.1787 48.2625 91.5113 47.957 91.5237C47.5184 90.5817 45.6829 88.6878 45.2286 88.0564C45.0973 87.8708 45.194 87.692 44.7486 87.1409C44.3791 86.6818 43.2576 85.6963 42.7699 85.1764C42.2611 84.6275 42.1777 84.3375 41.9278 84.0981C41.7113 83.8943 41.4055 83.7997 41.1245 83.6115C41.0075 83.5157 40.7878 83.4665 41.0412 83.4986C41.2487 83.3936 39.7205 84.2284 39.2003 84.7614C38.0088 85.8296 37.2734 87.1009 36.4245 88.1722C36.1635 88.3947 35.8763 88.5633 35.6227 88.8127C32.4663 91.8546 29.0233 95.4215 24.9515 97.8419C24.1867 98.2154 22.9945 98.9779 21.2049 98.7375C19.4555 98.4301 17.6884 97.9408 18.4588 98.696C18.1228 98.5791 17.0792 98.7181 15.503 97.1262L15.5095 97.1341C14.3426 95.6042 14.9925 94.0554 15.0197 93.5024L15.0239 93.4628C15.1632 92.6345 15.308 91.9596 15.3609 91.6609C15.5385 90.663 15.5598 89.8427 15.7496 89.0631C15.8957 88.4669 16.0527 87.921 16.2186 87.393L16.209 87.4268C16.6369 85.9425 17.0324 84.5653 17.4308 82.5082C17.5681 81.7958 17.5693 80.9976 17.67 80.5801C17.7918 80.0775 18.0918 79.5754 18.2544 78.9236C18.6415 77.3709 19.2454 74.4402 19.6229 72.9416C19.6921 72.6682 19.8662 72.6068 20.0047 72.2249C20.5434 70.7378 20.9406 69.0202 20.3838 69.2067C20.9505 67.7689 21.2078 66.3446 21.5087 64.9451C21.612 64.4709 21.7317 64.0043 21.8758 63.5481C22.5596 61.287 24.0489 58.2917 25.2381 55.6032C25.6179 54.8457 25.8004 54.5532 26.0232 54.0852C26.1255 53.8727 26.2175 53.6646 26.275 53.5044C26.3031 53.4276 26.3222 53.3561 26.3194 53.3564C26.4059 53.4207 25.98 53.2291 26.6418 54.4296L26.628 54.4128C27.8931 55.3759 27.3191 54.7983 27.3962 54.9264C27.344 54.9235 27.2522 54.9209 27.1575 54.9211C26.9213 54.9173 26.8898 54.9421 26.3502 54.9222L26.4059 54.9267C25.8969 54.9109 25.4307 54.9132 25.0211 54.9294C23.841 54.981 23.3597 55.1047 22.5975 55.1752L22.5453 55.1769C21.9535 55.2178 21.1992 55.2304 19.8401 55.1918C19.1335 55.1714 18.4257 55.1373 17.5592 55.1089C15.5215 55.0433 13.6532 54.632 12.0507 55.0504C9.87022 54.8231 8.05119 54.66 6.49015 53.9539C6.40774 53.9159 6.32159 53.8753 6.23965 53.8338C6.01599 53.8866 5.78622 53.9351 5.55397 53.979C5.26293 53.9044 4.96925 53.8213 4.67334 53.726C4.61229 53.6034 4.55178 53.4798 4.49459 53.3561C3.27817 52.868 0.982854 52.1691 0.510401 49.6189C0.35563 48.7488 0.370919 47.892 0.502649 47.2C0.873043 44.2094 4.43248 40.1804 6.15712 37.6392C6.6658 36.9273 7.104 36.3934 7.43509 35.9807C8.34279 34.864 8.20693 34.7022 9.03008 34.3132C9.18822 34.0515 9.35443 33.7795 9.52821 33.4981C9.57656 33.2773 9.60723 33.0802 9.65033 32.8668C10.7298 31.4235 12.1504 29.7947 13.1793 28.4485C15.0872 25.9469 17.7455 22.1045 19.8331 19.741C20.3535 19.1512 21.1166 18.5009 21.5957 17.8967C22.2943 17.0168 22.2099 16.6079 23.1022 15.4905C24.6347 13.5654 27.8235 10.2797 29.32 8.49903C29.773 7.95706 29.8919 7.63729 30.1905 7.27378C31.4743 5.71703 32.5718 4.49912 33.8006 2.96235C35.5075 1.67101 35.6578 2.12485 36.4244 1.96574C36.9027 1.86484 38.8128 1.50956 38.5223 1.99087C38.439 2.18858 38.754 2.38393 38.7347 2.59324C37.7524 3.39358 36.5238 4.43558 35.0556 5.5534C32.5746 8.22164 30.2259 11.0372 27.9037 13.866C27.6053 14.0524 27.3057 14.2411 27.005 14.4318C27.0048 14.4317 27.0046 14.4315 27.0045 14.4314C26.0201 15.4304 25.8556 16.092 25.434 16.717C21.5888 22.4 13.1192 32.5884 8.35812 39.0551C8.07343 39.4845 7.79519 39.8883 7.52799 40.2697C6.45476 41.743 3.45501 46.2719 3.33107 47.2285C3.22001 47.4713 3.03453 47.5082 2.9777 47.791C2.91235 48.3169 2.91764 48.8397 2.99328 49.3572C3.12845 50.5073 5.19946 51.218 7.0264 51.5267C7.30409 51.5773 7.58389 51.6231 7.86477 51.6642C12.4624 52.729 17.4929 52.2256 22.487 52.0568L22.4571 52.0577C23.6215 51.9894 24.7869 51.9773 25.9447 52.0244C26.1602 52.0331 26.3755 52.0437 26.5908 52.0562L26.6294 52.0593C26.6428 52.0565 27.025 52.0546 27.265 52.0608C27.6866 52.202 27.3257 51.6339 28.8418 52.6146L28.8319 52.6026C29.5546 54.4345 28.9143 54.1018 28.9174 54.5625C28.8002 54.8659 28.6766 55.13 28.5511 55.3877C28.3157 55.8735 27.9841 56.4678 27.8421 56.7503C26.5185 59.8067 25.0476 62.6861 24.286 65.6778C22.3773 73.1103 20.99 80.6984 18.9562 88.1784L18.9471 88.2103C18.4036 90.0359 18.0163 91.9057 17.7896 93.7934L17.7937 93.7541C17.6494 94.8144 17.673 95.2926 17.7426 95.2745C17.7557 95.3347 18.2664 95.6274 18.7791 95.7694C19.5638 96.0118 20.5087 96.144 21.6097 96.3027C22.6328 96.4138 25.114 94.5954 26.5988 93.4175C27.5636 92.6569 28.144 92.5187 29.2184 91.2528C29.2817 91.2959 29.345 91.3389 29.4083 91.3819C30.4051 90.3338 30.9521 89.5711 32.1036 88.4219C33.0751 87.4547 35.6457 84.8781 36.5815 84.0424C37.0464 83.6234 36.9867 83.8695 37.4192 83.4693C37.7185 83.1944 38.1331 82.7765 38.6253 82.3275C39.2547 81.907 39.2517 81.2837 41.1704 80.9803C42.3457 81.1538 42.4388 81.4478 42.8301 81.6762C44.053 82.596 45.3409 84.2621 46.0374 84.9726C48.4895 87.5184 51.1156 90.2592 53.5802 92.9611C54.2567 93.7079 55.0384 94.7407 55.2695 94.9512C55.7135 95.3621 55.9695 95.357 56.2758 95.6015C56.8988 96.1888 58.645 97.2183 58.2836 97.1224C59.7226 96.9459 60.87 96.8461 61.5281 96.5178C61.7732 96.4045 61.989 96.2706 62.1843 96.1093C64.6386 94.301 64.0562 90.6999 63.2349 87.0408C62.654 84.2039 62.1148 81.3829 61.5992 78.6393C61.0053 75.4688 60.0647 70.7516 59.2294 66.9852C58.9463 65.6991 58.7224 64.5182 58.5517 63.5356C58.4053 62.6883 58.6402 62.8737 58.495 62.169C58.3341 61.3882 58.1193 60.9938 58.0328 60.6332C57.8666 59.9427 57.6458 59.024 57.3884 58.0161C57.3198 57.8256 57.1301 57.2693 56.9999 56.8461C56.9299 56.6181 56.8615 56.3858 56.7974 56.1221C56.7656 55.9888 56.7347 55.8523 56.7079 55.6751C56.8346 55.3462 56.1415 55.7901 57.2125 54.104L57.1884 54.1244C58.5036 53.442 58.109 53.8477 58.3747 53.7558C58.511 53.7576 58.6185 53.7639 58.7202 53.77C58.8582 53.7862 59.306 53.7845 58.9652 53.8033L59.0653 53.7921C59.9071 53.7198 60.9066 53.3932 61.8424 53.1945C62.2952 53.0984 62.7005 53.0256 63.0432 52.9736C63.5137 52.9027 63.8769 52.9861 64.1531 52.9326C64.2925 52.9059 64.5893 52.7449 65.0241 52.6539C68.3938 51.945 70.9383 51.5816 73.6911 50.468C74.1188 50.2883 74.5415 50.1342 74.9268 49.9769C75.8648 49.5954 76.345 49.2657 76.6209 48.5787C77.6346 46.2687 76.281 43.3886 74.5238 40.7818C72.5558 38.1577 70.1088 35.2798 67.9819 32.6469C66.9286 31.3531 66.4006 30.2703 66.2562 30.104C65.9227 29.7198 65.5523 29.5921 64.8347 28.8265C62.4674 26.2967 59.5458 22.6193 57.2707 20.2309C56.1462 19.0459 54.4586 17.5625 53.3266 16.4189C52.4392 15.5152 50.4318 13.237 49.959 12.9109C49.6726 12.7091 49.4124 12.7508 49.1052 12.471ZM79.1634 44.0742C78.8226 43.8914 79.6212 46.5484 79.6232 45.4945C79.6471 45.236 79.2815 44.1 79.1634 44.0742ZM30.9782 92.4677C31.062 92.5249 31.1458 92.582 31.2297 92.6391C31.4361 92.3899 31.6379 92.143 31.841 91.8933C31.6702 91.9735 31.4994 92.0532 31.3286 92.1323C31.2126 92.2438 31.0957 92.3557 30.9782 92.4677Z" fill="#121212"/>
</svg>
