<svg width="80" height="100" viewBox="0 0 80 100" fill="none" xmlns="http://www.w3.org/2000/svg">
<path d="M38.5266 1.15942C35.3039 1.07763 8.85523 36.1289 7.3807 38.4284C4.69003 42.6002 1.65675 45.5743 2.06255 49.4546C2.27886 51.4973 5.11427 52.2801 6.7784 52.6481C11.8212 53.7612 17.3725 53.2896 22.5082 53.1937C23.8435 53.1335 25.1811 53.1464 26.515 53.2324C26.7022 53.2506 27.7873 53.2014 27.9193 53.364C28.2163 53.7199 26.8892 55.9112 26.7346 56.2615C25.4183 59.2544 23.891 62.1635 23.05 65.3519C21.0825 72.8079 19.6578 80.3684 17.6209 87.8132C17.0517 89.7134 16.6471 91.6591 16.4117 93.6288C16.33 94.5289 16.079 95.4408 16.6785 96.1607C17.5205 97.1859 20.1852 97.4861 21.3787 97.6855C26.0387 98.4554 38.9122 82.2448 41.0979 82.3597C43.4153 82.4751 55.3461 99.1664 58.536 98.6335C60.1228 98.3721 61.7981 98.2952 63.101 97.2111C66.3893 94.4816 65.4222 90.522 64.6596 86.7527C63.3078 80.0495 62.15 73.3309 60.5973 66.6666C59.9041 63.6931 59.3631 60.6784 58.6739 57.717C58.6165 57.4712 57.8643 55.3358 58.0797 55.1587C58.1871 55.0661 58.9961 55.1904 59.1679 55.1648C60.1505 55.0914 61.1948 54.7478 62.1528 54.5241C66.0542 53.6147 70.5141 53.2201 74.1941 51.6378C75.6937 50.9907 77.117 50.6755 77.7757 49.0454C79.0639 45.8633 77.289 42.6776 75.6091 40.0801C73.7413 37.2398 43.9789 1.29157 38.5266 1.15942Z" fill="#156BD8"/>
<path d="M49.1052 12.4711C48.8204 12.2103 48.5389 11.7339 48.2343 11.4129C46.9444 10.0568 46.513 9.5001 45.345 8.29967C43.6524 6.34169 37.8271 2.07444 38.5046 2.06638C38.5046 2.06636 38.5046 2.06633 38.5046 2.06631C38.5048 2.05748 38.5052 2.04855 38.5058 2.03952C38.4403 1.84045 38.9973 1.76907 39.1367 1.63252C39.2689 1.48893 39.7134 0.252634 40.6793 0.699249C42.0655 1.33677 44.3172 3.69799 44.8441 4.16345C45.203 4.46926 45.7607 4.82273 46.2067 5.21131C47.7358 6.55623 48.3956 7.3307 49.8907 8.39524C50.2928 9.03355 50.6575 9.64051 51.0493 10.2806C51.7556 10.9008 52.5791 12.0804 52.9747 12.4843C53.2986 12.8141 53.5793 12.9247 53.9165 13.277C54.2995 13.6763 54.7594 14.3755 55.4475 15.0935C56.573 16.2705 57.0099 16.2539 57.6993 16.9515C58.4094 17.6703 59.3233 18.964 60.2668 19.85C60.4017 19.9463 60.5366 20.0427 60.6713 20.139C60.6573 19.9969 60.6433 19.8547 60.6291 19.7125C61.0886 20.1723 61.145 20.4955 61.5384 20.9467C62.0002 21.4771 62.3579 21.6385 62.667 21.9928C62.922 22.2853 63.1717 22.7698 63.5065 23.1422C63.9937 23.6855 64.0308 23.4413 64.3135 23.7134C64.4356 23.8303 66.4026 25.9547 66.5146 26.0863C67.3272 27.025 67.2023 27.2766 67.8316 28.0522C69.5682 30.1936 71.5463 32.2364 73.2177 34.1538C73.985 35.0356 74.7067 35.949 75.3961 36.8828C73.7226 35.8356 75.8525 39.3556 75.7054 37.5015C76.1404 38.2013 76.4969 38.5423 76.9945 39.169L77.0014 39.1796C77.2774 39.5354 77.555 39.9058 77.8065 40.3656C78.1954 41.0936 78.3655 41.6526 78.8614 42.7734C79.8316 44.6825 80.2654 47.6183 79.3097 48.1478C79.2408 48.6298 79.1113 49.0928 78.9446 49.5186C77.922 51.99 75.6868 52.2204 75.4296 53.0042C75.2895 53.0719 75.0855 53.1322 74.8634 53.189C74.1114 53.4107 73.0863 53.5337 72.5871 53.6452C71.9314 53.8896 67.0716 54.7252 66.3101 54.8206C65.531 54.9522 64.1838 55.1912 63.5596 55.3809C63.1663 55.4981 62.8684 55.7523 62.4791 55.9238C62.1149 56.0878 61.6224 56.2021 60.7584 56.0045C60.2022 56.1559 59.7171 56.2523 59.2519 56.2907L59.3341 56.2815C58.7053 56.3187 58.7502 56.2694 58.5337 56.2632C58.5385 56.1693 57.6741 56.509 58.8085 56.0044L58.7887 56.021C59.5355 54.836 59.0326 55.3969 59.1486 55.3314C59.1515 55.3895 59.1639 55.4826 59.1807 55.5829C59.215 55.7865 59.2667 56.0301 59.3317 56.3087C59.396 56.5807 59.295 56.6467 59.3444 56.8057C59.3992 56.987 59.4711 57.1126 59.6026 57.5001C59.6881 57.765 59.7819 58.0644 59.8568 58.3756C60.0986 59.3837 59.9762 60.0104 60.3207 59.8201C60.5235 60.4734 60.7225 61.1262 60.9208 61.7768C60.8977 62.0242 60.8746 62.2713 60.8515 62.5181C61.0019 62.8561 61.1525 63.1933 61.3037 63.5294C60.6823 63.2288 61.5263 65.6373 61.6586 64.7676C61.7272 65.3029 61.7988 65.8366 61.875 66.3687C61.9867 67.1383 62.093 67.9075 62.1951 68.6766C61.5565 68.6291 62.7342 71.5195 63.0067 71.1997C63.0371 71.3476 63.0674 71.4954 63.0975 71.6433C63.2044 72.9697 63.5747 74.1309 63.7757 75.7285C63.9755 77.3254 63.8863 77.1887 63.7002 77.7216C63.7878 78.089 63.8751 78.4564 63.9624 78.8238C65.1018 80.6199 63.7074 80.5331 64.9393 83.7426C64.785 84.3942 64.9616 85.4958 65.2381 86.636C65.4522 87.5131 65.7299 88.4262 65.922 89.1977C65.9731 89.404 66.0681 89.3918 66.1391 89.6697C66.3413 90.3417 66.2983 92.1831 66.5783 92.1335C66.4798 92.7917 66.3232 93.4529 66.0812 94.0862C66.0087 94.6328 65.8722 95.1868 65.6619 95.7237C65.7485 95.7644 65.8352 95.805 65.922 95.8455C65.3146 96.5473 64.5386 97.5007 63.8112 98.0667C63.5512 98.2777 63.2963 98.4384 63.0841 98.5409C62.9144 98.6168 62.8174 98.5406 62.3021 98.7278C61.6975 98.9576 60.6054 99.2341 59.9419 99.2843C59.7069 99.4686 59.4728 99.6494 59.2486 99.8302C59.0594 99.8715 58.8945 99.8969 58.7467 99.9119C56.9814 99.8936 57.0333 99.1902 56.4221 98.8773C56.2604 98.8335 54.3981 97.338 54.3361 97.2522C53.5553 96.6026 53.4805 97.0507 51.5151 94.9016C51.1626 94.5102 50.9702 94.1359 50.6538 93.7858C50.0995 93.1788 48.2625 91.5114 47.957 91.5238C47.5184 90.5818 45.6829 88.6879 45.2286 88.0564C45.0973 87.8709 45.194 87.6921 44.7486 87.141C44.3791 86.6819 43.2576 85.6964 42.7699 85.1765C42.2611 84.6276 42.1777 84.3376 41.9278 84.0982C41.7113 83.8943 41.4055 83.7998 41.1245 83.6115C41.0075 83.5158 40.7878 83.4666 41.0412 83.4986C41.2487 83.3937 39.7205 84.2285 39.2003 84.7614C38.0088 85.8297 37.2734 87.101 36.4245 88.1722C36.1635 88.3947 35.8763 88.5634 35.6227 88.8128C32.4663 91.8547 29.0233 95.4216 24.9515 97.842C24.1867 98.2155 22.9945 98.978 21.2049 98.7376C19.4555 98.4302 17.6884 97.9409 18.4588 98.6961C18.1228 98.5792 17.0792 98.7182 15.503 97.1262L15.5095 97.1342C14.3427 95.6043 14.9925 94.0555 15.0197 93.5025L15.0239 93.4629C15.1632 92.6346 15.308 91.9597 15.3609 91.661C15.5385 90.6631 15.5598 89.8428 15.7496 89.0632C15.8957 88.467 16.0527 87.9211 16.2186 87.3931L16.209 87.4269C16.6369 85.9426 17.0324 84.5654 17.4308 82.5083C17.5681 81.7959 17.5693 80.9977 17.67 80.5802C17.7918 80.0776 18.0918 79.5755 18.2544 78.9237C18.6415 77.371 19.2454 74.4403 19.6229 72.9417C19.6921 72.6683 19.8662 72.6069 20.0047 72.225C20.5434 70.7379 20.9406 69.0203 20.3838 69.2068C20.9505 67.769 21.2078 66.3447 21.5087 64.9452C21.612 64.471 21.7317 64.0044 21.8758 63.5482C22.5596 61.2871 24.0489 58.2918 25.2381 55.6033C25.6179 54.8458 25.8004 54.5533 26.0232 54.0853C26.1256 53.8727 26.2175 53.6647 26.275 53.5045C26.3031 53.4277 26.3222 53.3562 26.3194 53.3565C26.4059 53.4208 25.98 53.2292 26.6418 54.4297L26.628 54.4129C27.8931 55.376 27.3191 54.7984 27.3962 54.9265C27.3441 54.9235 27.2522 54.921 27.1575 54.9212C26.9213 54.9173 26.8898 54.9422 26.3502 54.9223L26.4059 54.9268C25.8969 54.911 25.4307 54.9133 25.0211 54.9295C23.841 54.9811 23.3597 55.1048 22.5975 55.1753L22.5453 55.1769C21.9535 55.2179 21.1992 55.2305 19.8402 55.1919C19.1335 55.1715 18.4258 55.1374 17.5593 55.109C15.5215 55.0434 13.6533 54.6321 12.0507 55.0505C9.87023 54.8232 8.05119 54.6601 6.49016 53.954C6.40774 53.916 6.3216 53.8754 6.23966 53.8338C6.016 53.8866 5.78623 53.9352 5.55398 53.9791C5.26295 53.9045 4.96926 53.8214 4.67335 53.7261C4.6123 53.6035 4.5518 53.4799 4.4946 53.3562C3.27818 52.868 0.98286 52.1692 0.510406 49.619C0.355636 48.7488 0.370924 47.8921 0.502653 47.2C0.873046 44.2095 4.43249 40.1805 6.15712 37.6393C6.6658 36.9274 7.104 36.3935 7.43509 35.9808C8.34279 34.8641 8.20693 34.7023 9.03008 34.3133C9.18822 34.0516 9.35443 33.7796 9.52821 33.4982C9.57655 33.2774 9.60723 33.0803 9.65033 32.8669C10.7298 31.4236 12.1504 29.7947 13.1793 28.4486C15.0872 25.947 17.7455 22.1046 19.8331 19.7411C20.3536 19.1513 21.1166 18.501 21.5957 17.8968C22.2943 17.0169 22.2099 16.6079 23.1022 15.4906C24.6347 13.5654 27.8235 10.2798 29.32 8.49913C29.773 7.95715 29.8919 7.63739 30.1905 7.27387C31.4743 5.71712 32.5718 4.49922 33.8006 2.96245C35.5075 1.67111 35.6578 2.12495 36.4244 1.96583C36.9027 1.86494 38.8128 1.50965 38.5223 1.99097C38.439 2.18868 38.754 2.38402 38.7347 2.59334C37.7524 3.39368 36.5238 4.43568 35.0556 5.55349C32.5746 8.22173 30.2259 11.0373 27.9037 13.866C27.6053 14.0525 27.3057 14.2412 27.005 14.4319C27.0048 14.4318 27.0046 14.4316 27.0045 14.4315C26.0201 15.4305 25.8556 16.0921 25.434 16.7171C21.5888 22.4001 13.1192 32.5885 8.35812 39.0552C8.07343 39.4846 7.7952 39.8884 7.52799 40.2698C6.45476 41.7431 3.45501 46.272 3.33107 47.2286C3.22002 47.4714 3.03453 47.5083 2.9777 47.7911C2.91235 48.317 2.91765 48.8398 2.99329 49.3573C3.12845 50.5074 5.19946 51.2181 7.02641 51.5268C7.3041 51.5774 7.5839 51.6232 7.86478 51.6643C12.4624 52.7291 17.4929 52.2257 22.487 52.0568L22.4571 52.0578C23.6215 51.9895 24.7869 51.9774 25.9447 52.0245C26.1602 52.0332 26.3756 52.0438 26.5908 52.0562L26.6294 52.0594C26.6428 52.0565 27.025 52.0546 27.265 52.0608C27.6866 52.2021 27.3257 51.634 28.8418 52.6147L28.8319 52.6027C29.5546 54.4346 28.9143 54.1019 28.9174 54.5626C28.8002 54.866 28.6766 55.1301 28.5511 55.3877C28.3157 55.8736 27.9841 56.4679 27.8421 56.7504C26.5185 59.8068 25.0476 62.6862 24.286 65.6779C22.3773 73.1104 20.99 80.6985 18.9562 88.1785L18.9471 88.2104C18.4036 90.0359 18.0163 91.9058 17.7896 93.7935L17.7937 93.7542C17.6494 94.8145 17.673 95.2927 17.7426 95.2746C17.7557 95.3347 18.2664 95.6275 18.7791 95.7695C19.5638 96.0119 20.5087 96.1441 21.6097 96.3028C22.6328 96.4139 25.114 94.5954 26.5988 93.4175C27.5636 92.657 28.144 92.5188 29.2185 91.2529C29.2817 91.296 29.345 91.339 29.4083 91.3819C30.4052 90.3338 30.9521 89.5712 32.1036 88.422C33.0751 87.4548 35.6457 84.8782 36.5816 84.0425C37.0464 83.6235 36.9868 83.8696 37.4192 83.4694C37.7185 83.1945 38.1331 82.7766 38.6253 82.3276C39.2547 81.9071 39.2517 81.2838 41.1704 80.9804C42.3457 81.1538 42.4388 81.4479 42.8301 81.6763C44.053 82.5961 45.3409 84.2622 46.0374 84.9727C48.4895 87.5185 51.1156 90.2593 53.5802 92.9612C54.2567 93.708 55.0384 94.7408 55.2695 94.9513C55.7135 95.3622 55.9695 95.3571 56.2759 95.6016C56.8988 96.1888 58.645 97.2184 58.2836 97.1225C59.7226 96.946 60.87 96.8462 61.5281 96.5179C61.7732 96.4046 61.989 96.2707 62.1843 96.1094C64.6386 94.3011 64.0562 90.7 63.2349 87.0409C62.654 84.204 62.1148 81.383 61.5992 78.6394C61.0053 75.4689 60.0647 70.7517 59.2294 66.9853C58.9463 65.6992 58.7224 64.5183 58.5517 63.5357C58.4053 62.6884 58.6402 62.8738 58.495 62.1691C58.3341 61.3883 58.1193 60.9939 58.0328 60.6332C57.8666 59.9428 57.6458 59.0241 57.3884 58.0162C57.3198 57.8257 57.1301 57.2694 56.9999 56.8462C56.9299 56.6181 56.8615 56.3859 56.7974 56.1222C56.7656 55.9889 56.7347 55.8524 56.7079 55.6752C56.8346 55.3463 56.1415 55.7902 57.2125 54.1041L57.1884 54.1245C58.5036 53.4421 58.109 53.8478 58.3747 53.7559C58.511 53.7577 58.6185 53.764 58.7202 53.7701C58.8582 53.7863 59.306 53.7846 58.9652 53.8034L59.0653 53.7922C59.9071 53.7199 60.9066 53.3933 61.8424 53.1946C62.2952 53.0985 62.7005 53.0257 63.0432 52.9737C63.5137 52.9028 63.8769 52.9862 64.1531 52.9327C64.2925 52.906 64.5893 52.745 65.0241 52.654C68.3938 51.9451 70.9383 51.5817 73.6911 50.4681C74.1188 50.2884 74.5415 50.1343 74.9268 49.977C75.8648 49.5955 76.345 49.2658 76.6209 48.5788C77.6346 46.2688 76.281 43.3886 74.5238 40.7819C72.5558 38.1578 70.1088 35.2799 67.9819 32.647C66.9286 31.3532 66.4006 30.2704 66.2562 30.1041C65.9227 29.7199 65.5523 29.5922 64.8347 28.8266C62.4674 26.2968 59.5458 22.6194 57.2707 20.231C56.1462 19.046 54.4587 17.5626 53.3266 16.419C52.4392 15.5153 50.4318 13.2371 49.959 12.9109C49.6726 12.7092 49.4124 12.7509 49.1052 12.4711ZM79.1634 44.0742C78.8226 43.8915 79.6212 46.5485 79.6232 45.4946C79.6471 45.2361 79.2815 44.1001 79.1634 44.0742ZM30.9782 92.4678C31.062 92.525 31.1458 92.5821 31.2297 92.6392C31.4361 92.39 31.6379 92.1431 31.841 91.8934C31.6702 91.9736 31.4994 92.0533 31.3287 92.1323C31.2126 92.2439 31.0957 92.3558 30.9782 92.4678Z" fill="#121212"/>
</svg>
