<svg width="84" height="113" viewBox="0 0 84 113" fill="none" xmlns="http://www.w3.org/2000/svg">
<path d="M39.1751 1.00268C37.6176 1.5246 1.48553 42.2862 2.00556 45.286C2.59124 48.7431 7.33462 49.5905 10.0635 49.982C16.5626 50.9599 23.5792 51.0904 30.2084 51.0904C31.6372 51.0904 36.7062 50.5685 37.8763 51.7428C38.0719 51.9392 37.3563 53.0476 37.2262 53.2427C36.1218 54.678 35.5374 56.3729 34.693 57.9387C32.1572 62.5688 29.8183 67.3953 27.1538 71.9608C26.4394 73.2011 23.6449 76.6568 24.2306 78.2872C24.6206 79.4615 27.8695 80.3736 28.9083 80.8309C33.3929 82.8527 39.7608 82.0699 44.5041 81.7443C46.3243 81.6138 49.4432 81.2224 50.9376 82.6564C52.1733 83.8966 51.4577 87.5487 51.3276 88.9827C50.8076 94.0056 51.0676 99.2881 51.0676 104.374C51.0676 105.027 51.0676 111.548 52.1721 110.963C53.1478 110.506 53.6678 108.94 54.3178 108.157C56.9824 104.701 58.4112 101.179 60.49 97.3955C62.3758 94.0056 63.8046 90.5485 65.299 87.0268C66.2747 84.7441 67.6392 82.7223 68.548 80.4382C69.068 79.0688 69.588 77.7653 70.0437 76.3959C70.3681 75.4179 70.7581 74.44 70.9525 73.4607C72.5126 67.2002 62.9589 70.6573 59.7756 71.0475C59.1912 71.1121 57.9568 71.6353 57.3711 71.3084C56.7211 70.9829 57.1111 68.6342 57.1111 68.0477C57.1111 64.526 60.1 55.4609 60.49 51.9379C61.0101 47.3737 81.2849 51.5477 81.9993 45.286C82.195 42.9386 40.3452 0.612531 39.1764 1.00268H39.1751Z" fill="#FF689B"/>
<path d="M50.2132 13.9775C49.9116 13.7119 49.5711 13.1919 49.2325 12.8476C47.8213 11.4122 47.3408 10.8145 46.039 9.47574C45.1286 8.53806 43.1373 6.64161 41.4904 5.01133C40.0901 3.39554 37.6635 1.91197 39.4698 1.88171C39.4107 1.90218 39.2389 1.92867 39.1764 1.92939C39.1755 1.92295 39.1751 1.91646 39.1751 1.90991C39.1751 1.90988 39.1751 1.90986 39.1751 1.90984C39.1751 1.90331 39.1755 1.89673 39.1764 1.8901C39.2362 1.88941 39.4008 1.86405 39.4574 1.84444C39.4538 1.84313 39.4499 1.84194 39.4456 1.84084C38.3106 1.58571 39.5783 1.71532 39.67 1.68283C39.863 1.59273 40.5519 0.514932 41.4155 1.15861C42.591 2.03532 44.8611 4.62421 45.4383 5.15961C45.8321 5.5217 46.343 5.85373 46.8549 6.31943C48.4396 7.76005 49.1792 8.60157 50.7931 9.75535C51.2183 10.4034 51.656 11.0656 52.1022 11.738C52.8507 12.3734 53.8129 13.6369 54.2396 14.0471C54.5991 14.3929 54.8983 14.5099 55.2744 14.8786C55.7018 15.2967 56.2318 16.0263 57.001 16.7725C58.2692 18.0045 58.7136 17.9769 59.4872 18.7007C60.2886 19.4511 61.3414 20.785 62.4006 21.7006C62.5492 21.7997 62.6977 21.8989 62.8461 21.998C62.8187 21.85 62.7912 21.7019 62.7637 21.5538C63.2816 22.0288 63.3693 22.3647 63.8158 22.8282C64.3402 23.3727 64.7298 23.5407 65.0841 23.9074C65.3748 24.2084 65.6747 24.7058 66.0548 25.0878C66.6143 25.6512 66.6298 25.3961 66.9512 25.6788C67.0799 25.7905 69.3293 27.9854 69.4512 28.1133C70.3758 29.0718 70.2833 29.3491 71.0043 30.1422C73.0109 32.3494 75.2497 34.4405 77.1683 36.4336C78.0298 37.3288 78.8943 38.3148 79.6579 39.2498C77.8869 38.227 80.3293 41.8108 80.0581 39.9242C80.8172 41.0315 81.7132 41.6516 82.4867 42.7463C82.8895 43.5558 83.1016 42.9916 83.5597 45.416C83.5588 45.4255 83.5562 45.454 83.555 45.4635C83.4948 45.85 83.396 46.2517 83.1892 46.7157C81.4315 49.8491 78.5268 50.1698 77.8399 49.7246C75.2641 50.3915 73.0731 50.1974 72.2093 50.9217C71.561 51.0063 69.8899 50.7106 69.1777 50.699C68.4836 50.6543 63.3499 50.8972 62.7664 51.2692C62.1013 51.4352 61.4715 51.9446 61.601 52.0645C61.5928 52.1876 61.5837 52.3075 61.5763 52.4152C61.5058 53.369 62.0291 54.1755 60.8893 55.5841C60.5085 57.4361 60.3136 58.0692 59.798 59.7294C59.7048 60.0292 59.5828 60.0349 59.5377 60.2125C59.4451 60.5789 59.3723 61.2206 59.2234 61.8753C58.9792 62.9483 58.6041 63.5072 58.9971 63.4705C58.8986 64.188 58.81 64.9033 58.7448 65.6075C58.63 65.8315 58.5155 66.0689 58.4063 66.2981C58.4269 66.6781 58.4568 67.0556 58.5053 67.4071C58.2718 67.1903 58.1541 67.6377 58.1888 68.0477C58.194 68.7977 58.3055 69.2316 58.513 68.8099C58.4381 69.2519 58.3708 69.6655 58.3389 70.033C58.193 70.3338 58.7048 70.9316 57.9242 70.204C57.934 70.2091 57.9634 70.2244 57.973 70.2299C57.5635 70.1648 58.1833 70.282 58.5953 70.1754C58.6078 70.4296 58.9149 70.3726 59.6833 70.2122C60.4592 70.0643 61.5591 69.5068 61.3491 69.3469C61.5046 69.3134 61.6609 69.2795 61.8233 69.2443C63.2511 69.1052 64.5282 68.6576 66.3915 68.575C68.274 68.5485 68.1421 68.6989 68.6926 69.0161C69.147 69.0534 69.6296 69.1336 70.1138 69.3223C71.3421 69.4842 71.8877 70.4176 71.9529 71.0931C72.0342 71.8181 71.8788 72.4848 71.6367 73.6312L71.6441 73.598C71.5704 74.036 71.4772 74.5477 71.3765 75.1572C71.1031 75.4822 70.8339 75.9875 70.6029 76.5814C70.1214 77.8426 69.6274 79.4831 69.2682 80.7117C69.2673 80.714 69.2647 80.7208 69.2638 80.723C69.257 80.7446 69.2502 80.7661 69.2434 80.7875C69.1719 81.009 69.2589 81.0495 69.163 81.3461C68.9366 82.0855 67.9502 83.7014 68.2503 83.7828C67.8677 84.3149 67.4849 84.832 67.1138 85.3493C66.9241 85.8316 66.7437 86.3111 66.5818 86.7885C66.6695 86.8268 66.7572 86.8651 66.845 86.9034C66.6868 87.0717 66.5394 87.2759 66.4056 87.4998C65.913 88.3434 65.523 89.4272 65.2149 89.9916C65.1361 90.1353 65.0013 90.1159 64.7673 90.5677C64.4939 91.0955 64.085 92.1257 63.7534 92.755C63.7728 93.0666 63.7906 93.379 63.8065 93.6924C63.3382 94.8853 62.7886 95.1207 62.4267 95.7763C62.379 95.8697 61.6958 97.2286 61.3444 97.8708C61.2529 98.0438 61.1896 98.1667 61.1776 98.1925C60.735 99.1606 61.1653 99.0225 59.6965 101.748C59.433 102.236 59.1259 102.584 58.8874 103.029C58.488 103.816 57.3491 106.311 57.4101 106.621C56.9173 107.084 56.1779 108.145 55.4648 109.041C55.4583 109.049 55.4389 109.074 55.4321 109.082C55.1704 109.389 54.7879 110.133 54.5537 110.432C54.3555 110.667 54.2598 110.615 53.519 111.38C53.3469 111.538 53.0921 111.789 52.661 112.006L52.7114 111.981C52.4157 112.196 51.6023 112.224 51.2244 111.907C50.8689 111.653 50.7496 111.416 50.651 111.252C50.4624 110.903 50.383 110.636 50.3067 110.381C50.1636 109.877 50.0924 109.444 50.0608 109.123C49.9823 108.213 50.132 107.896 50.1157 107.501C50.1037 107.13 49.9577 106.798 49.9408 106.293C49.9201 105.628 49.949 104.978 49.9933 104.374C50.0527 103.574 50.1158 102.822 50.1107 102.127C50.0977 100.377 49.6907 98.8315 49.5155 97.3527C49.5388 96.9854 49.6202 96.6242 49.6221 96.2386C49.6351 93.8918 49.7179 91.3743 50.008 88.8461L50.0064 88.863C50.322 86.7087 50.5848 84.1087 50.0632 83.5276L50.083 83.547C49.956 83.417 49.7885 83.2989 49.5833 83.1982C48.7655 82.6602 45.9747 82.5615 44.5791 82.7894C43.8542 82.8852 43.5419 83.044 44.0641 83.3053C43.3466 83.5219 37.6867 83.5778 36.5752 83.4912C35.4827 83.4779 34.5985 83.5867 33.7189 83.5045C31.7784 83.303 30.2299 82.9588 28.3151 82.1468L28.3267 82.152C27.854 81.9593 27.0929 81.7273 26.29 81.4438C25.5016 81.171 24.5441 80.918 23.996 80.5296C23.6067 80.2169 23.1052 79.9111 22.7169 78.7899L22.7295 78.8264C22.5691 78.2758 22.5937 77.7812 22.6449 77.3556C23.0368 74.8787 25.0614 72.4672 25.8221 71.1937C25.8748 71.1057 25.9212 71.0285 25.9657 70.955C26.1211 70.6987 26.309 70.6856 26.5645 70.3362C27.5609 68.9761 28.4387 67.301 27.8423 67.3594C29.1143 65.5982 29.8085 63.6988 30.7279 61.9066C31.4007 60.5966 32.2853 58.9182 33.2574 57.1525L33.2524 57.1618C34.0174 55.7736 34.6726 53.8893 35.9248 52.2413L35.8598 52.332C35.9802 52.1461 36.1152 51.918 36.2054 51.7403C36.2505 51.6525 36.288 51.5666 36.2958 51.54C36.4639 51.6751 35.733 50.998 36.7002 52.9147C36.898 52.981 35.3357 52.6673 34.629 52.7494C32.7218 52.8266 32.6442 53.0738 30.2084 53.0724C29.8518 53.0603 29.4436 53.0414 28.9686 53.0136C28.2013 52.9686 27.4369 52.907 26.5048 52.8462C24.3179 52.7034 22.3266 52.2394 20.6357 52.6665C18.2055 52.4363 16.2487 52.391 14.4806 51.799C14.2586 51.8806 14.0351 51.9614 13.8116 52.0414C13.5125 52.0138 13.2123 51.9847 12.9131 51.9541C12.8303 51.8471 12.7479 51.7399 12.6659 51.6327C11.7966 51.523 10.8243 51.4583 9.85203 51.3874C8.4467 51.3019 6.95454 51.1498 5.8194 50.7798C4.55752 50.3259 1.11749 49.2738 0.443462 45.5506C0.607725 43.2214 1.17346 43.3791 1.56778 42.526C1.97888 41.8995 2.39607 41.3229 2.81025 40.7668C3.60307 39.7084 4.33293 38.8066 4.84286 38.1955C5.82661 37.0254 5.71243 36.8403 6.59744 36.4043C6.77798 36.1265 6.96284 35.8446 7.15174 35.5587C7.21114 35.3331 7.27225 35.1058 7.335 34.8769C8.53681 33.3637 10.1372 31.6365 11.3073 30.2227C13.459 27.6139 16.5528 23.5714 18.897 21.1178C19.486 20.5001 20.3254 19.8259 20.8712 19.1945C21.6683 18.2732 21.6101 17.851 22.6253 16.6815C24.3601 14.6798 27.9215 11.2267 29.5807 9.34889C30.077 8.78597 30.196 8.47653 30.55 8.06682C31.941 6.45193 33.1757 5.11783 34.4554 3.48461C36.2183 2.06534 36.3373 2.52937 37.1434 2.27402C37.63 2.18038 39.5586 1.35106 39.4889 1.77249C39.5194 1.95647 39.7357 2.1464 39.8825 2.27703C38.3225 3.92064 37.3384 4.79039 35.6805 6.12396C32.9775 9.04992 30.3534 11.991 27.7137 14.9843C27.3838 15.1882 27.0686 15.3757 26.7457 15.5724C26.7455 15.5722 26.7454 15.572 26.7452 15.5719C25.6394 16.629 25.4244 17.3107 24.934 17.9687C20.2239 24.3037 9.65589 35.7366 4.66389 42.7071C4.33609 43.0797 3.23662 45.1127 3.16342 45.0852C3.35523 46.7052 5.52919 47.6422 6.12536 47.9589C6.39154 48.1069 6.41854 48.2981 6.7336 48.4044C7.84488 48.7031 9.0121 48.8709 10.2042 49.0008C12.1086 49.2237 14.0188 49.3691 15.9323 49.4615C20.5799 50.0345 25.4122 50.042 30.2084 49.9763C31.8847 49.9071 33.7762 49.7189 35.6856 49.8722C36.5866 50.0127 37.4491 49.8756 38.7191 50.903C39.5543 52.5196 38.8945 52.2578 38.9471 52.5777C38.8683 52.7796 38.791 52.9342 38.7131 53.084C38.5558 53.3817 38.4029 53.6356 38.2253 53.9085C38.2164 53.9223 38.1876 53.9618 38.1778 53.9749C37.2399 55.196 36.6702 56.8309 35.7802 58.525C33.2704 63.1796 30.9818 67.9843 28.3021 72.631C27.5853 73.8043 26.9398 74.6587 26.3786 75.6377C25.8212 76.4995 25.4037 77.8622 25.5115 77.8271C25.5138 77.8332 25.5201 77.852 25.5223 77.8582C25.291 77.5989 26.2134 78.3549 26.9207 78.5921C27.7008 78.9301 28.4654 79.1625 29.4635 79.5699C29.4657 79.5708 29.4724 79.5738 29.4746 79.5748C33.5087 81.2954 38.5061 80.7852 43.338 80.4449C43.6841 80.4196 44.0445 80.3923 44.4095 80.3655C46.4274 80.3227 49.1506 79.4217 51.9382 81.6136C51.9429 81.618 51.9567 81.6318 51.9614 81.6363C53.3629 83.3449 53.0325 84.6372 53.0642 85.7295C52.9824 87.0921 52.6258 87.7239 52.5923 89.0974C52.592 89.1006 52.591 89.1103 52.5907 89.1135C52.5877 89.2502 52.5877 89.3951 52.5912 89.5496C52.5152 89.561 52.4393 89.5725 52.3633 89.584C52.3157 91.1302 52.4324 92.1239 52.401 93.8625C52.3614 95.3231 52.4055 99.2336 52.3988 100.554C52.3931 101.237 52.2508 100.984 52.259 101.622C52.2676 102.254 52.3446 103.304 52.3992 104.374C52.4384 105.118 52.4898 105.887 52.5147 106.497C52.5414 107.155 52.5506 108.046 52.6147 108.849C52.6463 109.248 52.6957 109.635 52.7577 109.899C52.6789 110.226 53.4004 110.099 51.9479 109.736C51.7791 109.75 51.6626 109.797 51.5771 109.84C51.588 109.834 51.6215 109.818 51.6327 109.812C51.9015 109.731 52.3341 108.629 53.2565 107.276L53.2253 107.315C54.7204 105.241 55.9057 102.859 57.1781 100.449C57.6943 99.4744 58.515 98.2715 58.6771 97.9582C58.9893 97.3441 58.9336 97.0797 59.1383 96.6586C59.139 96.6571 59.1398 96.6556 59.1405 96.6541C60.154 94.6438 61.8199 91.5215 62.71 89.4437C63.1347 88.4664 63.5554 87.4722 63.9818 86.4679C65.0111 84.0695 66.3838 82.008 67.2052 79.9039L67.1969 79.9251C67.7092 78.5641 68.2295 77.2444 68.6608 75.9357C69.0016 74.908 69.3587 73.9931 69.5184 73.1761C69.521 73.1622 69.5306 73.121 69.5338 73.1072C69.7615 71.6863 69.8314 71.6287 68.8244 71.3023C66.9073 70.859 63.5246 71.8523 59.9497 72.4678C59.9463 72.4683 59.9362 72.4694 59.9328 72.4698C59.4577 72.4184 58.8021 73.2703 56.6818 72.5435L56.7377 72.5731C55.4339 71.6436 55.7637 71.0776 55.6259 70.6807C55.5846 70.2699 55.593 69.9332 55.6069 69.6118C55.6344 69.0041 55.724 68.3207 55.7439 68.0477C55.7563 67.4614 55.8217 66.9732 55.891 66.5234C56.0566 65.5485 56.2106 65.841 56.3513 65.0493C56.5163 64.1764 56.4946 63.6874 56.5726 63.2828C57.085 60.4957 58.6794 54.462 59.1353 52.0941C59.1577 51.9803 59.1837 51.8823 59.2105 51.7962C59.3396 51.1643 59.6659 50.7774 59.9019 50.4751C60.0462 50.2824 60.3788 49.7933 60.9569 49.4756C65.6916 47.5974 68.6249 48.2792 72.7377 47.8832C74.3898 47.7719 76.097 47.6144 77.6983 47.2227C79.2862 46.8541 80.7404 46.0685 80.735 45.1417L80.7312 45.1803C80.8321 45.9962 80.7071 45.3092 80.5446 45.1735C80.3963 44.9538 80.2497 44.7545 80.0453 44.4874C79.7209 44.0644 79.2766 43.5221 78.9228 43.1029C78.104 42.1311 77.3095 41.233 76.5033 40.3301C74.8678 38.5015 73.2021 36.6874 71.6015 34.9295C70.4029 33.6135 69.7382 32.479 69.5743 32.3097C69.1893 31.9116 68.8023 31.7936 67.9763 30.9971C65.2744 28.3908 61.9062 24.6058 59.3281 22.1219C58.0576 20.8957 56.177 19.3511 54.905 18.1501C53.9069 17.2057 51.652 14.8096 51.1324 14.4521C50.8201 14.2366 50.5453 14.2689 50.2132 13.9775ZM81.9181 48.1184C81.9791 47.825 79.3735 49.5286 80.4846 49.1711C80.7592 49.1327 81.918 48.2954 81.9181 48.1184ZM50.4674 89.8609C50.3668 89.8767 50.2662 89.8925 50.1655 89.9086C50.1777 90.2591 50.1934 90.609 50.212 90.9578C50.284 90.7674 50.3569 90.5767 50.4307 90.3873C50.4421 90.2118 50.4544 90.0362 50.4674 89.8609Z" fill="#121212"/>
</svg>
