<svg width="428" height="9" viewBox="0 0 428 9" fill="none" xmlns="http://www.w3.org/2000/svg">
<path d="M407.038 0.505911C407.548 0.457935 408.267 0.717345 408.868 0.731009C411.386 0.790997 412.319 0.97082 414.597 1.07281C417.975 1.22429 428 0.883346 428 2.68555C428 2.68559 428 2.68564 428 2.68568C428 2.70335 427.999 2.72123 427.997 2.73931C427.962 3.08265 427.109 3.45747 426.983 3.84576C426.856 4.2342 426.951 6.7419 425.74 6.88288C423.984 7.06866 419.772 6.42567 418.835 6.45417C418.195 6.47381 417.407 6.70177 416.588 6.74225C413.948 6.87271 412.567 6.70601 410.189 7.32526C409.238 6.99893 408.286 6.67259 407.335 6.34626C406.094 6.49757 404.213 6.06718 403.459 6.09089C402.84 6.11038 402.478 6.36844 401.833 6.38044C401.11 6.39535 399.999 6.1168 398.684 6.15876C396.527 6.22625 396.144 6.89944 394.85 6.98493C393.508 7.0734 391.421 6.70751 389.709 6.9444C389.495 7.01846 389.28 7.09252 389.065 7.16657C389.219 7.33405 389.373 7.50153 389.527 7.66901C388.665 7.74698 388.294 7.40374 387.501 7.39753C386.569 7.39003 386.093 7.71544 385.466 7.71394C384.952 7.71242 384.255 7.45149 383.589 7.46784C382.618 7.49034 382.83 7.86708 382.307 7.93757C382.099 7.96495 378.242 8.17285 378.025 8.17585C376.37 8.19071 376.226 7.67504 374.907 7.62995C371.248 7.50697 367.491 7.92365 364.106 8.08112C362.595 8.15157 361.018 8.12161 359.511 8.03913C361.884 6.71938 356.631 5.69228 358.596 7.75739C356.919 7.46361 355.73 8.02109 354.14 7.92683C353.112 7.86534 352.401 7.579 350.933 7.58649C348.328 7.60163 345.478 8.41556 344.729 6.9444C341.671 7.20375 339.023 6.6701 337.921 7.96882C337.132 8.04816 335.111 7.27459 334.227 7.1695C333.39 7.07052 326.973 6.72122 325.923 6.70173C324.873 6.68223 323.035 6.66103 322.151 6.77497C321.04 6.91595 320.264 8.26282 318.286 6.68805C315.986 6.81548 315.167 6.77042 313.028 6.58747C312.641 6.55439 312.597 6.32059 312.371 6.32038C311.905 6.32038 311.112 6.49315 310.28 6.51423C308.912 6.54872 308.132 6.05679 308.284 6.80817C307.383 6.93415 306.481 7.06013 305.579 7.1861C305.263 7.04108 304.946 6.89606 304.63 6.75104C304.148 6.90908 303.665 7.06712 303.183 7.22517C303.75 6.13786 300.356 6.7795 301.458 7.40339C299.71 7.17845 297.961 6.95352 296.213 6.72858C296.457 5.49283 292.375 6.58597 292.718 7.25788C292.518 7.2569 292.318 7.25593 292.118 7.25495C290.367 6.9265 288.759 7.19514 286.624 6.97468C284.49 6.75422 284.69 6.63389 284.041 6.06549C283.539 6.09805 283.036 6.1306 282.534 6.16315C279.899 7.72141 280.364 5.0235 275.851 6.21882C274.409 5.23946 270.855 5.75389 268.498 6.05085C268.224 6.08534 268.219 6.27543 267.854 6.33405C266.961 6.47501 264.682 6.23065 264.76 6.84382C263.971 6.66641 263.183 6.489 262.394 6.31159C261.749 6.42308 261.105 6.53457 260.46 6.64606C260.463 6.83747 260.466 7.02888 260.47 7.22028C259.171 6.56793 257.132 6.81864 256.125 6.66266C255.925 6.63105 255.882 6.36701 255.259 6.29499C254.532 6.2095 253.176 6.28763 252.309 6.20514C251.972 6.49762 251.635 6.79011 251.298 7.08259C249.748 7.24123 249.203 6.46923 248.293 6.40925C248.129 6.39882 245.138 6.45428 244.977 6.47077C243.658 6.60141 244.032 7.2591 240.217 7.11823C239.538 7.09274 238.988 6.86517 238.374 6.85602C237.289 6.83953 234.021 7.35566 233.764 7.83259C232.448 7.23568 228.928 7.47967 227.891 7.3072C227.579 7.25417 227.508 6.87396 226.546 6.79304C225.766 6.72705 223.758 7.03148 222.769 6.98054C221.719 6.92505 221.345 6.60565 220.874 6.58307C220.43 6.56208 220.02 6.81992 219.415 6.81843C217.524 6.80943 215.813 6.39442 214.318 6.38678C212.158 6.37479 210.249 7.13817 208.441 7.47712C207.992 7.42763 207.551 7.26377 207.081 7.26227C201.261 7.23827 194.696 7.09762 188.859 6.93415C186.149 6.85907 179.41 5.82286 181.209 7.55183C180.267 7.85462 173.419 7.15754 172.117 7.14704C170.815 7.13664 169.783 7.44667 168.759 7.45124C165.671 7.46474 163.496 7.24134 159.736 7.5113C158.765 7.58188 157.725 7.94916 157.15 7.94489C156.457 7.93889 155.712 7.58367 154.814 7.5611C152.675 7.51011 148.69 7.62696 146.638 7.5655C146.263 7.5535 146.131 7.2416 145.595 7.14411C143.509 6.7632 141.17 6.79624 141.584 7.79206C138.909 7.2267 136.435 7.7424 133.957 7.77399C128.716 7.83849 119.169 7.60605 114.604 8.02448C111.725 8.28845 111.799 8.73508 107.561 8.34968C106.62 8.26421 105.683 8.14892 104.542 8.04694C101.867 7.80699 99.4135 6.98188 97.3748 7.97614C94.4041 7.71828 92.0382 7.90115 89.834 7.05085C89.5742 7.25479 89.3143 7.45873 89.0545 7.66267C88.6903 7.66771 88.3261 7.67276 87.9619 7.6778C87.8483 7.4833 87.7346 7.2888 87.621 7.09431C85.0119 7.04193 81.7017 7.84135 79.4932 7.83552C75.7903 7.82652 66.253 7.51595 62.7418 7.25349C60.8777 7.11411 60.7773 7.53068 59.7101 6.67438C59.2932 6.73395 58.8763 6.79352 58.4593 6.85309C58.1984 7.04059 57.9375 7.22809 57.6765 7.4156C55.285 7.42309 52.4484 7.13185 50.17 7.13483C46.0184 7.14083 39.7843 7.65688 35.6153 7.31794C34.5699 7.23247 33.2632 6.8458 32.2395 6.85016C30.7497 6.85616 30.3875 7.49784 28.4969 7.50983C25.2383 7.52933 19.1698 6.7839 16.0899 6.84089C15.1751 6.8574 14.7483 7.09615 14.1166 7.12165C11.4679 7.23113 9.29337 7.21169 6.75361 7.58063C4.02657 6.96573 4.26215 6.17203 3.41702 5.37116C2.77654 4.7667 0.812588 3.36588 0.533795 2.83648C0.337959 2.46455 1.06914 1.98611 0.79472 1.57671C4.06196 1.24977 5.43458 1.60969 8.0876 2.1856C12.987 2.16265 17.8864 2.1397 22.7859 2.11675C23.2316 2.34023 23.6774 2.5637 24.1231 2.78717C24.1231 2.78765 24.1231 2.78814 24.1231 2.78863C26.0047 3.04653 26.8021 2.47102 27.8168 2.34039C37.5315 1.08958 56.6522 2.06855 67.3471 2.20953C69.6518 2.23951 77.1487 1.93839 78.73 2.30133C79.1394 2.39585 79.2533 2.74043 79.6889 2.75543C83.5805 2.55051 87.4721 2.3456 91.3637 2.14068C99.3663 2.6761 107.64 2.23391 115.703 2.15142C137.52 1.92796 159.118 1.65634 180.577 1.73882C184.725 1.75532 189.988 1.49715 194.048 1.66363C195.742 1.73265 196.448 2.28601 198.674 1.87359C198.698 2.02268 198.721 2.17177 198.744 2.32086C200.687 2.14087 201.929 1.80164 204.106 1.76714C205.941 1.73865 210.793 1.71651 212.414 1.77349C213.254 1.80198 212.941 2.08057 213.725 2.07916C215.067 2.07466 217.933 1.68952 219.785 1.68951C221.462 1.68951 224.29 2.01042 225.579 1.96392C230.223 1.79895 235.281 1.32326 240.23 1.45074C241.597 1.48681 243.355 1.84802 243.783 1.83795C244.62 1.81695 244.869 1.46606 245.431 1.42095C248.284 1.193 252.732 1.60998 255.528 1.62652C264.642 1.68051 274.297 1.52736 283.371 1.59185C289.104 1.63234 298.631 1.57059 303.924 1.83453C305.065 1.89152 304.761 2.27593 305.719 2.27593C306.782 2.27585 307.357 2.01617 307.854 1.99517C311.291 1.84819 318.879 1.58568 322.125 1.85113C322.743 1.90209 323.191 2.2033 323.562 2.2022C323.749 2.2022 324.172 1.99665 324.76 1.97564C329.953 1.78967 333.739 1.90955 338.827 1.98004C348.572 2.1135 359.864 1.7311 370.101 1.93804C372.331 1.98304 373.861 2.57881 374.175 2.57281C374.863 2.56079 375.303 2.16007 376.697 2.06109C381.332 1.73574 387.574 2.16335 391.983 1.96246C394.161 1.86348 397.154 1.3548 399.297 1.24224C401.009 1.15227 405.051 1.35181 405.81 1.12847C406.272 0.993542 406.485 0.560165 407.038 0.505911ZM349.369 7.25202C349.674 6.55913 346.469 7.13496 347.671 7.5069C347.942 7.59065 349.29 7.43188 349.369 7.25202ZM199.292 6.04889C199.322 6.24681 199.351 6.44473 199.38 6.64264C199.801 6.56029 200.222 6.47793 200.643 6.39557C200.406 6.2766 200.17 6.15762 199.933 6.03864C199.72 6.04206 199.506 6.04547 199.292 6.04889Z" fill="#121212"/>
</svg>
