<svg width="126" height="146" viewBox="0 0 126 146" fill="none" xmlns="http://www.w3.org/2000/svg">
<path d="M23.9922 78.3285C23.5821 78.4024 22.99 78.1832 22.5187 78.2058C20.51 78.3068 19.7532 78.2021 17.9855 78.3257C16.6563 78.4247 14.1218 78.8612 12.1312 79.3421C10.0694 79.8121 9.07009 80.277 8.44769 79.6728L5.37758 82.6854L5.31115 78.328C5.32506 78.327 5.3391 78.3265 5.35327 78.3265C5.35331 78.3265 5.35336 78.3265 5.3534 78.3265C5.36752 78.3265 5.38176 78.327 5.39613 78.328L5.45953 82.4859L8.38909 79.6113C8.38671 79.6085 8.38433 79.6058 8.38196 79.603C8.1342 79.3537 8.30702 78.7182 8.18681 78.3371C8.05066 77.9733 6.4954 75.9286 7.54247 75.1716C9.09459 74.03 12.9241 73.7392 13.6798 73.5889C14.2011 73.461 14.8845 73.1027 15.539 72.956C17.7976 72.4703 18.9424 72.523 20.8973 71.7222C21.7666 71.9743 22.5339 72.2442 23.3701 72.5161C24.4237 72.2935 25.9754 72.6472 26.6284 72.5969C27.1327 72.556 27.4217 72.2864 27.9583 72.2554C28.5617 72.2191 29.505 72.4682 30.5861 72.4025C32.3918 72.2977 32.6835 71.6244 33.7645 71.5272C34.9018 71.4275 36.6077 71.7884 38.0462 71.5582C38.2233 71.4848 38.4007 71.4116 38.5787 71.3386C38.4524 71.1704 38.3262 71.0023 38.1999 70.8342C38.9129 70.7597 39.2189 71.1051 39.879 71.1169C40.6583 71.1314 41.0572 70.8108 41.5749 70.8187C42 70.8255 42.5745 71.0944 43.1299 71.0869C43.94 71.0774 43.7717 70.6981 44.2041 70.6351C44.3706 70.6085 47.5871 70.4671 47.7604 70.47C49.1299 70.4875 49.2403 71.0065 50.3315 71.08C53.3542 71.2828 56.4749 70.9638 59.2729 70.8967C60.525 70.8667 61.823 70.9393 63.0636 71.0623C61.0591 72.3173 65.3651 73.4855 63.8101 71.3686C65.1824 71.7072 66.1795 71.1816 67.4871 71.3169C68.3302 71.4048 68.9042 71.7092 70.1177 71.7377C72.2514 71.7866 74.6209 71.0326 75.1994 72.5174C77.7213 72.3191 79.891 72.8866 80.8026 71.5992C81.4669 71.5295 83.0808 72.3184 83.8211 72.4259C84.2712 72.4935 86.6694 72.6702 88.4822 72.7581L88.465 72.7584C89.4562 72.799 90.3112 72.8294 90.6072 72.8308C91.4779 72.8335 93.0117 72.8327 93.7393 72.7126C94.6594 72.5638 95.3088 71.2098 96.9579 72.788C98.8769 72.6696 99.5618 72.7239 101.345 72.9505C101.668 72.9922 101.698 73.2272 101.887 73.233C102.276 73.2445 102.944 73.0937 103.642 73.1023C104.791 73.1169 105.417 73.6491 105.331 72.891C106.097 72.8078 106.865 72.7322 107.64 72.6667C107.898 72.8325 108.151 72.9989 108.406 73.1669C108.832 73.0456 109.248 72.9264 109.679 72.8121C109.088 73.8338 112.029 73.5335 111.176 72.8036C112.65 73.2167 114.113 73.677 115.584 74.2497C115.081 75.3432 118.842 75.3297 118.844 74.6864C119.032 74.7615 119.221 74.8414 119.405 74.9239C119.689 75.1198 120.017 75.3256 120.313 75.5188C121.788 76.4472 123.011 77.6604 123.701 79.3045C124.464 81.3436 124.155 81.1984 123.838 81.9475C124.013 82.3719 124.169 82.7983 124.311 83.2267C126.331 85.2431 123.703 85.2747 125.159 89.0106C124.407 90.0799 124.653 92.1902 124.691 94.1773L124.692 94.1636C124.706 94.5595 124.727 94.9439 124.745 95.2983C124.758 95.5238 124.946 95.5448 124.976 95.8452C125.043 96.584 124.649 98.4109 125.266 98.3967C125.039 99.0269 124.815 99.6514 124.592 100.289C124.667 100.82 124.742 101.361 124.819 101.894C125.01 101.903 125.201 101.913 125.393 101.923C124.671 102.946 124.817 104.636 124.609 105.46C124.567 105.622 124.301 105.641 124.197 106.15C124.073 106.746 124.078 107.87 123.946 108.581C124.219 108.88 124.491 109.18 124.763 109.48C124.829 110.779 124.023 111.175 123.902 111.925C123.885 112.059 123.719 114.55 123.718 114.687C123.731 115.798 124.449 115.552 123.909 118.738C123.809 119.304 123.519 119.736 123.435 120.247C123.299 121.15 123.318 123.984 123.729 124.302C122.942 125.302 122.461 128.318 122.017 129.146C121.888 129.394 121.512 129.344 121.183 130.118C120.926 130.737 120.625 132.502 120.238 133.289C119.832 134.131 119.401 134.295 119.208 134.663C119.07 134.922 119.079 135.23 118.989 135.571L118.978 135.594C118.943 135.714 118.896 135.838 118.83 135.962C117.996 137.509 116.655 138.665 115.452 139.64C113.74 141.082 111.877 142.299 110.298 142.907C109.881 142.927 109.47 142.821 109.071 142.874C107.788 143.04 106.572 143.169 105.362 143.358L105.339 143.362C101.73 143.895 97.7394 144.599 93.8831 144.594C91.415 144.847 85.5755 142.469 86.7587 144.479C86.3295 144.506 84.79 144.012 83.2696 143.106C81.1355 141.852 79.7883 140.112 79.3177 139.671C78.4932 138.846 77.6658 138.402 77.0758 137.764C75.3163 135.867 74.3533 134.317 72.1202 132.687C71.5425 132.275 70.7604 132.148 70.4632 131.942C70.1047 131.689 69.8919 131.138 69.4089 130.875C68.284 130.19 66.3107 130.066 65.0869 130.398C65.0291 130.41 64.9721 130.423 64.9169 130.434C64.5991 130.499 64.4154 130.222 63.951 130.23C62.1339 130.251 60.3391 130.694 60.8938 131.591C58.7176 131.527 57.1636 132.567 55.8528 133.361C54.9891 133.874 54.0352 134.589 53.1736 135.624L53.1827 135.613C52.7732 136.143 51.7489 138.062 50.9716 139.474C50.5548 140.23 50.1372 140.981 49.6644 141.748C49.0081 142.576 49.2671 143.105 46.9413 144.631L46.9546 144.625C45.5036 145.298 44.7542 145.295 44.0659 145.418C41.0524 145.715 41.0297 146.059 37.5597 145.209C37.3657 145.159 37.1792 145.108 37.0332 145.064C36.5446 144.939 36.0004 144.809 35.368 144.692C33.3095 144.313 31.3047 143.443 29.5799 144.375C27.12 144.032 25.0611 144.108 23.2446 143.077C23.0016 143.258 22.7558 143.438 22.5077 143.616C22.1916 143.587 21.8701 143.554 21.5513 143.518C21.4766 143.312 21.4037 143.107 21.3305 142.901C19.1037 142.568 15.9574 142.681 13.9076 141.796C12.9801 141.406 11.631 140.749 10.2399 139.653L10.2494 139.66C6.57592 136.944 4.2789 131.818 3.72499 129.646C3.27271 128.023 2.86975 128.048 3.41508 126.904C3.25549 126.572 3.09938 126.232 2.9491 125.895C2.70995 125.723 2.47174 125.547 2.23454 125.368C1.71487 123.31 1.59918 120.83 1.3633 118.897C0.895886 115.374 0.158914 110.121 0.440413 106.649C0.507807 105.782 0.876124 104.69 0.857321 103.846C0.829406 102.619 0.185437 102.328 0.13587 100.796C0.107853 99.967 0.145565 98.9065 0.179209 97.8079C0.268016 94.8055 0.989615 92.0198 1.18289 90.1971C1.27298 89.4219 1.09302 89.026 1.15295 88.4865C1.41371 86.2217 1.79425 84.4113 2.05568 82.1171C3.36038 79.9194 4.10937 80.4012 5.11703 80.0179C5.8747 79.6675 7.95633 79.0128 8.30778 79.538C8.58589 79.7843 8.84629 80.2065 9.18829 80.4392C8.83334 81.4919 8.01831 82.8751 6.97433 84.5965C6.08093 88.3078 5.51695 92.3118 5.39268 96.0833C5.16003 96.4102 4.93303 96.75 4.71642 97.0838C4.71593 97.0838 4.71544 97.0838 4.71495 97.0838C4.68693 97.2483 4.67454 97.417 4.67323 97.5469C4.675 98.7533 5.14953 99.3524 5.28775 100.092C6.70629 108.136 5.60064 124.017 9.89775 130.95C10.4035 131.933 12.0451 134.014 13.6275 135.138C14.4322 135.753 15.2256 136.184 15.5303 136.466C15.7559 136.673 15.6936 137.021 15.9893 137.159C18.7559 138.044 21.8274 138.255 24.929 138.295C28.9573 138.96 33.2061 138.8 37.6888 139.148C40.2356 139.424 42.7891 139.773 44.3128 139.489C44.4296 139.464 44.5071 139.427 44.4608 139.444L44.47 139.439C43.8155 139.912 44.7524 138.997 44.9981 138.471C45.3719 137.86 45.7452 137.184 46.1156 136.498C46.9205 135.068 47.388 133.853 48.728 131.966L48.7349 131.958C52.6516 126.875 59.2218 125.996 63.7149 124.836C66.2667 124.138 69.2863 124.424 71.659 125.55C74.058 126.651 75.8905 128.251 77.4956 129.825C80.6428 132.929 83.256 136.573 85.8754 137.948C86.5034 138.268 87.1626 138.533 87.8503 138.746C90.555 139.645 94.5097 139.265 97.6952 138.974C99.0284 138.861 99.677 139.318 101.4 138.607C101.444 138.751 101.488 138.895 101.532 139.039C102.633 138.719 103.438 138.364 104.474 138.07L104.453 138.074C104.887 137.95 105.346 137.843 105.877 137.756C107.539 137.506 111.204 137.023 111.71 136.611C112.097 136.435 112.102 136.757 112.449 136.52C113.061 136.147 113.847 134.532 114.428 133.313C114.434 133.301 114.44 133.29 114.446 133.278L114.432 133.306C115.011 132.197 116.085 130.329 116.348 129.367C117.352 125.898 117.655 121.892 118.291 117.991C118.471 116.913 118.984 115.543 119.009 115.197C119.059 114.522 118.729 114.286 118.727 113.83C118.725 111.519 119.392 107.933 119.552 105.632C119.828 101.782 120.016 97.7619 120.444 93.6867L120.448 93.6578C120.729 90.4611 120.529 86.6827 119.726 83.7858C119.355 82.3587 118.49 80.7344 117.67 80.3475C115.249 79.0537 111.045 78.528 108.538 78.116C107.635 77.9757 107.913 77.6148 107.143 77.553C106.29 77.4879 105.807 77.7195 105.408 77.7164C102.637 77.6657 96.4699 77.8555 93.8081 77.636C93.3018 77.5899 92.9325 77.2934 92.6274 77.2985C92.4735 77.3006 92.1335 77.5107 91.6482 77.5396C90.5599 77.6047 89.5475 77.6532 88.5723 77.6879L88.5529 77.6883C85.6755 77.7666 83.1242 77.6748 79.9741 77.577C71.8952 77.3234 62.5596 77.3395 54.1357 76.8819C52.3032 76.7819 51.0564 76.1525 50.7996 76.1515C50.234 76.1483 49.8606 76.5389 48.7092 76.6092C44.8895 76.837 39.769 76.3265 36.1572 76.5373C34.3872 76.6369 31.9354 77.1722 30.1985 77.3294C28.8152 77.4442 25.522 77.3833 24.9366 77.6484C24.5764 77.804 24.4423 78.2458 23.9922 78.3285ZM71.3919 72.1094C71.1151 72.7954 73.7815 72.2923 72.798 71.8934C72.577 71.8039 71.4579 71.9315 71.3919 72.1094ZM102.607 142.636C102.665 142.827 102.722 143.018 102.78 143.209C103.11 143.069 103.437 142.929 103.764 142.789C103.553 142.705 103.339 142.621 103.128 142.536C102.955 142.57 102.781 142.603 102.607 142.636Z" fill="#121212"/>
<path d="M92.8732 125.026C92.9543 125.399 92.7409 125.942 92.7656 126.397C92.8617 128.273 92.7358 128.978 92.7547 130.672C92.8219 133.16 93.4495 140.723 91.6038 140.714C91.6037 140.714 91.6037 140.714 91.6036 140.714C91.586 140.714 91.5681 140.714 91.55 140.713C91.2067 140.693 90.8214 140.079 90.4309 139.993C90.0401 139.907 87.5368 140.033 87.3729 139.156C87.1609 137.899 87.6579 134.83 87.5836 134.126C87.5375 133.664 87.2761 133.115 87.1971 132.52C86.9409 130.607 87.0293 129.574 86.2745 127.914C86.5437 127.2 86.809 126.465 87.0743 125.754C86.8457 124.871 87.1462 123.446 87.0708 122.907C87.0086 122.459 86.7264 122.22 86.6685 121.75C86.6016 121.219 86.7996 120.39 86.6594 119.435C86.4294 117.863 85.7299 117.663 85.5438 116.73C85.3504 115.76 85.5466 114.207 85.1684 112.985C85.0769 112.837 84.9855 112.689 84.894 112.541C84.7404 112.672 84.5868 112.803 84.4332 112.934C84.284 112.317 84.5939 112.008 84.533 111.432C84.4614 110.753 84.0973 110.445 84.0447 109.99C84.0019 109.616 84.2005 109.078 84.1259 108.596C84.0183 107.893 83.6629 108.092 83.5468 107.722C83.5027 107.575 82.9495 104.795 82.9261 104.641C82.7601 103.44 83.2579 103.269 83.1806 102.306C82.9618 99.6242 82.1905 96.967 81.7014 94.5167C81.4861 93.4465 81.3557 92.2653 81.29 91.1781C82.833 92.7175 83.3269 88.7584 81.4775 90.4717C81.5994 89.2007 80.9307 88.4359 80.8615 87.2527C80.8186 86.4985 81.0316 85.9516 80.8732 84.8733C80.5958 82.9995 79.4962 81.0269 80.8755 80.2701C80.3069 78.0893 80.563 76.0635 79.1689 75.4607C79.0068 74.8701 79.5727 73.299 79.5914 72.6422C79.6066 72.2002 79.4513 69.7109 79.411 67.9324L79.4119 67.9428C79.4131 67.4481 79.3378 66.8275 79.3103 66.6244C79.2062 65.887 78.979 64.5748 78.7447 63.9573C78.4536 63.1843 77.0209 62.8744 78.2951 61.1478C77.8543 59.5027 77.7861 58.894 77.6921 57.2949C77.6754 57.0042 77.9005 56.9328 77.8725 56.767C77.8145 56.4258 77.5467 55.8725 77.4292 55.2565C77.2365 54.2458 77.6477 53.5921 76.9184 53.8095C76.7002 53.1494 76.4894 52.4769 76.2944 51.7814C76.4144 51.5189 76.537 51.2601 76.6622 50.9948C76.4763 50.6332 76.2949 50.2469 76.1261 49.832C77.1627 50.3688 76.6932 47.199 76.002 48.1835C76.0812 47.8357 76.1727 47.4648 76.3651 46.9893C76.3664 46.9856 76.3698 46.9744 76.3712 46.9707C76.9776 45.7346 77.7788 44.6464 78.6467 43.7413C79.4931 44.5648 80.7362 41.4059 80.1149 41.1532C80.228 41.036 80.3411 40.9207 80.4542 40.8071C81.6661 40.0445 82.3838 39.0476 83.6193 38.1674C84.8358 37.2891 84.796 37.4724 85.5221 37.5361C85.6664 37.3477 85.8063 37.1587 85.9414 36.9687C85.943 36.9669 85.9476 36.9615 85.9492 36.9598C86.0137 36.8707 86.0769 36.7819 86.1388 36.6934C85.9894 34.3613 88.1194 36.244 88.5869 32.9264C89.9373 32.5055 90.362 29.9232 90.3605 28.2815C90.3661 28.0877 90.1806 28.0475 90.1722 27.7882C90.1595 27.2613 90.5095 26.0563 90.2496 25.6449C90.2028 25.5724 90.1347 25.5325 90.041 25.5252C90.2998 25.0397 90.5406 24.5409 90.7614 24.0262C90.6863 23.5847 90.5963 23.1492 90.4916 22.7234C90.3002 22.7225 90.1088 22.7215 89.9174 22.7205C90.5952 21.8912 90.2472 20.5504 90.297 19.8939C90.3086 19.7603 90.5692 19.6934 90.5686 19.2729C90.5718 18.7789 90.2907 17.9189 90.1965 17.3478C89.8513 17.2189 89.5053 17.1033 89.1593 17.0011C88.6841 16.1531 89.2379 15.5389 89.027 14.9693C89.0148 14.8528 87.9702 13.2039 87.8719 13.1458C87.2405 12.5392 86.9712 13.0536 85.4094 11.2617C85.1207 10.9509 85.0074 10.5481 84.7094 10.2901C84.1956 9.79582 82.1411 9.08573 81.7719 9.45634C81.5836 9.0352 81.0389 8.63366 80.4261 8.31252C79.7008 7.92754 78.8946 7.66616 78.5737 7.45882C78.3967 7.34411 78.4786 6.96386 77.8816 6.69672C77.398 6.47326 76.0125 6.43776 75.3688 6.26818C74.6875 6.07934 74.481 5.72755 74.1666 5.65563C73.868 5.58955 73.5524 5.80562 73.1442 5.75576C71.8664 5.59637 70.7086 5.12412 69.6613 5.1058C68.1458 5.07993 66.8539 5.92217 65.676 6.38437C65.3681 6.36655 65.0502 6.23841 64.7308 6.27815C60.7835 6.74687 56.374 7.91601 52.7939 9.64087C51.0887 10.3155 46.8156 12.3275 48.8751 12.9318C48.7552 13.1935 47.9904 13.7483 47.1758 14.4204C46.102 15.2627 45.0683 16.4285 44.8593 16.8205C44.4704 17.4962 44.5235 18.1747 44.338 18.7266C43.813 20.4058 43.403 21.7167 43.8339 24.0676C43.9529 24.6722 44.4107 25.2783 44.4667 25.6362C44.533 26.0729 44.2735 26.6091 44.385 27.1994C44.6246 28.5908 45.5836 31.154 46.0573 32.5154C46.1402 32.7648 45.882 32.963 45.9304 33.3516C46.1173 34.8672 46.831 36.4093 47.6239 35.7374C47.8679 37.7226 49.0952 39.1524 49.8785 40.8226C50.6101 42.4018 51.5835 44.6019 52.4086 47.0827L52.4011 47.0603C53.6421 51.6809 52.3278 54.6643 52.1516 56.706C51.8053 58.9246 52.1799 59.0984 50.9414 61.8276C50.8009 62.141 50.6598 62.439 50.5289 62.7261L50.5348 62.7024C50.4093 63.0055 50.28 63.3262 50.1489 63.68C49.4914 65.4477 48.3485 67.03 49.0729 68.6424C48.4502 70.6916 48.3778 72.4104 47.3043 73.8748C47.4789 74.0915 47.6537 74.308 47.8286 74.5242C47.7959 74.7874 47.7634 75.0509 47.7312 75.3147C47.527 75.3695 47.3228 75.4244 47.1186 75.4794C46.8003 77.3595 47.264 79.882 47.0237 81.5047C46.9963 81.6914 46.9643 81.8981 46.9283 82.1219L46.9311 82.1028C46.453 85.0581 45.4737 91.1694 44.9981 93.5278C44.7216 94.8695 45.1298 94.9837 44.2006 95.6769C44.2299 95.9867 44.2595 96.2964 44.2891 96.6062C44.4572 96.8146 44.6254 97.0229 44.7937 97.2311C44.6324 98.9748 44.1481 101.02 43.9941 102.687C43.7158 105.723 43.7908 110.351 43.117 113.384C42.9488 114.144 42.4572 115.062 42.3745 115.814C42.253 116.91 42.8597 117.252 42.699 118.647C42.4417 120.922 41.2022 124.944 40.7771 127.288C40.7525 127.424 40.7325 127.549 40.7165 127.668C40.6305 128.308 40.8245 128.641 40.7885 129.085C40.6463 130.947 40.482 132.487 40.7357 134.301C40.0121 136.187 39.2424 136 38.4184 136.584C37.7961 137.023 36.3769 138.457 35.8511 138.675C35.4789 138.824 35.0017 138.267 34.5917 138.475C34.2859 135.968 34.7063 134.919 35.4202 132.959C35.569 130.81 35.7992 128.664 36.1488 126.512C36.3818 125.049 36.5978 123.575 36.7986 122.097C37.0655 121.808 37.3318 121.517 37.5976 121.226C37.5981 121.226 37.5986 121.226 37.5991 121.226C38.0413 119.901 37.5436 119.248 37.5075 118.499C37.2083 111.356 39.3157 97.4913 40.3384 89.6331C40.5376 87.972 40.9119 82.5643 41.4399 81.3349C41.4401 81.3324 41.4414 81.3247 41.4417 81.3222C41.4498 81.3032 41.458 81.2852 41.4661 81.2683C41.6026 80.9868 41.9556 80.9533 42.0156 80.6403C42.2164 77.7951 42.3858 74.932 42.6108 72.0464C43.461 68.5543 44.0475 64.9277 44.8484 61.2947C44.849 61.2919 44.8512 61.2836 44.8518 61.2808C45.465 58.7595 46.1772 56.5908 46.6783 54.4257C47.1805 52.3482 47.4456 50.083 46.9888 48.896C46.9876 48.8927 46.9844 48.8825 46.9832 48.8792C44.9279 43.2187 41.4764 37.5017 39.4423 30.9873C38.4337 27.729 37.7115 24.1635 38.1364 20.3952C38.5186 16.632 40.4085 12.9054 43.0776 10.3219C43.6377 9.76507 44.224 9.23488 44.8282 8.73385C47.4038 6.54928 51.0111 4.2614 54.0835 3.26287C55.3652 2.84429 56.0531 3.17742 57.5994 2.28234C57.6589 2.42027 57.7182 2.55826 57.7774 2.69633C59.1742 2.11014 60.0441 1.54591 61.7193 1.19138C63.1215 0.854429 66.9231 0.438267 68.2057 0.506122C68.8675 0.519418 68.6265 0.80198 69.2398 0.796511C70.282 0.776355 72.5636 0.495825 74.0359 0.697583C75.3723 0.847272 77.5247 1.61435 78.5263 1.85848C79.9101 2.17061 81.3471 2.55313 82.7855 3.09015C85.1254 3.9595 87.4822 5.28476 89.3349 7.17374C90.1756 8.00985 90.8576 9.40324 91.0775 9.68556C91.5227 10.2333 91.9289 10.2096 92.2397 10.5887C93.8877 12.5115 94.9064 16.3476 95.2025 18.6711C95.6191 21.2367 95.5914 23.887 95.1748 26.4577C94.6986 30.9553 92.7118 36.4078 89.3624 39.9577L89.3763 39.9418C89.3094 40.0179 89.2423 40.0932 89.175 40.1676C86.5106 43.1097 82.4301 46.0854 81.6548 48.7326L81.661 48.7141C81.6353 48.5794 81.5322 49.5904 81.5341 50.1602C81.5248 50.9057 81.1294 50.7467 81.1908 51.3995C81.2663 52.1328 81.5787 52.5033 81.6456 52.8523C82.0831 55.2311 83.3811 60.6045 83.5774 63.0141C83.6113 63.4629 83.3794 63.8568 83.4305 64.1231C83.4574 64.2673 83.7149 64.5233 83.8165 64.9648C84.0058 65.8062 84.1768 66.5409 84.2897 67.5174C84.2899 67.5197 84.2904 67.5268 84.2907 67.5292C84.5821 69.9831 84.8584 72.4427 85.1913 75.2905C86.0511 82.4143 87.5986 90.5633 88.3722 98.0773C88.5398 99.7007 88.0937 100.907 88.1287 101.132C88.2047 101.631 88.6434 101.9 88.8708 102.908C89.6242 106.256 89.7486 110.877 90.3063 114.087C90.5834 115.672 91.3242 117.813 91.5963 119.384C91.816 120.627 91.9005 123.624 92.172 124.174C92.3373 124.504 92.7831 124.623 92.8732 125.026ZM81.0468 83.7012C81.7644 83.8285 80.8643 81.5593 80.6194 82.4897C80.5635 82.6937 80.8611 83.6724 81.0468 83.7012ZM59.1917 6.16942C59.265 6.35442 59.338 6.53954 59.4107 6.72475C59.6697 6.56718 59.932 6.41232 60.1973 6.26027C60.0077 6.1855 59.8169 6.11216 59.625 6.04028C59.4802 6.08248 59.3358 6.12553 59.1917 6.16942Z" fill="#121212"/>
</svg>
